<svg xmlns="http://www.w3.org/2000/svg" viewBox="0 0 740.29 1159.63"><defs><style>.cls-1{fill:#003b7e;}.cls-2{fill:#82ad0b;}.cls-3{font-size:30px;font-family:GothamMedium, Gotham Medium;}.cls-3,.cls-4{fill:#fff;}.cls-5,.cls-6{fill:#b5ad14;}.cls-6{stroke:#b5ad14;}.cls-18,.cls-6,.cls-9{stroke-miterlimit:10;}.cls-7{fill:#e29f27;}.cls-8,.cls-9{fill:#f37826;}.cls-9{stroke:#f37826;}.cls-10{fill:#e75433;}.cls-11{font-size:27px;font-family:Gotham-Light, Gotham;font-weight:300;letter-spacing:-0.01em;}.cls-12{letter-spacing:-0.03em;}.cls-13{letter-spacing:-0.04em;}.cls-14{letter-spacing:-0.01em;}.cls-15{letter-spacing:-0.02em;}.cls-16{letter-spacing:-0.02em;}.cls-17{letter-spacing:-0.02em;}.cls-18{fill:none;stroke:#003b7e;stroke-width:2px;}</style></defs><g id="Layer_2" data-name="Layer 2"><g id="Layer_1-2" data-name="Layer 1"><path class="cls-1" d="M201.93,7.05h7.24v13h13.35v-13h7.23V40h-7.23V26.74H209.17V40h-7.24Z" transform="translate(-3.95 -5.64)"/><path class="cls-1" d="M237,5.64h7.52V12H237Zm.19,9.12h7.14V40h-7.14Z" transform="translate(-3.95 -5.64)"/><path class="cls-1" d="M249.87,27.5v-.1c0-7.19,5.12-13.11,12.46-13.11,8.41,0,12.26,6.53,12.26,13.67,0,.57,0,1.23-.09,1.88H257a5.83,5.83,0,0,0,6.15,4.94,8.22,8.22,0,0,0,6.11-2.59l4.09,3.62A12.58,12.58,0,0,1,263,40.51C255.46,40.51,249.87,35.2,249.87,27.5Zm17.77-2.12c-.43-3.2-2.31-5.36-5.31-5.36s-4.89,2.12-5.46,5.36Z" transform="translate(-3.95 -5.64)"/><path class="cls-1" d="M279.9,14.76h7.15v5.07c1.45-3.47,3.8-5.73,8-5.54v7.47h-.37c-4.75,0-7.66,2.87-7.66,8.88V40H279.9Z" transform="translate(-3.95 -5.64)"/><path class="cls-1" d="M296.87,32.71v-.09c0-5.5,4.18-8,10.15-8a17.71,17.71,0,0,1,6.16,1v-.43c0-3-1.83-4.6-5.41-4.6A18.43,18.43,0,0,0,300.82,22L299,16.5a22.29,22.29,0,0,1,9.78-2c3.9,0,6.72,1,8.51,2.82S320,22,320,25.33V40h-6.91V37.22a9.67,9.67,0,0,1-7.61,3.2C300.77,40.42,296.87,37.69,296.87,32.71Zm16.4-1.64V29.8a11,11,0,0,0-4.56-.94c-3,0-4.93,1.22-4.93,3.48v.09c0,1.93,1.6,3,3.9,3C311,35.48,313.27,33.65,313.27,31.07Z" transform="translate(-3.95 -5.64)"/><path class="cls-1" d="M326.2,14.76h7.14v5.07c1.46-3.47,3.81-5.73,8-5.54v7.47H341c-4.74,0-7.66,2.87-7.66,8.88V40H326.2Z" transform="translate(-3.95 -5.64)"/><path class="cls-1" d="M343.92,27.5v-.1a12.93,12.93,0,0,1,13.2-13.11c4.75,0,7.71,1.6,10.06,4.23l-4.37,4.7a7.35,7.35,0,0,0-5.73-2.77c-3.57,0-6.11,3.14-6.11,6.86v.09c0,3.85,2.49,7,6.39,7,2.4,0,4-1,5.78-2.68l4.18,4.23A12.67,12.67,0,0,1,357,40.51,12.85,12.85,0,0,1,343.92,27.5Z" transform="translate(-3.95 -5.64)"/><path class="cls-1" d="M372,5.64h7.14V18.33c1.65-2.11,3.76-4,7.38-4,5.4,0,8.55,3.57,8.55,9.35V40h-7.14V25.9c0-3.39-1.6-5.13-4.32-5.13s-4.47,1.74-4.47,5.13V40H372Z" transform="translate(-3.95 -5.64)"/><path class="cls-1" d="M401.4,5.64h7.52V12H401.4Zm.19,9.12h7.14V40h-7.14Z" transform="translate(-3.95 -5.64)"/><path class="cls-1" d="M414.23,27.5v-.1c0-7.19,5.12-13.11,12.45-13.11C435.1,14.29,439,20.82,439,28c0,.57-.05,1.23-.09,1.88H421.33a5.83,5.83,0,0,0,6.15,4.94,8.22,8.22,0,0,0,6.11-2.59l4.09,3.62a12.58,12.58,0,0,1-10.29,4.7C419.82,40.51,414.23,35.2,414.23,27.5ZM432,25.38c-.42-3.2-2.3-5.36-5.31-5.36s-4.88,2.12-5.45,5.36Z" transform="translate(-3.95 -5.64)"/><path class="cls-1" d="M457.23,27.4v-.09c0-8.42,5.5-13,11.47-13a9.67,9.67,0,0,1,7.85,3.76V5.64h7.14V40h-7.14V36.33a9.26,9.26,0,0,1-7.85,4.09C462.83,40.42,457.23,35.81,457.23,27.4Zm19.41,0v-.09c0-4.19-2.77-7-6.11-7s-6.15,2.73-6.15,7v.09c0,4.18,2.82,7,6.15,7S476.64,31.58,476.64,27.4Z" transform="translate(-3.95 -5.64)"/><path class="cls-1" d="M488.86,27.5v-.1c0-7.19,5.13-13.11,12.46-13.11,8.41,0,12.26,6.53,12.26,13.67,0,.57,0,1.23-.09,1.88H496a5.84,5.84,0,0,0,6.16,4.94,8.25,8.25,0,0,0,6.11-2.59l4.08,3.62A12.58,12.58,0,0,1,502,40.51C494.46,40.51,488.86,35.2,488.86,27.5Zm17.77-2.12c-.42-3.2-2.3-5.36-5.31-5.36s-4.89,2.12-5.45,5.36Z" transform="translate(-3.95 -5.64)"/><path class="cls-1" d="M518.9,14.76H526v5.07c1.46-3.47,3.81-5.73,8-5.54v7.47h-.38c-4.75,0-7.66,2.87-7.66,8.88V40H518.9Z" transform="translate(-3.95 -5.64)"/><path class="cls-1" d="M4,63.45h7.23V89.77H27.59v6.58H4Z" transform="translate(-3.95 -5.64)"/><path class="cls-1" d="M30.6,83.9v-.1c0-7.19,5.12-13.11,12.45-13.11,8.41,0,12.27,6.53,12.27,13.68,0,.56,0,1.22-.1,1.88H37.69a5.84,5.84,0,0,0,6.16,4.93A8.22,8.22,0,0,0,50,88.59l4.09,3.62a12.6,12.6,0,0,1-10.3,4.7C36.19,96.91,30.6,91.6,30.6,83.9Zm17.76-2.12c-.42-3.2-2.3-5.36-5.31-5.36s-4.89,2.12-5.45,5.36Z" transform="translate(-3.95 -5.64)"/><path class="cls-1" d="M67.77,93.06v3.29H60.63V62h7.14V74.78a9.26,9.26,0,0,1,7.85-4.09c5.88,0,11.47,4.6,11.47,13v.09c0,8.41-5.5,13-11.47,13A9.67,9.67,0,0,1,67.77,93.06ZM79.94,83.8v-.09c0-4.19-2.82-7-6.15-7s-6.11,2.77-6.11,7v.09c0,4.18,2.77,7,6.11,7S79.94,88,79.94,83.8Z" transform="translate(-3.95 -5.64)"/><path class="cls-1" d="M91.13,83.9v-.1c0-7.19,5.12-13.11,12.46-13.11,8.41,0,12.26,6.53,12.26,13.68,0,.56,0,1.22-.09,1.88H98.23a5.83,5.83,0,0,0,6.15,4.93,8.22,8.22,0,0,0,6.11-2.59l4.09,3.62a12.58,12.58,0,0,1-10.29,4.7C96.72,96.91,91.13,91.6,91.13,83.9Zm17.77-2.12c-.43-3.2-2.31-5.36-5.31-5.36s-4.89,2.12-5.46,5.36Z" transform="translate(-3.95 -5.64)"/><path class="cls-1" d="M121.16,71.16h7.15v3.57c1.64-2.11,3.76-4,7.38-4,5.4,0,8.55,3.57,8.55,9.35V96.35H137.1v-14c0-3.39-1.6-5.13-4.33-5.13s-4.46,1.74-4.46,5.13v14h-7.15Z" transform="translate(-3.95 -5.64)"/><path class="cls-1" d="M148.47,93l3.06-4.7a14.18,14.18,0,0,0,7.94,3c2.07,0,3-.75,3-1.88v-.09c0-1.55-2.45-2.07-5.22-2.92-3.53-1-7.52-2.68-7.52-7.56v-.1c0-5.12,4.14-8,9.21-8a17.38,17.38,0,0,1,9.4,2.92l-2.73,4.93a14.88,14.88,0,0,0-6.81-2.35c-1.74,0-2.63.75-2.63,1.74v.1c0,1.4,2.39,2.06,5.12,3,3.53,1.18,7.61,2.87,7.61,7.47v.1c0,5.59-4.18,8.13-9.63,8.13A17.66,17.66,0,0,1,148.47,93Z" transform="translate(-3.95 -5.64)"/><path class="cls-1" d="M174,71.16h7.14v3.57c1.65-2.11,3.81-4,7.43-4a7.53,7.53,0,0,1,7.09,4,10.39,10.39,0,0,1,8.28-4c5.31,0,8.5,3.19,8.5,9.26v16.4h-7.14v-14c0-3.39-1.51-5.13-4.18-5.13s-4.33,1.74-4.33,5.13v14h-7.14v-14c0-3.39-1.51-5.13-4.18-5.13s-4.33,1.74-4.33,5.13v14H174Z" transform="translate(-3.95 -5.64)"/><path class="cls-1" d="M218.83,62h7.52v6.35h-7.52Zm.19,9.12h7.14V96.35H219Z" transform="translate(-3.95 -5.64)"/><path class="cls-1" d="M234.06,89.21V77.27h-3V71.16h3V64.72h7.14v6.44h5.92v6.11H241.2V88c0,1.65.71,2.44,2.3,2.44a7.22,7.22,0,0,0,3.53-.89v5.74a10.57,10.57,0,0,1-5.64,1.45C237,96.77,234.06,95,234.06,89.21Z" transform="translate(-3.95 -5.64)"/><path class="cls-1" d="M253.56,89.21V77.27h-3V71.16h3V64.72h7.14v6.44h5.93v6.11H260.7V88c0,1.65.71,2.44,2.31,2.44a7.18,7.18,0,0,0,3.52-.89v5.74a10.54,10.54,0,0,1-5.64,1.45C256.52,96.77,253.56,95,253.56,89.21Z" transform="translate(-3.95 -5.64)"/><path class="cls-1" d="M270,83.9v-.1c0-7.19,5.13-13.11,12.46-13.11,8.41,0,12.26,6.53,12.26,13.68,0,.56,0,1.22-.09,1.88H277.06a5.84,5.84,0,0,0,6.16,4.93,8.25,8.25,0,0,0,6.11-2.59l4.09,3.62a12.6,12.6,0,0,1-10.3,4.7C275.56,96.91,270,91.6,270,83.9Zm17.77-2.12c-.42-3.2-2.3-5.36-5.31-5.36s-4.89,2.12-5.45,5.36Z" transform="translate(-3.95 -5.64)"/><path class="cls-1" d="M300.33,62h7.14V96.35h-7.14Z" transform="translate(-3.95 -5.64)"/><path class="cls-1" d="M312.12,71.16h7.24l4,15.27,4.75-15.36h6.15l4.8,15.41,4.13-15.32h7.1l-7.85,25.38H336L331.2,81.08l-4.93,15.46h-6.39Z" transform="translate(-3.95 -5.64)"/><path class="cls-1" d="M354.8,62h7.52v6.35H354.8Zm.19,9.12h7.14V96.35H355Z" transform="translate(-3.95 -5.64)"/><path class="cls-1" d="M367.63,83.9v-.1c0-7.19,5.12-13.11,12.45-13.11,8.41,0,12.27,6.53,12.27,13.68,0,.56-.05,1.22-.1,1.88H374.72a5.85,5.85,0,0,0,6.16,4.93A8.22,8.22,0,0,0,387,88.59l4.09,3.62a12.58,12.58,0,0,1-10.29,4.7C373.22,96.91,367.63,91.6,367.63,83.9Zm17.76-2.12c-.42-3.2-2.3-5.36-5.31-5.36s-4.89,2.12-5.45,5.36Z" transform="translate(-3.95 -5.64)"/><path class="cls-1" d="M396.53,83.8v-.09c0-8.42,5.5-13,11.47-13a9.67,9.67,0,0,1,7.85,3.76V62H423V96.35h-7.14V92.73A9.26,9.26,0,0,1,408,96.82C402.12,96.82,396.53,92.21,396.53,83.8Zm19.41,0v-.09c0-4.19-2.77-7-6.11-7s-6.15,2.73-6.15,7v.09c0,4.18,2.82,7,6.15,7S415.94,88,415.94,83.8Z" transform="translate(-3.95 -5.64)"/><path class="cls-1" d="M428.16,83.9v-.1c0-7.19,5.13-13.11,12.46-13.11,8.41,0,12.26,6.53,12.26,13.68,0,.56,0,1.22-.09,1.88H435.26a5.84,5.84,0,0,0,6.16,4.93,8.25,8.25,0,0,0,6.11-2.59l4.08,3.62a12.58,12.58,0,0,1-10.29,4.7C433.76,96.91,428.16,91.6,428.16,83.9Zm17.77-2.12c-.43-3.2-2.31-5.36-5.31-5.36s-4.89,2.12-5.45,5.36Z" transform="translate(-3.95 -5.64)"/><path class="cls-1" d="M458.2,71.16h7.14v5.07c1.46-3.47,3.81-5.73,8-5.54v7.47H473c-4.75,0-7.66,2.87-7.66,8.88v9.31H458.2Z" transform="translate(-3.95 -5.64)"/><path class="cls-1" d="M475.59,71.16h7.56L488.79,88l5.69-16.87h7.42L492,96.54H485.5Z" transform="translate(-3.95 -5.64)"/><path class="cls-1" d="M503.41,83.9v-.1c0-7.19,5.12-13.11,12.45-13.11,8.42,0,12.27,6.53,12.27,13.68,0,.56,0,1.22-.09,1.88H510.51a5.83,5.83,0,0,0,6.15,4.93,8.22,8.22,0,0,0,6.11-2.59l4.09,3.62a12.58,12.58,0,0,1-10.29,4.7C509,96.91,503.41,91.6,503.41,83.9Zm17.76-2.12c-.42-3.2-2.3-5.36-5.31-5.36s-4.88,2.12-5.45,5.36Z" transform="translate(-3.95 -5.64)"/><path class="cls-1" d="M533.44,71.16h7.14v5.07c1.46-3.47,3.81-5.73,8-5.54v7.47h-.37c-4.75,0-7.67,2.87-7.67,8.88v9.31h-7.14Z" transform="translate(-3.95 -5.64)"/><path class="cls-1" d="M551,71.16h7.24l4,15.27,4.75-15.36h6.15L578,86.48l4.13-15.32h7.1l-7.85,25.38h-6.44L570.1,81.08l-4.93,15.46h-6.4Z" transform="translate(-3.95 -5.64)"/><path class="cls-1" d="M591.16,83.9v-.1c0-7.19,5.12-13.11,12.45-13.11,8.41,0,12.27,6.53,12.27,13.68,0,.56,0,1.22-.1,1.88H598.25a5.84,5.84,0,0,0,6.16,4.93,8.22,8.22,0,0,0,6.11-2.59l4.09,3.62a12.58,12.58,0,0,1-10.29,4.7C596.75,96.91,591.16,91.6,591.16,83.9Zm17.76-2.12c-.42-3.2-2.3-5.36-5.31-5.36s-4.89,2.12-5.45,5.36Z" transform="translate(-3.95 -5.64)"/><path class="cls-1" d="M621.19,71.16h7.14v5.07c1.46-3.47,3.81-5.73,8-5.54v7.47H636c-4.74,0-7.66,2.87-7.66,8.88v9.31h-7.14Z" transform="translate(-3.95 -5.64)"/><path class="cls-1" d="M642,89.21V77.27h-3V71.16h3V64.72h7.14v6.44h5.93v6.11h-5.93V88c0,1.65.71,2.44,2.31,2.44a7.18,7.18,0,0,0,3.52-.89v5.74a10.54,10.54,0,0,1-5.64,1.45C645,96.77,642,95,642,89.21Z" transform="translate(-3.95 -5.64)"/><path class="cls-1" d="M660.15,87.47V71.16h7.15v14c0,3.38,1.59,5.12,4.32,5.12s4.46-1.74,4.46-5.12v-14h7.15V96.35h-7.15V92.78c-1.64,2.11-3.75,4-7.37,4C663.3,96.82,660.15,93.25,660.15,87.47Z" transform="translate(-3.95 -5.64)"/><path class="cls-1" d="M689.62,71.16h7.14v3.57c1.65-2.11,3.76-4,7.38-4,5.41,0,8.56,3.57,8.56,9.35V96.35h-7.15v-14c0-3.39-1.59-5.13-4.32-5.13s-4.47,1.74-4.47,5.13v14h-7.14Z" transform="translate(-3.95 -5.64)"/><path class="cls-1" d="M719,101.33,721.49,96a16.4,16.4,0,0,0,8.5,2.31c4.89,0,7.19-2.35,7.19-6.86V90.19c-2.11,2.54-4.41,4.09-8.22,4.09-5.88,0-11.19-4.28-11.19-11.75v-.09c0-7.52,5.41-11.75,11.19-11.75a10.19,10.19,0,0,1,8.13,3.76V71.16h7.14v19.5c0,4.51-1.08,7.8-3.19,9.92-2.35,2.35-6,3.38-10.86,3.38A23.94,23.94,0,0,1,719,101.33Zm18.14-18.8v-.09a6.14,6.14,0,0,0-12.26,0v.09A5.75,5.75,0,0,0,731,88.36,5.82,5.82,0,0,0,737.18,82.53Z" transform="translate(-3.95 -5.64)"/><path class="cls-2" d="M679,168.15H69.2c-16,0-26,18.49-18,33.28L112.44,314.7a20.58,20.58,0,0,0,18,11.09H617.75a20.56,20.56,0,0,0,18-11.09L697,201.43C705,186.64,695,168.15,679,168.15Z" transform="translate(-3.95 -5.64)"/><text class="cls-3" transform="translate(135.35 243.4)">Lebensmittelabfälle reduzieren</text><circle class="cls-4" cx="370.14" cy="162.28" r="41.77"/><path class="cls-2" d="M388.75,155c-.32-.21-.6-.39-.78-.52-3.07-2.16-6.28-1.17-9.37-.21a23.07,23.07,0,0,1-4.31,1c-.2-1.66-.19-6,3.61-12.7a1,1,0,1,0-1.78-1,30.5,30.5,0,0,0-3.65,9.33A17.73,17.73,0,0,0,357,141a1,1,0,0,0-1.07,1c-.15,5.09,1.59,8.84,5.46,11.48a6.8,6.8,0,0,0-2.48,1.13,18.35,18.35,0,0,0-2.68,2.36s0,0,0,0,0,0,0,0a1,1,0,0,0-.11.17h0a1.17,1.17,0,0,0-.09.24.13.13,0,0,1,0,.06,1.7,1.7,0,0,0,0,.22v0a1,1,0,0,0,.06.25v0l0,0,.11.19,0,0a1.29,1.29,0,0,0,.16.17,22.87,22.87,0,0,1,5.91,8.25c3,7.12,2.22,14.85-2.41,23a1.17,1.17,0,0,1,0,.11.05.05,0,0,1,0,0v0a1.05,1.05,0,0,0-.06.24v0a1.34,1.34,0,0,0,0,.2.17.17,0,0,1,0,.07.76.76,0,0,0,.08.21v0a1.1,1.1,0,0,0,.14.21s0,0,0,0c1.82,2.06,6.13,3.41,7.49,3.67a9.35,9.35,0,0,0,3.79.16,14.66,14.66,0,0,1,2.38-.17,15.34,15.34,0,0,1,2.39.15,8.26,8.26,0,0,0,2.14.06c.44-.05,1-.13,1.65-.26a39.82,39.82,0,0,0,3.91-1.39c3.45-1.35,3.46-1.37,3.62-1.92a1,1,0,0,0-.27-1,1,1,0,0,0-.31-.21c-8.66-18,2.67-29,4.46-30.52a1.24,1.24,0,0,0,1-.84c.32-1-.69-1.83-3.45-3.62ZM358,143.12c9.75,1,13.1,8.8,14.09,12.1-1-.19-2-.4-2.84-.64l-1-.28-.76-.22c-7.81-2.55-9.43-6.8-9.53-11Zm2.12,13.15c2-1.4,4.11-1,6.54-.31.73.24,1.5.47,2.31.68a21.4,21.4,0,0,0,2.88.63l1.45.25h.27a1,1,0,0,0,.46-.18,21.28,21.28,0,0,0,5.18-1.14c2.87-.88,5.34-1.65,7.59-.07l.84.56c.35.23.93.6,1.46,1a9.62,9.62,0,0,0-4.16,3c-.44.46-1.16,1.24-1.43,1.24l-.05,0-.2-.12a8.62,8.62,0,0,0-5.53-1.67,8.8,8.8,0,0,0-3,.94c-3.24,1.64-8,.37-10.9-1.66a16.11,16.11,0,0,0-4.7-2.28c.34-.28.67-.55,1-.79Zm19.3,36.22a7.53,7.53,0,0,1-3.11.19,17.78,17.78,0,0,0-2.67-.18c-.78,0-1.36.05-1.83.09l-.84.11a7.52,7.52,0,0,1-3.12-.15,19.06,19.06,0,0,1-4.6-1.72,35.4,35.4,0,0,0,6-1.77,4.31,4.31,0,0,1,3.6.16,4.92,4.92,0,0,0,4.58-.08,12.93,12.93,0,0,1,4,1.62c.38.21.76.42,1.14.61-1.38.53-2.76,1-3.17,1.12Zm5.08-2.55a12.62,12.62,0,0,1-2.07-1,14,14,0,0,0-5.06-1.91,1,1,0,0,0-.68.16c-1.2.78-1.92.51-3.1.08a6.32,6.32,0,0,0-5.08-.13,34.67,34.67,0,0,1-5.87,1.7c7.14-14.21,1.5-24.46-2.29-29.15a14.89,14.89,0,0,1,2.28,1.31c3.44,2.43,9,3.83,13,1.82,3-1.5,4.63-.51,6.57.65l.19.12a2.1,2.1,0,0,0,1.3.31,4.25,4.25,0,0,0,2.36-1.49c-3.54,5.3-7.28,14.82-1.56,27.51Z" transform="translate(-3.95 -5.64)"/><path class="cls-2" d="M371.1,172.42a1,1,0,0,0-1,1l0,4.22a1,1,0,0,0,1,1h.1a1,1,0,0,0,.92-1l0-4.22a1,1,0,0,0-1-1Z" transform="translate(-3.95 -5.64)"/><path class="cls-2" d="M375.22,172.4a1,1,0,0,0-1,1l0,4.22a1,1,0,0,0,1,1h.1a1,1,0,0,0,.92-1l0-4.22a1,1,0,0,0-1-1Z" transform="translate(-3.95 -5.64)"/><path class="cls-5" d="M623.57,393.42h-499c-13.08,0-21.26,13.71-14.72,24.67l50.11,114a17.09,17.09,0,0,0,14.72,8.22H573.47a17.11,17.11,0,0,0,14.72-8.22l50.1-114C644.83,407.13,636.65,393.42,623.57,393.42Z" transform="translate(-3.95 -5.64)"/><path class="cls-4" d="M199.15,480.72a13.24,13.24,0,0,1-4.65-.83,12.68,12.68,0,0,1-4.11-2.53l2.22-2.64a12.93,12.93,0,0,0,3.09,2,8.67,8.67,0,0,0,3.54.7,4.56,4.56,0,0,0,2.71-.72,2.25,2.25,0,0,0,1-1.92v-.06a2.41,2.41,0,0,0-.2-1,2.19,2.19,0,0,0-.72-.83,5.65,5.65,0,0,0-1.44-.72,20.58,20.58,0,0,0-2.39-.66,23.17,23.17,0,0,1-3-.88,8.38,8.38,0,0,1-2.19-1.2,4.68,4.68,0,0,1-1.36-1.73,5.9,5.9,0,0,1-.46-2.46v-.06a5.64,5.64,0,0,1,2-4.4,7,7,0,0,1,2.25-1.24,8.87,8.87,0,0,1,2.88-.45,12,12,0,0,1,4.15.67,12.66,12.66,0,0,1,3.47,2l-2,2.79a12.84,12.84,0,0,0-2.85-1.6,7.73,7.73,0,0,0-2.85-.56,3.94,3.94,0,0,0-2.52.72,2.19,2.19,0,0,0-.9,1.77v.06a2.51,2.51,0,0,0,.21,1.06,2,2,0,0,0,.77.84,6.11,6.11,0,0,0,1.53.71c.65.22,1.48.45,2.48.69a23.67,23.67,0,0,1,2.93.93,7,7,0,0,1,2.12,1.25,5,5,0,0,1,1.28,1.7,5.57,5.57,0,0,1,.44,2.27v.06a6.23,6.23,0,0,1-.55,2.64,5.74,5.74,0,0,1-1.53,2,6.88,6.88,0,0,1-2.36,1.23A10.37,10.37,0,0,1,199.15,480.72Z" transform="translate(-3.95 -5.64)"/><path class="cls-4" d="M210.55,464.58h3.66v2.64a7.89,7.89,0,0,1,2.15-2.12,5.77,5.77,0,0,1,3.21-.85,7.13,7.13,0,0,1,2.72.54,7,7,0,0,1,2.35,1.59A7.91,7.91,0,0,1,226.3,469a9.16,9.16,0,0,1,.63,3.51v.06a9.35,9.35,0,0,1-.62,3.51,7.55,7.55,0,0,1-1.64,2.58,7,7,0,0,1-2.37,1.59,7.18,7.18,0,0,1-2.73.54,5.82,5.82,0,0,1-3.24-.84,8.47,8.47,0,0,1-2.12-2v7.26h-3.66Zm8.19,13a4.32,4.32,0,0,0,1.75-.36,4.39,4.39,0,0,0,1.44-1,4.75,4.75,0,0,0,1-1.6,5.87,5.87,0,0,0,.36-2.11v-.06a5.84,5.84,0,0,0-.36-2.09,4.85,4.85,0,0,0-1-1.6,4.33,4.33,0,0,0-3.19-1.38,4.45,4.45,0,0,0-1.77.36,4.3,4.3,0,0,0-1.47,1,5.3,5.3,0,0,0-1,1.61,5.49,5.49,0,0,0-.37,2.07v.06a5.63,5.63,0,0,0,.37,2.09,4.91,4.91,0,0,0,1,1.6,4.46,4.46,0,0,0,3.24,1.38Z" transform="translate(-3.95 -5.64)"/><path class="cls-4" d="M237.91,480.78a8.47,8.47,0,0,1-3.2-.6,7.65,7.65,0,0,1-4.3-4.27,8.65,8.65,0,0,1-.63-3.35v-.06a9,9,0,0,1,.57-3.21,8,8,0,0,1,1.6-2.62,7.76,7.76,0,0,1,2.45-1.78,7.41,7.41,0,0,1,3.12-.64,7.5,7.5,0,0,1,3.31.69,6.82,6.82,0,0,1,2.37,1.86,8.17,8.17,0,0,1,1.43,2.71,10.94,10.94,0,0,1,.48,3.26c0,.16,0,.33,0,.49s0,.35,0,.53H233.41a4.38,4.38,0,0,0,4.56,4,5.31,5.31,0,0,0,2.34-.48,7.6,7.6,0,0,0,1.95-1.41l2.13,1.89a8.79,8.79,0,0,1-2.72,2.16A8.12,8.12,0,0,1,237.91,480.78Zm3.6-9.39a6.24,6.24,0,0,0-.39-1.64,4.42,4.42,0,0,0-.81-1.32,4,4,0,0,0-1.22-.88,3.72,3.72,0,0,0-1.6-.33,3.67,3.67,0,0,0-2.78,1.16,5.2,5.2,0,0,0-1.33,3Z" transform="translate(-3.95 -5.64)"/><path class="cls-4" d="M248.77,464.58h3.66v2.49a8.26,8.26,0,0,1,.85-1.08,5.57,5.57,0,0,1,1.08-.89,5.13,5.13,0,0,1,1.34-.62,5.69,5.69,0,0,1,1.66-.23,5.27,5.27,0,0,1,4.16,1.65,6.43,6.43,0,0,1,1.47,4.44v10.08h-3.66v-9a4.18,4.18,0,0,0-.88-2.86,3.1,3.1,0,0,0-2.48-1,3.36,3.36,0,0,0-2.56,1,4,4,0,0,0-1,2.89v8.92h-3.66Z" transform="translate(-3.95 -5.64)"/><path class="cls-4" d="M273.91,480.75a7.14,7.14,0,0,1-2.73-.54,6.85,6.85,0,0,1-2.34-1.59,8.05,8.05,0,0,1-1.65-2.58,9.16,9.16,0,0,1-.63-3.51v-.06a9.36,9.36,0,0,1,.61-3.51,7.84,7.84,0,0,1,1.63-2.58,6.8,6.8,0,0,1,2.35-1.59,7.23,7.23,0,0,1,2.74-.54,5.79,5.79,0,0,1,3.23.84,8.84,8.84,0,0,1,2.16,2v-8.52h3.66v21.9h-3.66l0-2.64a8.23,8.23,0,0,1-2.18,2.1A5.67,5.67,0,0,1,273.91,480.75Zm.85-3.15a4.37,4.37,0,0,0,3.2-1.39,5.27,5.27,0,0,0,1-1.61,5.49,5.49,0,0,0,.38-2.07v-.06a5.63,5.63,0,0,0-.38-2.09,4.89,4.89,0,0,0-1-1.6,4.48,4.48,0,0,0-1.46-1,4.37,4.37,0,0,0-1.74-.36,4.48,4.48,0,0,0-1.75.35,4.1,4.1,0,0,0-1.45,1,4.69,4.69,0,0,0-1,1.6,6,6,0,0,0-.36,2.12v.06a5.84,5.84,0,0,0,.36,2.09,4.69,4.69,0,0,0,1,1.6,4.44,4.44,0,0,0,1.45,1A4.32,4.32,0,0,0,274.76,477.6Z" transform="translate(-3.95 -5.64)"/><path class="cls-4" d="M294.73,480.78a8.47,8.47,0,0,1-3.2-.6,7.65,7.65,0,0,1-4.3-4.27,8.65,8.65,0,0,1-.63-3.35v-.06a9,9,0,0,1,.57-3.21,8,8,0,0,1,1.6-2.62,7.76,7.76,0,0,1,2.45-1.78,7.41,7.41,0,0,1,3.12-.64,7.5,7.5,0,0,1,3.31.69A6.82,6.82,0,0,1,300,466.8a8.17,8.17,0,0,1,1.43,2.71,10.94,10.94,0,0,1,.48,3.26c0,.16,0,.33,0,.49s0,.35,0,.53H290.23a4.38,4.38,0,0,0,4.56,4,5.31,5.31,0,0,0,2.34-.48,7.6,7.6,0,0,0,1.95-1.41l2.13,1.89a8.79,8.79,0,0,1-2.72,2.16A8.12,8.12,0,0,1,294.73,480.78Zm3.6-9.39a6.24,6.24,0,0,0-.39-1.64,4.42,4.42,0,0,0-.81-1.32,4,4,0,0,0-1.22-.88,3.72,3.72,0,0,0-1.6-.33,3.67,3.67,0,0,0-2.78,1.16,5.2,5.2,0,0,0-1.33,3Z" transform="translate(-3.95 -5.64)"/><path class="cls-4" d="M305.59,464.58h3.66v2.49a8.26,8.26,0,0,1,.85-1.08,5.57,5.57,0,0,1,1.08-.89,5.13,5.13,0,0,1,1.34-.62,5.69,5.69,0,0,1,1.66-.23,5.27,5.27,0,0,1,4.16,1.65,6.43,6.43,0,0,1,1.47,4.44v10.08h-3.66v-9a4.24,4.24,0,0,0-.88-2.86,3.12,3.12,0,0,0-2.48-1,3.36,3.36,0,0,0-2.56,1,4,4,0,0,0-1,2.89v8.92h-3.66Z" transform="translate(-3.95 -5.64)"/><path class="cls-4" d="M338.64,480.75a5.29,5.29,0,0,1-4.17-1.65,6.47,6.47,0,0,1-1.46-4.44V464.58h3.66v9a4.18,4.18,0,0,0,.88,2.86,3.13,3.13,0,0,0,2.49,1,3.38,3.38,0,0,0,2.57-1,4,4,0,0,0,1-2.89v-8.92h3.66v15.84H343.6l0-2.49a7.84,7.84,0,0,1-1.95,2A5.08,5.08,0,0,1,338.64,480.75ZM335.38,459H339v3.54h-3.66Zm6,0H345v3.54h-3.66Z" transform="translate(-3.95 -5.64)"/><path class="cls-4" d="M360.8,480.75a5.81,5.81,0,0,1-3.23-.84,8.14,8.14,0,0,1-2.12-2v2.46h-3.66v-21.9h3.66l0,8.7a7.93,7.93,0,0,1,2.16-2.12,5.77,5.77,0,0,1,3.21-.85,7.14,7.14,0,0,1,2.73.54,7,7,0,0,1,2.35,1.59,7.93,7.93,0,0,1,1.67,2.58,9.16,9.16,0,0,1,.63,3.51v.06a9.35,9.35,0,0,1-.62,3.51,7.87,7.87,0,0,1-1.64,2.58,7,7,0,0,1-2.37,1.59A7.23,7.23,0,0,1,360.8,480.75ZM360,477.6a4.32,4.32,0,0,0,1.75-.36,4.39,4.39,0,0,0,1.44-1,4.75,4.75,0,0,0,1-1.6,5.87,5.87,0,0,0,.36-2.11v-.06a5.84,5.84,0,0,0-.36-2.09,4.85,4.85,0,0,0-1-1.6A4.33,4.33,0,0,0,360,467.4a4.45,4.45,0,0,0-1.77.36,4.3,4.3,0,0,0-1.47,1,5.3,5.3,0,0,0-1,1.61,5.49,5.49,0,0,0-.37,2.07v.06a5.63,5.63,0,0,0,.37,2.09,4.91,4.91,0,0,0,1,1.6A4.46,4.46,0,0,0,360,477.6Z" transform="translate(-3.95 -5.64)"/><path class="cls-4" d="M379.15,480.78a8.47,8.47,0,0,1-3.2-.6,7.65,7.65,0,0,1-4.3-4.27,8.65,8.65,0,0,1-.63-3.35v-.06a9,9,0,0,1,.57-3.21,8,8,0,0,1,1.6-2.62,7.76,7.76,0,0,1,2.45-1.78,7.41,7.41,0,0,1,3.12-.64,7.5,7.5,0,0,1,3.31.69,6.82,6.82,0,0,1,2.37,1.86,8.17,8.17,0,0,1,1.43,2.71,10.94,10.94,0,0,1,.48,3.26c0,.16,0,.33,0,.49s0,.35,0,.53H374.65a4.38,4.38,0,0,0,4.56,4,5.31,5.31,0,0,0,2.34-.48,7.6,7.6,0,0,0,1.95-1.41l2.13,1.89a8.79,8.79,0,0,1-2.72,2.16A8.12,8.12,0,0,1,379.15,480.78Zm3.6-9.39a6.24,6.24,0,0,0-.39-1.64,4.42,4.42,0,0,0-.81-1.32,4,4,0,0,0-1.22-.88,3.72,3.72,0,0,0-1.6-.33,3.67,3.67,0,0,0-2.78,1.16,5.2,5.2,0,0,0-1.33,3Z" transform="translate(-3.95 -5.64)"/><path class="cls-4" d="M390,464.58h3.66v3.57a7,7,0,0,1,2.13-2.88,5.1,5.1,0,0,1,3.48-1v3.84h-.21a5.93,5.93,0,0,0-2.19.39,4.58,4.58,0,0,0-1.71,1.17,5.34,5.34,0,0,0-1.11,2,8.86,8.86,0,0,0-.39,2.75v6H390Z" transform="translate(-3.95 -5.64)"/><path class="cls-4" d="M407.83,480.72a10.45,10.45,0,0,1-3.47-.61,11.11,11.11,0,0,1-3.25-1.78l1.62-2.47a10.19,10.19,0,0,0,2.62,1.45,7.41,7.41,0,0,0,2.57.5,3,3,0,0,0,1.81-.46,1.47,1.47,0,0,0,.65-1.25V476a1.13,1.13,0,0,0-.29-.77,2.39,2.39,0,0,0-.78-.57,9,9,0,0,0-1.14-.45l-1.33-.42c-.58-.16-1.17-.35-1.76-.57a6.36,6.36,0,0,1-1.59-.85,4.27,4.27,0,0,1-1.15-1.31,3.72,3.72,0,0,1-.45-1.91v-.06a4.4,4.4,0,0,1,1.63-3.53,5.36,5.36,0,0,1,1.8-1,7.25,7.25,0,0,1,2.21-.33,10.08,10.08,0,0,1,3,.48,10.9,10.9,0,0,1,2.79,1.34l-1.44,2.59a12.14,12.14,0,0,0-2.31-1.1,6.63,6.63,0,0,0-2.16-.4,2.64,2.64,0,0,0-1.64.45,1.38,1.38,0,0,0-.58,1.14v.06a1,1,0,0,0,.3.73,2.92,2.92,0,0,0,.79.57,8.9,8.9,0,0,0,1.14.48c.43.15.88.29,1.34.43s1.16.39,1.74.63a7.24,7.24,0,0,1,1.57.88,4.43,4.43,0,0,1,1.16,1.28,3.44,3.44,0,0,1,.45,1.82v.06a5,5,0,0,1-.45,2.19,4.28,4.28,0,0,1-1.25,1.54,5.56,5.56,0,0,1-1.87.93A8.21,8.21,0,0,1,407.83,480.72Z" transform="translate(-3.95 -5.64)"/><path class="cls-4" d="M424.75,480.78a8.28,8.28,0,0,1-3.28-.65,8,8,0,0,1-2.6-1.75,7.86,7.86,0,0,1-1.72-2.61,8.12,8.12,0,0,1-.62-3.18v-.06a8.25,8.25,0,0,1,.62-3.2,8,8,0,0,1,1.72-2.63,8.3,8.3,0,0,1,2.62-1.79,9.09,9.09,0,0,1,7,.09,8.84,8.84,0,0,1,2.6,2l-2.25,2.43a8.4,8.4,0,0,0-1.79-1.42,4.5,4.5,0,0,0-2.32-.56,4.15,4.15,0,0,0-1.83.4,4.43,4.43,0,0,0-1.44,1.09,5,5,0,0,0-1,1.6,5.56,5.56,0,0,0-.34,2v.06a5.64,5.64,0,0,0,.34,2,4.91,4.91,0,0,0,1,1.62,4.53,4.53,0,0,0,1.5,1.09,4.35,4.35,0,0,0,1.92.41,4.48,4.48,0,0,0,2.26-.55,8.76,8.76,0,0,0,1.85-1.43l2.19,2.16a10,10,0,0,1-2.67,2.15A8,8,0,0,1,424.75,480.78Z" transform="translate(-3.95 -5.64)"/><path class="cls-4" d="M434.53,458.52h3.66v8.55A8.26,8.26,0,0,1,439,466a5.57,5.57,0,0,1,1.08-.89,5,5,0,0,1,1.34-.62,5.64,5.64,0,0,1,1.66-.23,5.27,5.27,0,0,1,4.16,1.65,6.43,6.43,0,0,1,1.47,4.44v10.08h-3.66v-9a4.24,4.24,0,0,0-.88-2.86,3.13,3.13,0,0,0-2.49-1,3.34,3.34,0,0,0-2.55,1,4,4,0,0,0-1,2.89v8.92h-3.66Z" transform="translate(-3.95 -5.64)"/><path class="cls-4" d="M458.58,480.75a5.29,5.29,0,0,1-4.17-1.65,6.43,6.43,0,0,1-1.46-4.44V464.58h3.66v9a4.18,4.18,0,0,0,.88,2.86,3.13,3.13,0,0,0,2.49,1,3.38,3.38,0,0,0,2.57-1,4,4,0,0,0,1-2.89v-8.92h3.66v15.84h-3.66l0-2.49a7.84,7.84,0,0,1-1.95,2A5.08,5.08,0,0,1,458.58,480.75ZM455.32,459H459v3.54h-3.66Zm6,0H465v3.54h-3.66Z" transform="translate(-3.95 -5.64)"/><path class="cls-4" d="M477.16,480.72a10.45,10.45,0,0,1-3.47-.61,11.11,11.11,0,0,1-3.25-1.78l1.62-2.47a10.19,10.19,0,0,0,2.62,1.45,7.36,7.36,0,0,0,2.57.5,3,3,0,0,0,1.81-.46,1.47,1.47,0,0,0,.65-1.25V476a1.13,1.13,0,0,0-.29-.77,2.39,2.39,0,0,0-.78-.57,9,9,0,0,0-1.14-.45l-1.33-.42c-.59-.16-1.17-.35-1.76-.57a6.36,6.36,0,0,1-1.59-.85,4.27,4.27,0,0,1-1.15-1.31,3.72,3.72,0,0,1-.45-1.91v-.06a4.4,4.4,0,0,1,1.63-3.53,5.36,5.36,0,0,1,1.8-1,7.25,7.25,0,0,1,2.21-.33,10.08,10.08,0,0,1,3,.48,10.9,10.9,0,0,1,2.79,1.34l-1.44,2.59a12.14,12.14,0,0,0-2.31-1.1,6.63,6.63,0,0,0-2.16-.4,2.64,2.64,0,0,0-1.64.45,1.38,1.38,0,0,0-.58,1.14v.06a1,1,0,0,0,.3.73,2.77,2.77,0,0,0,.79.57,8.9,8.9,0,0,0,1.14.48c.43.15.88.29,1.34.43s1.16.39,1.74.63a7.24,7.24,0,0,1,1.57.88,4.43,4.43,0,0,1,1.16,1.28,3.44,3.44,0,0,1,.45,1.82v.06a5,5,0,0,1-.45,2.19,4.28,4.28,0,0,1-1.25,1.54,5.56,5.56,0,0,1-1.87.93A8.21,8.21,0,0,1,477.16,480.72Z" transform="translate(-3.95 -5.64)"/><path class="cls-4" d="M492.16,480.72a10.45,10.45,0,0,1-3.47-.61,11.11,11.11,0,0,1-3.25-1.78l1.62-2.47a10.19,10.19,0,0,0,2.62,1.45,7.36,7.36,0,0,0,2.57.5,3,3,0,0,0,1.81-.46,1.47,1.47,0,0,0,.65-1.25V476a1.13,1.13,0,0,0-.29-.77,2.39,2.39,0,0,0-.78-.57,9,9,0,0,0-1.14-.45l-1.33-.42c-.59-.16-1.17-.35-1.76-.57a6.36,6.36,0,0,1-1.59-.85,4.27,4.27,0,0,1-1.15-1.31,3.72,3.72,0,0,1-.45-1.91v-.06a4.4,4.4,0,0,1,1.63-3.53,5.36,5.36,0,0,1,1.8-1,7.25,7.25,0,0,1,2.21-.33,10.08,10.08,0,0,1,3,.48,10.9,10.9,0,0,1,2.79,1.34l-1.44,2.59a12.14,12.14,0,0,0-2.31-1.1,6.63,6.63,0,0,0-2.16-.4,2.64,2.64,0,0,0-1.64.45,1.38,1.38,0,0,0-.58,1.14v.06a1,1,0,0,0,.3.73,2.77,2.77,0,0,0,.79.57,8.9,8.9,0,0,0,1.14.48c.43.15.88.29,1.34.43s1.16.39,1.74.63a7.24,7.24,0,0,1,1.57.88,4.43,4.43,0,0,1,1.16,1.28,3.44,3.44,0,0,1,.45,1.82v.06a5,5,0,0,1-.45,2.19,4.28,4.28,0,0,1-1.25,1.54,5.56,5.56,0,0,1-1.87.93A8.21,8.21,0,0,1,492.16,480.72Z" transform="translate(-3.95 -5.64)"/><path class="cls-4" d="M501.79,458.7h3.93v3.45h-3.93Zm.15,5.88h3.66v15.84h-3.66Z" transform="translate(-3.95 -5.64)"/><path class="cls-4" d="M517.36,485.28a13.47,13.47,0,0,1-7.08-1.87l1.35-2.72a12.17,12.17,0,0,0,2.64,1.23,9.63,9.63,0,0,0,3,.45,5.16,5.16,0,0,0,3.72-1.24,4.81,4.81,0,0,0,1.29-3.64v-1.24a8.51,8.51,0,0,1-2.31,2.1,6.17,6.17,0,0,1-3.27.81,7.32,7.32,0,0,1-5-2,7.06,7.06,0,0,1-1.6-2.33,7.75,7.75,0,0,1-.6-3.12v-.06a7.92,7.92,0,0,1,.6-3.14,6.9,6.9,0,0,1,1.6-2.34,7.11,7.11,0,0,1,2.31-1.45,7.34,7.34,0,0,1,2.69-.51A6.36,6.36,0,0,1,520,465a9.44,9.44,0,0,1,2.24,1.91v-2.37h3.63v12.6q0,4-2,6a6.64,6.64,0,0,1-2.72,1.6A12.39,12.39,0,0,1,517.36,485.28Zm.3-9.18a5.09,5.09,0,0,0,1.78-.31,4.27,4.27,0,0,0,1.49-.91,4.22,4.22,0,0,0,1-1.38,4,4,0,0,0,.38-1.75v-.06a4.11,4.11,0,0,0-.38-1.78,4.45,4.45,0,0,0-1-1.38,4.27,4.27,0,0,0-1.49-.91,5.33,5.33,0,0,0-1.78-.31,5.06,5.06,0,0,0-1.77.31,4.48,4.48,0,0,0-1.43.89,4,4,0,0,0-1,1.37,4.42,4.42,0,0,0-.34,1.78v.06a4.22,4.22,0,0,0,.36,1.78,4.27,4.27,0,0,0,1,1.38,4,4,0,0,0,1.42.91A4.9,4.9,0,0,0,517.66,476.1Z" transform="translate(-3.95 -5.64)"/><path class="cls-4" d="M537.67,480.78a8.47,8.47,0,0,1-3.2-.6,7.78,7.78,0,0,1-2.58-1.68,7.62,7.62,0,0,1-1.72-2.59,8.65,8.65,0,0,1-.63-3.35v-.06a8.75,8.75,0,0,1,.57-3.21,8,8,0,0,1,1.6-2.62,7.65,7.65,0,0,1,2.45-1.78,7.35,7.35,0,0,1,3.12-.64,7.5,7.5,0,0,1,3.31.69A6.82,6.82,0,0,1,543,466.8a8,8,0,0,1,1.42,2.71,10.63,10.63,0,0,1,.49,3.26c0,.16,0,.33,0,.49s0,.35,0,.53H533.17a4.66,4.66,0,0,0,1.54,3,4.61,4.61,0,0,0,3,1,5.34,5.34,0,0,0,2.34-.48,7.6,7.6,0,0,0,1.95-1.41l2.13,1.89a8.9,8.9,0,0,1-2.72,2.16A8.15,8.15,0,0,1,537.67,480.78Zm3.6-9.39a6.24,6.24,0,0,0-.39-1.64,4.64,4.64,0,0,0-.81-1.32,4.14,4.14,0,0,0-1.22-.88,3.72,3.72,0,0,0-1.6-.33,3.66,3.66,0,0,0-2.78,1.16,5.21,5.21,0,0,0-1.34,3Z" transform="translate(-3.95 -5.64)"/><path class="cls-4" d="M548.52,464.58h3.66v3.57a7,7,0,0,1,2.13-2.88,5.1,5.1,0,0,1,3.48-1v3.84h-.21a6,6,0,0,0-2.19.39,4.75,4.75,0,0,0-1.71,1.17,5.33,5.33,0,0,0-1.1,2,8.56,8.56,0,0,0-.4,2.75v6h-3.66Z" transform="translate(-3.95 -5.64)"/><path class="cls-4" d="M278.11,495.42h3.66v17.67h11v3.33h-14.7Z" transform="translate(-3.95 -5.64)"/><path class="cls-4" d="M303.52,516.78a8.47,8.47,0,0,1-3.2-.6,7.65,7.65,0,0,1-4.3-4.27,8.65,8.65,0,0,1-.63-3.35v-.06a9,9,0,0,1,.57-3.21,8,8,0,0,1,1.6-2.62,7.76,7.76,0,0,1,2.45-1.78,7.41,7.41,0,0,1,3.12-.64,7.5,7.5,0,0,1,3.31.69,6.82,6.82,0,0,1,2.37,1.86,8.17,8.17,0,0,1,1.43,2.71,10.94,10.94,0,0,1,.48,3.26c0,.16,0,.33,0,.49s0,.35,0,.53H299a4.38,4.38,0,0,0,4.56,4,5.31,5.31,0,0,0,2.34-.48,7.6,7.6,0,0,0,1.95-1.41l2.13,1.89a8.79,8.79,0,0,1-2.72,2.16A8.12,8.12,0,0,1,303.52,516.78Zm3.6-9.39a6.24,6.24,0,0,0-.39-1.64,4.42,4.42,0,0,0-.81-1.32,4,4,0,0,0-1.22-.88,3.72,3.72,0,0,0-1.6-.33,3.67,3.67,0,0,0-2.78,1.16,5.2,5.2,0,0,0-1.33,3Z" transform="translate(-3.95 -5.64)"/><path class="cls-4" d="M323.39,516.75a5.81,5.81,0,0,1-3.23-.84A8.3,8.3,0,0,1,318,514v2.46h-3.66v-21.9H318l0,8.7a7.93,7.93,0,0,1,2.16-2.12,5.77,5.77,0,0,1,3.21-.85,7.14,7.14,0,0,1,2.73.54,7,7,0,0,1,2.35,1.59,7.93,7.93,0,0,1,1.67,2.58,9.16,9.16,0,0,1,.63,3.51v.06a9.35,9.35,0,0,1-.62,3.51,7.71,7.71,0,0,1-1.64,2.58,7,7,0,0,1-2.37,1.59A7.19,7.19,0,0,1,323.39,516.75Zm-.82-3.15a4.32,4.32,0,0,0,1.75-.36,4.39,4.39,0,0,0,1.44-1,4.75,4.75,0,0,0,1-1.6,5.87,5.87,0,0,0,.36-2.11v-.06a5.84,5.84,0,0,0-.36-2.09,4.85,4.85,0,0,0-1-1.6,4.33,4.33,0,0,0-3.19-1.38,4.45,4.45,0,0,0-1.77.36,4.3,4.3,0,0,0-1.47,1,5.3,5.3,0,0,0-1,1.61,5.49,5.49,0,0,0-.37,2.07v.06a5.63,5.63,0,0,0,.37,2.09,4.91,4.91,0,0,0,1,1.6,4.46,4.46,0,0,0,3.24,1.38Z" transform="translate(-3.95 -5.64)"/><path class="cls-4" d="M341.74,516.78a8.47,8.47,0,0,1-3.2-.6,7.65,7.65,0,0,1-4.3-4.27,8.65,8.65,0,0,1-.63-3.35v-.06a9,9,0,0,1,.57-3.21,8,8,0,0,1,1.6-2.62,7.76,7.76,0,0,1,2.45-1.78,7.41,7.41,0,0,1,3.12-.64,7.5,7.5,0,0,1,3.31.69A6.82,6.82,0,0,1,347,502.8a8.17,8.17,0,0,1,1.43,2.71,10.94,10.94,0,0,1,.48,3.26c0,.16,0,.33,0,.49s0,.35,0,.53H337.24a4.38,4.38,0,0,0,4.56,4,5.31,5.31,0,0,0,2.34-.48,7.6,7.6,0,0,0,1.95-1.41l2.13,1.89A8.79,8.79,0,0,1,345.5,516,8.12,8.12,0,0,1,341.74,516.78Zm3.6-9.39a6.24,6.24,0,0,0-.39-1.64,4.42,4.42,0,0,0-.81-1.32,4,4,0,0,0-1.22-.88,3.72,3.72,0,0,0-1.6-.33,3.67,3.67,0,0,0-2.78,1.16,5.2,5.2,0,0,0-1.33,3Z" transform="translate(-3.95 -5.64)"/><path class="cls-4" d="M352.6,500.58h3.66v2.49a8.26,8.26,0,0,1,.85-1.08,5.57,5.57,0,0,1,1.08-.89,5,5,0,0,1,1.34-.62,5.64,5.64,0,0,1,1.66-.23,5.27,5.27,0,0,1,4.16,1.65,6.43,6.43,0,0,1,1.47,4.44v10.08h-3.66v-9a4.24,4.24,0,0,0-.88-2.86,3.13,3.13,0,0,0-2.49-1,3.34,3.34,0,0,0-2.55,1,4,4,0,0,0-1,2.89v8.92H352.6Z" transform="translate(-3.95 -5.64)"/><path class="cls-4" d="M376.63,516.72a10.45,10.45,0,0,1-3.47-.61,11.11,11.11,0,0,1-3.25-1.78l1.62-2.47a10.19,10.19,0,0,0,2.62,1.45,7.41,7.41,0,0,0,2.57.5,3,3,0,0,0,1.81-.46,1.47,1.47,0,0,0,.65-1.25V512a1.13,1.13,0,0,0-.29-.77,2.39,2.39,0,0,0-.78-.57,9,9,0,0,0-1.14-.45l-1.33-.42c-.58-.16-1.17-.35-1.76-.57a6.36,6.36,0,0,1-1.59-.85,4.27,4.27,0,0,1-1.15-1.31,3.72,3.72,0,0,1-.45-1.91v-.06a4.4,4.4,0,0,1,1.63-3.53,5.36,5.36,0,0,1,1.8-1,7.25,7.25,0,0,1,2.21-.33,10.08,10.08,0,0,1,3,.48,10.9,10.9,0,0,1,2.79,1.34l-1.44,2.59a12.14,12.14,0,0,0-2.31-1.1,6.63,6.63,0,0,0-2.16-.4,2.64,2.64,0,0,0-1.64.45,1.38,1.38,0,0,0-.58,1.14v.06a1,1,0,0,0,.3.73,2.92,2.92,0,0,0,.79.57,8.9,8.9,0,0,0,1.14.48c.43.15.88.29,1.34.43s1.16.39,1.74.63a7.24,7.24,0,0,1,1.57.88,4.43,4.43,0,0,1,1.16,1.28,3.44,3.44,0,0,1,.45,1.82v.06a5,5,0,0,1-.45,2.19,4.28,4.28,0,0,1-1.25,1.54,5.56,5.56,0,0,1-1.87.93A8.21,8.21,0,0,1,376.63,516.72Z" transform="translate(-3.95 -5.64)"/><path class="cls-4" d="M386.2,500.58h3.66V503a10.25,10.25,0,0,1,.83-1,5.57,5.57,0,0,1,1-.88,4.53,4.53,0,0,1,1.31-.62,5.53,5.53,0,0,1,1.63-.23,4.95,4.95,0,0,1,4.7,2.82,7.76,7.76,0,0,1,2.27-2.05,6.05,6.05,0,0,1,3.11-.77,5.32,5.32,0,0,1,4.09,1.58,6.32,6.32,0,0,1,1.48,4.48v10.11h-3.66v-9a4.31,4.31,0,0,0-.84-2.87,2.92,2.92,0,0,0-2.36-1,3.15,3.15,0,0,0-2.43,1,4.1,4.1,0,0,0-.94,2.92v8.92h-3.66v-9a4.26,4.26,0,0,0-.84-2.84,2.92,2.92,0,0,0-2.36-1,3.12,3.12,0,0,0-2.45,1.05,4.26,4.26,0,0,0-.92,2.9v8.89H386.2Z" transform="translate(-3.95 -5.64)"/><path class="cls-4" d="M414.76,494.7h3.93v3.45h-3.93Zm.15,5.88h3.66v15.84h-3.66Z" transform="translate(-3.95 -5.64)"/><path class="cls-4" d="M428.62,516.69a6.71,6.71,0,0,1-1.84-.24,3.71,3.71,0,0,1-1.47-.78,3.52,3.52,0,0,1-.95-1.42A6.39,6.39,0,0,1,424,512V503.7h-2v-3.12h2v-4.35h3.66v4.35H432v3.12h-4.26v7.77a2,2,0,0,0,.51,1.52,2.11,2.11,0,0,0,1.44.46,5,5,0,0,0,2.25-.54v3a6.31,6.31,0,0,1-1.47.6A7,7,0,0,1,428.62,516.69Z" transform="translate(-3.95 -5.64)"/><path class="cls-4" d="M440.92,516.69a6.66,6.66,0,0,1-1.84-.24,3.71,3.71,0,0,1-1.47-.78,3.52,3.52,0,0,1-.95-1.42,6.39,6.39,0,0,1-.33-2.21V503.7h-2v-3.12h2v-4.35H440v4.35h4.26v3.12H440v7.77a2,2,0,0,0,.51,1.52,2.11,2.11,0,0,0,1.44.46,5,5,0,0,0,2.25-.54v3a6.31,6.31,0,0,1-1.47.6A7,7,0,0,1,440.92,516.69Z" transform="translate(-3.95 -5.64)"/><path class="cls-4" d="M455.14,516.78a8.47,8.47,0,0,1-3.2-.6,7.65,7.65,0,0,1-4.3-4.27,8.65,8.65,0,0,1-.63-3.35v-.06a9,9,0,0,1,.57-3.21,8,8,0,0,1,1.6-2.62,7.83,7.83,0,0,1,2.44-1.78,8.13,8.13,0,0,1,6.44.05,6.82,6.82,0,0,1,2.37,1.86,8.17,8.17,0,0,1,1.43,2.71,11.27,11.27,0,0,1,.48,3.26c0,.16,0,.33,0,.49s0,.35,0,.53H450.64a4.38,4.38,0,0,0,4.56,4,5.31,5.31,0,0,0,2.34-.48,7.78,7.78,0,0,0,1.95-1.41l2.13,1.89A8.79,8.79,0,0,1,458.9,516,8.15,8.15,0,0,1,455.14,516.78Zm3.6-9.39a6.66,6.66,0,0,0-.39-1.64,4.42,4.42,0,0,0-.81-1.32,4,4,0,0,0-1.22-.88,3.72,3.72,0,0,0-1.6-.33,3.66,3.66,0,0,0-2.78,1.16,5.2,5.2,0,0,0-1.33,3Z" transform="translate(-3.95 -5.64)"/><path class="cls-4" d="M466.21,494.52h3.66v21.9h-3.66Z" transform="translate(-3.95 -5.64)"/><circle class="cls-4" cx="370.14" cy="387.42" r="41.77"/><path class="cls-6" d="M401.24,407.75a6.05,6.05,0,0,0-4.66-2.18,6.13,6.13,0,0,0-1.95.32L383,409.79a5,5,0,0,0-4.53-2.85h-3.13a3,3,0,0,0,1.15-.54,3.1,3.1,0,0,0,1.19-2.8,3.16,3.16,0,0,1,.84-2.58l1.69-1.69a8.68,8.68,0,0,0,2.66.4c3.91,0,8.76-2.14,12.26-5.65a11.75,11.75,0,0,0,3.82-7.71,9,9,0,0,0-2.75-6.76c-3.59-3.59-8.58-3.66-12.93-.29a8.73,8.73,0,0,0-3.65-5.24,8.25,8.25,0,0,0-6.76-.95,7.58,7.58,0,0,1-.95.18c.55-2.15,2.09-3.58,4.67-4.35a.64.64,0,0,0-.37-1.22,9.69,9.69,0,0,0-2.82,1.32,4.37,4.37,0,0,0-1.18-3.3c-1.92-1.92-6-1.91-6.17-1.91a.64.64,0,0,0-.63.63c0,.17,0,4.24,1.92,6.16a4.23,4.23,0,0,0,3.09,1.18,4.83,4.83,0,0,0,.67,0,6.93,6.93,0,0,0-.49,1.56,6.28,6.28,0,0,1-1.31-.21,8.23,8.23,0,0,0-7.26,1.3,9.49,9.49,0,0,0-3.51,7.72c0,4.78,1.56,9,4.31,11.52a8.74,8.74,0,0,0,6,2.42l.75,0a17.79,17.79,0,0,1,2.92,0,8.77,8.77,0,0,0,3.92-.57l0,.11-1.69,1.69a3.14,3.14,0,0,1-2.58.84,3.12,3.12,0,0,0-.73,6.2,3.08,3.08,0,0,0,1.28,2.13,2.81,2.81,0,0,0,1,.48H373a7.91,7.91,0,0,1-3.94-1.05,9.12,9.12,0,0,0-4.57-1.22H357v-.19a2.63,2.63,0,0,0-2.62-2.62H349a2.63,2.63,0,0,0-2.62,2.62V419a2.63,2.63,0,0,0,2.62,2.63h5.37a2.63,2.63,0,0,0,2.61-2.47l16.3,3a7.78,7.78,0,0,0,1.27.11,7.13,7.13,0,0,0,2.9-.62l23-10.3a2.31,2.31,0,0,0,.82-3.6ZM355.73,419a1.36,1.36,0,0,1-1.35,1.36H349a1.36,1.36,0,0,1-1.35-1.36V404.48a1.36,1.36,0,0,1,1.35-1.35h5.37a1.36,1.36,0,0,1,1.35,1.35Zm27.57-38c4.06-3.63,8.67-3.81,12-.45a7.6,7.6,0,0,1,2.38,5.8,10.53,10.53,0,0,1-3.45,6.88c-3.75,3.76-9.31,5.88-13,5.1l1.36-1.36a2.7,2.7,0,0,0,.23-3.6,2.67,2.67,0,0,0-1.91-1,2.61,2.61,0,0,0-2,.77l-1.43,1.43s0-.06,0-.09c-.73-3.7,1.47-9.25,5.13-12.91.21-.21.43-.42.65-.61Zm-15.05-11.21c-1.15-1.15-1.44-3.47-1.52-4.61,1.14.08,3.46.38,4.6,1.52s.79,3,.59,3.68c-.69.19-2.52.56-3.67-.59Zm7.95,24.46a7.22,7.22,0,0,1-3.54.58,20.44,20.44,0,0,0-3.13,0,7.49,7.49,0,0,1-5.82-2.05c-2.49-2.3-3.91-6.16-3.9-10.59a8.24,8.24,0,0,1,3-6.71,6.91,6.91,0,0,1,6.15-1.09,7.4,7.4,0,0,0,1.48.26,10.91,10.91,0,0,0,0,1.51.63.63,0,0,0,.63.59h.05a.64.64,0,0,0,.59-.68,8.53,8.53,0,0,1,0-1.43,7.61,7.61,0,0,0,1.49-.25,7,7,0,0,1,5.73.8,7.6,7.6,0,0,1,3.24,5.11c-.15.14-.3.27-.44.42-3.83,3.83-6.1,9.42-5.55,13.53Zm-2.68,11.23a1.87,1.87,0,0,1-.77-1.67.61.61,0,0,0-.18-.5.64.64,0,0,0-.45-.19h-.06a1.83,1.83,0,0,1-1.66-.77,1.86,1.86,0,0,1,1.7-2.92,4.37,4.37,0,0,0,3.61-1.2l2-2h0l2.19-2.18a1.39,1.39,0,0,1,1-.4,1.37,1.37,0,0,1,1,.5,1.42,1.42,0,0,1-.15,1.89l-4.09,4.09a4.39,4.39,0,0,0-1.2,3.61,1.87,1.87,0,0,1-.71,1.67,1.89,1.89,0,0,1-2.21,0Zm27,4a1,1,0,0,1-.59.72l-23,10.3a5.92,5.92,0,0,1-3.43.42l-16.51-3V405.94h7.47a7.86,7.86,0,0,1,3.94,1.06,9.24,9.24,0,0,0,4.57,1.21h5.51a3.78,3.78,0,0,1,3.58,2.58,3.6,3.6,0,0,1,.21,1.22,1.26,1.26,0,0,1-1.25,1.25H368a.64.64,0,1,0,0,1.27H381a2.45,2.45,0,0,0,1.77-.73,2.49,2.49,0,0,0,.75-1.79,5.07,5.07,0,0,0-.12-1L395,407.1a4.8,4.8,0,0,1,5.24,1.46,1.07,1.07,0,0,1,.22.91Z" transform="translate(-3.95 -5.64)"/><path class="cls-6" d="M373.56,377.61a4.25,4.25,0,0,1-4.93,0,.64.64,0,0,0-.88.2.63.63,0,0,0,.2.88,5.49,5.49,0,0,0,6.29,0,.64.64,0,0,0,.19-.88.63.63,0,0,0-.87-.2Z" transform="translate(-3.95 -5.64)"/><path class="cls-7" d="M585.07,607.06H163.12c-13.63,0-22.14,12.35-15.33,22.24l60.11,87.22c3.16,4.59,9,7.41,15.32,7.41H525c6.32,0,12.16-2.82,15.32-7.41l60.11-87.22C607.2,619.41,598.69,607.06,585.07,607.06Z" transform="translate(-3.95 -5.64)"/><text class="cls-3" transform="translate(297.63 690.42)">Tierfutter</text><circle class="cls-4" cx="370.14" cy="601.92" r="41.77"/><path class="cls-7" d="M367,607.49a3.38,3.38,0,0,1-2.4-1,3.4,3.4,0,1,1,2.4,1Zm0-4.52a1.13,1.13,0,0,0-.8,1.93,1.16,1.16,0,0,0,1.24.25A1.14,1.14,0,0,0,367,603Z" transform="translate(-3.95 -5.64)"/><path class="cls-7" d="M381.14,607.49a3.38,3.38,0,0,1-2.4-1,3.42,3.42,0,0,1-1-2.4,3.38,3.38,0,0,1,1-2.4,3.39,3.39,0,1,1,2.4,5.79Zm0-4.52a1.13,1.13,0,1,0,.43,2.18,1.13,1.13,0,0,0-.43-2.18Z" transform="translate(-3.95 -5.64)"/><path class="cls-7" d="M405.33,604.92c-1.23-6.22-5.52-12.92-9.57-14.92-3.2-1.59-7.46-1.59-10-1.41-.28-.29-.56-.57-.87-.86-2.78-2.56-7-2.64-9.85-2.69l-.95,0-.84,0c-2.82.05-7.09.14-9.87,2.71-.3.28-.58.56-.85.84-2.59-.18-6.86-.18-10.07,1.41-4.05,2-8.34,8.7-9.57,14.92-.79,4-.21,7.27,1.67,9.41,1.35,1.54,3.88,2.31,7.53,2.31l1,0a13.5,13.5,0,0,0,4.18,9.11c3.81,3.66,10.26,4.38,14.74,4.38.7,0,1.36,0,1.95,0h.42c4.33.19,12.26-.12,16.68-4.35h0a13.53,13.53,0,0,0,4.17-9.1l1,0c3.65,0,6.18-.77,7.53-2.31,1.89-2.14,2.46-5.39,1.67-9.41Zm-59.11,7.91c-1.77-2-1.6-5.17-1.15-7.47,1.09-5.53,4.91-11.63,8.35-13.33h0a16.91,16.91,0,0,1,7.34-1.25,46.33,46.33,0,0,0-4.17,9.32l-.17.46c-2.15,5.82-3.23,8.75-3.43,12.54,0,.42,0,.83,0,1.26-3.33.11-5.77-.43-6.73-1.53Zm27.89,2.1h0a2.72,2.72,0,0,1-1.45-.91,4.11,4.11,0,0,1-.8-1.5,5.35,5.35,0,0,1,4.54,0,4.2,4.2,0,0,1-.79,1.49,2.78,2.78,0,0,1-1.46.91Zm15.31,9.14c-2.67,2.56-7.83,3.9-14.2,3.74V617a5.12,5.12,0,0,0,2.06-1.46,6.43,6.43,0,0,0,1.46-3.29,1.13,1.13,0,0,0-.35-.94,6.93,6.93,0,0,0-8.6,0,1.11,1.11,0,0,0-.35.94,6.34,6.34,0,0,0,1.46,3.3A5.12,5.12,0,0,0,373,617v10.86c-6.38.16-11.53-1.16-14.19-3.72-3.41-3.27-3.71-7.15-3.52-10.87.18-3.45,1.22-6.27,3.29-11.88l.17-.46c2.63-7.13,3.78-9.27,6.16-11.47,2.16-2,5.76-2.06,8.39-2.11l.8,0,.9,0c2.62.05,6.21.12,8.36,2.09,2.38,2.2,3.53,4.35,6.16,11.48l.16.44c2.08,5.62,3.12,8.44,3.3,11.89.19,3.72-.11,7.61-3.52,10.87ZM402,612.84c-1,1.09-3.4,1.63-6.73,1.52,0-.43,0-.86,0-1.27-.2-3.8-1.28-6.73-3.44-12.57l-.16-.43h0a46.69,46.69,0,0,0-4.16-9.3,16.82,16.82,0,0,1,7.32,1.25c3.44,1.7,7.27,7.8,8.35,13.33.46,2.3.63,5.47-1.14,7.47Z" transform="translate(-3.95 -5.64)"/><path class="cls-8" d="M536.37,791.41H211.81c-11.85,0-19.26,9.16-13.33,16.5l76.69,94.88c2.75,3.4,7.84,5.49,13.34,5.49H459.68c5.5,0,10.58-2.09,13.33-5.49l76.69-94.88C555.63,800.57,548.22,791.41,536.37,791.41Z" transform="translate(-3.95 -5.64)"/><text class="cls-3" transform="translate(301.36 872.77)">Kompost</text><circle class="cls-4" cx="370.14" cy="785.56" r="41.77"/><path class="cls-9" d="M398.8,806.81c-.05-.42-.1-.85-.14-1.28h0a61,61,0,0,1-.28-7,5.35,5.35,0,0,0-1.55-3.9,5.26,5.26,0,0,0-3-1.53,10.16,10.16,0,0,0-7.42-9.25,3.89,3.89,0,0,1-2-1.34,9.75,9.75,0,0,0-9.74-3.68s0-4.44,0-4.46a3,3,0,0,0,1.81.67h2.4a5.39,5.39,0,0,0,5.39-5.4v-2.39a3,3,0,0,0-3-3h-2.39a5.39,5.39,0,0,0-5.4,5.39v1.45A5.37,5.37,0,0,0,369.3,769h-2.4a3,3,0,0,0-3,3v2.4a5.39,5.39,0,0,0,5.4,5.39h2.39a1.06,1.06,0,0,0,.19,0h0a10.24,10.24,0,0,0-3,2.28,4.26,4.26,0,0,1-2.14,1.33.6.6,0,0,0-.17,1.1.61.61,0,0,0,.46.06,5.38,5.38,0,0,0,2.75-1.69,8.9,8.9,0,0,1,13.7.38,5.06,5.06,0,0,0,2.6,1.75,8.95,8.95,0,0,1,6.53,8H355.57a9,9,0,0,1,8.93-8.39.6.6,0,0,0,0-1.2,10.17,10.17,0,0,0-10.14,9.67,5.29,5.29,0,0,0-3,1.53,5.35,5.35,0,0,0-1.55,3.9,61,61,0,0,1-.28,7c0,.43-.09.86-.14,1.28h0a10.17,10.17,0,0,0,10.11,11.36h29.2a10.21,10.21,0,0,0,8.83-5.09.6.6,0,1,0-1-.6,9,9,0,0,1-7.79,4.49h-29.2a9,9,0,0,1-8.92-10c0-.22.05-.44.07-.66a121.21,121.21,0,0,0,46.9,0c0,.22,0,.44.07.66a9.05,9.05,0,0,1-.21,3.28.6.6,0,0,0,.43.72.61.61,0,0,0,.73-.42,10.15,10.15,0,0,0,.24-3.72Zm-24.11-37.19a4.2,4.2,0,0,1,4.19-4.19h2.4a1.79,1.79,0,0,1,1.8,1.8v2.39a4.2,4.2,0,0,1-4.2,4.2h-2.39a1.86,1.86,0,0,1-.77-.19l3.59-3.58h0a.61.61,0,0,0,0-.85.59.59,0,0,0-.85,0l-3.59,3.59a1.85,1.85,0,0,1-.18-.77Zm-5.4,9a4.2,4.2,0,0,1-4.19-4.19V772a1.81,1.81,0,0,1,1.8-1.8h2.39a4.2,4.2,0,0,1,4.2,4.2v2.4a1.71,1.71,0,0,1-.19.76L369.72,774a.6.6,0,1,0-.85.85l3.59,3.59h0a1.71,1.71,0,0,1-.77.18Zm-18.54,26.48c.11-1.23.18-2.46.22-3.7h20.72a.6.6,0,0,0,0-1.2H351c0-.57,0-1.14,0-1.71a4.17,4.17,0,0,1,1.2-3,4.11,4.11,0,0,1,3-1.25H393a4.11,4.11,0,0,1,3,1.25,4.17,4.17,0,0,1,1.2,3c0,.57,0,1.14,0,1.71H374.09a.6.6,0,1,0,0,1.2h23.12c0,1.24.11,2.47.22,3.7a121,121,0,0,1-46.68,0Z" transform="translate(-3.95 -5.64)"/><path class="cls-10" d="M483.76,975.47H264.42c-16,0-26,11.95-18,21.51l109.67,161.09c8,9.56,28,9.56,36,0L501.76,997C509.76,987.42,499.76,975.47,483.76,975.47Z" transform="translate(-3.95 -5.64)"/><path class="cls-4" d="M320.5,1041h3.93l6.39,9.93,6.39-9.93h3.93v21h-3.66v-15.06l-6.63,9.9h-.12l-6.57-9.84v15H320.5Z" transform="translate(-3.95 -5.64)"/><path class="cls-4" d="M351.57,1062.33a5.29,5.29,0,0,1-4.16-1.65,6.43,6.43,0,0,1-1.47-4.44v-10.08h3.66v9a4.2,4.2,0,0,0,.89,2.86,3.11,3.11,0,0,0,2.49,1,3.38,3.38,0,0,0,2.57-1,4,4,0,0,0,1-2.89v-8.92h3.66V1062h-3.66v-2.49a7.84,7.84,0,0,1-1.95,2A5.09,5.09,0,0,1,351.57,1062.33Zm-3.26-21.72H352v3.54h-3.66Zm6,0h3.66v3.54h-3.66Z" transform="translate(-3.95 -5.64)"/><path class="cls-4" d="M364.93,1040.1h3.66V1062h-3.66Z" transform="translate(-3.95 -5.64)"/><path class="cls-4" d="M373.51,1040.1h3.66V1062h-3.66Z" transform="translate(-3.95 -5.64)"/><path class="cls-4" d="M388.42,1062.33a7.14,7.14,0,0,1-2.73-.54,6.85,6.85,0,0,1-2.34-1.59,8.05,8.05,0,0,1-1.65-2.58,9.16,9.16,0,0,1-.63-3.51v-.06a9.35,9.35,0,0,1,.62-3.51,7.84,7.84,0,0,1,1.63-2.58,6.8,6.8,0,0,1,2.35-1.59,7.23,7.23,0,0,1,2.74-.54,5.81,5.81,0,0,1,3.23.84,8.79,8.79,0,0,1,2.15,1.95v-8.52h3.66V1062h-3.66l0-2.64a8.19,8.19,0,0,1-2.17,2.1A5.7,5.7,0,0,1,388.42,1062.33Zm.86-3.15a4.38,4.38,0,0,0,3.2-1.4,5.11,5.11,0,0,0,1-1.6,5.49,5.49,0,0,0,.37-2.07v-.06a5.63,5.63,0,0,0-.37-2.09,4.89,4.89,0,0,0-1-1.6,4.42,4.42,0,0,0-1.47-1,4.29,4.29,0,0,0-1.73-.36,4.47,4.47,0,0,0-1.75.34,4.27,4.27,0,0,0-1.45,1,4.71,4.71,0,0,0-1,1.6,5.93,5.93,0,0,0-.36,2.12v.06a5.79,5.79,0,0,0,.36,2.08,4.75,4.75,0,0,0,1,1.61,4.44,4.44,0,0,0,1.45,1A4.32,4.32,0,0,0,389.28,1059.18Z" transform="translate(-3.95 -5.64)"/><path class="cls-4" d="M409.24,1062.36a8.42,8.42,0,0,1-3.19-.6,7.68,7.68,0,0,1-4.31-4.28,8.6,8.6,0,0,1-.63-3.34v-.06a9,9,0,0,1,.57-3.21,8.1,8.1,0,0,1,1.61-2.63,7.54,7.54,0,0,1,2.44-1.77,7.41,7.41,0,0,1,3.12-.64,7.55,7.55,0,0,1,3.32.69,6.82,6.82,0,0,1,2.37,1.86,8.06,8.06,0,0,1,1.42,2.71,10.94,10.94,0,0,1,.48,3.26c0,.16,0,.32,0,.49s0,.35-.05.53H404.74a4.62,4.62,0,0,0,1.55,3,4.55,4.55,0,0,0,3,1,5.31,5.31,0,0,0,2.34-.48,7.6,7.6,0,0,0,1.95-1.41l2.13,1.89a8.75,8.75,0,0,1-2.71,2.16A8.16,8.16,0,0,1,409.24,1062.36Zm3.6-9.39a6.24,6.24,0,0,0-.39-1.64,4.19,4.19,0,0,0-.81-1.32,3.81,3.81,0,0,0-1.21-.88,3.77,3.77,0,0,0-1.61-.33,3.64,3.64,0,0,0-2.77,1.15,5.24,5.24,0,0,0-1.34,3Z" transform="translate(-3.95 -5.64)"/><path class="cls-4" d="M419.5,1051h8.88v3.57H419.5Z" transform="translate(-3.95 -5.64)"/><path class="cls-4" d="M333.66,1082.16h3.66v2.64a8,8,0,0,1,2.15-2.12,5.69,5.69,0,0,1,3.21-.85,7.13,7.13,0,0,1,2.72.54,7,7,0,0,1,2.35,1.59,7.91,7.91,0,0,1,1.66,2.58,9.16,9.16,0,0,1,.63,3.51v.06a9.56,9.56,0,0,1-.61,3.51,7.73,7.73,0,0,1-1.65,2.58,7,7,0,0,1-2.36,1.59,7.27,7.27,0,0,1-2.74.54,5.82,5.82,0,0,1-3.24-.84,8.47,8.47,0,0,1-2.12-2v7.26h-3.66Zm8.19,13a4.32,4.32,0,0,0,1.75-.36,4.41,4.41,0,0,0,1.44-1,4.7,4.7,0,0,0,1-1.59,5.87,5.87,0,0,0,.36-2.11v-.06A5.84,5.84,0,0,0,346,1088a4.85,4.85,0,0,0-1-1.6,4.33,4.33,0,0,0-3.19-1.38,4.45,4.45,0,0,0-1.77.36,4.3,4.3,0,0,0-1.47,1,5.18,5.18,0,0,0-1,1.61,5.49,5.49,0,0,0-.37,2.07v.06a5.58,5.58,0,0,0,.37,2.08,5,5,0,0,0,1,1.61,4.46,4.46,0,0,0,3.24,1.38Z" transform="translate(-3.95 -5.64)"/><path class="cls-4" d="M361.29,1098.36a8.62,8.62,0,0,1-3.35-.65,8.31,8.31,0,0,1-2.67-1.75,7.94,7.94,0,0,1-1.75-2.61,8.13,8.13,0,0,1-.63-3.18v-.06a8,8,0,0,1,.64-3.21,8.22,8.22,0,0,1,4.44-4.41,8.53,8.53,0,0,1,3.38-.66,8.65,8.65,0,0,1,3.37.64,8.11,8.11,0,0,1,5.06,7.58v.06a8,8,0,0,1-.65,3.18,8.28,8.28,0,0,1-4.45,4.41A8.61,8.61,0,0,1,361.29,1098.36Zm.06-3.15a4.67,4.67,0,0,0,2-.41,4.61,4.61,0,0,0,1.51-1.09,4.9,4.9,0,0,0,1-1.61,5.63,5.63,0,0,0,.33-1.93v-.06a5.44,5.44,0,0,0-.36-2,5,5,0,0,0-1-1.62,4.78,4.78,0,0,0-1.52-1.1,5,5,0,0,0-3.9,0,4.73,4.73,0,0,0-1.51,1.08,4.55,4.55,0,0,0-.95,1.61,5.79,5.79,0,0,0-.33,2v.06a5.29,5.29,0,0,0,.36,2,5.18,5.18,0,0,0,1,1.62,4.56,4.56,0,0,0,1.52,1.11A4.5,4.5,0,0,0,361.35,1095.21Z" transform="translate(-3.95 -5.64)"/><path class="cls-4" d="M373.47,1082.16h3.66v2.48a8.87,8.87,0,0,1,.85-1.07,5.57,5.57,0,0,1,1.08-.89,5.19,5.19,0,0,1,1.35-.62,5.6,5.6,0,0,1,1.66-.23,5.25,5.25,0,0,1,4.15,1.65,6.43,6.43,0,0,1,1.47,4.44V1098H384v-9a4.18,4.18,0,0,0-.88-2.86,3.1,3.1,0,0,0-2.48-1,3.38,3.38,0,0,0-2.56,1,4,4,0,0,0-1,2.89V1098h-3.66Z" transform="translate(-3.95 -5.64)"/><path class="cls-4" d="M392.13,1076.28h3.93v3.45h-3.93Zm.15,5.88h3.66V1098h-3.66Z" transform="translate(-3.95 -5.64)"/><path class="cls-4" d="M407.91,1098.36a8.47,8.47,0,0,1-3.2-.6,7.62,7.62,0,0,1-4.3-4.28,8.6,8.6,0,0,1-.63-3.34v-.06a9,9,0,0,1,.57-3.21,8.07,8.07,0,0,1,1.6-2.63,7.58,7.58,0,0,1,2.45-1.77,7.41,7.41,0,0,1,3.12-.64,7.5,7.5,0,0,1,3.31.69,6.82,6.82,0,0,1,2.37,1.86,8.08,8.08,0,0,1,1.43,2.71,10.94,10.94,0,0,1,.48,3.26c0,.16,0,.32,0,.49s0,.35,0,.53H403.41a4.4,4.4,0,0,0,4.56,4,5.31,5.31,0,0,0,2.34-.48,7.6,7.6,0,0,0,1.95-1.41l2.13,1.89a8.79,8.79,0,0,1-2.72,2.16A8.12,8.12,0,0,1,407.91,1098.36Zm3.6-9.39a6.24,6.24,0,0,0-.39-1.64,4.19,4.19,0,0,0-.81-1.32,3.85,3.85,0,0,0-1.22-.88,3.72,3.72,0,0,0-1.6-.33,3.67,3.67,0,0,0-2.78,1.15,5.23,5.23,0,0,0-1.33,3Z" transform="translate(-3.95 -5.64)"/><circle class="cls-4" cx="370.14" cy="969.91" r="41.77"/><path class="cls-10" d="M363.22,992.09a.89.89,0,0,0-1.08-.63,3.67,3.67,0,0,1-2.77-.37,3.62,3.62,0,0,1-1.7-2.2.87.87,0,0,0-.83-.67.86.86,0,0,0-.72.34.88.88,0,0,0-.16.78,5.42,5.42,0,0,0,6.64,3.83.9.9,0,0,0,.65-.86A.83.83,0,0,0,363.22,992.09Zm10-.43a5.43,5.43,0,0,0-2.53-3.29,5.37,5.37,0,0,0-2-.67,7.16,7.16,0,0,0-.8-.05,5.71,5.71,0,0,0-1.35.19h0a.87.87,0,0,0-.54.42.83.83,0,0,0-.09.67.89.89,0,0,0,1.09.63,3.63,3.63,0,0,1,2.77.36,3.59,3.59,0,0,1,1.7,2.2.86.86,0,0,0,.4.56.88.88,0,0,0,.69.1.86.86,0,0,0,.54-.43A.85.85,0,0,0,373.24,991.66Zm7-1.68a.88.88,0,0,0-.47-.51,2.78,2.78,0,0,1-1.58-1.89,3.23,3.23,0,0,1,.55-2.59.89.89,0,0,0,.06-.92.89.89,0,0,0-1.52-.08,5,5,0,0,0-.82,4,4.64,4.64,0,0,0,2.54,3.09.79.79,0,0,0,.4.1.93.93,0,0,0,.29,0,.86.86,0,0,0,.52-.45A.87.87,0,0,0,380.27,990Zm11.08-.48a.86.86,0,0,0-.73-.43.89.89,0,0,0-.83.51,2.77,2.77,0,0,1-1.9,1.58,3.2,3.2,0,0,1-2.58-.55.89.89,0,0,0-.49-.16l-.18,0a.85.85,0,0,0-.57.37.9.9,0,0,0-.14.66.88.88,0,0,0,.38.57,5,5,0,0,0,4,.82,4.63,4.63,0,0,0,3.08-2.54.85.85,0,0,0,0-.85Zm0,0a.86.86,0,0,0-.73-.43.89.89,0,0,0-.83.51,2.77,2.77,0,0,1-1.9,1.58,3.2,3.2,0,0,1-2.58-.55.89.89,0,0,0-.49-.16l-.18,0a.85.85,0,0,0-.57.37.9.9,0,0,0-.14.66.88.88,0,0,0,.38.57,5,5,0,0,0,4,.82,4.63,4.63,0,0,0,3.08-2.54.85.85,0,0,0,0-.85Zm-11.55,0a2.78,2.78,0,0,1-1.58-1.89,3.23,3.23,0,0,1,.55-2.59.89.89,0,0,0,.06-.92.89.89,0,0,0-1.52-.08,5,5,0,0,0-.82,4,4.64,4.64,0,0,0,2.54,3.09.79.79,0,0,0,.4.1.93.93,0,0,0,.29,0,.86.86,0,0,0,.52-.45.9.9,0,0,0-.44-1.2Zm-9.09-1.1a5.37,5.37,0,0,0-2-.67,7.16,7.16,0,0,0-.8-.05,5.71,5.71,0,0,0-1.35.19h0a.87.87,0,0,0-.54.42.83.83,0,0,0-.09.67.89.89,0,0,0,1.09.63,3.63,3.63,0,0,1,2.77.36,3.59,3.59,0,0,1,1.7,2.2.86.86,0,0,0,.4.56.88.88,0,0,0,.69.1.86.86,0,0,0,.54-.43.85.85,0,0,0,.08-.68A5.43,5.43,0,0,0,370.71,988.37Zm-8.57,3.09a3.67,3.67,0,0,1-2.77-.37,3.62,3.62,0,0,1-1.7-2.2.87.87,0,0,0-.83-.67.86.86,0,0,0-.72.34.88.88,0,0,0-.16.78,5.42,5.42,0,0,0,6.64,3.83.9.9,0,0,0,.65-.86.83.83,0,0,0,0-.22A.89.89,0,0,0,362.14,991.46Zm38.76,3.4h-4a7.46,7.46,0,0,0-1.15-9,7.28,7.28,0,0,0-5.19-2.17h-.17a8.7,8.7,0,0,0,.21-1.83,8.24,8.24,0,0,0-.15-1.56,8.81,8.81,0,0,0-.33-1.22c.23-.15.45-.29.66-.45a7.12,7.12,0,0,0,2.5-3.75c.82-2.69.68-5.35,2.48-7.54a1,1,0,0,0,.2-.58.91.91,0,0,0,0-.23.86.86,0,0,0-.57-.59,7.81,7.81,0,0,0-2.3-.41h-.46a11.21,11.21,0,0,0-6.87,2.64,9,9,0,0,0-3.11,5.53h-.11a7.37,7.37,0,0,0-.82,0,.37.37,0,0,0-.05-.11,7.51,7.51,0,0,0-7.47-3.75,7.37,7.37,0,0,0-2.84,1,7.61,7.61,0,0,0-3.43,4.36,9.12,9.12,0,0,0-2.4-.47,6.55,6.55,0,0,0-2.21-3c-2-1.6-4.25-2.35-5.47-4.55a.87.87,0,0,0-.77-.46h0a.88.88,0,0,0-.64.31A9.47,9.47,0,0,0,355,976a8.33,8.33,0,0,0,1.87,3.09,9.5,9.5,0,0,0-1.43,3.43,11.68,11.68,0,0,0-.17,1.34,7.55,7.55,0,0,0-2.83,1.79,7.67,7.67,0,0,0-1.15,9.25h-4a.89.89,0,0,0,0,1.78H400.9a.89.89,0,1,0,0-1.78Zm-14-25.31a9.72,9.72,0,0,1,6.16-2.18,3,3,0,0,1,.61.1c-1.39,2.42-1.46,5-2,6.93a5.26,5.26,0,0,1-1.89,2.86,10,10,0,0,1-3.86,1.52l.37-.48c1.47-1.94,3.21-4,3.88-6.52a1,1,0,0,0,0-.23A.93.93,0,0,0,390,971a.85.85,0,0,0-.67-.37.88.88,0,0,0-.9.67c-.53,2-2.08,3.93-3.58,5.9a2.92,2.92,0,0,1-.21.28C383.72,973.79,384.91,971.23,386.88,969.55Zm-30.18,5.84a8.49,8.49,0,0,1,.44-6.17c1.57,1.92,3.66,2.82,5.05,3.93a4.61,4.61,0,0,1,1.74,2.48,8.7,8.7,0,0,1,0,3.46l-.16-.25c-1.13-1.88-2.27-4-4.18-5.44a.92.92,0,0,0-.55-.19h0a.89.89,0,0,0-.8.64.87.87,0,0,0,.33,1c1.47,1.09,2.57,3,3.72,4.93a.61.61,0,0,0,.07.1A6.59,6.59,0,0,1,356.7,975.39Zm38,19.47H353.5a5.86,5.86,0,0,1,.24-8,5.71,5.71,0,0,1,8.15,0,.87.87,0,0,0,.63.27.89.89,0,0,0,.64-.25.9.9,0,0,0,.26-.64.89.89,0,0,0-.27-.63,7.49,7.49,0,0,0-5.34-2.23l-.69,0c0-.19.05-.39.09-.58a8.12,8.12,0,0,1,1.06-2.64,10.46,10.46,0,0,0,5.36,1.64,7.24,7.24,0,0,0,3.14,2.63.89.89,0,0,0,.69,0,.86.86,0,0,0,.48-.49.91.91,0,0,0,0-.69.9.9,0,0,0-.51-.47,5.22,5.22,0,0,1-2-1.62,0,0,0,0,0,0,0,14.53,14.53,0,0,0,.48-4.59,7.7,7.7,0,0,1,4.51,2.23,7.92,7.92,0,0,1,2.28,5.59,7.62,7.62,0,0,1-.16,1.6.76.76,0,0,0,0,.21.86.86,0,0,0,.14.47.89.89,0,0,0,.57.4,1,1,0,0,0,.68-.14.89.89,0,0,0,.37-.59,9.71,9.71,0,0,0-2.6-8.78,9.51,9.51,0,0,0-2.11-1.61h0a5.78,5.78,0,0,1,2.69-3.54,5.55,5.55,0,0,1,3-.78h0a5.66,5.66,0,0,1,1.36.2,5.74,5.74,0,0,1,3.28,2.35,8,8,0,0,0-3.09,2,.84.84,0,0,0-.28.63.89.89,0,0,0,.9.9.93.93,0,0,0,.64-.29,6.22,6.22,0,0,1,4.46-1.87,12.63,12.63,0,0,0,.73,3.91,8,8,0,0,0-1.43,4.31h0a.8.8,0,0,0,.26.62.88.88,0,0,0,1.25,0,.89.89,0,0,0,.26-.63,5.72,5.72,0,0,1,.88-2.84h.08a17.93,17.93,0,0,0,4-1,6.53,6.53,0,0,1,.2.76,6.39,6.39,0,0,1,.11,1.23,6.23,6.23,0,0,1-.36,2.13,7.19,7.19,0,0,0-3.11,1.87.92.92,0,0,0-.28.63.9.9,0,0,0,.26.64.94.94,0,0,0,.65.26.89.89,0,0,0,.63-.29,5.53,5.53,0,0,1,7.88,0,5.7,5.7,0,0,1,.23,7.73Zm-4.12-5.79a.89.89,0,0,0-.83.51,2.77,2.77,0,0,1-1.9,1.58,3.2,3.2,0,0,1-2.58-.55.89.89,0,0,0-.49-.16l-.18,0a.85.85,0,0,0-.57.37.9.9,0,0,0-.14.66.88.88,0,0,0,.38.57,5,5,0,0,0,4,.82,4.63,4.63,0,0,0,3.08-2.54.85.85,0,0,0,0-.85A.86.86,0,0,0,390.62,989.07Zm-10.82.4a2.78,2.78,0,0,1-1.58-1.89,3.23,3.23,0,0,1,.55-2.59.89.89,0,0,0,.06-.92.89.89,0,0,0-1.52-.08,5,5,0,0,0-.82,4,4.64,4.64,0,0,0,2.54,3.09.79.79,0,0,0,.4.1.93.93,0,0,0,.29,0,.86.86,0,0,0,.52-.45.9.9,0,0,0-.44-1.2Zm-9.09-1.1a5.37,5.37,0,0,0-2-.67,7.16,7.16,0,0,0-.8-.05,5.71,5.71,0,0,0-1.35.19h0a.87.87,0,0,0-.54.42.83.83,0,0,0-.09.67.89.89,0,0,0,1.09.63,3.63,3.63,0,0,1,2.77.36,3.59,3.59,0,0,1,1.7,2.2.86.86,0,0,0,.4.56.88.88,0,0,0,.69.1.86.86,0,0,0,.54-.43.85.85,0,0,0,.08-.68A5.43,5.43,0,0,0,370.71,988.37Zm-8.57,3.09a3.67,3.67,0,0,1-2.77-.37,3.62,3.62,0,0,1-1.7-2.2.87.87,0,0,0-.83-.67.86.86,0,0,0-.72.34.88.88,0,0,0-.16.78,5.42,5.42,0,0,0,6.64,3.83.9.9,0,0,0,.65-.86.83.83,0,0,0,0-.22A.89.89,0,0,0,362.14,991.46Zm1.08.63a.89.89,0,0,0-1.08-.63,3.67,3.67,0,0,1-2.77-.37,3.62,3.62,0,0,1-1.7-2.2.87.87,0,0,0-.83-.67.86.86,0,0,0-.72.34.88.88,0,0,0-.16.78,5.42,5.42,0,0,0,6.64,3.83.9.9,0,0,0,.65-.86A.83.83,0,0,0,363.22,992.09Zm10-.43a5.43,5.43,0,0,0-2.53-3.29,5.37,5.37,0,0,0-2-.67,7.16,7.16,0,0,0-.8-.05,5.71,5.71,0,0,0-1.35.19h0a.87.87,0,0,0-.54.42.83.83,0,0,0-.09.67.89.89,0,0,0,1.09.63,3.63,3.63,0,0,1,2.77.36,3.59,3.59,0,0,1,1.7,2.2.86.86,0,0,0,.4.56.88.88,0,0,0,.69.1.86.86,0,0,0,.54-.43A.85.85,0,0,0,373.24,991.66Zm7-1.68a.88.88,0,0,0-.47-.51,2.78,2.78,0,0,1-1.58-1.89,3.23,3.23,0,0,1,.55-2.59.89.89,0,0,0,.06-.92.89.89,0,0,0-1.52-.08,5,5,0,0,0-.82,4,4.64,4.64,0,0,0,2.54,3.09.79.79,0,0,0,.4.1.93.93,0,0,0,.29,0,.86.86,0,0,0,.52-.45A.87.87,0,0,0,380.27,990Zm11.08-.48a.86.86,0,0,0-.73-.43.89.89,0,0,0-.83.51,2.77,2.77,0,0,1-1.9,1.58,3.2,3.2,0,0,1-2.58-.55.89.89,0,0,0-.49-.16l-.18,0a.85.85,0,0,0-.57.37.9.9,0,0,0-.14.66.88.88,0,0,0,.38.57,5,5,0,0,0,4,.82,4.63,4.63,0,0,0,3.08-2.54.85.85,0,0,0,0-.85Zm-11.08.48a.88.88,0,0,0-.47-.51,2.78,2.78,0,0,1-1.58-1.89,3.23,3.23,0,0,1,.55-2.59.89.89,0,0,0,.06-.92.89.89,0,0,0-1.52-.08,5,5,0,0,0-.82,4,4.64,4.64,0,0,0,2.54,3.09.79.79,0,0,0,.4.1.93.93,0,0,0,.29,0,.86.86,0,0,0,.52-.45A.87.87,0,0,0,380.27,990Zm-7,1.68a5.43,5.43,0,0,0-2.53-3.29,5.37,5.37,0,0,0-2-.67,7.16,7.16,0,0,0-.8-.05,5.71,5.71,0,0,0-1.35.19h0a.87.87,0,0,0-.54.42.83.83,0,0,0-.09.67.89.89,0,0,0,1.09.63,3.63,3.63,0,0,1,2.77.36,3.59,3.59,0,0,1,1.7,2.2.86.86,0,0,0,.4.56.88.88,0,0,0,.69.1.86.86,0,0,0,.54-.43A.85.85,0,0,0,373.24,991.66Zm-10,.43a.89.89,0,0,0-1.08-.63,3.67,3.67,0,0,1-2.77-.37,3.62,3.62,0,0,1-1.7-2.2.87.87,0,0,0-.83-.67.86.86,0,0,0-.72.34.88.88,0,0,0-.16.78,5.42,5.42,0,0,0,6.64,3.83.9.9,0,0,0,.65-.86A.83.83,0,0,0,363.22,992.09Zm28.13-2.59a.86.86,0,0,0-.73-.43.89.89,0,0,0-.83.51,2.77,2.77,0,0,1-1.9,1.58,3.2,3.2,0,0,1-2.58-.55.89.89,0,0,0-.49-.16l-.18,0a.85.85,0,0,0-.57.37.9.9,0,0,0-.14.66.88.88,0,0,0,.38.57,5,5,0,0,0,4,.82,4.63,4.63,0,0,0,3.08-2.54.85.85,0,0,0,0-.85Z" transform="translate(-3.95 -5.64)"/><text class="cls-11" transform="translate(45.02 461.6) rotate(75.87)">B<tspan class="cls-12" x="19.22" y="0">e</tspan><tspan class="cls-13" x="34.05" y="0">v</tspan><tspan class="cls-14" x="48.68" y="0">o</tspan><tspan class="cls-15" x="65.69" y="0">r</tspan><tspan class="cls-14" x="75.95" y="0">zug</tspan><tspan class="cls-16" x="124.47" y="0">t</tspan><tspan class="cls-14" x="134.59" y="0">e </tspan><tspan class="cls-17" x="157.92" y="0">R</tspan><tspan class="cls-14" x="176.9" y="0">eihen</tspan><tspan class="cls-15" x="246.91" y="0">f</tspan><tspan class="cls-14" x="256.15" y="0">olge</tspan></text><line class="cls-18" x1="6.14" y1="152.91" x2="259.24" y2="1157.26"/><path class="cls-1" d="M250.54,1152a1,1,0,0,1,1.41,0l11.12,10.5,4.82-14.52a1,1,0,0,1,1.9.63l-5.31,16a1,1,0,0,1-.71.66,1,1,0,0,1-.93-.25l-12.26-11.58a1,1,0,0,1-.29-.48A1,1,0,0,1,250.54,1152Z" transform="translate(-3.95 -5.64)"/></g></g></svg>