<?xml version="1.0" encoding="UTF-8"?>
<svg id="Layer_2" data-name="Layer 2" xmlns="http://www.w3.org/2000/svg" xmlns:xlink="http://www.w3.org/1999/xlink" viewBox="0 0 358.02 184.9">
  <defs>
    <style>
      .cls-1 {
        fill: url(#linear-gradient-2);
      }

      .cls-2 {
        fill: url(#linear-gradient-6);
      }

      .cls-3 {
        fill: #fff;
        opacity: .5;
      }

      .cls-4 {
        fill: url(#linear-gradient-11);
      }

      .cls-5 {
        fill: url(#linear-gradient-10);
      }

      .cls-6 {
        fill: url(#linear-gradient-5);
      }

      .cls-7 {
        fill: #1a2644;
      }

      .cls-8 {
        fill: #2c3a64;
      }

      .cls-9 {
        fill: url(#linear-gradient-7);
      }

      .cls-10 {
        fill: #bf6121;
      }

      .cls-11 {
        fill: url(#linear-gradient-9);
      }

      .cls-12 {
        fill: #ed7d2b;
      }

      .cls-13 {
        fill: url(#linear-gradient-3);
      }

      .cls-14 {
        fill: url(#linear-gradient);
      }

      .cls-15 {
        fill: #bdd0fb;
      }

      .cls-16 {
        fill: url(#linear-gradient-4);
      }

      .cls-17 {
        fill: url(#linear-gradient-8);
      }

      .cls-18 {
        fill: url(#linear-gradient-12);
      }

      .cls-19 {
        fill: url(#linear-gradient-13);
      }
    </style>
    <linearGradient id="linear-gradient" x1="138" y1="113.53" x2="194.54" y2="113.53" gradientUnits="userSpaceOnUse">
      <stop offset="0" stop-color="#febbba"/>
      <stop offset="1" stop-color="#ff928e"/>
    </linearGradient>
    <linearGradient id="linear-gradient-2" x1="173.09" y1="59.35" x2="37.63" y2="126.74" xlink:href="#linear-gradient"/>
    <linearGradient id="linear-gradient-3" x1="171.79" y1="48.29" x2="158.71" y2="61.95" xlink:href="#linear-gradient"/>
    <linearGradient id="linear-gradient-4" x1="173.51" y1="58.83" x2="84.8" y2="102.96" xlink:href="#linear-gradient"/>
    <linearGradient id="linear-gradient-5" x1="58.53" y1="73.13" x2="70.31" y2="40.94" xlink:href="#linear-gradient"/>
    <linearGradient id="linear-gradient-6" x1="115.45" y1="114.79" x2="74.35" y2="145.02" xlink:href="#linear-gradient"/>
    <linearGradient id="linear-gradient-7" x1="84.72" y1="27.39" x2="50.15" y2="53.83" xlink:href="#linear-gradient"/>
    <linearGradient id="linear-gradient-8" x1="80.43" y1="21.78" x2="45.87" y2="48.23" xlink:href="#linear-gradient"/>
    <linearGradient id="linear-gradient-9" x1="136.97" y1="127.83" x2="150.91" y2="127.83" xlink:href="#linear-gradient"/>
    <linearGradient id="linear-gradient-10" x1="264.52" y1="56.97" x2="255.45" y2="29.77" xlink:href="#linear-gradient"/>
    <linearGradient id="linear-gradient-11" x1="319.57" y1="136.21" x2="290.1" y2="192.88" xlink:href="#linear-gradient"/>
    <linearGradient id="linear-gradient-12" x1="3621.68" y1="3823.67" x2="3589.09" y2="3866.79" gradientTransform="translate(5523.7 34.09) rotate(-133.27) scale(1 -1)" xlink:href="#linear-gradient"/>
    <linearGradient id="linear-gradient-13" x1="3573.94" y1="3857.82" x2="3600.08" y2="3831" gradientTransform="translate(5523.7 34.09) rotate(-133.27) scale(1 -1)" xlink:href="#linear-gradient"/>
  </defs>
  <g id="Layer_1-2" data-name="Layer 1">
    <g>
      <path class="cls-3" d="M277.85,161.15c.8-.12,1.64-.37,2.44-.65,.81-.28,1.6-.61,2.37-.98,1.54-.75,3.03-1.6,4.45-2.57,2.85-1.91,5.48-4.15,7.95-6.54,4.94-4.81,9.18-10.3,13.21-15.97,2.03-2.83,4.03-5.69,6.2-8.46,2.17-2.76,4.58-5.43,7.53-7.49,1.47-1.02,3.08-1.87,4.79-2.45,1.7-.59,3.48-.91,5.26-1,3.57-.19,7.08,.46,10.44,1.41,.12,.03,.19,.16,.16,.28-.03,.12-.15,.19-.27,.16h0c-3.38-.74-6.85-1.24-10.26-.91-1.7,.17-3.36,.54-4.94,1.13-1.58,.59-3.07,1.42-4.43,2.42-2.74,2.01-4.97,4.65-7.06,7.39-2.1,2.74-4.03,5.64-6.05,8.49-2.01,2.86-4.08,5.69-6.28,8.43-.56,.68-1.14,1.34-1.71,2.01-.57,.67-1.13,1.35-1.75,1.98l-1.81,1.93-1.91,1.84c-2.58,2.41-5.35,4.63-8.39,6.46-1.5,.93-3.1,1.72-4.75,2.38-1.66,.65-3.34,1.2-5.18,1.32-.16,.01-.3-.11-.32-.28-.01-.15,.1-.29,.25-.31h.04Z"/>
      <g>
        <g>
          <path class="cls-14" d="M157.02,115.35s-2.93-7.71-6.35-7.01c-3.42,.71-7.17,3.34-7.17,3.34l-5.5,7.44s15.44,6.08,20.87,2.6c0,0,15.77,2.72,35.68-.54-2.88-6.09-4.6-12.18-5.61-16.91-10.09,5.71-20.95,9.97-31.92,11.09Z"/>
          <path class="cls-8" d="M240.54,59.4s-22.58,28.43-51.61,44.87c1.01,4.73,2.73,10.82,5.61,16.91,15.06-2.47,32.49-8.37,47.27-21.47l-1.27-40.3Z"/>
        </g>
        <path class="cls-12" d="M71.34,63.16l1.4,37.64c3.98,1.37,7.77,2.44,11.38,3.23,2.26-7.27,7.23-16.19,11.3-22.82-14.95-5.29-24.08-18.05-24.08-18.05Z"/>
        <path class="cls-1" d="M146.01,62.52c-20.51,22.15-37.12,23.45-50.58,18.69-4.07,6.63-9.04,15.55-11.3,22.82,54.78,12.08,67.68-38.29,67.68-38.29l-5.8-3.23Z"/>
        <path class="cls-13" d="M150.17,60.16s2.36-2.54,6.74-1.74c4.37,.8,8.27,2.32,10.99,0,2.73-2.32,3.68,.79,3.68,.79l-8.16,6.2-13.25-5.26Z"/>
        <path class="cls-16" d="M145.28,64.5s1.62-6.77,6.5-5.84,15.96,6.95,18.81,5.84c2.85-1.11,6.51-3.77,8.38-2.83l-3.3,4.1s8.48-4.89,9.94-1.89l-14.11,7.94s-20.65-2.07-26.22-7.33Z"/>
        <path class="cls-12" d="M.32,176.85S-6.68,87.28,44.35,56.21c0,0,14.27-9.42,32.04,8.82,17.78,18.24,12.05,37.19-2.87,54.95-14.92,17.76-30.11,40.02-26.5,57.78-4.23,2.04-12.44,4.42-23.25,4.44-10.92,.02-19.21-3.3-23.46-5.34Z"/>
        <path class="cls-6" d="M70.07,28.99c-.01,1.19-17.01,25.33-17.01,25.33,0,0,3.05,6.01,17.61,10.88l12.57-25.84-13.17-10.37Z"/>
        <path class="cls-2" d="M63.39,111.86s32.24,27,67.05,15.22c2.16-.73,4.52-.57,6.54,.49l10.01,5.29c4.2,2.22,9.4,.76,11.84-3.32,1.39-2.33,2.58-4.98,2.81-7.53l-19.58-7.93,1.44-2.4s-9.56-.81-12.06,6.04c0,0-18.21,7.57-48.92-26.21,0,0-13.94,11.85-19.12,20.34Z"/>
        <path class="cls-10" d="M61.65,111.74c-.14,0-.28-.04-.4-.12-13.61-9.2-20.02-24.05-20.08-24.19-.15-.36,.02-.78,.38-.94,.36-.15,.78,.02,.94,.38,.06,.15,6.31,14.61,19.57,23.57,.33,.22,.41,.66,.19,.99-.14,.2-.36,.31-.59,.31Z"/>
        <path class="cls-10" d="M81.87,91.22c-.23,0-.46-.12-.6-.33-.04-.06-4.19-6.52-12.09-20.67-2.41-4.31-5.56-7.04-9.39-8.11-6.34-1.77-12.45,1.63-12.52,1.66-.34,.19-.78,.07-.97-.27-.19-.34-.07-.78,.27-.97,.27-.15,6.13-3.67,13.05-1.75,4.21,1.17,8.21,4.08,10.81,8.73,7.88,14.1,12,20.53,12.05,20.59,.21,.33,.12,.77-.21,.99-.12,.08-.25,.11-.39,.11Z"/>
        <g>
          <path class="cls-9" d="M83.45,15.16s6.05,13.89,6.45,21.18c.41,7.29,1.98,12.02-6.45,13.49-8.43,1.47-15.53-2.73-19.38-9.99,0,0-6.03-11.19-4.68-15.77,1.35-4.58,24.05-8.9,24.05-8.9Z"/>
          <path class="cls-8" d="M66.95,34.61l.48-.21c.61-.27,.87-1,.57-1.59-1.19-2.3-3.51-7.56-.51-8.79,3.86-1.58,19.14-4.7,22.44-10.12,3.17-5.21,.36-11.94-3.86-13.85-.28-.13-.62-.03-.76,.25l-.35,.67c-.24,.46-.91,.39-1.06-.11h0c-.14-.48-.77-.57-1.03-.15-1.01,1.62-3.75,4.25-11.07,5.6-10.4,1.92-17.27,6.13-17.44,13.31-.01,.46-.5,.71-.89,.47-.77-.47-2-.69-3.64,.69-2.86,2.4-1.69,8.63,4.57,13.75,.3,.24,.29,.71-.03,.92-1.14,.74-2.83,2.5,1.56,4.84,4.53,2.42,7.92,2.23,9.22,2.01,.32-.05,.53-.37,.46-.69l-1.39-6.32c-.08-.36,.19-.7,.56-.7h2.17Z"/>
          <path class="cls-17" d="M67.21,35.95s-2.31-8.87-6.28-6.38c-3.98,2.49,2.06,9.94,5.26,10.27l1.02-3.89Z"/>
        </g>
        <path class="cls-11" d="M136.97,127.57s8.19,8.01,9.77,6.85c.56-.42,1.98-1.92,3.36-3.6,.97-1.18,1.07-2.86,.24-4.14l-1.93-2.98c-1.84-2.84-5.78-3.44-8.34-1.21-1.29,1.12-2.46,2.74-3.1,5.09Z"/>
        <path class="cls-8" d="M267.02,179.56s-1.01-29.82-21.94-66.99c-6.55-11.63-8.88-25.17-6.83-38.35l2.29-14.81s28.73-9.72,60.57-.41c0,0,44.16,27.36,14.65,120.57-4.58,2.11-13.04,5.29-24.07,5.34-11.35,.06-20.05-3.22-24.67-5.34Z"/>
        <path class="cls-5" d="M245.43,40.49l7.45,17.9c.47,1.13,1.49,1.94,2.69,2.14,4.3,.74,14.68,1.89,21.5-2.6,.81-.53,1.02-1.64,.46-2.44l-13.76-19.76-18.35,4.76Z"/>
        <g>
          <path class="cls-15" d="M263.8,124.6c-1.03,.27-1.54,1.42-1.04,2.36l21.55,41.32c.36,.7,1.17,1.04,1.93,.82l70.5-20.35c.88-.25,1.38-1.17,1.13-2.05l-12.14-42.04c-.25-.86-1.14-1.37-2.01-1.14l-79.9,21.07Z"/>
          <path class="cls-15" d="M268.35,119.74c-1.01,.24-1.58,1.31-1.22,2.28l17.25,46.86c.31,.85,1.23,1.32,2.11,1.07l70.28-20.29c.87-.25,1.4-1.14,1.21-2.03l-9.74-45.1c-.2-.95-1.15-1.54-2.09-1.32l-77.79,18.53Z"/>
          <path class="cls-12" d="M274.47,115.01c-1.23,.19-2.04,1.38-1.76,2.6l11.72,50.59c.28,1.2,1.5,1.91,2.68,1.57l69.22-19.98c1.11-.32,1.77-1.47,1.48-2.59l-10.64-41.29c-.27-1.06-1.31-1.75-2.39-1.58l-70.29,10.69Z"/>
        </g>
        <path class="cls-8" d="M330.5,134.3c5.37-40.58-25.9-71.79-25.9-71.79l-18.61,21.69c14.13,17.61,20.84,33.74,23.91,46.42,4.07-1.18,13.86-3.06,20.6,3.68Z"/>
        <path class="cls-7" d="M309.9,131.1c-.21,0-.41-.15-.46-.36-3.81-15.72-11.82-31.27-23.82-46.23-.16-.21-.13-.5,.07-.67,.21-.16,.5-.13,.67,.07,12.09,15.07,20.16,30.75,24,46.6,.06,.26-.09,.51-.35,.57-.04,0-.08,.01-.11,.01Z"/>
        <path class="cls-4" d="M309.91,130.63c2.85,11.78,2.55,20.57,2.12,24.76-.16,1.58-1.43,2.82-3.02,2.93-1.8,.13-4.25,.29-6.45,.42-2.41,.14-5.08-1.38-6.87-2.66-.91-.65-2.09,.36-1.58,1.36,1.33,2.61,4.72,4.94,7.06,6.3,.85,.5,.69,1.77-.26,2.04l-9.98,2.83c16.4,15.45,27.24-1.84,27.24-1.84,7.24-11.19,10.99-22.13,12.35-32.46-6.74-6.73-16.53-4.86-20.6-3.68Z"/>
        <g>
          <path class="cls-18" d="M253.14,13.11c-.31,.29-13.2,25.61-13.2,25.61l14.61,7.05,15.78-22.18s-11.95-15.41-17.19-10.48Z"/>
          <path class="cls-8" d="M263.68,26.26l-7.29,12.15c-.11,.18-.24,.35-.4,.5-.87,.81-3.84,3.16-6.13-.04-1.96-2.73-3.79-5.2-5.76-6.22-1.15-.6-2.56-.12-3.14,1.04-1.2,2.38-3.53,7.23-4.99,11.83-.37,1.15,.23,2.39,1.35,2.84,2.96,1.2,8.81,3.37,13.99,4.08,.85,.12,1.7-.24,2.2-.94,2.23-3.06,8.52-11.6,10.67-13.74,2-1.99,5.68-1.24,7.34-.76,.63,.18,1.3,.09,1.86-.24,1.68-1.01,4.62-3.54,1.93-7.81-.67-1.06-.33-2.48,.72-3.17,1.88-1.24,3.92-3.56,1.98-7.31-1.97-3.8-5.48-4.15-7.87-3.85-1.06,.13-2.13-.43-2.54-1.41-.18-.44-.54-.81-1.2-.95-1.25-.25-2.08-1.4-1.83-2.66,.42-2.15,.1-4.95-3.33-6.84-6.3-3.47-11.83,2.18-13.23,6.95-1.4,4.77,5.64,8.14,10.08,8.7,3.26,.41,5.04,3.97,5.76,5.83,.26,.67,.2,1.43-.18,2.05Z"/>
          <path class="cls-19" d="M261.46,42.21s2.8-8.2,6.39-7.9c3.59,.3,6.41,3.88,1.97,7.89-5.53,5-8.36,0-8.36,0Z"/>
        </g>
      </g>
    </g>
  </g>
</svg>