<?xml version="1.0" encoding="UTF-8"?>
<svg id="Layer_2" data-name="Layer 2" xmlns="http://www.w3.org/2000/svg" viewBox="0 0 243.51 204">
  <defs>
    <style>
      .cls-1 {
        fill: #fa7375;
      }

      .cls-2 {
        fill: #797d9b;
      }

      .cls-3 {
        fill: #fff;
      }

      .cls-4 {
        fill: #007ca5;
      }

      .cls-5 {
        fill: #95c38b;
      }

      .cls-6 {
        fill: #a8d29f;
      }

      .cls-7 {
        fill: #3e4e6c;
      }

      .cls-8 {
        fill: #95a4b1;
      }

      .cls-9 {
        fill: #ff9843;
      }

      .cls-10 {
        fill: #ffa68d;
      }

      .cls-11 {
        fill: #2c3a64;
      }

      .cls-12 {
        fill: #ffc9ac;
      }

      .cls-13 {
        fill: #1888bc;
      }

      .cls-14 {
        fill: #42a8d5;
      }

      .cls-15 {
        fill: #435277;
      }

      .cls-16 {
        fill: #ed7d2b;
      }

      .cls-17 {
        fill: #ce7865;
      }

      .cls-18 {
        fill: #47284f;
      }

      .cls-19 {
        fill: #2b478b;
      }
    </style>
  </defs>
  <g id="Layer_1-2" data-name="Layer 1">
    <g>
      <g>
        <g>
          <g>
            <g>
              <polygon class="cls-18" points="157.27 141.34 154.22 141.34 153.4 148.66 156.65 146.9 157.27 141.34"/>
              <polygon class="cls-8" points="153.4 148.66 148.21 195.16 151.27 195.16 156.65 146.9 153.4 148.66"/>
            </g>
            <g>
              <polygon class="cls-8" points="180.04 147.85 174.77 195.16 177.82 195.16 183.29 146.09 180.04 147.85"/>
              <polygon class="cls-18" points="183.82 141.34 180.77 141.34 180.04 147.85 183.29 146.09 183.82 141.34"/>
            </g>
            <g>
              <polygon class="cls-18" points="195.31 141.34 192.26 141.34 193.01 148.02 195.89 146.46 195.31 141.34"/>
              <polygon class="cls-8" points="201.32 195.16 195.89 146.46 193.01 148.02 198.26 195.16 201.32 195.16"/>
            </g>
            <g>
              <polygon class="cls-18" points="221.87 141.34 218.81 141.34 219.51 147.57 222.39 146.01 221.87 141.34"/>
              <polygon class="cls-8" points="227.87 195.16 222.39 146.01 219.51 147.57 224.82 195.16 227.87 195.16"/>
            </g>
          </g>
          <g>
            <path class="cls-2" d="M152.02,141.34h0c2.77-6,8.78-9.85,15.4-9.85h20.21l10.93-71.13,15.35-12.42h9.72c12.18,0,21.49,10.85,19.64,22.89l-9.21,59.97c-.93,6.06-6.15,10.54-12.28,10.54h-69.77Z"/>
            <path class="cls-15" d="M142.3,141.34h0c2.77-6,8.78-9.85,15.4-9.85h20.21l9.32-60.65c2.02-13.18,13.36-22.9,26.69-22.9h0c12.18,0,21.49,10.85,19.64,22.89l-8.19,53.28c-.65,4.24-4.3,7.37-8.59,7.37h-12.75c-6.61,0-12.62,3.84-15.4,9.85h0s-46.33,0-46.33,0Z"/>
          </g>
        </g>
        <g>
          <g>
            <g>
              <path class="cls-10" d="M171.32,47.99c2.97,1.46,6.63,1.43,9.57-.09,2.28-1.17,4.08-3.22,5.03-5.6h-2.4c-1.37,0-2.48-1.11-2.48-2.48v-8.28l-10.71,2.79v6c0,1.37-1.11,2.48-2.48,2.48h-1.5c1.02,2.21,2.79,4.09,4.98,5.17Z"/>
              <path class="cls-17" d="M181.03,31.55c-1.81,6.47-5.54,9.16-10.71,7.35v-4.55l10.71-2.79Z"/>
            </g>
            <g>
              <path class="cls-11" d="M160.38,22.23c-4.19-3.16-2.79-9.63-2.17-10.56-1.51-.91-2.98-2.14-3.87-3.66-.89-1.52-1.23-3.42-.63-5.07,.59-1.66,2.22-2.97,3.98-2.94,2.05,.04,3.68,1.71,5.62,2.39,1.96,.68,4.12,.3,6.13-.23,2.01-.52,4.04-1.18,6.11-1.03,1.76,.13,3.46,.87,4.76,2.05s2.18,2.82,2.47,4.56c1.68-.8,4.01-.17,5.04,1.38,.99,1.49,.84,3.44,.61,5.21-.43,3.21-2.17,10.96-2.93,14.1l-5.8,1.45-19.31-7.66Z"/>
              <g>
                <path class="cls-10" d="M183.74,23.89c.55-.88,1.37-1.63,2.37-1.92,1-.29,2.18-.04,2.85,.76,.56,.66,.71,1.61,.55,2.46-.16,.86-.58,1.64-1.05,2.37-.43,.66-.91,1.3-1.52,1.8-.61,.5-1.36,.86-2.15,.89-.79,.03-1.61-.3-2.07-.94-.52-.73-.38-1.75-.14-2.56,.29-.98,.61-2,1.15-2.87Z"/>
                <path class="cls-1" d="M184.69,29.02c-.4,0-.77-.17-.95-.42-.08-.12-.25-.5,.04-1.49,.26-.89,.55-1.82,1.01-2.55,.44-.7,1.04-1.21,1.66-1.38,.15-.04,.32-.07,.48-.07,.45,0,.85,.16,1.08,.43,.27,.32,.38,.87,.28,1.44-.13,.7-.53,1.39-.87,1.92-.46,.71-.85,1.18-1.27,1.52-.45,.37-.96,.59-1.41,.61h-.06Z"/>
              </g>
              <path class="cls-10" d="M181.81,21.5s-4.97-2.07-4.31-7.91c-5.2,1.66-10.95,1.53-16.08-.34-1.14,1.84-1.81,4.01-1.81,6.34v5.8c0,6.66,5.4,12.06,12.06,12.06h0c5.51,0,10.14-3.7,11.59-8.74-.32-.34-.62-.71-.87-1.12-1.08-1.75-1.34-4.18-.57-6.09Z"/>
              <path class="cls-3" d="M173.23,30.12c-2.57,.3-5.15,.6-7.72,.9,.95,1.24,2.5,2.04,4.06,1.9,1.56-.14,2.94-1.42,3.67-2.81Z"/>
            </g>
          </g>
          <g>
            <g>
              <path class="cls-13" d="M182.37,104.73h-22.67l-35.04,9.57c-8.21,2.24-12.65,11.11-9.52,19.02l15.47,39.21,15.22-5.97-5.9-32.56h13.56l28.88-18.82v-10.45Z"/>
              <polygon class="cls-14" points="147.48 165.91 128.98 173.18 130.98 179.79 149.49 172.53 147.48 165.91"/>
              <g>
                <path class="cls-19" d="M129.7,196.08c-.28,.84-.44,1.73-.44,2.64h25.06l-.81-2.64h-23.82Z"/>
                <path class="cls-11" d="M146.65,173.64l-12.2,4.79,3.03,8c.57,1.51-.1,3.2-1.55,3.9l-2,.97c-2.03,.98-3.52,2.72-4.22,4.78h23.82l-6.86-22.44Z"/>
              </g>
              <path class="cls-4" d="M145.15,128.1l1.15,5.91h7.19l28.88-18.82v-6.08l-28.52,5.91c-5.99,1.24-9.87,7.07-8.7,13.08Z"/>
            </g>
            <g>
              <path class="cls-13" d="M193.19,104.73l-29.56,7.93c-8.34,2.24-13.77,10.24-12.77,18.82l4.29,36.71h17.7l1.4-36.49h12.89c12.69,0,22.98-10.29,22.98-22.98v-9.92l-16.92,5.93Z"/>
              <rect class="cls-14" x="153.5" y="168.18" width="20.81" height="6.31"/>
              <g>
                <path class="cls-11" d="M171.51,174.5h-15.01v10.57c0,3.31-1.81,6.37-4.71,7.96-2.06,1.13-3.57,3-4.27,5.18h23.99v-23.7Z"/>
                <path class="cls-19" d="M147.52,198.2c-.29,.89-.44,1.83-.44,2.79v.22h24.43v-3h-23.99Z"/>
              </g>
              <path class="cls-4" d="M174.25,131.7l.38-9.89h0c2.46,2.6,2.99,6.48,1.31,9.64l-.13,.25h-1.55Z"/>
            </g>
          </g>
          <g>
            <path class="cls-6" d="M189.58,42.31h-3.66c-.95,2.38-2.75,4.42-5.03,5.6-2.94,1.52-6.6,1.55-9.57,.09-2.19-1.08-3.96-2.95-4.98-5.17h-7.67c-7.33,0-13.87,4.59-16.36,11.48l-7.3,20.2,18.27,4.85,2.38-8.5,4.04,33.86h22.67l22.78-17.6-15.57-44.82Z"/>
            <path class="cls-6" d="M189.58,42.31h6.22c7.04,0,13.38,4.24,16.07,10.75l7.36,17.81-17.42,6.64-12.23-35.2Z"/>
            <path class="cls-10" d="M182.37,104.73l22.78-17.6-3.34-9.62,14.73-5.61,4.55,13.24c1.66,4.84-.89,10.12-5.73,11.82l-22.16,7.77-18.17,4.87,7.35-4.87Z"/>
            <path class="cls-10" d="M151.11,107.08l-2.17-21.02,3.04-7.04-15.29-4.06-1.69,5.86c-.98,3.4-.86,7.03,.35,10.36l6.66,18.38,9.11-2.49Z"/>
            <path class="cls-5" d="M195.51,59.38l2.47,23.5c.21,2.03-.42,4.06-1.74,5.62l-13.86,16.24,22.78-17.6-9.64-27.76Z"/>
            <path class="cls-5" d="M155.67,70.87l-1.7-14.28-1.41,7.22c-.72,3.7,.03,7.54,2.1,10.7h0l1.02-3.64Z"/>
          </g>
        </g>
      </g>
      <g>
        <g>
          <g>
            <path class="cls-12" d="M105.58,28.96v14.7c0,4.46-3.61,8.07-8.07,8.07h-1.36l-1.24,1.97h-15.84l5.38-8.38,21.13-16.36Z"/>
            <path class="cls-11" d="M105.62,31.78l-3.65,5.05v5.43c0,3.09-2.5,5.59-5.59,5.59h-9.73c-1.92,0-3.71-.99-4.74-2.62-10.04-15.96-7.44-28.04,3.68-26.42,9.55-13.82,33.93,2.64,20.03,12.97Z"/>
            <path class="cls-12" d="M104.15,33.82l-2.17,3.01v5.28c.29,.86,1.12,1.27,1.74,1.09,.63-.18,1.15-.81,1.58-1.53,.54-.9,.96-1.99,1.12-3.19,.15-1.2,.02-2.5-.46-3.48-.48-.98-1.01-1.17-1.81-1.17Z"/>
          </g>
          <g>
            <g>
              <g>
                <g>
                  <path class="cls-7" d="M83.93,196.24c-1.02-1.24-1.82-2.64-2.37-4.15l-.41-1.14h-12.9l-1,10.25h19.33c-.54-1.81-1.43-3.5-2.64-4.96Z"/>
                  <path class="cls-3" d="M86.56,201.21h-19.33l-.27,2.79h20.18l-.2-1.17c-.09-.55-.22-1.09-.38-1.63Z"/>
                </g>
                <polygon class="cls-18" points="81.14 190.96 68.24 190.96 67.85 194.91 81.14 190.96"/>
              </g>
              <g>
                <polygon class="cls-19" points="92.13 128.43 87.16 190.96 64.39 190.96 69.26 140.65 92.13 128.43"/>
                <polygon class="cls-11" points="89.65 159.7 68.03 153.43 69.26 140.65 92.13 128.43 89.65 159.7"/>
              </g>
            </g>
            <g>
              <g>
                <g>
                  <path class="cls-7" d="M124.44,196.93h0c-2.18-1.06-3.99-2.76-5.19-4.86l-.64-1.12h-11.59l-2.2,10.25h24.44c-1.18-1.82-2.83-3.31-4.82-4.27Z"/>
                  <path class="cls-3" d="M129.26,201.21h-24.44l-.6,2.79h26.4l-.04-.11c-.33-.96-.78-1.85-1.32-2.69Z"/>
                </g>
                <polygon class="cls-18" points="118.61 190.96 107.02 190.96 106.17 194.91 118.61 190.96"/>
              </g>
              <g>
                <path class="cls-19" d="M93.46,113.74l24.76,10.96c5.07,2.24,8.16,7.44,7.72,12.96l-4.24,53.3h-22.77l4.87-50.31-14.61-1.63H52.92v-25.28h40.55Z"/>
                <path class="cls-11" d="M103.82,140.65h15.93l-.99,.74c-4.38,3.25-10.05,4.21-15.26,2.6h0l.32-3.33Z"/>
              </g>
            </g>
          </g>
          <g>
            <g>
              <path class="cls-10" d="M135.98,69.59l-5.56-9.89h0c1.2-.55,2.61-.25,3.48,.74l1.7,1.95,.39,7.19Z"/>
              <path class="cls-12" d="M133.49,72.93l2.48-3.34-1.24-7.3c-.12-5.78,2.39-8.81,3.68-9.97,.4-.36,.99-.41,1.44-.11h.01c.53,.37,.65,1.09,.29,1.63-1.91,2.86-2.09,5.81-2.09,5.81,1.46-2.97,3.68-4.72,4.8-5.47,.41-.27,.94-.25,1.33,.05l3.45,2.62c.53,.4,.61,1.16,.19,1.66-1.78,2.09-2.72,5.03-2.72,5.03,1.24,4.89-1.09,8.15-2.1,8.7l-4.04,6.44-5.51-5.75Z"/>
            </g>
            <g>
              <path class="cls-9" d="M51.12,68.5h0c2.21-9.8,10.92-16.77,20.97-16.77h20.97c8.62,0,16.38,5.24,19.59,13.24l8.03,19.99,11.59-13.46c8.28,.41,9.73,8.9,9.73,8.9l-15.92,20.35c-4.61,5.89-13.84,4.77-16.9-2.07l-7.14-15.95-6.52,33.69c-9.83,5.8-38.61,4.35-44.41,1.24v-49.17Z"/>
              <polygon class="cls-16" points="102.05 82.73 104.97 67.62 105.58 90.63 102.05 82.73"/>
              <path class="cls-16" d="M120.68,84.96l3.59,8.94,.34-4.74c.16-2.27-.69-4.49-2.33-6.07h0l-1.61,1.87Z"/>
            </g>
          </g>
        </g>
        <g>
          <path class="cls-15" d="M95.13,147.37c-.78-5.5-5.48-9.59-11.04-9.61h-3.17c-2.37-.01-4.4-1.69-4.86-4.02l-10.24-52.04c-3-15.25-16.37-26.25-31.91-26.25h-10.3l1.64,1.64c-10.22,4.03-16.77,14.95-14.5,26.51l10.83,55.03c1.32,6.7,7.19,11.53,14.02,11.53h59.93l-.4-2.81Z"/>
          <path class="cls-2" d="M11.28,138.65L.45,83.61c-2.87-14.58,8.29-28.16,23.16-28.16h0c15.54,0,28.91,11,31.91,26.25l11.2,56.94c1.32,6.7,7.19,11.53,14.02,11.53H25.29c-6.83,0-12.7-4.83-14.02-11.53Z"/>
          <g>
            <polygon class="cls-18" points="28.35 150.17 25.29 150.17 24.48 157.49 27.73 155.74 28.35 150.17"/>
            <polygon class="cls-8" points="24.48 157.49 19.29 204 22.34 204 27.73 155.74 24.48 157.49"/>
          </g>
          <g>
            <polygon class="cls-8" points="51.12 156.68 45.84 204 48.9 204 54.37 154.93 51.12 156.68"/>
            <polygon class="cls-18" points="54.9 150.17 51.85 150.17 51.12 156.68 54.37 154.93 54.9 150.17"/>
          </g>
          <g>
            <polygon class="cls-18" points="66.39 150.17 63.34 150.17 64.08 156.85 66.96 155.3 66.39 150.17"/>
            <polygon class="cls-8" points="72.39 204 66.96 155.3 64.08 156.85 69.34 204 72.39 204"/>
          </g>
          <g>
            <polygon class="cls-18" points="92.94 150.17 89.89 150.17 90.58 156.4 93.46 154.85 92.94 150.17"/>
            <polygon class="cls-8" points="98.95 204 93.46 154.85 90.58 156.4 95.89 204 98.95 204"/>
          </g>
        </g>
      </g>
    </g>
  </g>
</svg>