<?xml version="1.0" encoding="UTF-8"?>
<svg id="Layer_2" data-name="Layer 2" xmlns="http://www.w3.org/2000/svg" viewBox="0 0 146 146">
  <defs>
    <style>
      .cls-1 {
        fill: #003b7e;
      }

      .cls-2 {
        fill: #ffe500;
      }
    </style>
  </defs>
  <g id="Layer_1-2" data-name="Layer 1">
    <g>
      <circle class="cls-2" cx="73" cy="73" r="73"/>
      <g>
        <path class="cls-1" d="M60.68,32.53v5.62h-1.5c-3.18,0-5.77,2.59-5.77,5.77v18.42c0,3.18,2.59,5.77,5.77,5.77h27.63c3.18,0,5.77-2.59,5.77-5.77v-18.42c0-3.18-2.59-5.77-5.77-5.77h-1.5v-5.62c0-2.25-1.83-4.07-4.07-4.07h-16.49c-2.25,0-4.07,1.83-4.07,4.07h0Zm26.14,33.37h-27.63c-1.96,0-3.55-1.59-3.55-3.55v-11.03h12.16v2.7c0,.62,.5,1.11,1.11,1.11h8.19c.62,0,1.11-.5,1.11-1.11v-2.7h12.16v11.03c0,1.95-1.59,3.55-3.55,3.55h0Zm-10.84-12.99h-5.96v-5.4h5.96v5.4Zm14.38-8.98v5.16h-12.16v-2.7c0-.62-.5-1.11-1.11-1.11h-8.19c-.62,0-1.11,.5-1.11,1.11v2.7h-12.16v-5.16c0-1.96,1.59-3.55,3.55-3.55h27.63c1.96,0,3.55,1.59,3.55,3.55h0Zm-7.27-11.4v5.62h-20.18v-5.62c0-1.02,.83-1.85,1.85-1.85h16.49c1.02,0,1.85,.83,1.85,1.85h0Z"/>
        <path class="cls-1" d="M107.53,84.59c0-8.1-6.59-14.68-14.68-14.68s-14.68,6.59-14.68,14.68c0,5.15,2.76,9.91,7.08,12.54-3.8,1.99-6.28,5.96-6.28,10.38v7.8h-11.93v-7.8c0-4.42-2.48-8.39-6.28-10.38,4.32-2.63,7.08-7.39,7.08-12.54,0-8.1-6.59-14.68-14.68-14.68s-14.68,6.59-14.68,14.68c0,5.15,2.76,9.91,7.08,12.54-3.8,1.99-6.28,5.96-6.28,10.38v8.92c0,.62,.5,1.11,1.11,1.11H105.61c.62,0,1.11-.5,1.11-1.11v-8.92c0-4.42-2.48-8.39-6.28-10.38,4.32-2.63,7.08-7.39,7.08-12.54h0Zm-42.72,30.73h-23.31v-7.8c0-4.31,2.92-8.09,7.1-9.18,.47-.12,.8-.53,.83-1.02,.03-.48-.26-.93-.71-1.1-4.79-1.83-8.01-6.5-8.01-11.62,0-6.87,5.59-12.45,12.45-12.45s12.45,5.59,12.45,12.45c0,5.12-3.22,9.79-8.01,11.62-.45,.17-.74,.62-.71,1.1,.03,.48,.36,.89,.83,1.02,4.18,1.09,7.09,4.87,7.09,9.18v7.8Zm32.48-19.1c-.45,.17-.74,.62-.71,1.1,.03,.48,.36,.89,.83,1.02,4.18,1.09,7.1,4.87,7.1,9.18v7.8h-23.31v-7.8c0-4.31,2.92-8.09,7.09-9.18,.47-.12,.8-.53,.83-1.02,.03-.48-.26-.93-.71-1.1-4.79-1.83-8.01-6.5-8.01-11.62,0-6.87,5.59-12.45,12.45-12.45s12.45,5.59,12.45,12.45c0,5.12-3.22,9.79-8.01,11.62h0Z"/>
        <path class="cls-1" d="M96.23,88.27c-.82,.9-1.98,1.42-3.18,1.42s-2.37-.52-3.18-1.42c-.41-.46-1.12-.49-1.57-.08-.46,.41-.49,1.12-.08,1.57,1.24,1.37,3,2.15,4.84,2.15s3.6-.79,4.84-2.15c.41-.46,.38-1.16-.08-1.57-.46-.41-1.16-.38-1.57,.08h0Z"/>
        <path class="cls-1" d="M57.48,88.19c-.46-.41-1.16-.38-1.57,.08-.82,.9-1.98,1.42-3.18,1.42s-2.37-.52-3.18-1.42c-.41-.46-1.12-.49-1.57-.08-.46,.41-.49,1.12-.08,1.57,1.24,1.37,3,2.15,4.83,2.15s3.6-.79,4.84-2.15c.41-.46,.38-1.16-.08-1.57h0Z"/>
      </g>
    </g>
  </g>
</svg>