<?xml version="1.0" encoding="UTF-8"?>
<svg id="Layer_2" data-name="Layer 2" xmlns="http://www.w3.org/2000/svg" viewBox="0 0 177.85 185.75">
  <defs>
    <style>
      .cls-1 {
        fill: #fff;
      }

      .cls-2 {
        fill: #d8dffa;
      }

      .cls-3 {
        fill: #f88b79;
      }

      .cls-4 {
        fill: #224d8f;
      }

      .cls-5 {
        fill: #86d1cd;
      }

      .cls-6 {
        fill: #0f2c4f;
      }

      .cls-7 {
        fill: #fc619d;
      }

      .cls-8 {
        fill: #a4b9dd;
      }

      .cls-9 {
        opacity: .16;
      }

      .cls-10 {
        fill: #2c3a64;
      }

      .cls-11 {
        fill: #4877bc;
      }

      .cls-12 {
        fill: #54bded;
      }

      .cls-13 {
        fill: #92b9eb;
      }

      .cls-14 {
        fill: #302c6f;
      }

      .cls-15 {
        fill: #ed7d2b;
      }

      .cls-16 {
        fill: #f08c7a;
      }

      .cls-17 {
        fill: #2b478b;
      }

      .cls-18 {
        fill: #ffb29f;
      }

      .cls-19 {
        fill: #fb9e8c;
      }
    </style>
  </defs>
  <g id="Layer_1-2" data-name="Layer 1">
    <g>
      <g class="cls-9">
        <path class="cls-4" d="M161.62,149.49l-.36,.29-1.43-2.15-16.28-32.76c-.45-.9-.9-1.65-1.36-2.28-2.02-2.73-4.39-3.3-8.45-4.81l-.69-.26,.08-78.31c0-3.03-2.25-5.56-5.17-5.99l.04-8.05c0-1.2-.97-2.18-2.17-2.19h-1.7c-1.2-.01-2.18,.96-2.19,2.16l-.02,3.96c-.86,.03-1.55,.73-1.55,1.59v2.45s-22.15-.02-22.15-.02v-1.52c0-.97-.57-1.76-1.28-1.76h-21.85c-.71,0-1.28,.79-1.28,1.76v1.5l-30.68-.03c-3.33,0-6.07,2.72-6.07,6.06l-.09,92.79-7.59,5.89s-1.26,.98-1.26,.98c-.77,.59-1.47,1.12-2.1,1.61l2.11-1.63-2.44,1.86c-.81,.63-1.6,1.28-2.3,2.03-.7,.75-1.28,1.62-1.67,2.56-.4,.94-.66,1.95-.83,2.96l-1.98,12.12-4.04,24.21-.13,.43-4.63,10.84h25.35v-2.89l-1.26-.54c.09-.15,.17-.31,.26-.46,.64-1.07,1.36-2.06,2.13-3.07l6.82-9.08c.76-.99,1.54-2.08,2.1-3.25,.58-1.16,1.03-2.4,1.32-3.66,.09-.38,.16-.77,.23-1.16,.08,1.4,1.64,2.49,3.51,2.39,2.03-.11,3.61-1.43,3.58-2.98v-.11c.54,.42,1.31,.67,2.16,.62,1.43-.08,2.59-.87,2.92-1.89l67.72,.07c3.33,0,6.07-2.72,6.07-6.06v-1.66s8.54,6.2,8.54,6.2c1.54,1.12,2.97,2.39,4.26,3.78l-4.18,3.3c-4.46,3.52-5.21,9.99-1.69,14.45l4.79,6.02h33.13v-15.73l-16.23-20.54Z"/>
      </g>
      <g class="cls-9">
        <path class="cls-4" d="M25.69,130.62l.23-.18c-.13,.1-.25,.2-.38,.3,.05-.04,.1-.08,.15-.12Z"/>
      </g>
      <g>
        <rect class="cls-12" x="119.76" y="27.36" width="1.15" height="5.48" transform="translate(89.71 150.3) rotate(-89.75)"/>
        <path class="cls-14" d="M120.36,87.4v-1.87c0-.16-.12-.28-.27-.29-.16,0-.28,.13-.29,.28v1.87c0,.16,.12,.28,.27,.29,.16,0,.28-.13,.29-.28Z"/>
        <polygon class="cls-12" points="119.77 87.14 119.28 85.66 120.9 85.64 120.4 87.15 119.77 87.14"/>
        <polygon class="cls-12" points="117.27 79.51 122.96 79.53 120.9 85.64 119.28 85.66 117.27 79.51"/>
        <path class="cls-14" d="M117.64,30.6l5.47,.02c.16,0,.29,.13,.29,.29l-.21,48.43c0,.36-.3,.65-.66,.65l-4.75-.02c-.36,0-.65-.3-.65-.66l.21-48.43c0-.16,.13-.29,.29-.29Z"/>
        <path class="cls-14" d="M117.35,29.22l.12-27.05C117.48,.97,118.46,0,119.66,0h1.7c1.2,.01,2.18,1,2.17,2.2l-.12,27.05c0,.16-.13,.29-.29,.29l-5.47-.02c-.16,0-.29-.13-.29-.29Z"/>
      </g>
      <path class="cls-5" d="M119.68,14.15l.04-8.81c0-.45-.36-.82-.81-.82-.45,0-.82,.36-.82,.81l-.04,8.81c0,.45,.36,.82,.81,.82,.45,0,.82-.36,.82-.81Z"/>
      <path class="cls-3" d="M30.23,136.13c2.65,.55,5.27-1.17,5.82-3.83l2.64-12.78c.55-2.65-1.17-5.27-3.83-5.82-2.65-.55-5.27,1.17-5.82,3.83l-2.64,12.78c-.55,2.65,1.17,5.27,3.83,5.82Z"/>
      <path class="cls-18" d="M36.08,121.83c1.16-.9,2.73-1.04,4.03-.37l1.09,.5c-.56,.52-1,1.19-1.25,1.97l-2.4,7.53-3.26,2.93-1.35-10.12,3.14-2.44Z"/>
      <polygon class="cls-18" points="24.91 114.82 32.88 108.64 34.23 118.76 31.12 121.56 24.91 114.82"/>
      <path class="cls-19" d="M49.36,139.17l.18,7.83c.04,1.55-1.55,2.87-3.58,2.98-2,.11-3.64-1.14-3.51-2.67l1.04-12.3,5.87,4.15Z"/>
      <path class="cls-19" d="M54.57,138.4l.15,6.6c.03,1.31-1.3,2.42-3.02,2.51-1.68,.09-3.07-.96-2.96-2.25l.88-10.37,4.95,3.5Z"/>
      <rect class="cls-10" x="32.53" y="10.13" width="96.07" height="136.59" rx="6.06" ry="6.06"/>
      <polygon class="cls-6" points="118.12 138.13 40.57 136.19 38.05 20.09 118.12 20.09 118.12 138.13"/>
      <rect class="cls-1" x="40.32" y="18.15" width="80.07" height="118.04"/>
      <path class="cls-1" d="M10.61,161.59l-2.63,9,18.57,5,.09-.3c.69-2.25,1.65-4.41,2.85-6.43l-18.82-7.65-.06,.38Z"/>
      <path class="cls-18" d="M45.7,105.27c-1.64-.51-3.34-.05-4.51,1.04-.56,.52-1,1.19-1.25,1.97l-2.4,7.53-4.86,15.23c-.26,.8-1.38,.83-1.67,.03l-1.85-5.09c-.43-1.19-.1-2.52,.84-3.37l1.26-1.13-6.29-6.68-1.31,1.01c-4.22,3.27-6.41,4.41-7.25,9.67l-5.73,35.74,18.82,7.65c.53-.89,1.1-1.76,1.73-2.6l7.85-10.52c2.06-2.76,3.19-6.1,3.24-9.55l.15-11.6c.02-1.16,.19-2.32,.51-3.44l5.75-20.07c.7-2.43-.59-5.07-3-5.82Z"/>
      <g>
        <path class="cls-19" d="M14.57,137.34l1.91-12.13c.16-1.01,.41-2,.81-2.95,.39-.95,.96-1.81,1.65-2.56,.69-.76,1.48-1.41,2.28-2.04l2.43-1.88-2.44,1.86c-.81,.63-1.6,1.28-2.3,2.03-.7,.75-1.28,1.62-1.67,2.56-.4,.94-.66,1.95-.83,2.96l-1.98,12.12-3.97,23.81,.43,.18,3.68-23.96Z"/>
        <path class="cls-19" d="M49.14,108.93c-.21-1.32-.95-2.57-2.06-3.32-1.11-.76-2.54-1.01-3.83-.69-1.3,.31-2.44,1.17-3.1,2.32-.16,.29-.3,.59-.4,.91l-.28,.91-.56,1.81-1.12,3.61-4.51,14.46-.57,1.8c-.08,.31-.19,.59-.47,.73-.26,.14-.59,.12-.84-.03-.26-.16-.34-.47-.45-.76l-.33-.89-.65-1.78-.65-1.78c-.24-.58-.36-1.21-.25-1.83,.1-.62,.39-1.2,.83-1.65,.45-.43,.93-.85,1.4-1.28l.02-.02s-.08,.02-.12,.03c-.45,.41-.9,.8-1.35,1.22-.45,.45-.75,1.05-.86,1.68-.11,.63,0,1.29,.25,1.87l1.29,3.56,.32,.89c.06,.15,.1,.29,.17,.45,.07,.15,.18,.29,.33,.38,.29,.18,.66,.2,.97,.04,.32-.15,.46-.51,.54-.8l.58-1.8,4.7-14.4,1.76-5.4,.29-.9c.1-.28,.22-.56,.37-.82,.61-1.04,1.66-1.8,2.82-2.06,1.16-.27,2.43-.02,3.4,.66,.97,.68,1.61,1.79,1.78,2.96,.09,.58,.06,1.19-.09,1.76-.15,.58-.35,1.2-.52,1.8l-2.14,7.26-2.13,7.27-1.05,3.64c-.38,1.23-.59,2.54-.61,3.84l-.12,7.57-.06,3.79c-.01,1.24-.15,2.45-.44,3.64-.28,1.19-.71,2.35-1.26,3.44-.54,1.11-1.22,2.09-1.99,3.11l-4.51,6.08-2.26,3.04c-.75,1-1.51,2.06-2.16,3.16-.05,.08-.09,.17-.14,.26l.84,.34s.05-.09,.08-.13c.64-1.07,1.36-2.06,2.13-3.07l6.82-9.08c.76-.99,1.54-2.08,2.1-3.25,.58-1.16,1.03-2.4,1.32-3.66,.3-1.26,.44-2.57,.44-3.86l.04-3.79,.08-7.57c.01-1.22,.2-2.43,.55-3.61l1.03-3.64,2.04-7.29,2.03-7.29c.17-.61,.35-1.2,.5-1.84,.15-.65,.18-1.34,.07-2Z"/>
        <path class="cls-1" d="M26.27,175.05l-17.91-4.69,2.48-8.72v-.02s.05-.32,.05-.32l-.43-.18-.07,.4-2.69,8.97-.09,.29,.3,.08,18.54,5.13,.4,.11,.12-.4c.7-2.34,1.69-4.58,2.94-6.67l-.84-.34c-1.18,2.01-2.12,4.15-2.8,6.37Z"/>
      </g>
      <path class="cls-19" d="M40.59,110.37l.35-1.44c.06-.24,.11-.48,.18-.72,.08-.24,.22-.46,.4-.63,.36-.36,.89-.54,1.4-.49,.51,.08,.97,.22,1.46,.33l1.44,.35,.72,.17c.25,.06,.53,.17,.74,.34,.44,.33,.75,.88,.74,1.46,0,.14-.02,.29-.05,.42l-.1,.36-.2,.71-.21,.71c-.07,.24-.16,.5-.27,.73-.23,.47-.56,.89-.94,1.24-.77,.69-1.81,1.12-2.85,.99-1.03-.12-1.93-.8-2.41-1.67-.49-.86-.66-1.91-.4-2.87Zm0,0c-.25,.96-.07,2.01,.46,2.83,.52,.83,1.42,1.4,2.37,1.45,.95,.06,1.87-.4,2.53-1.05,.34-.33,.61-.72,.8-1.14,.19-.41,.29-.9,.44-1.37l.21-.71,.1-.35c.03-.1,.04-.2,.04-.31,.02-.42-.19-.84-.52-1.11-.17-.14-.36-.24-.58-.3l-.71-.22-1.42-.44c-.47-.14-.95-.31-1.41-.41-.46-.08-.97,.05-1.33,.38-.18,.16-.32,.36-.41,.59-.08,.23-.14,.47-.2,.71l-.37,1.43Z"/>
      <path class="cls-6" d="M61.06,16.05c.12,2.38,2.1,4.29,4.52,4.29h31.95c2.41,0,4.39-1.91,4.52-4.29H61.06Z"/>
      <path class="cls-13" d="M92.47,6.86h-21.85c-.71,0-1.28,.79-1.28,1.76v9.98c0,.97,.57,1.76,1.28,1.76h21.85c.71,0,1.28-.79,1.28-1.76V8.62c0-.97-.57-1.76-1.28-1.76Z"/>
      <rect class="cls-2" x="48.15" y="73.8" width="3.12" height=".98"/>
      <rect class="cls-2" x="75.85" y="79.2" width="13.73" height=".98"/>
      <polygon class="cls-2" points="48.15 69.98 48.15 70.96 61.93 70.96 60.82 69.98 48.15 69.98"/>
      <polygon class="cls-2" points="73.56 68.77 59.24 68.77 60.97 70.29 73.56 70.29 73.56 68.77"/>
      <rect class="cls-2" x="76.81" y="68.74" width="13.19" height="1.52"/>
      <polygon class="cls-2" points="48.15 71.89 48.15 72.87 64.1 72.87 62.99 71.89 48.15 71.89"/>
      <polygon class="cls-2" points="90 71.74 62.61 71.74 64.33 73.26 90 73.26 90 71.74"/>
      <polygon class="cls-2" points="56.51 73.8 56.51 74.78 66.26 74.78 65.16 73.8 56.51 73.8"/>
      <polygon class="cls-2" points="90 74.72 65.98 74.72 67.7 76.24 90 76.24 90 74.72"/>
      <rect class="cls-2" x="48.15" y="77.32" width="41.43" height=".98"/>
      <rect class="cls-2" x="48.15" y="79.24" width="25.71" height=".98"/>
      <rect class="cls-2" x="48.15" y="81.15" width="40.13" height=".98"/>
      <rect class="cls-2" x="48.15" y="83.47" width="6.08" height=".98"/>
      <rect class="cls-2" x="56.27" y="83.46" width="33.31" height=".98"/>
      <rect class="cls-2" x="104.06" y="27.22" width="9.94" height=".91"/>
      <rect class="cls-2" x="104.06" y="29" width="9.94" height=".91"/>
      <rect class="cls-2" x="104.06" y="30.77" width="9.94" height=".91"/>
      <rect class="cls-2" x="90.32" y="32.55" width="23.68" height=".91"/>
      <rect class="cls-2" x="95.38" y="35.82" width="18.62" height=".91"/>
      <polygon class="cls-2" points="95.38 38.5 96.2 38.5 95.38 37.92 95.38 38.5"/>
      <polygon class="cls-2" points="114 37.59 95.38 37.59 95.38 37.92 96.2 38.5 114 38.5 114 37.59"/>
      <polygon class="cls-2" points="98.71 40.28 98.4 40.05 98.46 40.28 98.71 40.28"/>
      <polygon class="cls-2" points="98.4 40.05 97.43 39.37 95.38 39.37 95.38 40.28 98.46 40.28 98.4 40.05"/>
      <polygon class="cls-2" points="97.43 39.37 98.4 40.05 98.22 39.37 97.43 39.37"/>
      <polygon class="cls-2" points="114 40.28 114 39.37 98.22 39.37 98.4 40.05 98.71 40.28 114 40.28"/>
      <rect class="cls-2" x="90.32" y="27.22" width="11.28" height=".91"/>
      <rect class="cls-2" x="90.32" y="29" width="11.28" height=".91"/>
      <rect class="cls-2" x="90.32" y="30.77" width="11.28" height=".91"/>
      <polygon class="cls-2" points="92.91 35.82 92.41 35.82 92.91 36.18 92.91 35.82"/>
      <polygon class="cls-2" points="104 41.52 98.78 41.52 99.02 42.43 104 42.43 104 41.52"/>
      <polygon class="cls-2" points="104 43.3 99.25 43.3 99.49 44.2 104 44.2 104 43.3"/>
      <polygon class="cls-2" points="104 45.07 99.72 45.07 99.96 45.98 104 45.98 104 45.07"/>
      <polygon class="cls-2" points="114 46.85 100.19 46.85 100.43 47.75 114 47.75 114 46.85"/>
      <polygon class="cls-2" points="114 48.62 100.65 48.62 100.89 49.53 114 49.53 114 48.62"/>
      <polygon class="cls-2" points="114 50.4 101.12 50.4 101.36 51.31 114 51.31 114 50.4"/>
      <polygon class="cls-2" points="114 52.17 101.59 52.17 101.83 53.08 114 53.08 114 52.17"/>
      <polygon class="cls-2" points="102.94 54.97 102.94 54.07 102.09 54.07 102.33 54.97 102.94 54.97"/>
      <polygon class="cls-2" points="102.56 55.84 102.4 55.84 102.24 56.75 102.79 56.75 102.56 55.84"/>
      <polygon class="cls-2" points="102.94 56.75 102.94 55.84 102.56 55.84 102.79 56.75 102.94 56.75"/>
      <polygon class="cls-2" points="102.94 57.62 102.08 57.62 101.92 58.52 102.94 58.52 102.94 57.62"/>
      <polygon class="cls-2" points="102.94 59.39 101.76 59.39 101.6 60.3 102.94 60.3 102.94 59.39"/>
      <polygon class="cls-2" points="102.94 62.94 101.12 62.94 100.96 63.85 102.94 63.85 102.94 62.94"/>
      <g>
        <polygon class="cls-2" points="93.74 33.86 90.32 33.86 90.32 35.35 94.58 35.35 94.58 34.45 93.74 33.86"/>
        <rect class="cls-2" x="90.32" y="35.79" width="4.26" height="1.49"/>
        <rect class="cls-2" x="90.32" y="39.14" width="6.86" height="1.49"/>
        <rect class="cls-2" x="90.32" y="43.21" width="11.47" height="1.49"/>
        <rect class="cls-2" x="90.32" y="46.13" width="11.47" height="1.49"/>
        <rect class="cls-2" x="90.32" y="49.04" width="11.47" height="1.49"/>
        <rect class="cls-2" x="98.42" y="51.95" width="3.36" height="1.49"/>
        <rect class="cls-2" x="90.32" y="54.86" width="11.47" height="1.49"/>
        <rect class="cls-2" x="90.32" y="60.68" width="4.97" height="1.49"/>
        <rect class="cls-2" x="90.32" y="63.79" width="11.47" height="1.49"/>
      </g>
      <polygon class="cls-2" points="114 64.72 100.81 64.72 100.64 65.63 114 65.63 114 64.72"/>
      <g>
        <circle class="cls-6" cx="72.9" cy="11.8" r="1.55"/>
        <circle class="cls-6" cx="90.2" cy="11.8" r="1.55"/>
      </g>
      <path class="cls-17" d="M38.75,185.75c1.13-4.63-1.21-9.53-5.73-11.47l-23.77-10.16L0,185.75H38.75Z"/>
      <circle class="cls-10" cx="31.4" cy="181.87" r="2.32"/>
      <path class="cls-5" d="M115.79,33.83c-.27,0-.49-.22-.48-.49l.11-25.63c0-1.15,.94-2.08,2.09-2.08,0,0,1.14,0,1.14,0,.27,0,.48,.22,.48,.49,0,.27-.22,.48-.48,.48,0,0-1.14,0-1.14,0-.62,0-1.12,.5-1.13,1.12l-.11,25.63c0,.27-.22,.48-.48,.48Z"/>
      <path class="cls-7" d="M78.71,31.28l-.97,.97,1.79-.07c-.26-.3-.54-.6-.82-.89Z"/>
      <path class="cls-15" d="M83,29.65l-2.07,.08-7.97,7.97c.12,.1,.24,.2,.35,.31,3.27,3.27,3.29,8.55,.08,11.85l8.69,8.65c7.85-7.95,8.16-20.55,.93-28.87Z"/>
      <path class="cls-11" d="M73.38,49.87s-.05,.06-.08,.09c-3.3,3.3-8.64,3.3-11.93,0-.11-.11-.21-.23-.31-.35l-5.51,5.51-.68,5.99c8.29,5.72,19.73,4.9,27.1-2.48,.03-.03,.07-.07,.1-.1l-8.69-8.65Z"/>
      <path class="cls-8" d="M78.23,30.83c-3.33-3.33-7.7-4.99-12.06-4.99l.11,8.72,4.2-2.49-1.78,.07,1.78-.07,1.26-.75-1.26,.75,6.91-.28,.9-.9s-.04-.04-.06-.06Z"/>
      <path class="cls-8" d="M67.05,33.19l.03,2.37c2.1-.06,4.21,.65,5.88,2.15l7.97-7.97-8.63,.35-5.25,3.11Z"/>
      <path class="cls-11" d="M66.16,25.84c-4.34,0-8.69,1.66-12.01,4.96l6.88,6.85h.02s.48-.94,.48-.94l-.48,.93,5.21-3.09-.11-8.72Z"/>
      <path class="cls-11" d="M60.12,38.57s.02-.01,.02-.01h-.02Z"/>
      <path class="cls-11" d="M65.79,37.28l-.03-2.05-5.62,3.33v.03s.77,.78,.77,.78c1.36-1.33,3.11-2.02,4.88-2.08Z"/>
      <path class="cls-11" d="M61.43,37.97l-.9-.9-3.74,7.18-1.23,10.86,5.51-5.51c-2.97-3.31-2.87-8.4,.31-11.59,.02-.02,.04-.03,.06-.05Z"/>
      <path class="cls-11" d="M57.21,45.03l.84-1.61,.1-.85-.1,.85,3-5.75s-.79,.45-.79,.45l.78-.46-6.88-6.85s-.02,.02-.03,.03c-6.65,6.65-6.65,17.44,0,24.1,.02,.02,.04,.04,.06,.06l2.87-2.87,.99-8.7-.84,1.61Z"/>
      <g>
        <rect class="cls-11" x="52.62" y="116.22" width="5.39" height="11.79"/>
        <rect class="cls-15" x="60.69" y="111.85" width="5.39" height="16.16"/>
        <rect class="cls-8" x="68.75" y="119.27" width="5.39" height="8.74"/>
        <rect class="cls-11" x="76.81" y="97.3" width="5.39" height="30.72"/>
        <rect class="cls-15" x="84.88" y="109.29" width="5.39" height="18.72"/>
        <rect class="cls-8" x="92.94" y="98.73" width="5.39" height="29.28"/>
        <rect class="cls-11" x="101" y="89.97" width="5.39" height="38.04"/>
      </g>
      <g class="cls-9">
        <path class="cls-4" d="M127.67,107.91c-.87-.33-1.84-.67-2.93-1.08l-1.55-.58-9.45-3.53-3.73-1.39c-1.07-.4-2.25-.28-3.21,.29l-4.82-7.09c-1.81-2.67-5.19-3.67-8.1-2.63l-2.87-4.56c10.31-8.26,13.03-23.11,5.86-34.48-7.68-12.19-23.8-15.77-36.01-7.99-12.21,7.78-15.88,23.97-8.19,36.16,7.3,11.58,22.21,15.38,34.15,9.06l3.24,5.15c-1.14,2.2-1.07,4.95,.41,7.13l5.84,8.59-3.52,4.16c-.72,1.16-.47,2.68,.6,3.53,.1,.08,.2,.16,.31,.23,1.45,.98,3.35,.96,4.87,.1l-.32,10.35c-.03,1.07,.68,2.02,1.72,2.28,1.35,.54,2.9,.2,3.91-.84l.08-.09c.41-.42,.77-.87,1.11-1.34l-.02,.07,3.76,6.7c.6,1.06,1.77,1.72,2.98,1.57,.87-.11,1.51-.56,1.9-1.16l.81,1.19c.15,.22,.31,.41,.48,.6l1.01,3.09c.54,1.64,1.33,3.18,2.33,4.56,.17,.24,.36,.46,.54,.69h1.58c3.99,0,7.23-3.24,7.23-7.23v-31.5Zm-42.09-22.08c-2.49,1.51-5.16,2.45-7.86,2.88-8.55,1.38-17.43-2.41-22.14-10.29-6.19-10.36-2.81-23.85,7.57-30.13,1.97-1.19,4.04-2.03,6.16-2.55,9.05-2.21,18.82,1.55,23.84,9.95,6.19,10.36,2.81,23.85-7.57,30.12Z"/>
      </g>
      <g>
        <path class="cls-3" d="M129.05,116.2c-2.37,1.31-5.38,.45-6.7-1.92l-6.33-11.42c-1.31-2.37-.45-5.38,1.92-6.7,2.37-1.31,5.38-.45,6.7,1.92l6.33,11.42c1.31,2.37,.45,5.38-1.92,6.7Z"/>
        <path class="cls-18" d="M114.54,89.31c-1.37-.51-2.91-.18-3.96,.85l-.89,.81c.69,.33,1.31,.84,1.78,1.51l4.53,6.47,3.98,1.83-1.73-10.07-3.73-1.39Z"/>
        <path class="cls-16" d="M109.58,117.39l3.83,6.83c.76,1.36,2.46,1.87,3.84,1.15,1.36-.7,1.8-2.43,.95-3.7l-6.88-10.2-1.74,5.91Z"/>
        <g>
          <polygon class="cls-10" points="96.58 86.37 100.8 83.68 94.78 74.12 90.55 76.81 96.58 86.37"/>
          <path class="cls-10" d="M93.2,76.99c12.21-7.78,15.88-23.97,8.19-36.16-7.68-12.19-23.8-15.77-36.01-7.99-12.21,7.78-15.88,23.97-8.19,36.16,7.68,12.19,23.8,15.77,36.01,7.99Zm-33.09-10.59c-6.19-10.36-2.81-23.85,7.57-30.13,1.97-1.19,4.04-2.03,6.16-2.55,9.05-2.21,18.82,1.55,23.84,9.95,6.19,10.36,2.81,23.85-7.57,30.12-2.49,1.51-5.16,2.45-7.86,2.88-8.55,1.38-17.43-2.41-22.14-10.29Z"/>
        </g>
        <path class="cls-19" d="M103.14,105.44l-.36,11.87c-.03,1.07,.68,2.02,1.72,2.28,1.35,.54,2.9,.2,3.91-.84l.08-.09c1.71-1.77,2.81-4.05,3.12-6.5,0,0-5.67-8.34-5.67-8.34l-2.8,1.62Z"/>
        <path class="cls-18" d="M100.97,98.78l-3.65,4.31c-.72,1.16-.47,2.68,.6,3.53,.1,.08,.2,.16,.31,.23,1.49,1.01,3.47,.96,5.01,.03l2.36-1.43-4.63-6.68Z"/>
        <path class="cls-17" d="M129.1,125.4l-2.53,1.72c-2.47,1.68-5.87,1.03-7.54-1.44l-24.03-35.35c-2.15-3.17-1.32-7.52,1.84-9.67,3.17-2.15,7.52-1.32,9.67,1.84l24.03,35.35c1.68,2.47,1.03,5.87-1.44,7.54Z"/>
        <path class="cls-18" d="M155.36,134.66l-16.28-32.76c-2.37-4.78-4.8-5.21-9.8-7.08l-1.55-.58-4.02,8.25,1.54,.71c1.15,.53,1.86,1.7,1.8,2.97l-.26,5.41c-.04,.84-1.12,1.16-1.61,.47l-9.17-13.09-4.53-6.47c-.47-.67-1.09-1.18-1.78-1.51-1.44-.69-3.2-.62-4.62,.35-2.08,1.43-2.52,4.34-1.14,6.45l11.46,17.45c.64,.97,1.15,2.03,1.51,3.14l3.6,11.03c1.07,3.28,3.15,6.13,5.93,8.15l10.62,7.7c.82,.59,1.6,1.23,2.35,1.9l16-12.39-.06-.09Z"/>
        <path class="cls-1" d="M155.43,134.75l-16,12.39c1.78,1.59,3.36,3.39,4.71,5.36l.18,.26,16.24-10.3-5.13-7.72Z"/>
        <g>
          <path class="cls-19" d="M123.73,102.49v-.03s0,0-.01-.01v.04Z"/>
          <path class="cls-19" d="M144.66,152.51c-.08-.11-.16-.22-.24-.34l-.35,.22,.59,.12Z"/>
          <polygon class="cls-19" points="160.38 142.2 160.13 142.36 160.3 142.62 160.38 142.2"/>
          <path class="cls-19" d="M139.64,146.72c-.95-.86-1.98-1.64-3-2.37l-3.06-2.23-6.12-4.46c-1.04-.74-1.98-1.47-2.83-2.37-.85-.88-1.6-1.86-2.22-2.91-.63-1.05-1.13-2.17-1.5-3.35l-1.18-3.6-2.37-7.19c-.4-1.24-1-2.43-1.72-3.49l-2.09-3.16-4.19-6.3-4.2-6.3c-.34-.52-.72-1.06-1.03-1.57-.31-.5-.51-1.07-.6-1.65-.19-1.17,.09-2.42,.82-3.35,.72-.94,1.86-1.55,3.05-1.64,1.19-.1,2.42,.31,3.31,1.13,.22,.2,.42,.43,.6,.67l.55,.77,1.1,1.54,2.19,3.09,8.77,12.35,1.09,1.55c.16,.25,.4,.56,.75,.6,.33,.06,.69-.07,.91-.33,.11-.13,.17-.29,.2-.46,.02-.17,.02-.32,.03-.48l.04-.95,.08-1.89,.08-1.89c.06-.63-.03-1.29-.32-1.86-.29-.57-.75-1.05-1.32-1.35-.56-.27-1.13-.52-1.69-.78v.03s-.03-.04-.03-.04c0,0,.02,0,.03,.01l3.98-8.23,1.55,.57-1.55-.58s-4.05,8.24-4.05,8.24v.03s.01,.01,.01,.01c.57,.27,1.15,.53,1.71,.8,.55,.3,1,.77,1.28,1.32,.29,.56,.36,1.19,.3,1.82l-.09,1.89-.09,1.89-.05,.95c-.02,.32,0,.64-.2,.86-.19,.22-.5,.33-.79,.28-.31-.05-.49-.28-.67-.55l-1.08-1.55-8.61-12.46-2.15-3.12-1.07-1.56-.54-.78c-.19-.27-.41-.52-.65-.75-.97-.91-2.32-1.39-3.65-1.3-1.33,.09-2.62,.75-3.45,1.8-.84,1.06-1.17,2.46-.98,3.79,.09,.66,.32,1.31,.66,1.89,.34,.56,.68,1.07,1.03,1.61l4.11,6.36,4.12,6.35,2.07,3.17c.69,1.03,1.23,2.12,1.6,3.28l2.33,7.2,1.16,3.6c.39,1.23,.91,2.44,1.57,3.55,.66,1.12,1.45,2.17,2.35,3.1,.88,.94,1.96,1.76,2.97,2.47l6.14,4.43,3.07,2.21c1.03,.73,2.01,1.47,2.95,2.3,0,0,.02,.02,.03,.03l.72-.56c-.05-.05-.1-.1-.15-.14Z"/>
          <path class="cls-1" d="M160.79,142.29l-5.18-7.67-.37,.28,4.89,7.46,.26-.16-.09,.42-.17-.26-15.71,9.81c.08,.11,.16,.22,.24,.34l-.59-.12,.35-.22c-1.33-1.93-2.88-3.73-4.63-5.31l-.72,.56c1.85,1.64,3.49,3.51,4.88,5.57l.23,.35,.35-.23,16.17-10.41,.26-.17-.17-.25Z"/>
          <path class="cls-19" d="M134.94,97.15c.88,.51,1.69,1.17,2.34,1.95,.66,.78,1.19,1.66,1.65,2.57l5.44,11.01,10.78,22.06s.1,.15,.1,.15l.37-.28-.06-.09h0s-.01-.01-.01-.01c0,.01-11.06-21.9-11.06-21.9l-5.5-10.98c-.46-.91-1.01-1.79-1.67-2.57-.66-.79-1.47-1.44-2.36-1.95-.89-.51-1.84-.9-2.8-1.26l-2.88-1.05,2.88,1.07c.95,.37,1.9,.76,2.79,1.27Z"/>
          <path class="cls-19" d="M155.56,134.54h0s0,0,0,0Z"/>
        </g>
        <path class="cls-19" d="M111.5,94.69l-.78-1.26c-.13-.21-.26-.42-.4-.62-.15-.19-.35-.35-.57-.45-.44-.21-.97-.18-1.39,.03-.41,.23-.82,.55-1.22,.81l-1.22,.84-.61,.42c-.19,.13-.34,.28-.46,.46-.24,.36-.31,.82-.17,1.21,.03,.1,.08,.19,.13,.28l.2,.3,.41,.62c.28,.41,.52,.85,.83,1.18,.31,.34,.68,.63,1.1,.85,.82,.43,1.83,.59,2.72,.25,.89-.33,1.59-1.14,1.83-2.09,.26-.94,.12-2-.41-2.84Zm0,0c.53,.84,.69,1.89,.47,2.86-.2,.97-.85,1.89-1.8,2.31-.95,.43-2.08,.34-3.01-.1-.47-.22-.91-.52-1.27-.91-.18-.19-.34-.41-.48-.62l-.41-.61-.41-.62-.2-.32c-.07-.12-.14-.25-.18-.39-.18-.55-.05-1.16,.27-1.61,.16-.23,.38-.41,.61-.54l.64-.38,1.27-.76c.43-.25,.83-.52,1.29-.75,.48-.2,1.03-.18,1.48,.05,.22,.11,.42,.28,.57,.48,.14,.21,.25,.43,.38,.63l.77,1.27Z"/>
        <polygon class="cls-18" points="127.72 94.23 118.27 90.7 120 100.77 123.8 102.51 127.72 94.23"/>
      </g>
      <path class="cls-17" d="M150.59,185.75h27.26v-22.28l-20.69-26.95-20,15.8c-4.46,3.52-5.21,9.99-1.69,14.45l15.12,18.98Z"/>
      <circle class="cls-10" cx="141.45" cy="160.92" r="3.15" transform="translate(-46.86 263.09) rotate(-77.17)"/>
    </g>
  </g>
</svg>