<svg id="Layer_1" data-name="Layer 1" xmlns="http://www.w3.org/2000/svg" viewBox="0 0 393.45 321.18"><defs><style>.cls-1{fill:#f2f2f2;opacity:0.1;}.cls-2{fill:#edd6cc;}.cls-3{fill:#ffa412;}.cls-4{fill:#2d231e;}.cls-5{fill:#333232;}.cls-6{fill:#e9c49e;}.cls-7{fill:#b35860;}.cls-8{fill:#3a2f24;}.cls-9{fill:#735f4f;}.cls-10{fill:#54443d;}.cls-11{fill:#249ede;}.cls-12{fill:#8bb72f;}.cls-13{fill:#9ac12a;}.cls-14,.cls-18{fill:#fff;}.cls-14{opacity:0.07;}.cls-15{fill:#bed78f;}.cls-16{opacity:0.08;}.cls-17{fill:#86d1cd;}.cls-18{opacity:0.47;}.cls-19{fill:#8a5b26;}.cls-20{fill:#f4aea6;}.cls-21{fill:#e4dfdf;}.cls-22{fill:#f0ebeb;}.cls-23{fill:#ff8f00;}.cls-24{fill:#666464;}.cls-25{fill:#e8a070;}.cls-26{fill:none;}.cls-27{fill:#459485;}.cls-28{fill:#6cac8d;}.cls-29{fill:#c0e0e9;}.cls-30{fill:#1a1a1a;}.cls-31{fill:#e9c48f;}.cls-32{fill:#2c3a64;}.cls-33{fill:#73615d;}.cls-34{fill:#579f90;}.cls-35{fill:#628076;}</style></defs><path class="cls-1" d="M194.18,0l6,5a14.88,14.88,0,0,0-3,.6Z"/><path class="cls-2" d="M258.91,192.8c-1.2-.9-2.35-1.86-3.47-2.65a48.56,48.56,0,0,1-7.83-6.63c-1.12-1.23-2.23-2.92-1.68-4.41a2.69,2.69,0,0,1,3-1.48,10,10,0,0,1,3.48,1.54c3,1.81,6.22,3.4,9.24,5.25,2.54,1.56,5.78,3.22,6.74,6.36a4,4,0,0,1-.5,3.55,4.09,4.09,0,0,1-4.6,1A17,17,0,0,1,258.91,192.8Z"/><path class="cls-2" d="M257.83,159.3l.2-.21a1,1,0,0,0,.23-1.09c-.65-1.07-2.4,1-2-.9.1-.52,2.15-3,2-3.29a2.65,2.65,0,0,0-4.18-.48,7.92,7.92,0,0,0-1.36,3.4c-.3,1.38-.33,2.84-.66,4.2a15,15,0,0,1-1.45,3.16c-2.37,4.64-5.31,9.81-5,15,.09,1.61.44,2.26,1.81,2.66a4.14,4.14,0,0,0,4.07-.57c1.1-1,1.41-2.54,1.66-4,.37-2.16.92-4.39,1.16-6.54s-.1-4.06.49-6.1a15.09,15.09,0,0,1,2.42-4.7A7.68,7.68,0,0,1,257.83,159.3Z"/><path class="cls-3" d="M268.34,202a14.1,14.1,0,0,1-12.19-3.33c1-3.15,3.26-5,5-7.69.55-.87,1.06-1.78,1.56-2.68.84-1.49,2.47-6,4.65-4.3,1.1.85,1.62,2.06,2.56,3,1.26,1.23,3,1.86,4.26,3.18a6.79,6.79,0,0,1,2,5.41c-.32,2.26-2.15,4-4.16,5.12A13,13,0,0,1,268.34,202Z"/><path class="cls-4" d="M295.39,168.92a26.54,26.54,0,0,1,.05,2.82,13.48,13.48,0,0,0-.2,3.1,11,11,0,0,0,.76,1.89,6.46,6.46,0,0,1-.76,6.21c-.45.6-1,1.12-1.39,1.76a10.21,10.21,0,0,0-1,3.52,26.08,26.08,0,0,1-1.24,3.38,10.6,10.6,0,0,0-.06,5.25,2.8,2.8,0,0,1,.05,1.22,1.26,1.26,0,0,1-1.32.79c-6.8.21-13.53-.75-20.24-1.71.53.08.56-4.84.53-5.23a26.87,26.87,0,0,0-1.13-5.82,8.81,8.81,0,0,1-.61-3c.08-1.45,1-2.88.55-4.26s-1.47-2.19-1.52-3.55c0-1.52,1.1-3,2-4.17a15.5,15.5,0,0,0,2-2.94,25.18,25.18,0,0,1,1-2.68,13.87,13.87,0,0,1,4.52-4.4,8.07,8.07,0,0,1,2.13-1,8.17,8.17,0,0,1,2.79-.19,56.63,56.63,0,0,1,6.23,1.05,8.73,8.73,0,0,1,5.41,3.69A8.86,8.86,0,0,1,295.39,168.92Z"/><path class="cls-2" d="M269.92,173a2.13,2.13,0,0,1,2.12-.87,2,2,0,0,1,1,.52,18.75,18.75,0,0,1,1.32-3.84,7.66,7.66,0,0,1,1.51-2.29,6.65,6.65,0,0,1,2-1.26,11.48,11.48,0,0,1,8-.36,8.78,8.78,0,0,1,6.37,6.59,13.48,13.48,0,0,1,.33,3.5v.15a2.2,2.2,0,0,1,.79-.1,2.15,2.15,0,0,1,1.81,1.4,2.87,2.87,0,0,1-.23,2.34,4.36,4.36,0,0,1-1.71,1.67,2.7,2.7,0,0,1-1.39.43c-.72,2.84-2.09,5.5-4.59,6.9-1.72,1-1.77,1.42-2,3.48a3.38,3.38,0,0,1-1.42,2.72,3.32,3.32,0,0,1-1.65.29,16,16,0,0,1-2.29-.19,2.77,2.77,0,0,1-1.61-.66,3.06,3.06,0,0,1-.42-2.61c.38-2.47.32-2.17-1.37-3.64a9.42,9.42,0,0,1-2.45-3.49,17.16,17.16,0,0,1-1.37-5.51,1.18,1.18,0,0,1-.37.05,2.45,2.45,0,0,1-1.55-.84,4.48,4.48,0,0,1-1.2-2.07A2.85,2.85,0,0,1,269.92,173Z"/><path class="cls-4" d="M277.52,169a6,6,0,0,1-.78,1.51c-.88,1.11-2.13,1.91-2.87,3.11a8.39,8.39,0,0,0-.71,5.34,44.62,44.62,0,0,0,.79,4.74,3.29,3.29,0,0,1,.17,1.75c-.16.5-.63.81-.83,1.28-.7,1.66,1.21,3.83,2.65,4.5a11.89,11.89,0,0,1-6.27,3.46c-1,.2-2-3.68-2.15-4.28a8.17,8.17,0,0,1,.44-5.91c.55-1.12,1.36-2.11,2-3.21a10.32,10.32,0,0,0,1.28-5.36,20.15,20.15,0,0,1-.12-3.38,9.93,9.93,0,0,1,.66-2.26,19.48,19.48,0,0,1,3.4-6.13c1.49-1.64,4-3.19,6.23-2.56a6.11,6.11,0,0,1,3.25,2.12c.51.67,2,2.58.24,2.83a17.56,17.56,0,0,1-2.81,0,7,7,0,0,0-2.77.36A3,3,0,0,0,277.52,169Z"/><path class="cls-4" d="M287.65,168.07c1.28.48,3.42,1.23,3.42,2.81s-1,3-.71,4.75a9.57,9.57,0,0,0,1.09,2.42,4.85,4.85,0,0,1,.33,4.25c-.67,1.36-2.22,2.14-2.78,3.55s.16,3.24-.17,4.83c-.27,1.36-.21,2.17,1.18,2.84a5.8,5.8,0,0,1,2,1.29c.14.17,1,2.16.51,2.2,1.5-.12,3.25-.39,3.95-1.72a2.94,2.94,0,0,0,.06-2.36,7.06,7.06,0,0,0-1.32-2.05,4.24,4.24,0,0,1-.79-1.14,3.25,3.25,0,0,1,.45-2.69,11,11,0,0,0,1.27-2.49c.68-2.76-1.86-4.51-2.62-6.87-1.13-3.48,2.22-7.18,1.31-10.73a8.38,8.38,0,0,0-1.67-3,7.85,7.85,0,0,0-4.09-3.14c-2.19-.52-4.2,1.16-5.39,2.79a11.91,11.91,0,0,0-.85,1.36c-.45.82-.58.8.14,1.3,1.19.84,3.19,1.2,4.56,1.71Z"/><polygon class="cls-2" points="283.89 265.68 284.57 277.32 291.24 304.82 296.25 303.58 293.36 276.32 296.39 264.3 283.89 265.68"/><path class="cls-5" d="M290.67,304.19a3.23,3.23,0,0,1,.06,2.42c-.41.73-1.33,1-1.58,1.89a2.24,2.24,0,0,0,.06,1.15,1.74,1.74,0,0,0,.38.77,2,2,0,0,0,1.35.4,8.75,8.75,0,0,0,2.23-.1,6.94,6.94,0,0,0,3.17-2c.76-.74,1.57-1.35,1.42-2.57a4.39,4.39,0,0,0-.35-1,10.34,10.34,0,0,1-.71-2.78l-6.31,1C290.47,303.59,290.58,303.88,290.67,304.19Z"/><polygon class="cls-2" points="271.72 266.72 271.76 278.38 276.9 306.21 281.98 305.25 280.59 277.87 284.28 266.03 271.72 266.72"/><path class="cls-5" d="M276.38,305.55a3.23,3.23,0,0,1-.08,2.42c-.45.7-1.38.92-1.68,1.8a2.24,2.24,0,0,0,0,1.15,1.65,1.65,0,0,0,.34.79,1.91,1.91,0,0,0,1.32.47,8.33,8.33,0,0,0,2.23,0,6.88,6.88,0,0,0,3.28-1.81c.8-.7,1.64-1.26,1.55-2.48a3.86,3.86,0,0,0-.28-1.06,10.47,10.47,0,0,1-.57-2.82l-6.35.65C276.21,304.94,276.3,305.23,276.38,305.55Z"/><path class="cls-3" d="M289,192.37c5.37,26.06,13.77,48.41,24.51,66.66-2.54.24-4.26,3-6.16,4.89a16.59,16.59,0,0,1-6.38,3.83c-9.92,3.45-20.34-.41-30.45,1.17-2.49.39-4.94,1.11-7.44,1.06-5-.08-9.82-1.86-14.44-3.56-.3-.11-4.34-1.39-4.22-1.71l10.35-26.43c1.87-4.78,3.74-9.56,5.2-14.47a143.2,143.2,0,0,0,3.72-17c.84-5,1-10.07,4.4-14.23a8.42,8.42,0,0,1,5.19-3.06c2.05-.28,4.48.53,6.52.81C280.77,190.49,288.8,191.07,289,192.37Z"/><path class="cls-6" d="M211.14,189.74l2.21-2.74.12-2.05,1.84-2.29s1.46.89,1.31,1.07a1.83,1.83,0,0,0-.33,1.54,4.1,4.1,0,0,0,2.24-1.9c.23-.47.38-1.07.87-1.25s1.08.27,1.44.72a3.74,3.74,0,0,1,.93,1.74,3.42,3.42,0,0,1-.84,2.49c-1.25,1.7-2.89,2.37-4.72,3.25l-2.7,2.37Z"/><path class="cls-7" d="M198.25,196.8c5-1.51,9.65-7.16,13.27-10a11,11,0,0,1,3.38,3c1.15,1.59,1,1.73,0,3.2a58.62,58.62,0,0,1-6.38,6.8c-5.57,5.33-9.54,10.5-18.21,9.88a37.51,37.51,0,0,1-6.93-1.4l-9-2.41a9.41,9.41,0,0,1-2.21-.8c-5.32-3.07.74-11.35,2.9-14.53s2.36-4.83,6.44-2.71c3.11,1.61,5.62,4.16,8.22,6.45a17,17,0,0,0,2.34,1.81A7.35,7.35,0,0,0,198.25,196.8Z"/><path class="cls-8" d="M150.86,297.92c.43,1.7.75,3.41,1.06,5.13l3.86,2.38c.75-.25,1.91-.43,2.58-.69,1.15-.46,1.72-1.28,1.1-2.46a10.53,10.53,0,0,0-.77-1c-.46-.64-1.53-1.93-2.26-2.81s-1.82-2.11-2.62-3C152.82,296.22,151.85,297.09,150.86,297.92Z"/><path class="cls-8" d="M165.35,297.82c.36,1.74.73,3.48,1.09,5.22,1.29.79,2.57,1.59,3.88,2.37.79-.51,2-1.14,2.68-1.63,1.05-.73,1.18-1.67.35-2.5h0c-.78-1-1.61-1.92-2.44-2.91s-1.69-2-2.51-3C167.38,296.18,166.36,297,165.35,297.82Z"/><path class="cls-9" d="M173.69,227.37c-11.71-2.5-23.57-4.07-35.35-6.49-.51,6.26-1,3-1.34,11.4a173.58,173.58,0,0,0,2.64,34.32,175.7,175.7,0,0,0,10.06,32.3c2.16-.43,4.3-.88,6.49-1.5-2-9.52-3.52-21.08-2.81-30.39s1.47-15.79,3.8-24.34c4.76-1.82,9.57-3.67,14.5-5.18C172.28,234.1,172.93,230.7,173.69,227.37Z"/><path class="cls-9" d="M171.74,237.45c-1.93,9.79-1.7,18.05-2,28.22a182.54,182.54,0,0,0,1.9,31.87c-2.25.67-4.32,1.28-6.42,1.78a265.1,265.1,0,0,1-8.79-33.87c-2.05-10.7-3.49-19.45-3.17-30C159.39,236.23,165.48,236.73,171.74,237.45Z"/><path class="cls-6" d="M187.15,164.75a7.08,7.08,0,0,1,2-1.85,2.45,2.45,0,0,1,2.07-.44,1.34,1.34,0,0,1,.75,1.27,5.18,5.18,0,0,1-.27,1.42c1.76.38,3.6-.57,5.33-.48a8.86,8.86,0,0,1,3.14,1,5.57,5.57,0,0,1,1.88,1.11,10.65,10.65,0,0,1,3.18,7.68c-.36,5.05-4.82,9.64-9.62,11a15.18,15.18,0,0,1-2.12.38l-2.9.39A6.46,6.46,0,0,1,187,186c-2.92-1.41-3.81-5.36-7.69-3.89a4.16,4.16,0,0,1-1.34.45,3.24,3.24,0,0,1-2.22-1c-.73-.68-1.64-1.34-1.45-2.43s1.32-1.64,2-2.49,1.25-2,2-3a38.81,38.81,0,0,1,3.83-4c1.2-1.07,2.95-1.82,4-2.87a1.94,1.94,0,0,0,.35-.74A5.34,5.34,0,0,1,187.15,164.75Z"/><path class="cls-10" d="M198,159.34a16.1,16.1,0,0,1,4.83,2.37,8.62,8.62,0,0,1,3,3.13c1.33,2.75.92,8.66,4.66,9.49a2.06,2.06,0,0,1,1.63,2.8c-.13.4-.47.59-.6,1s-.26.75.1,1.09.91,0,1.37.38a1.08,1.08,0,0,1-.14,1.58c-.28.21-.69.24-.92.41s-.22.36-.4.53c-.41.38-.71.67-1.3.61a7,7,0,0,0-.69-.16,3.16,3.16,0,0,0-1.26.49,4.22,4.22,0,0,1-2.91,0,7.53,7.53,0,0,1-2.55,1.69c-1.7.51-3.51.16-5.26,0a7.1,7.1,0,0,1,1.25-1.13,7.87,7.87,0,0,0,2.14-2.87c.24-.56.4-1.14.67-1.69l-.12-.16a3.88,3.88,0,0,1-.62-1.11,5.3,5.3,0,0,1-.06-1.6,14.35,14.35,0,0,0-1.47-7.31c-1.37-2.49-3.37-3-6.1-3-.64,0-1.85.47-2.44.09-.9-.59.26-1.36,0-2-.65-1.73-2.33-.09-3,.72-.64.64-.81,1.59-1.37,2.25a15.18,15.18,0,0,1-3,2.15,4.79,4.79,0,0,1-3.19,1.2c-.09,0-.2-.06-.22-.15a.18.18,0,0,1,0-.12c2-5,4.71-7.7,9.45-10.12,1.85-.95,3.94-1.92,5.94-1.35C196.32,158.82,197.19,159.06,198,159.34Z"/><path class="cls-7" d="M175.2,226.15c.44-3,.85-6,1.59-8.88s1.75-5.92,2.72-8.77c1.47-4.3,3-8.87,4.46-13,1.36-3.75,1.85-5.6-.63-8.89-.78-1-3.06-1.88-3.25-3.33-.08-.68.64-1,.14-1.76a8.16,8.16,0,0,0-.7-.74,8.11,8.11,0,0,1-1.21-2.61,7.45,7.45,0,0,0-1.53-2.39,1.47,1.47,0,0,0-.74-.47,1.51,1.51,0,0,0-.69.1,34,34,0,0,1-5.43,1.28c-1.7.23-3.46,0-5.14.38A13.75,13.75,0,0,0,160,179.2a31.87,31.87,0,0,0-6.76,5.82,43.37,43.37,0,0,0-5.13,7.33,94.06,94.06,0,0,0-10.69,29.1c-.35,1.83-.88,3.65-.5,5.4s2,1.87,3.47,2.42a73.87,73.87,0,0,0,10.49,3.22,97.42,97.42,0,0,0,21.48,1.91,1.78,1.78,0,0,0,1.13-.27,1.62,1.62,0,0,0,.55-1.07C174.52,230.77,174.86,228.49,175.2,226.15Z"/><circle class="cls-11" cx="212.88" cy="252.6" r="68.59"/><path class="cls-12" d="M229.24,186q1.83.45,3.63,1Z"/><path class="cls-13" d="M231.22,191.86l.88.28.27-.19A8.13,8.13,0,0,1,231.22,191.86Z"/><path class="cls-13" d="M227.86,195.22c2.11,0,5.27,3.5,6.89,2.41,2.23-1.49,1.68-2.89,2.28-3.68q-2.42-1-4.93-1.81Z"/><path class="cls-13" d="M231.22,191.86c-.66-.2-1.33-.4-2-.58A7.76,7.76,0,0,0,231.22,191.86Z"/><path class="cls-14" d="M267.77,221a64,64,0,0,0-11.53-14.59l-.19-.17c-.45-.42-.91-.85-1.38-1.26l-.2-.17c-.47-.41-.95-.82-1.43-1.21l-.17-.14c-.49-.41-1-.81-1.51-1.2l-.11-.09q-.8-.62-1.62-1.2l0,0c-.57-.4-1.14-.8-1.72-1.19h0c-1.18-.79-2.4-1.54-3.64-2.26h0a63.2,63.2,0,0,0-22.14-7.7h0l-1.39-.2-.78-.09-.91-.1h0c-1.28-.13-2.56-.22-3.86-.27h0l-.84,0c-.58,0-1.15,0-1.73,0l-1.5,0-.56,0-.9,0-.72,0-.69,0-.85.06-.39,0c-1.64.15-3.27.35-4.88.62h0l-1.27.22h0c-.55.11-1.09.21-1.63.33h-.07l-1.57.36-.08,0-1.54.4-.09,0-1.54.44-.06,0-1.57.49h0a63.19,63.19,0,0,0-16.22,8.06h0a63.68,63.68,0,0,0-14.34,91.25A63.72,63.72,0,0,1,175.6,211.7l.31-.26.81-.68.47-.38c.22-.18.44-.37.67-.54s.34-.27.51-.4l.65-.5.53-.39.65-.47c.18-.14.36-.27.55-.39s.43-.31.65-.46l.56-.37.67-.45.56-.36.69-.43.56-.34.74-.44.52-.31.86-.48.42-.23,1.29-.68.4-.2.92-.46.53-.25.81-.38.58-.26.78-.34.6-.25.77-.31.62-.25.78-.29.62-.23.8-.28.61-.21.83-.27.59-.19.91-.27.53-.15,1.16-.32.29-.08,1.46-.35.45-.1,1-.23.58-.11.92-.18.62-.1.88-.15.65-.1.87-.12.66-.08.88-.1.66-.07.9-.08.65,0c.31,0,.63-.05.94-.06l.61,0,1.05,0,.52,0,1.57,0h.4a63.4,63.4,0,0,1,26.52,6l.24.12,1.22.59.52.26,1,.5.52.28c.38.2.75.41,1.12.62l.43.25,1.18.7.55.34.82.52.57.37.89.6.43.3h0A64.06,64.06,0,0,1,267.77,221Z"/><path class="cls-15" d="M212.3,190.41h0Z"/><path class="cls-15" d="M237,188.37a20,20,0,0,0-5.82.08,7.92,7.92,0,0,0,1.71-1.48q-1.8-.54-3.63-1l-.26.08c-1.66.58-1.9.64-1.63,1.69a12,12,0,0,1-1.83-.91h-7.94c5,5.57-4.72,5.2-8.28,5.21-.65,0-.8-1.3-.43-1.64a22.15,22.15,0,0,1,3.43,0c3.24,0,2.83-.26,2.83-3.57-3.22,2.38-3.11,0-6.76,0a16.47,16.47,0,0,0-8.12,1.54l2.94,2.51c-1.23-.28-5.26-1.86-6.36-1.39-.51.22-.64,1.58-1.27,1.58-2.56,0-9.51,1.4-9.51-1.53,0,0,0,0-.12,0a68.64,68.64,0,0,0-17.29,10.68,41.57,41.57,0,0,1,7.46-.35c.3,0,2.4,5.42,2.42,5.84.12,2.36-1.5,3.3-2.69,5.55a28.2,28.2,0,0,0-2.9,14.05c0,.16,2.75,2.62,2.75,3.6,0,4.08.42,4.15,3.23,7.15v-5c1.67,4.38,3.69,6.07,5.2,10.35,1.71,4.87,8.48,1.13,10.78,4.34,1,1.41,2.9.76,3.81,2.14l2.45,3.74c1.47,2.25,3.27,1.47,5.91,1.47s-2.31,8.76-2.31,9.49c0,3,4.15,9.95,4.12,11.16-.07,3.61,4.43,4.11,6.87,6.33,2,1.79.56,6.86.5,9.11a14.3,14.3,0,0,0,.94,5.24h0c.53,1.5,1.21,3,1.81,4.44.11.26.21.52.31.79a3.62,3.62,0,0,1,.13.35l.24.66c0,.13.08.25.11.37s.15.47.21.71l.09.34c.09.34.17.7.23,1.06.32,1.84-.39,3.83,0,5.6s2,2.95,2,4.95c0,3.1,8.68,3.69,10.37,3.69,0,0-6.37-3.3-6.37-2.91,0-2.94,1.52-2.74,1.52-4.53,0-2.13-1.94-3.89-.73-6.91,1.31-3.26,1.16-3.16,4.7-3.16a20.85,20.85,0,0,0-.69-4.43c3.16-4.92,10.51-9.66,12.45-11,2.65-1.81,1.17-6.68,2.31-9.28,1-2.28,4.05-4.39,4.2-7.2,0-.15,0-.29,0-.42s0-.06,0-.09,0-.2-.05-.3a.19.19,0,0,1,0-.07,2.31,2.31,0,0,0-.1-.28l0,0a2.69,2.69,0,0,0-.16-.29h0a3.39,3.39,0,0,0-3-1.12c-1.56,0-1.72-2.56-2.9-2.56a15.66,15.66,0,0,1-9.53-2.66c-.47-.35-1-4.54-1.8-5.58-1.15-1.48-4.84,1.13-6.27-.9-.54-.76-1.82-3.76-2.69-3.76-1.19,0-7.74-1.27-9.12,0,.21-.2-2.24-.94-2.58-.94.14,0-8.43,4.44-8.43,2.14,0-3,1.46-6.86-2.08-6.86-5.7,0-.85-1.48-.85-4.09,0-3.35-5.52.92-8.43.92.08,0-3.27-5.49-1.66-5.49,1.15,0,1.33-2.35,2.18-3.35,2.25-2.63,6.1-2.9,8.8-2.41,1.1.2,5.07,4.81,5.08,5.76,0-.23,1.62-1.27,1.84-1.6.78-1.2.34-1.72.53-2.92.66-4,.83-4.83,4-7.29,2.37-1.8,5.67-3.87,7.53-6.2a12.45,12.45,0,0,1,4.8-3.71c-.21.1,2,1.31,2.41,1.31,1.86,0,2.31-1.57,3.33-3h-3.23c3.64-2.79-3-4.23,4.35-4.23,3.59,0,3.93,0,6.12-2.51-3.49,0-2.64,0-2.64-3.58,0-.59-1-2.76-1.93-1.84-2.58,2.54-2.49-.46-3.61-2.14-1.46-2.18-3,.06-3.64,1.38-.76,1.64-7,4.2-6.94,6.34,0,1.25-2,1.2-2-.2.06-2.09-7.18-4.1-7.3-4.92-.16-1.08,3.58-4,6.84-4,1.49,0,.76-1.73,1.22-1.73,3.11,0,6.76-1,8.46-3.47-.42,0-4.41,0-4.41,0,0-1.42-.6-2.29,1-2.29,3.82,0,4.95,3,9.16,3l-4.51,3.27c2.11,0,5.27,3.5,6.89,2.41,3-2,1-3.84,3.46-4.25a3,3,0,0,0,1.22.76c.78.28,3.58.78,4.06,1.49s2,5.93,1,6.37c-1.74.71-6.83,6.23-2.94,7.61,3,1.06,3.78-.28,6.46-2,2.49-1.55,3.17-1,6,0a17,17,0,0,1,4,.29c2.37.83,2.2-.66,2.44-.57a6.52,6.52,0,0,0,4.13.05A68.63,68.63,0,0,0,237,188.37Z"/><path class="cls-15" d="M208.52,236.12l-1.39,1.39c4.32,0,7,1.39,10.78,1.39C215.34,234.87,213.32,236.12,208.52,236.12Z"/><path class="cls-15" d="M222.78,239.61c-3.47-.11-3.63.42-5.76,2.79h5.49C224.09,242.41,223.87,239.64,222.78,239.61Z"/><path class="cls-15" d="M227.7,243.22c0-4.86-4.95,0,0,0Z"/><g class="cls-16"><path d="M248.77,194.06a68.6,68.6,0,0,1-93.68,95.4,68.59,68.59,0,1,0,93.68-95.4Z"/></g><path class="cls-17" d="M263.06,74.08s-27.23,30.16-27.23,55.32,18.83,31.14,27.23,31.14,27.23-6,27.23-31.14S263.06,74.08,263.06,74.08Z"/><path class="cls-18" d="M245.68,139.32l0,0a19.27,19.27,0,0,1-.66-3.53c0-1.83,0-3.67.12-5.5A81.64,81.64,0,0,1,246.69,119a122.22,122.22,0,0,1,7-22.1q2-4.83,4.33-9.5,1.08-2.2,2.24-4.38a43.53,43.53,0,0,0,2.26-4.14l-.07-.07S238,109.07,239.23,133.15a45.22,45.22,0,0,0,.48,4.65c.12.74.26,1.47.42,2.2a5.91,5.91,0,0,0,.38,1.83,3.38,3.38,0,0,0,2.69,1.65,2,2,0,0,0,2.18-1.15A5.25,5.25,0,0,0,245.68,139.32Z"/><path class="cls-18" d="M249.19,146.07a2.59,2.59,0,0,0-1.77-.73,2.65,2.65,0,0,0-1.47.48,2.54,2.54,0,0,0-1.21,2.84,2.66,2.66,0,1,0,4.45-2.59Z"/><path class="cls-2" d="M274.37,215.76c-1.48.23-3,.39-4.31.64a48.72,48.72,0,0,1-10.22,1c-1.66,0-3.65-.43-4.33-1.86a2.7,2.7,0,0,1,1.05-3.21,10,10,0,0,1,3.53-1.42c3.42-.92,6.77-2.08,10.21-3,2.89-.75,6.33-1.9,9.25-.41a4,4,0,0,1,2.2,2.84,4.11,4.11,0,0,1-2.45,4A16.92,16.92,0,0,1,274.37,215.76Z"/><path class="cls-2" d="M249.6,193.18a2.81,2.81,0,0,0,0-.29A1,1,0,0,0,249,192c-1.22-.28-1,2.42-2.06.83-.3-.43-.66-3.65-1-3.71a2.66,2.66,0,0,0-3.27,2.66,8.13,8.13,0,0,0,1.49,3.35c.78,1.17,1.81,2.21,2.55,3.4a14.93,14.93,0,0,1,1.26,3.24c1.67,4.94,3.33,10.65,7.3,14.09,1.21,1.05,1.92,1.26,3.16.55a4.15,4.15,0,0,0,2.44-3.31,6.63,6.63,0,0,0-1.7-4c-1.3-1.78-2.51-3.73-3.88-5.4s-3-2.76-4-4.6a15.6,15.6,0,0,1-1.68-5C249.55,193.79,249.59,193.48,249.6,193.18Z"/><path class="cls-3" d="M287.57,215.44a14.13,14.13,0,0,1-10.89,6.42c-1.56-2.91-1.33-5.84-2.06-8.92-.24-1-.53-2-.83-3-.49-1.64-2.56-5.94.16-6.33,1.37-.2,2.61.28,3.93.25,1.76,0,3.43-.87,5.24-.84a6.74,6.74,0,0,1,5.29,2.33c1.4,1.81,1.4,4.36.77,6.55A13,13,0,0,1,287.57,215.44Z"/><path class="cls-6" d="M172.55,223.18l2.49,2.51,2,.33,2.07,2.08s-1,1.36-1.2,1.19a2.12,2.12,0,0,0-1.51-.52,6.33,6.33,0,0,0,1.28,2.58c.5.66,1.47,1.4.26,2a2.14,2.14,0,0,1-1.06.17,4.33,4.33,0,0,1-2.52-1,6.45,6.45,0,0,0-1.69-1.32.94.94,0,0,1-.32-.15,7.11,7.11,0,0,1-.52-1.67,5,5,0,0,0-.43-1.21l-2.06-2.95Z"/><path class="cls-7" d="M166.79,209.59c1.57,5.13,6.82,11.74,8.44,14.31a11,11,0,0,1-3.39,3c-1.71,1-1.84.86-3.18-.39a57.62,57.62,0,0,1-6.06-7.08c-4.69-6.12-9.39-10.63-7.83-19.18a36.7,36.7,0,0,1,2.15-6.74q1.68-4.34,3.37-8.66c.77-2,1.53-2.26,3.67-2.34,3.33-.12,7.14.13,9.22,2.74a7.39,7.39,0,0,1,1.25,5.77,17.23,17.23,0,0,1-2.24,5.61C169.86,200.77,165.22,204.49,166.79,209.59Z"/><path class="cls-19" d="M60.65,167a1.21,1.21,0,0,0-.2.26c-.44.89-.13,1.61-.31,2.58-.08.43-1.13.86-.46,1.49.25.23.93.71,1.46,1.2a6.58,6.58,0,0,1,1.55,3.26c.91,4.59.55,9.3,0,14a1.66,1.66,0,0,1-.21.76,1.76,1.76,0,0,1-1.27.57,35.65,35.65,0,0,0-6.43,1.63,13.4,13.4,0,0,0-5.11,2.91A6,6,0,0,0,47.88,201a4.68,4.68,0,0,0,2.76,3.25c3.4,1.38,7.19-2.41,9.79-4.18a64.19,64.19,0,0,0,7-5.52,2.08,2.08,0,0,0,.87-2,138.89,138.89,0,0,0-.91-15.1c-.15-1.38-1-2.51-1.12-3.79-.08-.82.45-1.52.55-2.3a7.78,7.78,0,0,0-.18-2.59c-.39-1.49-1.87-2.09-3.11-2.73a1.7,1.7,0,0,0-.85-.27,2.48,2.48,0,0,0-1.36.63A4.23,4.23,0,0,0,60.65,167Z"/><path class="cls-20" d="M61.54,202.43a43.1,43.1,0,0,0,6.89-6.55,5.5,5.5,0,0,0,1.14-1.95,5.64,5.64,0,0,0,.07-1.88l-.72-10.94c0-.34,0-1.47-.26-1.68-.15-.1-.76.08-1,.09s-.69,0-1,0a15.67,15.67,0,0,0-4.16.18.37.37,0,0,0-.22.12.33.33,0,0,0-.06.22A60.93,60.93,0,0,1,60.88,188a3.53,3.53,0,0,1-.75,1.71,6.67,6.67,0,0,1-1.88,1,26.31,26.31,0,0,1-3.82,1.45c-2.67.81-5.43,1.31-8.15,1.91a15.21,15.21,0,0,0-3.43.83c-3,.84-6,1.73-8.34,3.73A6.94,6.94,0,0,0,39,211a35.8,35.8,0,0,0,16.52-4.59A50.29,50.29,0,0,0,61.54,202.43Z"/><polygon class="cls-19" points="44.28 304.94 39.35 305.09 38.92 281.93 38.06 266.33 49.65 266.33 48.11 282.32 44.28 304.94"/><path class="cls-5" d="M45.26,304.34a4.66,4.66,0,0,0-.42,2.36c0,.91,0,1.82.08,2.72a3.68,3.68,0,0,0,.3,1.62,7.32,7.32,0,0,0,.87,1.06,1.55,1.55,0,0,1,.46,1.25,1.31,1.31,0,0,1-1,.9,3.76,3.76,0,0,1-1.38,0l-1.67-.17a1.63,1.63,0,0,1-1.31-.59,1.83,1.83,0,0,1-.16-.81c-.17-2.17-2.74-3.48-2.69-5.44a4.23,4.23,0,0,1,.25-1.12,11.13,11.13,0,0,0,.45-3c2.08.11,4.71-.13,6.67.44A3.92,3.92,0,0,0,45.26,304.34Z"/><polygon class="cls-19" points="24.16 303.67 19.33 302.68 24.62 280.49 25.19 265.02 38.25 267.33 33.58 282.97 24.16 303.67"/><path class="cls-5" d="M25.25,303.31a4.64,4.64,0,0,0-.95,2.2l-.55,2.67a3.65,3.65,0,0,0-.08,1.64,6.7,6.7,0,0,0,.61,1.23,1.55,1.55,0,0,1,.15,1.32,1.29,1.29,0,0,1-1.14.66,3.89,3.89,0,0,1-1.35-.29l-1.59-.55c-.47-.17-1-.39-1.14-.87a1.79,1.79,0,0,1,0-.83c.33-2.15-1.87-4-1.37-5.92a4.09,4.09,0,0,1,.5-1,10.73,10.73,0,0,0,1.12-2.79c2,.6,4.62,1,6.39,2A4,4,0,0,0,25.25,303.31Z"/><path class="cls-20" d="M46.74,193.82c2.36,2.47,2.88,7,4,10.33,1.39,3.95,2.77,7.91,4,11.94.6,2,1.15,4.11,1.62,6.2.38,1.74.3,3.48.52,5.26,1.11,8.74,2.18,17.5,2.85,26.29q.42,5.4.62,10.82a9.59,9.59,0,0,1-.79,5.1,58.52,58.52,0,0,0-9.26.31,144.3,144.3,0,0,1-25.71,0c-1-.11-11.15-1.26-11.13-1.85.54-14.81.2-29.49,2.25-44.24,1.1-7.88,1.74-16.4,5.8-23.23,2-3.37,5.64-5.95,9.19-7.59,3.94-1.83,8.43-1.63,12.62-1A5.72,5.72,0,0,1,46.74,193.82Z"/><path class="cls-21" d="M37.94,209.48a8.17,8.17,0,0,0,3.33.36c.09,0,.21-6.66.23-7.28,0-1.25-.13-2.84,1-3.64s3.67-1,3.22-3.19a3,3,0,0,0-2-2,8.64,8.64,0,0,0-3-.31c-1.28,0-2.57,0-3.85.08A17.51,17.51,0,0,0,29.49,195c-1.82,1-1.75,3.2-.86,4.85a3.27,3.27,0,0,0,.72.93,4.15,4.15,0,0,0,3.12.57,10.15,10.15,0,0,0,2.64-1.44c.6-.33,1.9-.76,2.42-.1.39.49.13,2,.15,2.53S37.56,209.35,37.94,209.48Z"/><path class="cls-22" d="M39.77,202.49c0-.34.1-1.94-.48-1.9a.45.45,0,0,0-.34.26,4.38,4.38,0,0,0-.17,1.36,1.16,1.16,0,0,0,.1.61.47.47,0,0,0,.51.27C39.63,203,39.74,202.74,39.77,202.49Z"/><path class="cls-22" d="M39.77,207.1c0-.34.1-1.94-.48-1.9a.45.45,0,0,0-.34.26,4.45,4.45,0,0,0-.17,1.36,1.14,1.14,0,0,0,.1.61.46.46,0,0,0,.51.27C39.63,207.64,39.74,207.35,39.77,207.1Z"/><path class="cls-5" d="M52.28,174.23c.62.15,1.34,2,1.5,2.65a6,6,0,0,0,.58,2,2.8,2.8,0,0,0,.28-2c-.08-.4-.42-.59-.54-1a9,9,0,0,1-.1-1.56,1.49,1.49,0,0,0-.23-.79,1.65,1.65,0,0,0-.54-.41,3.12,3.12,0,0,1-1.17-1.46,2.21,2.21,0,0,0-.28-.6.81.81,0,0,0-.3-.23,2.11,2.11,0,0,0-.19-.23c-.46-.44-1.18-.5-1.43-1.15a2.74,2.74,0,0,1-.07-1.18c.26-4.86-3.77-4.67-6.23-5.38s-3.76-1.88-5.65,1.14-.79,4.69.32,7.45c.88,2.22.48,3.78.9,6.15.32,1.85,1.37,3.42,1.75,5.26.34,1.63.2,3.37.57,5s1.61,3.22,2.9,2.82a2.53,2.53,0,0,0,1.57,2.8c1,.21,2-.78,2.12-2,.84.18,2,.15,2.18-.87a6.7,6.7,0,0,0,0-1.1c.1-1.55,1.69-2,2.93-2.08a4.81,4.81,0,0,1,1.21-4.71c-.45-.2-.58-.93-.5-1.5a11.11,11.11,0,0,0,.29-1.71c-.06-1.65-1.83-2.42-2.29-4a4.09,4.09,0,0,1-.14-1.32A3.18,3.18,0,0,1,52.28,174.23Z"/><path class="cls-5" d="M21.29,170.3a2.1,2.1,0,0,1,.1,1.18c-.24.68-1.19.81-1.73,1.3-1.31,1.18.37,3.31,0,5S17,180.33,17.21,182a8.17,8.17,0,0,0,.66,1.67,1.22,1.22,0,0,1-.43,1.56,4.33,4.33,0,0,1,2.36,4.57c1.68-.06,3.88.24,4.26,1.77a5.78,5.78,0,0,0,.21,1.1c.44,1,2,.9,3.06.63a2.73,2.73,0,0,0,3.16,1.8,2.32,2.32,0,0,0,1.66-3c1.79.25,3.19-1.47,3.43-3.14s-.22-3.38,0-5.05c.22-1.88,1.37-3.56,1.52-5.44.18-2.42-.6-3.93.23-6.24,1-2.88,2.14-4.76-.77-7.48a5.43,5.43,0,0,0-3.29-1.68c-.48,0-.94.11-1.41.06-.76-.07-1.41-.64-2.15-.12-.2.14-.34.34-.52.49a3.28,3.28,0,0,1-2.65.31,2.07,2.07,0,0,0-1,0c-.88.34-.78,1.77-1.69,2.07-1.1.35-1.62.41-2.24,1.49A4,4,0,0,0,21.29,170.3Z"/><path class="cls-19" d="M45.87,179.09s0-.07,0-.11a32.18,32.18,0,0,1-.66-4.49c-.74-4.3-5.7-5.22-9.44-4.32-5.08,1.22-6.41,5-6.72,9.67,0,.58-.24,1.33-.83,1.37a4.38,4.38,0,0,1-.84-.23c-.74-.13-1.3.69-1.4,1.43a3.19,3.19,0,0,0,.79,2.59c.62.67,1.26.6,2,.9,1.21.48.51-.13,1.17,1,.85,1.47,1.49,2.83,3,3.81s1.5,1.41,1.59,3.29a3.07,3.07,0,0,0,1.09,2.56A3.09,3.09,0,0,0,37,197a14.59,14.59,0,0,0,2.09,0,2.54,2.54,0,0,0,1.5-.49,2.75,2.75,0,0,0,.55-2.32c-.16-2.26-.13-2,1.5-3.19,2.27-1.68,5-5.3,4.56-8.27A23,23,0,0,0,45.87,179.09Z"/><path class="cls-5" d="M28.55,178.65c-.57.42-1.29.72-1.47,1.36a6.74,6.74,0,0,0,0,1.19,1.6,1.6,0,0,1-1.25,1.31c-1.21.25-2.14-.77-2.66-1.64a4.72,4.72,0,0,0-4-2.15c-.85,0-1.67.25-2.52.34-1.59.18-3.83-.48-4.55-1.92a1.25,1.25,0,0,1-.17-.58.47.47,0,0,1,.33-.47c.25-.06.5.13.74.25a3.52,3.52,0,0,0,2.72-.44c.64-.49.36-1.45.26-2.24a4.14,4.14,0,0,1,3.43-4.41c.68-.12,1.38-.08,2.05-.22,1.53-.32,2.65-1.48,3.88-2.38s3-1.59,4.36-.87a11.7,11.7,0,0,0,1.18.69c1.59.63,3-.11,4.55.67s3.66,2.44,3.55,4.1c0-.51-.76-.73-1.28-.56s-1,.53-1.55.45c-.72-.1-1.19-.91-1.92-1a1.56,1.56,0,0,0-1.36.94,3.4,3.4,0,0,1-1,1.38c-.67.43-1.66.25-2.31.71s-.68,1.57-.48,2.43a3.2,3.2,0,0,1,0,2.56A2.24,2.24,0,0,1,28.55,178.65Z"/><path class="cls-5" d="M44.68,172.2c1.16.24,1.62,1.67,1.57,2.84a1.83,1.83,0,0,0,.28,1.41,2.56,2.56,0,0,0,.68.39,2.44,2.44,0,0,1,1.17,2.92,2.34,2.34,0,0,0,.84-2.94c-.16-.34-.41-.63-.59-1-.54-1-.31-2.26-.38-3.42a2.12,2.12,0,0,0-.42-1.32,3.69,3.69,0,0,0-1.1-.7A5.25,5.25,0,0,1,44.4,168a3.24,3.24,0,0,0-.55-1,2.48,2.48,0,0,0-1.7-.59,1.77,1.77,0,0,0-1.51.38c-.17.19-.26.44-.44.61-1.09,1-2.4-.32-2.21,1.91.12,1.39.21,1.18,1.36,1.17s1.8-.76,2.86.14c.51.43.33,1.1.93,1.46C43.55,172.29,44.23,172.09,44.68,172.2Z"/><path class="cls-19" d="M70.38,193.12c.06-.37.22-.82.59-.86s.64.58.66,1.05a3.23,3.23,0,0,0,1.27-3.69,2.46,2.46,0,0,1,3,.34,3.93,3.93,0,0,1,1.08,3,7.51,7.51,0,0,1-2.06,4.33c-.74.91-1.49,1.82-2.17,2.78-.19.27-.61,1.26-.9,1.37-.67.27-2.63-1.16-3.18-1.53a.29.29,0,0,1-.11-.11c0-.1,0-.2.13-.28a3.75,3.75,0,0,0,1.12-1.75,9.62,9.62,0,0,0,0-2.08A23.35,23.35,0,0,1,70.38,193.12Z"/><path class="cls-20" d="M62.62,211.63c4.11-3.15,8.19-6.5,10.71-11a1.15,1.15,0,0,0,.2-.71,1.21,1.21,0,0,0-.4-.6c-1.61-1.52-3.28-3-5-4.35a69.35,69.35,0,0,1-7.51,6.52,29.36,29.36,0,0,1-10.5,3.11c-4.79.45-9.55-.33-14.32-.54-3.3-.15-7.66-.56-9.29,3.06a7.52,7.52,0,0,0,.21,6c2.23,5.06,8.31,7.49,13.83,7.15A32.42,32.42,0,0,0,51.94,217c3.27-1.51,6.71-2.3,9.6-4.51Z"/><path class="cls-23" d="M78.71,116.46a27.61,27.61,0,0,1-2.91,20.92A30.33,30.33,0,0,1,56.16,151.7a25.31,25.31,0,0,1-6.44.47A28.9,28.9,0,1,1,75.19,107.9,29.39,29.39,0,0,1,78.71,116.46Z"/><path class="cls-23" d="M35.34,96.68a64.64,64.64,0,0,1,15.51-3.84.58.58,0,0,0,.41-.92L38.74,74.73a.58.58,0,0,0-1.05.26L34.56,96.05A.58.58,0,0,0,35.34,96.68Z"/><path class="cls-23" d="M53.91,92.9a64.29,64.29,0,0,1,15,5.36.58.58,0,0,0,.85-.54l-.94-21.25a.58.58,0,0,0-1-.36L53.61,91.94A.58.58,0,0,0,53.91,92.9Z"/><path class="cls-23" d="M71.86,100.41a64.3,64.3,0,0,1,8.64,13.44.58.58,0,0,0,1,.09l12.23-17.4a.58.58,0,0,0-.59-.91l-21,3.84A.58.58,0,0,0,71.86,100.41Z"/><path class="cls-23" d="M81,117.31a64.35,64.35,0,0,1-.36,16,.58.58,0,0,0,.78.64l19.88-7.57a.59.59,0,0,0,0-1.08l-19.51-8.55A.59.59,0,0,0,81,117.31Z"/><path class="cls-23" d="M78.11,137.44A64.5,64.5,0,0,1,67.3,149.21a.59.59,0,0,0,.17,1l19.94,7.41a.59.59,0,0,0,.73-.8l-9-19.28A.58.58,0,0,0,78.11,137.44Z"/><path class="cls-23" d="M32.14,98.32a64.68,64.68,0,0,0-9.22,13.05.58.58,0,0,1-1,0L10.45,93.5a.59.59,0,0,1,.63-.89l20.76,4.75A.58.58,0,0,1,32.14,98.32Z"/><path class="cls-23" d="M21.37,114.33a64.9,64.9,0,0,0-1.12,15.94.58.58,0,0,1-.84.56L.33,121.44a.58.58,0,0,1,.07-1.08l20.22-6.69A.57.57,0,0,1,21.37,114.33Z"/><path class="cls-23" d="M20.87,133.45a64.64,64.64,0,0,0,9.06,13.16.59.59,0,0,1-.31,1L8.84,152.13a.58.58,0,0,1-.61-.89L19.87,133.4A.58.58,0,0,1,20.87,133.45Z"/><path class="cls-23" d="M32.43,148.67a64.52,64.52,0,0,0,15,5.42.58.58,0,0,1,.31,1L33.54,170.86a.59.59,0,0,1-1-.37l-.94-21.27A.59.59,0,0,1,32.43,148.67Z"/><path class="cls-23" d="M65.49,150.48A64,64,0,0,1,50,154.36a.59.59,0,0,0-.41.93l12.58,17.16a.59.59,0,0,0,1.05-.26l3.07-21.08A.59.59,0,0,0,65.49,150.48Z"/><polygon class="cls-24" points="333.68 260.04 333.68 308.14 340.94 308.14 345.48 279.1 349.56 256.87 333.68 260.04"/><polygon class="cls-5" points="333.68 308.14 329.6 312.22 331.42 314.94 339.58 312.22 339.58 308.14 333.68 308.14"/><polygon class="cls-5" points="362.18 308.95 360.67 314.92 355.68 316.74 352.96 315.38 357.18 308.63 362.18 308.95"/><polygon class="cls-24" points="349.56 255.05 352.29 275.92 355.92 309.5 363.18 309.04 363.18 283.18 366.81 256.87 349.56 255.05"/><path class="cls-25" d="M346.41,189.5c-7.4,1.69-12.37,7.69-13.71,15.82-1.5,9.1-3.76,18.16-5.42,27.28-1.86,10.27-3,20.59-3.95,31Q337.15,264.81,351,265c7.16.1,14.43,0,21.29-2.19-1.39-5.91-.87-12-1-18-.08-5.41-.32-10.81-.82-16.19a194.81,194.81,0,0,0-2.9-22.33,46.1,46.1,0,0,0-3.21-10.61c-1.23-2.52-4.92-4.2-7.4-5.62-1.95-1.12-4.33-1.11-6.58-1.07A19.23,19.23,0,0,0,346.41,189.5Z"/><path class="cls-6" d="M339.35,171.67c1.19-10.41,14.12-9.58,18.4-1.54A15.4,15.4,0,0,1,359,180.36a8.27,8.27,0,0,1-2.32,4.35c-.55.5-1.66.76-2.09,1.25-.71.83-.42,2.52-.28,3.55-1.29.92-3,.79-4.61.62a1,1,0,0,1-.6-.2.9.9,0,0,1-.24-.45c-.41-1.22-.28-1.55-1.4-2a20.06,20.06,0,0,1-3.19-1.17,10.76,10.76,0,0,1-4.18-5.29A20.1,20.1,0,0,1,339.35,171.67Z"/><path class="cls-4" d="M345.06,166.67s8.41-1.34,9.76,1.83c2,4.76,3.71,7.82,4.6,10.79l4-5.48-.61-10.22s-3.74-7-8.08-6.67a111.84,111.84,0,0,0-12.8,2.46l-5.21,4.46-4.58,1.58,7.21,12.65S337.28,167.73,345.06,166.67Z"/><path class="cls-26" d="M375,134.52a3.26,3.26,0,0,0-.33-.91l-1.31-2.43Z"/><path class="cls-27" d="M350.36,102.17l6.18,1.84,8,2.38,6.18,1.84a3.87,3.87,0,0,0,4.91-3L377,98.85c.5-2.28,1.33-6,1.83-8.3l1.42-6.42c.51-2.28-.93-3-3.19-1.67l-3.88,2.33c-1.42-2.47-2.84-4.94-3.39-5.84-1.25-2-3.65-3.62-8.36-3.59l-18.67.11,7.79,14a2.68,2.68,0,0,1,.49.71c.37.76,1.78,3.41,3.19,6l-3.79,2.29C348.21,99.87,348.16,101.52,350.36,102.17Z"/><path class="cls-28" d="M328.74,80.14c-2,3.11-7.08,11.39-7.08,11.39a3.91,3.91,0,0,0,1.29,5.4l12.46,7.48a3.93,3.93,0,0,0,5.38-1.39l7.68-12.91c.67-1.13,1.47-1.3,2.12-.63l-7.79-14-4.5,0C335.05,75.52,331.35,76.09,328.74,80.14Z"/><path class="cls-27" d="M306.71,132.5c1.41,2.79,5.29,10,8.14,15.21L323.67,133c1-1.82,3-5.19,4.58-8l4.52,2.57c2.29,1.31,3.71.52,3.15-1.75l-1.58-6.39-2-8.24-1.58-6.39a3.86,3.86,0,0,0-5-2.83l-6.13,2-7.93,2.58-6.13,2c-2.18.71-2.09,2.36.21,3.67l3.33,1.89c-1.7,3.37-3.71,7.35-4.21,8.49C304,124.62,304.53,128.17,306.71,132.5Z"/><path class="cls-28" d="M323.67,133l-8.82,14.76c1.58,2.93,2.85,5.26,3.18,5.91.94,1.81,2.27,5.36,10.69,5.31l12.25-.07a4,4,0,0,0,3.87-4l-.08-14.79a3.94,3.94,0,0,0-3.92-4l-16.73.09c-1.51,0-1.7-1-1.17-2Z"/><path class="cls-27" d="M375,134.52l7.3,14.92c2.55-4.82,6.89-13.18,8.66-16.79,2.37-4.84,3-9,1.95-11.24s-6.5-12.92-6.5-12.92a3.53,3.53,0,0,0-5.11-1.46L369,114.82a4.27,4.27,0,0,0-1.42,5.57s3.76,6.92,5.85,10.79l1.31,2.43A3.26,3.26,0,0,1,375,134.52Z"/><path class="cls-28" d="M380.52,152.78c.29-.5,1-1.72,1.81-3.34L375,134.52c.15.87-.27,1.46-1.32,1.46l-7.55.05,0-4.62c0-2.69-1.39-3.56-3.05-1.94L358.43,134l-6,5.88-4.64,4.56a4,4,0,0,0,0,5.83l4.73,4.47,6.11,5.78,4.72,4.47c1.68,1.59,3,.69,3-2l0-4.39,5.78,0C377.39,158.56,379.37,154.76,380.52,152.78Z"/><path class="cls-6" d="M324.34,165.8l1.08-3.36,1.65-1.22c.29-.89,1.51-3.08.16-3.48-1.05-.31-1.19.77-2.07.94s-2.39-.46-3.26-.73a1.45,1.45,0,0,0-.94-.09c-.88.31-.14,2.15-.06,2.74a5.12,5.12,0,0,1,.17,1.28l-.49,3.56Z"/><path class="cls-25" d="M325.69,180.36c-2.3-4.15.35-12.42.71-16.41A11,11,0,0,0,322,162.8c-2-.1-2,.07-2.66,1.79a58.57,58.57,0,0,0-2.17,9.06c-1.4,7.58-3.54,13.74,1.74,20.64a36.41,36.41,0,0,0,5,5c2,1.77,4,3.54,6,5.3.85.76,2.38,2.72,3.53,2.79a2.53,2.53,0,0,0,1.62-.72c5.59-4.3,11.54-9.13,13.18-16a1.12,1.12,0,0,0-.06-.92,1.16,1.16,0,0,0-.85-.33A41.76,41.76,0,0,1,327,181.89,4.49,4.49,0,0,1,325.69,180.36Z"/><path class="cls-6" d="M379.55,158.11a5.54,5.54,0,0,0-.11,1.28l.67,3.53-3.75.55-1.24-3.31-1.7-1.13-.72-1.91c-.17-.47-.31-.6,0-.94a1.91,1.91,0,0,1,1.51-.5c.32.13.47.48.63.79a1.72,1.72,0,0,0,.84.88,1.9,1.9,0,0,0,1.41-.21,6.09,6.09,0,0,0,2.28-1.76c.06-.08.14-.18.24-.16a.26.26,0,0,1,.16.13C380.31,156.3,379.63,157.13,379.55,158.11Z"/><path class="cls-25" d="M374.84,177.63a11.79,11.79,0,0,0,1.13-3.36c.65-4-1.2-8.59-1.75-12.55a11.09,11.09,0,0,1,4.33-1.37c2-.18,2,0,2.74,1.67A57.6,57.6,0,0,1,383.9,171c1.76,7.51,4.2,13.55-.74,20.7a37.44,37.44,0,0,1-4.73,5.27c-4.19,4.07-7.66,8.2-12.31,11.77a3.75,3.75,0,0,1-2.26,1c-1.43-.05-2.23-1.61-2.74-2.95l-3.61-9.48c-.72-1.9-1.45-3.8-2.05-5.74a1.76,1.76,0,0,1,0-1.42,1.74,1.74,0,0,1,.84-.61c3.87-1.71,8.2-2.35,11.82-4.55A19,19,0,0,0,374.84,177.63Z"/><path class="cls-29" d="M112,190.76a9.4,9.4,0,0,0-4.37-1.07,8.59,8.59,0,0,0-5.5,2.35,28.14,28.14,0,0,0-7.91,12.59,107.22,107.22,0,0,0-3.24,43.06,2.88,2.88,0,0,0,.6,1.52,2.84,2.84,0,0,0,1.6.82,48.52,48.52,0,0,0,7.19.88c8.93.58,17.83.81,26.75,1.06a1.87,1.87,0,0,0,1.41-.29,2.18,2.18,0,0,0,.61-1.82,105.47,105.47,0,0,0-1.5-17.84c-.82-4.83-2-9.63-2.89-14.4a79.89,79.89,0,0,1-1.23-11c-.12-2.36.35-4.81-.56-7C120.85,194.54,116.73,192.71,112,190.76Z"/><path class="cls-30" d="M128.64,166.78a22.36,22.36,0,0,0-5.27-3.13,13.21,13.21,0,0,0-4.92-1.36,10.86,10.86,0,0,0-7.54,2.47c-2.58,2.2-3.92,5.14-5.3,8.21a43.17,43.17,0,0,0-2.4,7.23,13.42,13.42,0,0,0-.57,3.65A2.44,2.44,0,0,0,104,186a43.85,43.85,0,0,0,13.45,6,10.6,10.6,0,0,0,4.7.39c1.89-.32,3.68-.6,5.58-.84a2.33,2.33,0,0,0,1.15-.37,2.58,2.58,0,0,0,.84-1.1c1.49-3.47,3-6.65,3.43-10.51a16.25,16.25,0,0,0-2.48-10.7A8.58,8.58,0,0,0,128.64,166.78Z"/><path class="cls-31" d="M128.09,181.93a4.63,4.63,0,0,0,.69-2c.11-1.05,0-2.48-1.39-2.34-.07,0-.13.09-.19.13,0-.14,0-.27,0-.42a24.53,24.53,0,0,0,.31-4.53,8.41,8.41,0,0,0-1.09-2.92,5.36,5.36,0,0,0-1.17-1.72,9.91,9.91,0,0,0-7.1-2.52,7.89,7.89,0,0,0-4.76,2c-.4.3-3.16,2.48-2.52,3.59a2.41,2.41,0,0,0-2.93,1.27,4.47,4.47,0,0,0-.63,2,2.06,2.06,0,0,0,.71,1.66,9.47,9.47,0,0,0-1,3.59,8.51,8.51,0,0,0,2.23,5.77,6.86,6.86,0,0,1,1.85,3,7.19,7.19,0,0,1,0,1.91,2.92,2.92,0,0,0,.07,1.41,4,4,0,0,0,4.59,1.49c.83-.53.78-1.47,1.37-2.16,1.15-1.34,2.89-1.72,4.42-2.39a10.8,10.8,0,0,0,4.32-3.32,8.33,8.33,0,0,0,1.16-2.63A2.31,2.31,0,0,0,128.09,181.93Z"/><path class="cls-30" d="M113.67,169.37s0,.06,0,.07c.81-.34,1.34-1,2.27-1.07a6.41,6.41,0,0,1,2.67.31c3.18.9,6,2,8,4.77a17.76,17.76,0,0,0,1.65-3.29,1.66,1.66,0,0,0,.15-1,1.13,1.13,0,0,0-.44-.61,22.24,22.24,0,0,0-8.41-4.25c-1.5-.38-3.12-.45-4.34.68S114.07,167.86,113.67,169.37Z"/><path class="cls-30" d="M126.82,180.32a6.38,6.38,0,0,1-.22.86,12.39,12.39,0,0,1-5,6.51c.64-.15,1.43.53,1.89.71a12.37,12.37,0,0,0,3,.74.79.79,0,0,0,.5,0,.87.87,0,0,0,.38-.42c1.15-2.29,2.48-4.43,3-7a29.65,29.65,0,0,0,.07-8.52,5.15,5.15,0,0,0-1-3,5,5,0,0,0-2.88-1.38c.66.33.87,1.69.91,2.2a21.83,21.83,0,0,1-.06,2.84A45.43,45.43,0,0,1,126.82,180.32Z"/><path class="cls-30" d="M110.35,173.21a4.84,4.84,0,0,0-.39.79,12.7,12.7,0,0,0-.55,8.4c-.39-.53-1.44-.55-1.91-.72a13.57,13.57,0,0,1-2.77-1.4.79.79,0,0,1-.35-.37.91.91,0,0,1,0-.59c.61-2.54,1-5.19,2.34-7.48a29.28,29.28,0,0,1,5.42-6.43,4.91,4.91,0,0,1,2.62-1.57,4.85,4.85,0,0,1,3,.78c-.7-.14-1.61.77-1.95,1.13a23.9,23.9,0,0,0-1.73,2.14A51.14,51.14,0,0,0,110.35,173.21Z"/><path class="cls-31" d="M124.49,263.93c-.14,6.65.59,12.72.28,19.5s-1.79,14.05-2.31,20.94c-1.9-.25-3.77-.4-5.65-.83-.58-6.11-1-14.3-1.65-19.9s-1.54-8.42-2.16-13.51C116.85,268.16,120.63,266,124.49,263.93Z"/><path class="cls-5" d="M123,303.67a3.58,3.58,0,0,0,.25,2.56c.53.77,1.48,1,1.9,1.9a2.17,2.17,0,0,1,.07,1.21,1.56,1.56,0,0,1-.34.89,2.12,2.12,0,0,1-1.41.59A8.35,8.35,0,0,1,121,311a8.48,8.48,0,0,1-3.67-1.77,2.81,2.81,0,0,1-1.58-3.77,14.27,14.27,0,0,0,.42-3.05l7,.36C123.11,303.05,123,303.34,123,303.67Z"/><path class="cls-31" d="M105.32,264.36c-1.31,6.85-1.39,13.05-3.49,19.95s-6.19,13.8-9.39,20.41a43.64,43.64,0,0,1-4.94-2.67c1.84-6,4.17-14.12,5-19.82s.35-8.51.59-13.68C97.17,267.32,101.22,265.81,105.32,264.36Z"/><path class="cls-5" d="M93.19,304.19a3.72,3.72,0,0,0-.73,2.57c.22.94,1,1.54,1.15,2.51a2.18,2.18,0,0,1-.31,1.2,1.56,1.56,0,0,1-.6.75,2,2,0,0,1-1.51.09,8,8,0,0,1-2.35-.71,8.59,8.59,0,0,1-2.88-3,3.69,3.69,0,0,1-.8-3.12,3.62,3.62,0,0,1,.63-1,15.88,15.88,0,0,0,1.57-2.79c2.11.91,4.25,1.78,6.4,2.61C93.58,303.61,93.36,303.88,93.19,304.19Z"/><path class="cls-32" d="M131.25,247.39c0-1.8,0-3.61-.06-5.41a2.85,2.85,0,0,0-.18-1.13,3,3,0,0,0-1.14-1.1,12.71,12.71,0,0,1-5.4-6.05,45,45,0,0,1-2.38-7.45c-.57-2.2-1.55-8.66-2.64-11.22-.51-1.2-.29.06-.68-.6a66.52,66.52,0,0,1,1.8-18.46c.25-1,.49-.84.17-1.84a8.39,8.39,0,0,0-2.13-1.26c-2.58,6.53-3.69,13.29-4.4,20.24-3-.68-6-1.34-8.91-2,.3-7.34,1.87-14.41,3.14-21.63a7.66,7.66,0,0,0-2.49-.24c-.82.72-.57.69-.89,1.75a154.56,154.56,0,0,0-4.34,19.24c-.12,0-.21-.05-.34,0-.39,0-.68-.14-1,.18a2.3,2.3,0,0,0-.55,1.28c-.74,3.45-1.28,7-1.89,10.45-.3,1.72-.53,3.47-1,5.16A31.63,31.63,0,0,1,90.41,239a6.9,6.9,0,0,0-1,1.38,5.09,5.09,0,0,0-.36,1.73c-.17,2.44-.17,5-.15,7.42.13,13.38,1,26.55-1.06,39.84-.21,1.37-.45,2.6-.68,4.1-.16,1-.78,2.82-.2,3.86.32.57,1.32.67,1.82.89.71.32,1.35.53,2,.78,1.36.49,2.71.93,4,1.49a166.1,166.1,0,0,0,16-26.2c.86,8.4,2.19,16.71,3.23,25.12a39.5,39.5,0,0,0,7.67.36c1.82-.78,1.64-2.76,2.19-4.64,1.71-5.8,3.22-11.64,4.35-17.58A165.67,165.67,0,0,0,131.25,247.39Z"/><path class="cls-31" d="M120.31,159.39l.3,0c.35,0,.84-.42.76-.76-.29-1.12-2.17-1-1.22-2.35.26-.36,2.87-.94,2.89-1.36a3.11,3.11,0,0,0-3.28-3.48c-1.3.08-2,1.16-2.84,2-1.28,1.26-2.23,2.75-3.54,4a.66.66,0,0,0-.27.4,1,1,0,0,0,.12.51c.63,1.4,1.18,2.63,2.8,3,.22.05.39-.12.57-.22.52-.3,1-.66,1.53-1a4,4,0,0,1,1.24-.58A7.3,7.3,0,0,1,120.31,159.39Z"/><path class="cls-29" d="M99.72,166.8c.71-.65,1.55-1.06,2.67-1.87,1.35-1,9.64-8.12,9.84-8.13,4-.18,3.17,3.71,6.09,4.42-2.88,2.85-5.51,4.79-8.47,7.67-5.17,5-7.19,8.49-5.57,15.93.46,2.09,1.78,3.56.64,5.68-.44.81-1.28,1.23-1.87,2-3.76,4.77-5.34,10.47-7.8,16-.19.4-.56.66-1,.41a.72.72,0,0,1-.26-.5c-.48-1.83-.74-3.79-1.16-5.62s-1.39-3.27-1.44-5.18c-.1-3.87-.49-7.67,0-11.59C92.3,178.57,94.05,172,99.72,166.8Z"/><path class="cls-31" d="M130.87,163.1l-.22-.25c-.23-.29-.44-.91-.15-1.15,1-.81,2.4.8,2.27-1.13,0-.53-2.24-2.87-2-3.32,1.1-2.29,3.16-2,4.75-.65,1.08,1,1.26,2.54,1.54,3.84.42,2,.4,4,.74,6a.63.63,0,0,1-.45.85c-1.42.68-2.61,1.22-4.08.37-.21-.12-.25-.38-.33-.59-.24-.62-.43-1.26-.66-1.88a5.22,5.22,0,0,0-.67-1.36A6.21,6.21,0,0,0,130.87,163.1Z"/><path class="cls-29" d="M141.64,183.49c-.06-.87-.46-1.82-.61-3.24-.17-1.71-1.85-13.33-2-13.47-3-2.89-4.9.69-7.63-.75.56,4.06,1.25,7.73,1.5,11.83.42,7.14-.55,10.69-6.37,15.07-1.17.88-2.5,1.06-3.57,1.7s-1.4.73-1.55,2.18c-.24,2.31,0,4.79-.1,7.22a20.84,20.84,0,0,0,1,8,1.08,1.08,0,0,0,.51.59.4.4,0,0,0,.42-.06,39.83,39.83,0,0,0,6.44-5.06c2.26-2.08,4.57-3.1,6.45-6C139.66,196.05,142.12,190.39,141.64,183.49Z"/><path class="cls-33" d="M141.31,127.33c-10.24,7.92-17.63,26.16-21.8,37.75L127,168c3.76-13.24,9-27.4,17.84-38.08Z"/><path class="cls-34" d="M195.12,99.22c-12.35-2.65-30-3.49-40.82,2.75S141.42,118.91,141,130c9.76,5.34,20,9.05,30.89,2.91S191.09,111.19,195.12,99.22Z"/><path class="cls-35" d="M141.19,129.94c.83.56,1.7,1.05,2.57,1.53l31.41-20.89-34,16.37C141.16,128,141.13,129,141.19,129.94Z"/><path class="cls-34" d="M105.49,91.88c-2.29,11.09-3,26.71,2.61,36.4s15.13,11.44,25,11.75c4.73-8.72,8-17.87,2.47-27.56S116.21,95.48,105.49,91.88Z"/><path class="cls-35" d="M133.07,139.91c.5-.74.93-1.52,1.36-2.3l-18.74-28,14.71,30.28C131.29,140,132.18,140,133.07,139.91Z"/><path class="cls-27" d="M141.19,129.94c16.1,3,34.44-.85,45.6-13.31C177.49,135.92,159.61,141.73,141.19,129.94Z"/></svg>