<svg xmlns="http://www.w3.org/2000/svg" viewBox="0 0 600 319.21"><defs><style>.cls-1{isolation:isolate;}.cls-2{opacity:0.15;}.cls-23,.cls-3,.cls-4,.cls-5,.cls-9{mix-blend-mode:overlay;}.cls-23,.cls-3{opacity:0.2;}.cls-4,.cls-9{opacity:0.5;}.cls-5{opacity:0.4;}.cls-6{fill:#8f9bf0;}.cls-7{fill:#6073c9;}.cls-8{fill:#6476dd;}.cls-9{fill:#fcf2d6;}.cls-10{fill:#7b8be2;}.cls-11{fill:#ce6c2f;}.cls-12{fill:#3caa26;}.cls-13{fill:#52c43e;}.cls-14{fill:#3a991f;}.cls-15{fill:#ffe350;}.cls-16{fill:#ffc02a;}.cls-17{fill:#e6a679;}.cls-18{fill:#ffca3e;}.cls-19{fill:#ffdb4d;}.cls-20{fill:#f4b69f;}.cls-21,.cls-23{fill:#fff;}.cls-22{fill:#ffebe5;}.cls-24{fill:#ffe0c5;}.cls-25{fill:#f7f0dd;}.cls-26{fill:#e4dbab;}.cls-27{fill:#eadcb2;}</style></defs><g class="cls-1"><g id="Layer_1" data-name="Layer 1"><g class="cls-2"><path d="M586.77,226.61a2.59,2.59,0,0,1-2.37,2.77h-6.32a2.59,2.59,0,0,1-2.37-2.77v-4.79a2.59,2.59,0,0,1,2.37-2.77h6.32a2.59,2.59,0,0,1,2.37,2.77Z"/><path d="M587.69,225a1.2,1.2,0,0,1-1.2,1.2H576a1.2,1.2,0,0,1-1.2-1.2h0a1.2,1.2,0,0,1,1.2-1.2h10.51a1.2,1.2,0,0,1,1.2,1.2Z"/><rect x="564.3" y="269.35" width="34.24" height="36.05" rx="4.98"/><path d="M564.31,273.18s-.63-32.21,12.63-45.83h4.65v45.83Z"/><path d="M598.53,273.18s.62-32.21-12.64-45.83h-4.65v45.83Z"/><path d="M600,269.48a2.68,2.68,0,0,1-2.68,2.68H565.16a2.69,2.69,0,0,1-2.69-2.68v-.26a2.7,2.7,0,0,1,2.69-2.68h32.16a2.69,2.69,0,0,1,2.68,2.68Z"/><path d="M600,276.45a2.68,2.68,0,0,1-2.68,2.68H565.16a2.69,2.69,0,0,1-2.69-2.68v-.26a2.69,2.69,0,0,1,2.69-2.68h32.16a2.68,2.68,0,0,1,2.68,2.68Z"/><rect x="562.47" y="280.48" width="37.53" height="5.62" rx="2.68"/><path d="M600,290.39a2.69,2.69,0,0,1-2.68,2.68H565.16a2.7,2.7,0,0,1-2.69-2.68v-.26a2.69,2.69,0,0,1,2.69-2.68h32.16a2.68,2.68,0,0,1,2.68,2.68Z"/><path d="M600,297.35a2.68,2.68,0,0,1-2.68,2.69H565.16a2.69,2.69,0,0,1-2.69-2.69v-.25a2.69,2.69,0,0,1,2.69-2.68h32.16A2.68,2.68,0,0,1,600,297.1Z"/><path class="cls-3" d="M600,269.48v-.26a2.69,2.69,0,0,0-1.64-2.47c-.56-10.11-2.91-29.58-12.47-39.4h-8.95l-.27.32c9.63,4.3,16.64,17.34,16.64,32.76,0,18.94-10.56,34.29-23.58,34.29a16.87,16.87,0,0,1-5.43-.92v.77a2.68,2.68,0,0,0-1.83,2.53v.25a2.67,2.67,0,0,0,1.83,2.53v.54a5,5,0,0,0,5,5h24.27a5,5,0,0,0,5-5v-.69a2.66,2.66,0,0,0,1.47-2.38v-.25a2.68,2.68,0,0,0-1.47-2.38v-2a2.65,2.65,0,0,0,1.47-2.37v-.26a2.65,2.65,0,0,0-1.47-2.37v-2a2.68,2.68,0,0,0,1.47-2.38v-.26a2.65,2.65,0,0,0-1.47-2.37v-2a2.68,2.68,0,0,0,1.47-2.38v-.26a2.66,2.66,0,0,0-1.52-2.4,4.08,4.08,0,0,0-.09-.61h.14s0-.47,0-1.32A2.67,2.67,0,0,0,600,269.48Z"/><path class="cls-4" d="M574.22,291.6a1,1,0,0,1-.93,1h0a.94.94,0,0,1-.95-.93l-.66-44.53a.92.92,0,0,1,.92-.95h0a1,1,0,0,1,1,.92Z"/><polygon points="281.95 50.38 244.53 50.91 244.09 19.33 281.5 18.8 281.95 50.38"/><path d="M290.21,15.27a12.17,12.17,0,0,1-12,12.33L248.09,28a12.15,12.15,0,0,1-12.32-12h0a12.16,12.16,0,0,1,12-12.32l30.13-.43a12.16,12.16,0,0,1,12.33,12Z"/><path d="M328.39,92.5l-.34-23.32a19.39,19.39,0,0,0-12.88-18v0L281.71,32.88l-19.95.29h0l-17.48.25L212.43,52.61v0A19.43,19.43,0,0,0,200.07,71l.33,23.33a19.37,19.37,0,0,0,5.85,13.62h0s6.76,8.31-.46,15.56c0,0,0,0,0,0a15.09,15.09,0,0,0,.47,22.5c.1.09.18.22.29.31,2.92,2.43,2.31,6.17-.56,8.46a.31.31,0,0,0,0,.07,15.16,15.16,0,0,0,2.17,23.41l.06.06c5.28,4.48,9.11,17.79-.37,26.07v0a15.09,15.09,0,0,0,.64,24.08v.06s8.9,8.1-.86,19.82c-.27.31-.54.63-.79.95,0,.06-.09.12-.14.17h0a19.39,19.39,0,0,0-3.92,11.95l.33,23.34A19.45,19.45,0,0,0,222.82,304l46.32-.65h0l42.79-.61A19.46,19.46,0,0,0,331.09,283l-.34-23.33a19.4,19.4,0,0,0-4.25-11.84h0c-.06-.06-.11-.13-.17-.18-.24-.31-.5-.59-.77-.88-10.13-11.45-1.46-19.82-1.46-19.82v-.05a15.08,15.08,0,0,0,0-24.1v0c-9.72-8-6.26-21.42-1.11-26,0,0,0,0,.05-.06a15.19,15.19,0,0,0,1.5-23.48.26.26,0,0,0,0-.05c-2.93-2.23-3.65-5.94-.8-8.45a3.82,3.82,0,0,0,.27-.32,15.07,15.07,0,0,0-.15-22.49.31.31,0,0,0,0-.07c-7.34-7-1-15.35-.9-15.53A19.4,19.4,0,0,0,328.39,92.5Z"/><path class="cls-4" d="M324.2,227v-.05a15.19,15.19,0,0,0,6-12.26,14.8,14.8,0,0,0-1.95-7.16,147.74,147.74,0,0,1-125.11,72.65l0,4.69A19.45,19.45,0,0,0,222.89,304l46.33-.65,42.78-.61A19.45,19.45,0,0,0,331.16,283l-.33-23.33a19.39,19.39,0,0,0-4.26-11.84h0l-.17-.19c-.23-.3-.49-.57-.76-.86C315.52,235.34,324.2,227,324.2,227Z"/><path class="cls-4" d="M324,144.39a15.07,15.07,0,0,0-.15-22.49.31.31,0,0,0,0-.07,11.64,11.64,0,0,1-2.26-2.89L208,120.62a12.34,12.34,0,0,1-2.16,2.89s0,0,0,0a15.09,15.09,0,0,0,.47,22.5c.1.09.18.22.29.31a4.87,4.87,0,0,1,1.87,3.51L322,148.19a4.93,4.93,0,0,1,1.77-3.48A3.82,3.82,0,0,0,324,144.39Z"/><path class="cls-4" d="M324.12,227v-.05a15.08,15.08,0,0,0,0-24.1v0a16.89,16.89,0,0,1-3.46-3.88l-109.52,1.63a17,17,0,0,1-3.3,3.9v0a15.09,15.09,0,0,0,.64,24.08v.06a12.86,12.86,0,0,1,3.12,5.23l109.58-1.63A13,13,0,0,1,324.12,227Z"/><path class="cls-4" d="M328.05,69.18a19.39,19.39,0,0,0-12.88-18v0l-2.24-1.22-98.46,1.46-2,1.22v0A19.43,19.43,0,0,0,200.07,71l.33,23.33a19.28,19.28,0,0,0,3.11,10.22l122.11-1.8a19.36,19.36,0,0,0,2.77-10.24Z"/><path class="cls-4" d="M232.23,261.53a4,4,0,0,1-4,4.09h0a4,4,0,0,1-4.09-4L221.34,71a4,4,0,0,1,4-4.1h0a4,4,0,0,1,4.1,4Z"/><path d="M381.45,297.56a5.67,5.67,0,0,1-5.67,5.67h0a5.67,5.67,0,0,1-5.68-5.67v-6.84a5.67,5.67,0,0,1,5.68-5.67h0a5.67,5.67,0,0,1,5.67,5.67Z"/><path d="M483.48,297.56a5.68,5.68,0,0,1-5.68,5.67h0a5.68,5.68,0,0,1-5.68-5.67v-6.84a5.68,5.68,0,0,1,5.68-5.67h0a5.68,5.68,0,0,1,5.68,5.67Z"/><path d="M331.85,94.8H436.38c5.67,0,10.28,2.46,10.28,5.51l6.16,56.43H315.41l6.16-56.43C321.57,97.26,326.18,94.8,331.85,94.8Z"/><path d="M432.15,112.49a4.08,4.08,0,0,1-4.08,4.07H339.9a4.08,4.08,0,0,1-4.08-4.07h0a4.08,4.08,0,0,1,4.08-4.07h88.17a4.08,4.08,0,0,1,4.08,4.07Z"/><polygon points="318.79 125.77 315.41 156.74 452.82 156.74 449.44 125.77 318.79 125.77"/><path d="M327,299.78H441.21c6.21,0,11.24-5.7,11.24-12.73l6.73-130.31H309l6.74,130.31C315.78,294.08,320.81,299.78,327,299.78Z"/><path d="M440.25,222.51A11.23,11.23,0,0,1,429,233.74h-88.1a11.22,11.22,0,0,1-11.22-11.23V209.8a11.22,11.22,0,0,1,11.22-11.23H429a11.23,11.23,0,0,1,11.23,11.23Z"/><path d="M410.72,254.86H357.28A11.23,11.23,0,0,0,346,266.08v33.7H422v-33.7A11.22,11.22,0,0,0,410.72,254.86Z"/><polygon class="cls-5" points="309.05 156.74 310.3 180.99 457.92 180.99 459.18 156.74 309.05 156.74"/><path class="cls-5" d="M327,299.78H441.21c5.45,0,10-4.39,11-10.22H316C317,295.39,321.57,299.78,327,299.78Z"/><path class="cls-3" d="M403.35,156.74a74.42,74.42,0,0,1-88.3,116.15l.73,14.16c0,7,5,12.73,11.24,12.73H441.21c6.21,0,11.24-5.7,11.24-12.73l6.73-130.31Z"/><path d="M458.67,131.84H307.41c-5.68,0-10.29,5-10.29,11.24v19H469v-19C469,136.87,464.35,131.84,458.67,131.84Z"/><path d="M544.53,209.83c0,3.18-2.22,5.76-4.94,5.76H526.41c-2.72,0-4.94-2.58-4.94-5.76v-10c0-3.18,2.22-5.76,4.94-5.76h13.18c2.72,0,4.94,2.58,4.94,5.76Z"/><path d="M569.69,236.92c0,17.71-16.34,32.07-36.5,32.07s-36.5-14.36-36.5-32.07,16.34-32.08,36.5-32.08S569.69,219.2,569.69,236.92Z"/><path d="M569.69,302.43a5.75,5.75,0,0,1-5.76,5.75H502.46a5.76,5.76,0,0,1-5.77-5.75v-70.7a5.76,5.76,0,0,1,5.77-5.76h61.47a5.76,5.76,0,0,1,5.76,5.76Z"/><path d="M573.91,236.73a5.75,5.75,0,0,1-5.75,5.76H499a5.76,5.76,0,0,1-5.77-5.76v-.56a5.76,5.76,0,0,1,5.77-5.76h69.16a5.75,5.75,0,0,1,5.75,5.76Z"/><path d="M573.91,251.71a5.75,5.75,0,0,1-5.75,5.76H499a5.76,5.76,0,0,1-5.77-5.76v-.55a5.77,5.77,0,0,1,5.77-5.77h69.16a5.76,5.76,0,0,1,5.75,5.77Z"/><path d="M573.91,266.69a5.75,5.75,0,0,1-5.75,5.76H499a5.76,5.76,0,0,1-5.77-5.76v-.55a5.77,5.77,0,0,1,5.77-5.77h69.16a5.76,5.76,0,0,1,5.75,5.77Z"/><path d="M573.91,281.67a5.76,5.76,0,0,1-5.75,5.77H499a5.77,5.77,0,0,1-5.77-5.77v-.55a5.76,5.76,0,0,1,5.77-5.76h69.16a5.75,5.75,0,0,1,5.75,5.76Z"/><path d="M573.91,296.66a5.76,5.76,0,0,1-5.75,5.77H499a5.77,5.77,0,0,1-5.77-5.77v-.55a5.77,5.77,0,0,1,5.77-5.77h69.16a5.76,5.76,0,0,1,5.75,5.77Z"/><path d="M546.45,206.37a2.5,2.5,0,0,1-2.5,2.5h-21.9a2.5,2.5,0,0,1-2.5-2.5h0a2.49,2.49,0,0,1,2.5-2.49H544a2.49,2.49,0,0,1,2.5,2.49Z"/><polygon points="520.85 207.89 516.56 207.89 504.36 178.85 507.96 180.08 517.93 206.1 520.71 206.03 520.85 207.89"/><polygon points="544.95 207.89 549.25 207.89 561.46 178.85 557.85 180.08 547.88 206.1 545.09 206.03 544.95 207.89"/><path d="M504.36,178.85s27.53-27.13,57.1,0l-3.61,1.23s-24-21.69-49.89,0C508,180.08,505.1,180.54,504.36,178.85Z"/><path class="cls-3" d="M573.91,236.73v-.56a5.74,5.74,0,0,0-4.33-5.56,5.65,5.65,0,0,0-1.35-2.68,32.8,32.8,0,0,0-14.81-17.7c9.14,8.92,14.74,20.84,14.74,33.92,0,27.66-24.95,50.08-55.72,50.08a61.51,61.51,0,0,1-17.22-2.46,5.73,5.73,0,0,0-2,4.34v.55a5.75,5.75,0,0,0,3.46,5.27v.5a5.76,5.76,0,0,0,5.77,5.75h61.47a5.75,5.75,0,0,0,5.76-5.75v-.24a5.74,5.74,0,0,0,4.22-5.53v-.55a5.74,5.74,0,0,0-4.22-5.53V287.2a5.74,5.74,0,0,0,4.22-5.53v-.55a5.75,5.75,0,0,0-4.22-5.53v-3.37a5.74,5.74,0,0,0,4.22-5.53v-.55a5.74,5.74,0,0,0-4.22-5.53v-3.37a5.74,5.74,0,0,0,4.22-5.53v-.55a5.77,5.77,0,0,0-4.22-5.54v-3.37A5.72,5.72,0,0,0,573.91,236.73Z"/><path class="cls-4" d="M512.6,286.16a1.25,1.25,0,0,1-1.24,1.28h0a1.27,1.27,0,0,1-1.28-1.24l-.88-59.6a1.27,1.27,0,0,1,1.24-1.28h0a1.26,1.26,0,0,1,1.28,1.24Z"/><path d="M466.68,185.42S440,152.33,450.1,150.16s12.19,8.68,16.58,6.51-.18-15.2,5.36-15.2,1.93,16.65,5.55,17.37,8-7.24,11.57-2.89,1.45,13,7.24,13-.27,7.6-13.52,16.46S467.36,199,466.68,185.42Z"/><path d="M436.45,302.35s-28.65-15.34-17.7-46,30.93-61.49,40.54-66.84c20.67-11.5,49.31-4.39,62.46,44.92s14.24,73.41-21.91,73.41S447.19,311.16,436.45,302.35Z"/><path class="cls-3" d="M436.45,302.35c10.74,8.81,27.23,5.48,63.39,5.48s35.06-24.1,21.91-73.41c-10-37.41-28.86-50.49-46.42-49.63-.68,5.31-1.92,23.73,12.29,31.2,16.67,8.76,22.8,16.07,11,27s11.8,42.37-11,42.37c-21,0-39.95,16-69.59-4.71C423,295.12,436.45,302.35,436.45,302.35Z"/><path d="M463.49,181.3l.35,5a39.06,39.06,0,0,0,23.78,1.25v-5.49S480,185.5,463.49,181.3Z"/><path d="M107.68,305.86s-44.93-7.87-27-58.41,44.19-70.76,50.54-73c12.74-4.49,34.82-7.86,53.92,47.18s28.08,83.11,0,84.24S107.68,305.86,107.68,305.86Z"/><path class="cls-3" d="M107.68,305.86s49.42,1.12,77.5,0,19.09-29.2,0-84.24c-10.8-31.13-22.56-43.57-33-47.69a16.83,16.83,0,0,0-1.78,1.08,56.45,56.45,0,0,0,5.51,15.16c4.39,8.42,1.79,32.57-12.49,43.8s12.59,32,4.73,50.55-44.93-5.06-58.4-14.61c-5.48-3.87-9.82-4.58-13.07-4.07C74.22,300,107.68,305.86,107.68,305.86Z"/><path d="M134.2,173.5S106.56,139.25,117,137s12.62,9,17.16,6.74S134,128,139.75,128s2,17.23,5.74,18,8.24-7.49,12-3S159,156.48,165,156.48s-.27,7.85-14,17S134.9,187.54,134.2,173.5Z"/><path d="M130.9,169.25l.36,5.19a40.47,40.47,0,0,0,24.61,1.3v-5.69S147.94,173.59,130.9,169.25Z"/><path d="M95.25,250.37s10.74,22.92,23.09,16.18-4.49-32.27,6.75-42.25,22-35.25,14.66-39.19-23.09,10.68-28.14,18.54S90.2,241.65,95.25,250.37Z"/><rect x="19.9" y="207.31" width="13.12" height="11.07" transform="translate(-3.05 0.4) rotate(-0.82)"/><path d="M36,206a4.27,4.27,0,0,1-4.2,4.32l-10.57.15a4.27,4.27,0,0,1-4.32-4.2h0a4.26,4.26,0,0,1,4.2-4.32l10.57-.15A4.26,4.26,0,0,1,36,206Z"/><path d="M49.37,233.06l-.12-8.18a6.8,6.8,0,0,0-4.51-6.32h0L33,212.15l-7,.11h0l-6.12.09L8.72,219.07h0a6.79,6.79,0,0,0-4.33,6.43l.12,8.18a6.7,6.7,0,0,0,2.05,4.77h0s2.36,2.91-.16,5.45v0a5.29,5.29,0,0,0,.17,7.89,1,1,0,0,0,.1.11,1.84,1.84,0,0,1-.2,3,0,0,0,0,0,0,0,5.32,5.32,0,0,0,.76,8.21,0,0,0,0,1,0,0c1.86,1.57,3.2,6.23-.12,9.14h0a5.28,5.28,0,0,0,.22,8.44v0s3.12,2.84-.3,7c-.09.1-.19.21-.28.33l0,.06h0a6.79,6.79,0,0,0-1.37,4.19l.11,8.18a6.82,6.82,0,0,0,6.91,6.72L28.6,307h0l15-.22a6.81,6.81,0,0,0,6.72-6.91l-.12-8.17a6.8,6.8,0,0,0-1.49-4.16h0l-.06-.06a4,4,0,0,0-.27-.31c-3.55-4-.51-6.95-.51-6.95v0a5.28,5.28,0,0,0,0-8.44h0c-3.41-2.81-2.2-7.51-.39-9.13l0,0a5.32,5.32,0,0,0,.52-8.22v0a1.83,1.83,0,0,1-.28-3l.09-.11a5.29,5.29,0,0,0,0-7.89v0c-2.57-2.44-.36-5.38-.32-5.44A6.78,6.78,0,0,0,49.37,233.06Z"/><path class="cls-4" d="M47.9,280.19v0a5.29,5.29,0,0,0,2.1-4.29,5.17,5.17,0,0,0-.68-2.51A51.79,51.79,0,0,1,5.45,298.83l0,1.65a6.81,6.81,0,0,0,6.91,6.72L28.63,307l15-.22a6.8,6.8,0,0,0,6.71-6.91l-.11-8.17a6.87,6.87,0,0,0-1.49-4.16h0l-.06-.06a2.55,2.55,0,0,0-.26-.3C44.86,283.13,47.9,280.19,47.9,280.19Z"/><path class="cls-4" d="M47.83,251.25a5.29,5.29,0,0,0,0-7.89v0a4,4,0,0,1-.79-1l-39.83.6a4.35,4.35,0,0,1-.75,1v0a5.29,5.29,0,0,0,.17,7.89,1,1,0,0,0,.1.11,1.74,1.74,0,0,1,.65,1.23l39.81-.59a1.68,1.68,0,0,1,.62-1.22Z"/><path class="cls-4" d="M47.88,280.19v0a5.28,5.28,0,0,0,0-8.44h0a6.16,6.16,0,0,1-1.22-1.36l-38.39.57a6.3,6.3,0,0,1-1.15,1.37h0a5.28,5.28,0,0,0,.22,8.44v0a4.43,4.43,0,0,1,1.1,1.83L46.85,282A4.56,4.56,0,0,1,47.88,280.19Z"/><path class="cls-4" d="M49.25,224.88a6.8,6.8,0,0,0-4.51-6.32h0l-.79-.43-34.52.51-.71.43h0a6.79,6.79,0,0,0-4.33,6.43l.12,8.18a6.77,6.77,0,0,0,1.08,3.59l42.81-.64a6.72,6.72,0,0,0,1-3.58Z"/><rect x="85.13" y="204.69" width="21.06" height="19.03" rx="2.77"/><path d="M103.38,307.19H53.2a11.31,11.31,0,0,1-11.32-11.31v-50a11.3,11.3,0,0,1,4.8-9.24L78.5,214.16A11.26,11.26,0,0,1,85,212.08h18.36a11.31,11.31,0,0,1,11.31,11.32v72.48a11.31,11.31,0,0,1-11.31,11.31Z"/><path d="M103.38,307.19H53.2a11.31,11.31,0,0,1-11.32-11.31v-50a11.3,11.3,0,0,1,4.8-9.24L78.5,214.16A11.26,11.26,0,0,1,85,212.08h18.36a11.31,11.31,0,0,1,11.31,11.32v72.48a11.31,11.31,0,0,1-11.31,11.31Z"/><path d="M57.36,236.13l16.82-11.92a2.63,2.63,0,0,1,4.16,2.15v11.92a2.64,2.64,0,0,1-2.64,2.63H58.88a2.63,2.63,0,0,1-1.52-4.78Z"/><path class="cls-5" d="M99.8,291.11a1.57,1.57,0,0,1,0,2.39h0a2.06,2.06,0,0,1-2.67,0L56.77,257.94a1.55,1.55,0,0,1,0-2.37h0a2.06,2.06,0,0,1,2.67,0Z"/><path class="cls-5" d="M96.58,255.1a2.06,2.06,0,0,1,2.66,0h0a1.55,1.55,0,0,1,.06,2.38L60,294a2,2,0,0,1-2.67.05h0a1.55,1.55,0,0,1,0-2.37Z"/><path class="cls-5" d="M53.2,307.19h50.18A11.32,11.32,0,0,0,114.64,297H41.94A11.32,11.32,0,0,0,53.2,307.19Z"/><path class="cls-3" d="M103.38,212.08h-2.06a59.3,59.3,0,0,1,7,28.2c0,28.26-18.81,51.16-42,51.16a37,37,0,0,1-24.39-9.5v13.94A11.31,11.31,0,0,0,53.2,307.19h50.18a11.31,11.31,0,0,0,11.31-11.31V223.4A11.31,11.31,0,0,0,103.38,212.08Z"/><path d="M232.79,207.85h0l-11.43-54H203.31l-10.68,54h0c1.43,5.41-8.14,8-8.14,14v67.74a16.08,16.08,0,0,0,16.08,16.08h24.27a16.08,16.08,0,0,0,16.09-16.08V221.83c0-6-9.58-8.57-8.15-14Z"/><path d="M212.71,279.09c15.59,0,28.23-3,28.23-6.69V238.62c0,3.69-12.64,6.68-28.23,6.68-15.33,0-27.78-2.89-28.18-6.51l0,33.61C184.5,276.1,197.12,279.09,212.71,279.09Z"/><path class="cls-3" d="M197.46,293.25l-.72-65.18c-.1-8.45-5.94-8.87-5.85,0l.73,65.18C191.66,297.18,197.5,297,197.46,293.25Z"/><path class="cls-3" d="M224.85,305.65a16.08,16.08,0,0,0,16.09-16.08V221.83c0-6-9.58-8.57-8.15-14h0l-11.43-54h-8.48c1.91,13.52,8.64,59.43,12.37,64.17,4.37,5.58,10.74,25.88,0,33.44s-13.35,24.64-2.9,27.25c9.48,2.36,5.79,24-24.31,26.75a16.08,16.08,0,0,0,2.53.22Z"/><path d="M222.36,153.94c0,.87-4.47,1.57-10,1.57s-10-.7-10-1.57,4.47-1.57,10-1.57,10,.7,10,1.57Z"/><rect x="202.37" y="146.21" width="20" height="7.73"/><path d="M222.36,146.21c0,.87-4.47,1.58-10,1.58s-10-.71-10-1.58,4.47-1.57,10-1.57,10,.71,10,1.57Z"/><rect x="479.58" y="293.28" width="11.08" height="9.35" transform="translate(182.64 780.26) rotate(-89.46)"/><path d="M490.72,306.13a3.58,3.58,0,0,1-3.56-3.63l.08-8.92a3.6,3.6,0,0,1,3.63-3.56h0a3.6,3.6,0,0,1,3.57,3.63l-.08,8.93a3.6,3.6,0,0,1-3.64,3.55Z"/><path d="M467.59,316.89l6.91.07a5.76,5.76,0,0,0,5.42-3.69h0l5.65-9.77.06-5.9h0l0-5.18-5.46-9.56h0a5.72,5.72,0,0,0-5.35-3.79L468,279a5.72,5.72,0,0,0-4.07,1.64h0s-2.51,1.95-4.6-.25h0a4.44,4.44,0,0,0-6.66,0s-.07.05-.1.08a1.55,1.55,0,0,1-2.5-.22h0a4.48,4.48,0,0,0-3.24-1.43,4.53,4.53,0,0,0-3.72,1.9s0,0,0,0a5.36,5.36,0,0,1-7.72-.29h0a4.43,4.43,0,0,0-3.51-1.77,4.49,4.49,0,0,0-3.62,1.79h0s-2.46,2.57-5.86-.4a2.2,2.2,0,0,0-.28-.24l0-.05h0a5.65,5.65,0,0,0-3.52-1.23l-6.91-.07a5.76,5.76,0,0,0-5.8,5.7l-.13,13.72h0l-.12,12.66a5.77,5.77,0,0,0,5.7,5.82l6.92.06a5.7,5.7,0,0,0,3.52-1.18h0s0,0,.05,0a2.75,2.75,0,0,0,.26-.22c3.47-2.92,5.88-.29,5.88-.29h0a4.45,4.45,0,0,0,7.13.15h0a5.33,5.33,0,0,1,7.71-.14,0,0,0,0,0,0,0,4.47,4.47,0,0,0,3.69,2,4.56,4.56,0,0,0,3.26-1.36h0a1.55,1.55,0,0,1,2.51-.17.31.31,0,0,0,.09.07,4.47,4.47,0,0,0,6.66.12h0c2.11-2.12,4.56-.2,4.6-.15A5.74,5.74,0,0,0,467.59,316.89Z"/><path class="cls-4" d="M427.82,314.72h0a4.43,4.43,0,0,0,3.59,1.85,4.29,4.29,0,0,0,2.13-.53,43.71,43.71,0,0,1-20.63-37.54h-1.39a5.75,5.75,0,0,0-5.81,5.7l-.14,13.72-.11,12.67a5.74,5.74,0,0,0,5.7,5.8l6.91.08a5.81,5.81,0,0,0,3.53-1.18h0s0,0,.06,0l.25-.22C425.41,312.1,427.82,314.72,427.82,314.72Z"/><path class="cls-4" d="M452.27,315.23a4.47,4.47,0,0,0,6.66.12h0a3.71,3.71,0,0,1,.87-.66l.29-33.63a3.25,3.25,0,0,1-.83-.66h0a4.44,4.44,0,0,0-6.66,0s-.07.05-.1.08a1.45,1.45,0,0,1-1.05.54l-.29,33.61a1.51,1.51,0,0,1,1,.56A.31.31,0,0,0,452.27,315.23Z"/><path class="cls-4" d="M427.82,314.7h0a4.45,4.45,0,0,0,7.13.15h0a4.85,4.85,0,0,1,1.16-1l.28-32.43a4.78,4.78,0,0,1-1.13-1h0a4.43,4.43,0,0,0-3.51-1.77,4.49,4.49,0,0,0-3.62,1.79h0a3.9,3.9,0,0,1-1.57.89l-.27,32.43A4,4,0,0,1,427.82,314.7Z"/><path class="cls-4" d="M474.5,317a5.76,5.76,0,0,0,5.42-3.69h0l.39-.64.25-29.17-.35-.6h0a5.72,5.72,0,0,0-5.35-3.79L468,279a5.67,5.67,0,0,0-3.05.85L464.6,316a5.64,5.64,0,0,0,3,.88Z"/><path class="cls-4" d="M418.23,287.25a1.18,1.18,0,0,1-1.18-1.2h0a1.2,1.2,0,0,1,1.21-1.18l56.46.49a1.19,1.19,0,0,1,1.18,1.2h0a1.21,1.21,0,0,1-1.2,1.19Z"/><path d="M207,310.9c1.33-2.52,1.61-5.93-8-7.8-10.67-2.06-30.46-3.84-39-9.09-6.31-3.87-25-24.67-28.73-6.68-1.48,7.2,7.84,13.68,25.4,13.21,9-.25,26.71,4.84,34.85,8.68C195,310.89,203.34,317.93,207,310.9Z"/><path d="M156.32,297.94c1.17-.18,4-1.58-.43-4.14S141,278.59,136.11,283s-2.59,7.8-.4,9.56S147.39,299.28,156.32,297.94Z"/><path d="M191.49,309.22c-8.14-3.84-25.86-8.93-34.85-8.68-17.56.47-26.88-6-25.4-13.21a17.47,17.47,0,0,1,.65-2.37h0c-1.95,11,11.66,15,17.86,14.55s12.55.39,23.6,1.93,21,7.23,27.09,9.81a6.37,6.37,0,0,0,7-1.16,6.53,6.53,0,0,1-.37.81C203.34,317.93,195,310.89,191.49,309.22Z"/><path d="M116.52,298s-3.83,4.34,5.84,5.64,10.65,3.72,9.06,4.83-19.87-4.12-18.59-1,20,3.52,18.77,6.79-20-2.61-19.39.48,29.4,8.2,38.5.23c2.11-1.85,4.5-3.64,12.85-1.94s39.1,7,40.33,1c2.88-14.11-34.23-2.68-49.79-7.55C145.31,303.68,135.72,292.06,116.52,298Z"/><path d="M116.52,298s-4.36,3,5.32,4.34,10.3,2.88,8.72,4-19-2-17.73,1.15,19.12,1.38,17.91,4.65-19.15-.47-18.53,2.62,28.32,5.55,37.4-2.41c2.12-1.85,4.74-3.15,13.09-1.44s39.1,7,40.33,1c2.88-14.11-34.23-2.68-49.79-7.55C144.45,301.53,135.72,292.06,116.52,298Z"/></g><path class="cls-6" d="M582.38,223.31a2.59,2.59,0,0,1-2.37,2.77h-6.32a2.59,2.59,0,0,1-2.37-2.77v-4.79a2.58,2.58,0,0,1,2.37-2.76H580a2.58,2.58,0,0,1,2.37,2.76Z"/><path class="cls-7" d="M583.3,221.66a1.2,1.2,0,0,1-1.2,1.2H571.59a1.2,1.2,0,0,1-1.2-1.2h0a1.2,1.2,0,0,1,1.2-1.2H582.1a1.2,1.2,0,0,1,1.2,1.2Z"/><rect class="cls-8" x="559.91" y="266.06" width="34.24" height="36.05" rx="4.98"/><path class="cls-8" d="M559.91,269.89s-.62-32.21,12.64-45.83h4.65v45.83Z"/><path class="cls-8" d="M594.14,269.89s.62-32.21-12.64-45.83h-4.65v45.83Z"/><path class="cls-6" d="M595.61,266.19a2.68,2.68,0,0,1-2.68,2.68H560.77a2.69,2.69,0,0,1-2.69-2.68v-.26a2.69,2.69,0,0,1,2.69-2.68h32.16a2.68,2.68,0,0,1,2.68,2.68Z"/><path class="cls-6" d="M595.61,273.16a2.68,2.68,0,0,1-2.68,2.68H560.77a2.69,2.69,0,0,1-2.69-2.68v-.26a2.69,2.69,0,0,1,2.69-2.68h32.16a2.68,2.68,0,0,1,2.68,2.68Z"/><rect class="cls-6" x="558.08" y="277.19" width="37.53" height="5.62" rx="2.68"/><path class="cls-6" d="M595.61,287.09a2.68,2.68,0,0,1-2.68,2.68H560.77a2.69,2.69,0,0,1-2.69-2.68v-.25a2.69,2.69,0,0,1,2.69-2.68h32.16a2.68,2.68,0,0,1,2.68,2.68Z"/><path class="cls-6" d="M595.61,294.06a2.68,2.68,0,0,1-2.68,2.68H560.77a2.69,2.69,0,0,1-2.69-2.68v-.25a2.7,2.7,0,0,1,2.69-2.69h32.16a2.69,2.69,0,0,1,2.68,2.69Z"/><path class="cls-3" d="M595.61,266.19v-.26a2.69,2.69,0,0,0-1.64-2.47c-.56-10.11-2.91-29.58-12.47-39.4h-9l-.27.31c9.63,4.31,16.64,17.35,16.64,32.77,0,18.94-10.56,34.29-23.58,34.29a16.61,16.61,0,0,1-5.43-.93v.78a2.68,2.68,0,0,0-1.83,2.53v.25a2.68,2.68,0,0,0,1.83,2.53v.54a5,5,0,0,0,5,5h24.27a5,5,0,0,0,5-5v-.69a2.68,2.68,0,0,0,1.47-2.38v-.25a2.68,2.68,0,0,0-1.47-2.38v-2a2.66,2.66,0,0,0,1.47-2.38v-.25a2.68,2.68,0,0,0-1.47-2.38v-2a2.65,2.65,0,0,0,1.47-2.37v-.26a2.68,2.68,0,0,0-1.47-2.38v-1.95a2.68,2.68,0,0,0,1.47-2.38v-.26a2.68,2.68,0,0,0-1.52-2.41,4.14,4.14,0,0,0-.09-.6h.14s0-.48,0-1.32A2.68,2.68,0,0,0,595.61,266.19Z"/><path class="cls-9" d="M569.83,288.31a1,1,0,0,1-.93,1h0a.94.94,0,0,1-.95-.93l-.66-44.53a.94.94,0,0,1,.92-1h0a1,1,0,0,1,1,.93Z"/><polygon class="cls-10" points="277.56 47.09 240.14 47.62 239.7 16.04 277.11 15.51 277.56 47.09"/><path class="cls-6" d="M285.82,12a12.16,12.16,0,0,1-12,12.33l-30.14.42a12.15,12.15,0,0,1-12.32-12h0a12.15,12.15,0,0,1,12-12.32L273.49,0a12.16,12.16,0,0,1,12.33,12Z"/><path class="cls-6" d="M324,89.21l-.34-23.33a19.41,19.41,0,0,0-12.88-18h0L277.32,29.59l-19.95.29h0l-17.48.25L208,49.32v0A19.43,19.43,0,0,0,195.68,67.7L196,91a19.37,19.37,0,0,0,5.85,13.62h0s6.76,8.3-.46,15.55c0,0,0,.05,0,.06a15.08,15.08,0,0,0,.47,22.49,2.87,2.87,0,0,0,.29.31c2.92,2.44,2.31,6.17-.56,8.47l0,.06A15.17,15.17,0,0,0,203.74,175l.06,0c5.28,4.48,9.11,17.8-.37,26.08v0a15.08,15.08,0,0,0,.64,24.08v.05s8.9,8.11-.86,19.82c-.27.31-.54.63-.79,1-.05.06-.09.12-.14.17h0a19.37,19.37,0,0,0-3.92,11.95l.33,23.34a19.44,19.44,0,0,0,19.72,19.15l46.32-.65h0l42.79-.61a19.44,19.44,0,0,0,19.16-19.72l-.34-23.32a19.4,19.4,0,0,0-4.25-11.84h0a1.49,1.49,0,0,0-.17-.18c-.24-.31-.5-.59-.77-.88-10.13-11.45-1.46-19.82-1.46-19.82v-.06a15.07,15.07,0,0,0,0-24.09v0c-9.72-8-6.26-21.43-1.11-26.05l0,0a15.19,15.19,0,0,0,1.5-23.48l0,0c-2.93-2.23-3.65-5.94-.8-8.46a2.61,2.61,0,0,0,.27-.31,15.07,15.07,0,0,0-.15-22.49.45.45,0,0,0,0-.08c-7.34-7-1-15.34-.9-15.52A19.4,19.4,0,0,0,324,89.21Z"/><path class="cls-4" d="M319.81,223.67v0a15.16,15.16,0,0,0,6-12.26,14.83,14.83,0,0,0-2-7.16,147.73,147.73,0,0,1-125.12,72.66l.06,4.68A19.44,19.44,0,0,0,218.5,300.7l46.33-.65,42.78-.61a19.44,19.44,0,0,0,19.16-19.72l-.33-23.32a19.39,19.39,0,0,0-4.26-11.84h0l-.17-.19c-.24-.31-.49-.58-.76-.87C311.13,232.05,319.81,223.67,319.81,223.67Z"/><path class="cls-4" d="M319.6,141.1a15.07,15.07,0,0,0-.15-22.49.45.45,0,0,0,0-.08,11.78,11.78,0,0,1-2.26-2.88l-113.61,1.68a12.38,12.38,0,0,1-2.16,2.88s0,.05,0,.06a15.08,15.08,0,0,0,.47,22.49,2.87,2.87,0,0,0,.29.31,4.91,4.91,0,0,1,1.87,3.51l113.54-1.68a5,5,0,0,1,1.77-3.49A2.61,2.61,0,0,0,319.6,141.1Z"/><path class="cls-4" d="M319.73,223.68v-.06a15.07,15.07,0,0,0,0-24.09v0a17.1,17.1,0,0,1-3.46-3.88l-109.52,1.63a17.47,17.47,0,0,1-3.3,3.9v0a15.08,15.08,0,0,0,.64,24.08v.05a13,13,0,0,1,3.12,5.24l109.58-1.63A13,13,0,0,1,319.73,223.68Z"/><path class="cls-4" d="M323.66,65.88a19.41,19.41,0,0,0-12.88-18h0l-2.24-1.23L210.08,48.1l-2,1.22v0A19.43,19.43,0,0,0,195.68,67.7L196,91a19.28,19.28,0,0,0,3.11,10.22l122.11-1.8A19.36,19.36,0,0,0,324,89.21Z"/><path class="cls-9" d="M227.84,258.24a4,4,0,0,1-4,4.09h0a4,4,0,0,1-4.09-4L217,67.69a4,4,0,0,1,4-4.09h0a4,4,0,0,1,4.1,4Z"/><path class="cls-11" d="M377.06,294.26a5.68,5.68,0,0,1-5.68,5.68h0a5.67,5.67,0,0,1-5.67-5.68v-6.83a5.67,5.67,0,0,1,5.67-5.67h0a5.67,5.67,0,0,1,5.68,5.67Z"/><path class="cls-11" d="M479.09,294.26a5.68,5.68,0,0,1-5.68,5.68h0a5.68,5.68,0,0,1-5.68-5.68v-6.83a5.67,5.67,0,0,1,5.68-5.67h0a5.67,5.67,0,0,1,5.68,5.67Z"/><path class="cls-12" d="M327.46,91.5H432c5.67,0,10.28,2.47,10.28,5.52l6.16,56.43H311L317.18,97C317.18,94,321.79,91.5,327.46,91.5Z"/><path class="cls-13" d="M427.76,109.2a4.08,4.08,0,0,1-4.08,4.07H335.51a4.08,4.08,0,0,1-4.08-4.07h0a4.08,4.08,0,0,1,4.08-4.08h88.17a4.08,4.08,0,0,1,4.08,4.08Z"/><polygon class="cls-14" points="314.4 122.47 311.02 153.45 448.43 153.45 445.05 122.47 314.4 122.47"/><path class="cls-15" d="M322.63,296.48H436.82c6.21,0,11.24-5.69,11.24-12.72l6.73-130.31H304.65l6.74,130.31C311.39,290.79,316.42,296.48,322.63,296.48Z"/><path class="cls-16" d="M435.86,219.22a11.23,11.23,0,0,1-11.23,11.23h-88.1a11.22,11.22,0,0,1-11.22-11.23V206.51a11.22,11.22,0,0,1,11.22-11.23h88.1a11.23,11.23,0,0,1,11.23,11.23Z"/><path class="cls-16" d="M406.33,251.57H352.89a11.23,11.23,0,0,0-11.24,11.22v33.69h75.91V262.79A11.22,11.22,0,0,0,406.33,251.57Z"/><polygon class="cls-5" points="304.65 153.45 305.91 177.7 453.53 177.7 454.79 153.45 304.65 153.45"/><path class="cls-5" d="M322.63,296.48H436.82c5.45,0,10-4.38,11-10.21H311.62C312.65,292.1,317.18,296.48,322.63,296.48Z"/><path class="cls-3" d="M399,153.45a74.42,74.42,0,0,1-88.3,116.15l.73,14.16c0,7,5,12.72,11.24,12.72H436.82c6.21,0,11.24-5.69,11.24-12.72l6.73-130.31Z"/><path class="cls-13" d="M454.28,128.55H303c-5.68,0-10.29,5-10.29,11.23v19H464.57v-19C464.57,133.58,460,128.55,454.28,128.55Z"/><path class="cls-6" d="M540.14,206.53c0,3.19-2.22,5.77-4.94,5.77H522c-2.72,0-4.94-2.58-4.94-5.77v-10c0-3.19,2.22-5.76,4.94-5.76H535.2c2.72,0,4.94,2.57,4.94,5.76Z"/><path class="cls-8" d="M565.3,233.62c0,17.72-16.34,32.08-36.5,32.08s-36.5-14.36-36.5-32.08,16.34-32.07,36.5-32.07S565.3,215.9,565.3,233.62Z"/><path class="cls-8" d="M565.3,299.13a5.76,5.76,0,0,1-5.76,5.76H498.07a5.76,5.76,0,0,1-5.77-5.76V228.44a5.76,5.76,0,0,1,5.77-5.76h61.47a5.76,5.76,0,0,1,5.76,5.76Z"/><path class="cls-6" d="M569.52,233.43a5.76,5.76,0,0,1-5.75,5.77H494.61a5.77,5.77,0,0,1-5.77-5.77v-.55a5.77,5.77,0,0,1,5.77-5.77h69.16a5.76,5.76,0,0,1,5.75,5.77Z"/><path class="cls-6" d="M569.52,248.41a5.76,5.76,0,0,1-5.75,5.77H494.61a5.77,5.77,0,0,1-5.77-5.77v-.55a5.76,5.76,0,0,1,5.77-5.76h69.16a5.75,5.75,0,0,1,5.75,5.76Z"/><path class="cls-6" d="M569.52,263.4a5.75,5.75,0,0,1-5.75,5.76H494.61a5.76,5.76,0,0,1-5.77-5.76v-.55a5.77,5.77,0,0,1,5.77-5.77h69.16a5.76,5.76,0,0,1,5.75,5.77Z"/><path class="cls-6" d="M569.52,278.38a5.76,5.76,0,0,1-5.75,5.77H494.61a5.77,5.77,0,0,1-5.77-5.77v-.55a5.76,5.76,0,0,1,5.77-5.76h69.16a5.75,5.75,0,0,1,5.75,5.76Z"/><path class="cls-6" d="M569.52,293.37a5.75,5.75,0,0,1-5.75,5.76H494.61a5.76,5.76,0,0,1-5.77-5.76v-.55a5.77,5.77,0,0,1,5.77-5.77h69.16a5.76,5.76,0,0,1,5.75,5.77Z"/><path class="cls-7" d="M542.06,203.08a2.5,2.5,0,0,1-2.5,2.5h-21.9a2.5,2.5,0,0,1-2.5-2.5h0a2.5,2.5,0,0,1,2.5-2.5h21.9a2.5,2.5,0,0,1,2.5,2.5Z"/><polygon class="cls-7" points="516.46 204.59 512.17 204.59 499.97 175.56 503.57 176.79 513.54 202.81 516.32 202.74 516.46 204.59"/><polygon class="cls-7" points="540.56 204.59 544.86 204.59 557.07 175.56 553.46 176.79 543.49 202.81 540.7 202.74 540.56 204.59"/><path class="cls-7" d="M500,175.56s27.53-27.13,57.1,0l-3.61,1.23s-24-21.69-49.89,0C503.57,176.79,500.71,177.25,500,175.56Z"/><path class="cls-3" d="M569.52,233.43v-.55a5.73,5.73,0,0,0-4.33-5.56,5.56,5.56,0,0,0-1.35-2.68A32.84,32.84,0,0,0,549,206.94c9.14,8.92,14.74,20.83,14.74,33.92,0,27.65-24.95,50.07-55.72,50.07a61.51,61.51,0,0,1-17.22-2.45,5.72,5.72,0,0,0-2,4.34v.55a5.76,5.76,0,0,0,3.46,5.27v.49a5.76,5.76,0,0,0,5.77,5.76h61.47a5.76,5.76,0,0,0,5.76-5.76v-.23a5.74,5.74,0,0,0,4.22-5.53v-.55a5.74,5.74,0,0,0-4.22-5.53v-3.38a5.74,5.74,0,0,0,4.22-5.53v-.55a5.74,5.74,0,0,0-4.22-5.53v-3.37a5.74,5.74,0,0,0,4.22-5.53v-.55a5.74,5.74,0,0,0-4.22-5.53V254a5.76,5.76,0,0,0,4.22-5.54v-.55a5.75,5.75,0,0,0-4.22-5.53V239A5.74,5.74,0,0,0,569.52,233.43Z"/><path class="cls-9" d="M508.21,282.87a1.25,1.25,0,0,1-1.24,1.28h0a1.26,1.26,0,0,1-1.28-1.24l-.88-59.6a1.25,1.25,0,0,1,1.24-1.28h0a1.25,1.25,0,0,1,1.28,1.24Z"/><path class="cls-17" d="M462.29,182.12S435.57,149,445.71,146.87s12.19,8.68,16.58,6.5-.18-15.19,5.36-15.19,1.93,16.64,5.55,17.37,8-7.24,11.57-2.89,1.45,13,7.24,13-.27,7.6-13.52,16.45S463,195.69,462.29,182.12Z"/><path class="cls-17" d="M432.06,299.06s-28.65-15.34-17.7-46,30.92-61.49,40.54-66.84c20.67-11.49,49.31-4.38,62.46,44.93s14.24,73.41-21.91,73.41S442.8,307.87,432.06,299.06Z"/><path class="cls-3" d="M432.06,299.06c10.74,8.81,27.23,5.48,63.39,5.48s35.06-24.1,21.91-73.41c-10-37.41-28.86-50.49-46.42-49.63-.68,5.31-1.92,23.73,12.29,31.2,16.67,8.76,22.8,16.07,11,27s11.8,42.37-11,42.37c-21,0-40,16.05-69.59-4.71C418.57,291.83,432.06,299.06,432.06,299.06Z"/><path class="cls-13" d="M459.1,178l.35,5a39.06,39.06,0,0,0,23.78,1.25v-5.49S475.56,182.21,459.1,178Z"/><path class="cls-18" d="M103.29,302.57s-44.93-7.87-27-58.41,44.19-70.76,50.54-73c12.74-4.49,34.82-7.86,53.92,47.17s28.08,83.12,0,84.25S103.29,302.57,103.29,302.57Z"/><path class="cls-3" d="M103.29,302.57s49.42,1.12,77.5,0,19.09-29.21,0-84.25c-10.8-31.13-22.56-43.56-33-47.68a18.11,18.11,0,0,0-1.78,1.07,56.57,56.57,0,0,0,5.51,15.17c4.39,8.42,1.79,32.57-12.49,43.8s12.59,32,4.73,50.54-44.93-5.05-58.4-14.6c-5.48-3.87-9.82-4.58-13.07-4.08C69.82,296.68,103.29,302.57,103.29,302.57Z"/><path class="cls-18" d="M129.81,170.21S102.17,136,112.65,133.72s12.62,9,17.16,6.73-.19-15.72,5.55-15.72,2,17.22,5.74,18,8.24-7.49,12-3,1.49,13.47,7.49,13.47-.27,7.86-14,17S130.51,184.25,129.81,170.21Z"/><path class="cls-13" d="M126.51,166l.36,5.2a40.47,40.47,0,0,0,24.61,1.3v-5.69S143.55,170.3,126.51,166Z"/><path class="cls-19" d="M90.86,247.08S101.6,270,114,263.25,109.46,231,120.7,221s22-35.25,14.66-39.19-23.09,10.68-28.15,18.54S85.81,238.36,90.86,247.08Z"/><rect class="cls-10" x="15.51" y="204.02" width="13.12" height="11.07" transform="matrix(1, -0.01, 0.01, 1, -3, 0.34)"/><path class="cls-6" d="M31.6,202.68A4.27,4.27,0,0,1,27.4,207l-10.57.15a4.27,4.27,0,0,1-4.32-4.2h0a4.26,4.26,0,0,1,4.2-4.32l10.57-.15a4.25,4.25,0,0,1,4.32,4.19Z"/><path class="cls-6" d="M45,229.76l-.12-8.18a6.8,6.8,0,0,0-4.51-6.31h0l-11.73-6.4-7,.1h0l-6.12.1L4.33,215.78h0A6.82,6.82,0,0,0,0,222.22l.12,8.18a6.72,6.72,0,0,0,2.05,4.77h0s2.36,2.91-.17,5.45v0a5.29,5.29,0,0,0,.17,7.89l.1.11a1.83,1.83,0,0,1-.2,3v0a5.32,5.32,0,0,0,.76,8.21l0,0C4.7,261.44,6,266.1,2.72,269h0a5.28,5.28,0,0,0,.22,8.44v0s3.12,2.85-.3,6.95c-.09.11-.19.22-.28.34a.13.13,0,0,1,0,.06h0A6.77,6.77,0,0,0,1,289l.11,8.18A6.83,6.83,0,0,0,8,303.91l16.24-.23h0l15-.22a6.81,6.81,0,0,0,6.72-6.91l-.12-8.18a6.78,6.78,0,0,0-1.49-4.15h0l-.06-.06a4,4,0,0,0-.27-.31c-3.55-4-.51-7-.51-7v0a5.28,5.28,0,0,0,0-8.44h0c-3.41-2.81-2.2-7.51-.39-9.13l0,0a5.33,5.33,0,0,0,.52-8.23h0a1.84,1.84,0,0,1-.28-3,.48.48,0,0,0,.09-.11,5.29,5.29,0,0,0,0-7.89v0c-2.57-2.44-.36-5.38-.32-5.44A6.78,6.78,0,0,0,45,229.76Z"/><path class="cls-4" d="M43.51,276.9v0a5.29,5.29,0,0,0,2.1-4.3,5.06,5.06,0,0,0-.69-2.5A51.76,51.76,0,0,1,1.06,295.54l0,1.65A6.81,6.81,0,0,0,8,303.91l16.24-.23,15-.22A6.81,6.81,0,0,0,46,296.55l-.11-8.18a6.84,6.84,0,0,0-1.49-4.15h0a.34.34,0,0,0-.06-.06,3.88,3.88,0,0,0-.26-.31C40.47,279.83,43.51,276.9,43.51,276.9Z"/><path class="cls-4" d="M43.44,248a5.29,5.29,0,0,0,0-7.89v0a4.16,4.16,0,0,1-.79-1l-39.83.59a4,4,0,0,1-.76,1v0a5.29,5.29,0,0,0,.17,7.89l.1.11a1.72,1.72,0,0,1,.65,1.23l39.81-.59a1.71,1.71,0,0,1,.62-1.23A.48.48,0,0,0,43.44,248Z"/><path class="cls-4" d="M43.49,276.9v0a5.28,5.28,0,0,0,0-8.44h0a6.16,6.16,0,0,1-1.22-1.36l-38.39.57A6,6,0,0,1,2.72,269h0a5.28,5.28,0,0,0,.22,8.44v0A4.64,4.64,0,0,1,4,279.31l38.42-.57A4.56,4.56,0,0,1,43.49,276.9Z"/><path class="cls-4" d="M44.86,221.58a6.8,6.8,0,0,0-4.51-6.31h0l-.79-.42L5,215.35l-.71.43h0A6.82,6.82,0,0,0,0,222.22l.12,8.18A6.73,6.73,0,0,0,1.2,234L44,233.35a6.73,6.73,0,0,0,1-3.59Z"/><rect class="cls-15" x="80.74" y="201.4" width="21.06" height="19.03" rx="2.77"/><path class="cls-13" d="M99,303.9H48.81a11.32,11.32,0,0,1-11.32-11.31v-50a11.29,11.29,0,0,1,4.8-9.23l31.82-22.48a11.26,11.26,0,0,1,6.52-2.08H99a11.31,11.31,0,0,1,11.31,11.32v72.48A11.31,11.31,0,0,1,99,303.9Z"/><path class="cls-20" d="M99,303.9H48.81a11.32,11.32,0,0,1-11.32-11.31v-50a11.29,11.29,0,0,1,4.8-9.23l31.82-22.48a11.26,11.26,0,0,1,6.52-2.08H99a11.31,11.31,0,0,1,11.31,11.32v72.48A11.31,11.31,0,0,1,99,303.9Z"/><path class="cls-21" d="M53,232.84l16.82-11.92A2.63,2.63,0,0,1,74,223.07V235a2.64,2.64,0,0,1-2.64,2.64H54.49A2.63,2.63,0,0,1,53,232.84Z"/><path class="cls-5" d="M95.41,287.82a1.56,1.56,0,0,1,0,2.38h0a2,2,0,0,1-2.67,0L52.38,254.65a1.55,1.55,0,0,1,0-2.37h0a2,2,0,0,1,2.68,0Z"/><path class="cls-5" d="M92.19,251.81a2,2,0,0,1,2.66,0h0a1.55,1.55,0,0,1,.06,2.38l-39.3,36.51a2,2,0,0,1-2.67,0h0a1.56,1.56,0,0,1,0-2.38Z"/><path class="cls-5" d="M48.81,303.9H99a11.33,11.33,0,0,0,11.26-10.23H37.55A11.33,11.33,0,0,0,48.81,303.9Z"/><path class="cls-3" d="M99,208.79H96.93a59.27,59.27,0,0,1,6.95,28.2c0,28.25-18.81,51.16-42,51.16a37,37,0,0,1-24.39-9.5v13.94A11.32,11.32,0,0,0,48.81,303.9H99a11.31,11.31,0,0,0,11.31-11.31V220.11A11.31,11.31,0,0,0,99,208.79Z"/><path class="cls-13" d="M228.4,204.56h0l-11.43-54H198.92l-10.68,54h0c1.43,5.41-8.14,8-8.14,14v67.73a16.08,16.08,0,0,0,16.08,16.09h24.27a16.09,16.09,0,0,0,16.09-16.09V218.54c0-6-9.59-8.57-8.15-14Z"/><path class="cls-22" d="M208.32,275.79c15.59,0,28.23-3,28.23-6.68V235.33c0,3.69-12.64,6.68-28.23,6.68-15.33,0-27.78-2.89-28.18-6.51l0,33.61C180.11,272.81,192.73,275.79,208.32,275.79Z"/><path class="cls-23" d="M193.07,290l-.72-65.18c-.1-8.46-5.94-8.88-5.85,0l.73,65.18C187.27,293.89,193.11,293.71,193.07,290Z"/><path class="cls-3" d="M220.46,302.36a16.09,16.09,0,0,0,16.09-16.09V218.54c0-6-9.59-8.57-8.15-14h0l-11.43-54H208.5c1.91,13.53,8.64,59.44,12.37,64.18,4.37,5.57,10.74,25.88,0,33.44s-13.35,24.64-2.9,27.25c9.48,2.36,5.79,24-24.31,26.75a16.08,16.08,0,0,0,2.53.22Z"/><path class="cls-20" d="M218,150.65c0,.87-4.47,1.57-10,1.57s-10-.7-10-1.57,4.47-1.57,10-1.57,10,.7,10,1.57Z"/><rect class="cls-20" x="197.98" y="142.92" width="20" height="7.73"/><path class="cls-24" d="M218,142.92c0,.87-4.47,1.57-10,1.57s-10-.7-10-1.57,4.47-1.57,10-1.57,10,.7,10,1.57Z"/><rect class="cls-10" x="475.19" y="289.99" width="11.08" height="9.35" transform="translate(181.58 772.61) rotate(-89.46)"/><path class="cls-6" d="M486.33,302.84a3.58,3.58,0,0,1-3.56-3.63l.08-8.92a3.61,3.61,0,0,1,3.63-3.57h0a3.61,3.61,0,0,1,3.57,3.64l-.08,8.92a3.6,3.6,0,0,1-3.64,3.56Z"/><path class="cls-6" d="M463.2,313.6l6.91.06a5.74,5.74,0,0,0,5.42-3.68h0l5.65-9.78.06-5.9h0l0-5.17-5.46-9.56h0a5.73,5.73,0,0,0-5.35-3.78l-6.91-.07a5.75,5.75,0,0,0-4.07,1.63h0s-2.51,2-4.6-.24h0a4.52,4.52,0,0,0-3.3-1.51,4.47,4.47,0,0,0-3.36,1.49l-.1.08a1.55,1.55,0,0,1-2.5-.22h0a4.48,4.48,0,0,0-3.24-1.43,4.53,4.53,0,0,0-3.72,1.9v0a5.35,5.35,0,0,1-7.72-.3h0a4.47,4.47,0,0,0-7.13,0h0s-2.46,2.57-5.86-.39a1.61,1.61,0,0,0-.28-.24l0,0h0a5.6,5.6,0,0,0-3.52-1.23l-6.91-.07a5.76,5.76,0,0,0-5.8,5.7l-.13,13.71h0l-.12,12.67a5.75,5.75,0,0,0,5.7,5.81l6.92.07a5.7,5.7,0,0,0,3.52-1.18h0s0,0,.05,0a2.75,2.75,0,0,0,.26-.22c3.47-2.92,5.88-.29,5.88-.29h0a4.46,4.46,0,0,0,7.13.16h0a5.33,5.33,0,0,1,7.71-.14h0a4.51,4.51,0,0,0,6.95.61h0a1.56,1.56,0,0,1,2.51-.18.34.34,0,0,0,.09.08,4.42,4.42,0,0,0,3.32,1.54,4.51,4.51,0,0,0,3.34-1.42h0c2.11-2.12,4.56-.2,4.6-.16A5.71,5.71,0,0,0,463.2,313.6Z"/><path class="cls-4" d="M423.43,311.43h0a4.46,4.46,0,0,0,3.59,1.85,4.29,4.29,0,0,0,2.13-.53,43.72,43.72,0,0,1-20.63-37.54h-1.39a5.75,5.75,0,0,0-5.81,5.7l-.14,13.72-.11,12.66a5.75,5.75,0,0,0,5.7,5.81l6.91.08a5.81,5.81,0,0,0,3.53-1.18h0s0,0,.06-.05l.25-.22C421,308.81,423.43,311.43,423.43,311.43Z"/><path class="cls-4" d="M447.88,311.94a4.42,4.42,0,0,0,3.32,1.54,4.51,4.51,0,0,0,3.34-1.42h0a3.71,3.71,0,0,1,.87-.66l.29-33.63a3.48,3.48,0,0,1-.83-.66h0a4.52,4.52,0,0,0-3.3-1.51,4.47,4.47,0,0,0-3.36,1.49l-.1.08a1.48,1.48,0,0,1-1.05.54l-.29,33.61a1.54,1.54,0,0,1,1,.55A.34.34,0,0,0,447.88,311.94Z"/><path class="cls-4" d="M423.43,311.41h0a4.46,4.46,0,0,0,7.13.16h0a4.63,4.63,0,0,1,1.16-1l.28-32.43a4.62,4.62,0,0,1-1.13-1h0a4.47,4.47,0,0,0-7.13,0h0a3.77,3.77,0,0,1-1.57.89l-.27,32.44A4,4,0,0,1,423.43,311.41Z"/><path class="cls-4" d="M470.11,313.66a5.74,5.74,0,0,0,5.42-3.68h0l.39-.64.25-29.17-.35-.6h0a5.73,5.73,0,0,0-5.35-3.78l-6.91-.07a5.67,5.67,0,0,0-3.05.85l-.3,36.15a5.64,5.64,0,0,0,3,.89Z"/><path class="cls-9" d="M413.84,284a1.19,1.19,0,0,1-1.18-1.2h0a1.2,1.2,0,0,1,1.21-1.19l56.46.5a1.19,1.19,0,0,1,1.18,1.2h0a1.19,1.19,0,0,1-1.2,1.18Z"/><path class="cls-25" d="M202.65,307.61c1.33-2.53,1.61-5.93-8.05-7.8-10.67-2.06-30.46-3.84-39-9.1-6.31-3.87-25-24.67-28.73-6.67-1.48,7.2,7.84,13.67,25.4,13.2,9-.24,26.71,4.84,34.85,8.69C190.64,307.6,199,314.64,202.65,307.61Z"/><path class="cls-26" d="M151.93,294.64c1.17-.17,4-1.57-.43-4.13s-14.9-15.21-19.78-10.84-2.59,7.8-.4,9.56S143,296,151.93,294.64Z"/><path class="cls-27" d="M187.1,305.93c-8.14-3.85-25.86-8.93-34.85-8.69-17.56.47-26.88-6-25.4-13.2a17.07,17.07,0,0,1,.65-2.37h0c-2,11,11.66,15,17.86,14.54s12.55.39,23.6,1.94,20.95,7.23,27.09,9.81a6.37,6.37,0,0,0,7-1.17,6.66,6.66,0,0,1-.37.82C199,314.64,190.64,307.6,187.1,305.93Z"/><path class="cls-26" d="M112.13,294.69S108.3,299,118,300.33s10.65,3.72,9.06,4.82-19.87-4.12-18.59-1,20,3.52,18.77,6.79-20-2.61-19.39.48,29.4,8.2,38.5.23c2.11-1.85,4.5-3.65,12.85-1.94s39.1,7,40.33.95c2.88-14.11-34.23-2.68-49.79-7.54C140.92,300.38,131.33,288.76,112.13,294.69Z"/><path class="cls-25" d="M112.13,294.69s-4.36,3,5.32,4.34,10.3,2.88,8.72,4-19-2-17.73,1.16,19.12,1.38,17.91,4.64-19.15-.46-18.53,2.63,28.32,5.55,37.4-2.41c2.12-1.86,4.74-3.15,13.09-1.45s39.1,7,40.33,1c2.88-14.11-34.23-2.68-49.79-7.56C140.06,298.24,131.33,288.76,112.13,294.69Z"/></g></g></svg>