<svg xmlns="http://www.w3.org/2000/svg" viewBox="0 0 393 208.45"><defs><style>.cls-1{isolation:isolate;}.cls-2{fill:#8f9bf0;}.cls-3{fill:#6073c9;}.cls-4{fill:#6476dd;}.cls-15,.cls-22,.cls-5,.cls-6,.cls-8{mix-blend-mode:overlay;}.cls-22,.cls-5{opacity:0.2;}.cls-6{fill:#fcf2d6;}.cls-6,.cls-8{opacity:0.5;}.cls-7{fill:#7b8be2;}.cls-9{fill:#ce6c2f;}.cls-10{fill:#3caa26;}.cls-11{fill:#52c43e;}.cls-12{fill:#3a991f;}.cls-13{fill:#ffe350;}.cls-14{fill:#ffc02a;}.cls-15{opacity:0.4;}.cls-16{fill:#e6a679;}.cls-17{fill:#ffca3e;}.cls-18{fill:#ffdb4d;}.cls-19{fill:#f4b69f;}.cls-20,.cls-22{fill:#fff;}.cls-21{fill:#ffebe5;}.cls-23{fill:#ffe0c5;}.cls-24{fill:#f7f0dd;}.cls-25{fill:#e4dbab;}.cls-26{fill:#eadcb2;}</style></defs><g class="cls-1"><g id="Layer_1" data-name="Layer 1"><path class="cls-2" d="M384.27,147.35a1.71,1.71,0,0,1-1.57,1.83h-4.17a1.71,1.71,0,0,1-1.56-1.83v-3.16a1.71,1.71,0,0,1,1.56-1.83h4.17a1.71,1.71,0,0,1,1.57,1.83Z"/><path class="cls-3" d="M384.88,146.26a.8.8,0,0,1-.79.79h-6.94a.8.8,0,0,1-.79-.79h0a.79.79,0,0,1,.79-.79h6.94a.79.79,0,0,1,.79.79Z"/><rect class="cls-4" x="369.44" y="175.55" width="22.59" height="23.79" rx="3.29"/><path class="cls-4" d="M369.45,178.08s-.42-21.25,8.34-30.24h3.07v30.24Z"/><path class="cls-4" d="M392,178.08s.41-21.25-8.34-30.24h-3.07v30.24Z"/><path class="cls-2" d="M393,175.64a1.77,1.77,0,0,1-1.77,1.77H370a1.77,1.77,0,0,1-1.77-1.77v-.17A1.77,1.77,0,0,1,370,173.7h21.22a1.77,1.77,0,0,1,1.77,1.77Z"/><path class="cls-2" d="M393,180.24a1.76,1.76,0,0,1-1.77,1.76H370a1.76,1.76,0,0,1-1.77-1.76v-.17A1.77,1.77,0,0,1,370,178.3h21.22a1.77,1.77,0,0,1,1.77,1.77Z"/><rect class="cls-2" x="368.24" y="182.89" width="24.76" height="3.71" rx="1.77"/><rect class="cls-2" x="368.24" y="187.49" width="24.76" height="3.71" rx="1.77"/><rect class="cls-2" x="368.24" y="192.09" width="24.76" height="3.71" rx="1.77"/><path class="cls-5" d="M393,175.64v-.17a1.78,1.78,0,0,0-1.08-1.63c-.37-6.67-1.92-19.52-8.23-26h-5.9c-.07.07-.12.14-.18.21,6.35,2.84,11,11.44,11,21.62,0,12.49-7,22.62-15.56,22.62a10.86,10.86,0,0,1-3.58-.61v.51a1.77,1.77,0,0,0-1.2,1.67V194a1.77,1.77,0,0,0,1.2,1.67v.35a3.29,3.29,0,0,0,3.29,3.29h16a3.28,3.28,0,0,0,3.28-3.29v-.45a1.77,1.77,0,0,0,1-1.57v-.17a1.79,1.79,0,0,0-1-1.57V191a1.76,1.76,0,0,0,1-1.57v-.17a1.76,1.76,0,0,0-1-1.56v-1.3a1.76,1.76,0,0,0,1-1.56v-.18a1.76,1.76,0,0,0-1-1.56v-1.29a1.79,1.79,0,0,0,1-1.57v-.17a1.76,1.76,0,0,0-1-1.59c0-.14,0-.27-.06-.4H392s0-.31,0-.87A1.76,1.76,0,0,0,393,175.64Z"/><path class="cls-6" d="M376,190.24a.63.63,0,0,1-.61.63h0a.62.62,0,0,1-.63-.62l-.44-29.38a.62.62,0,0,1,.61-.63h0a.62.62,0,0,1,.63.61Z"/><rect class="cls-7" x="158.3" y="10.41" width="24.69" height="20.84" transform="translate(-0.28 2.41) rotate(-0.81)"/><path class="cls-2" d="M188.59,7.9A8,8,0,0,1,180.68,16l-19.88.27a8,8,0,0,1-8.13-7.9h0A8,8,0,0,1,160.58.28L180.46,0a8,8,0,0,1,8.13,7.9Z"/><path class="cls-2" d="M213.78,58.86l-.22-15.39a12.8,12.8,0,0,0-8.5-11.88h0L183,19.52l-13.16.19h0l-11.53.17-21,12.65h0a12.83,12.83,0,0,0-8.15,12.12l.21,15.39a12.83,12.83,0,0,0,3.86,9h0s4.46,5.49-.3,10.27c0,0,0,0,0,0a10,10,0,0,0,.31,14.84c.07.06.12.15.19.2,1.93,1.61,1.53,4.08-.37,5.59v0a10,10,0,0,0,1.44,15.45l0,0c3.49,3,6,11.74-.24,17.21h0a10,10,0,0,0,.42,15.89v0s5.87,5.35-.57,13.08a7.91,7.91,0,0,0-.52.63l-.09.11h0a12.76,12.76,0,0,0-2.58,7.88l.22,15.4a12.82,12.82,0,0,0,13,12.64l30.57-.43h0l28.23-.4a12.83,12.83,0,0,0,12.65-13l-.23-15.39a12.83,12.83,0,0,0-2.8-7.82h0l-.11-.11a7,7,0,0,0-.51-.58c-6.68-7.56-1-13.08-1-13.08v0a9.94,9.94,0,0,0,0-15.9v0c-6.41-5.28-4.13-14.13-.73-17.18l0,0a10,10,0,0,0,1-15.49.1.1,0,0,0,0,0c-1.93-1.47-2.41-3.92-.52-5.58.06-.06.11-.14.17-.21a9.93,9.93,0,0,0-.1-14.84.43.43,0,0,0,0-.05c-4.84-4.59-.69-10.12-.6-10.24A12.77,12.77,0,0,0,213.78,58.86Z"/><path class="cls-8" d="M211,147.59v0a10,10,0,0,0,3.95-8.09,9.88,9.88,0,0,0-1.29-4.72,97.49,97.49,0,0,1-82.56,47.94l0,3.09a12.84,12.84,0,0,0,13,12.64l30.57-.43,28.23-.4a12.83,12.83,0,0,0,12.64-13l-.22-15.39a12.72,12.72,0,0,0-2.81-7.81h0l-.11-.12c-.16-.2-.33-.38-.5-.57C205.29,153.11,211,147.59,211,147.59Z"/><path class="cls-8" d="M210.88,93.1a9.93,9.93,0,0,0-.1-14.84.43.43,0,0,0,0-.05,7.91,7.91,0,0,1-1.5-1.9l-75,1.11a8.09,8.09,0,0,1-1.42,1.9s0,0,0,0a10,10,0,0,0,.31,14.84c.07.06.12.15.19.2a3.26,3.26,0,0,1,1.24,2.32l74.92-1.11a3.21,3.21,0,0,1,1.17-2.3C210.77,93.25,210.82,93.17,210.88,93.1Z"/><path class="cls-8" d="M211,147.59v0a9.94,9.94,0,0,0,0-15.9v0a11.28,11.28,0,0,1-2.28-2.55l-72.27,1.07a11.24,11.24,0,0,1-2.17,2.58h0a10,10,0,0,0,.42,15.89v0a8.52,8.52,0,0,1,2.06,3.45L209,151A8.56,8.56,0,0,1,211,147.59Z"/><path class="cls-8" d="M213.56,43.47a12.8,12.8,0,0,0-8.5-11.88h0l-1.48-.81-65,1-1.34.8h0a12.83,12.83,0,0,0-8.15,12.12l.21,15.39a12.66,12.66,0,0,0,2.06,6.75L212,65.62a12.73,12.73,0,0,0,1.82-6.76Z"/><path class="cls-6" d="M150.33,170.39a2.65,2.65,0,0,1-2.62,2.7h0a2.65,2.65,0,0,1-2.7-2.62l-1.86-125.8A2.66,2.66,0,0,1,145.77,42h0a2.67,2.67,0,0,1,2.7,2.63Z"/><path class="cls-9" d="M248.8,194.16a3.75,3.75,0,0,1-3.75,3.75h0a3.75,3.75,0,0,1-3.75-3.75v-4.51a3.75,3.75,0,0,1,3.75-3.74h0a3.75,3.75,0,0,1,3.75,3.74Z"/><path class="cls-9" d="M316.11,194.16a3.74,3.74,0,0,1-3.74,3.75h0a3.75,3.75,0,0,1-3.75-3.75v-4.51a3.75,3.75,0,0,1,3.75-3.74h0a3.74,3.74,0,0,1,3.74,3.74Z"/><path class="cls-10" d="M216.07,60.38h69c3.74,0,6.78,1.62,6.78,3.64l4.07,37.23H205.22L209.29,64C209.29,62,212.33,60.38,216.07,60.38Z"/><path class="cls-11" d="M282.25,72.05a2.69,2.69,0,0,1-2.69,2.69H221.38a2.68,2.68,0,0,1-2.69-2.69h0a2.69,2.69,0,0,1,2.69-2.69h58.18a2.7,2.7,0,0,1,2.69,2.69Z"/><polygon class="cls-12" points="207.45 80.81 205.22 101.25 295.89 101.25 293.65 80.81 207.45 80.81"/><path class="cls-13" d="M212.88,195.63h75.35c4.09,0,7.41-3.76,7.41-8.4l4.44-86H201l4.45,86C205.47,191.87,208.78,195.63,212.88,195.63Z"/><path class="cls-14" d="M287.59,144.65a7.41,7.41,0,0,1-7.41,7.41H222.05a7.4,7.4,0,0,1-7.4-7.41v-8.39a7.4,7.4,0,0,1,7.4-7.41h58.13a7.41,7.41,0,0,1,7.41,7.41Z"/><path class="cls-14" d="M268.11,166H232.85a7.42,7.42,0,0,0-7.42,7.41v22.23h50.09V173.4A7.41,7.41,0,0,0,268.11,166Z"/><polygon class="cls-15" points="201.02 101.25 201.85 117.25 299.25 117.25 300.08 101.25 201.02 101.25"/><path class="cls-15" d="M212.88,195.63h75.35c3.59,0,6.58-2.9,7.26-6.74H205.62C206.29,192.73,209.28,195.63,212.88,195.63Z"/><path class="cls-5" d="M263.24,101.25A49.1,49.1,0,0,1,205,177.89l.49,9.34c0,4.64,3.31,8.4,7.41,8.4h75.35c4.09,0,7.41-3.76,7.41-8.4l4.44-86Z"/><path class="cls-11" d="M299.74,84.82h-99.8c-3.74,0-6.79,3.32-6.79,7.41v12.53H306.54V92.23C306.54,88.14,303.5,84.82,299.74,84.82Z"/><path class="cls-2" d="M356.4,136.28a3.56,3.56,0,0,1-3.26,3.8h-8.7a3.57,3.57,0,0,1-3.26-3.8v-6.59a3.57,3.57,0,0,1,3.26-3.8h8.7a3.56,3.56,0,0,1,3.26,3.8Z"/><path class="cls-4" d="M373,154.15c0,11.69-10.78,21.17-24.08,21.17s-24.09-9.48-24.09-21.17S335.62,133,348.92,133,373,142.46,373,154.15Z"/><rect class="cls-4" x="324.83" y="146.93" width="48.17" height="54.25" rx="3.8"/><rect class="cls-2" x="322.55" y="149.86" width="53.23" height="7.97" rx="3.8"/><rect class="cls-2" x="322.55" y="159.75" width="53.23" height="7.97" rx="3.8"/><path class="cls-2" d="M375.79,173.8a3.8,3.8,0,0,1-3.8,3.8H326.36a3.81,3.81,0,0,1-3.81-3.8v-.37a3.81,3.81,0,0,1,3.81-3.8H372a3.8,3.8,0,0,1,3.8,3.8Z"/><path class="cls-2" d="M326.36,179.52H372a3.8,3.8,0,0,1,3.8,3.8v.36a3.8,3.8,0,0,1-3.8,3.8H326.35a3.8,3.8,0,0,1-3.8-3.8v-.36A3.81,3.81,0,0,1,326.36,179.52Z"/><path class="cls-2" d="M375.79,193.57a3.81,3.81,0,0,1-3.8,3.81H326.36a3.82,3.82,0,0,1-3.81-3.81v-.36a3.82,3.82,0,0,1,3.81-3.81H372a3.81,3.81,0,0,1,3.8,3.81Z"/><path class="cls-3" d="M357.67,134a1.65,1.65,0,0,1-1.66,1.65H341.57a1.65,1.65,0,0,1-1.65-1.65h0a1.65,1.65,0,0,1,1.65-1.65H356a1.65,1.65,0,0,1,1.66,1.65Z"/><polygon class="cls-3" points="340.78 135 337.94 135 329.89 115.84 332.27 116.65 338.85 133.82 340.69 133.77 340.78 135"/><polygon class="cls-3" points="356.68 135 359.52 135 367.57 115.84 365.19 116.65 358.61 133.82 356.77 133.77 356.68 135"/><path class="cls-3" d="M329.89,115.84s18.17-17.9,37.68,0l-2.38.81s-15.85-14.31-32.92,0C332.27,116.65,330.38,117,329.89,115.84Z"/><path class="cls-5" d="M375.79,154v-.37a3.8,3.8,0,0,0-2.86-3.67,3.77,3.77,0,0,0-.89-1.77,21.75,21.75,0,0,0-9.78-11.68A31.18,31.18,0,0,1,372,158.92c0,18.25-16.46,33.05-36.77,33.05a40.71,40.71,0,0,1-11.36-1.62,3.78,3.78,0,0,0-1.31,2.86v.36a3.79,3.79,0,0,0,2.28,3.48v.33a3.81,3.81,0,0,0,3.81,3.8H369.2a3.8,3.8,0,0,0,3.8-3.8v-.16a3.79,3.79,0,0,0,2.79-3.65v-.36a3.79,3.79,0,0,0-2.79-3.65v-2.23a3.78,3.78,0,0,0,2.79-3.65v-.36a3.79,3.79,0,0,0-2.79-3.65v-2.22a3.79,3.79,0,0,0,2.79-3.65v-.37a3.78,3.78,0,0,0-2.79-3.64v-2.23a3.79,3.79,0,0,0,2.79-3.65v-.36a3.81,3.81,0,0,0-2.79-3.66v-2.22A3.78,3.78,0,0,0,375.79,154Z"/><path class="cls-6" d="M335.33,186.64a.83.83,0,0,1-.81.85h0a.83.83,0,0,1-.85-.82l-.58-39.32a.83.83,0,0,1,.81-.85h0a.84.84,0,0,1,.85.82Z"/><path class="cls-16" d="M305,120.17S287.4,98.34,294.09,96.91s8.05,5.72,10.94,4.29-.12-10,3.54-10,1.27,11,3.66,11.45,5.25-4.77,7.64-1.9.95,8.58,4.77,8.58-.17,5-8.92,10.86S305.48,129.12,305,120.17Z"/><path class="cls-16" d="M285.08,197.33s-18.9-10.12-11.67-30.36,20.4-40.58,26.75-44.11c13.64-7.58,32.53-2.89,41.21,29.64s9.4,48.44-14.46,48.44S292.17,203.14,285.08,197.33Z"/><path class="cls-5" d="M285.08,197.33c7.09,5.81,18,3.61,41.83,3.61S350,185,341.37,152.5c-6.58-24.68-19-33.31-30.63-32.74-.45,3.5-1.27,15.66,8.11,20.58,11,5.78,15,10.61,7.24,17.84s7.78,27.95-7.24,27.95c-13.83,0-26.36,10.59-45.92-3.11C276.18,192.56,285.08,197.33,285.08,197.33Z"/><path class="cls-11" d="M302.93,117.46l.23,3.31a25.75,25.75,0,0,0,15.69.82V118S313.79,120.23,302.93,117.46Z"/><path class="cls-17" d="M68.15,199.64s-29.64-5.19-17.79-38.54,29.16-46.69,33.36-48.17c8.4-3,23-5.19,35.57,31.13s18.53,54.84,0,55.58S68.15,199.64,68.15,199.64Z"/><path class="cls-5" d="M68.15,199.64s32.61.74,51.14,0,12.6-19.27,0-55.58c-7.13-20.55-14.89-28.75-21.8-31.47a12.9,12.9,0,0,0-1.18.71,37.27,37.27,0,0,0,3.64,10c2.9,5.55,1.18,21.49-8.24,28.9s8.31,21.12,3.12,33.35-29.64-3.33-38.54-9.64c-3.61-2.55-6.47-3-8.62-2.69C46.07,195.75,68.15,199.64,68.15,199.64Z"/><path class="cls-17" d="M85.65,112.31S67.41,89.71,74.33,88.23s8.33,5.93,11.32,4.45S85.53,82.3,89.32,82.3s1.31,11.36,3.78,11.86,5.44-5,7.91-2,1,8.89,4.94,8.89-.18,5.19-9.23,11.24S86.12,121.57,85.65,112.31Z"/><path class="cls-11" d="M83.47,109.5l.25,3.43a26.62,26.62,0,0,0,16.23.85V110S94.72,112.37,83.47,109.5Z"/><path class="cls-18" d="M60,163S67,178.15,75.19,173.7s-3-21.29,4.45-27.87S94.17,122.57,89.32,120s-15.24,7-18.58,12.23S56.62,157.28,60,163Z"/><rect class="cls-7" x="10.23" y="134.62" width="8.66" height="7.31" transform="translate(-1.98 0.22) rotate(-0.82)"/><path class="cls-2" d="M20.85,133.74a2.81,2.81,0,0,1-2.77,2.85l-7,.1a2.81,2.81,0,0,1-2.85-2.77h0A2.81,2.81,0,0,1,11,131.07l7-.1a2.81,2.81,0,0,1,2.85,2.77Z"/><path class="cls-2" d="M29.68,151.6l-.08-5.39a4.49,4.49,0,0,0-3-4.17h0l-7.75-4.23-4.61.07h0l-4,.06-7.37,4.43h0A4.48,4.48,0,0,0,0,146.63L.08,152a4.44,4.44,0,0,0,1.35,3.15h0a2.71,2.71,0,0,1-.11,3.6h0a3.49,3.49,0,0,0,.11,5.2l.07.07a1.22,1.22,0,0,1-.13,2v0a3.5,3.5,0,0,0,.5,5.41l0,0a4.17,4.17,0,0,1-.09,6h0a3.5,3.5,0,0,0,.15,5.57h0S4,185,1.74,187.67l-.18.22,0,0h0a4.51,4.51,0,0,0-.91,2.77l.08,5.39a4.51,4.51,0,0,0,4.56,4.44L16,200.37h0l9.89-.14a4.48,4.48,0,0,0,4.43-4.56l-.07-5.39a4.51,4.51,0,0,0-1-2.74h0l0,0-.18-.2c-2.34-2.65-.34-4.58-.34-4.58v0a3.48,3.48,0,0,0,0-5.57h0a4.17,4.17,0,0,1-.26-6,0,0,0,0,0,0,0,3.5,3.5,0,0,0,.35-5.42v0a1.21,1.21,0,0,1-.19-1.95s0-.05.06-.07a3.49,3.49,0,0,0,0-5.21h0a2.71,2.71,0,0,1-.21-3.59A4.5,4.5,0,0,0,29.68,151.6Z"/><path class="cls-8" d="M28.71,182.71v0a3.52,3.52,0,0,0,1.39-2.83,3.44,3.44,0,0,0-.46-1.66A34.15,34.15,0,0,1,.7,195l0,1.08a4.49,4.49,0,0,0,4.56,4.44L16,200.37l9.89-.14a4.49,4.49,0,0,0,4.43-4.56l-.07-5.39a4.51,4.51,0,0,0-1-2.74h0l-.05,0c0-.07-.11-.13-.17-.2C26.71,184.64,28.71,182.71,28.71,182.71Z"/><path class="cls-8" d="M28.66,163.61a3.49,3.49,0,0,0,0-5.21h0a3,3,0,0,1-.52-.67l-26.28.39a3.14,3.14,0,0,1-.5.67h0a3.49,3.49,0,0,0,.11,5.2l.07.07a1.15,1.15,0,0,1,.43.82l26.26-.39a1.14,1.14,0,0,1,.41-.81S28.64,163.63,28.66,163.61Z"/><path class="cls-8" d="M28.69,182.71v0a3.48,3.48,0,0,0,0-5.57h0a3.92,3.92,0,0,1-.8-.9l-25.33.37a4.05,4.05,0,0,1-.77.91h0a3.5,3.5,0,0,0,.15,5.57h0a3,3,0,0,1,.72,1.22L28,183.92A3,3,0,0,1,28.69,182.71Z"/><path class="cls-8" d="M29.6,146.21a4.49,4.49,0,0,0-3-4.17h0l-.52-.28-22.78.33-.47.28h0A4.48,4.48,0,0,0,0,146.63L.08,152a4.43,4.43,0,0,0,.71,2.37L29,154a4.52,4.52,0,0,0,.64-2.37Z"/><rect class="cls-13" x="53.27" y="132.89" width="13.9" height="12.56" rx="1.83"/><path class="cls-11" d="M65.31,200.52H32.21a7.46,7.46,0,0,1-7.47-7.46v-33A7.46,7.46,0,0,1,27.9,154l21-14.83a7.38,7.38,0,0,1,4.3-1.37H65.31a7.46,7.46,0,0,1,7.47,7.46v47.83a7.46,7.46,0,0,1-7.47,7.46Z"/><path class="cls-19" d="M65.31,200.52H32.21a7.46,7.46,0,0,1-7.47-7.46v-33A7.46,7.46,0,0,1,27.9,154l21-14.83a7.38,7.38,0,0,1,4.3-1.37H65.31a7.46,7.46,0,0,1,7.47,7.46v47.83a7.46,7.46,0,0,1-7.47,7.46Z"/><path class="cls-20" d="M35,153.63l11.1-7.86a1.73,1.73,0,0,1,2.74,1.42v7.86a1.74,1.74,0,0,1-1.74,1.74H36a1.74,1.74,0,0,1-1-3.16Z"/><path class="cls-15" d="M63,189.91a1,1,0,0,1,0,1.57h0a1.35,1.35,0,0,1-1.76,0L34.56,168a1,1,0,0,1,0-1.57h0a1.35,1.35,0,0,1,1.77,0Z"/><path class="cls-15" d="M60.83,166.15a1.36,1.36,0,0,1,1.76,0h0a1,1,0,0,1,0,1.57l-25.93,24.1a1.36,1.36,0,0,1-1.76,0h0a1,1,0,0,1,0-1.57Z"/><path class="cls-15" d="M32.21,200.52h33.1a7.47,7.47,0,0,0,7.44-6.75h-48A7.46,7.46,0,0,0,32.21,200.52Z"/><path class="cls-5" d="M65.31,137.77H64a39.09,39.09,0,0,1,4.58,18.6c0,18.64-12.41,33.76-27.71,33.76a24.45,24.45,0,0,1-16.09-6.27v9.2a7.46,7.46,0,0,0,7.47,7.46h33.1a7.46,7.46,0,0,0,7.47-7.46V145.23A7.46,7.46,0,0,0,65.31,137.77Z"/><path class="cls-11" d="M150.7,135h0l-7.54-35.65H131.25l-7,35.65h0c1,3.57-5.37,5.27-5.37,9.23v44.69a10.61,10.61,0,0,0,10.61,10.61h16a10.61,10.61,0,0,0,10.61-10.61V144.2c0-4-6.32-5.66-5.38-9.23Z"/><path class="cls-21" d="M137.46,182c10.28,0,18.62-2,18.62-4.41V155.28c0,2.43-8.34,4.41-18.62,4.41-10.12,0-18.33-1.91-18.6-4.3l0,22.18C118.84,180,127.17,182,137.46,182Z"/><path class="cls-22" d="M127.39,191.32l-.48-43c-.06-5.58-3.91-5.86-3.85,0l.48,43A1.93,1.93,0,0,0,127.39,191.32Z"/><path class="cls-5" d="M145.47,199.5a10.61,10.61,0,0,0,10.61-10.61V144.2c0-4-6.32-5.66-5.38-9.23h0l-7.54-35.65h-5.6c1.27,8.92,5.7,39.21,8.16,42.34,2.89,3.68,7.1,17.08,0,22.07s-8.8,16.26-1.9,18c6.25,1.56,3.81,15.81-16.05,17.65a10.26,10.26,0,0,0,1.67.14Z"/><path class="cls-19" d="M143.83,99.4c0,.57-3,1-6.6,1s-6.6-.47-6.6-1,3-1,6.6-1,6.6.46,6.6,1Z"/><rect class="cls-19" x="130.63" y="94.3" width="13.19" height="5.1"/><path class="cls-23" d="M143.83,94.3c0,.58-3,1-6.6,1s-6.6-.46-6.6-1,3-1,6.6-1,6.6.46,6.6,1Z"/><rect class="cls-7" x="313.54" y="191.34" width="7.31" height="6.17" transform="translate(119.81 509.79) rotate(-89.46)"/><path class="cls-2" d="M320.9,199.82a2.36,2.36,0,0,1-2.35-2.39l.05-5.89a2.38,2.38,0,0,1,2.39-2.35h0a2.37,2.37,0,0,1,2.36,2.4l-.05,5.89a2.38,2.38,0,0,1-2.4,2.34Z"/><path class="cls-2" d="M305.63,206.92l4.56,0a3.78,3.78,0,0,0,3.58-2.43h0l3.73-6.45,0-3.89h0l0-3.42-3.6-6.3h0a3.8,3.8,0,0,0-3.53-2.5l-4.56,0a3.78,3.78,0,0,0-2.69,1.08h0a2.27,2.27,0,0,1-3-.16h0a3,3,0,0,0-2.18-1,3,3,0,0,0-2.22,1s-.05,0-.06.06a1,1,0,0,1-1.65-.15h0a2.94,2.94,0,0,0-2.14-.94,3,3,0,0,0-2.45,1.25s0,0,0,0a3.54,3.54,0,0,1-5.1-.2h0a2.94,2.94,0,0,0-4.7,0h0s-1.63,1.7-3.87-.26l-.19-.16,0,0h0a3.67,3.67,0,0,0-2.32-.81l-4.56-.05a3.81,3.81,0,0,0-3.83,3.76l-.08,9h0l-.08,8.36a3.8,3.8,0,0,0,3.76,3.84l4.57,0a3.77,3.77,0,0,0,2.32-.78h0l0,0,.17-.14c2.29-1.93,3.88-.19,3.88-.19h0a2.94,2.94,0,0,0,4.71.1h0a3.52,3.52,0,0,1,5.09-.09h0a2.93,2.93,0,0,0,2.43,1.3,3,3,0,0,0,2.15-.89h0a1,1,0,0,1,1.65-.11l.07.05a2.9,2.9,0,0,0,2.19,1,2.93,2.93,0,0,0,2.2-.93h0a2.25,2.25,0,0,1,3-.1A3.81,3.81,0,0,0,305.63,206.92Z"/><path class="cls-8" d="M279.39,205.49h0a2.95,2.95,0,0,0,3.78.87,28.85,28.85,0,0,1-13.62-24.77h-.91a3.82,3.82,0,0,0-3.84,3.77l-.08,9.05-.08,8.35a3.8,3.8,0,0,0,3.76,3.84l4.56,0a3.82,3.82,0,0,0,2.33-.78h0s0,0,0,0l.16-.15C277.8,203.76,279.39,205.49,279.39,205.49Z"/><path class="cls-8" d="M295.53,205.83a2.9,2.9,0,0,0,2.19,1,2.93,2.93,0,0,0,2.2-.93h0a2.73,2.73,0,0,1,.57-.44l.2-22.19a2.12,2.12,0,0,1-.55-.43h0a3,3,0,0,0-2.18-1,3,3,0,0,0-2.22,1s-.05,0-.06.06a1,1,0,0,1-.7.35l-.19,22.18a1,1,0,0,1,.67.37Z"/><path class="cls-8" d="M279.39,205.48h0a2.94,2.94,0,0,0,4.71.1h0a3.33,3.33,0,0,1,.77-.65l.18-21.4a3.26,3.26,0,0,1-.75-.66h0a2.94,2.94,0,0,0-4.7,0h0a2.72,2.72,0,0,1-1,.59l-.18,21.4A2.59,2.59,0,0,1,279.39,205.48Z"/><path class="cls-8" d="M310.19,207a3.78,3.78,0,0,0,3.58-2.43h0l.26-.42.16-19.25-.23-.39h0a3.8,3.8,0,0,0-3.53-2.5l-4.56,0a3.71,3.71,0,0,0-2,.56l-.2,23.86a3.67,3.67,0,0,0,2,.58Z"/><path class="cls-6" d="M273.06,187.36a.78.78,0,0,1-.78-.79h0a.8.8,0,0,1,.8-.78l37.25.33a.79.79,0,0,1,.79.79h0a.81.81,0,0,1-.8.78Z"/><path class="cls-24" d="M133.71,203c.88-1.67,1.07-3.91-5.31-5.15-7-1.36-20.09-2.53-25.75-6-4.16-2.55-16.51-16.28-19-4.4-1,4.75,5.17,9,16.76,8.71,5.93-.16,17.63,3.19,23,5.73C125.79,203,131.27,207.61,133.71,203Z"/><path class="cls-25" d="M100.25,194.41c.77-.11,2.64-1-.28-2.72s-9.84-10-13-7.16-1.72,5.15-.27,6.31S94.35,195.3,100.25,194.41Z"/><path class="cls-26" d="M123.45,201.86c-5.36-2.54-17.06-5.89-23-5.73-11.59.31-17.74-4-16.76-8.71a10.54,10.54,0,0,1,.43-1.56h0c-1.29,7.22,7.69,9.91,11.78,9.59s8.29.26,15.57,1.28,13.82,4.77,17.88,6.47a4.19,4.19,0,0,0,4.6-.77,4.34,4.34,0,0,1-.25.54C131.27,207.61,125.79,203,123.45,201.86Z"/><path class="cls-25" d="M74,194.44s-2.53,2.87,3.85,3.73,7,2.45,6,3.18-13.11-2.72-12.27-.65,13.19,2.32,12.39,4.48-13.2-1.72-12.8.32,19.4,5.41,25.4.15c1.4-1.22,3-2.41,8.48-1.28s25.8,4.61,26.62.63c1.9-9.31-22.59-1.77-32.86-5C93,198.2,86.66,190.53,74,194.44Z"/><path class="cls-24" d="M74,194.44s-2.88,2,3.5,2.87,6.81,1.9,5.76,2.63-12.54-1.31-11.7.76,12.62.91,11.82,3.06-12.63-.3-12.23,1.74,18.69,3.66,24.68-1.59c1.4-1.23,3.13-2.08,8.64-1s25.8,4.62,26.61.64c1.9-9.31-22.59-1.77-32.85-5C92.42,196.79,86.66,190.53,74,194.44Z"/></g></g></svg>