<svg id="Layer_1" data-name="Layer 1" xmlns="http://www.w3.org/2000/svg" xmlns:xlink="http://www.w3.org/1999/xlink" viewBox="0 0 407.29 321.14"><defs><style>.cls-1{fill:none;}.cls-2{fill:#f2f2f2;}.cls-16,.cls-2,.cls-48{opacity:0.1;}.cls-3{clip-path:url(#clip-path);}.cls-4{fill:#5ac5d7;}.cls-5{fill:#5fcadc;}.cls-6{fill:#64cfe1;}.cls-7{fill:#69d4e6;}.cls-8{fill:#4fb7c7;}.cls-9{fill:#318295;}.cls-10{fill:#114d66;}.cls-11{fill:#00324c;}.cls-12{fill:#b3e5ff;}.cls-13{fill:#9fd1eb;}.cls-14{fill:#a9dbf5;}.cls-15{fill:#bdefff;}.cls-16{fill:#6897b3;}.cls-17{fill:#002d47;}.cls-18{fill:#96c078;}.cls-19{fill:#a0ca82;}.cls-20{fill:#969a78;}.cls-21{fill:#82ac64;}.cls-22{fill:#243d3f;}.cls-23{fill:#10292b;}.cls-24{fill:#1a1a1a;}.cls-25{fill:#333;}.cls-26,.cls-53{fill:#ceefff;}.cls-26{opacity:0.5;}.cls-27{fill:#4177bd;}.cls-28{fill:#a1d1ec;}.cls-29{fill:#abdbf6;}.cls-30{fill:#376db3;}.cls-31{fill:#29abe2;}.cls-32{fill:#4ab8ba;}.cls-33{fill:#1f9fd3;}.cls-34{fill:#ff2310;}.cls-35{fill:#ccc;}.cls-36{fill:#f32310;}.cls-37{fill:#ff3428;}.cls-38{fill:#fff;opacity:0.03;}.cls-39{opacity:0.15;}.cls-40{fill:#f1f1f1;}.cls-41{fill:red;}.cls-42{fill:#f1f1ea;}.cls-43{fill:#eef5fb;}.cls-44{fill:#e4ebf1;}.cls-45,.cls-57{fill:#f3faff;}.cls-46{fill:#b3b3b3;}.cls-47{fill:#eab066;}.cls-49{fill:#01aa33;}.cls-50{fill:#ff232f;}.cls-51{fill:#eb1e28;}.cls-52{fill:#fbb03b;}.cls-53{opacity:0.75;}.cls-54{fill:#1389c7;}.cls-55{fill:#33b5ec;}.cls-56{fill:#7ea6bb;}.cls-57{fill-rule:evenodd;}</style><clipPath id="clip-path"><rect class="cls-1" x="11.31" y="103.94" width="391.41" height="215.24" rx="98"/></clipPath></defs><path class="cls-2" d="M204.64,0l6,5a14.88,14.88,0,0,0-3,.6Z"/><g class="cls-3"><rect class="cls-4" y="36.04" width="407.29" height="285.1"/><path class="cls-5" d="M407.29,36H0V166.42c61.67-8.14,107-24.94,215.86-12.27a742.08,742.08,0,0,0,191.43-2.46Z"/><path class="cls-6" d="M0,56.92C49,70.51,122,79.14,203.64,79.14s154.65-8.63,203.65-22.22V36H0Z"/><path class="cls-7" d="M9.32,36C58,48,127,55.38,203.49,55.38S349,48,397.66,36Z"/><path class="cls-8" d="M297.83,233.41c-54.58,8-101,3.77-138.76-1.2-.25-1-2.4-2.41-8.08-4.68-6.81-2.72-10.66,1.07-13.72-.28s-5.29-4.05-9.94-4.55-5.35,2.76-8.74,1.55-11.56-.76-12.25,1.06h0c-10.09-.94-19.07-1.22-26.92-.34-35.86,4-41.7,8-79.42,3.16V320.5H407.29V223.44C395.36,222.78,366.15,223.46,297.83,233.41Z"/><path class="cls-9" d="M393.62,251.17a11.79,11.79,0,0,1,1.82-3.11,4.19,4.19,0,0,0,.7-4.52s-.36,4-2.11,4.83a5.17,5.17,0,0,0-1.5,1.36c0-3.15-1.16-4.54-.61-7.64.65-3.69,4.5-3.64,5.3-7.81s-1.16-4.65-1.16-4.65.29,4.17-2.4,6.58c-1.4,1.25-3.1,4.23-4.49,7.45a14.82,14.82,0,0,1,.79-4.3c1.59-4.17.43-11.22-.73-15.77s-2.4-4-2.4-4a32.36,32.36,0,0,1,1.67,10c0,4.89-2.42,10.37-2.93,15a19.34,19.34,0,0,1-.54-5.48,8,8,0,0,0-4.2-7.67s4.09,6.45,2.42,9.77a11.72,11.72,0,0,0-.72,4.77c-1.82-3-3.23-7.71-2.47-10.8,1-4-2.63-6.11-2.63-6.11s1.92,5.28.79,9.26c-.59,2.08.09,6.87,1.21,11.17a10,10,0,0,1-3.14-2.7c-1.69-2.42.48-4.54-1.41-7.31s-3.24-1.94-3.24-1.94,2.49,2.16,2.34,5c-.13,2.46,1.95,8.08,4,11.4-6.11.89-13.23,1.75-21.6,2.53-6.8.63-13.38,1-19.7,1.19a2.78,2.78,0,0,0-.93-3.17c-1.82-1.25-4.75,2-6.9,2s-3.86-3.81-7.23-4.44-5,3.12-8.67,4-3.56-4.31-6.94-5.88-7.44,1.93-10.87,2.73-3.52-2.14-7.79-3.72-9.38,5.36-11.87,5.5h0c-7.85-.74-13.11-1.09-15.15-.22-3.84,1.63-22.17,5.21-37.78,7.89a10.74,10.74,0,0,0,2.45-3.22l-1.25-.32,1.56-.36a13.36,13.36,0,0,0,.72-2.29,20,20,0,0,0,.45-4.3H225l1.47-.56a16.37,16.37,0,0,0-.71-4.26l-.62.07.52-.39a12.39,12.39,0,0,0-2.1-4s0,1,0,2.53l.65.66-.67-.16c-.06.91-.16,2-.33,3l.89,1-1-.22a16.29,16.29,0,0,1-1,3.25l.64,1.9-1.2-.8a5.55,5.55,0,0,1-1.6,1.79,19.69,19.69,0,0,0-3.19-5.24l-2.24,1.12,1.5-2a18.91,18.91,0,0,0-2.12-2,5.16,5.16,0,0,1-.67-.65l-2,1.1,1.44-1.93a7,7,0,0,1-.73-3.64l-1.47-.56,1.6-.79a25.21,25.21,0,0,1,1.25-4.73l-.92-.18,1.1-.33c.35-1,.57-1.58.41-1.58a12.88,12.88,0,0,0-3.37,2.43l.52,1.39-1.33-.61a22.59,22.59,0,0,0-3.29,4.11l1,2.6-2-.84a17.69,17.69,0,0,0-1.5,4.29l2.31,2.05-2.59-.1a17.64,17.64,0,0,0,.06,3.62l2.84,1.41h-2.6c.07.33.14.66.23,1a22.34,22.34,0,0,0,1.07,3.13,24.34,24.34,0,0,1-2.1-2.24l-1.83.9,1.08-1.87a18,18,0,0,1-1.84-3.16H199l1-1.67a15.94,15.94,0,0,1-.36-7.05l-.6-.22.77-.67a17.87,17.87,0,0,1,1-3.26s-2.51.62-3.87,6.08l.85,1.13-1.17.4a34.3,34.3,0,0,0-.49,4.64,16.43,16.43,0,0,0,.53,5l2.05,1.19-1.3.92a14.79,14.79,0,0,0,5.36,6.47c-1.21.15-2.15.24-2.76.26-6.79.25-34,1-36.41,1.6s-31.47-19-42-22.53S94.69,257.46,85.19,257s-29.95,2.8-43.19,0-23.16-8.22-23.93-10.84.26-6.35-2.54-7.47c-1.62-.64-8.72-1.41-15.53-2v83.83H407.29V247.31A96.15,96.15,0,0,1,393.62,251.17Z"/><path class="cls-10" d="M403.21,262.62c-13.23,1.69-20.87,15.2-26.47,15.2-1.48,0-3.79,0-6.44-.11.06-.51.13-1.11.19-1.76a2.47,2.47,0,0,0,1.26-.74c.61-.59,1.31-1.88,1.1-2.1s-1.26.71-1.87,1.3a3.79,3.79,0,0,0-.39.43c.05-.65.09-1.34.12-2a2,2,0,0,0,1-.47c.54-.41,1.22-1.37,1.07-1.57s-1.07.45-1.62.86a3.43,3.43,0,0,0-.47.46c0-.58,0-1.16,0-1.73a1.68,1.68,0,0,0,.89-.54c.42-.42.91-1.35.75-1.5s-.89.52-1.31.94a2.55,2.55,0,0,0-.35.43c0-.59-.07-1.17-.13-1.72a.22.22,0,0,1,0-.08,1.69,1.69,0,0,0,.72-.45c.37-.37.79-1.18.66-1.32s-.78.45-1.15.83a1.86,1.86,0,0,0-.29.35c-.06-.63-.09-1.26-.11-1.88a1.33,1.33,0,0,0,.59-.36c.33-.33.69-1,.58-1.15s-.68.39-1,.72a1.6,1.6,0,0,0-.16.23c0-.72,0-1.43,0-2.08a1.59,1.59,0,0,0,.5-.22c.33-.22.77-.76.69-.88s-.65.22-1,.44a1,1,0,0,0-.18.17c0-.6.07-1.16.11-1.66a1,1,0,0,0,.59-.2c.34-.22.78-.76.7-.88s-.65.22-1,.44a1.64,1.64,0,0,0-.27.24c0-.51.08-.94.1-1.27a1.83,1.83,0,0,0,.33-.74c.12-.53,0-1.46-.15-1.51s-.43.82-.55,1.35a1.69,1.69,0,0,0,0,.91,10.09,10.09,0,0,0-.29,1.26,1.58,1.58,0,0,0-.22-.33c-.27-.3-.73-.78-.84-.68s.18.73.45,1a.93.93,0,0,0,.54.35c-.09.52-.16,1.12-.22,1.74a1.58,1.58,0,0,0-.25-.28c-.31-.25-.85-.65-.94-.53s.29.69.61.94a1,1,0,0,0,.55.26c-.05.68-.09,1.39-.08,2.12l-.22-.19c-.37-.27-1-.7-1.09-.57s.36.78.73,1.05a1.32,1.32,0,0,0,.6.28c0,.63.08,1.25.16,1.87a2.19,2.19,0,0,0-.34-.21c-.48-.23-1.28-.58-1.36-.41s.58.8,1.05,1a1.91,1.91,0,0,0,.74.21s0,.07,0,.1a16.34,16.34,0,0,1,.23,1.83,2.24,2.24,0,0,0-.5-.37c-.53-.3-1.42-.75-1.52-.56s.6,1,1.13,1.25a1.85,1.85,0,0,0,.91.28c0,.53,0,1.06,0,1.58a5.26,5.26,0,0,0-.41-.35c-.55-.4-1.49-1-1.63-.82s.56,1.15,1.11,1.55a2.47,2.47,0,0,0,.88.42c-.05.64-.13,1.26-.23,1.87a3.46,3.46,0,0,0-.31-.47c-.52-.68-1.42-1.75-1.66-1.57s.26,1.57.77,2.24a2.56,2.56,0,0,0,1,.86c-.14.68-.3,1.33-.48,1.94-4.48-.13-9.73-.32-13.79-.55,0-.88,0-2-.08-3.16a3.63,3.63,0,0,0,1.78-1.41c.82-1,1.63-3.18,1.25-3.47s-1.8,1.36-2.62,2.4a8.87,8.87,0,0,0-.5.75c-.06-1-.14-2.08-.25-3.17a3.12,3.12,0,0,0,1.51-.94c.75-.75,1.59-2.38,1.32-2.66s-1.57.92-2.31,1.68a4.12,4.12,0,0,0-.64.81q-.15-1.35-.36-2.67a2.72,2.72,0,0,0,1.25-1c.56-.75,1.12-2.28.84-2.48s-1.26,1-1.83,1.73a4.62,4.62,0,0,0-.44.74c-.17-.9-.36-1.79-.58-2.63,0,0,0-.08,0-.12a2.59,2.59,0,0,0,1-.85c.49-.66,1-2,.74-2.18s-1.11.87-1.6,1.52a3.11,3.11,0,0,0-.37.61c-.22-.95-.41-1.9-.56-2.85a2.21,2.21,0,0,0,.82-.71c.44-.57.86-1.74.65-1.89s-1,.75-1.4,1.32a3,3,0,0,0-.21.33c-.16-1.09-.28-2.15-.38-3.15a2.37,2.37,0,0,0,.73-.45c.47-.42,1-1.35.88-1.52s-1,.48-1.43.9l-.25.25c-.07-.9-.13-1.73-.17-2.49a1.84,1.84,0,0,0,.86-.48c.47-.42,1-1.34.89-1.51s-1,.48-1.43.89a2.7,2.7,0,0,0-.37.4c0-.78-.08-1.45-.12-2a2.68,2.68,0,0,0,.35-1.21c.08-.84-.24-2.27-.55-2.29s-.48,1.35-.55,2.19a2.48,2.48,0,0,0,.19,1.37c-.08.52-.14,1.2-.18,2a3,3,0,0,0-.39-.43c-.48-.4-1.3-1-1.44-.87s.42,1.09.9,1.5a1.87,1.87,0,0,0,.91.48c0,.8,0,1.69,0,2.63a2.65,2.65,0,0,0-.44-.33c-.53-.33-1.44-.82-1.56-.63s.6,1,1.13,1.33a2.07,2.07,0,0,0,.91.33c.06,1,.16,2.13.32,3.24a2.62,2.62,0,0,0-.37-.24c-.62-.35-1.68-.88-1.81-.65s.73,1.12,1.36,1.47a2.53,2.53,0,0,0,1,.33c.17.94.37,1.88.63,2.79a3.94,3.94,0,0,0-.55-.22c-.78-.26-2.09-.63-2.18-.34s1.06,1.11,1.84,1.37a2.8,2.8,0,0,0,1.18.15c0,.06,0,.11.05.16a24.22,24.22,0,0,1,.74,2.78,3.46,3.46,0,0,0-.86-.47c-.87-.34-2.33-.85-2.46-.53s1.14,1.33,2,1.68a3,3,0,0,0,1.48.24c.14.81.25,1.63.33,2.44a5.27,5.27,0,0,0-.7-.45c-.94-.5-2.52-1.26-2.7-.92s1.1,1.65,2,2.15a3.72,3.72,0,0,0,1.46.46c.05,1,.05,2,0,2.93a6.85,6.85,0,0,0-.58-.66c-.94-.93-2.55-2.4-2.89-2.06s.73,2.36,1.67,3.29a4,4,0,0,0,1.73,1.12c-.08,1.12-.2,2.19-.35,3.2-1.73-.11-3.15-.22-4-.34a280.65,280.65,0,0,1-28.51-6.09c-12.22-3.28-17.31-1.22-24.44,0s-22.91.46-33.09,4.4a15.75,15.75,0,0,1-10.47.56c1.71-10,7.9-19.48,14.14-19.79,6.65-.32,6.78-2.28,6.13-2.8s-13.11-2.74-18.13,9.72A56.38,56.38,0,0,0,252,275.28l-.41-.09a64.52,64.52,0,0,1,.86-14.82c2.47-13.37,4.63-14.46,3.54-17.53s-6.82,7-6.28,24.9c.08,2.76.23,5.12.41,7.2l-.55-.05a48.84,48.84,0,0,1-.86-10.09c.29-12.12,2.25-13.39.68-15.94s-5.6,7.17-2.21,22.82c.2.94.4,1.82.6,2.66l-.19-.38c-5-9.3-12-11.22-11.84-9.07s2,1.5,7.73,6.88a22.53,22.53,0,0,1,2.9,3.34A14.63,14.63,0,0,0,242,277c-9.17,5.56-16.47.84-26.14-2.54s-10.18,1.12-23.93,3.38a92.11,92.11,0,0,0-13.07,3.24c-.07-1.44-.13-2.85-.17-4.13,1.1-.05,2.1-.71,2.49-2.44,1-4.44-2.54-6.39-1.63-8.35s3.28-3.53,3.12-6.39-3.47-3-2.74-5.19.23-4.32-1.67-4.6c-1.64-.24-3.65,1.87-2.47,4.37s1.35,5.36-.13,6-3.1,5,.69,7.26-2.28,4.88-1.73,6.79a4.51,4.51,0,0,0,3.35,2.46c0,1.42,0,2.95,0,4.45-2.06.65-4,1.29-5.83,1.85-.26-1.38-.54-2.74-.8-3.94a1.61,1.61,0,0,0,1.26-.89c.7-1.37-1.68-3.23-1.86-4.75s2.26-3,2.42-5.42-2.49-3.31-3.39-5.86,2.62-2.81,3.41-5.31-1.87-5.14-2.68-7.51,1.16-2.63,1.9-5.77-3.12-5.15-3.4-6.91-7.32,1.08-3.87,6,.82,7.63,1.11,11,2.89,5.85,1.86,8.26-.68,8.25.59,10.39-.7,3.59.78,6.14a1.68,1.68,0,0,0,1.22.65c.21,1.24.44,2.67.67,4.18a50.94,50.94,0,0,1-5.09,1.26c-.25-1.64-.56-3.39-.89-5,1.26-.22,2.08-3,.44-4.45s-.93-1.56-.46-4.51a6.11,6.11,0,0,0-2.17-5.84c-1.27-1.23.59-2.8,1.22-4.74s-.57-6.85-2.43-8-11.33-3.25-7.61,4.53,7.44,7.42,6.26,9.35-2.76,2.73-1.25,4.27,4,2.84,3.23,4.16-1.77,5.47,2,5.3c.25,1.61.51,3.36.74,5.12a19.36,19.36,0,0,1-4.53.22c-8.15-.63-30-23.56-39.2-15.15-5.06,4.65-11.53,6.85-19.56,7.5,0-1,0-2.57-.09-4.42a3.69,3.69,0,0,0,1.78-1.41c.82-1,1.63-3.18,1.25-3.47s-1.8,1.36-2.61,2.4a6.23,6.23,0,0,0-.51.75c-.06-1-.14-2.08-.24-3.17a3.14,3.14,0,0,0,1.5-.94c.75-.76,1.59-2.39,1.32-2.66s-1.56.92-2.31,1.67a5.37,5.37,0,0,0-.64.81q-.15-1.34-.36-2.67a2.65,2.65,0,0,0,1.25-1c.57-.74,1.12-2.27.85-2.48s-1.27,1-1.83,1.74a3.49,3.49,0,0,0-.45.74c-.16-.91-.35-1.8-.58-2.64,0,0,0-.07,0-.11a2.52,2.52,0,0,0,1-.85c.5-.66,1-2,.74-2.18s-1.11.87-1.6,1.52a3.11,3.11,0,0,0-.37.61c-.22-.95-.41-1.9-.56-2.85a2.16,2.16,0,0,0,.82-.72c.44-.57.86-1.73.65-1.89s-1,.76-1.39,1.32a2.77,2.77,0,0,0-.22.34c-.16-1.09-.28-2.15-.37-3.16a2.1,2.1,0,0,0,.72-.45c.47-.41,1-1.34.88-1.51s-.95.48-1.42.9a3.13,3.13,0,0,0-.26.25c-.07-.9-.13-1.74-.17-2.49a1.87,1.87,0,0,0,.87-.48c.47-.42,1-1.34.88-1.51s-1,.47-1.43.89a2.28,2.28,0,0,0-.37.4c0-.78-.08-1.45-.12-1.95a2.68,2.68,0,0,0,.35-1.21c.08-.84-.24-2.27-.55-2.3s-.48,1.36-.55,2.2a2.5,2.5,0,0,0,.19,1.37c-.08.52-.14,1.2-.18,2a2.53,2.53,0,0,0-.39-.43c-.48-.41-1.29-1-1.44-.87s.43,1.09.9,1.5a1.87,1.87,0,0,0,.91.48c0,.8,0,1.69,0,2.63a2.29,2.29,0,0,0-.44-.33c-.53-.33-1.44-.82-1.56-.63s.6,1,1.14,1.33a2,2,0,0,0,.9.32c.06,1.05.16,2.14.33,3.25a3.52,3.52,0,0,0-.38-.24c-.62-.35-1.68-.88-1.8-.65s.72,1.12,1.35,1.47a2.33,2.33,0,0,0,1,.32,28.44,28.44,0,0,0,.63,2.8,3.94,3.94,0,0,0-.55-.22c-.78-.26-2.09-.63-2.18-.34s1.06,1.11,1.85,1.36a2.63,2.63,0,0,0,1.17.16c0,.05,0,.11,0,.16a24.22,24.22,0,0,1,.74,2.78,3.57,3.57,0,0,0-.85-.47c-.88-.35-2.34-.85-2.47-.54s1.14,1.34,2,1.69a2.89,2.89,0,0,0,1.48.23c.14.82.25,1.63.33,2.45a5.3,5.3,0,0,0-.7-.46c-.94-.5-2.52-1.25-2.7-.91s1.1,1.65,2,2.15a3.52,3.52,0,0,0,1.46.45c0,1,0,2,0,2.94a6.85,6.85,0,0,0-.58-.66c-.94-.93-2.55-2.4-2.89-2.06s.73,2.36,1.67,3.29a4.14,4.14,0,0,0,1.73,1.12,45.65,45.65,0,0,1-.58,4.68,124.61,124.61,0,0,1-20.77-1.11,45.45,45.45,0,0,0-16.3,1.07c.82-2.89,2.67-4.49,2.76-6.78s-.69-3.36-1-5.77,1.23-4.57,1.92-6.61a5.45,5.45,0,0,0,0-4.16,11.4,11.4,0,0,0-1.41-1.82s1.37,2.46,1.23,3.82S63.76,262.43,64,265s1,4,.25,7.18a8,8,0,0,1-1.66,3.07c.1-.56.19-1.15.25-1.81.68-7.46-1.36-9.41-.6-15.27s5.26-5.77,6.2-12.39-1.36-7.38-1.36-7.38.34,6.62-2.8,10.44c-1.94,2.36-4.38,8.58-6.12,14.72a26.44,26.44,0,0,1,.77-4.63c1.87-6.62.51-17.81-.84-25s-2.8-6.28-2.8-6.28a67.81,67.81,0,0,1,2,15.86c0,4.92-1.14,10.21-2.13,15.29a11.48,11.48,0,0,0-.66-2.13c-2.29-5,1.78-15.78,1.78-15.78s-5.09,4.16-4.07,12.73a37.67,37.67,0,0,1,.1,6.88c-.84-5.91-2.11-11.58-3.47-13.84-3-5.09-3.43-14-3.43-14s-2.93,5.35,0,10.57c2.71,4.84,3.13,15.15,1.85,20.37A13.72,13.72,0,0,1,43.61,259c-1.88-4,1.84-6.54-.22-11.13s-4.27-3.75-4.27-3.75,3.11,3.86,2.17,8c-.45,1.94-.17,5.42.52,9.06-1.88-4.23-4.53-8.69-6.75-13.23.3-1,.63-2,.92-3.25.89-3.75-2.23-11.52-2.17-13.55s2.55-5.41,2.55-5.41a16.24,16.24,0,0,0-2.42,2.42,8.12,8.12,0,0,0-.83,6.14c.64,3.16,2.49,6.65,1.6,10.15-.16.61-.33,1.14-.51,1.64a43.5,43.5,0,0,1-2-5.07,67.74,67.74,0,0,1-2.79-15.74s-1.65-.47-.83,6.83a89.57,89.57,0,0,0,3.91,18.59,13.4,13.4,0,0,0-.35,2.08c-.32,3.63,2.48,6.43,2.93,11.4,0,.25,0,.46,0,.7C26.05,258,18.91,258.17,0,267.25v53.89H407.29V263.35A6.9,6.9,0,0,0,403.21,262.62ZM45.28,272.24a15.9,15.9,0,0,1,.94,2.09c-.5-.37-1-.76-1.55-1.19a11.65,11.65,0,0,0-.09-2.36C44.81,271.31,45,271.81,45.28,272.24Zm-11-17c0-.21,0-.39,0-.58.29.56.59,1.1.91,1.59,2.17,3.37,3.75,8.76,5,12.87-1-.91-2-1.77-2.89-2.55C37.85,260.23,34.66,259.59,34.25,255.29Z"/><path class="cls-11" d="M378.07,294.24c0-.27.07-.55.11-.84a3.49,3.49,0,0,0,1.92-1c.95-.85,2.06-2.74,1.75-3.09s-1.92,1-2.87,1.85a5.81,5.81,0,0,0-.6.63c.11-1,.21-2,.29-3.05a2.91,2.91,0,0,0,1.58-.64c.83-.59,1.9-2,1.69-2.3s-1.64.61-2.47,1.2a4,4,0,0,0-.73.67c.05-.87.08-1.73.09-2.6a2.53,2.53,0,0,0,1.35-.76c.66-.61,1.44-2,1.21-2.21s-1.35.73-2,1.35a4.32,4.32,0,0,0-.54.63c0-.89,0-1.76-.11-2.6a.37.37,0,0,1,0-.11,2.43,2.43,0,0,0,1.1-.64c.58-.54,1.26-1.73,1.06-1.94s-1.19.64-1.77,1.17a3.48,3.48,0,0,0-.45.52q-.07-1.41-.06-2.79a2.2,2.2,0,0,0,.9-.55c.5-.46,1.09-1.5.92-1.68s-1,.55-1.54,1a3.32,3.32,0,0,0-.26.28c0-1.05.09-2.08.17-3.05a2.17,2.17,0,0,0,.76-.31c.51-.31,1.2-1.1,1.08-1.28s-1,.29-1.49.61a1.55,1.55,0,0,0-.28.2c.07-.86.16-1.67.24-2.39a1.85,1.85,0,0,0,.9-.32c.51-.31,1.2-1.1,1.08-1.28s-1,.29-1.5.61a3.65,3.65,0,0,0-.41.31c.09-.74.16-1.38.21-1.86a2.69,2.69,0,0,0,.53-1.09c.21-.79.14-2.19-.14-2.26s-.69,1.2-.89,2a2.45,2.45,0,0,0-.05,1.33,17.11,17.11,0,0,0-.49,1.86,2.37,2.37,0,0,0-.31-.47c-.38-.46-1-1.2-1.22-1.06s.23,1.1.61,1.57a1.89,1.89,0,0,0,.78.6c-.15.75-.28,1.6-.4,2.5a2.56,2.56,0,0,0-.36-.39c-.46-.39-1.23-1-1.38-.85s.4,1.05.86,1.45a1.88,1.88,0,0,0,.8.45c-.11,1-.19,2.06-.22,3.13l-.31-.29c-.54-.43-1.45-1.1-1.61-.91s.5,1.18,1,1.62a2.35,2.35,0,0,0,.87.47c0,.92,0,1.84.13,2.75a2.8,2.8,0,0,0-.48-.3c-.7-.38-1.88-.94-2-.69s.82,1.23,1.52,1.61a3,3,0,0,0,1.09.34c0,.05,0,.1,0,.16a25.31,25.31,0,0,1,.25,2.75,3.91,3.91,0,0,0-.74-.59c-.77-.47-2.07-1.19-2.24-.91s.85,1.46,1.63,1.93a2.82,2.82,0,0,0,1.35.47,23.47,23.47,0,0,1-.09,2.37,4.39,4.39,0,0,0-.58-.55c-.81-.63-2.19-1.6-2.41-1.31s.77,1.74,1.58,2.37a3.39,3.39,0,0,0,1.31.67c-.12,1-.28,1.89-.46,2.79a5.16,5.16,0,0,0-.44-.72c-.73-1-2-2.69-2.4-2.43s.3,2.36,1,3.4a4,4,0,0,0,1.46,1.34c-.12.49-.25,1-.38,1.44-3.28.6-6.72,1.16-10.37,1.6,0-.82,0-1.73-.08-2.68a5.11,5.11,0,0,0,2.39-1.89c1.09-1.39,2.17-4.26,1.66-4.65s-2.4,1.82-3.5,3.22a8.31,8.31,0,0,0-.67,1c-.08-1.36-.19-2.79-.33-4.25a4.16,4.16,0,0,0,2-1.26c1-1,2.13-3.19,1.77-3.56s-2.09,1.23-3.1,2.24a6.49,6.49,0,0,0-.85,1.09c-.13-1.2-.3-2.39-.49-3.58a3.54,3.54,0,0,0,1.68-1.36c.76-1,1.5-3.05,1.13-3.32s-1.69,1.32-2.45,2.32a5.59,5.59,0,0,0-.59,1c-.22-1.21-.48-2.4-.77-3.53a.83.83,0,0,1,0-.15,3.36,3.36,0,0,0,1.35-1.14c.67-.88,1.32-2.67,1-2.92s-1.48,1.16-2.15,2a4.48,4.48,0,0,0-.49.81c-.3-1.27-.54-2.55-.75-3.81a3,3,0,0,0,1.1-1c.58-.76,1.15-2.32.87-2.53s-1.29,1-1.87,1.77a3.79,3.79,0,0,0-.29.45c-.21-1.46-.38-2.89-.5-4.23a3.18,3.18,0,0,0,1-.61c.63-.55,1.38-1.79,1.18-2s-1.28.64-1.91,1.2c-.13.11-.23.23-.34.34-.1-1.2-.17-2.33-.23-3.33a2.66,2.66,0,0,0,1.16-.65c.63-.56,1.38-1.8,1.18-2s-1.28.64-1.91,1.2a3,3,0,0,0-.49.53c-.06-1-.11-1.94-.16-2.6a3.81,3.81,0,0,0,.47-1.63c.09-1.13-.33-3-.74-3.07s-.65,1.82-.74,2.94a3.39,3.39,0,0,0,.25,1.84c-.1.69-.18,1.6-.23,2.67a3.45,3.45,0,0,0-.53-.57c-.64-.55-1.73-1.4-1.93-1.17s.57,1.46,1.21,2a2.57,2.57,0,0,0,1.22.64c0,1.07,0,2.26,0,3.53a3.52,3.52,0,0,0-.59-.45c-.72-.43-1.93-1.1-2.09-.84s.8,1.35,1.52,1.78a2.64,2.64,0,0,0,1.21.43c.08,1.4.22,2.87.44,4.35-.16-.11-.32-.22-.5-.32-.84-.47-2.25-1.18-2.42-.87s1,1.5,1.81,2a3.23,3.23,0,0,0,1.3.43c.22,1.27.5,2.53.84,3.75a5.54,5.54,0,0,0-.73-.3c-1.05-.35-2.8-.84-2.92-.46s1.42,1.49,2.47,1.83a3.49,3.49,0,0,0,1.57.21,1.87,1.87,0,0,1,.07.22,34,34,0,0,1,1,3.72,5.08,5.08,0,0,0-1.14-.63c-1.17-.46-3.14-1.14-3.3-.72s1.52,1.79,2.69,2.26a3.85,3.85,0,0,0,2,.31c.2,1.1.34,2.19.44,3.28a6.81,6.81,0,0,0-.93-.61c-1.26-.67-3.38-1.68-3.62-1.23s1.48,2.21,2.74,2.88a4.78,4.78,0,0,0,2,.61c.07,1.34.08,2.65,0,3.94a7.77,7.77,0,0,0-.77-.89c-1.26-1.25-3.42-3.21-3.88-2.76s1,3.16,2.24,4.41a5.45,5.45,0,0,0,2.31,1.49c-.07,1.08-.17,2.11-.29,3.11a139.09,139.09,0,0,1-17.66.85c-6.57-.11-14.41-.55-22.9-1.15,1.43-1,3.1-2,4.74-3.22,4.29-3.18,5-9.91,2.8-18.68a27.76,27.76,0,0,1,3.92-23c4.29-6.53.56-22-2.8-25.57s4.85,13.06,2.42,19.23-8.71,17.54-6.4,29.3c1.55,8-4.26,16.26-7.9,21.66l-2.22-.16c.47-.83,1-1.76,1.49-2.82,2.34-4.76,4.86-9.24,3.74-14.38s-3.27-6.44-3.17-12.23,3-10.64,3-15.21-.41-8.55-2.12-6.52,1.1,4,.44,8.38-4.76,9.9-2.05,18.11,2.33,14.38-.84,19.33c-1.19,1.85-2.31,3.62-3.11,5.13L314,295.3c1.94-2.08,4.86-5.74,5-9,.21-4.94-1.85-7.56-2.31-13.72s-.66-13.07-.19-16.24,1.1-5.6-.85-5.6-.48,14.47,0,20,3,14.1,1.5,16.81c-.88,1.59-3.42,3.94-4.77,6a15.54,15.54,0,0,1,.39-5.91c1.4-4.67-1.09-13.07-1.25-17.18s-1-6-1.28-2.61,1.63,10,1.28,14.72c-.25,3.46-1.58,6.45-1.92,9.32-.19-.46-.38-.92-.57-1.36-2.52-5.88-3.73-12.6-2-23.52s-2.23-10.92-1.39-9,.47,13.72-1.3,16.89,1.77,13.07,3.26,16.71a27.1,27.1,0,0,1,1.05,3.28l-.51-.05c-3.21-4.6-9.31-13.6-7.07-27,2.8-16.8-4.48-23.9-4-19.42s2.67,11.2,1.92,19.61-3.92,15.49,0,21.09a28.48,28.48,0,0,0,5.33,5.44c-33.09-2.8-69-6.38-78.68-3.51-3.11.93-8.27,2.12-14.55,3.39.88-2.63,1.79-6.48.94-6.86-.55-.26-1.73,1-2.89,2.59.22-3.95.05-8.65-1.16-8.89-.89-.17-2.17,2.12-3.3,4.83-.85-4.92-2.36-10.5-3.91-10.46s-2.91,6.68-3.39,11.87c-1.53-2.56-3.23-4.81-4.09-4.5-1.24.46-.32,6.19.65,9.94-1.17-.78-2.22-1.3-2.55-1-.61.57,1.35,3.71,2.8,5.6-20.69,3.51-44.07,6.39-50,4.44-1.75-.58-4.69-1.42-8.45-2.41,1-2.66,2.52-7.73,3.94-12.83,1.21-.06,3.27-.86,5.65-1.05,3.67-.28,6.36-2.11,5.93-3.45s-2-4.74-3.39-3.61c-1.07.86-4.4,2-6.69,2.56,1.32-5,2.32-9.13,2.32-9.62,0-1.27-4.38-2.68-4.24-1.41s-3,12.14-4.52,16.95a75.54,75.54,0,0,0-2.45,11.58l-.31-.07c.75-4.51,1.24-10.29.79-12.67-.71-3.65-3.11-6.61-4.66-6.61s1.55,6.64,0,12.85c-.35,1.39-.63,2.82-.85,4.19-.54-3.23-1.45-8.52-1.69-9.2-.36-1-3.68-.92-3.82-.42a37.26,37.26,0,0,0,.93,4.46c-1.21-.86-2.68-2-3.12-1.29s1.13,2.19,2.19,3.11a5.48,5.48,0,0,0,1.59.87c.25,1,.5,1.95.74,2.85l-2.23-.49c.47-.48.87-1,.75-1.26-.21-.49-3.81-1.69-4.52-1.69-.54,0-.83,1.1-.91,2l-1.59-.31c1.38-1.34,3.32-3.65,3.07-4.26-.36-.85-.71-3.18-1.84-2.76a9.51,9.51,0,0,0-2.27,2.5,17.7,17.7,0,0,1,1.64-4.05c1.06-1.41,1.83-7.7,1.9-8.61s-2.19-2.9-3.32-2.76c-.32,0-.81,1.7-1.34,4.07-.86-1.32-2.5-3.5-3.6-3.71a2,2,0,0,0-2.26,1.9c.1.4,3.23,3.27,5.23,4.87-.57,2.93-1.13,6.25-1.52,8.94-.35-2.5-.82-5.61-1.16-6-.57-.71-3.89-1.63-4.17-1.27a14.47,14.47,0,0,0,.43,3.63,12.42,12.42,0,0,0-3.11-.66,21.45,21.45,0,0,0-1.65,5.71h0c0-3,0-6.77,0-7.89a2.48,2.48,0,0,0-.58-1.43c1.12-1.38,2.41-3.5.93-3.55s-1.6,1.25-2.25,2.26a4.62,4.62,0,0,0-2.2-1c-.86,0-.1,4.82.75,8.72a2.26,2.26,0,0,0-1.59-.59,3.7,3.7,0,0,0-2.18,2.43l-1.22-.16a28.76,28.76,0,0,0,1.91-2.73c.85-1.37.16-2.64-1.43-2.6-1.17,0-1.45,1.79-2.2,3.28.61-2.9,1.32-6,1.49-7.61.24-2.28.71-4.29.56-4.66s-2.76-.8-3.07-.8a9,9,0,0,0-.47,2.18c-1.67-1.86-4.44-4.69-5.22-5.35-1-.85-2.12,1.2-2.4,1.62s4.91,5,7.14,7.05c-.29,2.14-.57,4.49-.75,6.34-.3-1.66-.73-3.37-2-3.5-1.93-.19-2.55,2.27-.78,6-15.82-1.52-31-1.21-39.91,3.28-6.5,3.26-15.2,3.59-24.31,2,.55-.77,1.35-1.91,2.25-3.28a3.47,3.47,0,0,0,2.12-.09c1.18-.34,3-1.51,2.82-1.94s-2.09.05-3.27.39a5.2,5.2,0,0,0-.79.29c.5-.8,1-1.64,1.54-2.52a2.85,2.85,0,0,0,1.64.1c1-.16,2.5-.93,2.44-1.28s-1.68-.16-2.65,0a4.35,4.35,0,0,0-.92.27c.41-.73.8-1.47,1.18-2.21a2.46,2.46,0,0,0,1.49-.09c.84-.26,2.08-1.11,2-1.41s-1.49.06-2.32.31a3.65,3.65,0,0,0-.74.32c.37-.77.71-1.55,1-2.3l0-.1a2.26,2.26,0,0,0,1.22-.1c.74-.22,1.83-1,1.75-1.23s-1.31.05-2,.27a2.78,2.78,0,0,0-.6.26c.34-.84.72-1.65,1.12-2.45a2.2,2.2,0,0,0,1-.09c.64-.2,1.59-.84,1.52-1.08s-1.14.05-1.77.24a2.83,2.83,0,0,0-.35.14c.47-.91,1-1.78,1.44-2.59a2.11,2.11,0,0,0,.79.06c.58-.06,1.5-.45,1.48-.66s-1-.16-1.56-.1l-.33.05,1.22-2a1.77,1.77,0,0,0,.92.11c.58-.06,1.51-.45,1.49-.66s-1-.16-1.56-.11a2.81,2.81,0,0,0-.49.1c.38-.61.72-1.13,1-1.53a2.51,2.51,0,0,0,.93-.72c.51-.6,1-1.84.83-2s-1.1.76-1.62,1.36a2.4,2.4,0,0,0-.6,1.13c-.34.35-.75.83-1.21,1.41a2.86,2.86,0,0,0-.07-.54c-.14-.56-.41-1.49-.61-1.44s-.27,1.06-.14,1.63a1.81,1.81,0,0,0,.43.85c-.45.59-.93,1.27-1.41,2a3,3,0,0,0-.15-.49c-.23-.53-.64-1.4-.84-1.32s-.09,1.09.14,1.62a1.82,1.82,0,0,0,.5.73c-.52.83-1,1.71-1.52,2.63,0-.12-.08-.25-.14-.39-.29-.6-.8-1.57-1-1.47s-.07,1.24.22,1.85a2.25,2.25,0,0,0,.55.77c-.39.8-.74,1.62-1.05,2.45a2.83,2.83,0,0,0-.28-.46c-.45-.62-1.24-1.61-1.46-1.45s.19,1.42.64,2a2.71,2.71,0,0,0,.8.75.88.88,0,0,1-.05.15,22.91,22.91,0,0,1-.95,2.5,3,3,0,0,0-.39-.82c-.47-.74-1.3-1.91-1.56-1.74s.13,1.62.6,2.36a2.81,2.81,0,0,0,1,1c-.33.69-.69,1.36-1.08,2a5.06,5.06,0,0,0-.28-.72c-.43-.89-1.22-2.32-1.54-2.16s-.06,1.84.38,2.73a3.4,3.4,0,0,0,.84,1.14c-.5.78-1,1.51-1.57,2.23a6.05,6.05,0,0,0-.07-.82c-.21-1.21-.62-3.19-1.07-3.12s-.73,2.18-.53,3.39a3.92,3.92,0,0,0,.7,1.78,41.58,41.58,0,0,1-3.44,3.66c-1-.21-2-.45-3.07-.71.33-1.6.72-3.66,1.11-6a6.38,6.38,0,0,0,3.47-1.73c1.72-1.45,3.81-4.73,3.28-5.35s-3.46,1.64-5.19,3.09a11.23,11.23,0,0,0-1.1,1.07c.26-1.71.5-3.51.7-5.36a5.36,5.36,0,0,0,2.83-1.05c1.51-1,3.49-3.41,3.13-4s-2.93,1-4.44,2a8,8,0,0,0-1.33,1.09c.14-1.51.25-3,.32-4.54a4.56,4.56,0,0,0,2.44-1.26c1.2-1,2.65-3.39,2.27-3.83s-2.44,1.2-3.65,2.25a6.6,6.6,0,0,0-1,1.08c0-1.57,0-3.12,0-4.59v-.2a4.32,4.32,0,0,0,2-1.07c1.06-.92,2.33-3,2-3.36s-2.15,1.05-3.21,2a6,6,0,0,0-.82.87c0-1.65,0-3.3.06-4.93a3.84,3.84,0,0,0,1.63-.9c.92-.8,2-2.59,1.73-2.92s-1.86.91-2.78,1.71a5.43,5.43,0,0,0-.48.48c.12-1.87.29-3.68.48-5.39a3.76,3.76,0,0,0,1.36-.49c.93-.53,2.19-1.88,2-2.21s-1.76.46-2.69,1a3.65,3.65,0,0,0-.5.34c.18-1.53.38-2.94.57-4.21a3.31,3.31,0,0,0,1.61-.5c.93-.53,2.19-1.88,2-2.21s-1.76.46-2.69,1A3.9,3.9,0,0,0,21,247c.19-1.31.36-2.44.47-3.28a4.84,4.84,0,0,0,1-1.9c.42-1.38.39-3.86-.11-4s-1.28,2.09-1.7,3.47a4.27,4.27,0,0,0-.16,2.34c-.31.84-.65,2-1,3.27A3.68,3.68,0,0,0,19,246c-.65-.85-1.78-2.2-2.09-2s.33,2,1,2.81A3.2,3.2,0,0,0,19.28,248c-.31,1.32-.61,2.8-.87,4.39a4.33,4.33,0,0,0-.62-.7c-.77-.73-2.11-1.88-2.38-1.59s.65,1.88,1.43,2.61a3.47,3.47,0,0,0,1.39.85c-.26,1.76-.47,3.62-.59,5.52a6.69,6.69,0,0,0-.53-.54c-.92-.79-2.5-2-2.79-1.71s.82,2.13,1.74,2.92a4.16,4.16,0,0,0,1.51.89,46.44,46.44,0,0,0,.06,4.87,7.81,7.81,0,0,0-.82-.56c-1.22-.7-3.27-1.77-3.52-1.33s1.38,2.22,2.59,2.92a4.87,4.87,0,0,0,1.91.67c0,.1,0,.19,0,.29a41.89,41.89,0,0,1,.27,4.88,6.62,6.62,0,0,0-1.26-1.08c-1.14-.75-2.94-1.83-3.65-1.84.12-.25.19-.47.12-.55s-1.26.62-1.88,1.16l-.36.36c-.08-1.28-.22-2.54-.4-3.73a2.27,2.27,0,0,0,.94-.57c.53-.49,1.14-1.58,1-1.77s-1.09.58-1.61,1.08a3,3,0,0,0-.42.47c-.17-1.07-.37-2.07-.58-3a2.13,2.13,0,0,0,.9-.75c.44-.57.87-1.74.67-1.9s-1,.75-1.42,1.32a2.73,2.73,0,0,0-.34.58c-.23-.89-.46-1.64-.67-2.21A2.93,2.93,0,0,0,9,258.35c-.28-.92-.81-2.44-1.14-2.34s-.36,1.78-.08,2.71A3.21,3.21,0,0,0,8.44,260c.07.56.19,1.32.32,2.21a2.93,2.93,0,0,0-.5-.36c-.63-.35-1.69-.89-1.82-.67s.72,1.14,1.35,1.5a2.26,2.26,0,0,0,1.09.34c.13.85.26,1.81.39,2.84a4,4,0,0,0-.34-.23c-.63-.36-1.69-.9-1.82-.67s.72,1.14,1.35,1.49a2.49,2.49,0,0,0,.92.34c.13,1.15.25,2.38.33,3.64a3.42,3.42,0,0,0-.33-.33c-.62-.54-1.68-1.38-1.88-1.15s.55,1.43,1.18,2a2.59,2.59,0,0,0,1.09.61c.05,1.1.07,2.22.05,3.33a6,6,0,0,0-.56-.59c-.72-.62-1.94-1.59-2.17-1.33s.64,1.65,1.35,2.27a2.86,2.86,0,0,0,1.34.72v.14c0,1-.06,2,0,3.1a4.44,4.44,0,0,0-.67-.73c-.82-.71-2.21-1.81-2.47-1.52s.72,1.88,1.54,2.59a3.08,3.08,0,0,0,1.65.85c0,1,.12,2.06.21,3.09a5.05,5.05,0,0,0-.9-.76c-1-.67-2.75-1.7-3-1.33s1.1,2,2.12,2.67a3.53,3.53,0,0,0,1.91.71c.14,1.25.3,2.47.47,3.62a7.28,7.28,0,0,0-.74-.72c-1.17-1-3.15-2.51-3.51-2.09s1.06,2.64,2.22,3.62a4.29,4.29,0,0,0,2.34,1.16c.17,1,.33,1.91.49,2.73A91.05,91.05,0,0,1,0,288.51v32.63H407.29V289.37C400,289.17,390.3,291.94,378.07,294.24Zm-367-22.8a2.9,2.9,0,0,0,1-.59,5.3,5.3,0,0,0,.8-1A8.37,8.37,0,0,0,15.66,273a4.77,4.77,0,0,0,2.37.91c0,1.41-.14,2.81-.3,4.19a7.36,7.36,0,0,0-1-1,18,18,0,0,0-3.51-2.45c.5-.49.89-1,.78-1.2s-1.56.42-2.38.9a4.81,4.81,0,0,0-.55.38A33,33,0,0,0,11.1,271.44Zm-.17,4.64c0-.06,0-.13,0-.19a3.25,3.25,0,0,0,1.29-.46l.32-.21a7.69,7.69,0,0,0,1.27,2.22,11,11,0,0,0-2.22,1.21,4.2,4.2,0,0,0-.85.73A28.06,28.06,0,0,1,10.93,276.08Zm-.15,4.37a2,2,0,0,0,.68-.16,10.19,10.19,0,0,0,.46,2.1l-.25.21a4.85,4.85,0,0,0-.68.68C10.88,282.34,10.82,281.4,10.78,280.45Zm.39,4.24a4,4,0,0,0,1.35-.73,10.41,10.41,0,0,0,.77,1.46l.11.16c-.39.52-.78,1.08-1.08,1.54a6,6,0,0,0-.49.88C11.57,286.92,11.34,285.82,11.17,284.69Zm2.67,9.12-.28-.08c-.44-1.19-.87-2.48-1.25-3.85A4.81,4.81,0,0,0,14,288.22,7,7,0,0,0,14.6,287a5,5,0,0,0,1.17.89C15.18,290,14.52,292,13.84,293.81Zm1.92-10c-.41-.62-.92-1.36-1.44-2.06.19-.38.28-.69.17-.81s-.36,0-.7.14a9.57,9.57,0,0,0-1.25-1.36,6.22,6.22,0,0,0,1.64-1.82,10.12,10.12,0,0,0,1,1,6.19,6.19,0,0,0,2.26,1.27c-.25,1.68-.59,3.3-1,4.9A10.08,10.08,0,0,0,15.76,283.8ZM98,291.9a5.42,5.42,0,0,0,.7-.54c.06.23.11.45.17.67Zm8.29,1.31c.11-.29.5-1.33.85-2.43a26.2,26.2,0,0,0,.84,2.73Z"/><path class="cls-12" d="M95.25,270.09A1.75,1.75,0,0,0,93.89,269L92,268.68a1.76,1.76,0,0,0-2,1.47,1.75,1.75,0,0,0-1.46-2l-1.88-.29a1.76,1.76,0,0,0-2,1.46,1.74,1.74,0,0,0-1.46-2L81.33,267a1.76,1.76,0,0,0-2,1.46,1.74,1.74,0,0,0-1.46-2L76,266.22a1.74,1.74,0,0,0-2,1.46,1.77,1.77,0,0,0-1.47-2l-1.88-.28a1.73,1.73,0,0,0-1.49.49c-.87-.5-3.52-1.7-9.47-2.18-7.59-.61-9.95,7.52-13.43,10.46S40,276.3,40,276.3l-.6,3.93-.6,3.92s2.94.09,5.37,3.93,2.25,12.31,9.67,14c5.82,1.34,8.71,1,9.69.77a1.77,1.77,0,0,0,1.27.92l1.88.29a1.77,1.77,0,0,0,2-1.47,1.76,1.76,0,0,0,1.46,2l1.88.29a1.77,1.77,0,0,0,2-1.47,1.76,1.76,0,0,0,1.46,2l1.88.29a1.74,1.74,0,0,0,2-1.47,1.77,1.77,0,0,0,1.47,2l1.88.29a1.74,1.74,0,0,0,2-1.47,1.76,1.76,0,0,0,1.47,2l1.87.29a1.76,1.76,0,0,0,1.87-1,3.48,3.48,0,0,0,2.27,1.37l8.08,1.24a3.5,3.5,0,0,0,4-2.93L109,274.55a3.52,3.52,0,0,0-2.93-4L98,269.31A3.49,3.49,0,0,0,95.25,270.09Z"/><path class="cls-13" d="M63.27,302.11s1-4.9,3-17.74,2.36-17.51,2.36-17.51Z"/><path class="cls-13" d="M68.61,302.93s1-4.9,3-17.74S74,267.68,74,267.68Z"/><path class="cls-13" d="M74,303.75s1-4.9,3-17.74,2.36-17.51,2.36-17.51Z"/><path class="cls-13" d="M79.29,304.57s1-4.89,3-17.74,2.36-17.51,2.36-17.51Z"/><path class="cls-13" d="M84.62,305.39s1.06-4.89,3-17.74S90,270.15,90,270.15Z"/><path class="cls-13" d="M90,306.22s1.06-4.9,3-17.74S95.35,271,95.35,271Z"/><path class="cls-14" d="M39.1,275.59a.42.42,0,0,0-.51.3l-1.28,8.3a.43.43,0,0,0,.4.44l1,.16a.44.44,0,0,0,.52-.31l1.27-8.29a.43.43,0,0,0-.4-.45Z"/><path class="cls-15" d="M48.75,275c1-.92,7.2-7.46,9.61-8s9,1.18,9.19.73-7.43-2.1-9.88-1.74-9,8.49-9.18,8.93S48.75,275,48.75,275Z"/><path class="cls-15" d="M96.83,270.81s8.93,1.19,9.77,1.72,1.13,1.83.78,2-.75-1.19-2.11-1.65-8.34-1.37-8.61-1.63S96.28,270.94,96.83,270.81Z"/><path class="cls-16" d="M108.11,280.52c-1.06,3.25-2,6.34-2.85,9.1-4.91,16.53-18,13.19-28.29,12.05-7.06-.78-17.63-.72-26.93-1.45a8.4,8.4,0,0,0,3.75,1.87c5.82,1.34,8.71,1,9.69.77a1.77,1.77,0,0,0,1.27.92l1.88.29a1.77,1.77,0,0,0,2-1.47,1.72,1.72,0,0,0,0,.32h0a1.76,1.76,0,0,0,1.48,1.68l1.88.29a1.77,1.77,0,0,0,2-1.47,1.77,1.77,0,0,0,0,.32h0a1.76,1.76,0,0,0,1.48,1.67l1.88.29a1.74,1.74,0,0,0,2-1.47,1.74,1.74,0,0,0,0,.32h0a1.75,1.75,0,0,0,1.48,1.67l1.88.29a1.74,1.74,0,0,0,2-1.47,1.74,1.74,0,0,0,0,.32h0a1.74,1.74,0,0,0,1.48,1.67l1.87.29a1.76,1.76,0,0,0,1.87-1,3.48,3.48,0,0,0,2.27,1.37l8.08,1.24a3.5,3.5,0,0,0,4-2.93Z"/><path class="cls-17" d="M43.56,298.67c3.54,1.16,19.91,3.56,30.35,4s26.18,4.64,33.62,3.94,5.07,2.87-7.21,3.44S66,303.7,54.54,303.44,40.48,297.66,43.56,298.67Z"/><path class="cls-18" d="M277.67,293.85h0l5.07-.68-.61-4.6-5.07.68-12.85-3.19-28.39,3.78s-2.15.7-1.25,7.41,3.14,6.83,3.14,6.83l28.39-3.78Z"/><path class="cls-19" d="M236.09,292l28.39-3.79,12.85,3.19,5.07-.68-.18-1.36-5.07.68L264.3,286.8l-28.39,3.78s-2.15.7-1.25,7.42c0,.24.07.45.1.68C234.1,292.61,236.09,292,236.09,292Z"/><rect class="cls-20" x="244.94" y="285.76" width="14.37" height="18.28" transform="translate(511.14 6.03) rotate(82.41)"/><rect class="cls-21" x="279.33" y="290.72" width="4.98" height="0.45" transform="translate(532.99 -26.83) rotate(82.41)"/><rect class="cls-21" x="278.52" y="290.83" width="4.98" height="0.45" transform="translate(532.4 -25.94) rotate(82.41)"/><rect class="cls-21" x="277.72" y="290.94" width="4.98" height="0.45" transform="translate(531.81 -25.04) rotate(82.41)"/><rect class="cls-21" x="276.91" y="291.04" width="4.98" height="0.45" transform="translate(531.21 -24.15) rotate(82.41)"/><path class="cls-17" d="M278.11,298.33c-2.51.69-14,1.85-21.31,1.83s-18.42,2.42-23.59,1.69-3.63,1.84,4.92,2.63,24.18-3.36,32.16-3.17S280.29,297.72,278.11,298.33Z"/><polygon class="cls-22" points="344.18 307.41 333.87 300.78 332.53 297.5 335.97 296.55 336.16 294.75 338.78 292.65 339.11 289.1 343.33 289.66 341.86 286.3 353.1 293.52 344.18 307.41"/><polygon class="cls-23" points="334.14 300.55 332.99 297.73 336.29 296.82 336.49 294.93 339.1 292.83 339.42 289.49 343.89 290.08 342.63 287.2 352.63 293.62 344.08 306.93 334.14 300.55"/><path class="cls-22" d="M349.39,291.17,340.51,305c.1.08,3.93,2.57,3.93,2.57a2.64,2.64,0,0,0,3.65-.39l.56-.87a2.64,2.64,0,0,1,3.65-.38l1.74,1.12,0,0a.54.54,0,0,0,.27.59l1.44.93a.53.53,0,0,0,.73-.08l1.18-1.84.37-.58,1.17-1.81a.53.53,0,0,0-.24-.69l-1.44-.93a.56.56,0,0,0-.63,0l0,0-1.74-1.13A2.62,2.62,0,0,1,354,298l.55-.87a2.63,2.63,0,0,0-1.17-3.48S349.51,291.23,349.39,291.17Z"/><polygon class="cls-22" points="341.47 305.67 336.42 302.42 340.16 303.7 339.23 301.57 341.65 301.33 338.64 297.85 341.65 297.88 342.13 295.12 345.5 295.11 342.92 291.92 347.21 292.14 346.46 289.25 350.39 291.78 341.47 305.67"/><path class="cls-17" d="M337.67,307.41c4.2-.91,6.32-1.83,9.76-.72s12.05.5,14-1,2.42,4-5.47,4.28-11.2-2.24-15.27-1.52S337.27,307.49,337.67,307.41Z"/><path class="cls-24" d="M218.2,287.24h0c1.85-10.54-8.9-21.58-24.29-24.8s-29.54,2.52-32.17,12.82v-.06l-.13.61v.05l-1.46,7c0,.1,0,.19-.07.28s-.05.27-.07.41l-.05.22v0c-2.57,14.15,8.51,23.54,23.88,26.76,15.55,3.26,30.49-2.36,32.74-15.42Zm-30.87,6.44c-7.76-1.62-13.61-6.47-14.87-11.74,3.26-4.31,10.57-6.41,18.33-4.78s13.62,6.47,14.88,11.74C202.4,293.22,195.1,295.31,187.33,293.68Z"/><path class="cls-25" d="M193.88,262.44c-15.61-3.27-30.08,2.73-32.31,13.4s8.61,22,24.22,25.23,30.07-2.73,32.3-13.4S209.49,265.71,193.88,262.44Zm-6.55,31.24c-9.64-2-16.34-9-15-15.58s10.32-10.29,20-8.27,16.34,9,15,15.58S197,295.7,187.33,293.68Z"/><path class="cls-17" d="M172.47,310a67.1,67.1,0,0,1,24.9-1.21c10,1.33,16.55-1.47,16.55-1.47s.19,4-15.91,4.39S170.92,310.39,172.47,310Z"/><path class="cls-26" d="M299.43,249a12.8,12.8,0,0,1,.6,1.27,1.71,1.71,0,0,1,.4.25.39.39,0,0,1,.15.3,1.24,1.24,0,0,1-.15.51,7.71,7.71,0,0,1-2.42,2.23c-.75.51-1.54,1-2.17,1.35a15,15,0,0,0-2.47,1.66c-1.23,1.2-1.27,1.71-1.84,3.44,0,0,.23-1,1.2-4.7s3.24-4.85,4.51-5.19l.14,0c-.06-.36-.1-.69-.15-1-2.16.48-4.51,2.2-5.5,6a10.42,10.42,0,0,1-.89,2.28,6.71,6.71,0,0,0-1.14-1.86,19.15,19.15,0,0,1-1.85-2.75c-.51-2.47,1.63-10.07,3.35-12.38s-6-4.69-5.89,1.93c.06,5.32-2,8.56-3.45,10-1,.95-2.41,2-3.3,1.87-1.53-.31-9.68,1.54-10.86,3.43s-2.12,5.25,2.09,8.28,5.55,4.75,6.7,7.64,4.19,6,8.68,3.48,5-9.7,5.65-12q.1-.4.21-.87h0c.08-.35,1.69-5.46,3.06-6.79a44.81,44.81,0,0,1,4.12-2.65,12.43,12.43,0,0,0,2.59-2.09,3,3,0,0,0,.82-1.7C301.66,249.91,300.74,249.19,299.43,249Zm-13.08-6.74c.15-1.12.23-2.58,1.45-3.09a2.57,2.57,0,0,1,2.52.35.47.47,0,0,1,.09.13s0,0,0,.07C288.69,241.94,284.08,258.68,286.35,242.22Z"/><path class="cls-26" d="M123.7,133.92l0,0-15.1-14.66s-3.68,2.32-3.07,3.55,8.1,7.33,7.34,10.52h0a86.3,86.3,0,0,0-8,7.63h0c-3.22.6-9-7.17-10.15-7.84s-3.7,2.88-3.7,2.88l13.86,15.75,9.26,10.55a1.57,1.57,0,0,0,2,.23,86.77,86.77,0,0,0,17.67-16.83,1.57,1.57,0,0,0-.14-2Z"/><path class="cls-8" d="M321.76,177.78l0,0L312,168.21s-2.4,1.51-2,2.31,5.28,4.77,4.78,6.85h0a58.38,58.38,0,0,0-5.22,5h0c-2.1.4-5.83-4.66-6.61-5.1s-2.41,1.88-2.41,1.88l9,10.25,6,6.87a1,1,0,0,0,1.32.15,56.12,56.12,0,0,0,11.5-11,1,1,0,0,0-.08-1.32Z"/><rect class="cls-27" x="310.77" y="141.62" width="3.91" height="6.63" rx="0.63" transform="translate(-30.27 178.96) rotate(-30.53)"/><path class="cls-28" d="M310.79,149.19h0l1.62-1-2.71-4.6-1.62,1L293,147l-28.37,16.74s-2,1.7,2,8.41,6.39,5.82,6.39,5.82l28.38-16.74Z"/><path class="cls-29" d="M265.52,165.19l28.38-16.74,15-2.38,1.62-1-.51-.88-1.62,1-15.05,2.39L265,164.31s-2,1.7,2,8.41c.09.15.17.3.26.44C263.66,166.82,265.52,165.19,265.52,165.19Z"/><path class="cls-30" d="M310.64,143.25c-.14.09-.29.12-.32.08s.08-.16.22-.25l1.63-1c.14-.09.29-.13.32-.08s-.08.16-.22.25Z"/><path class="cls-30" d="M311,143.89c-.15.09-.29.12-.32.08s.07-.16.22-.25l1.62-.95c.15-.09.3-.12.32-.08s-.07.16-.22.25Z"/><path class="cls-30" d="M311.4,144.54c-.15.08-.29.12-.32.07s.07-.16.22-.24l1.62-1c.15-.09.3-.12.32-.08s-.07.16-.22.25Z"/><path class="cls-30" d="M311.78,145.18c-.15.08-.29.12-.32.07s.07-.15.22-.24l1.62-1c.15-.09.29-.12.32-.07s-.07.15-.22.24Z"/><path class="cls-30" d="M312.16,145.82c-.15.09-.29.12-.32.07s.07-.15.22-.24l1.62-1c.15-.08.29-.12.32-.07s-.07.15-.22.24Z"/><path class="cls-30" d="M312.54,146.46c-.15.09-.3.12-.32.08s.07-.16.22-.25l1.62-.95c.15-.09.29-.13.32-.08s-.07.16-.22.24Z"/><path class="cls-30" d="M312.91,147.1c-.14.09-.29.12-.32.08s.08-.16.23-.25l1.62-1c.15-.09.29-.12.32-.08s-.08.16-.22.25Z"/><path class="cls-30" d="M313.29,147.74c-.15.09-.29.13-.32.08s.08-.16.22-.24l1.63-1c.14-.09.29-.12.32-.08s-.08.16-.23.25Z"/><path class="cls-8" d="M252.53,172.37l-3.36,1a.41.41,0,0,0-.28.51l.5,1.66a.41.41,0,0,0,.51.28l.45-.14h0l-.44.13.35,1.18-.85,9.91,6.15,20.62s.77,1.5,5.65,0l.29-.09.15,0,.32-.1-.17,0c4.26-1.41,4.1-2.95,4.1-2.95l-6.15-20.61L253.61,176h0l-.35-1.17-2.27.67h0l2.3-.69a.41.41,0,0,0,.28-.51l-.5-1.66A.4.4,0,0,0,252.53,172.37Z"/><path class="cls-31" d="M143.7,212.63h0l-2.58,4.41,4,2.35,2.59-4.41,10.42-8.17,14.5-24.71s.76-2.12-5.08-5.54-7.32-1.73-7.32-1.73l-14.49,24.71Z"/><rect class="cls-32" x="151.4" y="182.71" width="14.37" height="18.28" transform="translate(198.31 437.57) rotate(-149.61)"/><rect class="cls-33" x="140.94" y="217.47" width="4.98" height="0.45" transform="translate(157 478.03) rotate(-149.6)"/><rect class="cls-33" x="141.35" y="216.76" width="4.98" height="0.45" transform="translate(158.12 476.93) rotate(-149.6)"/><rect class="cls-33" x="141.76" y="216.06" width="4.98" height="0.45" transform="translate(159.24 475.83) rotate(-149.6)"/><rect class="cls-33" x="142.18" y="215.36" width="4.98" height="0.45" transform="translate(160.37 474.73) rotate(-149.6)"/><path class="cls-34" d="M245.47,162.17a43.64,43.64,0,0,0,4.79-3.95l-11.69-19.78L225,148.31l15.22,17.21A45,45,0,0,0,245.47,162.17Z"/><path class="cls-35" d="M245.47,162.17a43.64,43.64,0,0,0,4.79-3.95l.66,1.11a34.78,34.78,0,0,1-4.66,3.92,33.83,33.83,0,0,1-5.16,3.23l-.86-1A45,45,0,0,0,245.47,162.17Z"/><path class="cls-36" d="M240.74,165.24l-15-16.83.12-.07.15-.08,0,0h0l.22-.13.1,0,.08-.05.08-.05.29-.18h0l.32-.2.09-.06.12-.07.14-.09.24-.16.07,0,0,0,.3-.19.16-.11,0,0,.05,0,.24-.16.22-.14,0,0,0,0,.14-.09.21-.15.21-.14h0l.23-.17.28-.19.15-.09,0,0,.22-.15.21-.15h0l13.42,17.89C242.82,164,241.4,164.87,240.74,165.24Z"/><path class="cls-37" d="M247.1,160.94l-11.89-19h0l.3-.23.06,0,.06-.06.18-.13.31-.24,0,0,0,0,.23-.18.25-.2,0,0,0,0,.33-.27.08-.06.12-.1.16-.13.11-.1.2-.16.1-.09.15-.13.07-.06.3-.27.06-.05h0l11.4,19.28C249.28,159.14,248.38,159.94,247.1,160.94Z"/><polygon class="cls-38" points="238.48 140.19 249.24 158.63 248.68 159.27 237.15 141.04 238.31 139.96 238.48 140.19"/><path class="cls-39" d="M225.13,148.36l.12-.06h.05l.1-.05.15-.08h0l.15-.09.15-.08,0,0h0l.22-.12.1-.06.07,0,.09-.05.29-.18h0l.31-.19.09-.06.13-.08.13-.08.25-.16.07,0,0,0,.3-.2.16-.1.05,0,0,0,.24-.16.22-.15,0,0,0,0,.14-.1a1.64,1.64,0,0,0,.22-.14l.21-.14,0,0h0l.24-.16.28-.19a.71.71,0,0,0,.14-.1l.06,0,.22-.14.2-.15.22-.15.11-.07.22-.16.22-.16.05,0,.13-.09.16-.11.16-.12L232,144l.11-.08h0l0,0,.16-.12.16-.11.17-.12.18-.13.18-.14.2-.14.23-.17.08-.06,0,0,.1-.07.27-.2.26-.2h0l.27-.2.29-.22,0,0,.06,0,.19-.15.3-.23.06,0,.06,0,.18-.14L236,141l0,0,0,0,.23-.18.25-.2,0,0,0,0,.33-.27.08-.06.12-.1.16-.13.11-.09.2-.17.1-.09.15-.13.07-.06.3-.27.06-.05.21-.19,0-.06c.08-.07.14-.14.2-.2h0l.17.28c-.06.06-.11.12-.18.18l0,.06-.21.19-.06.06-.3.26-.07.07-.15.12-.1.09-.2.17-.11.09-.16.13-.12.1-.08.07-.33.26,0,0,0,0-.25.2c-.08.05-.15.12-.23.18l0,0,0,0-.31.24-.18.14-.06.05-.06,0-.3.23-.19.15-.06,0,0,0-.29.22-.27.2h0l-.26.2-.27.2-.1.07,0,0-.08.06-.23.17-.2.14-.18.14-.18.13-.17.12-.16.11-.16.12,0,0h0l-.11.08-.16.11-.16.12-.16.11-.13.09-.05,0-.22.15-.22.16-.11.07-.22.15-.2.15-.22.15-.06,0-.14.1-.28.19-.24.16h0l0,0-.21.14-.22.15-.14.09,0,0,0,0-.22.15-.24.16,0,0-.05,0-.16.11-.3.19,0,0-.07,0-.25.16-.13.08-.13.08-.09.06-.31.19h0l-.29.18-.09,0-.07,0-.1.06-.22.12h0l0,0-.15.09-.15.08h0l-.15.08-.1,0h-.05l-.12.06-.22-.25Z"/><path class="cls-35" d="M224.22,147.87l.06,0h0l.11,0h0l.16-.05h0l.22-.1h0l.27-.14h0l.3-.17,0,0,.33-.19.08,0,.38-.23h0l.4-.25.13-.08.38-.24.07,0,.49-.32.05,0,.54-.36,0,0,.56-.38,0,0,.51-.35.15-.1.48-.33.21-.15.6-.42.72-.51,0,0c.24-.16.47-.33.7-.5h0l.66-.49,0,0,.65-.48h0l.61-.46.07,0,.54-.41.07-.06.52-.4,0,0c.17-.13.33-.25.48-.38l0,0,.43-.35.13-.1.26-.22.2-.17.25-.22.07-.06.3-.27.06-.05.21-.19.06-.06.19-.2,0,0,.12-.14,0,0a.88.88,0,0,0,.07-.12.1.1,0,0,0,0-.09l.44.61a.1.1,0,0,1,0,.09.88.88,0,0,1-.07.12l0,0-.12.14,0,0-.2.2-.05.06-.21.19-.06.06-.3.26a.46.46,0,0,1-.07.07l-.15.12-.1.09-.2.17-.11.09-.15.13-.13.1-.07.07-.34.26,0,0,0,0-.25.2c-.08,0-.15.12-.23.18l0,0,0,0-.31.24-.18.14-.06.05-.06,0-.3.23-.19.15-.06,0-.05,0-.29.22-.27.2h0l-.27.2-.27.2-.1.07,0,0-.08.06-.23.17-.2.14-.18.14-.18.13-.17.12-.16.11-.15.12,0,0h0L232,144l-.16.11-.16.12-.16.11-.13.09-.05,0-.22.15-.22.16-.11.07-.22.15-.2.15-.22.15,0,0-.15.1-.28.19-.24.16h0l0,0-.21.14-.21.15-.15.09,0,0,0,0-.22.15-.24.16-.05,0-.05,0-.16.11-.3.19,0,0-.07,0-.25.16-.13.08-.13.08-.09.06-.31.19h0l-.29.18-.09.05-.07,0-.1.06-.22.13h0l0,0-.15.09-.15.08h0l-.15.08-.1.05h-.05l-.12.06-.07,0h0l-.1,0h-.2l0,0h0Z"/><path class="cls-40" d="M224.23,147.78c.25-.59,3.65-3.31,7.59-6.09s6.93-4.57,6.67-4-3.65,3.31-7.59,6.09S224,148.36,224.23,147.78Z"/><path class="cls-35" d="M230.55,143.29c.07.08.47-.1.9-.41s.73-.64.66-.73-.46.1-.89.41S230.49,143.2,230.55,143.29Z"/><polygon class="cls-41" points="230.5 140.73 229.96 141.69 229.65 141.25 230.18 140.3 230.5 140.73"/><polygon class="cls-41" points="231.26 141.78 230.72 142.73 230.41 142.3 230.94 141.35 231.26 141.78"/><polygon class="cls-41" points="220.75 135.53 220.76 135.53 221.28 134.61 221.79 134.69 221.27 135.61 222 135.73 222.51 134.81 223.02 134.88 222.51 135.81 223.23 135.92 223.75 135 224.26 135.08 223.74 136 220.75 135.53"/><polygon class="cls-41" points="224.02 136.05 224.47 136.12 224.99 135.19 225.5 135.27 224.98 136.2 224.02 136.05"/><polygon class="cls-41" points="228.98 138.65 228.44 139.6 228.13 139.17 228.67 138.22 228.98 138.65"/><polygon class="cls-41" points="226.22 135.39 226.66 135.46 226.7 135.52 226.17 136.47 226.1 136.37 225.7 136.31 226.22 135.39"/><polygon class="cls-41" points="229.74 139.69 229.2 140.64 228.89 140.21 229.43 139.26 229.74 139.69"/><polygon class="cls-41" points="227.46 136.56 226.93 137.51 226.61 137.08 227.15 136.13 227.46 136.56"/><polygon class="cls-41" points="228.22 137.6 227.69 138.56 227.37 138.13 227.91 137.18 228.22 137.6"/><polygon class="cls-42" points="228.98 138.65 229.43 139.26 228.89 140.21 228.44 139.6 228.98 138.65"/><polygon class="cls-42" points="228.22 137.6 228.67 138.22 228.13 139.17 227.69 138.56 228.22 137.6"/><polygon class="cls-42" points="220.76 135.53 220.75 135.53 220.9 134.55 221.28 134.61 220.76 135.53"/><polygon class="cls-42" points="227.46 136.56 227.91 137.18 227.37 138.13 226.93 137.51 227.46 136.56"/><polygon class="cls-42" points="229.74 139.69 230.18 140.3 229.65 141.25 229.2 140.64 229.74 139.69"/><polygon class="cls-42" points="229.96 141.69 230.5 140.73 230.94 141.35 230.41 142.3 229.96 141.69"/><polygon class="cls-42" points="224.26 135.08 224.99 135.19 224.47 136.12 223.74 136 224.26 135.08"/><polygon class="cls-40" points="231.26 141.78 231.83 142.56 231.03 143.15 230.72 142.73 231.26 141.78"/><polygon class="cls-42" points="221.79 134.69 222.51 134.81 222 135.73 221.27 135.61 221.79 134.69"/><polygon class="cls-42" points="223.02 134.88 223.75 135 223.23 135.92 222.51 135.81 223.02 134.88"/><polygon class="cls-42" points="225.5 135.27 226.22 135.39 225.7 136.31 224.98 136.2 225.5 135.27"/><polygon class="cls-42" points="226.7 135.52 227.15 136.13 226.61 137.08 226.17 136.47 226.7 135.52"/><path class="cls-43" d="M313.45,207.73a25.13,25.13,0,0,0-3,2.07l5.81,12.29,8.53-5.07-8-11A26.89,26.89,0,0,0,313.45,207.73Z"/><path class="cls-35" d="M313.45,207.73a25.13,25.13,0,0,0-3,2.07l-.33-.69a19.89,19.89,0,0,1,3-2.06,20.91,20.91,0,0,1,3.22-1.62l.45.62A26.89,26.89,0,0,0,313.45,207.73Z"/><path class="cls-44" d="M316.4,206.18l7.9,10.74-.07,0-.1,0h0l-.14.06,0,0-.05,0-.05,0-.19.08h0l-.19.1-.06,0-.08,0-.08,0-.16.08,0,0h0l-.18.09-.11.06h0l0,0-.15.08-.13.07h0l0,0-.08,0-.14.08-.13.07h0l-.14.08-.18.1-.09,0h0l-.14.08-.13.07h0l-6.93-11.28C315.12,206.78,316,206.36,316.4,206.18Z"/><path class="cls-45" d="M312.42,208.37l6,11.83h0l-.19.12,0,0,0,0-.11.07-.2.12,0,0,0,0-.14.09-.16.1,0,0h0l-.21.14,0,0-.08.06-.1.07-.07,0-.12.09-.07.05-.1.07,0,0-.19.14,0,0h0l-5.66-12C311,209.31,311.61,208.89,312.42,208.37Z"/><path class="cls-39" d="M324.68,217l-.07,0h0l-.06,0-.1,0h0l-.1,0-.09,0h0l-.14.06-.06,0-.05,0-.05,0-.18.09h0l-.2.09-.05,0-.08,0-.09,0-.15.08,0,0h0l-.19.1-.1,0,0,0,0,0-.15.08-.14.07h0l-.09,0-.13.07-.13.07h0l-.15.09-.17.09-.09.05,0,0-.13.08-.13.07-.14.08-.07,0-.13.08-.15.08h0l-.08.05-.11.06-.1.06-.1,0-.07,0h0l-.1.06-.09.06-.11.06-.12.07-.11.07-.13.07-.14.09-.05,0h0l-.07,0-.17.1L319,220h0l-.17.1-.18.11,0,0,0,0-.12.07-.19.12,0,0,0,0-.11.07-.2.13h0l0,0-.14.09-.16.11h0l0,0-.21.14-.05,0-.08.05-.1.07-.07.05-.12.08-.07.05-.09.07-.05,0-.19.14,0,0-.13.1,0,0-.12.11h0l-.09-.18s.07-.06.12-.09l0,0,.13-.1,0,0,.19-.14.05,0,.09-.06.07-.05.12-.09.07,0,.1-.07.08-.06.05,0,.21-.14h0l0,0,.16-.1.14-.09,0,0,0,0,.19-.12.11-.07,0,0,0,0,.19-.12.12-.08,0,0,0,0,.18-.11.17-.11h0l.17-.1.16-.1.07,0,0,0,.05,0,.15-.08.12-.08.12-.07.11-.06.11-.07a.31.31,0,0,1,.1-.05l.1-.06h0l.07,0,.1-.06.1-.06.1-.06.08,0,0,0,.14-.08.14-.08.06,0,.14-.07.13-.08.14-.07,0,0,.09-.05.17-.1.15-.08h0l.13-.07.13-.07.09,0h0l.14-.08.15-.08h0l0,0,.1-.05.19-.1h0l0,0,.16-.08.08,0,.08,0,0,0,.2-.1h0l.18-.09.06,0,0,0,.06,0,.14-.06h0l.09,0,.1,0h0l.1,0,.06,0h0l.07,0,.12.16Z"/><path class="cls-35" d="M325.19,217.32h-.12l-.09,0h0l-.13,0h0l-.17.06h0l-.19.08h0l-.21.1-.05,0-.24.12h0l-.26.12-.07,0-.24.12,0,0-.31.16h0l-.34.18,0,0-.36.19h0l-.33.18-.09.05-.3.16-.13.08-.38.22-.45.26h0l-.44.25h0l-.42.25,0,0-.4.24h0l-.38.24-.05,0-.34.22,0,0-.33.22h0l-.3.2,0,0-.27.18-.08.05-.17.12-.12.09-.17.11,0,0-.19.15,0,0-.13.11,0,0-.13.1v0l-.08.07,0,0,0,.07a.11.11,0,0,0,0,.05l-.22-.38s0,0,0,0l.05-.07,0,0,.08-.08h0l.13-.11,0,0,.14-.1,0,0,.19-.14.05,0,.09-.07.07-.05.12-.08.07-.05.1-.07.08-.05.05,0,.21-.14h0l.16-.11.14-.09,0,0h0l.19-.13.11-.07,0,0,0,0,.19-.12.12-.08,0,0,0,0,.18-.11L319,220h0l.17-.1.16-.1.07,0h0l0,0,.15-.09.12-.07.12-.07.11-.07.11-.06.1-.06.1-.06h0l.07,0,.1-.06.1,0,.1-.06.08-.05,0,0,.14-.08.14-.08.06,0,.14-.08.13-.07.14-.08,0,0,.09,0a1,1,0,0,0,.17-.1l.15-.08h0l.13-.07.13-.07.09,0h0l.14-.08.15-.08h0l0,0,.1-.05.19-.1h0l0,0,.16-.08.08,0,.08,0,.05,0,.2-.1h0l.18-.09.06,0,.05,0,.05,0,.14-.07h0l.09,0,.1,0h0l.1,0,.06,0h0l.08,0H325Z"/><path class="cls-46" d="M325.18,217.38a27.85,27.85,0,0,1-4.81,3.17c-2.47,1.43-4.33,2.31-4.15,2a28.78,28.78,0,0,1,4.81-3.17C323.51,217.93,325.37,217.05,325.18,217.38Z"/><path class="cls-47" d="M199.51,166.84a34.59,34.59,0,0,0,.67-4l-12.45-4.22-2.38,10.83,13.07,1.39A33.23,33.23,0,0,0,199.51,166.84Z"/><path class="cls-43" d="M199.51,166.84a34.59,34.59,0,0,0,.67-4l.7.23a27,27,0,0,1-.62,4,27.65,27.65,0,0,1-1.1,3.87l-.74-.08A33.23,33.23,0,0,0,199.51,166.84Z"/><path class="cls-48" d="M185.41,169.38a.36.36,0,0,0,0-.09h0v0l0-.06a.36.36,0,0,1,0-.11h0s0-.07,0-.11l0-.1v0h0a1,1,0,0,1,0-.16l0-.07,0-.06,0-.06.06-.22h0l.06-.23,0-.07,0-.09,0-.11.05-.18v-.07l.06-.23,0-.13v-.07c0-.06,0-.12,0-.18l.05-.17v-.05l0-.11,0-.17,0-.16v0h0l0-.18.06-.22s0-.07,0-.11v0l.05-.17,0-.17.05-.17v-.08l0-.17a1.16,1.16,0,0,1,0-.18v0l0-.11,0-.12,0-.13,0-.13,0-.08v0l0-.13,0-.12,0-.14,0-.14,0-.15,0-.16,0-.18V163l0-.09c0-.07,0-.14,0-.21s0-.14.05-.22h0v0l0-.21a2,2,0,0,1,.05-.24v-.09l0-.15c0-.09,0-.17.05-.25v-.1l0-.15c0-.08,0-.17.05-.25v-.07l0-.19,0-.2v-.06a2.74,2.74,0,0,0,0-.28v-.06l0-.1,0-.14,0-.09a1,1,0,0,1,0-.17s0-.06,0-.09v-.19c0-.09,0-.18,0-.26V159a1.37,1.37,0,0,0,0-.19v-.05c0-.07,0-.13,0-.19h0l.18.06c0,.05,0,.11,0,.17v0a1.37,1.37,0,0,1,0,.19v.05c0,.08,0,.17,0,.26v.06c0,.05,0,.09,0,.13s0,.06,0,.09,0,.11,0,.17,0,.06,0,.09,0,.09,0,.13l0,.11v.06a2.74,2.74,0,0,1,0,.28v.06l0,.2a1.62,1.62,0,0,0,0,.19V161c0,.08,0,.17-.05.25l0,.15v.1c0,.08,0,.16-.05.25l0,.15V162l-.05.24c0,.07,0,.14-.05.21v0h0c0,.07,0,.15,0,.22s0,.14,0,.21l0,.09v.09l0,.18,0,.16,0,.15,0,.14,0,.14,0,.12,0,.13v0l0,.08,0,.13,0,.13,0,.12,0,.11v0a1.16,1.16,0,0,0,0,.18,1,1,0,0,0,0,.17l0,.08,0,.17,0,.17s0,.11-.05.17v0a.43.43,0,0,1,0,.11l-.06.22,0,.18h0v0l0,.16,0,.17,0,.11v.05l-.05.17c0,.06,0,.12,0,.18v.07l0,.13-.06.22v.08l0,.18,0,.11,0,.09,0,.07-.06.23h0l-.06.22,0,.06,0,.06,0,.07a1,1,0,0,0,0,.16h0v0a.76.76,0,0,0,0,.11s0,.07,0,.11h0a.36.36,0,0,0,0,.11l0,.06v0h0l0,.08-.19,0Z"/><path class="cls-43" d="M184.83,169.55s0,0,0,0h0s0,0,0-.06h0l.05-.1v0s0-.08.05-.14h0c0-.06,0-.12.07-.19h0a1.29,1.29,0,0,0,.07-.21v0c0-.07.05-.15.08-.24l0,0c0-.09.05-.19.08-.29h0l.09-.31,0-.09c0-.09,0-.19.08-.29v0c0-.12.07-.25.11-.37v0c0-.13.07-.27.1-.41v0c0-.14.07-.29.11-.44v0c0-.13.06-.26.1-.4l0-.11.09-.37c0-.06,0-.12.05-.17s.07-.31.11-.47.08-.38.13-.57v0l.12-.55v0c0-.18.08-.35.11-.53v0c0-.18.07-.35.11-.52h0c0-.17.07-.33.1-.49v-.06l.09-.44v-.06c0-.14.06-.29.08-.43v0c0-.14,0-.27.07-.4v0l.06-.37,0-.1a1.85,1.85,0,0,1,0-.23l0-.16,0-.22v-.07c0-.09,0-.18,0-.26V159a1.37,1.37,0,0,0,0-.19v0c0-.07,0-.13,0-.18v-.18a.28.28,0,0,0,0-.09s0,0,0,0l.42.09a.11.11,0,0,1,0,.05.22.22,0,0,1,0,.09v.17c0,.06,0,.12,0,.19v.05a1.37,1.37,0,0,1,0,.19v0c0,.08,0,.17,0,.26v.06a.59.59,0,0,1,0,.13.28.28,0,0,1,0,.09,1,1,0,0,0,0,.17s0,.06,0,.09,0,.09,0,.13l0,.11v.06a2.74,2.74,0,0,1,0,.28v.05l0,.21a1.29,1.29,0,0,0,0,.19V161c0,.08,0,.17-.05.25l0,.15v.1a2,2,0,0,1-.05.24l0,.16V162l0,.24,0,.21h0c0,.07,0,.15-.05.22l0,.21,0,.08v.1c0,.06,0,.12,0,.18a.75.75,0,0,1,0,.16l0,.15,0,.14,0,.14,0,.12,0,.13v0l0,.08,0,.13,0,.13,0,.12,0,.1v0a1.16,1.16,0,0,0,0,.18l0,.17,0,.08,0,.17,0,.17a.94.94,0,0,1,0,.16v.05l0,.11-.06.22c0,.06,0,.12,0,.18h0v0l0,.16,0,.17,0,.1v.06l-.05.16,0,.19v.07l0,.13-.06.22v.08c0,.06,0,.12-.05.18l0,.11,0,.09,0,.07a1.55,1.55,0,0,1-.07.23h0l-.06.22,0,.06,0,.06,0,.07a1,1,0,0,0,0,.16h0v0l0,.11s0,.07,0,.11h0a.76.76,0,0,0,0,.11l0,.07v0h0a.36.36,0,0,1,0,.09l0,0h0v0l0,.06v0h0s0,0,0,0h-.05Z"/><path class="cls-44" d="M184.8,169.5a36.16,36.16,0,0,1,1.13-6.33c.72-3.1,1.39-5.3,1.49-4.91a36.62,36.62,0,0,1-1.12,6.34C185.57,167.7,184.9,169.9,184.8,169.5Z"/><path class="cls-49" d="M68.94,174.11H68l-2.06,0L65.29,176l-1.5,4.27-.72,2,1.75,2.62,5.89,9.11a7.1,7.1,0,0,0,3.1,2.45l20.61,7.28a2.09,2.09,0,0,0,2.66-1.27L101.87,189a2.09,2.09,0,0,0-1.27-2.67l-16-5.64a11.78,11.78,0,0,1-3.43-2.06,11.75,11.75,0,0,0-3.43-2.05L73,174.85A15.15,15.15,0,0,0,68.94,174.11Zm7.26,5c1.44.51,2.31,1.8,1.94,2.86s-1.86,1.51-3.31,1l-5.65-2c-1.45-.51-2.32-1.8-2-2.86s1.86-1.51,3.31-1Z"/><polygon class="cls-50" points="55.9 171.98 53.91 177.61 63.08 182.29 65.98 174.09 55.9 171.98"/><rect class="cls-51" x="58.25" y="176.24" width="9.8" height="2.93" transform="translate(-125.44 178.08) rotate(-70.55)"/><rect class="cls-52" x="78.35" y="186.08" width="14.58" height="13.74" transform="translate(-124.81 209.45) rotate(-70.55)"/><path class="cls-53" d="M365,135.56c0-.27-.07-.57-.12-.88h0c-.06-.36-.42-5.69.37-7.42s5.5-6.18,4.65-8.72-8.62-.61-7.67,7.47a9.86,9.86,0,0,1,0,2.43,6.79,6.79,0,0,0-1.73-1.31,18.62,18.62,0,0,1-2.72-1.88h0c-1.37-2.11-2.14-9.94-1.38-12.71s-7.26-2.19-4.78,3.93c2,4.92,1.24,8.68.45,10.57-.59,1.26-1.49,2.79-2.39,2.94-1.53.27-8.43,5-8.84,7.14s-.06,5.65,5,6.93,6.88,2.39,9,4.66,6.07,4,9.33.07S365.3,138,365,135.56Zm-12.19-22.87a2.53,2.53,0,0,1,2.47-.59l.13.08a.32.32,0,0,1,0,.08c-.74,2.71,1.07,19.93-2.81,3.82C352.35,115,351.89,113.61,352.84,112.69Zm12.75,6.73a3.57,3.57,0,0,1,3.11-.78.44.44,0,0,1,.25.22c.41,1.24-1.68,3.92-2.92,5.53a14.17,14.17,0,0,0-1.69,2.44c-.71,1.55-.56,2-.46,3.86,0,0-.14-1-.59-4.8S364.54,120.2,365.59,119.42Z"/><path class="cls-26" d="M202,216.61c3.52,2.53,4-9,8.88-10.33s12.95-1.13,10.22,6.19-2.4,13.81,2.8,13.34,5.52-21,7.89-26.1,6.2-9.55-1.84-13.27c-3.94-1.83-5.52.29-10-1.72s-7.14-3.88-10-1.14-3.46,11.92-5,17.45S198.45,214.07,202,216.61Zm21.13-5c.54-1.15,6.47.53,2.23,10.53-.54,1.29-2.82,2.29-4.08.53S222.57,212.78,223.11,211.62Zm-18.22-6.35c2.26-2.91,3.5,0,2.28,1.64s-3,9.14-4.87,8.4C201.45,215,202.63,208.18,204.89,205.27Z"/><path class="cls-26" d="M88.69,219.06c-2.55-2.29-10.45-2.11-15.3-3s-11.63-4.6-13.55-1.4,8,2.76,9.48,6.87,1.9,11-4.57,9.2a18.79,18.79,0,0,0-7.67-.78c.12.37.24.77.36,1.25a29.82,29.82,0,0,1,8.18,1.2c1,.36.13,5-7.33,3.12-.48-.12-1-.27-1.53-.44l-.19-.1a2,2,0,0,1-.55-3.37l0,0c-.08-.48-.16-.92-.24-1.33a3.13,3.13,0,0,0-2.29,3.82c.19,1.09,1.41,1.84,3.21,2.37.54.16,1.14.3,1.78.43,5.77,1.14,14.83,1,17.93,2.09,4.56,1.67,8.62,4.62,11.24-2.53,1.28-3.51-.65-4.71.75-8.68S91.25,221.36,88.69,219.06Zm-20.17-.66c-1.5-.93-8-1.88-7.55-3.58.21-.74,6.14-.22,8.79,1.51S70,219.32,68.52,218.4Z"/><path class="cls-31" d="M352.24,186.14a1.64,1.64,0,0,0-1,1.3l-.25,1.77a1.65,1.65,0,0,0,1.41,1.85,1.66,1.66,0,0,0-1.86,1.41l-.24,1.76a1.63,1.63,0,0,0,1.4,1.85,1.65,1.65,0,0,0-1.85,1.41l-.25,1.76a1.66,1.66,0,0,0,1.4,1.86,1.64,1.64,0,0,0-1.85,1.4l-.24,1.76a1.65,1.65,0,0,0,1.4,1.86,1.64,1.64,0,0,0-1.85,1.4l-.25,1.77a1.67,1.67,0,0,0,.48,1.39c-.45.82-1.54,3.33-1.91,8.92-.46,7.13,7.2,9.23,10,12.45s2.09,5.9,2.09,5.9l3.69.51,3.69.51s0-2.76,3.62-5.1,11.52-2.28,13-9.27c1.17-5.48.8-8.19.58-9.1a1.68,1.68,0,0,0,.85-1.22l.24-1.76a1.65,1.65,0,0,0-1.4-1.85,1.65,1.65,0,0,0,1.85-1.41l.25-1.76a1.66,1.66,0,0,0-1.41-1.86,1.65,1.65,0,0,0,1.86-1.4l.24-1.76a1.66,1.66,0,0,0-1.4-1.86,1.64,1.64,0,0,0,1.85-1.4l.25-1.77a1.65,1.65,0,0,0-1.41-1.85,1.66,1.66,0,0,0,1.86-1.4l.24-1.77a1.63,1.63,0,0,0-1-1.73,3.28,3.28,0,0,0,1.25-2.15l1.05-7.6a3.3,3.3,0,0,0-2.8-3.71l-29.59-4.1a3.3,3.3,0,0,0-3.71,2.81l-1,7.6A3.25,3.25,0,0,0,352.24,186.14Z"/><path class="cls-54" d="M382.74,215.71s-4.61-.92-16.69-2.59-16.47-2-16.47-2Z"/><path class="cls-54" d="M383.44,210.69s-4.61-.92-16.69-2.59-16.47-2-16.47-2Z"/><path class="cls-54" d="M384.13,205.67s-4.61-.92-16.69-2.6-16.47-2-16.47-2Z"/><path class="cls-54" d="M384.83,200.64s-4.61-.91-16.69-2.59-16.47-2-16.47-2Z"/><path class="cls-54" d="M385.52,195.62s-4.61-.92-16.69-2.59-16.46-2-16.46-2Z"/><path class="cls-54" d="M386.22,190.6s-4.61-.92-16.69-2.59-16.47-2-16.47-2Z"/><path class="cls-54" d="M358.19,238.76a.4.4,0,0,0,.29.48l7.8,1.08a.4.4,0,0,0,.42-.38l.13-1a.41.41,0,0,0-.29-.48l-7.81-1.08a.41.41,0,0,0-.41.38Z"/><path class="cls-55" d="M357.53,229.71c-.88-.91-7.1-6.65-7.6-8.9s1-8.44.55-8.64-1.87,7-1.5,9.31,8.1,8.31,8.51,8.48S357.53,229.71,357.53,229.71Z"/><path class="cls-55" d="M352.9,184.65s1-8.39,1.47-9.19,1.7-1.09,1.83-.75-1.11.71-1.52,2-1.17,7.84-1.4,8.09S353,185.17,352.9,184.65Z"/><path class="cls-56" d="M257,225.56l.2.38-1.31.69L259,232.4l1.31-.69.2.37a.43.43,0,0,0,.58.18l1.39-.74a.43.43,0,0,0,.18-.58l-.21-.38-3.08-5.77-.2-.38a.42.42,0,0,0-.58-.17l-1.39.74A.42.42,0,0,0,257,225.56Z"/><path class="cls-15" d="M266.8,214.22l-7.5,7.71a3.59,3.59,0,0,0-.92,2l4.25,8a4.88,4.88,0,0,0,2.09.78l6,.56a10.08,10.08,0,0,0,4.83-1l18.07-9.65a2.58,2.58,0,0,0,1.06-3.48l-6.47-12.11a2.92,2.92,0,0,0-3.6-1.29L271,211.39A14.93,14.93,0,0,0,266.8,214.22Zm3.6,1.16a1.72,1.72,0,0,1,0,2.43L264.1,224a1.71,1.71,0,1,1-2.41-2.44l6.29-6.22A1.72,1.72,0,0,1,270.4,215.38Z"/><path class="cls-8" d="M19.05,198.49h0l4.45,14.73s3.17-.18,3.21-1.18-2.57-7.56-1-9.33h0a63.83,63.83,0,0,0,7.83-2h0c2.27.76,3.18,7.75,3.7,8.61s3.39-.53,3.39-.53l-3.27-15c-.73-3.36-1.46-6.71-2.17-10A1.16,1.16,0,0,0,34,182.9a63.22,63.22,0,0,0-17.25,4.48,1.15,1.15,0,0,0-.64,1.35Z"/><path class="cls-54" d="M122.6,219.64l-.42.08-.27-1.45-6.4,1.22.28,1.45-.42.08a.42.42,0,0,0-.34.5l.29,1.53a.42.42,0,0,0,.5.34l.42-.08,6.39-1.21.42-.08a.42.42,0,0,0,.34-.5L123.1,220A.43.43,0,0,0,122.6,219.64Z"/><path class="cls-43" d="M130.46,232.34l-5.1-9.41a3.61,3.61,0,0,0-1.67-1.48l-8.82,1.67a4.84,4.84,0,0,0-1.36,1.75l-2.33,5.57a10.16,10.16,0,0,0-.51,4.89l3.81,20a2.56,2.56,0,0,0,3,2l13.42-2.55a2.9,2.9,0,0,0,2.3-3l-1.29-14.66A14.71,14.71,0,0,0,130.46,232.34Zm-2.18,3.08a1.71,1.71,0,0,1-2.3-.74l-4-7.82a1.71,1.71,0,0,1,3-1.57l4,7.83A1.72,1.72,0,0,1,128.28,235.42Z"/><path class="cls-31" d="M114,252.74l19-3.6-1-12a10.31,10.31,0,0,0-.19-1.21l-20.19,3.83Z"/><path class="cls-8" d="M121.22,173.83h0s-2.5-.53-8.22,1.35-6.11,6.23-2.58,6.66,3.69-3.9,8.89-.9-.39,11.14-4.52,11.23-7.09,1.82-6.92,4,7.58,3.68,15.65-2.84l.09-.08a8,8,0,0,0,1.55-.52,11.68,11.68,0,0,1,4.68-1.31c.9,0,3,.48,4.87.54s6,.25,6.42-1.24.31-7.37-.69-10.87-1.14-7.18-2.91-9.14-5.4-1.18-8.42-.6A23.25,23.25,0,0,0,121.22,173.83ZM111.5,181s-2,0-2.43-1.09,2.86-3.93,7.55-4.76,4.51,2.77,3.47,3.3-4.13-.32-5.87.88S113.31,180.36,111.5,181Zm5.91,14.32c-6.07,3-8.35,1.23-8.33.24s3.59-2,5.81-2.22a9.71,9.71,0,0,0,4.49-2.1C121.17,191.41,123.49,192.31,117.41,195.33Z"/><path class="cls-57" d="M43.38,155.77a2,2,0,0,1,1.69-.67c.5-.69,1-1.36,1.55-2h0l3.1-4.41-.1-.16-3.47,4.14-.2-.15L49,148.11l-.09-.16-3.47,4.15-.21-.16,3.07-4.36-.1-.16h0l-3.46,4.14-.2-.15L47.6,147l-.09-.16L44,151l-1.55,2a2.14,2.14,0,0,1,0,2c-.6.9-7.67,9.07-7.73,9.5a1,1,0,0,0,.15.69,1.39,1.39,0,0,0,.48.55,2,2,0,0,0,1.15.13S43,156.19,43.38,155.77Z"/><path class="cls-57" d="M338.18,169.51a2.05,2.05,0,0,1,1.75.46c.82-.26,1.64-.49,2.46-.73h0l5.1-1.74,0-.19-5.25,1.31-.07-.25,5.05-1.72,0-.19L342,167.77l-.07-.25L347,165.8l0-.18h0l-5.23,1.3-.08-.25,5.05-1.72,0-.18-5.25,1.3-2.46.73a2.16,2.16,0,0,1-1.2,1.61c-1,.37-11.55,2.8-11.85,3.11a1,1,0,0,0-.28.65,1.28,1.28,0,0,0,.06.72,1.91,1.91,0,0,0,.84.79S337.64,169.64,338.18,169.51Z"/><path class="cls-57" d="M239.16,237.51c1-2.14,5.31-10.16,5.31-10.16a.56.56,0,0,0-.06-.45c0-.22-.29-.39-1.1.12-1.38.86-3.63,5.35-4.22,6.43a3.41,3.41,0,0,0-.22,2.17c-.05,0-4.12,7.25-4.41,8.18a1.21,1.21,0,0,0,0,1c.1.35.44.42,1-.06C236.27,243.94,238.18,239.64,239.16,237.51Z"/><path class="cls-57" d="M181.05,205.36c0-2.23-1.15-4-2.55-4s-2.56,1.81-2.56,4c0,1.93.86,3.53,2,3.93,0,2.1-.7,13.08-.51,13.43a1,1,0,0,0,.54.46,1.23,1.23,0,0,0,.69.15,1.92,1.92,0,0,0,1-.57s-.53-11.54-.57-13.49C180.21,208.85,181.05,207.27,181.05,205.36Z"/></g></svg>