<svg id="Layer_1" data-name="Layer 1" xmlns="http://www.w3.org/2000/svg" xmlns:xlink="http://www.w3.org/1999/xlink" viewBox="0 0 619.27 435.39"><defs><style>.cls-1{fill:none;}.cls-2{opacity:0.15;}.cls-3{clip-path:url(#clip-path);}.cls-4{fill:#5ac5d7;}.cls-5{fill:#5fcadc;}.cls-6{fill:#64cfe1;}.cls-7{fill:#69d4e6;}.cls-8{fill:#4fb7c7;}.cls-9{fill:#318295;}.cls-10{fill:#114d66;}.cls-11{fill:#00324c;}.cls-12{fill:#b3e5ff;}.cls-13{fill:#9fd1eb;}.cls-14{fill:#a9dbf5;}.cls-15{fill:#bdefff;}.cls-16{fill:#6897b3;}.cls-16,.cls-47{opacity:0.1;}.cls-17{fill:#002d47;}.cls-18{fill:#96c078;}.cls-19{fill:#a0ca82;}.cls-20{fill:#969a78;}.cls-21{fill:#82ac64;}.cls-22{fill:#243d3f;}.cls-23{fill:#10292b;}.cls-24{fill:#1a1a1a;}.cls-25{fill:#333;}.cls-26,.cls-52{fill:#ceefff;}.cls-26{opacity:0.5;}.cls-27{fill:#4177bd;}.cls-28{fill:#a1d1ec;}.cls-29{fill:#abdbf6;}.cls-30{fill:#376db3;}.cls-31{fill:#29abe2;}.cls-32{fill:#4ab8ba;}.cls-33{fill:#1f9fd3;}.cls-34{fill:#ff2310;}.cls-35{fill:#ccc;}.cls-36{fill:#f32310;}.cls-37{fill:#ff3428;}.cls-38{fill:#fff;opacity:0.03;}.cls-39{fill:#f1f1f1;}.cls-40{fill:red;}.cls-41{fill:#f1f1ea;}.cls-42{fill:#eef5fb;}.cls-43{fill:#e4ebf1;}.cls-44,.cls-56{fill:#f3faff;}.cls-45{fill:#b3b3b3;}.cls-46{fill:#eab066;}.cls-48{fill:#01aa33;}.cls-49{fill:#ff232f;}.cls-50{fill:#eb1e28;}.cls-51{fill:#fbb03b;}.cls-52{opacity:0.75;}.cls-53{fill:#1389c7;}.cls-54{fill:#33b5ec;}.cls-55{fill:#7ea6bb;}.cls-56{fill-rule:evenodd;}</style><clipPath id="clip-path"><rect class="cls-1" x="17.19" y="103.25" width="595.13" height="327.27" rx="161.98"/></clipPath></defs><rect class="cls-2" x="22.07" y="108.12" width="595.13" height="327.27" rx="161.98"/><g class="cls-3"><rect class="cls-4" width="619.27" height="433.49"/><path class="cls-5" d="M619.27,0H0V198.24c93.76-12.37,162.69-37.91,328.22-18.65a1127.83,1127.83,0,0,0,291-3.74Z"/><path class="cls-6" d="M0,31.75C74.5,52.42,185.56,65.54,309.64,65.54S544.78,52.42,619.27,31.75V0H0Z"/><path class="cls-7" d="M14.17,0c74,18.11,178.92,29.42,295.23,29.42S530.6,18.11,604.64,0Z"/><path class="cls-8" d="M452.84,300.11c-83,12.09-153.54,5.73-211-1.83-.37-1.45-3.65-3.67-12.28-7.12-10.36-4.13-16.21,1.63-20.86-.42s-8-6.17-15.12-6.91-8.12,4.18-13.29,2.35-17.57-1.16-18.62,1.62h0c-15.35-1.42-29-1.84-40.93-.51C66.23,293.41,57.35,299.51,0,292.09V432.52H619.27V284.94C601.15,283.94,556.72,285,452.84,300.11Z"/><path class="cls-9" d="M598.5,327.11a17.91,17.91,0,0,1,2.76-4.73,6.38,6.38,0,0,0,1.07-6.88s-.54,6.05-3.2,7.35a7.92,7.92,0,0,0-2.29,2.07c-.05-4.79-1.77-6.9-.93-11.62,1-5.61,6.84-5.53,8.06-11.87s-1.77-7.07-1.77-7.07.44,6.34-3.64,10c-2.13,1.9-4.72,6.44-6.83,11.34a23.28,23.28,0,0,1,1.19-6.55c2.43-6.34.67-17.06-1.1-24s-3.64-6-3.64-6a49.22,49.22,0,0,1,2.54,15.21c0,7.43-3.69,15.76-4.46,22.74a29.86,29.86,0,0,1-.83-8.34,12.19,12.19,0,0,0-6.38-11.66s6.21,9.8,3.68,14.85c-.81,1.59-1.1,4.29-1.09,7.26-2.77-4.57-4.92-11.73-3.75-16.43,1.52-6.1-4-9.29-4-9.29s2.92,8,1.2,14.09c-.9,3.16.14,10.43,1.83,17-1.71-1.18-3.22-1.92-4.76-4.1-2.58-3.68.72-6.91-2.14-11.12s-4.94-2.95-4.94-2.95,3.79,3.29,3.56,7.61c-.2,3.74,3,12.28,6.07,17.33-9.3,1.36-20.12,2.66-32.84,3.84-10.34,1-20.34,1.53-29.95,1.82a4.24,4.24,0,0,0-1.42-4.82c-2.77-1.9-7.22,3-10.49,3s-5.86-5.78-11-6.74-7.56,4.74-13.18,6.14-5.41-6.55-10.55-8.94-11.32,2.93-16.52,4.14-5.36-3.24-11.86-5.65-14.25,8.15-18.05,8.37h0c-11.92-1.12-19.92-1.66-23-.35-5.85,2.49-33.72,7.93-57.45,12a16.17,16.17,0,0,0,3.72-4.9l-1.89-.48,2.36-.54a19.53,19.53,0,0,0,1.09-3.49,29.07,29.07,0,0,0,.7-6.54h-2.27l2.24-.85a24.92,24.92,0,0,0-1.08-6.48l-.95.11.79-.6a19,19,0,0,0-3.19-6.05s.06,1.57,0,3.85l1,1-1-.24a46,46,0,0,1-.49,4.58l1.35,1.52-1.57-.32a24.12,24.12,0,0,1-1.45,4.94l1,2.88s-.9-.58-1.82-1.22a8.65,8.65,0,0,1-2.44,2.74,29.51,29.51,0,0,0-4.86-8l-3.39,1.7,2.27-3a28.29,28.29,0,0,0-3.21-3,6.93,6.93,0,0,1-1-1l-3.06,1.67,2.19-2.92a10.72,10.72,0,0,1-1.1-5.54l-2.24-.85,2.43-1.2a38.53,38.53,0,0,1,1.9-7.2l-1.4-.27,1.68-.51c.52-1.47.86-2.39.63-2.39s-2.49,1.29-5.13,3.69l.78,2.12-2-.94a35.91,35.91,0,0,0-5,6.25l1.47,3.95-3-1.26a27.13,27.13,0,0,0-2.27,6.52l3.51,3.1-3.94-.15a25.64,25.64,0,0,0,.09,5.52l4.32,2.13h-4c.11.51.21,1,.35,1.52a33.92,33.92,0,0,0,1.63,4.77,36.7,36.7,0,0,1-3.2-3.4l-2.78,1.35,1.64-2.84a25.86,25.86,0,0,1-2.78-4.8h-2.42L304,326.6a24.46,24.46,0,0,1-.54-10.73l-.92-.34,1.17-1a26.28,26.28,0,0,1,1.5-5s-3.81.94-5.88,9.25l1.29,1.71-1.79.61a54.85,54.85,0,0,0-.74,7.06,25.3,25.3,0,0,0,.81,7.56l3.12,1.81L300,339a22.48,22.48,0,0,0,8.14,9.85c-1.82.21-3.26.35-4.19.38-10.32.39-51.75,1.48-55.37,2.44s-47.84-28.95-63.84-34.25S144,336.68,129.53,335.92s-45.54,4.26-65.67,0-35.22-12.49-36.38-16.47.39-9.66-3.87-11.36c-2.45-1-13.26-2.15-23.61-3.08V432.48H619.27V321.24A145.86,145.86,0,0,1,598.5,327.11Z"/><path class="cls-10" d="M613.08,344.53c-20.13,2.56-31.74,23.09-40.25,23.09-2.25,0-5.76-.06-9.79-.16.1-.78.2-1.69.29-2.68a3.6,3.6,0,0,0,1.92-1.12c.92-.9,2-2.86,1.66-3.2s-1.92,1.08-2.84,2a5.84,5.84,0,0,0-.59.66c.07-1,.14-2,.18-3.1a3.07,3.07,0,0,0,1.58-.71c.83-.63,1.86-2.09,1.63-2.39s-1.63.67-2.46,1.3a4.82,4.82,0,0,0-.72.7c0-.87,0-1.75,0-2.63a2.57,2.57,0,0,0,1.34-.82c.65-.64,1.39-2.05,1.15-2.28s-1.35.78-2,1.43a4.26,4.26,0,0,0-.53.66c0-.9-.1-1.78-.2-2.63a.37.37,0,0,1,0-.11,2.45,2.45,0,0,0,1.09-.69c.57-.57,1.21-1.8,1-2s-1.19.68-1.76,1.25a3.48,3.48,0,0,0-.44.54c-.08-1-.13-1.92-.16-2.87a1.8,1.8,0,0,0,.9-.54c.49-.49,1-1.56.87-1.74s-1,.59-1.52,1.09a2.56,2.56,0,0,0-.26.34c0-1.09,0-2.16.07-3.16a2.08,2.08,0,0,0,.76-.33c.51-.34,1.17-1.16,1-1.34s-1,.33-1.5.67a3.53,3.53,0,0,0-.28.25c.05-.91.11-1.75.17-2.51a1.58,1.58,0,0,0,.9-.31c.51-.34,1.18-1.16,1-1.34s-1,.33-1.49.67a2.53,2.53,0,0,0-.41.37c.06-.77.11-1.44.14-1.93a2.65,2.65,0,0,0,.5-1.13c.18-.8.07-2.22-.22-2.29s-.65,1.25-.83,2.05a2.52,2.52,0,0,0,0,1.38c-.14.49-.29,1.13-.44,1.92a2.2,2.2,0,0,0-.32-.5c-.41-.46-1.11-1.19-1.28-1s.27,1.11.67,1.57a1.45,1.45,0,0,0,.83.53c-.13.79-.24,1.7-.33,2.65a2.44,2.44,0,0,0-.38-.43c-.48-.38-1.29-1-1.43-.81s.45,1.05.92,1.44a1.66,1.66,0,0,0,.84.39c-.08,1-.14,2.11-.13,3.22a2.21,2.21,0,0,0-.32-.28c-.56-.42-1.51-1.07-1.66-.87s.55,1.18,1.11,1.6a2.06,2.06,0,0,0,.91.42c0,1,.12,1.91.25,2.84a4.37,4.37,0,0,0-.53-.32c-.72-.35-1.94-.88-2.07-.62s.88,1.22,1.61,1.57a2.64,2.64,0,0,0,1.12.31s0,.11,0,.16a21.69,21.69,0,0,1,.34,2.79,3.35,3.35,0,0,0-.76-.57c-.8-.45-2.15-1.14-2.31-.85s.92,1.45,1.72,1.9a2.82,2.82,0,0,0,1.39.42c0,.81,0,1.61,0,2.41a4.07,4.07,0,0,0-.61-.53c-.84-.61-2.27-1.55-2.49-1.25s.85,1.74,1.69,2.35a3.46,3.46,0,0,0,1.35.64c-.08,1-.21,1.92-.37,2.84a6.53,6.53,0,0,0-.46-.71c-.79-1-2.15-2.67-2.53-2.38s.39,2.38,1.18,3.41a4,4,0,0,0,1.52,1.3c-.22,1-.46,2-.73,2.94-6.81-.18-14.8-.48-21-.83,0-1.34,0-3-.13-4.8a5.68,5.68,0,0,0,2.72-2.14c1.24-1.58,2.46-4.84,1.89-5.29s-2.73,2.08-4,3.66a9.15,9.15,0,0,0-.77,1.14c-.09-1.54-.21-3.16-.37-4.82a4.8,4.8,0,0,0,2.28-1.43c1.14-1.15,2.42-3.63,2-4s-2.38,1.39-3.52,2.54a6.77,6.77,0,0,0-1,1.23c-.15-1.36-.34-2.71-.56-4.06A4,4,0,0,0,541,347c.86-1.13,1.7-3.45,1.28-3.77s-1.91,1.5-2.78,2.64a6.54,6.54,0,0,0-.67,1.13c-.26-1.38-.54-2.73-.88-4a1.36,1.36,0,0,1,0-.17,3.86,3.86,0,0,0,1.53-1.3c.76-1,1.5-3,1.14-3.31s-1.69,1.31-2.45,2.31a6.13,6.13,0,0,0-.56.92c-.33-1.44-.61-2.89-.84-4.32a3.45,3.45,0,0,0,1.25-1.1c.66-.86,1.3-2.63,1-2.87s-1.46,1.14-2.12,2a4.89,4.89,0,0,0-.33.51c-.24-1.66-.42-3.28-.57-4.8a3.48,3.48,0,0,0,1.11-.69c.71-.63,1.56-2,1.34-2.3s-1.46.73-2.17,1.36a3.45,3.45,0,0,0-.38.39c-.12-1.36-.2-2.64-.27-3.78a3,3,0,0,0,1.32-.74c.71-.63,1.56-2,1.34-2.3s-1.46.73-2.17,1.36a3.84,3.84,0,0,0-.56.6c-.07-1.18-.12-2.2-.19-3a4.19,4.19,0,0,0,.54-1.85c.11-1.28-.37-3.44-.83-3.48s-.74,2.06-.85,3.34a3.8,3.8,0,0,0,.29,2.08c-.12.79-.21,1.82-.27,3a3.58,3.58,0,0,0-.6-.65c-.72-.62-2-1.59-2.19-1.33s.65,1.66,1.38,2.28a2.81,2.81,0,0,0,1.38.73c0,1.21,0,2.56,0,4a3.56,3.56,0,0,0-.66-.5c-.82-.5-2.2-1.25-2.38-1s.91,1.53,1.73,2a3.08,3.08,0,0,0,1.37.48c.1,1.59.25,3.26.5,4.94a5.1,5.1,0,0,0-.57-.37c-.95-.53-2.55-1.33-2.75-1s1.11,1.71,2.06,2.24a3.84,3.84,0,0,0,1.48.5,42.88,42.88,0,0,0,.95,4.25,5.61,5.61,0,0,0-.82-.34c-1.19-.39-3.18-.95-3.32-.52s1.61,1.69,2.8,2.08a4.27,4.27,0,0,0,1.79.24,2.17,2.17,0,0,1,.07.24,37,37,0,0,1,1.13,4.22,5.83,5.83,0,0,0-1.3-.71c-1.33-.52-3.56-1.29-3.75-.81s1.73,2,3.06,2.55a4.38,4.38,0,0,0,2.24.37c.22,1.24.39,2.48.5,3.72a6.72,6.72,0,0,0-1.06-.7c-1.42-.76-3.83-1.91-4.11-1.39s1.69,2.51,3.11,3.27a5.66,5.66,0,0,0,2.22.69c.08,1.52.08,3,0,4.47a8.83,8.83,0,0,0-.87-1c-1.43-1.41-3.89-3.65-4.4-3.13s1.11,3.59,2.54,5a6.25,6.25,0,0,0,2.62,1.69c-.11,1.71-.29,3.33-.51,4.87-2.65-.17-4.8-.34-6.07-.52a430,430,0,0,1-43.35-9.26c-18.58-5-26.32-1.86-37.15,0s-34.84.71-50.32,6.7c-7.08,2.73-11.67,1.83-15.91.85,2.6-15.21,12-29.63,21.49-30.09,10.11-.5,10.31-3.47,9.32-4.26s-19.93-4.17-27.56,14.77a85.56,85.56,0,0,0-5.15,19.15l-.63-.14a97.77,97.77,0,0,1,1.31-22.53c3.75-20.33,7-22,5.38-26.65s-10.37,10.7-9.55,37.85c.12,4.2.35,7.79.63,10.95l-.84-.07a74.58,74.58,0,0,1-1.31-15.34c.44-18.44,3.42-20.37,1-24.24s-8.53,10.91-3.37,34.7c.31,1.42.62,2.76.92,4l-.3-.57c-7.65-14.13-18.27-17.06-18-13.8s3,2.29,11.75,10.46a34.64,34.64,0,0,1,4.4,5.09,22.41,22.41,0,0,0-6.66,2.84c-13.93,8.45-25,1.27-39.73-3.86s-15.49,1.71-36.39,5.13A141.67,141.67,0,0,0,272,372.56c-.11-2.19-.2-4.33-.27-6.28,1.68-.08,3.2-1.08,3.79-3.71,1.52-6.75-3.86-9.71-2.48-12.7s5-5.37,4.75-9.72-5.27-4.61-4.17-7.89.36-6.57-2.54-7c-2.49-.36-5.55,2.84-3.75,6.64s2,8.15-.19,9.19-4.73,7.59,1,11-3.47,7.42-2.63,10.33c.45,1.53,2.78,3.35,5.1,3.73,0,2.16,0,4.49.05,6.77-3.12,1-6.06,2-8.86,2.82-.4-2.11-.83-4.17-1.22-6a2.49,2.49,0,0,0,1.92-1.35c1.06-2.09-2.56-4.91-2.83-7.23s3.43-4.54,3.67-8.24-3.77-5-5.14-8.91,4-4.27,5.18-8.07-2.85-7.82-4.07-11.42,1.76-4,2.88-8.77S257.46,308,257,305.29s-11.12,1.64-5.88,9.08,1.25,11.59,1.69,16.73,4.39,8.91,2.82,12.56-1,12.55.91,15.81-1.08,5.45,1.18,9.34a2.55,2.55,0,0,0,1.85,1c.32,1.88.68,4.06,1,6.35a76.5,76.5,0,0,1-7.73,1.93c-.38-2.5-.86-5.16-1.37-7.67,1.93-.34,3.17-4.52.68-6.77s-1.42-2.37-.69-6.86-1.38-7-3.31-8.88.89-4.26,1.86-7.2-.88-10.41-3.7-12.15-17.22-5-11.57,6.89,11.32,11.27,9.52,14.21-4.2,4.15-1.9,6.49,6.13,4.33,4.92,6.33-2.7,8.32,3.06,8.06c.39,2.44.78,5.11,1.12,7.79a30.38,30.38,0,0,1-6.89.33c-12.38-1-45.67-35.83-59.6-23-7.7,7.07-17.53,10.41-29.74,11.41,0-1.55,0-3.91-.13-6.72a5.78,5.78,0,0,0,2.71-2.14c1.24-1.59,2.47-4.84,1.89-5.29s-2.73,2.07-4,3.66a9.15,9.15,0,0,0-.77,1.14c-.09-1.55-.21-3.17-.37-4.82a4.76,4.76,0,0,0,2.28-1.44c1.14-1.14,2.43-3.62,2-4s-2.38,1.4-3.52,2.55a6.77,6.77,0,0,0-1,1.23c-.15-1.36-.34-2.72-.56-4.06a4.05,4.05,0,0,0,1.91-1.55c.86-1.14,1.7-3.46,1.28-3.77s-1.91,1.5-2.78,2.63a6.54,6.54,0,0,0-.67,1.13c-.25-1.38-.54-2.73-.88-4a.85.85,0,0,1,0-.17,3.78,3.78,0,0,0,1.53-1.3c.76-1,1.5-3,1.14-3.3s-1.69,1.31-2.44,2.31a4.83,4.83,0,0,0-.56.92c-.34-1.44-.62-2.89-.85-4.33a3.5,3.5,0,0,0,1.25-1.09c.66-.87,1.3-2.63,1-2.87s-1.46,1.14-2.12,2c-.13.18-.23.35-.33.52-.24-1.66-.42-3.28-.57-4.8a3.67,3.67,0,0,0,1.11-.69c.71-.63,1.57-2,1.34-2.3s-1.46.73-2.17,1.36a3.45,3.45,0,0,0-.38.39c-.12-1.37-.2-2.64-.27-3.79a3,3,0,0,0,1.32-.73c.71-.63,1.57-2,1.34-2.3s-1.46.73-2.17,1.36a3.84,3.84,0,0,0-.56.6c-.07-1.18-.12-2.2-.18-2.95a4.39,4.39,0,0,0,.53-1.85c.11-1.28-.37-3.45-.83-3.49s-.74,2.06-.85,3.34a3.82,3.82,0,0,0,.29,2.09c-.12.78-.21,1.82-.27,3a4.39,4.39,0,0,0-.6-.65c-.72-.62-2-1.59-2.19-1.32s.65,1.66,1.38,2.28a2.86,2.86,0,0,0,1.38.72c0,1.22,0,2.57,0,4a4.08,4.08,0,0,0-.66-.51c-.82-.49-2.2-1.25-2.38-.95s.91,1.53,1.73,2a3,3,0,0,0,1.37.49c.1,1.59.25,3.25.5,4.94a4,4,0,0,0-.57-.37c-.95-.53-2.55-1.33-2.75-1s1.11,1.71,2.06,2.24a3.63,3.63,0,0,0,1.49.49,40.37,40.37,0,0,0,.94,4.26,5.18,5.18,0,0,0-.82-.35c-1.19-.39-3.18-.95-3.32-.51s1.61,1.69,2.8,2.08a4.44,4.44,0,0,0,1.79.24l.08.24a38.56,38.56,0,0,1,1.12,4.22,5.46,5.46,0,0,0-1.3-.71c-1.33-.53-3.56-1.3-3.75-.81s1.73,2,3.06,2.55a4.25,4.25,0,0,0,2.24.36c.22,1.24.39,2.48.5,3.72a6.7,6.7,0,0,0-1.06-.69c-1.42-.76-3.83-1.91-4.11-1.39s1.69,2.5,3.11,3.26a5.54,5.54,0,0,0,2.22.7c.08,1.51.08,3,0,4.47a8.83,8.83,0,0,0-.87-1c-1.43-1.42-3.89-3.65-4.4-3.13s1.11,3.59,2.54,5a6.25,6.25,0,0,0,2.63,1.7,68.55,68.55,0,0,1-.88,7.12c-9.21.46-19.69-.26-31.58-1.68-11.1-1.33-18.52.3-24.79,1.62,1.24-4.4,4.06-6.82,4.2-10.31.15-3.72-1-5.11-1.49-8.77s1.87-6.95,2.92-10.06a8.27,8.27,0,0,0,0-6.33,16.6,16.6,0,0,0-2.13-2.76s2.07,3.74,1.87,5.81-4.36,9.52-4,13.43,1.48,6.08.38,10.92a12,12,0,0,1-2.51,4.65c.15-.84.28-1.73.37-2.73,1-11.36-2.07-14.32-.9-23.23s8-8.77,9.41-18.83S102,307.69,102,307.69s.52,10.07-4.26,15.87c-2.94,3.59-6.66,13.05-9.3,22.39a40.33,40.33,0,0,1,1.17-7.05c2.84-10.06.78-27.08-1.29-38s-4.25-9.55-4.25-9.55a103.26,103.26,0,0,1,3,24.12c0,7.48-1.73,15.52-3.23,23.24a17,17,0,0,0-1-3.23c-3.48-7.61,2.71-24,2.71-24s-7.74,6.32-6.19,19.35a58.14,58.14,0,0,1,.15,10.47c-1.28-9-3.22-17.62-5.27-21.05C69.59,312.47,69,298.92,69,298.92s-4.45,8.13,0,16.06c4.13,7.36,4.76,23,2.82,31-2-2-3.93-3.51-5.52-6.92-2.86-6.12,2.8-9.95-.34-16.94s-6.49-5.69-6.49-5.69,4.72,5.87,3.29,12.16c-.67,2.95-.24,8.24.8,13.79-2.86-6.44-6.89-13.23-10.26-20.13.46-1.52,1-3.08,1.4-4.93,1.35-5.71-3.39-17.52-3.29-20.61s3.87-8.23,3.87-8.23a25.05,25.05,0,0,0-3.68,3.68c-1,1.45-2.23,4.55-1.26,9.34s3.77,10.11,2.42,15.43c-.24.94-.5,1.74-.77,2.5a66.31,66.31,0,0,1-3-7.71,103.09,103.09,0,0,1-4.24-23.93s-2.51-.72-1.27,10.38c.91,8.14,2.79,19.38,6,28.26a21.1,21.1,0,0,0-.53,3.17c-.48,5.52,3.77,9.78,4.45,17.32,0,.4,0,.72,0,1.08C39.61,337.52,28.76,337.75,0,351.55v81.94H619.27V345.62A10.39,10.39,0,0,0,613.08,344.53ZM68.85,359.15a25.3,25.3,0,0,1,1.42,3.17c-.76-.55-1.54-1.15-2.35-1.8a18.39,18.39,0,0,0-.13-3.6C68.14,357.73,68.49,358.49,68.85,359.15ZM52.07,333.37c0-.32,0-.58,0-.89.45.86.91,1.69,1.39,2.44,3.3,5.11,5.7,13.32,7.65,19.56-1.51-1.39-3-2.69-4.4-3.88C57.56,340.88,52.69,339.91,52.07,333.37Z"/><path class="cls-11" d="M574.85,392.6c.06-.41.11-.84.17-1.27a5.53,5.53,0,0,0,2.92-1.59c1.44-1.3,3.14-4.18,2.67-4.7s-2.94,1.52-4.37,2.81a8.93,8.93,0,0,0-.91,1c.16-1.48.31-3,.43-4.63a4.53,4.53,0,0,0,2.4-1c1.27-.9,2.9-3,2.57-3.5s-2.48.93-3.75,1.83a6.53,6.53,0,0,0-1.11,1c.07-1.31.12-2.63.14-3.94a3.88,3.88,0,0,0,2-1.16c1-.93,2.18-3,1.84-3.36s-2.06,1.11-3.07,2a6.27,6.27,0,0,0-.82,1c0-1.35-.06-2.68-.17-3.94a1,1,0,0,1,0-.17,3.74,3.74,0,0,0,1.67-1c.88-.82,1.91-2.63,1.61-2.95s-1.81,1-2.69,1.79a4.74,4.74,0,0,0-.68.78c-.08-1.42-.11-2.84-.09-4.24a3.33,3.33,0,0,0,1.36-.83c.77-.71,1.67-2.28,1.41-2.56s-1.58.84-2.34,1.55a5.11,5.11,0,0,0-.4.43c0-1.61.13-3.17.25-4.64a3.32,3.32,0,0,0,1.16-.47c.78-.48,1.82-1.67,1.65-2s-1.5.45-2.28.93a3.61,3.61,0,0,0-.43.3c.12-1.31.25-2.53.37-3.63a2.81,2.81,0,0,0,1.37-.48c.78-.48,1.82-1.67,1.65-2s-1.5.45-2.28.93a4.15,4.15,0,0,0-.63.48c.13-1.13.25-2.1.31-2.83a4.06,4.06,0,0,0,.82-1.66c.31-1.2.21-3.33-.22-3.44s-1,1.83-1.35,3a3.61,3.61,0,0,0-.07,2,28.88,28.88,0,0,0-.75,2.83,4,4,0,0,0-.47-.71c-.58-.71-1.6-1.83-1.86-1.62s.35,1.68.93,2.38a2.78,2.78,0,0,0,1.19.92c-.23,1.15-.44,2.43-.61,3.81a3.74,3.74,0,0,0-.55-.59c-.69-.61-1.88-1.55-2.1-1.3s.62,1.6,1.31,2.2a2.85,2.85,0,0,0,1.22.69c-.17,1.52-.3,3.13-.34,4.76a4.11,4.11,0,0,0-.48-.44c-.81-.66-2.2-1.68-2.44-1.39s.76,1.8,1.58,2.46a3.62,3.62,0,0,0,1.33.71,41.55,41.55,0,0,0,.19,4.19,5,5,0,0,0-.72-.46c-1.07-.57-2.86-1.42-3.06-1s1.25,1.87,2.31,2.44a4.21,4.21,0,0,0,1.66.52l0,.24a34.68,34.68,0,0,1,.37,4.19,5.47,5.47,0,0,0-1.11-.89c-1.18-.72-3.16-1.81-3.42-1.39s1.3,2.21,2.48,2.93a4.27,4.27,0,0,0,2.06.71c0,1.21,0,2.41-.14,3.6a7.24,7.24,0,0,0-.89-.83c-1.22-.95-3.32-2.44-3.66-2s1.18,2.65,2.41,3.61a5.5,5.5,0,0,0,2,1c-.17,1.45-.41,2.86-.69,4.24a7.72,7.72,0,0,0-.67-1.1c-1.12-1.58-3.08-4.1-3.65-3.69s.46,3.59,1.58,5.16a6.06,6.06,0,0,0,2.22,2c-.19.75-.38,1.48-.58,2.2-5,.9-10.22,1.75-15.76,2.43,0-1.25-.07-2.63-.13-4.08a7.69,7.69,0,0,0,3.63-2.87c1.66-2.12,3.3-6.48,2.53-7.08s-3.65,2.77-5.31,4.89a11.73,11.73,0,0,0-1,1.53c-.12-2.07-.29-4.24-.5-6.45a6.43,6.43,0,0,0,3.06-1.92c1.52-1.54,3.24-4.86,2.68-5.41s-3.18,1.87-4.7,3.4a9.44,9.44,0,0,0-1.29,1.65c-.21-1.82-.46-3.64-.75-5.44a5.37,5.37,0,0,0,2.55-2.07c1.16-1.52,2.28-4.63,1.72-5.05s-2.56,2-3.72,3.53a7.68,7.68,0,0,0-.9,1.51c-.34-1.85-.73-3.66-1.18-5.37l-.06-.23a5,5,0,0,0,2.06-1.74c1-1.33,2-4.06,1.52-4.42s-2.26,1.75-3.27,3.09a6.88,6.88,0,0,0-.75,1.23c-.45-1.93-.82-3.87-1.14-5.79a4.57,4.57,0,0,0,1.68-1.46c.88-1.16,1.74-3.53,1.32-3.85s-2,1.53-2.84,2.69a6.13,6.13,0,0,0-.45.68c-.32-2.22-.57-4.38-.76-6.43a4.71,4.71,0,0,0,1.48-.91c1-.85,2.1-2.73,1.79-3.08s-1.94,1-2.9,1.82a6.19,6.19,0,0,0-.51.52c-.15-1.83-.27-3.54-.36-5.07a4,4,0,0,0,1.77-1c1-.84,2.1-2.73,1.79-3.08s-1.95,1-2.9,1.83a5,5,0,0,0-.75.8c-.09-1.58-.17-2.94-.25-3.95a5.58,5.58,0,0,0,.72-2.48c.15-1.71-.5-4.61-1.12-4.67s-1,2.76-1.13,4.48a5.2,5.2,0,0,0,.39,2.79,39.16,39.16,0,0,0-.36,4.06,5.81,5.81,0,0,0-.81-.87c-1-.83-2.63-2.13-2.93-1.77s.87,2.22,1.84,3.05a3.8,3.8,0,0,0,1.85,1c0,1.63,0,3.44.06,5.37a5,5,0,0,0-.89-.68c-1.09-.66-2.94-1.68-3.18-1.28s1.22,2.05,2.31,2.71a4.08,4.08,0,0,0,1.84.66c.13,2.12.34,4.35.67,6.61a7.7,7.7,0,0,0-.76-.5c-1.27-.71-3.43-1.78-3.68-1.32s1.48,2.29,2.75,3a5.05,5.05,0,0,0,2,.67,57.3,57.3,0,0,0,1.27,5.7,7.55,7.55,0,0,0-1.11-.46c-1.59-.53-4.25-1.28-4.44-.7s2.16,2.27,3.75,2.79a5.69,5.69,0,0,0,2.4.32,3,3,0,0,0,.1.32,48.65,48.65,0,0,1,1.5,5.66,7.64,7.64,0,0,0-1.74-1c-1.78-.7-4.76-1.73-5-1.08s2.31,2.72,4.09,3.42a5.89,5.89,0,0,0,3,.48c.29,1.67.51,3.32.66,5a10,10,0,0,0-1.42-.93c-1.91-1-5.13-2.55-5.5-1.86s2.26,3.36,4.17,4.38a7.47,7.47,0,0,0,3,.93c.11,2,.11,4,.06,6a11.87,11.87,0,0,0-1.17-1.35c-1.91-1.9-5.2-4.89-5.89-4.19s1.48,4.81,3.4,6.7a8.36,8.36,0,0,0,3.52,2.27c-.12,1.63-.27,3.2-.46,4.72a209.33,209.33,0,0,1-26.84,1.3c-10-.17-21.91-.83-34.83-1.75,2.18-1.5,4.71-3.06,7.21-4.9,6.53-4.83,7.66-15.06,4.26-28.4s-.57-25,6-34.91.85-33.49-4.26-38.89,7.38,19.87,3.69,29.24-13.24,26.67-9.74,44.56c2.36,12.11-6.48,24.72-12,32.94l-3.38-.26c.72-1.26,1.49-2.67,2.28-4.28,3.55-7.24,7.38-14.05,5.68-21.86s-5-9.79-4.83-18.59,4.54-16.19,4.54-23.14-.63-13-3.22-9.9,1.66,6.07.67,12.74-7.25,15-3.13,27.53,3.55,21.86-1.27,29.39c-1.81,2.82-3.51,5.51-4.73,7.8l-2.34-.18c3-3.17,7.4-8.72,7.61-13.73.31-7.52-2.81-11.5-3.52-20.86s-1-19.87-.29-24.7,1.67-8.52-1.29-8.52-.73,22,0,30.38,4.56,21.43,2.29,25.55c-1.34,2.43-5.21,6-7.26,9.12a23.22,23.22,0,0,1,.59-9c2.12-7.1-1.66-19.87-1.9-26.12s-1.53-9.08-1.95-4,2.48,15.24,1.95,22.38c-.38,5.26-2.4,9.81-2.93,14.17-.28-.7-.57-1.4-.85-2.06-3.83-8.94-5.68-19.16-3-35.77s-3.39-16.61-2.11-13.63.71,20.87-2,25.7,2.7,19.87,5,25.4a42,42,0,0,1,1.59,5l-.77-.06c-4.88-7-14.16-20.69-10.76-41.11,4.26-25.55-6.81-36.34-6-29.52s4.06,17,2.92,29.8-6,23.56,0,32.08A43,43,0,0,0,462.8,393c-50.31-4.25-104.93-9.69-119.62-5.33-4.73,1.41-12.58,3.23-22.13,5.16,1.34-4,2.72-9.85,1.44-10.44-.84-.39-2.64,1.55-4.4,3.94.33-6,.07-13.15-1.77-13.51-1.36-.27-3.3,3.21-5,7.34-1.29-7.48-3.6-16-5.94-15.9-2.55.08-4.43,10.15-5.16,18.05-2.33-3.91-4.92-7.33-6.22-6.85-1.89.7-.49,9.42,1,15.12-1.78-1.2-3.37-2-3.88-1.51-.92.87,2.06,5.63,4.27,8.52-31.46,5.34-67,9.71-76,6.74-2.66-.87-7.12-2.16-12.85-3.66,1.55-4,3.84-11.75,6-19.51,1.84-.09,5-1.31,8.6-1.59,5.58-.43,9.66-3.22,9-5.26s-3-7.19-5.15-5.47c-1.63,1.3-6.69,3.09-10.18,3.88,2-7.64,3.53-13.88,3.53-14.62,0-1.93-6.66-4.08-6.44-2.14s-4.51,18.46-6.87,25.76a113.29,113.29,0,0,0-3.73,17.62l-.48-.12c1.14-6.85,1.9-15.65,1.2-19.25-1.07-5.55-4.72-10.06-7.08-10.06s2.36,10.09,0,19.54c-.53,2.11-.95,4.28-1.28,6.37-.83-4.92-2.22-13-2.59-14-.53-1.51-5.58-1.39-5.79-.64a55.26,55.26,0,0,0,1.4,6.78c-1.84-1.3-4.07-3-4.73-2s1.7,3.33,3.32,4.72a7.85,7.85,0,0,0,2.42,1.33c.37,1.49.76,3,1.12,4.33l-3.39-.74c.72-.72,1.33-1.49,1.14-1.91-.32-.75-5.79-2.58-6.86-2.58-.83,0-1.28,1.68-1.39,3l-2.42-.48c2.09-2,5-5.55,4.66-6.48-.53-1.29-1.07-4.83-2.79-4.18-.72.26-2.07,1.93-3.45,3.79a26.19,26.19,0,0,1,2.49-6.15c1.61-2.15,2.79-11.71,2.89-13.1s-3.32-4.4-5-4.19c-.49.06-1.23,2.58-2,6.18-1.31-2-3.8-5.32-5.47-5.64a3,3,0,0,0-3.44,2.9c.15.61,4.9,5,7.94,7.4-.86,4.45-1.7,9.5-2.3,13.6-.53-3.81-1.25-8.54-1.77-9.2-.86-1.07-5.91-2.46-6.34-1.93-.17.22.1,2.58.65,5.53a18.35,18.35,0,0,0-4.73-1c-.37.18-2.3,6.16-2.5,8.68h0c0-4.6-.05-10.29,0-12a3.65,3.65,0,0,0-.88-2.17c1.71-2.1,3.66-5.33,1.42-5.4s-2.44,1.89-3.43,3.44a7.08,7.08,0,0,0-3.33-1.51c-1.32-.05-.17,7.34,1.14,13.27a3.47,3.47,0,0,0-2.43-.9,5.66,5.66,0,0,0-3.31,3.7l-1.86-.24a42.78,42.78,0,0,0,2.91-4.15c1.29-2.09.24-4-2.17-3.95-1.79,0-2.21,2.71-3.35,5,.93-4.4,2-9.18,2.26-11.57.37-3.46,1.09-6.52.85-7.08s-4.19-1.21-4.67-1.21a14.3,14.3,0,0,0-.7,3.32c-2.55-2.84-6.76-7.14-7.94-8.15-1.5-1.29-3.22,1.82-3.65,2.47s7.46,7.54,10.85,10.72c-.43,3.24-.86,6.83-1.13,9.64-.47-2.52-1.12-5.12-3.1-5.32-2.93-.3-3.88,3.45-1.18,9.08-24.06-2.3-47.08-1.83-60.69,5-9.87,5-23.11,5.45-37,3,.84-1.17,2.06-2.9,3.43-5a5.27,5.27,0,0,0,3.21-.14c1.8-.52,4.49-2.31,4.3-3s-3.19.08-5,.6a9.77,9.77,0,0,0-1.2.44c.77-1.21,1.56-2.5,2.34-3.84a4.43,4.43,0,0,0,2.5.17c1.48-.25,3.79-1.42,3.71-2s-2.55-.24-4,0a6.68,6.68,0,0,0-1.4.4c.62-1.1,1.22-2.23,1.79-3.36a3.72,3.72,0,0,0,2.27-.13c1.27-.39,3.16-1.68,3-2.14s-2.26.08-3.53.47a5,5,0,0,0-1.12.49c.56-1.18,1.08-2.36,1.52-3.51l.06-.15A3.51,3.51,0,0,0,47,374.1c1.11-.34,2.77-1.47,2.64-1.88s-2,.08-3.09.42a4.9,4.9,0,0,0-.92.38c.53-1.26,1.11-2.51,1.71-3.72a3.11,3.11,0,0,0,1.54-.14c1-.29,2.41-1.28,2.3-1.63s-1.72.07-2.69.36a4.18,4.18,0,0,0-.53.21c.72-1.38,1.46-2.7,2.18-3.93a3.24,3.24,0,0,0,1.21.08c.88-.08,2.29-.68,2.26-1s-1.49-.24-2.38-.16a4,4,0,0,0-.5.09c.66-1.09,1.29-2.1,1.86-3a2.68,2.68,0,0,0,1.39.16c.89-.08,2.3-.68,2.26-1s-1.49-.24-2.37-.16a4,4,0,0,0-.75.16c.6-.93,1.11-1.73,1.47-2.33a4,4,0,0,0,1.41-1.1c.78-.91,1.59-2.8,1.26-3.09s-1.67,1.16-2.45,2.06a3.54,3.54,0,0,0-.91,1.73c-.52.53-1.15,1.26-1.86,2.14a3.51,3.51,0,0,0-.1-.81c-.21-.86-.61-2.27-.93-2.19s-.41,1.6-.2,2.46a2.61,2.61,0,0,0,.65,1.3c-.69.9-1.41,1.93-2.15,3.05a3.32,3.32,0,0,0-.22-.75c-.35-.81-1-2.13-1.27-2s-.15,1.65.2,2.47a2.81,2.81,0,0,0,.76,1.11c-.79,1.25-1.57,2.59-2.3,4a4.45,4.45,0,0,0-.23-.59c-.43-.91-1.2-2.39-1.53-2.23s-.1,1.88.33,2.8a3.3,3.3,0,0,0,.85,1.18c-.59,1.22-1.14,2.47-1.6,3.72a5.29,5.29,0,0,0-.43-.7c-.69-.95-1.88-2.45-2.22-2.2s.29,2.15,1,3.09a3.93,3.93,0,0,0,1.22,1.16,1.43,1.43,0,0,0-.08.22,33.27,33.27,0,0,1-1.45,3.79,5.29,5.29,0,0,0-.59-1.24c-.71-1.12-2-2.91-2.38-2.65s.2,2.47.91,3.59a4,4,0,0,0,1.5,1.49c-.51,1.06-1.06,2.08-1.65,3.08a6.3,6.3,0,0,0-.42-1.1c-.66-1.35-1.85-3.53-2.34-3.29s-.09,2.81.57,4.16a5.19,5.19,0,0,0,1.29,1.72c-.76,1.19-1.57,2.31-2.39,3.4a7.87,7.87,0,0,0-.12-1.24c-.3-1.84-.94-4.86-1.61-4.75s-1.12,3.31-.81,5.15a5.85,5.85,0,0,0,1.06,2.71,62.77,62.77,0,0,1-5.23,5.57c-1.55-.33-3.1-.68-4.66-1.08.49-2.43,1.09-5.57,1.69-9.16,1.23,0,3.29-1,5.26-2.62,2.62-2.21,5.8-7.19,5-8.14s-5.27,2.5-7.89,4.7a16.34,16.34,0,0,0-1.68,1.63c.39-2.61.75-5.35,1.06-8.16a8,8,0,0,0,4.31-1.59c2.29-1.51,5.3-5.19,4.75-6s-4.44,1.5-6.74,3a11.73,11.73,0,0,0-2,1.66c.22-2.3.38-4.61.49-6.9a6.91,6.91,0,0,0,3.7-1.92c1.84-1.59,4-5.16,3.47-5.83s-3.72,1.83-5.56,3.42a9.87,9.87,0,0,0-1.51,1.65c.06-2.39.05-4.74-.07-7v-.3a6.53,6.53,0,0,0,3-1.63c1.61-1.39,3.54-4.52,3-5.11s-3.27,1.6-4.88,3a10.16,10.16,0,0,0-1.25,1.33c-.05-2.51,0-5,.1-7.49a6.07,6.07,0,0,0,2.47-1.38c1.4-1.22,3.08-3.94,2.64-4.44s-2.84,1.39-4.24,2.6c-.27.24-.5.49-.73.73.19-2.84.44-5.6.74-8.19a5.89,5.89,0,0,0,2.07-.75c1.41-.8,3.33-2.85,3-3.36s-2.68.7-4.09,1.5a6.46,6.46,0,0,0-.77.52c.29-2.32.59-4.47.87-6.4a5,5,0,0,0,2.46-.77c1.41-.8,3.32-2.84,3-3.36s-2.67.71-4.08,1.51a6.54,6.54,0,0,0-1.14.81c.3-2,.56-3.71.72-5a7,7,0,0,0,1.54-2.89c.63-2.09.58-5.86-.18-6.09s-1.94,3.18-2.57,5.27a6.64,6.64,0,0,0-.25,3.57c-.47,1.27-1,3-1.5,5a6.72,6.72,0,0,0-.78-1.29c-1-1.29-2.71-3.34-3.18-3s.5,3,1.49,4.28a4.87,4.87,0,0,0,2,1.69c-.47,2-.92,4.27-1.32,6.69a6.88,6.88,0,0,0-.93-1.08c-1.19-1.11-3.22-2.85-3.62-2.42s1,2.87,2.16,4a5.17,5.17,0,0,0,2.11,1.29c-.39,2.68-.71,5.5-.89,8.39a8.84,8.84,0,0,0-.81-.81c-1.4-1.21-3.79-3.11-4.23-2.6s1.24,3.23,2.64,4.44a6.25,6.25,0,0,0,2.3,1.34,73.36,73.36,0,0,0,.09,7.42,9.56,9.56,0,0,0-1.26-.86c-1.84-1.07-5-2.7-5.34-2s2.1,3.38,3.94,4.45a7.23,7.23,0,0,0,2.9,1c0,.14,0,.29,0,.43a63.6,63.6,0,0,1,.39,7.42,10,10,0,0,0-1.91-1.64c-1.73-1.14-4.46-2.78-5.54-2.79.18-.38.29-.71.18-.83-.3-.35-1.91.93-2.86,1.75a7.13,7.13,0,0,0-.55.55c-.12-1.95-.33-3.86-.6-5.67a3.44,3.44,0,0,0,1.43-.87c.8-.75,1.73-2.4,1.46-2.69s-1.64.89-2.45,1.64a5.12,5.12,0,0,0-.63.73c-.26-1.64-.57-3.16-.89-4.52a3.29,3.29,0,0,0,1.38-1.15c.67-.86,1.33-2.64,1-2.88s-1.48,1.14-2.15,2a4.59,4.59,0,0,0-.52.88,33.74,33.74,0,0,0-1-3.35,4.56,4.56,0,0,0-.16-2.42c-.43-1.41-1.23-3.71-1.74-3.56s-.55,2.71-.12,4.12a4.64,4.64,0,0,0,1,2c.11.87.28,2,.48,3.37a4.24,4.24,0,0,0-.76-.54c-1-.54-2.57-1.37-2.76-1s1.09,1.73,2,2.27a3.39,3.39,0,0,0,1.66.51c.19,1.31.39,2.76.59,4.33a5.41,5.41,0,0,0-.53-.35c-1-.54-2.56-1.36-2.76-1s1.1,1.73,2,2.27a3.92,3.92,0,0,0,1.41.51c.2,1.75.37,3.62.49,5.54a5.75,5.75,0,0,0-.49-.5c-.95-.82-2.57-2.1-2.86-1.76s.84,2.18,1.78,3a4,4,0,0,0,1.67.94c.07,1.67.1,3.36.06,5.06a6.28,6.28,0,0,0-.84-.9c-1.09-.94-2.95-2.42-3.29-2s1,2.51,2.05,3.45a4.48,4.48,0,0,0,2,1.1,1.34,1.34,0,0,0,0,.2c-.08,1.52-.08,3.11,0,4.72a6.55,6.55,0,0,0-1-1.11c-1.24-1.08-3.36-2.76-3.75-2.31s1.1,2.86,2.34,3.94a4.63,4.63,0,0,0,2.51,1.29c.07,1.56.18,3.14.33,4.7a8.26,8.26,0,0,0-1.38-1.16c-1.55-1-4.18-2.59-4.55-2s1.66,3.05,3.21,4.07a5.4,5.4,0,0,0,2.91,1.07c.21,1.91.45,3.76.71,5.52A9.94,9.94,0,0,0,15,382.57c-1.77-1.49-4.79-3.81-5.33-3.17s1.61,4,3.37,5.5a6.65,6.65,0,0,0,3.56,1.77c.26,1.51.51,2.91.74,4.15A140.19,140.19,0,0,1,0,383.89v49.6H619.27v-48.3C608.14,384.89,593.46,389.1,574.85,392.6Zm-558-34.67a4.28,4.28,0,0,0,1.56-.9,7.48,7.48,0,0,0,1.21-1.47c.37,1.2,2.48,3.64,4.17,4.76a7.54,7.54,0,0,0,3.61,1.39c-.07,2.14-.22,4.26-.47,6.36a12.15,12.15,0,0,0-1.52-1.53,27.88,27.88,0,0,0-5.34-3.71c.76-.75,1.34-1.55,1.18-1.83-.26-.46-2.36.64-3.61,1.36a7.4,7.4,0,0,0-.85.58A49.15,49.15,0,0,0,16.87,357.93ZM16.62,365a2.58,2.58,0,0,0,0-.29,5,5,0,0,0,2-.69,5.71,5.71,0,0,0,.48-.32A12.19,12.19,0,0,0,21,367.06a16.49,16.49,0,0,0-3.38,1.83A6.05,6.05,0,0,0,16.36,370,42.1,42.1,0,0,1,16.62,365Zm-.22,6.65a3.4,3.4,0,0,0,1-.24,14.63,14.63,0,0,0,.7,3.19l-.39.32a7.7,7.7,0,0,0-1,1C16.55,374.5,16.45,373.07,16.4,371.63Zm.58,6.44A6,6,0,0,0,19,377a16.91,16.91,0,0,0,1.18,2.22l.17.24c-.59.79-1.18,1.64-1.65,2.34a10.68,10.68,0,0,0-.75,1.34C17.6,381.47,17.25,379.8,17,378.07ZM21.05,392l-.43-.13C20,390,19.3,388,18.71,386a7.2,7.2,0,0,0,2.56-2.53,11.3,11.3,0,0,0,.93-1.81A7.53,7.53,0,0,0,24,383C23.08,386.17,22.08,389.18,21.05,392ZM24,376.72c-.61-.94-1.39-2.06-2.19-3.12.29-.58.42-1.05.27-1.24s-.56-.06-1.07.21a14.67,14.67,0,0,0-1.9-2.06,9.47,9.47,0,0,0,2.49-2.78,13.86,13.86,0,0,0,1.55,1.59,9.44,9.44,0,0,0,3.44,1.93c-.39,2.55-.9,5-1.47,7.44A17.44,17.44,0,0,0,24,376.72ZM149.05,389a7.54,7.54,0,0,0,1.07-.82c.08.35.17.68.25,1Zm12.6,2c.17-.44.77-2,1.3-3.69a41.8,41.8,0,0,0,1.28,4.14Z"/><path class="cls-12" d="M144.83,355.88a2.66,2.66,0,0,0-2.08-1.71l-2.85-.44a2.67,2.67,0,0,0-3,2.23,2.67,2.67,0,0,0-2.23-3l-2.85-.44a2.68,2.68,0,0,0-3,2.23,2.67,2.67,0,0,0-2.22-3l-2.86-.43a2.66,2.66,0,0,0-3,2.22,2.67,2.67,0,0,0-2.23-3l-2.85-.44a2.67,2.67,0,0,0-3,2.23,2.67,2.67,0,0,0-2.23-3l-2.85-.44a2.67,2.67,0,0,0-2.27.75c-1.32-.76-5.35-2.59-14.41-3.31-11.53-.93-15.12,11.43-20.41,15.9s-9.59,3.24-9.59,3.24l-.92,6-.92,6s4.47.13,8.18,6S70.5,402,81.78,404.54c8.86,2,13.25,1.49,14.73,1.16a2.67,2.67,0,0,0,1.95,1.4l2.85.44a2.68,2.68,0,0,0,3-2.23,2.67,2.67,0,0,0,2.22,3l2.86.44a2.67,2.67,0,0,0,3-2.23,2.68,2.68,0,0,0,2.23,3l2.85.43a2.67,2.67,0,0,0,3-2.22,2.67,2.67,0,0,0,2.23,3l2.85.44a2.67,2.67,0,0,0,3-2.23,2.67,2.67,0,0,0,2.23,3l2.85.44a2.65,2.65,0,0,0,2.83-1.57,5.29,5.29,0,0,0,3.45,2.09l12.29,1.89a5.34,5.34,0,0,0,6.07-4.46l7.36-47.83a5.34,5.34,0,0,0-4.46-6.07L149,354.69A5.33,5.33,0,0,0,144.83,355.88Z"/><path class="cls-13" d="M96.2,404.56s1.6-7.44,4.6-27S104.39,351,104.39,351Z"/><path class="cls-13" d="M104.32,405.81s1.6-7.44,4.6-27,3.59-26.62,3.59-26.62Z"/><path class="cls-13" d="M112.44,407.06s1.6-7.45,4.6-27,3.59-26.63,3.59-26.63Z"/><path class="cls-13" d="M120.55,408.31s1.6-7.45,4.61-27,3.58-26.62,3.58-26.62Z"/><path class="cls-13" d="M128.67,409.56s1.6-7.45,4.6-27S136.86,356,136.86,356Z"/><path class="cls-13" d="M136.79,410.8s1.6-7.44,4.6-27S145,357.21,145,357.21Z"/><path class="cls-14" d="M59.46,364.23a.66.66,0,0,0-.79.47l-1.94,12.61a.67.67,0,0,0,.61.68l1.55.24a.65.65,0,0,0,.78-.47l1.94-12.61a.64.64,0,0,0-.6-.68Z"/><path class="cls-15" d="M74.13,363.38c1.5-1.39,11-11.33,14.6-12.09s13.65,1.78,14,1.1-11.3-3.19-15-2.64-13.66,12.91-14,13.57S74.13,363.38,74.13,363.38Z"/><path class="cls-15" d="M147.23,357s13.58,1.82,14.86,2.62,1.72,2.78,1.17,3-1.12-1.81-3.2-2.5S147.38,358,147,357.59,146.39,357.17,147.23,357Z"/><path class="cls-16" d="M164.38,371.74c-1.61,4.93-3.09,9.64-4.33,13.84-7.46,25.13-27.34,20.05-43,18.31-10.73-1.19-26.81-1.1-40.95-2.2a13,13,0,0,0,5.7,2.85c8.86,2,13.25,1.49,14.73,1.16a2.67,2.67,0,0,0,1.95,1.4l2.85.44a2.68,2.68,0,0,0,3-2.23,2.58,2.58,0,0,0,0,.48v0h0a2.68,2.68,0,0,0,2.25,2.55l2.86.44a2.67,2.67,0,0,0,3-2.23,2.57,2.57,0,0,0,0,.48v0h0a2.68,2.68,0,0,0,2.25,2.55l2.85.43a2.67,2.67,0,0,0,3-2.22,2.57,2.57,0,0,0,0,.48v0h0a2.66,2.66,0,0,0,2.25,2.54l2.85.44a2.67,2.67,0,0,0,3-2.23,2.74,2.74,0,0,0,0,.49v0a2.68,2.68,0,0,0,2.26,2.55l2.85.44a2.65,2.65,0,0,0,2.83-1.57,5.29,5.29,0,0,0,3.45,2.09l12.29,1.89a5.34,5.34,0,0,0,6.07-4.46Z"/><path class="cls-17" d="M66.23,399.33c5.39,1.77,30.27,5.42,46.15,6.1s39.81,7.06,51.11,6,7.72,4.35-11,5.22S100.3,407,82.92,406.59,61.55,397.8,66.23,399.33Z"/><path class="cls-18" d="M422.19,392h0l7.7-1-.93-7-7.71,1-19.54-4.85-43.17,5.75s-3.26,1.06-1.9,11.27,4.79,10.39,4.79,10.39l43.17-5.76Z"/><path class="cls-19" d="M359,389.11l43.17-5.76,19.54,4.85,7.71-1-.28-2.06-7.7,1-19.55-4.84L358.69,387s-3.25,1.06-1.89,11.27c.05.37.1.69.16,1C356,390.12,359,389.11,359,389.11Z"/><rect class="cls-20" x="372.43" y="379.71" width="21.84" height="27.79" transform="translate(722.87 -38.38) rotate(82.41)"/><rect class="cls-21" x="424.72" y="387.24" width="7.57" height="0.69" transform="translate(756.1 -88.36) rotate(82.41)"/><rect class="cls-21" x="423.49" y="387.41" width="7.57" height="0.69" transform="translate(755.2 -87) rotate(82.41)"/><rect class="cls-21" x="422.26" y="387.57" width="7.57" height="0.69" transform="translate(754.29 -85.64) rotate(82.41)"/><rect class="cls-21" x="421.04" y="387.74" width="7.57" height="0.69" transform="translate(753.39 -84.27) rotate(82.41)"/><path class="cls-17" d="M422.86,398.81c-3.82,1.06-21.3,2.82-32.4,2.79s-28,3.67-35.86,2.57-5.53,2.79,7.48,4,36.76-5.1,48.9-4.82S426.17,397.89,422.86,398.81Z"/><polygon class="cls-22" points="523.33 412.62 507.64 402.55 505.61 397.56 510.85 396.11 511.13 393.37 515.11 390.18 515.61 384.79 522.03 385.64 519.8 380.52 536.89 391.5 523.33 412.62"/><polygon class="cls-23" points="508.06 402.19 506.31 397.9 511.33 396.52 511.63 393.64 515.61 390.45 516.08 385.38 522.88 386.28 520.97 381.89 536.17 391.65 523.17 411.9 508.06 402.19"/><path class="cls-22" d="M531.25,387.93l-13.51,21c.15.12,6,3.9,6,3.9,2,1.3,4.51,1,5.54-.58l.85-1.32c1-1.61,3.53-1.87,5.55-.58l2.65,1.7,0,0a.85.85,0,0,0,.4.91l2.2,1.41a.8.8,0,0,0,1.11-.12l1.8-2.8.56-.88,1.77-2.75a.8.8,0,0,0-.36-1.06l-2.19-1.41a.88.88,0,0,0-.95,0l-.05,0L540,403.64c-2-1.29-2.82-3.67-1.78-5.28l.85-1.32c1-1.62.23-4-1.78-5.29C537.29,391.75,531.42,388,531.25,387.93Z"/><polygon class="cls-22" points="519.21 409.97 511.52 405.03 517.21 406.98 515.79 403.74 519.48 403.38 514.9 398.09 519.48 398.13 520.21 393.94 525.34 393.92 521.4 389.06 527.93 389.4 526.79 385.01 532.77 388.85 519.21 409.97"/><path class="cls-17" d="M513.43,412.62c6.38-1.38,9.61-2.77,14.83-1.1s18.32.77,21.36-1.55,3.67,6.07-8.33,6.52-17-3.42-23.22-2.32S512.82,412.75,513.43,412.62Z"/><path class="cls-24" d="M331.78,382h-.06c2.82-16-13.52-32.8-36.93-37.71s-44.91,3.83-48.91,19.5v-.09l-.2.93v.07l-2.23,10.7c0,.14-.07.27-.1.41s-.08.42-.12.63l-.06.33v0c-3.91,21.52,12.93,35.8,36.3,40.69,23.64,5,46.36-3.59,49.78-23.45Zm-46.94,9.8c-11.81-2.47-20.71-9.84-22.62-17.85,5-6.57,16.07-9.75,27.88-7.27s20.7,9.84,22.62,17.85C307.75,391,296.65,394.23,284.84,391.75Z"/><path class="cls-25" d="M294.79,344.24c-23.74-5-45.73,4.15-49.13,20.37S258.75,398,282.49,403s45.72-4.15,49.12-20.37S318.52,349.22,294.79,344.24Zm-10,47.51c-14.66-3.07-24.84-13.68-22.75-23.7s15.69-15.65,30.35-12.58,24.84,13.68,22.74,23.7S299.5,394.82,284.84,391.75Z"/><path class="cls-17" d="M262.25,416.55a102.44,102.44,0,0,1,37.85-1.84c15.29,2,25.16-2.22,25.16-2.22s.29,6.09-24.19,6.67S259.88,417.15,262.25,416.55Z"/><path class="cls-26" d="M455.28,323.74a19.61,19.61,0,0,1,.91,1.93,2.22,2.22,0,0,1,.61.4c.24.24.23.39.23.45a2,2,0,0,1-.23.78,11.7,11.7,0,0,1-3.68,3.38c-1.14.77-2.34,1.49-3.3,2.06a21.57,21.57,0,0,0-3.76,2.53c-1.87,1.81-1.92,2.59-2.79,5.22,0,0,.34-1.48,1.83-7.14S450,326,452,325.45l.21,0c-.09-.55-.16-1.05-.23-1.57-3.28.73-6.85,3.35-8.36,9.11a15.32,15.32,0,0,1-1.35,3.46,10.36,10.36,0,0,0-1.73-2.83,28.48,28.48,0,0,1-2.82-4.17c-.77-3.76,2.48-15.31,5.1-18.83s-9.08-7.13-9,2.93c.1,8.09-3.07,13-5.24,15.26-1.54,1.45-3.66,3.13-5,2.86-2.33-.48-14.73,2.34-16.52,5.21s-3.22,8,3.19,12.59,8.44,7.22,10.18,11.61,6.38,9.07,13.2,5.29,7.65-14.74,8.59-18.28c.11-.41.22-.85.32-1.32h0c.11-.55,2.56-8.31,4.64-10.33,1-1,3.74-2.38,6.27-4a19.06,19.06,0,0,0,3.93-3.19,4.51,4.51,0,0,0,1.25-2.59C458.68,325.19,457.27,324.1,455.28,323.74Zm-19.89-10.25c.23-1.69.35-3.91,2.21-4.68a3.84,3.84,0,0,1,3.82.53.49.49,0,0,1,.15.2s0,0-.07.1C439,313.07,432,338.53,435.39,313.49Z"/><path class="cls-26" d="M188.09,148.84l.07-.06-23-22.3s-5.6,3.53-4.66,5.4,12.31,11.15,11.15,16h0a131.08,131.08,0,0,0-12.19,11.61h0c-4.89.92-13.61-10.9-15.42-11.93s-5.62,4.39-5.62,4.39l21.07,23.94,14.07,16a2.39,2.39,0,0,0,3.09.35,131.11,131.11,0,0,0,26.86-25.58,2.37,2.37,0,0,0-.2-3.1Z"/><path class="cls-8" d="M489.23,215.52l0,0L474.32,201s-3.65,2.29-3,3.51,8,7.26,7.27,10.41h0a84.65,84.65,0,0,0-7.94,7.56h0c-3.19.6-8.87-7.1-10.05-7.77s-3.66,2.86-3.66,2.86l13.72,15.59q4.62,5.27,9.16,10.45a1.57,1.57,0,0,0,2,.23,85.87,85.87,0,0,0,17.5-16.66,1.56,1.56,0,0,0-.13-2Z"/><rect class="cls-27" x="472.53" y="160.54" width="5.94" height="10.08" rx="0.95" transform="translate(-18.19 264.51) rotate(-30.53)"/><path class="cls-28" d="M472.55,172.05h0l2.47-1.45-4.13-7-2.47,1.46-22.87,3.62L402.4,194.12s-3,2.59,3,12.79,9.72,8.85,9.72,8.85l43.14-25.45Z"/><path class="cls-29" d="M403.72,196.37l43.15-25.44,22.87-3.63,2.47-1.46-.79-1.33L469,166l-22.88,3.63L402.94,195s-3,2.59,3,12.79l.4.66C400.89,198.85,403.72,196.37,403.72,196.37Z"/><path class="cls-30" d="M472.33,163c-.22.13-.44.18-.49.11s.11-.23.34-.37l2.46-1.45c.23-.13.45-.19.49-.12s-.11.24-.33.38Z"/><path class="cls-30" d="M472.91,164c-.23.13-.45.18-.49.11s.11-.24.34-.37l2.46-1.46c.23-.13.45-.18.49-.11s-.11.24-.34.37Z"/><path class="cls-30" d="M473.48,165c-.22.13-.44.19-.48.12s.1-.24.33-.38l2.47-1.45c.22-.13.44-.18.48-.11s-.11.23-.33.37Z"/><path class="cls-30" d="M474.06,166c-.23.13-.45.18-.49.11s.11-.24.34-.37l2.46-1.45c.23-.14.45-.19.49-.12s-.11.24-.34.37Z"/><path class="cls-30" d="M474.63,166.92c-.22.14-.44.19-.48.12s.11-.24.33-.37l2.47-1.46c.22-.13.44-.18.48-.11s-.11.24-.33.37Z"/><path class="cls-30" d="M475.21,167.9c-.23.13-.45.18-.49.11s.11-.23.34-.37l2.46-1.45c.23-.14.45-.19.49-.12s-.11.24-.34.38Z"/><path class="cls-30" d="M475.78,168.87c-.22.14-.44.19-.48.12s.11-.24.33-.37l2.47-1.46c.22-.13.44-.18.48-.11s-.1.24-.33.37Z"/><path class="cls-30" d="M476.36,169.85c-.23.13-.44.19-.49.11s.11-.23.34-.37l2.46-1.45c.23-.13.45-.18.49-.11s-.11.23-.33.37Z"/><path class="cls-8" d="M384,207.29l-5.11,1.52a.63.63,0,0,0-.42.78l.75,2.52a.63.63,0,0,0,.78.42l.68-.2h0l-.67.2.54,1.79-1.3,15.07,9.36,31.35s1.17,2.29,8.58.07l.45-.14.22-.06.49-.14-.25,0c6.47-2.14,6.23-4.48,6.23-4.48L395,224.7l-9.34-11.9h0l-.54-1.79-3.44,1h0l3.5-1a.63.63,0,0,0,.42-.78l-.76-2.52A.61.61,0,0,0,384,207.29Z"/><path class="cls-31" d="M218.49,268.51h0l-3.93,6.7,6.09,3.58,3.93-6.71,15.85-12.42,22-37.56s1.16-3.23-7.72-8.44-11.13-2.62-11.13-2.62l-22,37.57Z"/><rect class="cls-32" x="230.21" y="223.02" width="21.84" height="27.79" transform="translate(329.25 563.27) rotate(-149.61)"/><rect class="cls-33" x="214.3" y="275.86" width="7.57" height="0.68" transform="translate(266.43 624.79) rotate(-149.6)"/><rect class="cls-33" x="214.92" y="274.79" width="7.57" height="0.68" transform="translate(268.14 623.11) rotate(-149.6)"/><rect class="cls-33" x="215.55" y="273.72" width="7.57" height="0.68" transform="translate(269.85 621.44) rotate(-149.6)"/><rect class="cls-33" x="216.18" y="272.66" width="7.57" height="0.68" transform="matrix(-0.86, -0.51, 0.51, -0.86, 271.56, 619.77)"/><path class="cls-34" d="M373.24,191.78a67.58,67.58,0,0,0,7.28-6l-17.77-30.07-20.62,15,23.16,26.15A67.94,67.94,0,0,0,373.24,191.78Z"/><path class="cls-35" d="M373.24,191.78a67.58,67.58,0,0,0,7.28-6l1,1.69a65.81,65.81,0,0,1-14.93,10.87l-1.3-1.47A67.94,67.94,0,0,0,373.24,191.78Z"/><path class="cls-36" d="M366.05,196.46l-22.76-25.6.19-.11a2.53,2.53,0,0,0,.23-.12l.05,0h0l.34-.2.14-.08.11-.07.13-.08q.23-.12.45-.27h0l.48-.29.14-.09.19-.12.21-.13.37-.24.1-.06,0,0,.46-.29.24-.17.08,0,.07,0,.37-.24.33-.22.05,0,.05,0,.22-.14.32-.22.32-.22,0,0h0l.36-.25.42-.29.22-.15.09-.05c.1-.08.21-.15.33-.23l.31-.22,0,0,20.4,27.2C369.2,194.61,367.05,195.9,366.05,196.46Z"/><path class="cls-37" d="M375.71,189.91l-18.07-28.83h0l.46-.35.08-.07a.39.39,0,0,0,.1-.08l.27-.2L359,160l.06,0,.06-.06.35-.27.38-.3.06-.05,0,0,.5-.41.12-.09.19-.16.24-.2.16-.14c.11-.08.2-.17.3-.25l.16-.14.23-.19.11-.1.45-.4.09-.08,0,0,17.33,29.32C379,187.18,377.66,188.39,375.71,189.91Z"/><polygon class="cls-38" points="362.6 158.37 378.97 186.4 378.11 187.38 360.58 159.65 362.35 158.02 362.6 158.37"/><path class="cls-2" d="M342.31,170.78l.19-.08,0,0,0,0,.15-.07.24-.12h0l.23-.13.23-.12.05,0,0,0,.34-.19.14-.08.12-.07.13-.08.45-.27h0q.24-.13.48-.3l.14-.08.19-.12.2-.13.38-.24.1-.06.05,0,.45-.3L347,168l.07,0,.08-.05.36-.24.34-.22,0,0,.06,0,.21-.14.33-.22.32-.22,0,0h0l.36-.25.42-.29.22-.15.08-.05.33-.23.32-.22.33-.23.16-.11.34-.24.34-.24.07-.05.19-.13.25-.18.24-.17.24-.17.17-.12,0,0,0,0,.24-.17.24-.17.26-.19.28-.2.27-.2.31-.22.34-.25.12-.09.06-.05.16-.11.41-.3.4-.31h0l.4-.31.45-.33.08-.06.08-.07.3-.22.45-.35.09-.07.1-.08.27-.21.47-.36.05-.05.07-.05.35-.27.38-.31.06,0,0,0,.5-.4.11-.1.2-.15.24-.2.16-.14.3-.25.16-.14.22-.19.11-.1c.17-.14.32-.28.46-.41l.09-.08.31-.29.09-.09.29-.3h0l.26.43-.26.27-.09.08c-.1.1-.2.2-.32.3l-.08.08-.46.41-.11.09-.22.2-.16.14-.3.25a1.07,1.07,0,0,0-.16.14l-.25.19-.19.16-.11.09-.5.41,0,0-.06.05-.38.3-.35.28-.07.05-.05,0-.47.36-.27.21-.1.08-.09.06-.46.36-.29.22-.08.06-.08.06-.45.34-.4.3,0,0h0l-.4.3-.41.3-.16.12-.06.05-.12.08-.35.26-.3.22-.27.2-.28.2-.26.19-.24.17-.24.17,0,0,0,0-.17.12-.24.18-.24.17-.25.17-.2.14-.06,0-.34.24-.34.24-.16.1-.33.24-.32.22-.33.22-.08.06-.22.15-.42.29-.36.24h0l0,0-.32.21-.33.22-.21.15-.06,0,0,0-.34.22-.36.24-.08,0-.07.05-.25.16-.45.3-.05,0-.1.07-.38.24-.21.13-.18.12-.14.08-.48.3h0l-.45.27-.13.07-.12.07-.14.09-.34.19h0l-.05,0-.23.13-.23.12,0,0h0L343,171l-.15.07,0,0h0l-.19.09-.33-.38Z"/><path class="cls-35" d="M340.93,170s0,0,.08,0h0l.16,0h0l.24-.09h0l.32-.15h0l.4-.21h0l.46-.25.05,0,.51-.29.12-.07.58-.35h0l.62-.38.19-.12.58-.36.11-.07.75-.49.07,0,.82-.54,0,0,.86-.57,0,0,.79-.54.21-.15.73-.5.34-.23.9-.63,1.09-.78,0,0,1.06-.76,0,0,1-.74.06-.05,1-.72,0,0,.92-.7.11-.07.82-.64.1-.08.8-.61.06-.06c.26-.19.5-.39.73-.57l.06,0,.66-.53.19-.16.41-.34.29-.25.39-.33.11-.1.45-.4.09-.08.32-.3a.3.3,0,0,1,.08-.08l.3-.31,0,0,.18-.22,0-.06a1,1,0,0,0,.11-.18c0-.06,0-.1,0-.13l.67.93s0,.07,0,.13l-.12.18,0,.06a1.74,1.74,0,0,1-.19.22l0,0-.3.31-.09.08-.31.3-.09.08-.46.41-.1.09-.23.19-.16.14-.3.25-.16.14-.24.2-.19.16-.12.09-.5.41,0,0-.06.05-.38.3-.35.27-.07.06,0,0-.47.37-.27.2-.1.08-.09.07-.45.35-.3.22L357,161l-.08.06-.44.33-.41.31,0,0h0l-.4.3-.41.3-.15.11-.07.05-.12.09-.34.25-.31.22-.27.2-.28.21-.26.18-.24.17-.24.18,0,0,0,0-.17.12-.24.17-.24.17-.25.18-.19.14-.07.05-.34.23-.34.24-.16.11-.33.23-.32.22-.33.23-.08.05a1.7,1.7,0,0,1-.22.15l-.42.29-.36.25h0l0,0-.32.21-.33.22-.21.14-.06,0,0,0-.33.22-.37.24L347,168l-.07,0-.25.17-.45.29-.05,0-.1.06-.37.24-.21.13-.19.12-.14.09-.48.29h0l-.45.26-.13.08-.11.07-.15.08-.33.2h0l-.05,0-.23.13-.23.12h0l-.24.12-.15.08h0l0,0-.19.09-.1,0h0l0,0-.15.05-.06,0h-.07l-.1,0h-.08l0,0h0Z"/><path class="cls-39" d="M340.94,169.9c.39-.89,5.56-5,11.55-9.26s10.53-6.94,10.14-6-5.56,5-11.55,9.27S340.55,170.79,340.94,169.9Z"/><path class="cls-35" d="M350.55,163.07c.1.13.71-.15,1.36-.62s1.11-1,1-1.1-.7.14-1.35.62S350.46,162.94,350.55,163.07Z"/><polygon class="cls-40" points="350.47 159.19 349.66 160.64 349.18 159.98 349.99 158.54 350.47 159.19"/><polygon class="cls-40" points="351.62 160.78 350.81 162.22 350.33 161.57 351.15 160.12 351.62 160.78"/><polygon class="cls-40" points="335.64 151.28 335.67 151.28 336.45 149.88 337.23 150 336.44 151.41 337.55 151.58 338.33 150.18 339.11 150.3 338.32 151.7 339.42 151.88 340.21 150.47 340.99 150.59 340.2 152 335.64 151.28"/><polygon class="cls-40" points="340.63 152.06 341.3 152.17 342.09 150.77 342.86 150.89 342.08 152.29 340.63 152.06"/><polygon class="cls-40" points="348.16 156.02 347.35 157.47 346.87 156.81 347.68 155.37 348.16 156.02"/><polygon class="cls-40" points="343.97 151.06 344.63 151.17 344.7 151.26 343.89 152.71 343.78 152.56 343.18 152.47 343.97 151.06"/><polygon class="cls-40" points="349.31 157.6 348.5 159.05 348.03 158.4 348.84 156.95 349.31 157.6"/><polygon class="cls-40" points="345.85 152.85 345.04 154.29 344.56 153.64 345.38 152.19 345.85 152.85"/><polygon class="cls-40" points="347.01 154.43 346.19 155.88 345.72 155.23 346.53 153.78 347.01 154.43"/><polygon class="cls-41" points="348.16 156.02 348.84 156.95 348.03 158.4 347.35 157.47 348.16 156.02"/><polygon class="cls-41" points="347.01 154.43 347.68 155.37 346.87 156.81 346.19 155.88 347.01 154.43"/><polygon class="cls-41" points="335.67 151.28 335.64 151.28 335.88 149.79 336.45 149.88 335.67 151.28"/><polygon class="cls-41" points="345.85 152.85 346.53 153.78 345.72 155.23 345.04 154.29 345.85 152.85"/><polygon class="cls-41" points="349.31 157.6 349.99 158.54 349.18 159.98 348.5 159.05 349.31 157.6"/><polygon class="cls-41" points="349.66 160.64 350.47 159.19 351.15 160.12 350.33 161.57 349.66 160.64"/><polygon class="cls-41" points="340.99 150.59 342.09 150.77 341.3 152.17 340.2 152 340.99 150.59"/><polygon class="cls-39" points="351.62 160.78 352.5 161.97 351.28 162.86 350.81 162.22 351.62 160.78"/><polygon class="cls-41" points="337.23 150 338.33 150.18 337.55 151.58 336.44 151.41 337.23 150"/><polygon class="cls-41" points="339.11 150.3 340.21 150.47 339.42 151.88 338.32 151.7 339.11 150.3"/><polygon class="cls-41" points="342.86 150.89 343.97 151.06 343.18 152.47 342.08 152.29 342.86 150.89"/><polygon class="cls-41" points="344.7 151.26 345.38 152.19 344.56 153.64 343.89 152.71 344.7 151.26"/><path class="cls-42" d="M476.6,261.06A39.82,39.82,0,0,0,472,264.2l8.84,18.7,13-7.72L481.56,258.5A40.26,40.26,0,0,0,476.6,261.06Z"/><path class="cls-35" d="M476.6,261.06A39.82,39.82,0,0,0,472,264.2l-.49-1.05a38.71,38.71,0,0,1,9.39-5.59l.69.94A40.26,40.26,0,0,0,476.6,261.06Z"/><path class="cls-43" d="M481.09,258.7l12,16.33-.12.05-.14.07h0l-.21.09-.09,0-.08,0-.08,0-.27.13h0l-.3.14-.08,0-.12.06-.13.06-.23.12-.07,0,0,0-.28.15-.16.08,0,0-.05,0-.23.12-.21.11,0,0,0,0-.13.07-.21.11-.2.11h0l-.23.13-.26.14-.14.08-.05,0-.21.11-.2.12h0l-10.54-17.15C479.13,259.62,480.47,259,481.09,258.7Z"/><path class="cls-44" d="M475,262l9.07,18h0l-.28.18-.06,0-.06,0-.17.11-.3.19,0,0-.05,0-.22.15-.24.15,0,0h0l-.32.22-.07.05-.12.08-.15.1-.11.08-.19.13-.1.07-.14.1-.07,0-.3.22-.05,0h0l-8.61-18.23C472.93,263.46,473.81,262.82,475,262Z"/><path class="cls-2" d="M493.68,275.13l-.12,0h0l-.09,0-.15.06h0l-.15.06-.13.06,0,0h0l-.21.09-.09,0-.08,0-.07,0-.28.14h0l-.3.14-.08.05-.12.06-.13.06-.23.12-.07,0,0,0-.28.15-.16.08,0,0-.05,0-.23.12-.2.11,0,0h0l-.13.08-.21.11-.2.11h0l-.23.12-.26.15-.14.08-.05,0-.21.11-.2.12-.21.11-.09.06L488,278l-.21.12,0,0-.13.07-.15.09-.15.09-.15.08-.11.07H487l-.15.09-.15.09-.16.09-.17.11-.18.1-.19.12-.21.13-.08,0,0,0-.1.05-.25.16-.26.16h0l-.26.16-.28.17,0,0-.05,0-.19.11-.29.18-.05,0-.06,0-.17.11-.3.19,0,0,0,0-.22.14-.24.16,0,0,0,0-.32.21-.07.05-.12.08-.16.11-.1.07-.19.13-.1.07-.15.1-.06.05-.3.22-.05,0-.2.16-.06,0-.19.17h0l-.13-.27.17-.15.06,0,.2-.16.05,0,.3-.22.06-.05.15-.1.1-.07.19-.13.1-.07.16-.11.12-.08.07-.05.32-.21,0,0,0,0,.24-.16.22-.14.05,0,0,0,.3-.19.17-.11.06,0,.06,0,.28-.18.19-.11.05,0,.05,0,.28-.17.26-.16h0l.26-.16.25-.16.1-.05,0,0,.08,0,.21-.13.19-.12.18-.1.17-.11.17-.09.15-.09.15-.09h0l.11-.07.15-.08.15-.09.16-.09.12-.07,0,0,.22-.12.21-.12.1-.06.2-.11.2-.12.21-.11.05,0,.14-.08.26-.15.23-.12h0l.19-.11.21-.11.13-.08h0l0,0,.21-.11.22-.12,0,0,.05,0,.15-.08.29-.15,0,0,.07,0,.23-.12.13-.06.12-.06.08-.05.3-.14h0l.28-.14.08,0,.07,0,.09,0,.21-.09h0l0,0,.14-.06.14-.06h0l.15-.06.09,0h0l.12,0,.17.24Z"/><path class="cls-35" d="M494.45,275.65s0,0-.05,0h-.13l-.15,0h0l-.2.07h0l-.25.09h0l-.28.12,0,0-.31.14-.07,0-.37.18h0l-.39.19-.12.06-.36.19-.07,0-.47.25,0,0-.51.27,0,0-.53.29,0,0-.49.27-.14.08-.46.25-.2.12-.57.32-.69.4,0,0-.67.39h0l-.64.38,0,0-.62.38h0l-.58.36-.07,0-.52.32-.06.05c-.18.1-.34.21-.51.32l0,0-.46.3,0,0-.42.28-.12.08-.26.18-.19.13-.24.17-.07.05-.3.22-.05,0-.2.16-.06,0-.19.17h0a1.35,1.35,0,0,0-.12.12l0,0-.08.1s0,.06,0,.08l-.34-.58a.08.08,0,0,1,0-.08l.08-.1,0,0a.68.68,0,0,1,.12-.12l0,0,.19-.16,0-.05.21-.16.05,0,.29-.21.07,0,.15-.11.1-.07.19-.13.1-.07.15-.11.13-.08.07-.05.32-.21,0,0,0,0,.24-.16.22-.14,0,0,0,0,.3-.19.16-.11.07,0,.05,0,.29-.19.19-.11.05,0,.05,0,.28-.17.26-.16h0l.25-.16.26-.15.1-.06,0,0,.07,0,.22-.13.19-.12.18-.1.17-.1.16-.1.15-.09.15-.08,0,0h0l.1-.06.16-.09.15-.09.15-.09.13-.07,0,0L488,278l.21-.12.1-.05.21-.12.2-.11.21-.12,0,0,.14-.08.26-.14.23-.13h0l.2-.11.21-.11.13-.07,0,0,0,0,.21-.11.23-.12.05,0,0,0,.16-.08.28-.15h0l.07,0,.23-.12.13-.06.12-.06.08,0,.3-.15h0l.28-.13.08,0,.08,0,.09-.05.21-.09h0l.14-.06.15-.07h0l.15-.06.09,0h0l.12,0,.06,0h0l.09,0h.19l0,0h0Z"/><path class="cls-45" d="M494.44,275.73c-.28.5-3.55,2.66-7.32,4.82s-6.58,3.52-6.31,3,3.56-2.66,7.32-4.83S494.72,275.22,494.44,275.73Z"/><path class="cls-46" d="M303.35,198.89a49.23,49.23,0,0,0,1-6.15l-18.93-6.41-3.62,16.46,19.88,2.12A52.13,52.13,0,0,0,303.35,198.89Z"/><path class="cls-42" d="M303.35,198.89a49.23,49.23,0,0,0,1-6.15l1.07.36A50.67,50.67,0,0,1,302.82,205l-1.12-.11A52.13,52.13,0,0,0,303.35,198.89Z"/><path class="cls-47" d="M281.92,202.74a.61.61,0,0,0,.05-.12v-.05l0-.1.06-.17h0l.06-.17a1,1,0,0,1,0-.16v-.06c0-.07,0-.16.08-.24l0-.1,0-.09,0-.09c0-.11.06-.22.1-.34h0c0-.12.07-.24.1-.36l0-.1,0-.14c0-.06,0-.11.05-.16s0-.19.08-.28l0-.08v0l.09-.35a1.33,1.33,0,0,0,.05-.19l0-.05v-.06c0-.09.05-.19.08-.28l.06-.26v-.07l0-.17a2.33,2.33,0,0,0,.07-.25l.06-.25v0h0c0-.09.05-.18.07-.28s0-.22.08-.33,0-.11,0-.17l0-.06.06-.26.06-.24.06-.27,0-.12.06-.26a2.68,2.68,0,0,0,.07-.27v-.05a.75.75,0,0,1,0-.16l0-.19c0-.07,0-.13,0-.19l.05-.2,0-.13v-.06a1.06,1.06,0,0,0,0-.19l.05-.19,0-.2.05-.22c0-.08,0-.15,0-.22s0-.17.05-.25l.06-.27,0-.1V193l0-.13c0-.1.05-.21.07-.32s.05-.22.07-.33h0v0l.06-.33c0-.12,0-.24.08-.36v-.13a2,2,0,0,0,.05-.24c0-.13.05-.25.07-.37l0-.07v-.09c0-.07,0-.15,0-.22s.05-.26.07-.38v-.11c0-.09,0-.19.05-.28l.06-.32v-.08c0-.15,0-.29.08-.42v-.1l0-.16,0-.2a.77.77,0,0,0,0-.15,2.17,2.17,0,0,0,0-.25l0-.14c0-.07,0-.13,0-.19l0-.1c0-.14,0-.27.05-.4V187l0-.29v-.08a2.46,2.46,0,0,1,0-.28h0l.27.1c0,.07,0,.15,0,.24v.08l0,.29v.07c0,.13,0,.26-.05.4v.1l0,.19s0,.1,0,.14,0,.17,0,.25,0,.1,0,.15,0,.13,0,.2,0,.11,0,.16l0,.1c0,.13-.05.27-.07.42v.08c0,.1,0,.21-.05.32l-.06.28V190c0,.12,0,.25-.07.38s0,.15,0,.22l0,.09v.07c0,.12-.05.24-.08.37s0,.16,0,.24a.64.64,0,0,0,0,.07v.06c0,.12-.05.24-.07.36s-.05.22-.07.33v0h0c0,.11,0,.22-.07.33l-.06.33,0,.12v.05l0,.1-.06.27-.06.25c0,.07,0,.14,0,.22a1.42,1.42,0,0,0-.05.22l0,.2c0,.07,0,.13,0,.19a1.62,1.62,0,0,0,0,.19v.06l0,.13,0,.2c0,.06,0,.12-.05.19l0,.19a1.24,1.24,0,0,1,0,.16v.05l-.06.27-.06.26,0,.12c0,.09-.05.18-.07.27l-.06.24-.06.26v.06c0,.06,0,.12-.05.18a3,3,0,0,1-.08.32,2.29,2.29,0,0,1-.07.28h0v0l-.07.24-.06.25a1,1,0,0,0,0,.17v.07c0,.09-.05.18-.07.26l-.07.28,0,.06v0a1.33,1.33,0,0,0-.05.19c0,.12-.07.23-.1.35v0l0,.08-.08.28c0,.05,0,.11,0,.16a.57.57,0,0,0,0,.14l0,.1c0,.12-.07.24-.11.36h0c0,.12-.07.23-.1.34l0,.09,0,.09,0,.1a1.69,1.69,0,0,1-.08.24v0l0,0a.75.75,0,0,1-.05.16l-.06.17h0c0,.06-.05.12-.07.17l0,.1v.05a.61.61,0,0,0-.05.12l-.29,0Z"/><path class="cls-42" d="M281,203l0,0h0a.33.33,0,0,1,.06-.08v0c0-.05.05-.09.07-.15v0a2.2,2.2,0,0,0,.09-.21v0a2.74,2.74,0,0,0,.11-.28h0c0-.1.07-.21.11-.33v0q.06-.16.12-.36l0-.09c0-.14.08-.28.13-.43h0l.14-.46a.74.74,0,0,1,0-.14l.12-.44,0-.08q.07-.27.15-.57l0-.05c0-.2.11-.41.16-.63v0c.06-.22.12-.44.17-.66v0l.15-.61a1.36,1.36,0,0,0,0-.17c.05-.19.1-.38.14-.57l.06-.26c.06-.24.11-.47.17-.71s.13-.58.2-.87v0l.18-.85v0c.06-.27.12-.54.17-.81l0,0c0-.26.11-.53.16-.79v0l.15-.74,0-.09c0-.23.09-.45.13-.67l0-.09.12-.65v-.05c0-.21.08-.41.11-.61v0c0-.2.06-.38.09-.56l0-.16.06-.34a2.34,2.34,0,0,1,0-.26c0-.11,0-.22,0-.33s0-.06,0-.09,0-.28.05-.4v-.08l0-.29v-.07c0-.11,0-.2,0-.28V186s0-.1,0-.13,0-.07,0-.07l.63.14a.1.1,0,0,1,.05.07s0,.08,0,.14v.26c0,.08,0,.18,0,.28v.08c0,.09,0,.18,0,.29a.15.15,0,0,0,0,.07c0,.13,0,.26-.05.4l0,.1,0,.19a.68.68,0,0,1,0,.14,2.17,2.17,0,0,1,0,.25.68.68,0,0,1,0,.14l0,.21,0,.16v.09c0,.14-.05.28-.08.43v.08l-.06.31c0,.1,0,.2-.05.29v.1c0,.13,0,.26-.07.39s0,.15,0,.22v.08l0,.07c0,.13,0,.25-.07.38l-.05.24v.13c0,.12-.05.24-.08.36s0,.22-.07.33v0h0c0,.11,0,.22-.07.33s-.05.21-.07.32l0,.13v.05l0,.1-.06.27c0,.08,0,.16-.05.24l0,.22-.05.23c0,.07,0,.13,0,.2s0,.13-.05.19l0,.19v.06l0,.13c0,.07,0,.13-.05.19s0,.13,0,.2l-.05.19,0,.15v.06c0,.09-.05.18-.07.27l-.06.26,0,.12-.06.26-.06.25-.06.26,0,.06c0,.06,0,.12,0,.17s-.05.22-.08.33-.05.19-.07.28h0v0l-.06.25a2.33,2.33,0,0,1-.07.25.75.75,0,0,1,0,.16v.08l-.06.26c0,.09-.05.19-.08.28v.05l0,.06-.05.19-.09.35v0l0,.08c0,.09-.06.19-.08.28s0,.1-.05.16l0,.14,0,.1c0,.12-.07.24-.1.36h0c0,.12-.07.23-.1.33l0,.1,0,.08,0,.11a2.25,2.25,0,0,0-.08.24V202a1,1,0,0,0,0,.16l-.06.16v0h0l-.06.17,0,.1v0c0,.05,0,.09-.05.13l0,.07v0a1,1,0,0,1,0,.1l0,0,0,0v0l0,.06h-.07Z"/><path class="cls-43" d="M281,202.94c-.15-.6.61-4.92,1.71-9.64s2.12-8.05,2.27-7.45-.61,4.91-1.71,9.63S281.15,203.54,281,202.94Z"/><path class="cls-48" d="M104.83,210l-1.32,0h-.06l-3.12,0-1,3L97,219.35l-1.09,3.07,2.66,4,9,13.85a10.94,10.94,0,0,0,4.72,3.73l31.34,11.06a3.19,3.19,0,0,0,4.05-1.93l7.28-20.62a3.18,3.18,0,0,0-1.94-4.05l-24.29-8.58a17.74,17.74,0,0,1-5.22-3.13,18.22,18.22,0,0,0-5.22-3.13L111,211.06A23.47,23.47,0,0,0,104.83,210Zm11,7.6c2.19.77,3.52,2.72,3,4.34s-2.83,2.29-5,1.52l-8.61-3c-2.19-.78-3.52-2.73-3-4.34s2.83-2.3,5-1.52Z"/><polygon class="cls-49" points="85 206.7 81.97 215.26 95.92 222.38 100.32 209.91 85 206.7"/><rect class="cls-50" x="88.57" y="213.18" width="14.9" height="4.45" transform="translate(-139.07 234.22) rotate(-70.55)"/><rect class="cls-51" x="119.13" y="228.13" width="22.17" height="20.9" transform="translate(-138.11 281.92) rotate(-70.55)"/><path class="cls-52" d="M555,151.32c0-.41-.1-.86-.18-1.34h0c-.09-.54-.64-8.65.56-11.28s8.36-9.39,7.07-13.26-13.11-.92-11.67,11.36a15.26,15.26,0,0,1,0,3.7,10.35,10.35,0,0,0-2.63-2,29,29,0,0,1-4.14-2.85h0c-2.08-3.22-3.26-15.12-2.11-19.34s-11-3.33-7.25,6c3,7.48,1.87,13.21.68,16.09-.91,1.9-2.27,4.23-3.63,4.47-2.34.4-12.83,7.53-13.44,10.85s-.09,8.58,7.53,10.53,10.46,3.64,13.68,7.08,9.22,6.11,14.18.12S555.44,155,555,151.32Zm-18.53-34.77a3.86,3.86,0,0,1,3.75-.9.75.75,0,0,1,.21.13.91.91,0,0,0,0,.12c-1.12,4.12,1.63,30.31-4.27,5.8C535.75,120,535.05,117.94,536.49,116.55Zm19.38,10.24c1.81-1.34,3.79-1.61,4.73-1.19.31.13.36.28.38.34.63,1.88-2.54,6-4.44,8.4a22.16,22.16,0,0,0-2.57,3.71c-1.07,2.36-.84,3.1-.69,5.87,0,0-.22-1.5-.9-7.3S554.27,128,555.87,126.79Z"/><path class="cls-26" d="M307.11,274.56c5.35,3.85,6-13.69,13.5-15.71s19.69-1.72,15.54,9.41-3.65,21,4.25,20.28,8.4-31.88,12-39.67,9.42-14.52-2.8-20.19c-6-2.78-8.4.44-15.19-2.6s-10.84-5.9-15.26-1.74-5.27,18.12-7.58,26.54S301.75,270.7,307.11,274.56ZM339.23,267c.82-1.76,9.84.79,3.4,16-.82,2-4.28,3.47-6.21.79S338.42,268.73,339.23,267Zm-27.69-9.67c3.43-4.42,5.31,0,3.47,2.5s-4.5,13.9-7.42,12.78C306.31,272.1,308.1,261.74,311.54,257.31Z"/><path class="cls-26" d="M134.85,278.29c-3.88-3.49-15.89-3.21-23.27-4.59s-17.68-7-20.6-2.13,12.16,4.19,14.42,10.44,2.89,16.75-6.94,14a28.76,28.76,0,0,0-11.67-1.19c.18.56.36,1.18.55,1.9,3.93-.31,11.18,1.38,12.44,1.84,1.46.53.19,7.54-11.15,4.73-.73-.18-1.5-.4-2.32-.67a2.8,2.8,0,0,1-.3-.15c-1.61-.78-2.86-3.38-.83-5.12l.06,0c-.13-.72-.25-1.4-.37-2-2.6.92-4,2.8-3.48,5.81.29,1.66,2.15,2.8,4.88,3.61a27.72,27.72,0,0,0,2.71.65c8.77,1.74,22.55,1.46,27.26,3.18,6.93,2.53,13.11,7,17.08-3.84,2-5.35-1-7.17,1.15-13.2S138.74,281.78,134.85,278.29Zm-30.67-1c-2.28-1.41-12.23-2.86-11.48-5.44.33-1.13,9.33-.34,13.37,2.29S106.46,278.68,104.18,277.28Z"/><path class="cls-31" d="M535.58,228.24a2.5,2.5,0,0,0-1.57,2l-.37,2.69a2.49,2.49,0,0,0,2.13,2.81,2.52,2.52,0,0,0-2.82,2.14l-.37,2.68a2.51,2.51,0,0,0,2.13,2.82,2.51,2.51,0,0,0-2.82,2.13l-.37,2.69a2.51,2.51,0,0,0,2.13,2.82,2.51,2.51,0,0,0-2.82,2.13l-.37,2.68a2.52,2.52,0,0,0,2.14,2.82,2.51,2.51,0,0,0-2.82,2.14l-.37,2.68a2.49,2.49,0,0,0,.73,2.12c-.69,1.25-2.35,5.06-2.91,13.56-.7,10.84,10.95,14,15.22,18.94s3.17,9,3.17,9l5.62.77,5.62.78s0-4.2,5.49-7.76,17.51-3.46,19.78-14.08c1.78-8.34,1.22-12.46.89-13.85A2.49,2.49,0,0,0,584.3,271l.37-2.68a2.51,2.51,0,0,0-2.13-2.82,2.51,2.51,0,0,0,2.82-2.14l.37-2.68a2.51,2.51,0,0,0-2.13-2.82,2.51,2.51,0,0,0,2.82-2.13l.37-2.68a2.5,2.5,0,0,0-2.13-2.82,2.52,2.52,0,0,0,2.82-2.14l.37-2.68a2.51,2.51,0,0,0-2.14-2.82,2.5,2.5,0,0,0,2.82-2.13l.37-2.69a2.48,2.48,0,0,0-1.51-2.63,5,5,0,0,0,1.91-3.27l1.6-11.56a5,5,0,0,0-4.27-5.64l-45-6.23a5,5,0,0,0-5.64,4.27l-1.6,11.56A5,5,0,0,0,535.58,228.24Z"/><path class="cls-53" d="M582,273.19s-7-1.39-25.38-3.94-25-3-25-3Z"/><path class="cls-53" d="M583,265.56s-7-1.4-25.38-3.94-25-3-25-3Z"/><path class="cls-53" d="M584.07,257.92s-7-1.4-25.38-3.94-25-3-25-3Z"/><path class="cls-53" d="M585.13,250.28s-7-1.39-25.38-3.94-25-3-25-3Z"/><path class="cls-53" d="M586.18,242.65s-7-1.4-25.37-3.94-25-3-25-3Z"/><path class="cls-53" d="M587.24,235s-7-1.39-25.38-3.94-25-3-25-3Z"/><path class="cls-53" d="M544.62,308.24a.61.61,0,0,0,.45.73l11.86,1.65a.61.61,0,0,0,.63-.58l.2-1.46a.61.61,0,0,0-.44-.73l-11.87-1.64a.62.62,0,0,0-.63.58Z"/><path class="cls-54" d="M543.62,294.49c-1.33-1.39-10.79-10.12-11.56-13.54s1.48-12.84.84-13.14-2.84,10.65-2.27,14.15,12.31,12.63,12.94,12.9S543.62,294.49,543.62,294.49Z"/><path class="cls-54" d="M536.58,226s1.5-12.77,2.24-14,2.59-1.65,2.78-1.15-1.69,1.09-2.31,3-1.78,11.93-2.14,12.31S536.77,226.75,536.58,226Z"/><path class="cls-55" d="M390.73,288.16l.31.58-2,1.06,4.68,8.78,2-1.07.31.58a.67.67,0,0,0,.88.27l2.11-1.13a.65.65,0,0,0,.27-.88l-.31-.58L394.3,287l-.31-.58a.67.67,0,0,0-.88-.27L391,287.28A.65.65,0,0,0,390.73,288.16Z"/><path class="cls-15" d="M405.67,270.92l-11.41,11.73a5.4,5.4,0,0,0-1.39,3.11l6.45,12.09a7.52,7.52,0,0,0,3.18,1.2l9.19.84a15.36,15.36,0,0,0,7.34-1.48l27.47-14.68a3.91,3.91,0,0,0,1.61-5.29L438.28,260a4.44,4.44,0,0,0-5.47-2L412,266.62A22.62,22.62,0,0,0,405.67,270.92Zm5.47,1.78a2.62,2.62,0,0,1,0,3.69l-9.56,9.46a2.61,2.61,0,0,1-3.67-3.71l9.56-9.46A2.62,2.62,0,0,1,411.14,272.7Z"/><path class="cls-8" d="M29,247H28.9l6.76,22.39s4.83-.27,4.9-1.8-3.92-11.49-1.46-14.17h0A94.11,94.11,0,0,0,51,250.35h0c3.45,1.15,4.82,11.79,5.62,13.1s5.15-.82,5.15-.82l-5-22.76-3.3-15.24a1.75,1.75,0,0,0-1.85-1.32,96.13,96.13,0,0,0-26.24,6.81,1.75,1.75,0,0,0-1,2Q26.71,239.54,29,247Z"/><path class="cls-53" d="M186.42,279.17l-.64.12-.42-2.2-9.73,1.85.42,2.2-.63.12a.65.65,0,0,0-.52.76l.44,2.34a.66.66,0,0,0,.76.52l.64-.13,9.72-1.84.64-.12a.65.65,0,0,0,.52-.76l-.44-2.34A.66.66,0,0,0,186.42,279.17Z"/><path class="cls-42" d="M198.36,298.48l-7.75-14.32a5.39,5.39,0,0,0-2.55-2.24l-13.4,2.54a7.5,7.5,0,0,0-2.08,2.66l-3.53,8.48a15.34,15.34,0,0,0-.77,7.42l5.78,30.45a3.91,3.91,0,0,0,4.55,3.1L199,332.69a4.39,4.39,0,0,0,3.49-4.6l-2-22.3A22.38,22.38,0,0,0,198.36,298.48ZM195,303.16a2.6,2.6,0,0,1-3.49-1.12l-6.15-11.89a2.59,2.59,0,1,1,4.61-2.38l6.15,11.89A2.6,2.6,0,0,1,195,303.16Z"/><path class="cls-31" d="M173.31,329.5,202.15,324l-1.6-18.23a14.55,14.55,0,0,0-.29-1.85l-30.7,5.83Z"/><path class="cls-8" d="M184.32,209.51h0s-3.8-.81-12.5,2.05-9.3,9.48-3.92,10.13,5.6-5.93,13.51-1.37-.59,16.94-6.87,17.09-10.78,2.75-10.52,6,11.52,5.59,23.79-4.33l.13-.12a12,12,0,0,0,2.37-.8c3.87-1.68,5.74-2,7.11-2s4.64.73,7.41.83,9.07.38,9.76-1.88.47-11.21-1.06-16.54-1.72-10.91-4.42-13.89-8.21-1.8-12.79-.92C192.43,204.54,186.59,207.68,184.32,209.51Zm-14.79,10.93s-3-.05-3.69-1.67,4.35-6,11.47-7.24,6.87,4.22,5.28,5-6.28-.48-8.93,1.34S172.29,219.44,169.53,220.44Zm9,21.76c-9.23,4.59-12.69,1.88-12.67.37s5.46-3.11,8.85-3.38,6.82-3.19,6.82-3.19C184.24,236.25,187.76,237.61,178.52,242.2Z"/><path class="cls-56" d="M66,182.05a3.12,3.12,0,0,1,2.57-1c.76-1,1.57-2.07,2.36-3.11h0l4.71-6.71-.15-.25-5.28,6.31-.3-.24,4.65-6.64-.14-.24-5.28,6.3-.31-.23,4.66-6.64-.14-.25h0L68,175.65l-.31-.23,4.66-6.64-.15-.25L67,174.84,64.59,178a3.26,3.26,0,0,1,0,3.05c-.92,1.37-11.67,13.8-11.76,14.44A1.55,1.55,0,0,0,53,196.5a2,2,0,0,0,.72.83,3,3,0,0,0,1.74.21S65.41,182.69,66,182.05Z"/><path class="cls-56" d="M514.2,203a3.1,3.1,0,0,1,2.67.7c1.23-.4,2.49-.75,3.74-1.12h0l7.75-2.64,0-.28-8,2-.11-.37L528,198.6l0-.28-8,2-.11-.37,7.68-2.61,0-.29h0l-8,2-.11-.37,7.68-2.61,0-.29-8,2-3.74,1.12a3.28,3.28,0,0,1-1.83,2.44c-1.55.56-17.56,4.27-18,4.73a1.57,1.57,0,0,0-.43,1,2,2,0,0,0,.1,1.1,3,3,0,0,0,1.28,1.2S513.38,203.14,514.2,203Z"/><path class="cls-56" d="M363.64,306.34c1.49-3.25,8.08-15.45,8.08-15.45a.9.9,0,0,0-.09-.68c-.09-.34-.45-.59-1.69.18-2.08,1.3-5.52,8.14-6.4,9.77a5.05,5.05,0,0,0-.33,3.31c-.09.07-6.28,11-6.71,12.43a1.88,1.88,0,0,0,0,1.48c.16.54.67.64,1.47-.1C359.24,316.12,362.15,309.58,363.64,306.34Z"/><path class="cls-56" d="M275.28,257.45c0-3.38-1.74-6.13-3.88-6.13s-3.88,2.75-3.88,6.13c0,2.93,1.3,5.38,3,6,0,3.19-1.07,19.89-.78,20.43a1.57,1.57,0,0,0,.81.69,2,2,0,0,0,1.06.23,3,3,0,0,0,1.51-.86s-.81-17.55-.87-20.51C274,262.77,275.28,260.35,275.28,257.45Z"/></g></svg>