<svg xmlns="http://www.w3.org/2000/svg" viewBox="0 0 1920 1080"><defs><style>.cls-1{isolation:isolate;}.cls-2,.cls-4{fill:#c83e3f;}.cls-11,.cls-22,.cls-3,.cls-8{fill:#fff;}.cls-3{opacity:0.2;}.cls-22,.cls-3,.cls-35,.cls-8{mix-blend-mode:soft-light;}.cls-13,.cls-18,.cls-23,.cls-4,.cls-6{mix-blend-mode:multiply;}.cls-5,.cls-6{fill:#e0ddc3;}.cls-7{fill:#fffbdd;}.cls-9{fill:#ceccb5;}.cls-10{fill:#e1dec4;}.cls-12{opacity:0.1;}.cls-13{fill:#a6a8ab;}.cls-14{fill:#6d080f;}.cls-15{fill:#f5948d;}.cls-16{fill:#007981;}.cls-17,.cls-18{fill:#f8b34b;}.cls-18,.cls-22,.cls-39{opacity:0.5;}.cls-19{fill:#c3833e;}.cls-20{fill:#ffd34f;}.cls-21{fill:#00b8c4;}.cls-23{fill:#d0d2d3;}.cls-24{fill:#ee892e;}.cls-25{fill:#da7f2a;}.cls-26{fill:#f0973d;}.cls-27{fill:#872d29;}.cls-28{fill:#631b16;}.cls-29{fill:#752420;}.cls-30{fill:#a80f14;}.cls-31{fill:#cf181f;}.cls-32{fill:#ee3b24;}.cls-33{fill:#ffd346;}.cls-34{fill:#ffdb64;}.cls-36{fill:#77ac3c;}.cls-37{fill:#89c545;}.cls-38{fill:#ef8e35;}.cls-39{fill:#f6bd6c;}.cls-40{fill:#e7e1c2;}</style></defs><g class="cls-1"><g id="Layer_1" data-name="Layer 1"><path class="cls-2" d="M284.34,302.51l53.3,505.62h0c0,26.08,46.88,47.22,126.88,47.22S591.4,834.21,591.4,808.13l53.3-505.62Z"/><path class="cls-3" d="M429.22,720c47.3-16.86,51.21-77.14,53.34-120,1.92-38.62,4.09-90.93-26.61-120-24.45-23.11-60.44-26.23-92.23-30.15-21.85-2.69-44.54-5.46-65.24-13.26l29.88,283.47c15.67,2.81,32.21,3.86,47.5,4.81C393.56,726,412.3,726.05,429.22,720Z"/><path class="cls-4" d="M284.34,302.51l9.84,93.34c25.16,12.2,53.63,16.34,83.06,17.85,36.47,1.87,79.42,0,112.86,17.16C542.4,457.64,545.84,533,544.17,584A625.86,625.86,0,0,1,531.3,690.06c-7.09,34.33-18.89,66.54-54.53,79.72s-75.85,9.48-112.06.71a315,315,0,0,1-32-9.36l4.95,47h0c0,26.08,46.88,47.22,126.88,47.22S591.4,834.21,591.4,808.13l53.3-505.62Z"/><path class="cls-4" d="M284.34,302.51l5.37,50.81c10.84,11.87,29.78,16.8,44.53,19.71,25.62,5,52,6,78,6,30.7-.08,61.3-2.71,92-3,29.7-.27,58.71,11.49,70.12,40.63,20.27,51.69,8.48,109.76,2.67,163.07-6.06,55.47-4.87,111.42-12,166.86-2,15.87-5.11,33.11-14.21,46.67-9.49,14.13-28,20.22-44,22.63-20.21,3-40.67,2.38-61,1-19.76-1.33-40-1.37-59.24-6.76-21-5.88-37.82-17.08-52.07-31.36l3.09,29.34c0,26.08,46.88,47.22,126.88,47.22S591.4,834.21,591.4,808.13l53.3-505.62Z"/><path class="cls-5" d="M266.81,289.47c0,28.63,88.52,51.83,197.71,51.83s197.72-23.2,197.72-51.83V261.31H266.81Z"/><path class="cls-6" d="M441.09,261.31c3.21,2.05,6.23,3.85,8.69,5.37,15.25,9.43,30.22,18,38.91,34.58,7.39,14.07,8.13,27.47,4.41,39.5,95.65-3.63,169.14-25.21,169.14-51.29V261.31Z"/><path class="cls-7" d="M662.24,261.31c0,28.62-88.52,51.83-197.72,51.83s-197.71-23.21-197.71-51.83,88.52-51.82,197.71-51.82S662.24,232.69,662.24,261.31Z"/><path class="cls-8" d="M423.52,287.94c-20.94-9.45-39.21-30.71-30.89-55.27a44.53,44.53,0,0,1,7.73-13.94c-69.78,6.44-119.49,23.08-119.49,42.58,0,25.1,82.22,45.44,183.65,45.44,14.42,0,28.43-.42,41.89-1.2C478.91,303.21,448.75,299.35,423.52,287.94Z"/><path class="cls-9" d="M619.06,261.32c0,19.13-69.18,34.66-154.54,34.66S310,280.45,310,261.32s69.19-34.67,154.54-34.67S619.06,242.17,619.06,261.32Z"/><path class="cls-10" d="M612.45,264.15c0,17.57-66.23,31.83-147.93,31.83s-147.93-14.26-147.93-31.83,66.23-31.84,147.93-31.84S612.45,246.56,612.45,264.15Z"/><path class="cls-9" d="M510.79,262.74c0,4.28-12.2,7.74-27.26,7.74s-27.26-3.46-27.26-7.74,12.2-7.74,27.26-7.74S510.79,258.47,510.79,262.74Z"/><path class="cls-11" d="M505.06,265.07c0,3-9.63,5.41-21.53,5.41S462,268.06,462,265.07s9.64-5.41,21.53-5.41S505.06,262.08,505.06,265.07Z"/><path class="cls-11" d="M329.07,350.42q1.74,36,4.39,71.89,2.61,34.8,5.74,69.57,3.3,37.32,6.68,74.62,3.92,44,7.51,88.06,4.41,54.35,8.33,108.73c.37,5.08,1,10.08,1.58,15.13.25,2.06,3.37,2.19,3.31,0-.52-19.86-2.48-39.71-4.1-59.52q-2.13-26.16-4.4-52.31-3.92-45.12-8.2-90.21-3.59-37.9-7.26-75.8-3.33-34.89-6.46-69.8-3.13-35.56-5.92-71.16c-.24-3.07-.47-6.13-.7-9.2,0-.32-.52-.33-.5,0Z"/><path class="cls-11" d="M376,802.11a10.5,10.5,0,1,1-10.5-10.49A10.5,10.5,0,0,1,376,802.11Z"/><g class="cls-12"><path class="cls-11" d="M522.6,403.34c8-5.66,16.84-6.45,25.14-4.3,9,2.34,17.46,8.17,23.74,15,8.46,9.22,11.13,20.47,11.83,32.22A79.21,79.21,0,0,1,586,481.74c-1.54,8.86-6.1,18.77-16,20.28-14.77,2.23-25-11.24-24.34-24.77.49-10,3.31-18.22.75-28.38-1.93-7.69-11.31-13.85-17-18.65C520.61,422.74,509,412.89,522.6,403.34Z"/><path class="cls-11" d="M550.54,523.4c0,.11.06-.47.08-.91s0-.86.09-1.27c0,0,0-.05,0-.08a8.72,8.72,0,0,1,2-5.57,9,9,0,0,1,4-3,11,11,0,0,1,4.67-2.88c3.79-1.25,7.48.57,9.86,3.41a7.43,7.43,0,0,1,2.29,1.7,9.65,9.65,0,0,1,.72.84,8.94,8.94,0,0,1,1.52,2.8c0,.12.11.23.15.35s0,.25.07.36l.09.37a8.76,8.76,0,0,1-1.13,6.29c-.15.23-.31.45-.46.65a8.66,8.66,0,0,1-6.75,6.76c-.71.16-1.44.31-2.22.44a11.61,11.61,0,0,1-1.8.71,9.22,9.22,0,0,1-1.06.3h0a6.52,6.52,0,0,1-.79.12c-.27,0-.53.11-.82.14a7.76,7.76,0,0,1-6-2.42,8,8,0,0,1-3.25-3.57,10.09,10.09,0,0,1-1.26-5.09C550.51,523.74,550.53,523.57,550.54,523.4Z"/></g><path class="cls-13" d="M566.24,581.94c0,40.37-45.42,73.1-101.44,73.1s-101.45-32.73-101.45-73.1,45.42-73.08,101.45-73.08S566.24,541.58,566.24,581.94Z"/><path class="cls-11" d="M558.63,575.35c0,40.37-45.41,73.1-101.45,73.1s-101.44-32.73-101.44-73.1,45.41-73.09,101.44-73.09S558.63,535,558.63,575.35Z"/><path class="cls-14" d="M425.44,586a14.41,14.41,0,0,1-1.89,7.59,17.31,17.31,0,0,1-4.78,5.21,20,20,0,0,1-6.3,3,22.51,22.51,0,0,1-13.36-.13,20.37,20.37,0,0,1-6.5-3.26,17.76,17.76,0,0,1-4.82-5.49,15.23,15.23,0,0,1-1.89-7.76,25.37,25.37,0,0,1,.2-3.18,9.8,9.8,0,0,1,.74-2.68,4.46,4.46,0,0,1,1.61-1.86,5.07,5.07,0,0,1,2.8-.7,15.23,15.23,0,0,1,1.69.12c.69.09,1.33.65,1.93,1.7a15.78,15.78,0,0,0-.57,7.22,12.46,12.46,0,0,0,2.3,5.53,11.88,11.88,0,0,0,4.33,3.55,12.26,12.26,0,0,0,5.55,1.28,11.18,11.18,0,0,0,7.54-2.36,8.33,8.33,0,0,0,2.75-6.72,16.87,16.87,0,0,0-1.27-6.64,23.08,23.08,0,0,0-3.34-5.58A39.5,39.5,0,0,0,407.6,570c-1.68-1.49-3.32-2.93-4.94-4.3s-3.13-2.73-4.53-4a16.55,16.55,0,0,1-3.24-4.13c-.23-.38-.51-.87-.87-1.45a20.13,20.13,0,0,1-1.07-1.94,14.12,14.12,0,0,1-.9-2.27,8,8,0,0,1-.37-2.43,10.3,10.3,0,0,1,1.56-5.45,17,17,0,0,1,3.91-4.45,20,20,0,0,1,5.06-3,13.06,13.06,0,0,1,4.94-1.11,15.12,15.12,0,0,1,6.59,1.27,11.65,11.65,0,0,1,4.24,3.38,12.88,12.88,0,0,1,2.26,4.88,24.58,24.58,0,0,1,.66,5.74,29.85,29.85,0,0,1-.16,3,8.65,8.65,0,0,1-.7,2.65,4.36,4.36,0,0,1-1.59,1.86,5.19,5.19,0,0,1-2.86.7,3.42,3.42,0,0,1-1.68-.62,4.75,4.75,0,0,1-1.43-1.2,36.79,36.79,0,0,1,.13-4.62,32.84,32.84,0,0,0,0-5,3.76,3.76,0,0,0-.86-1.76,13.56,13.56,0,0,0-1.9-2,12.85,12.85,0,0,0-2.27-1.57,4.32,4.32,0,0,0-1.9-.62,2.9,2.9,0,0,0-2.27,1.12,9.43,9.43,0,0,0-1.53,2.52,16.92,16.92,0,0,0-.86,2.65,8.67,8.67,0,0,0-.29,1.56,8.91,8.91,0,0,0,1.81,5.53,26.27,26.27,0,0,0,4.56,4.58c1.84,1.46,3.83,3,6,4.55a39.62,39.62,0,0,1,6,5.36,26.7,26.7,0,0,1,4.57,7A22.71,22.71,0,0,1,425.44,586Z"/><path class="cls-14" d="M462,575.71c0,1-.08,2.33-.25,4a44.28,44.28,0,0,1-.91,5.41A42.33,42.33,0,0,1,459,591a21.15,21.15,0,0,1-3.05,5.45,15.64,15.64,0,0,1-4.54,4,12.14,12.14,0,0,1-6.19,1.53,5,5,0,0,0-1.36.2,5.39,5.39,0,0,1-1.53.21,10.35,10.35,0,0,1-5.45-1.4,14,14,0,0,1-4-3.64,19.32,19.32,0,0,1-2.64-5A44.83,44.83,0,0,1,428,581.48c-.13-1.64-.2-3-.2-4.11,0-1.6.07-3.46.2-5.58a49.7,49.7,0,0,1,.86-6.48,41.11,41.11,0,0,1,1.91-6.53,20,20,0,0,1,3.34-5.73,15.21,15.21,0,0,1,12.43-5.57,10.13,10.13,0,0,1,6,1.77,15.07,15.07,0,0,1,4.21,4.55,27.94,27.94,0,0,1,2.77,6.11,48.1,48.1,0,0,1,1.61,6.47c.36,2.1.6,4,.74,5.66S462,574.94,462,575.71Zm-8.67-2.07q-.42-2.39-.79-5.24a44,44,0,0,0-1.11-5.69,30.08,30.08,0,0,0-2.07-5.58,18.22,18.22,0,0,0-3.54-5,3.38,3.38,0,0,0-1.73-.86,5.64,5.64,0,0,0-1.74-.13,8.1,8.1,0,0,0-2.19,3.59,56.14,56.14,0,0,0-2.06,6.52c-.64,2.46-1.14,4.92-1.53,7.39a41.06,41.06,0,0,0-.58,6.2c0,.44,0,1.31.13,2.63s.25,2.88.53,4.63.65,3.61,1.12,5.53a27.71,27.71,0,0,0,1.85,5.36,12.65,12.65,0,0,0,2.85,4.05,5.68,5.68,0,0,0,4,1.57,3.18,3.18,0,0,0,2.31-1,7.83,7.83,0,0,0,1.65-2.51,21.06,21.06,0,0,0,1.11-3.39c.3-1.24.56-2.45.79-3.63s.4-2.26.53-3.22a10.79,10.79,0,0,1,.46-2.11,3.2,3.2,0,0,0-.05-.45c0-.2-.05-.59-.07-1.2s-.05-1.49-.05-2.64S453.24,575.74,453.35,573.64Z"/><path class="cls-14" d="M496.94,597.92a5.62,5.62,0,0,1-.87,2.27,4.83,4.83,0,0,1-1.36,1.32,5.27,5.27,0,0,1-1.53.63,7.66,7.66,0,0,1-1.44.15,8.18,8.18,0,0,1-1.53-.12,1.71,1.71,0,0,1-1-.62,4,4,0,0,1-.71-1.4,18.94,18.94,0,0,1-.53-2.48,33.58,33.58,0,0,1-6.81,3.63,16.46,16.46,0,0,1-5.66,1h-2.23a5.27,5.27,0,0,1-1.73-.28,5.81,5.81,0,0,1-1.69-1,14.26,14.26,0,0,1-2-2.1,9,9,0,0,1-1.6-3,33.27,33.27,0,0,1-.95-3.26c-.28-1.43-.51-3.11-.71-5s-.32-3.8-.41-5.61-.14-3.4-.17-4.75,0-2.16,0-2.44c0-1.31.11-3,.33-5.2a36.93,36.93,0,0,1,1.28-6.48,24.91,24.91,0,0,1,2.68-6.07,9.76,9.76,0,0,1,4.47-4c.82-.39,1.59-.75,2.31-1.07a21.68,21.68,0,0,1,2.19-.87,19.76,19.76,0,0,1,2.47-.62,19.15,19.15,0,0,1,3.26-.24,17.21,17.21,0,0,1,4.62.82,5.93,5.93,0,0,0,.26-2.31c-.07-.94-.14-1.76-.26-2.48s-.13-1.34-.24-2.19-.2-1.68-.29-2.48-.17-1.52-.25-2.18a13.69,13.69,0,0,1-.12-1.41,2,2,0,0,1,.62-1.36,6.27,6.27,0,0,1,1.49-1.23,11.32,11.32,0,0,1,1.76-.91,4.25,4.25,0,0,1,1.5-.38h1a1.27,1.27,0,0,1,1.12.54,9.68,9.68,0,0,0,1,1.2q.4,5.61.91,11.18t.49,11.19Zm-8.26-16.1-.41-21.47a4.41,4.41,0,0,0-1-1.69,17.51,17.51,0,0,0-2.19-2.22,23.1,23.1,0,0,0-2.64-2,4.68,4.68,0,0,0-2.44-.86,3.76,3.76,0,0,0-2.8,1.19,10.86,10.86,0,0,0-2,3,22.5,22.5,0,0,0-1.36,3.89c-.35,1.4-.63,2.71-.83,3.92s-.33,2.65-.44,4.29c.11,3.3.18,5.86.24,7.67s.08,3.18.08,4.09a10.66,10.66,0,0,1-.08,1.7,1.07,1.07,0,0,1-.24.49,18.42,18.42,0,0,1,.36,3.3,28.68,28.68,0,0,0,.29,3.39c.06.33.21.91.45,1.73a20.49,20.49,0,0,0,1,2.57,15.93,15.93,0,0,0,1.36,2.35,2.09,2.09,0,0,0,1.65,1h1.24a4.71,4.71,0,0,0,2.81-1.28,22.82,22.82,0,0,0,2.93-2.89,31.61,31.61,0,0,0,2.35-3.14,7.41,7.41,0,0,0,1.07-2c.11-.6.21-1.27.29-2s.14-1.41.17-2.07.05-1.26.08-1.81S488.68,582.05,488.68,581.82Z"/><path class="cls-14" d="M532.35,568.21c-.11,4.44-.16,7.9-.16,10.35s0,4.27,0,5.45.06,1.91.08,2.19a5.55,5.55,0,0,1,0,.57q-.24,3.15-.24,6.48a14.82,14.82,0,0,1-1.16,6,2,2,0,0,1-.62.67,6.6,6.6,0,0,1-1,.57,7.93,7.93,0,0,1-1.2.38,5.58,5.58,0,0,1-1,.12h-3.79c0-.61.08-1.27.08-2a6.5,6.5,0,0,0-.33-2.07,5.61,5.61,0,0,1-1.9,1.57,17.16,17.16,0,0,1-2.68,1.15,19.7,19.7,0,0,1-2.85.75,14.52,14.52,0,0,1-2.31.25,10.78,10.78,0,0,1-5-1,9.22,9.22,0,0,1-4.86-6.08,13.9,13.9,0,0,1-.5-3.63,19.52,19.52,0,0,1,1.44-7.47,22.83,22.83,0,0,1,4.09-6.48,27.65,27.65,0,0,1,6.48-5.28,38.25,38.25,0,0,1,8.71-3.8,29.1,29.1,0,0,0-.7-4.67,26.12,26.12,0,0,0-1.86-5.49,16.45,16.45,0,0,0-3.06-4.54,5.78,5.78,0,0,0-4.37-1.89,2.83,2.83,0,0,0-1.94.69,11.32,11.32,0,0,0-1.69,2,8.63,8.63,0,0,0-1.24,3,25,25,0,0,0-.45,3.33c-.09,1.16-.15,2.32-.21,3.48a20.39,20.39,0,0,1-.41,3.3,5.92,5.92,0,0,1-2.68,1.32,23.89,23.89,0,0,1-3.1.16,7.72,7.72,0,0,1-1,0,5.09,5.09,0,0,0-.83,0v-7.11a10.72,10.72,0,0,1,1.65-6,14.93,14.93,0,0,1,4.17-4.21,17.67,17.67,0,0,1,5.49-2.47,21.5,21.5,0,0,1,5.54-.79,15.31,15.31,0,0,1,7.59,1.61,11.29,11.29,0,0,1,4.37,4.46,20.34,20.34,0,0,1,2.19,6.73C531.66,562.37,532,565.17,532.35,568.21Zm-8.25,20V573a22.34,22.34,0,0,0-9.37,6.23,13.78,13.78,0,0,0-3.43,9.21c0,.11.06.51.17,1.19a11.9,11.9,0,0,0,.58,2.19,8.9,8.9,0,0,0,1.07,2.11,2,2,0,0,0,1.73.94,1.85,1.85,0,0,0,1-.57,17,17,0,0,0,1.4-1.41l1.48-1.61L520,590a4.79,4.79,0,0,1,2.07-1.25Z"/><path class="cls-14" d="M420.58,612.21a86.24,86.24,0,0,0,17.21,7.42,98.23,98.23,0,0,0,52.61,1.28,120,120,0,0,0,19.35-6.53c1.4-.6.19-2.65-1.2-2a114.71,114.71,0,0,1-33.78,9.15,97.78,97.78,0,0,1-34.16-2.54,139.46,139.46,0,0,1-19.95-6.87c-.09,0-.17.09-.08.14Z"/><path class="cls-11" d="M472.94,46V262.58c0,2.1,5,3.82,11.18,3.82s11.18-1.72,11.18-3.82V46Z"/><path class="cls-15" d="M484.12,266.4c.7,0,1.36,0,2-.07V46h-4V266.33C482.77,266.37,483.44,266.4,484.12,266.4Z"/><path class="cls-15" d="M477,265.49V46h-4V262.58C472.94,263.75,474.52,264.78,477,265.49Z"/><path class="cls-15" d="M491.29,46V265.49c2.43-.71,4-1.74,4-2.91V46Z"/><polygon class="cls-16" points="939.02 521.93 998.91 475.48 1293.9 475.48 1342.18 521.93 939.02 521.93"/><rect class="cls-17" x="1003.93" y="247.31" width="35.14" height="324.91"/><polygon class="cls-18" points="1016.48 561.85 1016.48 257.67 1039.07 257.67 1039.07 247.31 1003.92 247.31 1003.92 572.22 1039.07 572.22 1039.07 561.85 1016.48 561.85"/><polygon class="cls-19" points="1003.92 247.31 993.89 241.14 993.89 547.38 1003.92 572.22 1003.92 247.31"/><polygon class="cls-20" points="993.89 241.14 1003.92 247.31 1039.07 247.31 1024.63 241.14 993.89 241.14"/><path class="cls-8" d="M1030,266s.33,4.24.74,11.63,1,18,1.44,30.68.9,27.5,1.17,43.36c.1,7.93.31,16.13.33,24.46s.09,16.79.13,25.25-.09,16.91-.13,25.25-.22,16.52-.32,24.46c-.27,15.87-.68,30.67-1.17,43.36s-1.12,23.27-1.45,30.67-.74,11.63-.74,11.63-.34-4.22-.74-11.63-1-18-1.45-30.67-.91-27.49-1.17-43.36c-.1-7.94-.32-16.13-.33-24.46s-.08-16.79-.13-25.25.1-16.92.14-25.25.23-16.53.33-24.46c.27-15.86.68-30.68,1.17-43.36s1.11-23.27,1.44-30.68S1030,266,1030,266Z"/><polygon class="cls-20" points="915.42 319.13 926.05 304.01 948.06 298.91 959.43 308.93 915.42 319.13"/><rect class="cls-17" x="951.51" y="309.83" width="45.18" height="324.91" transform="translate(-81.46 232.05) rotate(-13.04)"/><polygon class="cls-18" points="1002.15 615.58 936.27 331.26 963.17 325.04 959.43 308.93 915.42 319.13 988.76 635.65 1032.78 625.46 1029.04 609.35 1002.15 615.58"/><path class="cls-8" d="M955.83,338s1.29,4.05,3.35,11.16,5,17.29,8.33,29.56,7.08,26.59,10.93,42c1.88,7.7,3.94,15.64,5.84,23.74s3.87,16.34,5.83,24.57,3.73,16.51,5.57,24.63,3.52,16.16,5.2,23.9c3.33,15.52,6.28,30,8.66,42.51s4.16,22.92,5.51,30.21,1.9,11.5,1.9,11.5-1.28-4-3.35-11.17-5.05-17.29-8.33-29.55-7.09-26.59-10.93-42c-1.89-7.7-4-15.64-5.84-23.75s-3.87-16.34-5.82-24.57l-5.58-24.63c-1.86-8.11-3.5-16.16-5.19-23.9-3.32-15.52-6.26-30-8.65-42.52s-4.17-22.91-5.52-30.2S955.83,338,955.83,338Z"/><polygon class="cls-20" points="1086.47 217.94 1099.89 205.25 1122.47 204.62 1131.63 216.71 1086.47 217.94"/><rect class="cls-17" x="1090.92" y="217.26" width="45.18" height="324.93" transform="translate(-10 30.68) rotate(-1.57)"/><polygon class="cls-18" points="1112.5 525.73 1104.49 234 1132.08 233.24 1131.63 216.71 1086.47 217.94 1095.39 542.75 1140.55 541.51 1140.1 524.97 1112.5 525.73"/><path class="cls-8" d="M1122.31,244.52s.45,4.22,1.06,11.6,1.51,18,2.29,30.62,1.65,27.47,2.36,43.32c.32,7.93.75,16.12,1,24.44s.55,16.79.82,25.23.38,16.93.57,25.25.22,16.54.34,24.46c.17,15.86.17,30.68,0,43.38s-.48,23.29-.6,30.7-.42,11.65-.42,11.65-.45-4.22-1.06-11.61-1.52-17.94-2.29-30.63-1.66-27.46-2.36-43.3c-.32-7.93-.77-16.12-1-24.45s-.55-16.77-.82-25.23-.38-16.93-.56-25.24-.22-16.53-.34-24.47c-.17-15.86-.17-30.66,0-43.38s.48-23.28.6-30.69S1122.31,244.52,1122.31,244.52Z"/><polygon class="cls-17" points="1014.82 566.9 1049.04 558.9 975 242.53 940.78 250.54 1014.82 566.9"/><polygon class="cls-18" points="1034.45 551.66 965.14 255.49 943.14 260.62 940.78 250.54 975 242.53 1049.04 558.9 1014.82 566.9 1012.46 556.81 1034.45 551.66"/><polygon class="cls-19" points="975 242.53 983.37 234.24 1053.15 532.42 1049.04 558.9 975 242.53"/><polygon class="cls-20" points="983.37 234.24 975 242.53 940.78 250.54 953.43 241.24 983.37 234.24"/><path class="cls-8" d="M953.89,266.62s.64,4.19,1.93,11.49,3.11,17.74,5.59,30.2,5.39,27,8.74,42.49c1.71,7.74,3.37,15.77,5.25,23.88L981,399.31l5.88,24.55c1.89,8.11,4,16,5.88,23.73,3.87,15.4,7.65,29.72,11,42s6.4,22.4,8.41,29.53,3.37,11.16,3.37,11.16-.63-4.2-1.93-11.5-3.1-17.74-5.58-30.2-5.39-27-8.74-42.48c-1.71-7.75-3.36-15.78-5.26-23.89s-3.74-16.36-5.63-24.62L982.57,373c-1.91-8.11-4-16-5.9-23.74-3.88-15.38-7.64-29.71-11-41.95s-6.4-22.41-8.4-29.55S953.89,266.62,953.89,266.62Z"/><polygon class="cls-20" points="1057.16 217.68 1041.47 207.93 1019.22 211.85 1012.66 225.53 1057.16 217.68"/><rect class="cls-17" x="1040.5" y="219.14" width="45.19" height="324.92" transform="translate(-50.12 190.41) rotate(-10)"/><polygon class="cls-18" points="1093.34 524.45 1042.73 237.02 1015.53 241.81 1012.66 225.53 1057.16 217.68 1113.52 537.68 1069.02 545.53 1066.15 529.23 1093.34 524.45"/><path class="cls-8" d="M1027.37,250.9s.4,4.23,1.29,11.59,2.12,17.88,3.9,30.45,3.88,27.24,6.37,42.92c1.27,7.82,2.48,15.93,3.91,24.14s2.83,16.55,4.25,24.89,3,16.65,4.5,24.84,3.1,16.24,4.57,24c3,15.58,6,30.08,8.67,42.5s5.14,22.72,6.75,30,2.74,11.32,2.74,11.32-.4-4.23-1.29-11.58-2.11-17.89-3.89-30.46-3.88-27.24-6.36-42.9c-1.28-7.84-2.48-15.95-3.92-24.16s-2.83-16.54-4.26-24.88l-4.51-24.85c-1.46-8.2-3.09-16.24-4.57-24-3-15.57-6-30.09-8.66-42.5s-5.14-22.72-6.74-30S1027.37,250.9,1027.37,250.9Z"/><polygon class="cls-20" points="1235.46 217.94 1222.04 205.25 1199.46 204.62 1190.3 216.71 1235.46 217.94"/><rect class="cls-17" x="1045.95" y="357.14" width="324.93" height="45.18" transform="translate(795.7 1577.28) rotate(-88.43)"/><polygon class="cls-18" points="1209.43 525.73 1217.44 234 1189.85 233.24 1190.3 216.71 1235.46 217.94 1226.54 542.75 1181.37 541.51 1181.83 524.97 1209.43 525.73"/><path class="cls-8" d="M1199.61,244.52s-.44,4.22-1,11.6-1.5,18-2.28,30.62-1.65,27.47-2.36,43.32c-.32,7.93-.76,16.12-1,24.44s-.55,16.78-.82,25.23-.38,16.93-.57,25.25-.22,16.53-.34,24.46c-.18,15.86-.17,30.68,0,43.38s.48,23.29.61,30.7.42,11.65.42,11.65.46-4.22,1.06-11.61,1.52-17.94,2.29-30.63,1.66-27.46,2.36-43.3c.32-7.93.77-16.12,1-24.45s.55-16.77.82-25.23.38-16.93.56-25.24.23-16.53.35-24.47c.16-15.86.16-30.67,0-43.38s-.48-23.28-.6-30.69S1199.62,244.51,1199.61,244.52Z"/><rect class="cls-17" x="1055.88" y="276.45" width="35.14" height="324.92"/><polygon class="cls-18" points="1068.43 591 1068.43 286.81 1091.02 286.81 1091.02 276.45 1055.88 276.45 1055.88 601.37 1091.02 601.37 1091.02 591 1068.43 591"/><polygon class="cls-19" points="1055.88 276.45 1045.84 270.28 1045.84 576.52 1055.88 601.37 1055.88 276.45"/><polygon class="cls-20" points="1045.84 270.28 1055.88 276.45 1091.02 276.45 1076.59 270.28 1045.84 270.28"/><path class="cls-8" d="M1081.93,295.09s.33,4.24.73,11.64,1,18,1.45,30.67.9,27.5,1.17,43.37c.09,7.92.31,16.12.33,24.45s.09,16.79.13,25.25-.09,16.92-.13,25.26-.23,16.52-.33,24.45c-.26,15.87-.67,30.68-1.16,43.37s-1.13,23.27-1.45,30.66-.74,11.64-.74,11.64-.34-4.23-.75-11.64-1-18-1.45-30.66-.9-27.5-1.17-43.37c-.09-7.93-.32-16.12-.32-24.45s-.08-16.79-.13-25.26.09-16.92.13-25.25.24-16.53.33-24.45c.27-15.87.68-30.68,1.17-43.37s1.12-23.27,1.44-30.67S1081.93,295.09,1081.93,295.09Z"/><polygon class="cls-20" points="979.52 354.79 991.65 340.84 1014.06 338.03 1024.36 349.17 979.52 354.79"/><polygon class="cls-17" points="1064.7 671.58 1019.87 677.19 979.52 354.79 1024.36 349.17 1064.7 671.58"/><polygon class="cls-18" points="1035.25 658.6 999.01 369 1026.41 365.58 1024.36 349.17 979.52 354.79 1019.87 677.19 1064.7 671.58 1062.64 655.17 1035.25 658.6"/><path class="cls-8" d="M1017.77,377.75s.86,4.16,2.18,11.46,3.24,17.72,5.24,30.25,4.3,27.17,6.55,42.88c1.07,7.86,2.31,16,3.36,24.23s2.17,16.65,3.26,25.05,2,16.79,3,25.07,1.83,16.42,2.72,24.3c1.7,15.77,3.14,30.51,4.22,43.18s1.78,23.22,2.37,30.6.71,11.64.71,11.64-.86-4.16-2.18-11.45-3.25-17.71-5.24-30.25-4.32-27.18-6.55-42.89c-1.09-7.86-2.32-16-3.36-24.23s-2.17-16.64-3.26-25-2-16.8-3-25.06-1.82-16.43-2.71-24.32c-1.7-15.77-3.14-30.52-4.22-43.17s-1.78-23.23-2.38-30.61S1017.77,377.75,1017.77,377.75Z"/><rect class="cls-17" x="1160.51" y="426.02" width="324.93" height="35.14" transform="translate(433.37 1518.59) rotate(-68.93)"/><polygon class="cls-18" points="1263.63 583.72 1372.95 299.85 1394.04 307.97 1397.76 298.3 1364.97 285.66 1248.19 588.88 1280.98 601.51 1284.71 591.84 1263.63 583.72"/><polygon class="cls-19" points="1364.97 285.66 1357.82 276.31 1247.75 562.08 1248.19 588.88 1364.97 285.66"/><polygon class="cls-20" points="1357.82 276.31 1364.97 285.66 1397.76 298.3 1386.51 287.36 1357.82 276.31"/><path class="cls-8" d="M1382.57,312.43s-1.21,4.07-3.5,11.13-5.51,17.14-9.67,29.14-9.05,26-14.5,40.87c-2.75,7.45-5.5,15.17-8.48,22.95l-9,23.61-9.19,23.52c-3,7.77-6.16,15.35-9.1,22.71-6,14.7-11.65,28.38-16.67,40s-9.41,21.31-12.38,28.11-4.87,10.59-4.88,10.59,1.21-4.07,3.49-11.13,5.51-17.15,9.68-29.14,9-26,14.49-40.89c2.76-7.44,5.5-15.16,8.49-22.94s5.95-15.7,8.95-23.6l9.2-23.52c3-7.77,6.15-15.35,9.1-22.71,5.95-14.7,11.66-28.38,16.67-40.05s9.41-21.31,12.38-28.1S1382.56,312.43,1382.57,312.43Z"/><polygon class="cls-20" points="1264.88 247.65 1280.58 237.89 1302.83 241.8 1309.38 255.48 1264.88 247.65"/><polygon class="cls-17" points="1253.03 575.48 1208.54 567.64 1264.88 247.65 1309.38 255.48 1253.03 575.48"/><polygon class="cls-18" points="1228.71 554.4 1279.33 266.98 1306.52 271.77 1309.38 255.48 1264.88 247.65 1208.54 567.64 1253.03 575.48 1255.9 559.19 1228.71 554.4"/><path class="cls-8" d="M1294.68,280.86s-.41,4.22-1.29,11.59-2.12,17.88-3.9,30.46-3.88,27.24-6.37,42.9c-1.27,7.82-2.48,15.94-3.91,24.15s-2.83,16.55-4.25,24.88l-4.51,24.85c-1.45,8.2-3.09,16.24-4.56,24-3,15.57-6,30.08-8.67,42.5s-5.15,22.71-6.74,29.95-2.76,11.34-2.76,11.34.4-4.23,1.29-11.6,2.11-17.88,3.89-30.45,3.88-27.24,6.37-42.91c1.28-7.83,2.48-15.94,3.93-24.15s2.82-16.54,4.25-24.88,3-16.65,4.5-24.85,3.1-16.24,4.57-24c3-15.58,6-30.09,8.67-42.51s5.14-22.71,6.74-29.95S1294.68,280.86,1294.68,280.86Z"/><polygon class="cls-20" points="1138.42 240.83 1151.84 228.13 1174.42 227.51 1183.59 239.59 1138.42 240.83"/><rect class="cls-17" x="1142.88" y="240.14" width="45.18" height="324.92" transform="translate(-10.66 32.29) rotate(-1.58)"/><polygon class="cls-18" points="1164.46 548.61 1156.44 256.87 1184.04 256.12 1183.59 239.59 1138.42 240.83 1147.35 565.63 1192.51 564.38 1192.06 547.86 1164.46 548.61"/><path class="cls-8" d="M1174.27,267.4s.45,4.22,1,11.61,1.51,17.94,2.29,30.62,1.65,27.46,2.36,43.32c.32,7.92.76,16.11,1,24.43s.56,16.78.83,25.24.37,16.92.57,25.24.22,16.53.34,24.47c.17,15.85.17,30.67,0,43.37s-.48,23.29-.6,30.7-.42,11.65-.42,11.65-.46-4.22-1.07-11.61-1.51-17.94-2.28-30.61-1.67-27.47-2.37-43.32c-.31-7.92-.77-16.11-1-24.44s-.54-16.79-.81-25.24-.38-16.91-.57-25.25-.22-16.52-.34-24.45c-.16-15.87-.16-30.68,0-43.38s.48-23.29.6-30.7S1174.27,267.4,1174.27,267.4Z"/><rect class="cls-17" x="1069.44" y="450.75" width="324.92" height="35.14" transform="translate(610.92 1630.78) rotate(-82.7)"/><polygon class="cls-18" points="1217.57 619.83 1256.19 318.1 1233.79 315.24 1235.1 304.95 1269.96 309.41 1228.7 631.7 1193.84 627.24 1195.16 616.96 1217.57 619.83"/><polygon class="cls-19" points="1269.96 309.41 1280.7 304.57 1241.82 608.33 1228.7 631.7 1269.96 309.41"/><polygon class="cls-20" points="1280.7 304.57 1269.96 309.41 1235.1 304.95 1250.2 300.67 1280.7 304.57"/><path class="cls-8" d="M1241.76,324.6s-.87,4.16-2.21,11.45-3.29,17.7-5.33,30.24-4.38,27.16-6.66,42.86c-1.11,7.86-2.36,16-3.44,24.22s-2.21,16.64-3.33,25-2.06,16.79-3.09,25-1.87,16.42-2.77,24.31c-1.76,15.76-3.23,30.5-4.35,43.16s-1.84,23.22-2.46,30.6-.74,11.64-.74,11.64.87-4.15,2.22-11.45,3.29-17.7,5.33-30.24,4.38-27.16,6.66-42.86c1.11-7.86,2.37-16,3.43-24.22s2.22-16.65,3.33-25,2.06-16.79,3.08-25.07,1.87-16.41,2.77-24.29c1.75-15.78,3.23-30.51,4.36-43.16s1.84-23.22,2.45-30.61S1241.76,324.6,1241.76,324.6Z"/><polygon class="cls-20" points="1345.17 317.09 1333.04 303.15 1310.63 300.34 1300.34 311.48 1345.17 317.09"/><rect class="cls-17" x="1140.13" y="452.89" width="324.91" height="45.18" transform="translate(668.89 1708.87) rotate(-82.86)"/><polygon class="cls-18" points="1289.44 620.91 1325.68 331.31 1298.28 327.89 1300.34 311.48 1345.17 317.09 1304.83 639.49 1259.99 633.88 1262.05 617.48 1289.44 620.91"/><path class="cls-8" d="M1306.92,340.06s-.86,4.15-2.17,11.45-3.24,17.72-5.24,30.26-4.31,27.17-6.55,42.88c-1.08,7.86-2.31,16-3.36,24.23s-2.18,16.65-3.27,25-2,16.79-3,25.07-1.83,16.43-2.71,24.3c-1.71,15.78-3.14,30.52-4.23,43.17s-1.77,23.24-2.37,30.62-.71,11.64-.71,11.64.86-4.16,2.18-11.46,3.25-17.71,5.25-30.24,4.31-27.18,6.55-42.89c1.08-7.86,2.32-16,3.36-24.23s2.17-16.66,3.26-25,2-16.79,3-25.07,1.82-16.43,2.71-24.31c1.7-15.77,3.14-30.52,4.22-43.18s1.78-23.22,2.38-30.6S1306.92,340.06,1306.92,340.06Z"/><rect class="cls-17" x="1032.04" y="248.37" width="35.14" height="324.93" transform="translate(-52.61 175.1) rotate(-9.3)"/><polygon class="cls-18" points="1079.15 560.12 1029.98 259.94 1007.69 263.58 1006.01 253.35 1040.69 247.66 1093.21 568.32 1058.53 574 1056.86 563.77 1079.15 560.12"/><polygon class="cls-19" points="1040.69 247.66 1049.6 239.97 1099.1 542.18 1093.21 568.32 1040.69 247.66"/><polygon class="cls-20" points="1049.6 239.97 1040.69 247.66 1006.01 253.35 1019.25 244.93 1049.6 239.97"/><path class="cls-8" d="M1018,270.28s.35,4.23,1.15,11.6,1.9,17.92,3.53,30.51,3.56,27.28,5.85,43c1.19,7.85,2.31,16,3.64,24.19s2.62,16.58,4,24.94l4.21,24.9c1.34,8.22,2.89,16.27,4.26,24.08,2.84,15.61,5.63,30.16,8.17,42.6s4.87,22.78,6.39,30,2.61,11.35,2.61,11.35-.35-4.22-1.14-11.59-1.9-17.92-3.54-30.51-3.55-27.28-5.85-43c-1.18-7.84-2.29-16-3.63-24.19s-2.63-16.58-4-24.94l-4.21-24.89c-1.36-8.23-2.9-16.27-4.28-24.09-2.83-15.61-5.63-30.15-8.16-42.61s-4.87-22.77-6.39-30S1018,270.28,1018,270.28Z"/><polygon class="cls-20" points="1129.35 291.45 1115.08 279.7 1092.51 280.64 1084.21 293.33 1129.35 291.45"/><rect class="cls-17" x="1090.92" y="292.25" width="45.18" height="324.92" transform="translate(-17.82 46.35) rotate(-2.37)"/><polygon class="cls-18" points="1124.57 600.3 1112.48 308.7 1084.89 309.85 1084.21 293.33 1129.35 291.45 1142.82 616.1 1097.67 617.96 1096.99 601.43 1124.57 600.3"/><path class="cls-8" d="M1095.42,320.43s-.16,4.24-.26,11.65-.26,18-.17,30.7.24,27.52.63,43.38c.23,7.93.36,16.13.68,24.45s.61,16.78.92,25.24.79,16.9,1.17,25.22.92,16.51,1.34,24.42c.92,15.84,2,30.63,3,43.28s2.09,23.21,2.71,30.59,1.22,11.58,1.23,11.59.16-4.24.26-11.66.27-18,.17-30.7-.23-27.52-.62-43.37c-.23-7.93-.35-16.13-.69-24.45s-.61-16.78-.92-25.24-.79-16.91-1.18-25.23-.91-16.49-1.34-24.41c-.94-15.85-2-30.62-3-43.29s-2.08-23.2-2.71-30.58S1095.42,320.43,1095.42,320.43Z"/><polygon class="cls-21" points="1141.75 521.93 1139.45 521.93 939.02 521.93 996.79 858.27 1139.45 858.27 1141.75 858.27 1284.41 858.27 1342.18 521.93 1141.75 521.93"/><polygon class="cls-21" points="1141.75 521.93 1139.45 521.93 939.02 521.93 996.79 858.27 1139.45 858.27 1141.75 858.27 1284.41 858.27 1342.18 521.93 1141.75 521.93"/><path class="cls-22" d="M1211.88,591.19c-12.24,3.66-23.79,8.86-33.74,16.77-14.5,11.51-23.39,27.8-27.18,45.8-4.11,19.52-4.92,40.35.61,59.68,7.15,25,24.07,44,48.63,52.85,16.52,6,34.16,9.3,51.6,11.09a230.53,230.53,0,0,0,41.24.92l43-178.92Z"/><path class="cls-23" d="M1249.11,841.67a439.27,439.27,0,0,1-94.06-6.82c-30.93-5.72-61.61-15.23-84.87-37.51-28.32-27.12-42.78-65.29-46-103.89-3.24-38.81.94-82.74,22.79-116.06,17.55-26.79,42.91-43.72,71.4-55.46H939l57.77,336.34h287.63l3.43-20A343,343,0,0,1,1249.11,841.67Z"/><path class="cls-23" d="M1040.37,839.87c-33.89-31.21-48.07-76.92-55.52-121.16-7.08-42-8.48-84.7,4.54-125.79,8.39-26.53,21.79-51.17,40.59-71H939l57.77,336.34h68.76A142.24,142.24,0,0,1,1040.37,839.87Z"/><path class="cls-11" d="M1245.7,803.42l0,0-.19-.16Z"/><path class="cls-11" d="M1300.87,558.18c-1-2.68-4.94-2.46-5.81.18-5.63,17.12-6.47,36.57-9.88,54.21-5.75,29.71-12,59.37-18.52,89-5.59,25.54-11.41,51.09-18.5,76.32-1.73,6.14-6.37,14.41-5.14,20.76a8.85,8.85,0,0,0,2.63,4.75c.45.35.86.65,1.08.8,12.08,7.37,16.78-19.62,18.17-24.91,6.77-25.8,12.06-51.94,17.29-78,5.93-29.63,11.15-59.3,15.39-89.17C1299.81,596.34,1306.46,573.72,1300.87,558.18Z"/><path class="cls-11" d="M1245.46,803.21c-3.27-2.72-1.53-1.2,0,0Z"/><path class="cls-11" d="M1244.27,817.42l-.38-.16c2.16,1.46,2,1.31-.62-.42a11.12,11.12,0,0,0-8-.67c-4.57,1.3-6.56,4.88-7,9a1.92,1.92,0,0,1,0,.22c-.4,4,3.7,8,7.7,8.83a15.19,15.19,0,0,0,3.86.32c4.39-.34,8.21-2.87,9.29-6.95C1250.08,823.85,1248.25,819.06,1244.27,817.42Z"/><path class="cls-24" d="M1074.23,885c-53,64.66-123.68,92.37-306.45,92.37s-273.23-40.08-299.9-83.14c-18.58-30-15.17-67,1.82-82.68,56.54-52.23,170.34-68.06,303.05-68.06,136.67,0,231.69,15.08,295.26,66.19C1083.82,822.42,1082.32,875.14,1074.23,885Z"/><path class="cls-25" d="M926.25,930.1C860.39,942.6,793.73,947,726.84,945.18c-30.6-.82-89.85-8.81-111.44,20.32,41.35,7.46,91.76,11.89,152.38,11.89,182.77,0,253.47-27.71,306.45-92.37,6.6-8.06,8.82-44.61.81-64.72C1053.31,889.67,996,916.88,926.25,930.1Z"/><path class="cls-26" d="M1068,822.68c0,43.72-132.19,79.16-295.26,79.16S477.49,866.4,477.49,822.68s132.2-79.17,295.26-79.17S1068,779,1068,822.68Z"/><path class="cls-27" d="M1070.65,778.4c0,50.64-137.59,101.72-310.7,101.72s-310.69-47-310.69-97.64c0-13.88,13.28-60.07,29.37-75.77,53.56-52.23,161.34-68.06,287-68.06,129.44,0,219.46,15.08,279.66,66.19C1060.31,717.56,1070.65,765.63,1070.65,778.4Z"/><path class="cls-28" d="M458.06,744.86c-5.41,15.39-8.8,30.61-8.8,37.62,0,50.64,137.59,97.64,310.69,97.64s310.7-51.08,310.7-101.72c0-5.94-2.26-19.47-6.13-33.54,0,0-19.65,55.9-26.76,56.41-3.32.23-30.15-4.62-34.84-4.28-4.93.35-17.75,28.58-24,29-7,.49-16.9-14.12-25.47-13.53-12.86.9-1.95,32.25-17.7,33.32-12.43.85-6.85-12.81-20.7-11.88-9.43.65-16.08-22.08-26-21.44-4,.28-17.09,43.94-21.15,44.21-17.74,1.18-16.27-27.33-41.52,4.95-3.3,4.23-20.6-10.83-24-6.92-6.88,8-15.28,2.5-22.26,7.9-5.88,4.58-15.68-32.75-21.28-28.6-7,5.19-8.9,20.3-15.64,24.65s-16.74-13.88-23.09-10.89c-8.75,4.15-11.67,13.4-19.25,13.86-10.37.64-16.41-34.27-26.71-33.65-3.91.24-1.29,22.13-14.13,30.68-10.18,6.8-9.16-59.47-18.78-52.84-5.94,4.09-11,36.65-16.2,40-8.94,5.77-10.82-22.95-14.1-22.75-6.58.38-17.33,28.32-23.83,28.69-13.73.78,6.53-51.57-6.61-50.88-7.59.42-23.51,36.65-30.83,37-9.68.49,2.29-25.84-6.86-25.41-3.72.19-15.35,20.29-19,20.46-6.43.3-8.64-26-14.76-25.74s-10.17,5.07-15.94,5.28c-6.7.28-1-32.89-7.12-32.69-12.38.41-7.18,14.07-17.09,14.07C465,793.86,458.06,744.86,458.06,744.86Z"/><path class="cls-29" d="M1045.33,717.82c0,43.72-125.2,79.17-279.66,79.17S486,761.54,486,717.82s125.2-79.17,279.66-79.17S1045.33,674.09,1045.33,717.82Z"/><path class="cls-27" d="M1022.52,713.2c0,36.78-105.31,66.58-235.21,66.58S552.1,750,552.1,713.2s105.3-66.59,235.21-66.59S1022.52,676.43,1022.52,713.2Z"/><path class="cls-28" d="M642,750.72a6.17,6.17,0,1,1-6.17-6.52A6.34,6.34,0,0,1,642,750.72Z"/><path class="cls-28" d="M688.41,763.25c0,6.92-5.32,12.53-11.87,12.53s-11.88-5.61-11.88-12.53,5.33-12.53,11.88-12.53S688.41,756.33,688.41,763.25Z"/><path class="cls-28" d="M664.66,740.25a3.47,3.47,0,1,1-3.43-4A3.72,3.72,0,0,1,664.66,740.25Z"/><path class="cls-28" d="M729.66,746.76c0,5.77-5.17,10.46-11.57,10.46s-11.56-4.69-11.56-10.46,5.18-10.47,11.56-10.47S729.66,741,729.66,746.76Z"/><path class="cls-28" d="M738.41,779.79c0,2.21-4.55,4-10.16,4s-10.16-1.8-10.16-4,4.55-4,10.16-4S738.41,777.57,738.41,779.79Z"/><path class="cls-28" d="M787.16,773.52c0,5.68-6.69,10.28-14.95,10.28s-14.93-4.6-14.93-10.28,6.69-10.27,14.93-10.27S787.16,767.86,787.16,773.52Z"/><path class="cls-28" d="M787.16,743.51c0,4-3.61,7.21-8.07,7.21s-8-3.24-8-7.21,3.6-7.22,8-7.22S787.16,739.52,787.16,743.51Z"/><path class="cls-28" d="M830.16,768.39c0,2.83-3.3,5.13-7.38,5.13s-7.38-2.3-7.38-5.13,3.3-5.14,7.38-5.14S830.16,765.55,830.16,768.39Z"/><path class="cls-28" d="M820.74,747.11c0,2-3.24,3.61-7.2,3.61s-7.19-1.62-7.19-3.61,3.22-3.6,7.19-3.6S820.74,745.12,820.74,747.11Z"/><path class="cls-28" d="M580.5,736.6a7.3,7.3,0,1,1-7.29-6.91A7.12,7.12,0,0,1,580.5,736.6Z"/><path class="cls-28" d="M616,723.75c0,3.28-2.25,5.94-5,5.94s-5-2.66-5-5.94,2.24-5.93,5-5.93S616,720.47,616,723.75Z"/><path class="cls-28" d="M616,760.24c0,1.66-3.37,3-7.53,3s-7.52-1.35-7.52-3,3.38-3,7.52-3S616,758.58,616,760.24Z"/><path class="cls-28" d="M857.15,760.24c0,1.66-2.86,3-6.35,3s-6.37-1.35-6.37-3,2.84-3,6.37-3S857.15,758.58,857.15,760.24Z"/><path class="cls-28" d="M806.35,779.79a4,4,0,1,1-4-4A4,4,0,0,1,806.35,779.79Z"/><path class="cls-30" d="M694.51,721.63c-8.5,30.92-70.07,41-137.52,22.43s-115.22-58.64-106.72-89.57c1-3.44,7.69-28,7.69-28s69.9-10.9,129.81,5.57c62,17,114.43,61.56,114.43,61.56S695.19,719.14,694.51,721.63Z"/><path class="cls-31" d="M702.2,693.64c-8.51,30.92-70.07,41-137.51,22.42S449.47,657.43,458,626.51s70.07-41,137.51-22.42S710.69,662.73,702.2,693.64Z"/><path class="cls-32" d="M688.81,686.21c-.36,4.92-3.74,14.38-11.38,15.26s-79.74-45.75-80.49-45.14c-1.53,1.22,73.41,43.45,72.42,50.18s-29.23,13.84-40.82,10.33-37.09-54.66-37.09-54.66,15.85,47.23,11.1,52.15-23.38.28-36.46-3.32c-9.21-2.53-19.92-4-23.57-11.65s38.22-41.63,36.76-42.24c-2.92-1.25-36.62,36-46.89,37.19s-36.58-11-36.43-21.6,72.5-25,71.31-26.07c-2.32-2.18-69.9,18.49-80.61,17.87s-22.46-31-17.68-35,91.09,13.77,92.66,11.45c.8-1.2-82-17.16-86.47-22.37s37.27-18.33,43.92-17.16,47.27,31.76,49.35,31.64-38.4-28.72-36.71-32.39,50.13.36,54.71,5.16-1.13,29.3-1.13,29.3,8.59-25.35,12.66-25.52c7.65-.31,39.5,11.41,37.8,15.16s-36.69,14.33-35.32,15c2.67,1.4,40.13-9.93,47.25-8.65s37.95,24.48,34.83,28.81-79.18-12-78.46-11c1.4,2.08,74.38,13.13,79.37,16.78S689.65,674.26,688.81,686.21Z"/><path class="cls-30" d="M1082.71,646.61c11.32,30-32.56,74.33-98,99S857.06,766,845.72,736c-1.25-3.33-10.24-27.16-10.24-27.16s50.1-49.93,108.24-71.86c60.15-22.71,128.73-17.56,128.73-17.56Z"/><path class="cls-31" d="M1072.45,619.45c11.33,30-32.55,74.34-98,99s-127.67,20.4-139-9.61,32.55-74.34,98-99S1061.14,589.45,1072.45,619.45Z"/><path class="cls-32" d="M1057.25,621.31c2.62,4.2,5.44,13.84-.21,19s-91.39,9.94-91.65,10.86c-.5,1.9,84.94-8.06,88.09-2s-15.5,28.38-26.93,32.37-62.16-22.37-62.16-22.37S1005,688,1004.06,694.79s-18.75,14-31.45,18.79c-8.91,3.38-18.43,8.5-25.9,4.44s6.42-56.13,4.87-55.78c-3.09.71-8.41,50.68-16,57.66s-36.06,12.6-42.17,4,44-62.83,42.32-63c-3.15-.4-45.64,56.09-54.66,61.88s-36.39-11.83-34.87-17.87,81.75-42.46,81.65-45.27c-.05-1.43-76.39,34.39-83.07,32.81s19.34-36.76,25.41-39.72,56.91-2.14,58.51-3.45-47.94-.64-48.72-4.6,40.74-29.2,47.26-28S943.54,641,943.54,641s-8-25.55-4.77-28.08c6-4.76,38.64-14,39.47-10S957,636.05,958.53,635.81c3-.43,26.6-31.63,33.11-34.79s45.08-2.54,45.12,2.81-71.09,36.86-69.88,37.3c2.36.86,67.87-33.14,74.05-33.14S1050.91,611.15,1057.25,621.31Z"/><path class="cls-30" d="M893.36,735.79c0,32.08-56.7,58.07-126.64,58.07s-126.65-26-126.65-58.07v-29s64.5-29,126.65-29c64.28,0,126.64,29,126.64,29Z"/><path class="cls-31" d="M893.36,706.78c0,32.06-56.7,58.06-126.64,58.06s-126.65-26-126.65-58.06,56.7-58.07,126.65-58.07S893.36,674.71,893.36,706.78Z"/><path class="cls-32" d="M878.48,703.14c.95,4.86.2,14.87-6.93,17.75s-89-23-89.57-22.2c-1.15,1.59,82.31,22.44,83.14,29.19S840.6,749,828.49,748.67s-50.27-42.87-50.27-42.87,27.84,41.33,24.54,47.32-22.48,6.48-36,6.48c-9.54,0-20.26,1.43-25.81-5s25.83-50.26,24.25-50.48c-3.14-.42-25.77,44.45-35.35,48.28s-38.2-.92-40.86-11.17,63.3-43.27,61.86-44c-2.82-1.49-62.51,36.35-73,38.58s-29.87-23.9-26.31-29,91.47-10.87,92.38-13.54c.46-1.35-83.62,5.2-89.32,1.38s31.09-27.57,37.81-28.21,54,18.1,56,17.44-44.63-17.52-44-21.5,48.42-12.94,54.1-9.54,6.69,28.57,6.69,28.57,1.56-26.74,5.44-28c7.3-2.32,41.11.53,40.47,4.6S779.5,681.54,781,681.87c2.94.63,36.07-20.21,43.26-20.87s43.08,13.54,41.22,18.55-79.53,9.39-78.54,10.23c1.89,1.64,75.19-7,81-4.87S876.14,691.4,878.48,703.14Z"/><path class="cls-33" d="M517.82,504s-136.23,60.61-120.06,77.5,92.7,39.17,165.29,78.17,163,98.39,177.84,99.7S838.6,573.14,838.6,573.14Z"/><path class="cls-34" d="M517.82,504S411,553.36,427.13,570.24s68.61,31.38,141.2,70.38S717.08,737,731.89,738.26,818.52,568.8,818.52,568.8Z"/><g class="cls-35"><path class="cls-11" d="M645,696s10.42,5.29,25.66,13.65l26,14.2,14.71,7.75c5,2.58,10.19,5,15.31,7.1a32,32,0,0,0,7.25,2.2c.14,0,.66.06.49.08a4.34,4.34,0,0,0,.76-.07,7.3,7.3,0,0,0,1.08-.34,14.71,14.71,0,0,0,2.86-1.74c4-3,7.53-7.28,10.72-11.44s6.21-8.45,8.9-12.58,5.25-8.07,7.51-11.77c4.55-7.37,8.27-13.6,10.87-18l4.1-6.87s-.91,2.77-2.73,7.54-4.59,11.51-8.37,19.42c-1.9,3.94-4,8.22-6.44,12.62s-5.1,9.05-8.29,13.63-6.62,9.28-11.63,13.42a21.36,21.36,0,0,1-4.44,2.76,13.2,13.2,0,0,1-3,.93,11,11,0,0,1-1.39.15,13.81,13.81,0,0,1-1.66-.08,37.55,37.55,0,0,1-9.42-2.56,153.29,153.29,0,0,1-16-7.63c-5.11-2.69-10-5.6-14.66-8.43s-9.13-5.67-13.3-8.44-8.1-5.41-11.66-7.94C653.92,703.6,645,696,645,696Z"/></g><g class="cls-35"><path class="cls-11" d="M410.53,570.24a3.29,3.29,0,0,0,0,1.12,5.55,5.55,0,0,0,1.45,2.57c1.72,2,4.93,4.09,8.9,6.45s8.8,4.86,14,7.55l16.34,8.33,8.3,4.3c2.75,1.4,5.39,2.91,8,4.28,5.2,2.77,10,5.46,14.1,7.87,8.2,4.75,13.49,8.43,13.49,8.43a131.38,131.38,0,0,1-15.37-4.29c-4.52-1.48-9.73-3.41-15.22-5.72-2.72-1.18-5.58-2.33-8.4-3.68s-5.68-2.71-8.52-4.15l-8.33-4.55c-2.75-1.51-5.34-3.21-7.88-4.81A100,100,0,0,1,418.19,584c-3.62-3.26-6.35-6.49-7.54-9.27a5.79,5.79,0,0,1-.55-3.41A3.27,3.27,0,0,1,410.53,570.24Z"/></g><g class="cls-35"><path class="cls-11" d="M438.62,562.57a4.76,4.76,0,0,0,0,.74,4.21,4.21,0,0,0,1.09,1.76,33,33,0,0,0,6.53,4.75c6,3.6,15.05,8,25.94,13.27l37.42,17.52c6.83,3.25,13.95,6.48,21.1,10l21.7,10.49,21.55,10.85c7.11,3.58,14,7.34,20.68,10.92,13.34,7.23,25.62,14.37,35.84,21a185.64,185.64,0,0,1,23.71,17.51,51,51,0,0,1,5.75,5.94c1.21,1.48,1.76,2.33,1.76,2.33s-.67-.76-2.07-2a65.06,65.06,0,0,0-6.43-5,264.45,264.45,0,0,0-25-14.82c-10.63-5.68-23.21-12-36.74-18.72l-42.52-20.86-21.56-10.73c-7.13-3.51-14.06-7.15-20.81-10.58-13.47-7-25.94-13.65-36.46-19.76s-19.09-11.57-24.72-16a29.83,29.83,0,0,1-6-5.78,4.15,4.15,0,0,1-.86-2A4,4,0,0,1,438.62,562.57Z"/></g><path class="cls-33" d="M1023.38,512s136.23,60.62,120.05,77.49-92.71,39.18-165.28,78.18-163,98.38-177.84,99.7-97.73-186.25-97.73-186.25Z"/><path class="cls-34" d="M1023.38,512s106.86,49.36,90.68,66.24-68.61,31.36-141.19,70.37S824.12,744.9,809.31,746.22s-86.63-169.46-86.63-169.46Z"/><g class="cls-35"><path class="cls-11" d="M896.19,704s-8.91,7.56-23.22,17.58c-3.55,2.54-7.46,5.21-11.65,7.94S852.71,735.16,848,738s-9.54,5.74-14.66,8.43a151.39,151.39,0,0,1-16,7.63,38.21,38.21,0,0,1-9.41,2.56,14.45,14.45,0,0,1-1.66.07,9.44,9.44,0,0,1-1.4-.15,13.11,13.11,0,0,1-3-.93,21.36,21.36,0,0,1-4.44-2.76c-5-4.14-8.39-8.86-11.63-13.42s-5.82-9.23-8.29-13.63-4.54-8.68-6.44-12.62c-3.77-7.91-6.53-14.66-8.37-19.42s-2.73-7.54-2.73-7.54l4.1,6.87c2.6,4.37,6.32,10.6,10.87,18,2.26,3.7,4.83,7.63,7.51,11.77s5.72,8.35,8.9,12.58,6.78,8.43,10.73,11.44a14.37,14.37,0,0,0,2.85,1.74,7,7,0,0,0,1.09.34,2.67,2.67,0,0,0,.75.07c-.16,0,.35-.06.5-.08a32.16,32.16,0,0,0,7.24-2.19c5.12-2.08,10.3-4.52,15.3-7.11l14.72-7.74c9.51-5.2,18.4-10.05,26-14.2C885.77,709.28,896.19,704,896.19,704Z"/></g><g class="cls-35"><path class="cls-11" d="M1130.66,578.21a3.38,3.38,0,0,1,.44,1.09,5.82,5.82,0,0,1-.55,3.42c-1.2,2.77-3.92,6-7.54,9.27a101.75,101.75,0,0,1-13.19,9.92c-2.53,1.59-5.12,3.3-7.88,4.8s-5.54,3-8.33,4.55-5.68,2.85-8.52,4.16-5.67,2.49-8.4,3.67c-5.48,2.31-10.69,4.24-15.22,5.73a133.47,133.47,0,0,1-15.36,4.29s5.28-3.69,13.49-8.43c4.08-2.42,8.9-5.1,14.09-7.88,2.61-1.37,5.26-2.88,8-4.27l8.29-4.3,16.34-8.33c5.18-2.69,10-5.23,14-7.55s7.17-4.5,8.9-6.45a5.79,5.79,0,0,0,1.45-2.57A3.1,3.1,0,0,0,1130.66,578.21Z"/></g><g class="cls-35"><path class="cls-11" d="M1102.57,570.53a5.57,5.57,0,0,1,.13.73,4.24,4.24,0,0,1-.86,2,29.56,29.56,0,0,1-6,5.78c-5.63,4.41-14.2,9.91-24.72,16s-23,12.81-36.46,19.76c-6.75,3.44-13.68,7.08-20.81,10.59l-21.56,10.72L949.81,657c-13.53,6.7-26.11,13-36.75,18.72a267.07,267.07,0,0,0-25,14.82,66.13,66.13,0,0,0-6.42,5,27.5,27.5,0,0,0-2.07,2s.55-.85,1.76-2.33a50.94,50.94,0,0,1,5.75-6,186.38,186.38,0,0,1,23.7-17.51c10.23-6.62,22.5-13.76,35.85-21,6.68-3.58,13.56-7.34,20.68-10.91L988.82,629l21.7-10.49c7.15-3.48,14.27-6.72,21.1-10L1069,591.05c10.89-5.22,19.92-9.67,25.94-13.27a32.55,32.55,0,0,0,6.52-4.75,4.11,4.11,0,0,0,1.09-1.76A6.08,6.08,0,0,0,1102.57,570.53Z"/></g><path class="cls-36" d="M1028.46,513.3c15.45,3.91,30.7,8.43,45.85,12.81,14.48,4.2,32,5.26,41.35,19.13,9.13,13.49,2.89,32.35-13.23,35.4-8.15,1.55-13.61-1.69-20.85-3-13.39-2.47-10.58,3-13.38,12.42-3.77,12.7-6.14,6-15.25,4.58-9.29-1.45-10.8,4.06-12.16,13.22-2.77,18.64,1.55,35.53-23.87,29.53-8.46-2-16.44-7.41-24.74-1.84-7.58,5.06-5.09,11.56-7.58,18.75-2.85,8.18-9.36,13.51-18.32,13.18-8.6-.31-12.8-8.7-21.46-8.74-11.68-.07-8.81,8.68-15.18,15.35-5.42,5.66-14.74,5.48-22.18,3.86s-14.91-8.56-22.41-3.34c-5.59,3.9-7.2,14.39-10.87,20.15-9.06,14.25-25,25.2-42.41,21.42-17.07-3.7-26-23.7-42.39-30.53-16.63-6.93-36.72-8.57-53.67-2.22-16.54,6.2-36.86,16.49-47-2.52-4.93-9.2-4-9.46-15.68-10.44-9.53-.8-11.9-2.15-19.69,3.46-14.82,10.65-28.1,18-42.69,2.1-4-4.38-7.51-15.12-12.62-18.07-7.29-4.21-18.75.47-24.49,4.08-7.35,4.61-15.85,12.22-25.47,11.72-9.78-.53-12.49-9.29-16.39-17.25s-1-14.45-3.88-22.15-11.83-8.27-20.25-8.68c-12.7-.62-17.61-6.25-25.09-17.79-6.61-10.19-.19-12.26-.34-23.76-.28-21.55-21.71-22.35-36.51-29.86-10.49-5.32-12.05-14.6-10-26.59,2.13-12.15,10.47-17.17,21.66-20.72,10.6-3.38,19.31.75,29.77,3.32,17.26,4.26,34.75,9,52.67,9.64,22.82.88,39.8-8.71,59.29-18.38,25-12.41,51-11.19,78.44-10.18,15.4.57,31.11.32,46.46,1.71,16.62,1.5,32.38,9.19,47.18,16.63C799.66,524,817,546.84,852,545.43c28.32-1.14,59.93-14.82,86.86-23.57,16.45-5.35,40.6-9.3,56.64.12Z"/><path class="cls-37" d="M511,479.07c-15.58,3.33-31,7.29-46.3,11.11-14.63,3.65-32.13,4.06-42,17.57-9.63,13.14-4.1,32.22,11.9,35.88,8.09,1.84,13.68-1.2,21-2.26,13.47-2,10.45,3.35,12.91,12.91,3.29,12.83,5.91,6.23,15.07,5.15,9.33-1.1,10.63,4.46,11.65,13.66,2.08,18.72-2.88,35.46,22.76,30.41,8.53-1.69,16.7-6.8,24.79-.94,7.39,5.35,4.66,11.74,6.88,19,2.54,8.27,8.86,13.84,17.81,13.85,8.6,0,13.13-8.21,21.77-7.94,11.68.38,8.48,9,14.61,15.91,5.2,5.84,14.52,6,22,4.68s15.21-8,22.5-2.5c5.46,4.1,6.69,14.63,10.13,20.53,8.52,14.58,24.05,26.1,41.58,23,17.2-3.06,26.85-22.72,43.5-28.94,16.88-6.31,37-7.2,53.72-.22,16.3,6.8,36.21,17.85,47.06-.78,5.25-9,4.36-9.29,16.06-9.84,9.54-.45,12-1.71,19.55,4.19,14.4,11.19,27.4,19.06,42.58,3.68,4.17-4.23,8.06-14.85,13.28-17.59,7.45-3.94,18.71,1.17,24.32,5,7.17,4.89,15.4,12.81,25,12.66,9.79-.16,12.82-8.8,17-16.63s1.55-14.4,4.71-22,12.11-7.82,20.55-7.92c12.71-.14,17.82-5.59,25.72-16.85,7-9.93.64-12.24,1.23-23.72,1.07-21.54,22.52-21.54,37.6-28.49,10.68-4.92,12.59-14.14,10.92-26.2-1.66-12.22-9.81-17.55-20.87-21.52-10.47-3.76-19.32,0-29.86,2.23-17.41,3.6-35.06,7.64-53,7.67-22.84,0-39.45-10.19-58.56-20.57-24.54-13.33-50.6-13.08-78-13.08-15.42,0-31.1-.84-46.49,0-16.66.88-32.7,8-47.77,14.86-29,13.26-47.26,35.43-82.11,32.73-28.25-2.2-59.34-17.05-85.92-26.79-16.25-6-40.22-10.79-56.61-2Z"/><path class="cls-8" d="M969.17,576.06c13.69,8.27,22,19.17,38.59,24,10.65,3.07,26.21,6.89,33.42-3.4,7.4-10.58,7-27-5.71-31.52-7.26-2.57-32.85-5.62-32.5-16.61,16.68-.84,31.4,6.7,47.34,3.56,12-2.37,31.37-10.09,40.58-17.79,3.81-3.17,9.29-15.26,5.22-19.83-7-7.82-11.61,5.17-15.35,8.92-10.17,10.17-34.06,18.56-48.26,18.06-13.06-.46-24.74-9-37.6-7.91-12.06,1-25.45,13.85-30.68,24.73Z"/><path class="cls-8" d="M1000.84,619.6c.6,7.76-2.66,17.55-5.1,24.6-9.76,2-16.57-25.35-27.38-28.42-1.84,10.9,5.09,18.4,5.6,28.44-5.28-.73-9.3-5.22-13.92-7.52-5.43-2.71-11.57-2.51-16.65-6-7.66-5.21-12.79-16.78-20.55-20.9,1.71,17.57-14,25.3-26.14,31.32-21.44,10.69,3,23.85,17.1,16.27,13.9-7.47,15.31-23.17,34.58-18.8,11.47,2.6,25.38,19.61,37.61,16.59s14.17-23.34,16.82-32.65Z"/><path class="cls-8" d="M687.11,683.93c11.7.37,29.83-5.61,38.87-13.61,9.77-8.63,15.74-22.28,24.49-30.85.84,3.41,1.12,7.23,2.1,10.66,14.09.7,28.76-1.16,41.65,2.9,12.15,3.85,25.4,12.31,38.59,7.4,6.22-2.31,10.15-7.52,15.87-10.92,6.16-3.66,16.39-5.43,4.7-11.16-4.61-2.23-15.93-.84-20.78-.16-8.79,1.25-9,0-16.66-2.6-1.1,7.18-52.91,7.78-61.38,7.62-.19-5.77-7.14-24.92-12.25-28.33-10.36-6.93-12.22,13.6-15.86,20.31-4.77,8.84-10,21-18.52,26.72-4.62,3.12-10.5,2.79-14.88,6.19-4.72,3.66-5.64,10.12-6.93,11.87"/><path class="cls-8" d="M654.45,646.32c-1.08,1.81-2.33-4.54-5.9-6.66s-8.85-1.42-12.89-1.25c-7.38.3-15.72,1.62-23.53,1.21-10.14-.53-7.78-2.9-15.79-9.37-5.84-4.72-14.47-7.67-22.05-6.7-9.43,1.19-13.71,7.92-20-.76-3.72-5.14-3.92-13.08-8-18.8-11.51-16.21-26.34-2.94-40.08-11.36-6.49-4-7.9-15.54-7-22.39C505.2,572.45,511,580,516.9,581c7.89,1.42,15.3-3.26,23.75-1.76,20.33,3.6,21.17,19.55,31.67,32.44,6.4,7.85,13.66,3.73,21.79,6.9,6.81,2.65,7.58,10.34,12.79,12.94,13.94,6.94,34.76-8.56,45.3,8.09a27.1,27.1,0,0,1,2.25,5.72"/><path class="cls-8" d="M479.29,491.93C468,498,423.52,498.7,425,518.51c7.17,1.21,12.65-3.78,19.5-2.67,1,8.27-11.44,5.67-9.6,14.54,8.79,2,18.16-7,26.39-8.63.45,4.65-1.77,8.36-2.64,12.6,15.13-.78,10.1,4.75,15.69,14,2.58,4.28,14.1,12.57,16.87,5.94S479,540.33,477.53,533.73c-1-4.65,4.31-6.27-1.19-10.36-3.15-2.34-10.92-.69-14.76-1,2.08-2.62,5.19-4.6,7.7-6.48a40.5,40.5,0,0,0-16.57-2.37c.38-4.71,46.23-8.69,38.45-22.62"/><path class="cls-38" d="M1034.75,496c0,68.29-79.18,133.6-274.14,133.6-173.19,0-274.13-87.09-274.13-133.6,0-82.14,122.73-214.75,274.13-214.75S1034.75,415.85,1034.75,496Z"/><path class="cls-25" d="M1016,433.76c-9.52,58-44.26,111.07-105.4,139.08-134,61.36-323.44-6-417.47-110.23-.23-.25-.4-.51-.63-.77-3.94,12-6,23.51-6,34.17,0,46.51,100.94,133.6,274.13,133.6,195,0,274.14-65.31,274.14-133.6C1034.75,477.41,1028.07,455.86,1016,433.76Z"/><path class="cls-39" d="M665.61,522.4c-20.79-8.08-14.84,26.8,0,37.07s106.6,26.74,109.84,16.58C779.21,564.29,686.39,530.48,665.61,522.4Z"/><path class="cls-39" d="M635.43,505.73c-63.69-37.25-101.45-87.9-117.29-72-26.79,27,22.25,65,86.11,97.93C652.15,556.38,649.27,513.82,635.43,505.73Z"/><path class="cls-25" d="M793.27,581.12c17.39,2,36.12-4.64,53.44-6.16,17.71-1.54,30.1-7.46,46.52-13.39,32.77-11.82,65-30.05,86.82-57.86,15.06-19.23,35.58-58.53,21.3-82-7.78-12.76-21.77-25.09-32.89-34.84-10.24-9-23.09-21.41-35.87-26.22-42.17-15.91-30.86,49.57-34.42,72C892,471.55,865,514.53,830.88,534.85c-13.23,7.88-43.17,22.18-42.56,40.34Z"/><path class="cls-26" d="M537.94,406c9.94,3.52,21.44,24.56,28,33.45A104.93,104.93,0,0,0,603.26,471c29.64,15.22,60.89,27.67,91,42.58,17.44,8.65,35.79,12.37,54.48,16.28,15.07,3.13,30.53,7.72,46.51,2.5,16.5-5.39,35.16-10.79,49.48-20.81,16.06-11.23,20.3-30.36,24.54-48.23,3.82-16.11,12.12-31.4,16.09-47.44,4-16.3.65-34.67,6.6-50.52,5.66-15.08,11.94-27.72-5.66-37.85-13.52-7.8-29.14-14.16-43.54-19.55-31.27-11.72-65.34-16.75-99.19-16.83-19.05,0-37.9,4.81-56.2,9.9s-33.77,15-51.45,22c-20.1,7.91-38.91,23.32-55.47,36.62-13.35,10.71-27.34,24.69-35.59,39.36Z"/><path class="cls-40" d="M713.25,423.81c-2.51-1.25-3.85-3.68-3-5.42s3.61-2.18,6.12-.94,10.21,6.74,9.33,8.53S715.77,425.05,713.25,423.81Z"/><path class="cls-40" d="M833.39,354.67c2.81-.14,5.16,1.34,5.25,3.29s-2.12,3.65-4.91,3.78-12.21-1-12.3-3S830.59,354.8,833.39,354.67Z"/><path class="cls-40" d="M739.54,393.83c1-2.63,3.22-4.24,5.06-3.58s2.56,3.36,1.6,6-5.58,10.9-7.47,10.21S738.58,396.46,739.54,393.83Z"/><path class="cls-40" d="M668.39,395.53c-2.51-1.24-3.86-3.68-3-5.44s3.6-2.17,6.12-.93,10.23,6.74,9.33,8.54S670.9,396.75,668.39,395.53Z"/><path class="cls-40" d="M710.31,351.3c2.8-.13,5.15,1.36,5.24,3.3s-2.11,3.65-4.91,3.78-12.21-1-12.29-3S707.5,351.43,710.31,351.3Z"/><path class="cls-40" d="M662.4,329.07c1-2.64,3.23-4.24,5.06-3.57s2.56,3.34,1.61,6-5.59,10.89-7.46,10.21S661.45,331.69,662.4,329.07Z"/><path class="cls-40" d="M685,446.17c-2.51-1.23-3.85-3.66-3-5.42s3.61-2.18,6.12-.93,10.22,6.74,9.33,8.53S687.55,447.41,685,446.17Z"/><path class="cls-40" d="M664.12,409.41c2.79-.13,5.15,1.34,5.24,3.3s-2.1,3.65-4.9,3.78-12.21-1-12.31-3S661.32,409.54,664.12,409.41Z"/><path class="cls-40" d="M712.12,384c1-2.63,3.23-4.23,5.07-3.57s2.56,3.35,1.6,6-5.59,10.89-7.47,10.21S711.17,386.61,712.12,384Z"/><path class="cls-40" d="M608.51,389c-2.51-1.24-3.86-3.66-3-5.42s3.61-2.17,6.12-.94,10.22,6.75,9.34,8.53S611,390.22,608.51,389Z"/><path class="cls-40" d="M655.51,368.25c2.8-.14,5.15,1.34,5.24,3.3s-2.1,3.64-4.9,3.77-12.21-1-12.3-3S652.71,368.38,655.51,368.25Z"/><path class="cls-40" d="M610.43,347.38c1-2.63,3.22-4.23,5.07-3.57s2.56,3.36,1.6,6-5.59,10.9-7.47,10.22S609.48,350,610.43,347.38Z"/><path class="cls-40" d="M819,405.37c-2.51-1.24-3.86-3.68-3-5.43s3.61-2.17,6.13-.94,10.21,6.75,9.33,8.54S821.46,406.6,819,405.37Z"/><path class="cls-40" d="M864.38,418.11c2.8-.13,5.15,1.35,5.24,3.31s-2.11,3.64-4.91,3.77-12.2-1-12.29-3S861.58,418.25,864.38,418.11Z"/><path class="cls-40" d="M875.5,392.17c1-2.62,3.22-4.23,5-3.57s2.57,3.35,1.6,6-5.57,10.89-7.45,10.21S874.54,394.81,875.5,392.17Z"/><path class="cls-40" d="M796.73,432.9c-2.51-1.24-3.86-3.67-3-5.43s3.6-2.17,6.12-.93,10.21,6.75,9.34,8.53S799.24,434.13,796.73,432.9Z"/><path class="cls-40" d="M848.59,389.83c2.8-.14,5.15,1.35,5.24,3.31s-2.1,3.63-4.9,3.77-12.21-1-12.3-3S845.79,390,848.59,389.83Z"/><path class="cls-40" d="M772.85,347.38c.95-2.63,3.21-4.23,5.06-3.57s2.56,3.36,1.6,6S773.93,360.68,772,360,771.89,350,772.85,347.38Z"/><path class="cls-40" d="M805.33,463.43c-2.52-1.24-3.86-3.67-3-5.42s3.6-2.19,6.12-.94,10.21,6.75,9.33,8.53S807.84,464.66,805.33,463.43Z"/><path class="cls-40" d="M833.39,440.48c2.8-.13,5.15,1.35,5.24,3.3s-2.11,3.65-4.9,3.78-12.21-1-12.3-3S830.59,440.61,833.39,440.48Z"/><path class="cls-40" d="M807.25,377.44c1-2.64,3.22-4.23,5-3.57s2.57,3.35,1.6,6-5.58,10.89-7.46,10.21S806.29,380.07,807.25,377.44Z"/><path class="cls-40" d="M737.61,453.58c-2.51-1.24-3.86-3.66-3-5.42s3.61-2.17,6.13-.94,10.21,6.75,9.33,8.54S740.13,454.82,737.61,453.58Z"/><path class="cls-40" d="M783.05,447.9c2.79-.14,5.14,1.34,5.23,3.29s-2.1,3.65-4.9,3.77-12.21-.95-12.3-2.95S780.24,448,783.05,447.9Z"/><path class="cls-40" d="M768.36,408.48c1-2.63,3.22-4.24,5.06-3.57s2.57,3.34,1.6,6-5.58,10.9-7.46,10.21S767.41,411.11,768.36,408.48Z"/><path class="cls-40" d="M764,323.58c2.79-.13,5.14,1.34,5.24,3.3s-2.1,3.65-4.9,3.78-12.21-1-12.3-3S761.17,323.71,764,323.58Z"/><path class="cls-40" d="M758.29,294.87c1-2.63,3.22-4.24,5.06-3.57s2.56,3.35,1.6,6-5.58,10.9-7.47,10.21S757.33,297.5,758.29,294.87Z"/><path class="cls-40" d="M848.49,373.94c-2.51-1.24-3.86-3.67-3-5.42s3.61-2.18,6.12-.94,10.22,6.74,9.32,8.53S851,375.17,848.49,373.94Z"/><path class="cls-40" d="M873,338.46c2.8-.13,5.15,1.35,5.24,3.31s-2.11,3.64-4.91,3.77-12.19-1-12.3-3S870.18,338.6,873,338.46Z"/><path class="cls-40" d="M831.68,325.79c1-2.63,3.21-4.24,5.07-3.57s2.54,3.35,1.59,6-5.58,10.9-7.46,10.21S830.72,328.43,831.68,325.79Z"/><path class="cls-40" d="M782.94,335.69c-2.52-1.25-3.86-3.68-3-5.44s3.6-2.17,6.12-.93,10.22,6.75,9.33,8.54S785.45,336.92,782.94,335.69Z"/><path class="cls-40" d="M813.33,325.07c2.8-.13,5.15,1.35,5.24,3.3s-2.12,3.65-4.91,3.78-12.2-1-12.3-3S810.52,325.2,813.33,325.07Z"/><path class="cls-40" d="M797.12,312.39c1-2.64,3.22-4.23,5.07-3.56s2.54,3.35,1.6,6S798.2,325.7,796.32,325,796.17,315,797.12,312.39Z"/><path class="cls-40" d="M778.63,378.85c-2.52-1.24-3.87-3.66-3-5.42s3.61-2.17,6.12-.94,10.22,6.76,9.33,8.55S781.14,380.09,778.63,378.85Z"/><path class="cls-40" d="M800.28,354.67c2.8-.14,5.15,1.34,5.24,3.29s-2.1,3.65-4.9,3.78-12.21-1-12.3-3S797.49,354.8,800.28,354.67Z"/><path class="cls-40" d="M739.53,341.08c1-2.64,3.23-4.23,5.07-3.57s2.56,3.35,1.6,6-5.58,10.89-7.47,10.22S738.58,343.72,739.53,341.08Z"/><path class="cls-40" d="M729.73,314.25c-2.52-1.24-3.86-3.67-3-5.42s3.6-2.17,6.12-.93,10.22,6.74,9.34,8.52S732.24,315.49,729.73,314.25Z"/><path class="cls-40" d="M760,363.33c2.8-.14,5.15,1.33,5.24,3.29s-2.11,3.65-4.91,3.78-12.2-.95-12.29-3S757.2,363.45,760,363.33Z"/><path class="cls-40" d="M699.87,329.07c1-2.64,3.21-4.24,5.06-3.57s2.56,3.34,1.6,6-5.58,10.89-7.47,10.21S698.91,331.69,699.87,329.07Z"/></g></g></svg>