<svg xmlns="http://www.w3.org/2000/svg" viewBox="0 0 1920 1080"><defs><style>.cls-1{isolation:isolate;}.cls-2{fill:#d83823;}.cls-3{fill:#c4261a;}.cls-13,.cls-4{fill:#fff;}.cls-4{opacity:0.3;}.cls-18,.cls-21,.cls-4{mix-blend-mode:overlay;}.cls-5{fill:#c66e26;}.cls-6{fill:#b76020;}.cls-7{fill:#e88585;}.cls-8{fill:#f9adaf;}.cls-9{fill:#fae4e3;}.cls-10{fill:#f49895;}.cls-11{fill:#f95656;}.cls-12{fill:#ccd8ee;}.cls-14{fill:#ff9d28;}.cls-15{fill:#48a2e5;}.cls-16{fill:#ee9d7f;}.cls-17{fill:#e67052;}.cls-18{opacity:0.9;}.cls-19{fill:#f4e0cb;}.cls-20{fill:#f9ece1;}.cls-21{opacity:0.5;}.cls-22{fill:#ffdfdd;}.cls-23{fill:#fcc8c8;}.cls-24{fill:#859cc5;}.cls-25{fill:#a9bbdf;}.cls-26{fill:#e64524;}.cls-27{fill:#f25136;}.cls-28{fill:#d6371d;}.cls-29{fill:#e0f1f8;}.cls-30{fill:#f3fcff;}.cls-31{fill:#53689f;}.cls-32{fill:#6780a8;}.cls-33{fill:#8a9cd2;}.cls-34{fill:#fef098;}.cls-35{fill:#fadf52;}.cls-36{fill:#eba904;}.cls-37{fill:#f4c319;}.cls-38{fill:#f6d136;}.cls-39{fill:#df8c40;}.cls-40{fill:#cc752e;}.cls-41{fill:#e4e496;}.cls-42{fill:#89890e;}.cls-43{fill:#75720a;}.cls-44{fill:#dd7812;}.cls-45{fill:#fbb433;}.cls-46{fill:#f7b2a0;}.cls-47{fill:#323056;}.cls-48{fill:#1d1b3a;}.cls-49{fill:#fbc6b4;}.cls-50{fill:#ea2c2c;}.cls-51{fill:#a3552f;}.cls-52{fill:#934628;}</style></defs><g class="cls-1"><g id="Layer_1" data-name="Layer 1"><path class="cls-2" d="M1321.86,522.09c-3.92,29.64,6.35,112.8,124.8,143.47C1552.21,692.9,1643,648.3,1672,578.05s-6.2-134.87-89.94-156.1c-96.81-24.54-214.93,26.13-221.4,82.64s67.68,76.21,120,54.46c38.17-15.87,12.08-44.19-19.16-53.18s-1-29.78,51.28-32.5c41.6-2.16,89.49,7.22,98,40,9.18,35.52-10.72,64.06-64.51,74.73s-129.17,24.77-175-76.75C1354.55,474.56,1324.65,501.06,1321.86,522.09Z"/><path class="cls-3" d="M1321.86,522.09c-3.92,29.64,6.35,112.8,124.8,143.47C1552.21,692.9,1643,648.3,1672,578.05c14.56-35.22,13-69-2.75-96.59,13.77,138.07-99.8,162-101.88,162.38-142.74,36.08-214.66-37.22-227.45-74.49-10.67-31.15-13.51-45.29-11.48-63.09A36.33,36.33,0,0,0,1321.86,522.09Z"/><path class="cls-3" d="M1438,482.54c-17,42.05,40.23,30.28,40.27,30.27a81.71,81.71,0,0,0-16.77-6.94c-31.23-9-1-29.78,51.28-32.5,41.6-2.16,90.79,6.92,98,40a86.37,86.37,0,0,1,2.2,21.77h0C1628.5,445.38,1455,440.49,1438,482.54Z"/><path class="cls-3" d="M1428.38,580.8s-17.13,20.1-10.8,35.7c0,0,7.24-26.18,24.51-29.06Z"/><path class="cls-3" d="M1468.63,594.3s-10.2,20,2,32.12c0,0,.52-30.4,15.5-30.88Z"/><path class="cls-3" d="M1530.19,591.22s-5.71,26.49,9.32,32.83c0,0-2.5-31.44,6.74-35.9Z"/><path class="cls-3" d="M1587.58,572.79s0,19.44,16.91,22.43c0,0-8.77-21.77-6.6-30.52Z"/><path class="cls-3" d="M1430.43,435.35s18.76,6.76,20.81,19.61c0,0,4.38-7.28-5.36-24.88Z"/><path class="cls-3" d="M1477.62,421s10.75,11.16,12.34,21.89c0,0,2.87-7-1.62-24.23Z"/><path class="cls-3" d="M1528.2,415.61s13,13.5,14.62,24.22c0,0,4.58-6.58.09-23.82Z"/><path class="cls-3" d="M1582.1,422s11,9.92,9.38,28.48c0,0,11.17-6.27,6.69-23.5Z"/><path class="cls-3" d="M1426.85,547.58s3-18.72,20.55-24.34C1447.4,523.24,1421.89,519.12,1426.85,547.58Z"/><path class="cls-3" d="M1422.41,508.75s-23.83-16.43-32.49,14.73c0,0,12-17.51,32.49-14.73Z"/><path class="cls-3" d="M1424.34,481.18s-10.22-23.74-31.57-4.28c0,0,17.4-7.53,31.57,4.28Z"/><path class="cls-3" d="M1642.14,461.42s-23.56-10.63-26.19,18.14c0,0,7.77-17.3,26.19-18.14Z"/><path class="cls-3" d="M1652.7,506.28S1641.76,482.86,1621,503c0,0,17.17-8,31.68,3.32Z"/><path class="cls-3" d="M1648,552.1s-8.21-24.5-31.11-6.87c0,0,18-6.07,31.11,6.87Z"/><path class="cls-4" d="M1406.93,455.56c-15.82,13.68-29.44,26.93-22.84,57.37s55.58,51.76,91.06,31.79c0,0,12.22-11.47,1.11-18.54s-53.19,3.88-61.14-32.77c-4-18.69,16.85-34,38.65-39s57-6.93,54.47-20.78C1505.56,418.85,1442.13,425.11,1406.93,455.56Z"/><path class="cls-4" d="M1360.41,514.5c-2.48-5.81-25.78-15.19-22,12.46S1368.59,638,1483.57,646c71.35,5,151.18-31.76,159.41-89.47,0,0,3.59-13.91-16-9.13s-34.08,48.83-92.45,57.05S1395.74,597.48,1360.41,514.5Z"/><path class="cls-3" d="M1443,430.7s-108.52,33.06-77,106.36c13.6,31.56,85.16,59.85,130.62,10.58,0,0-125.9,51.69-129.54-36.83C1365.3,466,1429.69,435,1443,430.7Z"/><path class="cls-2" d="M1332.88,636.66c-3.91,29.65,6.35,112.8,124.79,143.48,105.55,27.34,196.33-17.27,225.4-87.52s-6.2-134.86-89.94-156.09c-96.83-24.54-214.93,26.13-221.4,82.64s67.66,76.2,120,54.46c38.18-15.87,12.09-44.2-19.15-53.18s-1-29.79,51.26-32.5c41.62-2.17,89.51,7.22,98,40,9.17,35.53-10.73,64.07-64.52,74.73s-129.17,24.77-175-76.74C1365.58,589.14,1335.66,615.63,1332.88,636.66Z"/><path class="cls-3" d="M1332.88,636.66c-3.91,29.65,6.35,112.8,124.79,143.48,105.55,27.34,196.33-17.27,225.4-87.52,14.56-35.21,13-69-2.76-96.59,13.77,138.06-99.8,162-101.88,162.4-142.74,36-214.66-37.23-227.45-74.51-10.68-31.15-13.52-45.28-11.48-63.08A36.36,36.36,0,0,0,1332.88,636.66Z"/><path class="cls-3" d="M1449.05,597.12c-17,42,40.22,30.28,40.26,30.27a80.84,80.84,0,0,0-16.76-6.94c-31.24-9-1-29.79,51.26-32.5,41.62-2.17,90.81,6.91,98,40a86.44,86.44,0,0,1,2.2,21.78h0C1639.53,559.94,1466,555.07,1449.05,597.12Z"/><path class="cls-3" d="M1439.39,695.37s-17.12,20.1-10.79,35.71c0,0,7.25-26.19,24.52-29.06Z"/><path class="cls-3" d="M1479.65,708.87s-10.19,20,2,32.13c0,0,.53-30.4,15.5-30.89Z"/><path class="cls-3" d="M1541.21,705.79s-5.7,26.49,9.32,32.84c0,0-2.5-31.44,6.74-35.91Z"/><path class="cls-3" d="M1598.61,687.36s0,19.45,16.9,22.44c0,0-8.77-21.77-6.61-30.52Z"/><path class="cls-3" d="M1441.45,549.93s18.77,6.75,20.82,19.61c0,0,4.37-7.28-5.37-24.89Z"/><path class="cls-3" d="M1488.64,535.58s10.76,11.16,12.34,21.89c0,0,2.87-7-1.61-24.23Z"/><path class="cls-3" d="M1539.22,530.18s13,13.5,14.63,24.22c0,0,4.57-6.58.08-23.82Z"/><path class="cls-3" d="M1593.13,536.53s11,9.91,9.36,28.48c0,0,11.19-6.27,6.7-23.51Z"/><path class="cls-3" d="M1437.87,662.15s3-18.72,20.56-24.33C1458.43,637.82,1432.92,633.69,1437.87,662.15Z"/><path class="cls-3" d="M1433.43,623.32s-23.81-16.43-32.48,14.73c0,0,12-17.5,32.48-14.73Z"/><path class="cls-3" d="M1435.37,595.75s-10.23-23.74-31.57-4.28c0,0,17.39-7.53,31.57,4.28Z"/><path class="cls-3" d="M1653.16,576s-23.55-10.64-26.19,18.14c0,0,7.77-17.3,26.19-18.14Z"/><path class="cls-3" d="M1663.72,620.86s-10.92-23.42-31.68-3.32c0,0,17.18-8,31.68,3.32Z"/><path class="cls-3" d="M1659.06,666.67s-8.21-24.49-31.11-6.87c0,0,18-6.07,31.11,6.87Z"/><path class="cls-4" d="M1418,570.13c-15.83,13.69-29.44,26.94-22.86,57.37s55.59,51.76,91.07,31.8c0,0,12.24-11.48,1.1-18.54s-53.19,3.88-61.11-32.78c-4.06-18.68,16.83-34,38.64-39s57-6.93,54.46-20.78C1516.57,533.42,1453.15,539.68,1418,570.13Z"/><path class="cls-4" d="M1371.44,629.07c-2.49-5.81-25.78-15.18-22,12.46s30.18,111,145.15,119.05c71.36,5,151.19-31.74,159.41-89.46,0,0,3.59-13.91-16-9.13s-34.09,48.84-92.45,57.06S1406.78,712.06,1371.44,629.07Z"/><path class="cls-3" d="M1454,545.27s-108.51,33.06-76.94,106.36c13.59,31.57,85.16,59.86,130.61,10.59,0,0-125.89,51.68-129.53-36.83C1376.33,580.53,1440.71,549.58,1454,545.27Z"/><path class="cls-5" d="M522,673.54l3.15-2.9C369.9,502.89,381.91,295.85,382.05,293.78l-4.29-.29C377.63,295.58,365.51,504.47,522,673.54Z"/><path class="cls-5" d="M382.88,602.41S454.65,662.28,486.4,629C486.4,629,481.18,570.73,382.88,602.41Z"/><path class="cls-6" d="M382.88,602.41a3.47,3.47,0,0,0,.46-.13c59.56,34.83,102.08,22.15,102.1,22.13a30.48,30.48,0,0,1,1,4.61C454.65,662.28,382.88,602.41,382.88,602.41Z"/><path class="cls-5" d="M513.18,511s17.38,101.44-31.82,113.32C481.36,624.34,428.69,587.17,513.18,511Z"/><path class="cls-6" d="M513.18,511a4.75,4.75,0,0,1-.4.38c.29,76-35.27,109.46-35.28,109.48a29.79,29.79,0,0,0,3.86,3.46C530.56,612.46,513.18,511,513.18,511Z"/><path class="cls-5" d="M382.88,602.41S454.65,662.28,486.4,629C486.4,629,481.18,570.73,382.88,602.41Z"/><path class="cls-6" d="M382.88,602.41a3.47,3.47,0,0,0,.46-.13c59.56,34.83,102.08,22.15,102.1,22.13a30.48,30.48,0,0,1,1,4.61C454.65,662.28,382.88,602.41,382.88,602.41Z"/><path class="cls-5" d="M513.71,527S529.52,619.15,484.82,630C484.82,630,437,596.19,513.71,527Z"/><path class="cls-6" d="M513.71,527l-.36.36c.27,69-32,99.39-32,99.4a29.1,29.1,0,0,0,3.51,3.16C529.52,619.15,513.71,527,513.71,527Z"/><path class="cls-5" d="M368.94,547.1s55,54.77,83.74,29.58C452.68,576.68,452.61,528,368.94,547.1Z"/><path class="cls-6" d="M368.94,547.1l.41-.08c46.75,33.16,82.85,25.76,82.87,25.77a25.45,25.45,0,0,1,.46,3.89C424,601.87,368.94,547.1,368.94,547.1Z"/><path class="cls-5" d="M482.72,494.27s6.35,77.35-31.42,83C451.3,577.31,414.18,545.9,482.72,494.27Z"/><path class="cls-6" d="M482.72,494.27a4.15,4.15,0,0,1-.34.24c-4.82,57.13-33.74,79.93-33.75,79.94a23.4,23.4,0,0,0,2.67,2.86C489.07,571.62,482.72,494.27,482.72,494.27Z"/><path class="cls-5" d="M348.25,500.56s53.52,56.26,82.9,31.85C431.15,532.41,432.41,483.79,348.25,500.56Z"/><path class="cls-6" d="M348.25,500.56a2.61,2.61,0,0,0,.42-.08c45.82,34.44,82.11,28,82.11,28a23.28,23.28,0,0,1,.37,3.9C401.77,556.82,348.25,500.56,348.25,500.56Z"/><path class="cls-5" d="M463.44,450.86s4.23,77.51-33.67,82.15C429.77,533,393.52,500.59,463.44,450.86Z"/><path class="cls-6" d="M463.44,450.86l-.34.24c-6.36,56.95-35.92,79-35.92,79a20.76,20.76,0,0,0,2.59,2.94C467.67,528.37,463.44,450.86,463.44,450.86Z"/><path class="cls-5" d="M336.93,449.89s45.4,55.31,74.05,34.85C411,484.74,415.4,440.14,336.93,449.89Z"/><path class="cls-6" d="M336.93,449.89l.36,0c39.82,34.73,73.6,31.28,73.62,31.29a24.88,24.88,0,0,1,.07,3.6C382.33,505.2,336.93,449.89,336.93,449.89Z"/><path class="cls-5" d="M446.13,411.93s-1.31,71.55-36.47,73.28C409.66,485.21,378.51,453,446.13,411.93Z"/><path class="cls-6" d="M446.13,411.93c-.11.07-.2.15-.3.2-9.71,51.95-38.35,70.19-38.36,70.18a21.79,21.79,0,0,0,2.19,2.9C444.82,483.48,446.13,411.93,446.13,411.93Z"/><path class="cls-5" d="M330.21,404.6s41.9,51.07,68.33,32.17C398.54,436.77,402.64,395.62,330.21,404.6Z"/><path class="cls-6" d="M330.21,404.6l.34,0c36.74,32.07,67.92,28.86,67.93,28.88a20.26,20.26,0,0,1,.06,3.32C372.11,455.67,330.21,404.6,330.21,404.6Z"/><path class="cls-5" d="M431,369.59s-1.22,66-33.65,67.62C397.34,437.21,368.59,407.44,431,369.59Z"/><path class="cls-6" d="M431,369.59a3,3,0,0,1-.3.18c-8.94,47.94-35.36,64.77-35.38,64.77a21,21,0,0,0,2,2.67C429.77,435.61,431,369.59,431,369.59Z"/><path class="cls-5" d="M325.85,352.23s34.79,50.32,60.64,34.91C386.49,387.14,393.4,349.45,325.85,352.23Z"/><path class="cls-6" d="M325.85,352.23a3.25,3.25,0,0,0,.33,0c31.46,32.41,60.49,31.84,60.51,31.85a20.52,20.52,0,0,1-.2,3.08C360.64,402.55,325.85,352.23,325.85,352.23Z"/><path class="cls-5" d="M421.56,327.6s-6.17,60.86-36.23,59.83C385.33,387.43,361.07,357.77,421.56,327.6Z"/><path class="cls-6" d="M421.56,327.6c-.09,0-.17.1-.27.14-11.92,43.57-37.62,57.08-37.62,57.08a16.13,16.13,0,0,0,1.66,2.61C415.39,388.46,421.56,327.6,421.56,327.6Z"/><path class="cls-5" d="M331.19,304.54s26,46.54,49.73,35.3C380.92,339.84,390,307.72,331.19,304.54Z"/><path class="cls-6" d="M331.19,304.54c.11,0,.19,0,.3,0,24.61,30.7,49.83,32.62,49.84,32.62a16.58,16.58,0,0,1-.41,2.65C357.22,351.08,331.19,304.54,331.19,304.54Z"/><path class="cls-5" d="M416.28,291.1S405.89,343.37,379.9,340C379.9,340,361.29,312.27,416.28,291.1Z"/><path class="cls-6" d="M416.28,291.1a.88.88,0,0,0-.27.1c-13.93,36.8-37.33,46.41-37.35,46.42A16.71,16.71,0,0,0,379.9,340C405.89,343.37,416.28,291.1,416.28,291.1Z"/><path class="cls-5" d="M376.55,246.25s-21.93,48.6,1.17,61C377.72,307.22,409,295.44,376.55,246.25Z"/><path class="cls-6" d="M376.55,246.25a1.94,1.94,0,0,0,.15.24c-10.05,38.07,3.42,59.48,3.42,59.5a19.21,19.21,0,0,1-2.4,1.23C354.62,294.85,376.55,246.25,376.55,246.25Z"/><path class="cls-5" d="M621.63,655.51l3.15-2.9C469.54,484.85,481.56,277.82,481.69,275.74l-4.3-.28C477.27,277.55,465.15,486.44,621.63,655.51Z"/><path class="cls-5" d="M482.52,584.38S554.29,644.24,586,611C586,611,580.82,552.69,482.52,584.38Z"/><path class="cls-6" d="M482.52,584.38a3.09,3.09,0,0,0,.46-.14c59.57,34.84,102.08,22.15,102.1,22.14a30.21,30.21,0,0,1,1,4.61C554.29,644.24,482.52,584.38,482.52,584.38Z"/><path class="cls-5" d="M612.82,493S630.2,594.43,581,606.31C581,606.31,528.34,569.13,612.82,493Z"/><path class="cls-6" d="M612.82,493a3.6,3.6,0,0,1-.41.37c.3,76-35.26,109.47-35.27,109.48a30.3,30.3,0,0,0,3.86,3.47C630.2,594.43,612.82,493,612.82,493Z"/><path class="cls-5" d="M482.52,584.38S554.29,644.24,586,611C586,611,580.82,552.69,482.52,584.38Z"/><path class="cls-6" d="M482.52,584.38a3.09,3.09,0,0,0,.46-.14c59.57,34.84,102.08,22.15,102.1,22.14a30.21,30.21,0,0,1,1,4.61C554.29,644.24,482.52,584.38,482.52,584.38Z"/><path class="cls-5" d="M613.35,509s15.8,92.11-28.89,102.91C584.46,611.91,536.63,578.16,613.35,509Z"/><path class="cls-6" d="M613.35,509l-.35.36c.26,69-32,99.38-32,99.39a27.62,27.62,0,0,0,3.5,3.16C629.15,601.11,613.35,509,613.35,509Z"/><path class="cls-5" d="M468.58,529.06s55,54.78,83.75,29.59C552.33,558.65,552.25,510,468.58,529.06Z"/><path class="cls-6" d="M468.58,529.06A2.93,2.93,0,0,0,469,529c46.75,33.16,82.85,25.76,82.87,25.76a26.67,26.67,0,0,1,.47,3.9C523.61,583.84,468.58,529.06,468.58,529.06Z"/><path class="cls-5" d="M582.36,476.23s6.36,77.35-31.42,83C550.94,559.27,513.82,527.87,582.36,476.23Z"/><path class="cls-6" d="M582.36,476.23l-.34.25c-4.82,57.12-33.74,79.93-33.75,79.94a23.69,23.69,0,0,0,2.67,2.85C588.72,553.58,582.36,476.23,582.36,476.23Z"/><path class="cls-5" d="M447.89,482.52s53.52,56.26,82.9,31.86C530.79,514.38,532.05,465.76,447.89,482.52Z"/><path class="cls-6" d="M447.89,482.52a2.45,2.45,0,0,0,.42-.07c45.82,34.44,82.11,28,82.12,28a24,24,0,0,1,.36,3.91C501.41,538.78,447.89,482.52,447.89,482.52Z"/><path class="cls-5" d="M563.08,432.82s4.23,77.52-33.67,82.15C529.41,515,493.16,482.56,563.08,432.82Z"/><path class="cls-6" d="M563.08,432.82l-.34.25c-6.36,56.94-35.93,79-35.93,79a21.35,21.35,0,0,0,2.6,2.93C567.31,510.34,563.08,432.82,563.08,432.82Z"/><path class="cls-5" d="M436.57,431.86s45.39,55.31,74.05,34.85C510.62,466.71,515.05,422.1,436.57,431.86Z"/><path class="cls-6" d="M436.57,431.86l.36,0c39.82,34.73,73.6,31.28,73.62,31.28a25,25,0,0,1,.07,3.61C482,487.17,436.57,431.86,436.57,431.86Z"/><path class="cls-5" d="M545.77,393.9s-1.3,71.55-36.47,73.27C509.3,467.17,478.15,434.92,545.77,393.9Z"/><path class="cls-6" d="M545.77,393.9a2.61,2.61,0,0,1-.3.2c-9.72,51.95-38.35,70.18-38.36,70.18a22.23,22.23,0,0,0,2.19,2.89C544.47,465.45,545.77,393.9,545.77,393.9Z"/><path class="cls-5" d="M429.86,386.57s41.9,51.06,68.33,32.16C498.19,418.73,502.28,377.58,429.86,386.57Z"/><path class="cls-6" d="M429.86,386.57a2.23,2.23,0,0,0,.34,0c36.73,32.07,67.91,28.87,67.92,28.89a21,21,0,0,1,.07,3.31C471.76,437.63,429.86,386.57,429.86,386.57Z"/><path class="cls-5" d="M530.63,351.56s-1.21,66-33.65,67.62C497,419.18,468.23,389.4,530.63,351.56Z"/><path class="cls-6" d="M530.63,351.56l-.3.18C521.4,399.68,495,416.5,495,416.51a21.94,21.94,0,0,0,2,2.67C529.42,417.58,530.63,351.56,530.63,351.56Z"/><path class="cls-5" d="M425.5,334.2s34.78,50.32,60.63,34.91C486.13,369.11,493,331.42,425.5,334.2Z"/><path class="cls-6" d="M425.5,334.2a3.16,3.16,0,0,0,.32,0c31.47,32.41,60.5,31.85,60.5,31.85a20.1,20.1,0,0,1-.19,3.09C460.28,384.52,425.5,334.2,425.5,334.2Z"/><path class="cls-5" d="M521.21,309.57S515,370.43,485,369.39C485,369.39,460.71,339.73,521.21,309.57Z"/><path class="cls-6" d="M521.21,309.57l-.28.14c-11.92,43.57-37.61,57.07-37.61,57.07a16.22,16.22,0,0,0,1.64,2.61C515,370.43,521.21,309.57,521.21,309.57Z"/><path class="cls-5" d="M430.83,286.51s26,46.54,49.73,35.29C480.56,321.8,489.67,289.68,430.83,286.51Z"/><path class="cls-6" d="M430.83,286.51c.11,0,.19,0,.3,0C455.75,317.23,481,319.15,481,319.16a16.29,16.29,0,0,1-.41,2.64C456.86,333.05,430.83,286.51,430.83,286.51Z"/><path class="cls-5" d="M515.92,273.06S505.54,325.33,479.54,322C479.54,322,460.94,294.23,515.92,273.06Z"/><path class="cls-6" d="M515.92,273.06a2.15,2.15,0,0,0-.27.1c-13.93,36.8-37.33,46.41-37.34,46.42a16,16,0,0,0,1.23,2.4C505.54,325.33,515.92,273.06,515.92,273.06Z"/><path class="cls-5" d="M476.19,228.22s-21.92,48.6,1.17,61C477.36,289.19,508.62,277.41,476.19,228.22Z"/><path class="cls-6" d="M476.19,228.22a.91.91,0,0,0,.16.24c-10.06,38.06,3.41,59.48,3.41,59.5a18.42,18.42,0,0,1-2.4,1.23C454.27,276.82,476.19,228.22,476.19,228.22Z"/><polygon class="cls-7" points="639.49 655.41 667.79 632.13 662.41 685.37 633.42 672.8 639.49 655.41"/><path class="cls-8" d="M269.1,616.8C239.55,672,242.64,731.23,276,749.1s84.4-12.39,114-67.57,26.45-114.42-6.93-132.3a41.73,41.73,0,0,0-5.43-2.34c-.91-.33-1.81-.64-2.73-.9-.59-.17-1.19-.3-1.78-.45A50,50,0,0,0,365,544.3h.72a52.34,52.34,0,0,0-9.2,0h2.31C328.19,546,292.14,573.79,269.1,616.8Z"/><path class="cls-9" d="M324.54,576.19c-2.45,4.58-2.19,9.47.56,10.95s7-1,9.43-5.59,2.19-9.46-.57-10.94a2.78,2.78,0,0,0-.44-.19,1,1,0,0,0-.23-.08l-.14,0a5.58,5.58,0,0,0-.68-.1h0a3.22,3.22,0,0,0-.76,0h.2C329.43,570.34,326.44,572.64,324.54,576.19Z"/><path class="cls-9" d="M324.54,626.06c-2.45,4.57-2.19,9.47.56,11s7-1,9.43-5.58,2.19-9.47-.57-10.95c-.14-.08-.3-.13-.44-.2a2,2,0,0,1-.23-.07l-.14,0a5.58,5.58,0,0,0-.68-.1h0a4.82,4.82,0,0,0-.76,0h.2C329.43,620.21,326.44,622.51,324.54,626.06Z"/><path class="cls-9" d="M347.18,652.74c-2.44,4.56-2.19,9.46.57,10.94s7-1,9.42-5.59,2.19-9.46-.56-10.94c-.15-.08-.31-.14-.45-.2a1,1,0,0,1-.23-.08l-.14,0a5.65,5.65,0,0,0-.68-.11h-.51C352.07,646.88,349.08,649.18,347.18,652.74Z"/><path class="cls-9" d="M308.69,670.12c-2.45,4.58-2.19,9.47.57,11s7-1,9.43-5.58,2.19-9.48-.57-11a2.62,2.62,0,0,0-.46-.19l-.22-.08-.15,0a3,3,0,0,0-.67-.11h.06a3.31,3.31,0,0,0-.77,0h.2C313.58,664.28,310.59,666.57,308.69,670.12Z"/><path class="cls-9" d="M283.75,626.06c-2.45,4.57-2.19,9.47.57,11s7-1,9.43-5.58,2.19-9.47-.58-10.95a4.48,4.48,0,0,0-.44-.2,1.87,1.87,0,0,1-.22-.07l-.16,0a4.69,4.69,0,0,0-.67-.1h.07a5,5,0,0,0-.77,0h.2C288.64,620.21,285.66,622.51,283.75,626.06Z"/><path class="cls-9" d="M270.4,687.51c-2.44,4.57-2.19,9.47.57,11s7-1,9.42-5.59,2.19-9.46-.56-10.94l-.45-.2-.23-.08-.15,0a5.2,5.2,0,0,0-.67-.11h-.51C275.29,681.66,272.3,684,270.4,687.51Z"/><path class="cls-9" d="M317.86,715.15c-2.45,4.57-2.19,9.46.57,10.94s7-1,9.42-5.59,2.2-9.45-.56-10.94a2.67,2.67,0,0,0-.46-.2l-.21-.07-.16,0a4.94,4.94,0,0,0-.67-.12h-.51C322.75,709.3,319.76,711.58,317.86,715.15Z"/><path class="cls-9" d="M360.53,597.36c-2.45,4.57-2.19,9.47.57,10.95s7-1,9.43-5.59,2.19-9.47-.58-10.94a2.19,2.19,0,0,0-.44-.2l-.22-.08-.16,0a2.93,2.93,0,0,0-.67-.1h.06a3.22,3.22,0,0,0-.76,0h.2C365.42,591.51,362.43,593.8,360.53,597.36Z"/><path class="cls-10" d="M544.81,544H358.86a46.22,46.22,0,0,1,7.35,1.23c.59.14,1.18.28,1.76.44.91.27,1.8.56,2.69.88a40.34,40.34,0,0,1,5.37,2.33c33.65,18,36.77,77.72,7,133.35-21.22,39.62-53.4,66.37-82.32,72H544.81a105.14,105.14,0,0,0,0-210.28Z"/><path class="cls-10" d="M358.86,544a46.22,46.22,0,0,1,7.35,1.23c.59.14,1.18.28,1.76.44.91.27,1.8.56,2.69.88a40.34,40.34,0,0,1,5.37,2.33c.49.26.9.6,1.36.88-.49-2-1.09-3.88-1.72-5.76Z"/><path class="cls-7" d="M618.29,574A105.21,105.21,0,0,1,521.43,720.1H356c-17.32,18.45-37,30.54-55.3,34.14H544.81A105.09,105.09,0,0,0,618.29,574Z"/><path class="cls-11" d="M1130.13,330.1a49,49,0,1,1,49-49A49,49,0,0,1,1130.13,330.1Zm0-94.92a45.94,45.94,0,1,0,45.94,45.94A46,46,0,0,0,1130.13,235.18Z"/><path class="cls-11" d="M1114.3,258.65a90.41,90.41,0,0,1,13.71-.93c8.5,0,14,1.53,18.34,4.8,4.66,3.45,7.58,9,7.58,16.88,0,8.58-3.12,14.5-7.44,18.15-4.72,3.92-11.91,5.78-20.68,5.78a86.7,86.7,0,0,1-11.51-.66Zm10.17,36.57a18.77,18.77,0,0,0,3.54.2c9.17.07,15.15-5,15.15-15.69.07-9.31-5.38-14.23-14.09-14.23a21.27,21.27,0,0,0-4.6.4Z"/><path class="cls-12" d="M561.45,186.2a48.66,48.66,0,1,1-48.65-48.66A48.66,48.66,0,0,1,561.45,186.2Z"/><path class="cls-13" d="M513.17,201.49c-1.55.78-5,1.61-9.6,1.61-12.93,0-19.59-8-19.59-18.7,0-12.76,9.1-19.86,20.42-19.86a22,22,0,0,1,9.21,1.66l-1.72,6.71a18.27,18.27,0,0,0-7.1-1.38c-6.72,0-11.93,4.05-11.93,12.37,0,7.49,4.44,12.21,12,12.21a21.23,21.23,0,0,0,7-1.22Z"/><path class="cls-13" d="M533.33,202.54l-.5-2.71h-.17a9.8,9.8,0,0,1-7.77,3.33c-5.49,0-8.76-4-8.76-8.33,0-7,6.33-10.43,15.92-10.37v-.39c0-1.45-.78-3.5-4.93-3.5a15.29,15.29,0,0,0-7.5,2.05l-1.55-5.43a22.31,22.31,0,0,1,10.54-2.39c9,0,11.93,5.33,11.93,11.71v9.43a41.57,41.57,0,0,0,.39,6.6Zm-1-12.81c-4.44,0-7.88,1-7.88,4.27a3,3,0,0,0,3.33,3.22,4.6,4.6,0,0,0,4.38-3.11,6,6,0,0,0,.17-1.44Z"/><path class="cls-14" d="M1536.54,390.12a40.32,40.32,0,1,1,40.31-40.31A40.35,40.35,0,0,1,1536.54,390.12Zm0-77.73A37.42,37.42,0,1,0,1574,349.81,37.46,37.46,0,0,0,1536.54,312.39Z"/><path class="cls-14" d="M1534.6,352.25c-.1-2.59-.19-5.73-.19-8.86h-.1c-.67,2.75-1.57,5.82-2.4,8.35l-2.62,8.42h-3.81l-2.31-8.36c-.7-2.53-1.43-5.6-2-8.41h-.06c-.13,2.9-.23,6.24-.38,8.92l-.39,8.2h-4.51l1.38-21.57h6.49l2.11,7.2c.68,2.5,1.35,5.18,1.83,7.71h.1c.6-2.5,1.34-5.34,2-7.75l2.3-7.16h6.36l1.19,21.57h-4.77Z"/><path class="cls-14" d="M1558.19,344.86c-.06,1-.12,2.31-.12,4.63v8.74c0,3-.61,5.48-2.37,7a9.66,9.66,0,0,1-6.37,1.91,12.19,12.19,0,0,1-5.63-1.21l1-3.69a9.56,9.56,0,0,0,4.54,1.19c2.3,0,4.07-1.24,4.07-4.13v-1h-.07a5,5,0,0,1-4.22,2.05c-3.87,0-6.62-3.14-6.62-7.65,0-5,3.26-8.22,7.1-8.22a4.69,4.69,0,0,1,4.28,2.2h.07l.16-1.85Zm-5,6.37a4.09,4.09,0,0,0-.09-.9,2.68,2.68,0,0,0-2.63-2.15c-1.76,0-3.2,1.61-3.2,4.45,0,2.34,1.15,4.16,3.2,4.16a2.64,2.64,0,0,0,2.56-2,4.09,4.09,0,0,0,.16-1.28Z"/><path class="cls-11" d="M945.22,420.85l-2.48,1.23c-.16.08,3.4,6.16,3.4,6.16l2.35-1.48S945.07,420.93,945.22,420.85Z"/><path class="cls-11" d="M941.43,411.54l-2.64.84s2.35,6.64,2.49,6.57l2.55-1.09C943.69,417.91,941.43,411.54,941.43,411.54Z"/><path class="cls-11" d="M939.07,401.75l-2.74.46s1.37,6.9,1.52,6.86l2.68-.71C940.39,408.39,939.07,401.75,939.07,401.75Z"/><path class="cls-11" d="M938.13,391.72l-2.78.08.18,3.5a28.31,28.31,0,0,0,.35,3.5l2.76-.33C938.51,398.48,938.13,391.72,938.13,391.72Z"/><path class="cls-11" d="M938.53,381.64l-2.76-.28-.3,3.49c-.13,1.75-.11,3.5-.11,3.5l2.77,0s0-1.69.11-3.38S938.53,381.64,938.53,381.64Z"/><path class="cls-11" d="M940.23,371.7l-2.7-.64s-.38,1.71-.75,3.42l-.56,3.47,2.74.41.54-3.35C939.86,373.36,940.23,371.7,940.23,371.7Z"/><path class="cls-11" d="M943.16,362l-2.59-1s-.6,1.65-1.19,3.3-1,3.37-1,3.37l2.68.75s.47-1.63.95-3.26Z"/><path class="cls-11" d="M947.3,352.84l-2.44-1.3-1.61,3.13c-.7,1.61-1.41,3.21-1.41,3.21L944.4,359l1.36-3.11Z"/><path class="cls-11" d="M952.63,344.31l-2.24-1.64-2,2.89c-1,1.47-1.84,3-1.84,3l2.39,1.41s.84-1.47,1.77-2.88Z"/><path class="cls-11" d="M959.14,336.66l-1.95-2-2.41,2.57A28.54,28.54,0,0,0,952.5,340l2.16,1.75a25.54,25.54,0,0,1,2.18-2.58Z"/><path class="cls-11" d="M966.87,330.32,965.31,328s-1.47,1-2.85,2.09a29.77,29.77,0,0,0-2.72,2.26l1.83,2.07a31.4,31.4,0,0,1,2.59-2.14C965.47,331.24,966.87,330.32,966.87,330.32Z"/><path class="cls-11" d="M975.67,325.71l-1-2.59a20.59,20.59,0,0,0-3.27,1.4l-3.15,1.63,1.38,2.4,3-1.53A18,18,0,0,1,975.67,325.71Z"/><path class="cls-11" d="M985.25,323.31l-.3-2.76-3.53.55c-1.74.38-3.46.89-3.46.89l.79,2.66s1.6-.48,3.22-.83Z"/><path class="cls-11" d="M995.11,323.58l.44-2.74a42.28,42.28,0,0,0-7.11-.48l.06,2.78A37.6,37.6,0,0,1,995.11,323.58Z"/><path class="cls-11" d="M1004.61,326.37l1.08-2.55a20.84,20.84,0,0,0-3.31-1.26c-1.7-.55-3.4-1-3.4-1l-.67,2.69s1.6.47,3.18,1A19.26,19.26,0,0,1,1004.61,326.37Z"/><path class="cls-11" d="M1013.32,331.21l1.58-2.28c.13-.21-6-3.69-6-3.69l-1.26,2.47S1013.46,331,1013.32,331.21Z"/><path class="cls-11" d="M1020.84,337.68l2.06-1.85-2.51-2.54a18.15,18.15,0,0,0-2.71-2.29l-1.73,2.17a16.19,16.19,0,0,1,2.55,2.15Z"/><path class="cls-11" d="M1026.22,345.84l2.53-1.13s-.71-1.67-1.58-3.23l-2.06-2.94-2.23,1.65,1.9,2.7C1025.57,344.33,1026.22,345.84,1026.22,345.84Z"/><path class="cls-11" d="M1028.62,355.26l2.76-.21s-.11-1.81-.4-3.58L1030,348l-2.64.85s.42,1.58.85,3.16C1028.51,353.61,1028.62,355.26,1028.62,355.26Z"/><path class="cls-11" d="M1027.79,365l2.69.66s.36-1.75.71-3.51c.2-1.78.27-3.59.27-3.59l-2.78-.09s-.06,1.65-.24,3.29S1027.79,365,1027.79,365Z"/><path class="cls-11" d="M1024.25,374.23l2.44,1.32,1.52-3.22a14.42,14.42,0,0,0,.92-2.27c.21-.63.36-1.06.36-1.06l-2.63-.89s-.13.4-.33,1a12.26,12.26,0,0,1-.86,2.12Z"/><path class="cls-11" d="M1018.47,382.27l2,1.88a43,43,0,0,0,4.37-5.62l-2.33-1.52A39.26,39.26,0,0,1,1018.47,382.27Z"/><path class="cls-11" d="M1010.87,388.27l1.21,2.5a27.42,27.42,0,0,0,3.14-1.88c1.47-1.07,2.81-2.27,2.81-2.27l-1.85-2.06s-1.24,1.1-2.56,2.06A22.71,22.71,0,0,1,1010.87,388.27Z"/><polygon class="cls-11" points="1001.28 390.8 1001.87 393.5 1008.62 392.03 1008.02 389.32 1001.28 390.8"/><path class="cls-11" d="M991.43,391.2l-.17,2.77c0,.32,7.15-.15,7.15-.14l-.37-2.76S991.44,391.52,991.43,391.2Z"/><path class="cls-11" d="M981.63,389.5l-.75,2.67,3.43.92a22,22,0,0,0,3.5.52l.36-2.75a20.28,20.28,0,0,1-3.3-.49Z"/><polygon class="cls-11" points="972.3 385.95 971.05 388.42 977.54 391.24 978.47 388.62 972.3 385.95"/><path class="cls-11" d="M963.78,380.64l-1.62,2.25a17,17,0,0,0,2.88,2l3,1.81,1.39-2.41-2.9-1.73A15.76,15.76,0,0,1,963.78,380.64Z"/><path class="cls-11" d="M956,374.21l-1.88,2,2.57,2.37a34.53,34.53,0,0,0,2.74,2.19l1.72-2.18s-1.39-1-2.65-2.1Z"/><path class="cls-11" d="M948.87,367l-2.06,1.87s4.67,5.18,4.79,5.07l1.95-2C953.44,372.06,948.87,367,948.87,367Z"/><polygon class="cls-11" points="942.32 359.21 940.13 360.92 944.51 366.33 946.62 364.53 942.32 359.21"/><polygon class="cls-11" points="936.25 351.01 933.97 352.6 938.05 358.23 940.26 356.56 936.25 351.01"/><polygon class="cls-11" points="930.57 342.51 928.23 344.01 932.05 349.81 934.34 348.25 930.57 342.51"/><polygon class="cls-11" points="925.2 333.79 922.82 335.21 926.42 341.14 928.78 339.67 925.2 333.79"/><polygon class="cls-11" points="920.09 324.93 917.67 326.28 921.1 332.29 923.5 330.9 920.09 324.93"/><polygon class="cls-11" points="915.17 315.93 912.72 317.24 916.01 323.33 918.44 321.98 915.17 315.93"/><polygon class="cls-11" points="910.4 306.84 907.93 308.12 911.12 314.26 913.57 312.96 910.4 306.84"/><polygon class="cls-11" points="905.74 297.7 903.26 298.95 906.37 305.12 908.84 303.86 905.74 297.7"/><polygon class="cls-11" points="901.15 288.51 898.67 289.74 901.74 295.93 904.22 294.68 901.15 288.51"/><rect class="cls-11" x="895.5" y="279.55" width="2.77" height="6.9" transform="translate(-33.01 423.68) rotate(-26.11)"/><polygon class="cls-11" points="892.07 270.06 889.59 271.29 892.63 277.48 895.12 276.26 892.07 270.06"/><polygon class="cls-11" points="887.51 260.85 885.02 262.09 888.09 268.26 890.58 267.04 887.51 260.85"/><polygon class="cls-11" points="882.88 251.66 880.41 252.92 883.52 259.06 886 257.82 882.88 251.66"/><polygon class="cls-11" points="878.15 242.5 875.7 243.79 878.87 249.92 881.34 248.64 878.15 242.5"/><polygon class="cls-11" points="873.27 233.43 870.84 234.77 874.11 240.82 876.56 239.51 873.27 233.43"/><polygon class="cls-11" points="868.18 224.45 865.78 225.86 869.19 231.83 871.61 230.47 868.18 224.45"/><path class="cls-11" d="M862.8,215.64l-2.34,1.48s1,1.42,1.83,2.91l1.77,2.95,2.37-1.44-1.78-3C863.79,217.07,862.8,215.64,862.8,215.64Z"/><path class="cls-11" d="M857,207l-2.27,1.6,2,2.79,1.87,2.88,2.32-1.53-1.9-2.91Z"/><path class="cls-11" d="M850.78,198.77l-2.15,1.75s1.08,1.32,2.15,2.65,2,2.74,2,2.74l2.23-1.64s-1-1.44-2.07-2.79Z"/><path class="cls-11" d="M843.87,191l-2,2s1.16,1.24,2.33,2.47,2.29,2.53,2.3,2.52l2.1-1.81s-1.14-1.32-2.36-2.58Z"/><path class="cls-11" d="M836.07,184l-1.69,2.2c.13-.18,5.15,4.4,5.14,4.4l1.9-2S836.22,183.84,836.07,184Z"/><path class="cls-11" d="M827.09,178.47l-1.2,2.5,3,1.52a21.28,21.28,0,0,1,2.8,1.83l1.55-2.29a21.61,21.61,0,0,0-3-1.94Z"/><path class="cls-11" d="M817.34,174.65l-.82,2.66c.05-.15,6.4,2.26,6.4,2.26l1-2.57S817.4,174.51,817.34,174.65Z"/><path class="cls-11" d="M807.15,172.22l-.43,2.74s6.65,1.27,6.61,1.42l.71-2.68C814.08,173.54,807.15,172.22,807.15,172.22Z"/><path class="cls-11" d="M796.66,171.46l.06,2.77s6.73.17,6.72.33l.28-2.75C803.74,171.64,796.66,171.46,796.66,171.46Z"/><path class="cls-11" d="M786.19,172.75l.62,2.7a49,49,0,0,1,6.62-1l-.23-2.76A49.1,49.1,0,0,0,786.19,172.75Z"/><path class="cls-11" d="M776.21,176.29l1.23,2.48,3-1.38,3.15-1.11-.82-2.65-3.36,1.19Z"/><path class="cls-11" d="M767.37,182.15l1.81,2.1a40.46,40.46,0,0,1,5.4-3.9L773.15,178A45.39,45.39,0,0,0,767.37,182.15Z"/><path class="cls-11" d="M760.27,190l2.29,1.56s1-1.37,2-2.65a21.4,21.4,0,0,1,2.23-2.47l-2-1.95a25.8,25.8,0,0,0-2.39,2.65C761.28,188.56,760.28,190,760.27,190Z"/><path class="cls-11" d="M755.52,199.55l2.63.88s.52-1.58,1.2-3.09a27.8,27.8,0,0,1,1.49-3L758.42,193a31.66,31.66,0,0,0-1.61,3.2C756.08,197.85,755.52,199.55,755.52,199.55Z"/><path class="cls-11" d="M753.8,210.11l2.77,0c-.26,0,.53-6.55.71-6.53l-2.71-.61C754.37,202.9,753.51,210.08,753.8,210.11Z"/><path class="cls-11" d="M756.08,220.67l2.51-1.18a26.55,26.55,0,0,1-1.12-3l-.55-2.17c-.07-.6-.12-1-.12-1l-2.74.39s.05.45.14,1.13l.6,2.44A30.58,30.58,0,0,0,756.08,220.67Z"/><path class="cls-11" d="M763.07,229l1.63-2.25a15.57,15.57,0,0,1-2.45-2.09,20.53,20.53,0,0,1-2.07-2.46l-2.28,1.58.71.92a12.39,12.39,0,0,0,1.66,1.91A19.24,19.24,0,0,0,763.07,229Z"/><path class="cls-11" d="M773,233.29l.6-2.71c-.07.23-6.28-1.92-6.15-2.18l-1.28,2.47C766,231.17,772.89,233.54,773,233.29Z"/><path class="cls-11" d="M783.68,233.68l-.44-2.74c0,.32-6.38.39-6.53.17l-.26,2.76C776.27,234.1,783.73,234,783.68,233.68Z"/><path class="cls-11" d="M793.76,230l-1.39-2.4c.12.26-6,2.81-6,2.62l.78,2.66C787.23,233.1,793.91,230.28,793.76,230Z"/><path class="cls-11" d="M802.06,223.33l-2-1.9c.16.17-4.87,4.52-5,4.41l1.64,2.24C796.81,228.2,802.23,223.5,802.06,223.33Z"/><path class="cls-11" d="M808.38,214.86,806,213.45l-1.8,2.83-2,2.68,2.17,1.74,2.12-2.85C807.43,216.36,808.38,214.86,808.38,214.86Z"/><path class="cls-11" d="M812.81,205.31l-2.61-.95A26.05,26.05,0,0,1,809,207.5c-.67,1.55-1.42,3.05-1.42,3.05L810,211.8s.79-1.58,1.49-3.21A28.45,28.45,0,0,0,812.81,205.31Z"/><path class="cls-11" d="M815.54,195.16l-2.73-.49s-.35,1.65-.69,3.31-.89,3.25-.89,3.25l2.66.79s.53-1.69.92-3.41S815.54,195.16,815.54,195.16Z"/><path class="cls-11" d="M816.47,184.68h-2.78a29.66,29.66,0,0,1-.12,3.37c-.08,1.69-.3,3.36-.29,3.36l2.75.33s.22-1.75.31-3.51A34.26,34.26,0,0,0,816.47,184.68Z"/><path class="cls-11" d="M815.61,174.21l-2.73.47.5,3.33c.12,1.69.25,3.36.25,3.36l2.77-.14s-.13-1.76-.27-3.52S815.61,174.21,815.61,174.21Z"/><path class="cls-11" d="M812.87,164l-2.6,1,1.06,3.19a20.15,20.15,0,0,1,.87,3.25l2.7-.64a20.61,20.61,0,0,0-.92-3.42C813.43,165.72,812.87,164,812.87,164Z"/><path class="cls-11" d="M808.15,154.61l-2.35,1.48a24.71,24.71,0,0,1,1.68,2.9c.82,1.47,1.51,3,1.51,3l2.53-1.15s-.74-1.61-1.59-3.17A27.56,27.56,0,0,0,808.15,154.61Z"/><path class="cls-11" d="M801.67,146.29l-2,1.92a24,24,0,0,1,2.25,2.49l2.08,2.64,2.24-1.63L804,148.93A26.13,26.13,0,0,0,801.67,146.29Z"/><path class="cls-11" d="M793.72,139.39l-1.62,2.26s1.4.94,2.7,2l2.53,2.21,1.89-2s-1.34-1.15-2.67-2.33S793.72,139.39,793.72,139.39Z"/><path class="cls-11" d="M784.72,134l-1.23,2.49a24.44,24.44,0,0,1,3,1.56l2.9,1.72,1.49-2.33-3-1.81A27.08,27.08,0,0,0,784.72,134Z"/><path class="cls-15" d="M1167.67,197l1.37-1.26,5.37,5.83a4.32,4.32,0,0,0,6.07.26l4.68-4.28a6.19,6.19,0,0,1,8.72.42l3.52,3.89a4.29,4.29,0,0,0,3,1.41,4.35,4.35,0,0,0,3.12-1.16l4.09-3.84a6,6,0,0,1,4.62-1.66,6.15,6.15,0,0,1,4.36,2.23l2.18,2.66a4.32,4.32,0,0,0,6.53.14l5-5.55,1.39,1.24-5,5.55a6.16,6.16,0,0,1-9.35-.2l-2.17-2.65a4.29,4.29,0,0,0-6.27-.41l-4.1,3.84a6.15,6.15,0,0,1-8.78-.35l-3.53-3.89a4.28,4.28,0,0,0-3-1.39,4.16,4.16,0,0,0-3.08,1.11l-4.68,4.26a6.2,6.2,0,0,1-8.7-.37Z"/><path class="cls-14" d="M1632.05,336.65a6.85,6.85,0,1,1,6.85-6.85A6.86,6.86,0,0,1,1632.05,336.65Zm0-11.33a4.48,4.48,0,1,0,4.48,4.48A4.49,4.49,0,0,0,1632.05,325.32Z"/><path class="cls-14" d="M829.56,256.17a6.85,6.85,0,1,1,6.85-6.85A6.85,6.85,0,0,1,829.56,256.17Zm0-11.33a4.48,4.48,0,1,0,4.48,4.48A4.49,4.49,0,0,0,829.56,244.84Z"/><path class="cls-11" d="M1261.39,233.87a6.85,6.85,0,1,1,6.85-6.86A6.86,6.86,0,0,1,1261.39,233.87Zm0-11.33a4.48,4.48,0,1,0,4.48,4.47A4.48,4.48,0,0,0,1261.39,222.54Z"/><path class="cls-11" d="M1633.28,345.55l1.35,1.42-6.07,5.78a4.57,4.57,0,0,0-.19,6.42l4.6,4.88a6.52,6.52,0,0,1,1.75,4.67,6.36,6.36,0,0,1-2,4.56l-4.06,3.8a4.52,4.52,0,0,0-.16,6.48l4.13,4.28a6.51,6.51,0,0,1-.47,9.51l-2.77,2.34a4.55,4.55,0,0,0,0,6.92l6,5.17-1.29,1.49-6-5.18a6.57,6.57,0,0,1-2.24-5,6.48,6.48,0,0,1,2.3-4.93l2.77-2.35a4.51,4.51,0,0,0,.33-6.63l-4.12-4.27a6.52,6.52,0,0,1,.22-9.3l4.06-3.8a4.58,4.58,0,0,0,.21-6.44l-4.59-4.88a6.52,6.52,0,0,1,.27-9.19Z"/><path class="cls-14" d="M316.19,451.8a6.85,6.85,0,1,1,6.85-6.86A6.86,6.86,0,0,1,316.19,451.8Zm0-11.33a4.48,4.48,0,1,0,4.48,4.47A4.48,4.48,0,0,0,316.19,440.47Z"/><path class="cls-11" d="M317.42,460.69l1.35,1.43-6.07,5.78a4.56,4.56,0,0,0-.19,6.42l4.6,4.88a6.5,6.5,0,0,1,1.75,4.67,6.36,6.36,0,0,1-2.05,4.56l-4.06,3.8a4.52,4.52,0,0,0-.16,6.48l4.13,4.28a6.51,6.51,0,0,1-.47,9.51l-2.78,2.34a4.55,4.55,0,0,0,0,6.91l6,5.18-1.3,1.49-5.95-5.18a6.57,6.57,0,0,1-2.24-5,6.48,6.48,0,0,1,2.3-4.93L315,511a4.52,4.52,0,0,0,.33-6.64l-4.12-4.26a6.53,6.53,0,0,1,.22-9.31l4.06-3.79a4.58,4.58,0,0,0,.21-6.44l-4.59-4.89a6.51,6.51,0,0,1,.27-9.18Z"/><path class="cls-16" d="M1563.23,862.52s-27.52-67.43-7.87-148c8.11-33.27,23-77.74-8.16-128.52-35.75-58.2-65.49-129.2-86.17-130s0,95.5,5.86,111.27,30.69,262.7,30.69,262.7Z"/><path class="cls-17" d="M1470.57,518.15s40.79,48.46,41.74,82.39,30.74,74.35,13.43,122.79-59.32-168.84-59.32-168.84Z"/><path class="cls-16" d="M395.79,861.59s27.52-67.44,7.87-148c-8.11-33.26-23-77.73,8.16-128.51,35.75-58.2,65.49-129.21,86.16-130s0,95.51-5.85,111.27S461.44,829,461.44,829Z"/><path class="cls-17" d="M488.45,517.21s-40.79,48.47-41.74,82.39S416,674,433.28,722.4,492.6,553.56,492.6,553.56Z"/><path class="cls-12" d="M1508.84,248.23c-5.31,17.26-41.63,33.8-48.44,78.75s-24.74,69.23,30,271.07c8.81,32.49,30,105.44-64,118.5-36.08,5-109.33,1.41-145.74,0-34.64-1.35-101-15.41-72.93-127.85,18.41-73.59,82.07-167.92,40.46-288.16-7-20.06-9.12-50.77,78.77-32.14,30,6.37,56.2,2.1,100.35-20C1473.58,225.28,1515,228.06,1508.84,248.23Z"/><path class="cls-12" d="M1273.18,340.22s-80.66-39.29-102.45,21.3-36.33,175-14.53,191.35,29.58-154.37,53.11-172.75c20.9-16.36,46-5.24,78.2,16.57Z"/><g class="cls-18"><path class="cls-13" d="M1305.88,300.24c56.42,0,109.1-23.45,127.77-35.06s47.07-15.46,62.4-16.76c6.9-.58,11.65-2.63,12.51-6.55s-5.47-6.78-6.36-7.34a17.89,17.89,0,0,0-2.71-.78c1.9,2,4.72,4.23,4,6.23-.58,1.54-3.45,2.64-7.87,3-15.82,1.35-45.27,5.41-64.82,17.57-1,.6-99.3,59.25-185.58,23.15,0,0-.44,5.64.24,6C1259.81,296.21,1284.43,300.24,1305.88,300.24Z"/></g><path class="cls-19" d="M1414.26,688H1292.05s-87.55-2.72-64-93.88c9.18-35.5,32.8-80.44,43.06-131.55h167.51c3.94,29.18,12.54,69.66,29.28,129.35C1475.32,618.22,1490.78,667,1414.26,688Z"/><path class="cls-20" d="M1271.15,462.46c0,6.4,37.5,11.58,83.75,11.58s83.74-5.18,83.74-11.58-37.49-11.58-83.74-11.58S1271.15,456.06,1271.15,462.46Z"/><g class="cls-21"><path class="cls-13" d="M1470,271.9c8-10.55-64.33,14.5-72.63,88.89-5.5,49.3-.31,205.88-2.58,243.5-2.27,37.78-2.74,77.94,29,71.14s42.16-47.23,30.66-101.73S1396.61,368.6,1470,271.9Z"/></g><path class="cls-22" d="M1086.2,568.36l-194-.8s-1.06-45.35-1.06-60.47c0-16.63,1.06-66.5,1.06-66.5l193.78-.3s2.13,50.29,2.12,67C1088.14,522.33,1086.2,568.36,1086.2,568.36Z"/><path class="cls-23" d="M1058,649.4H920.77a28.21,28.21,0,0,1-28.18-28.17c-.05-1.45-5.05-149.59,0-198.41,2.33-22.51,13.3-56.1,23.91-88.58,11-33.62,22.34-68.38,24.37-91.37.7-7.83,0-31.78,0-32l0-1.39h97.08l0,1.39c0,.24-.71,24.18,0,32,2,23,13.4,57.79,24.39,91.42,10.6,32.46,21.56,66,23.9,88.53,5,48.82.06,197,0,198.45A28.21,28.21,0,0,1,1058,649.4ZM943.62,212.16c.14,5.31.57,24,0,31-2.07,23.3-13.48,58.21-24.5,92-10.57,32.35-21.5,65.8-23.8,88-5,48.65,0,196.6,0,198.09a25.52,25.52,0,0,0,25.48,25.52H1058a25.51,25.51,0,0,0,25.49-25.47c0-1.54,5-149.49,0-198.14-2.31-22.19-13.23-55.63-23.79-87.95-11-33.79-22.44-68.72-24.51-92-.62-7-.18-25.64,0-31Z"/><path class="cls-22" d="M1053.09,209a16.09,16.09,0,0,1-16.08,16.1H942.23a16.1,16.1,0,0,1-16.1-16.1v-5.36a16.09,16.09,0,0,1,16.1-16.1H1037a16.09,16.09,0,0,1,16.08,16.1Z"/><path class="cls-12" d="M763.14,278.88c-14.39-4.68-51.25-29.1-46.79-50.56l-113.83,1.84s.26,21.5-22.94,41.12c-36.53,30.88-92.52,57.86-94.53,231.09S470.91,751.88,575.9,765.11c0,0,90.07,10.29,192.43-.52,34.92-3.7,80.23-8.14,91.23-142.49C866.46,537.82,916.28,328.72,763.14,278.88Zm54.4,227.39c-45.47,31.25-97.39-125.49-85.29-156.2,7.55-19.19,28.75-23.24,51.08-14.32C814.67,348.29,875.76,466.29,817.54,506.27Z"/><path class="cls-24" d="M584.91,542.39s-51.32-.83-53.41,38.58c-1.61,30.46-24.18,120.6,36.89,129.23s220.52,25.24,224.31-37.37,15.24-123.66-29.19-127.22C726.47,542.64,584.91,542.39,584.91,542.39Z"/><polygon class="cls-25" points="727.76 230.02 592.12 232.22 591.55 197.38 727.19 195.19 727.76 230.02"/><path class="cls-25" d="M727.76,230c.08,5.11-30.22,9.76-67.67,10.36s-67.89-3-68-8.17,30.23-9.75,67.68-10.35S727.67,224.9,727.76,230Z"/><path class="cls-24" d="M727.18,194.44c.08,5.12-30.22,9.76-67.66,10.37s-67.89-3.05-68-8.17,30.21-9.76,67.67-10.37S727.1,189.32,727.18,194.44Z"/><path class="cls-13" d="M624.88,628.67c-.24-6.4-.47-14.15-.47-21.89h-.25c-1.66,6.79-3.87,14.38-5.92,20.63l-6.48,20.78h-9.4l-5.7-20.63c-1.74-6.24-3.56-13.83-4.81-20.78h-.16c-.31,7.19-.55,15.4-1,22l-1,20.24H578.65L582,595.8h16.05l5.22,17.77c1.66,6.17,3.31,12.81,4.5,19h.24c1.49-6.17,3.32-13.19,5.05-19.13l5.7-17.69h15.72l2.92,53.26H625.67Z"/><path class="cls-13" d="M658.8,595.8v53.26H646.71V595.8Z"/><path class="cls-13" d="M669.23,595.8h12.08V639h21.18v10.11H669.23Z"/><path class="cls-13" d="M709.62,595.8h11.93v23.54h.23c1.2-2.05,2.46-3.94,3.64-5.85l12.09-17.69h14.78l-17.62,22.68,18.57,30.58H739.17l-13-23-4.58,5.61v17.39H709.62Z"/><g class="cls-21"><path class="cls-13" d="M591.54,288.43s15.56-1.11,20.91,18.18c10.69,38.48-103.7,16.77-80.44,209.51,1.12,9.24-1.36,25-14.43.8S483.61,351.77,591.54,288.43Z"/></g><path class="cls-26" d="M755.81,577.94s15.72,175.89,141.94,188.5,315.73,4.72,301.12-202.13Z"/><path class="cls-27" d="M1198.87,564.31c1.14,37-97.12,70-219.47,73.79S757,614.92,755.81,577.94s97.12-70,219.47-73.79S1197.74,527.33,1198.87,564.31Z"/><path class="cls-28" d="M1174.15,565.07c.94,30.74-87.79,58.41-198.19,61.8s-200.66-18.77-201.6-49.5S862.13,519,972.54,515.58,1173.2,534.34,1174.15,565.07Z"/><path class="cls-29" d="M976,626.87c95.13-2.92,174.1-23.88,193.54-49.27-21-24.16-101.07-40.22-196.2-37.29s-174.11,23.88-193.55,49.27C800.72,613.74,880.83,629.8,976,626.87Z"/><path class="cls-28" d="M1198.53,610.64c-15.81,31.88-50.71,89.33-97.56,90.77-64.9,2-79.58-5.81-112.1,9.63-26.12,12.39-101.45,30.94-163,23.83a124.57,124.57,0,0,0,71.93,31.57C1013.75,778,1183.25,772.3,1198.53,610.64Z"/><path class="cls-29" d="M874.24,505.47a16.8,16.8,0,1,1-19.18-14A16.82,16.82,0,0,1,874.24,505.47Z"/><path class="cls-29" d="M907.81,487.23a22.93,22.93,0,1,1-26.17-19.17A22.93,22.93,0,0,1,907.81,487.23Z"/><path class="cls-29" d="M933.58,495.31A17.25,17.25,0,1,1,913.9,480.9,17.26,17.26,0,0,1,933.58,495.31Z"/><path class="cls-29" d="M960.37,499.87a16.4,16.4,0,1,1-18.72-13.7A16.4,16.4,0,0,1,960.37,499.87Z"/><path class="cls-29" d="M982.05,501.83a13.87,13.87,0,1,1-15.83-11.57A13.87,13.87,0,0,1,982.05,501.83Z"/><path class="cls-29" d="M1008.94,488.29a20.43,20.43,0,1,1-23.31-17.05A20.42,20.42,0,0,1,1008.94,488.29Z"/><path class="cls-29" d="M1037.82,487.89a16.4,16.4,0,1,1-18.72-13.7A16.4,16.4,0,0,1,1037.82,487.89Z"/><path class="cls-29" d="M850.34,519.68a16,16,0,1,1-18.29-13.38A16,16,0,0,1,850.34,519.68Z"/><path class="cls-29" d="M1066,502.2a16.06,16.06,0,1,1-18.33-13.4A16.05,16.05,0,0,1,1066,502.2Z"/><path class="cls-29" d="M833.06,550.4a16.81,16.81,0,1,1-19.19-14A16.82,16.82,0,0,1,833.06,550.4Z"/><path class="cls-29" d="M866.62,532.15A22.93,22.93,0,1,1,840.46,513,22.92,22.92,0,0,1,866.62,532.15Z"/><path class="cls-29" d="M892.39,540.24a17.25,17.25,0,1,1-19.69-14.41A17.27,17.27,0,0,1,892.39,540.24Z"/><path class="cls-29" d="M919.18,544.81a16.4,16.4,0,1,1-18.72-13.7A16.39,16.39,0,0,1,919.18,544.81Z"/><path class="cls-29" d="M940.86,546.77A13.87,13.87,0,1,1,925,535.19,13.87,13.87,0,0,1,940.86,546.77Z"/><path class="cls-29" d="M967.76,533.23a20.43,20.43,0,1,1-23.31-17.06A20.42,20.42,0,0,1,967.76,533.23Z"/><path class="cls-29" d="M996.63,532.82a16.41,16.41,0,1,1-18.72-13.69A16.4,16.4,0,0,1,996.63,532.82Z"/><path class="cls-29" d="M809.15,564.61a16,16,0,1,1-18.29-13.38A16,16,0,0,1,809.15,564.61Z"/><path class="cls-29" d="M1024.76,547.14a16.06,16.06,0,1,1-18.34-13.41A16.06,16.06,0,0,1,1024.76,547.14Z"/><path class="cls-29" d="M947.67,487.66A16.8,16.8,0,1,1,932,469.82,16.82,16.82,0,0,1,947.67,487.66Z"/><path class="cls-29" d="M984.37,477a22.93,22.93,0,1,1-21.43-24.33A22.93,22.93,0,0,1,984.37,477Z"/><path class="cls-29" d="M1007.81,490.48a17.26,17.26,0,1,1-16.14-18.31A17.24,17.24,0,0,1,1007.81,490.48Z"/><path class="cls-29" d="M1033,500.68a16.4,16.4,0,1,1-15.34-17.39A16.39,16.39,0,0,1,1033,500.68Z"/><path class="cls-29" d="M1053.75,507.27a13.88,13.88,0,1,1-13-14.72A13.88,13.88,0,0,1,1053.75,507.27Z"/><path class="cls-29" d="M1082.93,499.81a20.43,20.43,0,1,1-19.1-21.67A20.43,20.43,0,0,1,1082.93,499.81Z"/><path class="cls-29" d="M1111.21,505.61a16.41,16.41,0,1,1-15.33-17.39A16.41,16.41,0,0,1,1111.21,505.61Z"/><path class="cls-29" d="M921.28,496.41a16,16,0,1,1-15-17A16,16,0,0,1,921.28,496.41Z"/><path class="cls-29" d="M1135.61,525.65a16.06,16.06,0,1,1-15-17A16,16,0,0,1,1135.61,525.65Z"/><path class="cls-29" d="M991.21,523.14a16.8,16.8,0,1,1-15.72-17.84A16.82,16.82,0,0,1,991.21,523.14Z"/><path class="cls-29" d="M1027.91,512.51a22.93,22.93,0,1,1-21.44-24.33A22.92,22.92,0,0,1,1027.91,512.51Z"/><path class="cls-29" d="M1051.35,526a17.26,17.26,0,1,1-16.14-18.31A17.25,17.25,0,0,1,1051.35,526Z"/><path class="cls-29" d="M1076.52,536.17a16.4,16.4,0,1,1-15.33-17.41A16.4,16.4,0,0,1,1076.52,536.17Z"/><path class="cls-29" d="M1097.29,542.73a13.88,13.88,0,1,1-13-14.7A13.89,13.89,0,0,1,1097.29,542.73Z"/><path class="cls-29" d="M1126.47,535.29a20.44,20.44,0,1,1-19.11-21.67A20.44,20.44,0,0,1,1126.47,535.29Z"/><path class="cls-29" d="M1154.75,541.09a16.41,16.41,0,1,1-15.34-17.39A16.42,16.42,0,0,1,1154.75,541.09Z"/><path class="cls-29" d="M964.81,531.87a16,16,0,1,1-15-17A16,16,0,0,1,964.81,531.87Z"/><path class="cls-29" d="M1179.15,561.12a16.07,16.07,0,1,1-15-17A16.06,16.06,0,0,1,1179.15,561.12Z"/><path class="cls-29" d="M779.75,589.58s63.79-106.28,185.4-110.34c103.55-3.47,173.56,55.66,204.35,98.36C1169.5,577.6,966.87,637.15,779.75,589.58Z"/><path class="cls-30" d="M915.58,533a20.09,20.09,0,1,1-20.7-19.47A20.08,20.08,0,0,1,915.58,533Z"/><path class="cls-30" d="M958,516.25a27.39,27.39,0,1,1-28.2-26.55A27.38,27.38,0,0,1,958,516.25Z"/><path class="cls-30" d="M987.45,529.61a20.62,20.62,0,1,1-21.24-20A20.62,20.62,0,0,1,987.45,529.61Z"/><path class="cls-30" d="M1018.56,538.94a19.61,19.61,0,1,1-20.2-19A19.61,19.61,0,0,1,1018.56,538.94Z"/><path class="cls-30" d="M1044,544.45a16.57,16.57,0,1,1-17.08-16.05A16.58,16.58,0,0,1,1044,544.45Z"/><path class="cls-30" d="M1077.87,532.33a24.41,24.41,0,1,1-25.14-23.65A24.41,24.41,0,0,1,1077.87,532.33Z"/><path class="cls-30" d="M1112.2,536.06a19.6,19.6,0,1,1-20.21-19A19.61,19.61,0,0,1,1112.2,536.06Z"/><path class="cls-30" d="M885.15,546.36a19.16,19.16,0,1,1-19.75-18.57A19.16,19.16,0,0,1,885.15,546.36Z"/><path class="cls-30" d="M1129.22,547.18a12.71,12.71,0,1,1-13.1-12.31A12.72,12.72,0,0,1,1129.22,547.18Z"/><path class="cls-29" d="M998.83,548.29a12.62,12.62,0,0,0-6.65,2.07c-.54-6.44-7.61-11.4-16.13-11.13A18.92,18.92,0,0,0,966,542.4c-3.55-9.91-15.58-16.95-29.65-16.52-15.85.48-28.54,10.28-29.29,22.27a18.47,18.47,0,0,0-6.58-1c-8.36.26-25.3,6.59-25.1,13,0,.22.11,4.2.14,4.42l134.31-4.13C1009.65,556,1004.67,548.11,998.83,548.29Z"/><path class="cls-13" d="M870.88,577.92A12.56,12.56,0,1,1,858,565.76,12.55,12.55,0,0,1,870.88,577.92Z"/><path class="cls-13" d="M897.42,567.48a17.12,17.12,0,1,1-17.64-16.6A17.1,17.1,0,0,1,897.42,567.48Z"/><path class="cls-13" d="M915.8,575.82a12.9,12.9,0,1,1-13.28-12.49A12.88,12.88,0,0,1,915.8,575.82Z"/><path class="cls-13" d="M931.94,576.39a12.26,12.26,0,1,1-12.63-11.88A12.25,12.25,0,0,1,931.94,576.39Z"/><path class="cls-13" d="M851.85,586.28a12,12,0,1,1-12.33-11.6A12,12,0,0,1,851.85,586.28Z"/><path class="cls-29" d="M920.74,588.66a8.16,8.16,0,0,0-4.36,1.36c-.34-4.23-5-7.46-10.54-7.29a12.37,12.37,0,0,0-6.61,2.09c-2.32-6.48-10.18-11.11-19.38-10.83-10.37.32-18.67,6.74-19.16,14.58a11.79,11.79,0,0,0-4.31-.64c-5.46.17-16.55,4.3-16.42,8.48,0,.16.08,2.75.09,2.9l87.85-2.7C927.81,593.68,924.56,588.54,920.74,588.66Z"/><path class="cls-29" d="M1116.73,557.05a9.27,9.27,0,0,0-4.88,1.51c-.38-4.71-5.56-8.34-11.8-8.15a13.8,13.8,0,0,0-7.38,2.33c-2.61-7.25-11.4-12.41-21.72-12.1-11.59.36-20.88,7.53-21.42,16.31a13.52,13.52,0,0,0-4.83-.71c-6.11.19-18.52,4.8-18.38,9.49,0,.16.09,3.09.1,3.25l98.33-3C1124.65,562.67,1121,556.92,1116.73,557.05Z"/><path class="cls-31" d="M960.42,537.54c-.64-1.36-1.61-2.64-2.11-2.14-.7.67-.3,2.77-.3,2.77s-2.28-1.16-3.4,0,2.82,2.49,2.82,2.49a5.24,5.24,0,0,0-3.12,1.11c-1.36.9,1.43,1.63,3.06,2a11.37,11.37,0,1,0,3-6.19Z"/><path class="cls-32" d="M960.42,537.54c-.64-1.36-1.61-2.64-2.11-2.14-.7.67-.3,2.77-.3,2.77s-2.28-1.16-3.4,0,2.82,2.49,2.82,2.49a5.24,5.24,0,0,0-3.12,1.11c-1.36.9,1.43,1.63,3.06,2a11.36,11.36,0,0,0,11,13.09,12.92,12.92,0,0,0-.79-22.49,3.93,3.93,0,0,0-.43-.18A11.34,11.34,0,0,0,960.42,537.54Z"/><path class="cls-33" d="M959.08,546.2c-.13-2.19,0-5.32,3.64-6.68s5.36,2.45,5.07,6.11,1.39,6.94.48,7.77S959.62,554.24,959.08,546.2Z"/><path class="cls-31" d="M1053.52,557.63c2.12-.19,4.32-.84,3.91-1.75-.55-1.28-3.56-1.81-3.56-1.81s2.69-2.44,1.7-4.52-4.75,2.52-4.75,2.52.82-1.63.07-4.75c-.51-2.25-2.88,1.11-4.14,3.14a16.22,16.22,0,1,0,6.77,7.17Z"/><path class="cls-32" d="M1053.52,557.63c2.12-.19,4.32-.84,3.91-1.75-.55-1.28-3.56-1.81-3.56-1.81s2.69-2.44,1.7-4.52-4.75,2.52-4.75,2.52.82-1.63.07-4.75c-.51-2.25-2.88,1.11-4.14,3.14a16.2,16.2,0,0,0-23,8.26,18.26,18.26,0,0,0,4.38,8.82,18.49,18.49,0,0,0,26.09,1.33c.17-.15.32-.32.48-.47A16.44,16.44,0,0,0,1053.52,557.63Z"/><path class="cls-33" d="M1042.58,551.53c3,.89,7.11,2.68,7.13,8.19s-6,5.94-10.7,3.73-10-1.6-10.65-3.22S1031.56,548.24,1042.58,551.53Z"/><path class="cls-31" d="M975,496c1.21-.11,2.47-.48,2.23-1-.3-.73-2-1-2-1s1.53-1.4,1-2.59-2.71,1.44-2.71,1.44a4.31,4.31,0,0,0,0-2.72c-.3-1.29-1.65.65-2.38,1.8A9.3,9.3,0,1,0,975,496Z"/><path class="cls-32" d="M975,496c1.21-.11,2.47-.48,2.23-1-.3-.73-2-1-2-1s1.53-1.4,1-2.59-2.71,1.44-2.71,1.44a4.31,4.31,0,0,0,0-2.72c-.3-1.29-1.65.65-2.38,1.8a9.33,9.33,0,0,0-10.77,1.22,9.17,9.17,0,0,0-2.41,3.52,10.42,10.42,0,0,0,2.52,5.05,10.6,10.6,0,0,0,14.94.76l.27-.28A9.32,9.32,0,0,0,975,496Z"/><path class="cls-33" d="M968.71,492.47c1.71.52,4.07,1.55,4.08,4.71s-3.41,3.4-6.13,2.14-5.73-.92-6.09-1.85S962.39,490.61,968.71,492.47Z"/><path class="cls-31" d="M862.46,511c-.65-1.34-1.6-2.63-2.11-2.14-.7.68-.31,2.78-.31,2.78s-2.27-1.16-3.39,0,2.81,2.5,2.81,2.5a5.21,5.21,0,0,0-3.12,1.1c-1.36.91,1.44,1.63,3.07,2a11.37,11.37,0,1,0,3.05-6.19Z"/><path class="cls-32" d="M862.46,511c-.65-1.34-1.6-2.63-2.11-2.14-.7.68-.31,2.78-.31,2.78s-2.27-1.16-3.39,0,2.81,2.5,2.81,2.5a5.21,5.21,0,0,0-3.12,1.1c-1.36.91,1.44,1.63,3.07,2a11.32,11.32,0,0,0,6,11.81,11.1,11.1,0,0,0,5.05,1.28,13.09,13.09,0,0,0,4.72-5,13,13,0,0,0-5.5-17.45l-.43-.18A11.43,11.43,0,0,0,862.46,511Z"/><path class="cls-33" d="M861.13,519.7c-.15-2.19,0-5.33,3.63-6.67s5.34,2.44,5.06,6.09,1.41,7,.5,7.77S861.65,527.73,861.13,519.7Z"/><path class="cls-31" d="M933.66,588.36c1.48-.15,3-.63,2.72-1.24-.4-.92-2.5-1.27-2.5-1.27s1.86-1.73,1.15-3.17-3.29,1.8-3.29,1.8a5.43,5.43,0,0,0,0-3.32c-.39-1.58-2,.8-2.87,2.23a11.38,11.38,0,1,0,4.79,5Z"/><path class="cls-32" d="M933.66,588.36c1.48-.15,3-.63,2.72-1.24-.4-.92-2.5-1.27-2.5-1.27s1.86-1.73,1.15-3.17-3.29,1.8-3.29,1.8a5.43,5.43,0,0,0,0-3.32c-.39-1.58-2,.8-2.87,2.23A11.41,11.41,0,0,0,915.71,585a11.18,11.18,0,0,0-2.9,4.33,12.9,12.9,0,0,0,21.42,6.84,2.5,2.5,0,0,0,.33-.32A11.49,11.49,0,0,0,933.66,588.36Z"/><path class="cls-33" d="M926,584.17c2.1.6,5,1.81,5,5.69s-4.1,4.18-7.45,2.69-7-1-7.48-2.17S918.21,582,926,584.17Z"/><path class="cls-31" d="M1116,552.13c-.63-1.35-1.6-2.63-2.11-2.14-.69.67-.32,2.78-.32,2.78s-2.24-1.17-3.37,0,2.81,2.49,2.81,2.49a5.17,5.17,0,0,0-3.13,1.12c-1.34.89,1.44,1.63,3.08,2a11.36,11.36,0,1,0,3-6.19Z"/><path class="cls-32" d="M1116,552.13c-.63-1.35-1.6-2.63-2.11-2.14-.69.67-.32,2.78-.32,2.78s-2.24-1.17-3.37,0,2.81,2.49,2.81,2.49a5.17,5.17,0,0,0-3.13,1.12c-1.34.89,1.44,1.63,3.08,2a11.36,11.36,0,0,0,6,11.81,11,11,0,0,0,5.06,1.28,12.68,12.68,0,0,0,4.7-5,12.92,12.92,0,0,0-5.49-17.43,3.11,3.11,0,0,1-.41-.2A11.6,11.6,0,0,0,1116,552.13Z"/><path class="cls-33" d="M1114.63,560.8c-.13-2.19,0-5.34,3.64-6.69s5.35,2.46,5.07,6.11,1.38,6.95.48,7.78S1115.16,568.83,1114.63,560.8Z"/><path class="cls-34" d="M1358.47,745,1218.68,392.56h-28.45c3.74,2,5.12,105.68,5.12,110.23a11.93,11.93,0,0,1-11.93,11.93,11.3,11.3,0,0,1-1.55-.15l-20.58,63.74a28.12,28.12,0,0,1-15.89,49.19l-38,117.51Z"/><path class="cls-35" d="M1327.44,745,1190.23,392.56,1158,492.32a11.9,11.9,0,0,1-5.64,22.4,11.3,11.3,0,0,1-1.55-.15l-20.58,63.74a28.11,28.11,0,0,1-15.89,49.19L1076.42,745Z"/><path class="cls-36" d="M1160.49,699.55A20.59,20.59,0,1,1,1139.9,679,20.55,20.55,0,0,1,1160.49,699.55Z"/><path class="cls-37" d="M1139.9,679a19.2,19.2,0,1,0,20.52,19.16A20.56,20.56,0,0,0,1139.9,679Z"/><path class="cls-36" d="M1225.12,604.66a15.4,15.4,0,1,1-15.4-15.36A15.38,15.38,0,0,1,1225.12,604.66Z"/><path class="cls-37" d="M1209.72,589.3a14.37,14.37,0,1,0,15.35,14.34A15.36,15.36,0,0,0,1209.72,589.3Z"/><path class="cls-36" d="M1214.32,513.15a20.53,20.53,0,1,1-25.42,14A20.5,20.5,0,0,1,1214.32,513.15Z"/><path class="cls-37" d="M1188.9,527.13a19.2,19.2,0,1,0,24.1-14.3A20.51,20.51,0,0,0,1188.9,527.13Z"/><path class="cls-36" d="M1259,663.05a21.83,21.83,0,1,1-21.82-21.78A21.79,21.79,0,0,1,1259,663.05Z"/><path class="cls-37" d="M1237.15,641.27a20.37,20.37,0,1,0,21.76,20.33A21.82,21.82,0,0,0,1237.15,641.27Z"/><path class="cls-36" d="M1205.54,471a11.17,11.17,0,1,1-11.17-11.14A11.15,11.15,0,0,1,1205.54,471Z"/><path class="cls-37" d="M1194.37,459.89a10.42,10.42,0,1,0,11.13,10.4A11.15,11.15,0,0,0,1194.37,459.89Z"/><path class="cls-34" d="M1348.17,580.49l-31.94,16.31a5.81,5.81,0,0,1,.6,2.48c0,4.3-4.78,7.78-10.67,7.78a13.15,13.15,0,0,1-6.64-1.73L1188.58,662c0,.13.05.25.05.4,0,11.31-10.37,20.47-23.17,20.47a25.23,25.23,0,0,1-11.9-3l-184.39,94.3,109.48,11.06,417.23-155.49Z"/><polygon class="cls-35" points="1078.65 785.22 1495.88 629.73 1495.88 785.22 1320.96 781.66 1295.04 781.66 1078.65 785.22"/><path class="cls-38" d="M1495.88,785.22V687.05c-16.5,31.29-43.21,63.36-101.06,73.12-71.7,12.09-196.11,4.44-259.8,4l-56.37,21H1288.1l6.94-3.56H1321l5.65,3.56Z"/><path class="cls-37" d="M1327.44,779.83a20.09,20.09,0,0,0-40.18,0,19.53,19.53,0,0,0,.84,5.39l6.94-3.56H1321l5.65,3.56A19.91,19.91,0,0,0,1327.44,779.83Z"/><path class="cls-36" d="M1312.53,764.93a20,20,0,0,1,11.37,3.54,20.08,20.08,0,0,0-36.64,11.36,19.53,19.53,0,0,0,.84,5.39l6.94-3.56h0C1295,770.56,1301.44,764.93,1312.53,764.93Z"/><path class="cls-37" d="M1435.11,722a24.62,24.62,0,1,1-24.62-24.62A24.63,24.63,0,0,1,1435.11,722Z"/><path class="cls-36" d="M1392.92,726.17a24.62,24.62,0,0,1,24.62-24.61,24.34,24.34,0,0,1,8.64,1.63A24.55,24.55,0,1,0,1401.85,745,24.48,24.48,0,0,1,1392.92,726.17Z"/><path class="cls-37" d="M1222.2,763.63a13.11,13.11,0,1,1-13.11-13.11A13.12,13.12,0,0,1,1222.2,763.63Z"/><path class="cls-36" d="M1199.75,765.84a13.11,13.11,0,0,1,13.11-13.11,12.91,12.91,0,0,1,4.58.88,13,13,0,0,0-8.35-3.09,13.08,13.08,0,0,0-4.59,25.34A13,13,0,0,1,1199.75,765.84Z"/><path class="cls-37" d="M1342.49,717.77a15.06,15.06,0,1,1-15-15A15.06,15.06,0,0,1,1342.49,717.77Z"/><path class="cls-36" d="M1316.7,720.32A15,15,0,0,1,1337,706.27a15,15,0,1,0-14.88,25.56A15,15,0,0,1,1316.7,720.32Z"/><path class="cls-37" d="M1450,765.24a9.55,9.55,0,1,1-9.54-9.54A9.55,9.55,0,0,1,1450,765.24Z"/><path class="cls-36" d="M1433.62,766.86a9.54,9.54,0,0,1,9.54-9.55,9.33,9.33,0,0,1,3.35.64,9.52,9.52,0,1,0-9.43,16.21A9.5,9.5,0,0,1,1433.62,766.86Z"/><path class="cls-37" d="M1478.84,678.79a13.93,13.93,0,1,1-13.93-13.94A13.95,13.95,0,0,1,1478.84,678.79Z"/><path class="cls-36" d="M1455,681.14a13.94,13.94,0,0,1,14-13.93,13.7,13.7,0,0,1,4.88.93A13.89,13.89,0,1,0,1460,691.79,13.88,13.88,0,0,1,1455,681.14Z"/><path class="cls-35" d="M1366.3,634.05c0,10.5-12.07,19-27,19s-27-8.51-27-19,12.07-19,27-19S1366.3,623.56,1366.3,634.05Z"/><path class="cls-37" d="M1344.14,619.59a33.55,33.55,0,0,1,18.75,5.37c-4.59-5.88-13.35-9.91-23.55-9.91-14.89,0-27,8.51-27,19,0,5.35,3.17,10.17,8.23,13.62a14.71,14.71,0,0,1-3.43-9.08C1317.18,628.09,1329.25,619.59,1344.14,619.59Z"/><path class="cls-35" d="M1245.8,702.74c0,7.15-8.22,12.93-18.36,12.93s-18.35-5.78-18.35-12.93,8.22-13,18.35-13S1245.8,695.59,1245.8,702.74Z"/><path class="cls-37" d="M1230.72,692.88a22.65,22.65,0,0,1,12.75,3.67c-3.12-4-9.08-6.76-16-6.76-10.13,0-18.35,5.8-18.35,13,0,3.64,2.15,6.92,5.59,9.26a10,10,0,0,1-2.31-6.18C1212.37,698.67,1220.58,692.88,1230.72,692.88Z"/><path class="cls-35" d="M1276,647.67c0,5.36-6.16,9.71-13.76,9.71s-13.76-4.35-13.76-9.71,6.16-9.7,13.76-9.7S1276,642.32,1276,647.67Z"/><path class="cls-37" d="M1264.72,640.29a17,17,0,0,1,9.56,2.75c-2.33-3-6.81-5.07-12-5.07-7.6,0-13.76,4.35-13.76,9.7,0,2.74,1.62,5.2,4.19,7A7.52,7.52,0,0,1,1251,650C1251,644.63,1257.12,640.29,1264.72,640.29Z"/><path class="cls-35" d="M1144.35,736.83c0,7.56-8.7,13.69-19.43,13.69s-19.43-6.13-19.43-13.69,8.7-13.7,19.43-13.7S1144.35,729.26,1144.35,736.83Z"/><path class="cls-37" d="M1128.38,726.4a24.14,24.14,0,0,1,13.51,3.88c-3.31-4.24-9.63-7.15-17-7.15-10.73,0-19.43,6.13-19.43,13.7,0,3.85,2.28,7.32,5.92,9.81a10.62,10.62,0,0,1-2.46-6.55C1109,732.53,1117.65,726.4,1128.38,726.4Z"/><path class="cls-35" d="M1427.18,636.85c0,6-6.93,10.89-15.47,10.89s-15.45-4.87-15.45-10.89,6.91-10.9,15.45-10.9S1427.18,630.82,1427.18,636.85Z"/><path class="cls-37" d="M1414.46,628.55a19.13,19.13,0,0,1,10.75,3.09c-2.62-3.37-7.65-5.69-13.5-5.69-8.54,0-15.45,4.87-15.45,10.9,0,3.07,1.8,5.83,4.7,7.81a8.48,8.48,0,0,1-2-5.21C1399,633.43,1405.92,628.55,1414.46,628.55Z"/><path class="cls-39" d="M797.64,715.13c-6.38-8.28-25.53-28.3-40.11-11.89s12.65,42.5,33.84,37.18C797.68,738.83,811.13,732.56,797.64,715.13Z"/><path class="cls-40" d="M795,734.07c8-1.94-18.13,2.74-35.8-22C752.28,702.31,766.83,741,795,734.07Z"/><path class="cls-41" d="M771.37,720.89c.62.58,6.8,7.94,3.42,6.15-10-5.32-19.91-12.27-20.46-21.86-.61-10.31,4.74-21.93-9.83-27.94-12.54-5.21-16.91-7-16.91-7s15-1.17,27.15,8.48c4.4,3.5,2.48,17.74,4.24,25.44C760.64,711.41,762.49,712.52,771.37,720.89Z"/><path class="cls-41" d="M796.52,733.58c-1.49.49-19.48-1.21-30.29-13.71,0,0-4.81-4.8-6.25-9.15-.72-2.21,6.72,7.62,16.81,13.17C786.57,729.24,800.5,732.26,796.52,733.58Z"/><path class="cls-39" d="M798.66,733s-31-9-38.17-20.55,2.28-13.53,2.28-13.53Z"/><path class="cls-42" d="M794,706c-9.36,4.69-32.7,19.61-19.4,37.08s44.15-4.22,43-26C817.3,710.49,813.74,696.09,794,706Z"/><path class="cls-43" d="M812.12,712.18c-.37-8.22-.81,18.32-28.53,30.88C772.71,748,813.44,741.18,812.12,712.18Z"/><path class="cls-41" d="M794.62,732.84c.69-.49,9.1-5.12,6.7-2.16-7.15,8.82-15.88,17.17-25.4,15.87-10.24-1.4-20.58-8.89-29.31,4.26-7.52,11.3-10.17,15.22-10.17,15.22s6.78-25.3,17.54-27.52c9.91-2,13.91,3.51,21.79,3.27C783.26,741.54,784.7,740,794.62,732.84Z"/><path class="cls-41" d="M811.92,710.64c.2,1.54-4.95,18.85-19.28,27.06,0,0-5.64,3.79-10.19,4.36-2.31.29,8.78-5.11,16.16-14C805.75,719.55,811.4,706.47,811.92,710.64Z"/><path class="cls-42" d="M811.78,708.4S796.92,737,784.26,741.9s-12.83-4.84-12.83-4.84Z"/><path class="cls-39" d="M833.75,747.73c7.06-7.72,23.5-30,4.85-41.56s-39.72,19.72-30.85,39.69C810.4,751.81,818.87,764,833.75,747.73Z"/><path class="cls-40" d="M814.63,748.38c3.28,7.54-5.8-17.39,15.61-39C838.63,700.84,803,721.77,814.63,748.38Z"/><path class="cls-41" d="M823.59,722.82c-.48.72-6.67,8-5.48,4.41,3.52-10.79,8.69-21.71,18-23.9,10.05-2.34,22.41.94,25.85-14.45,3-13.25,4-17.87,4-17.87s3.72,14.6-3.71,28.22c-2.69,4.93-17.06,5.46-24.34,8.51C831.08,710.64,830.32,712.64,823.59,722.82Z"/><path class="cls-41" d="M815.37,749.76c-.74-1.38-2.13-19.39,8.33-32.18,0,0,3.91-5.55,7.95-7.72,2.06-1.1-6.36,7.91-10.1,18.82C817.94,739.22,817.35,753.45,815.37,749.76Z"/><path class="cls-39" d="M816.31,751.78s3.62-32.06,13.72-41.12,13.72-.07,13.72-.07Z"/><path class="cls-44" d="M862.33,717.6c-6.41-8.28-25.54-28.3-40.13-11.89s12.65,42.5,33.84,37.17C862.36,741.3,875.8,735,862.33,717.6Z"/><path class="cls-44" d="M859.7,736.55c8-1.95-18.13,2.74-35.81-22.06C817,704.77,831.49,743.42,859.7,736.55Z"/><path class="cls-41" d="M836,723.36c.63.58,6.8,7.94,3.42,6.15-10-5.31-19.92-12.27-20.47-21.86-.59-10.32,4.76-21.92-9.82-27.94-12.54-5.2-16.91-7.06-16.91-7.06s15-1.17,27.16,8.48c4.4,3.5,2.47,17.76,4.23,25.44C825.32,713.88,827.17,715,836,723.36Z"/><path class="cls-44" d="M861.18,736.05c-1.48.5-19.46-1.22-30.27-13.71,0,0-4.81-4.8-6.26-9.15-.73-2.2,6.73,7.63,16.83,13.17C851.25,731.73,865.18,734.74,861.18,736.05Z"/><path class="cls-44" d="M863.34,735.47s-31-9-38.18-20.53,2.29-13.54,2.29-13.54Z"/><path class="cls-39" d="M855.42,708.44c-6,8.56-19.46,32.77.53,41.83S892.8,725.61,881.44,707C878.05,701.38,868.08,690.4,855.42,708.44Z"/><path class="cls-40" d="M874.3,705.33c-4.24-7.05,8,16.52-10.47,40.73C856.6,755.57,889.22,730.24,874.3,705.33Z"/><path class="cls-41" d="M868.7,731.83c.37-.77,5.57-8.84,4.87-5.09-2.11,11.16-5.84,22.67-14.83,26-9.68,3.62-22.34,2-23.78,17.65-1.24,13.53-1.72,18.24-1.72,18.24s-6-25.51,2.38-32.55c7.76-6.51,13.9-3.51,20.72-7.48C862.82,744.89,863.34,742.79,868.7,731.83Z"/><path class="cls-41" d="M873.4,704.07c.9,1.26,4.59,18.94-4.14,33,0,0-3.17,6-6.9,8.67-1.9,1.36,5.29-8.67,7.6-20C872.18,714.84,870.94,700.65,873.4,704.07Z"/><path class="cls-39" d="M872.2,702.17s.52,32.26-8.32,42.56-13.61,1.82-13.61,1.82Z"/><path class="cls-44" d="M912.33,739.88c-9.38-4.65-35.33-14.28-41.27,6.85s30,32.69,46.69,18.64C922.74,761.18,932.09,749.66,912.33,739.88Z"/><path class="cls-44" d="M918.26,758.06c6.34-5.24-15.09,10.39-41.85-4.17C865.93,748.18,895.91,776.58,918.26,758.06Z"/><path class="cls-41" d="M891.22,756.54c.83.26,9.59,4.17,5.76,4-11.34-.39-23.27-2.32-28-10.7-5-9-5.7-8.4-12.75-12.87-16.12-10.21-12.42-12.48,3.34-2.35,6.43,4.14,8.19,6.07,13.13,12.22C877.43,752.71,879.58,752.9,891.22,756.54Z"/><path class="cls-41" d="M919.38,757c-1.12,1.09-18,7.42-33.22.91,0,0-6.43-2.21-9.62-5.5-1.63-1.66,9.36,3.92,20.88,4.49C908.54,757.43,922.4,754,919.38,757Z"/><path class="cls-44" d="M921.06,755.5s-31.79,5.42-43.32-1.77-3.85-13.17-3.85-13.17Z"/><path class="cls-42" d="M744.53,820.55c-8.54,2.69-31.76,7.41-34-11.24s29.64-23.71,41.94-9.62C756.14,803.89,762.52,814.87,744.53,820.55Z"/><path class="cls-43" d="M752,805.94c4.66,5.27-11.42-10.78-36-2C706.37,807.41,735.48,787.34,752,805.94Z"/><path class="cls-41" d="M728.88,803.67c.72-.11,8.65-2.27,5.4-2.66-9.65-1.16-20-1.1-25.07,5.37-5.44,7-5.92,6.35-12.48,9.21-15,6.52-12.14,8.92,2.52,2.43,6-2.65,7.72-4,12.72-8.61C716.7,805.09,718.54,805.22,728.88,803.67Z"/><path class="cls-41" d="M752.74,807c-.79-1.06-14.28-8.64-28-5.14,0,0-5.72,1-8.85,3.39-1.6,1.19,8.43-2.09,18.24-1C743.63,805.2,754.9,809.88,752.74,807Z"/><path class="cls-42" d="M754,808.47s-26.2-8.76-36.87-4.2-5,10.64-5,10.64Z"/><path class="cls-42" d="M827.65,776.27c10,3,37.24,8.11,39.53-13.72s-35-27.17-49.15-10.5C813.82,757,806.54,770,827.65,776.27Z"/><path class="cls-43" d="M818.75,759.34c-5.37,6.23,13.14-12.79,42-2.93C872,760.26,837.66,737.32,818.75,759.34Z"/><path class="cls-41" d="M845.66,756.28c-.85-.11-10.15-2.5-6.37-3,11.25-1.52,23.35-1.64,29.38,5.84,6.49,8,8.9,20.59,24.26,17C906.15,773,910.78,772,910.78,772s-11.52,9.69-27,8.93c-5.6-.28-12.34-13-18.25-18.21C859.9,757.73,857.75,757.91,845.66,756.28Z"/><path class="cls-41" d="M817.82,760.6c.93-1.26,16.53-10.35,32.6-6.5,0,0,6.71,1.11,10.42,3.8,1.88,1.37-9.91-2.28-21.35-.89C828.44,758.33,815.35,764,817.82,760.6Z"/><path class="cls-42" d="M816.41,762.33s30.44-10.7,43-5.56,6,12.34,6,12.34Z"/><path class="cls-42" d="M749.11,750.58c-9.06-2.35-33.58-6-34.9,13.58s32.23,23.15,44.32,7.77C762.12,767.35,768.21,755.54,749.11,750.58Z"/><path class="cls-43" d="M757.64,765.44c4.58-5.77-11.34,11.87-37.43,4C710,766.37,741.44,785.75,757.64,765.44Z"/><path class="cls-41" d="M733.66,769.06c.77.07,9.17,1.9,5.79,2.48-10,1.73-20.81,2.24-26.46-4.26-6.07-7-8.63-18.11-22.26-14.39-11.72,3.19-15.82,4.27-15.82,4.27s10-9.06,23.86-8.87c5,.06,11.48,11.2,16.92,15.69C720.88,768.23,722.8,768,733.66,769.06Z"/><path class="cls-41" d="M758.42,764.28c-.78,1.16-14.45,9.8-28.94,6.88,0,0-6-.77-9.44-3-1.73-1.17,8.93,1.71,19.11.1C749,766.65,760.51,761.17,758.42,764.28Z"/><path class="cls-42" d="M759.62,762.68s-26.87,10.57-38.27,6.38-5.8-10.83-5.8-10.83Z"/><path class="cls-44" d="M804.07,778.56c6.33-6.9,21.06-26.85,4.35-37.2S772.86,759,780.8,776.89C783.17,782.22,790.76,793.12,804.07,778.56Z"/><path class="cls-44" d="M787,779.14c2.94,6.76-5.19-15.57,14-34.95C808.44,736.58,776.58,755.33,787,779.14Z"/><path class="cls-41" d="M795,756.26c-.43.64-6,7.21-4.91,4,3.15-9.66,7.77-19.46,16.15-21.41,9-2.1,20,.85,23.14-12.93,2.67-11.86,3.63-16,3.63-16s3.33,13.07-3.33,25.26c-2.39,4.4-15.27,4.9-21.79,7.62C801.7,745.36,801,747.15,795,756.26Z"/><path class="cls-41" d="M787.61,780.38c-.65-1.24-1.9-17.35,7.47-28.8,0,0,3.5-5,7.11-6.92,1.85-1-5.69,7.09-9,16.85C789.92,770.94,789.39,783.68,787.61,780.38Z"/><path class="cls-44" d="M788.46,782.19s3.24-28.7,12.27-36.82,12.29,0,12.29,0Z"/><path class="cls-39" d="M805.18,785.1c-7.42-6.34-28.7-21-38.92-3.25s19.61,36.44,38,27.56C809.7,806.76,820.79,798.49,805.18,785.1Z"/><path class="cls-40" d="M806.36,802.92c6.93-3.29-16.05,5.93-36.89-13.38C761.3,782,781.89,814.55,806.36,802.92Z"/><path class="cls-41" d="M782.26,795.35c.67.41,7.71,6,4.28,5-10.16-3-20.52-7.45-22.83-16.1-2.5-9.31.18-20.92-14.27-23.67-12.46-2.38-16.79-3.25-16.79-3.25s24.23-3.31,30,5.13c5.35,7.8,2,13.23,5.08,19.93C770.66,788.72,772.55,789.38,782.26,795.35Z"/><path class="cls-41" d="M807.63,802.19c-1.27.73-18,2.57-30.27-6.79,0,0-5.3-3.48-7.43-7.2-1.1-1.87,7.57,5.71,17.85,8.86C797.72,800.11,811,800.23,807.63,802.19Z"/><path class="cls-39" d="M809.48,801.26s-30-2.42-38.77-11.55-.48-12.8-.48-12.8Z"/><path class="cls-16" d="M436.68,761.41s-12.06-73.29,8.59-106.49,9-96.14,35.52-112.76,32.77,10.31,29.69,29.85-8.64,73.62,5.89,116.25c25.77,75.59,14.57,122.28-16.25,159.78,0,0-30.83,49.42-16.23,80.53H368.44Z"/><path class="cls-16" d="M1522.34,762.34s12.06-73.28-8.59-106.49-9-96.13-35.52-112.75-32.78,10.31-29.69,29.84,8.64,73.63-5.9,116.26c-25.76,75.58-14.56,122.28,16.26,159.78,0,0,30.83,49.42,16.23,80.53h115.45Z"/><path class="cls-45" d="M1477,208.87l-1.82,1.29s.85,1.18,1.62,2.42,1.47,2.45,1.47,2.45l2-1s-.74-1.38-1.56-2.64S1477,208.88,1477,208.87Z"/><path class="cls-45" d="M1471.29,201.93l-1.63,1.52a22.1,22.1,0,0,1,1.95,2.16l1.84,2.26,1.77-1.37-1.92-2.32A23,23,0,0,0,1471.29,201.93Z"/><path class="cls-45" d="M1464.74,195.8l-1.4,1.73s1.13.92,2.2,1.91l2.17,1.94,1.55-1.59-2.24-2C1465.92,196.75,1464.74,195.8,1464.74,195.8Z"/><path class="cls-45" d="M1457.28,190.78l-1.1,1.94,2.5,1.46a17.76,17.76,0,0,1,2.38,1.66l1.3-1.81a18.7,18.7,0,0,0-2.47-1.72Z"/><path class="cls-45" d="M1449.1,187l-.73,2.11a23.37,23.37,0,0,1,2.67,1.1l2.66,1.15,1-2-2.78-1.2A27.79,27.79,0,0,0,1449.1,187Z"/><path class="cls-45" d="M1440.32,185l-.33,2.2a26.09,26.09,0,0,1,2.86.42l2.79.78.6-2.15-2.92-.81A28.71,28.71,0,0,0,1440.32,185Z"/><path class="cls-45" d="M1431.34,184.48l.07,2.23,2.89-.08a11.44,11.44,0,0,1,2.89.16l.19-2.22a12.24,12.24,0,0,0-3-.17Z"/><path class="cls-45" d="M1422.42,185.54l.43,2.18s5.71-1.08,5.72-.94l-.2-2.22C1428.35,184.42,1422.42,185.54,1422.42,185.54Z"/><polygon class="cls-45" points="1413.78 187.92 1414.5 190.03 1420.05 188.22 1419.5 186.06 1413.78 187.92"/><path class="cls-45" d="M1405.53,191.34l1,2s5.25-2.61,5.31-2.44l-.81-2.08C1410.91,188.68,1405.53,191.34,1405.53,191.34Z"/><path class="cls-45" d="M1397.6,195.5l1.2,1.88,2.48-1.5c1.27-.7,2.62-1.29,2.62-1.29l-1-2s-1.37.61-2.69,1.34Z"/><path class="cls-45" d="M1390.44,201l1.55,1.61,2.17-1.9a23.52,23.52,0,0,1,2.3-1.75l-1.3-1.8a25.37,25.37,0,0,0-2.42,1.83Z"/><path class="cls-45" d="M1384.74,208.14l2,1.09a32.23,32.23,0,0,1,3.37-4.59l-1.7-1.44A36.47,36.47,0,0,0,1384.74,208.14Z"/><path class="cls-45" d="M1381.37,216.6l2.19.47a27.75,27.75,0,0,1,1.83-5.38l-2.06-.89A30.47,30.47,0,0,0,1381.37,216.6Z"/><path class="cls-45" d="M1380.87,225.7l2.23-.18a30,30,0,0,1,0-5.69l-2.23-.27C1380.64,219.56,1380.72,225.71,1380.87,225.7Z"/><path class="cls-45" d="M1383.11,234.54l2.08-.81-1-2.69c-.39-1.37-.7-2.77-.7-2.77l-2.2.4s.34,1.5.75,3Z"/><path class="cls-45" d="M1387.68,242.43l1.76-1.35s-.88-1.13-1.64-2.35-1.43-2.47-1.43-2.47l-2,1s.71,1.37,1.54,2.66S1387.68,242.43,1387.68,242.43Z"/><path class="cls-45" d="M1394.22,248.8l1.28-1.83a28,28,0,0,1-4.25-3.75l-1.64,1.51A30.81,30.81,0,0,0,1394.22,248.8Z"/><path class="cls-45" d="M1402.94,252.14l.12-2.23a14,14,0,0,1-2.66-.46l-1.77-.66-.78-.41-1,2,.87.45,2,.76A16.21,16.21,0,0,0,1402.94,252.14Z"/><path class="cls-45" d="M1411.58,248.22l-1.73-1.4a10.1,10.1,0,0,1-1.9,1.82,12.76,12.76,0,0,1-1.58.82l-.77.21.55,2.16,1-.29a13.75,13.75,0,0,0,2-1A12,12,0,0,0,1411.58,248.22Z"/><path class="cls-45" d="M1415.56,239.87l-2.17-.52s-.4,1.35-.83,2.68a24.59,24.59,0,0,1-1.19,2.5l1.89,1.17a28.4,28.4,0,0,0,1.38-2.85C1415.13,241.36,1415.56,239.87,1415.56,239.87Z"/><path class="cls-45" d="M1415.93,230.68l-2.21.31a27.3,27.3,0,0,1,.13,5.64l2.21.23C1416.25,236.87,1416.17,230.67,1415.93,230.68Z"/><path class="cls-45" d="M1413.31,222l-2,.94a19.77,19.77,0,0,1,1.08,2.65,22,22,0,0,1,.82,2.73l2.17-.54C1415.58,227.65,1413.42,221.9,1413.31,222Z"/><path class="cls-45" d="M1408.49,214.26l-1.73,1.4s.92,1.11,1.71,2.3,1.53,2.44,1.53,2.44l1.94-1.11s-.77-1.32-1.63-2.58S1408.49,214.26,1408.49,214.26Z"/><path class="cls-45" d="M1402.08,207.87l-1.4,1.74a20.06,20.06,0,0,1,2.19,1.89c1.06,1,2,2,2,2l1.63-1.52s-1-1.12-2.16-2.15A24.38,24.38,0,0,0,1402.08,207.87Z"/><path class="cls-45" d="M1394.52,202.94l-1,2a27.19,27.19,0,0,1,2.51,1.41,23.11,23.11,0,0,1,2.42,1.59l1.28-1.83a26.42,26.42,0,0,0-2.54-1.66A30.32,30.32,0,0,0,1394.52,202.94Z"/><path class="cls-45" d="M1386.16,199.55l-.63,2.14,2.74.9,2.68,1.1.9-2L1389,200.5Z"/><path class="cls-45" d="M1377.31,197.83l-.23,2.22a27.91,27.91,0,0,1,2.87.39,27,27,0,0,1,2.83.55l.5-2.17s-1.47-.37-3-.58S1377.31,197.83,1377.31,197.83Z"/><path class="cls-45" d="M1368.31,197.7l.15,2.23s1.44-.14,2.89-.14l2.9,0,.1-2.22-3,0C1369.81,197.56,1368.31,197.7,1368.31,197.7Z"/><path class="cls-45" d="M1359.42,199.05l.5,2.17,2.84-.61,2.88-.41-.28-2.21-3,.42Z"/><path class="cls-45" d="M1350.85,201.69l.79,2.08,2.74-1,2.79-.83-.61-2.15-2.89.86Z"/><path class="cls-45" d="M1342.71,205.41l1,2s1.27-.72,2.59-1.33l2.66-1.2-.88-2-2.74,1.23C1344,204.66,1342.71,205.4,1342.71,205.41Z"/><polygon class="cls-45" points="1335.12 210.14 1336.38 211.97 1341.22 208.73 1340.12 206.79 1335.12 210.14"/><path class="cls-45" d="M1328,215.59l1.47,1.68,2.18-1.94a11.86,11.86,0,0,1,2.32-1.76l-1.33-1.79a12.79,12.79,0,0,0-2.39,1.82Z"/><path class="cls-45" d="M1321.63,221.8l1.65,1.51,1.91-2.2,2.18-1.94-1.52-1.62-2.25,2Z"/><path class="cls-45" d="M1315.93,228.69l1.8,1.32c-.16-.13,3.68-4.54,3.67-4.54l-1.7-1.44S1315.77,228.57,1315.93,228.69Z"/><path class="cls-45" d="M1311,236.14l1.92,1.12s.79-1.23,1.6-2.44l1.63-2.43-1.85-1.25-1.67,2.48C1311.79,234.87,1311,236.14,1311,236.14Z"/><polygon class="cls-45" points="1306.89 244.06 1308.91 245 1311.6 239.8 1309.64 238.74 1306.89 244.06"/><polygon class="cls-45" points="1303.54 252.34 1305.64 253.09 1307.78 247.64 1305.73 246.76 1303.54 252.34"/><polygon class="cls-45" points="1300.9 260.84 1303.05 261.42 1304.66 255.78 1302.54 255.09 1300.9 260.84"/><path class="cls-45" d="M1298.91,269.51l2.19.42.56-2.88c.27-1.44.6-2.87.6-2.87l-2.16-.52s-.34,1.45-.62,2.92S1298.91,269.51,1298.91,269.51Z"/><path class="cls-45" d="M1297.56,278.3l2.22.26s.15-1.46.31-2.92a18.82,18.82,0,0,1,.46-2.89l-2.19-.36a19.35,19.35,0,0,0-.48,2.95Z"/><path class="cls-45" d="M1296.82,287.17l2.22.11s0-1.47.11-2.94.31-2.92.31-2.92l-2.22-.21-.32,3Z"/><path class="cls-45" d="M1296.67,296.06l2.23-.05c-.13,0,0-5.86,0-5.86l-2.22-.06S1296.54,296.06,1296.67,296.06Z"/><path class="cls-45" d="M1297.11,305l2.22-.2s-.11-1.46-.17-2.93-.13-2.94-.13-2.94l-2.23.1.14,3C1297,303.45,1297.11,305,1297.11,305Z"/><polygon class="cls-45" points="1298.18 313.78 1300.39 313.43 1299.68 307.6 1297.46 307.85 1298.18 313.78"/><polygon class="cls-45" points="1299.91 322.52 1302.08 322.01 1300.92 316.26 1298.73 316.65 1299.91 322.52"/><polygon class="cls-45" points="1302.28 331.1 1304.41 330.42 1302.79 324.79 1300.63 325.35 1302.28 331.1"/><polygon class="cls-45" points="1305.38 339.47 1307.42 338.6 1305.32 333.13 1303.23 333.88 1305.38 339.47"/><polygon class="cls-45" points="1309.28 347.52 1311.22 346.42 1308.6 341.2 1306.59 342.15 1309.28 347.52"/><path class="cls-45" d="M1314,355.09l1.83-1.27s-.82-1.21-1.59-2.46l-1.55-2.49-1.91,1.16,1.6,2.54C1313.16,353.84,1314,355.09,1314,355.09Z"/><path class="cls-45" d="M1319.54,362.11l1.67-1.48a26.36,26.36,0,0,1-1.91-2.19l-1.75-2.34-1.79,1.34,1.81,2.4A28,28,0,0,0,1319.54,362.11Z"/><path class="cls-45" d="M1325.92,368.43l1.44-1.71s-4.35-3.84-4.23-4l-1.6,1.56C1321.4,364.42,1325.92,368.42,1325.92,368.43Z"/><path class="cls-45" d="M1333.31,373.59l1.09-1.94-.8-.43a9.35,9.35,0,0,1-1.67-1.05l-2.36-1.68-1.34,1.78,2.48,1.76a10,10,0,0,0,1.76,1.11C1333,373.42,1333.31,373.59,1333.31,373.59Z"/><path class="cls-45" d="M1341.71,377l.55-2.15a14,14,0,0,1-2.71-.88,22.37,22.37,0,0,1-2.67-1l-.94,2a25.24,25.24,0,0,0,2.86,1.11A14.62,14.62,0,0,0,1341.71,377Z"/><path class="cls-45" d="M1350.86,377.73l-.25-2.22c0,.27-5.65.1-5.62-.09l-.31,2.21C1344.64,377.82,1350.88,378,1350.86,377.73Z"/><path class="cls-45" d="M1359.59,374.77l-1.14-1.91c.13.27-5.08,2.32-5.13,2.21l.55,2.17a5.41,5.41,0,0,0,.93-.31l2-.75A11.64,11.64,0,0,0,1359.59,374.77Z"/><path class="cls-45" d="M1366.37,368.58l-1.78-1.33a18,18,0,0,1-1.78,2.18l-2.09,1.9,1.39,1.74,2.31-2.09A19,19,0,0,0,1366.37,368.58Z"/><path class="cls-45" d="M1370.67,360.56l-2.09-.77s-.11.33-.3.84a8.89,8.89,0,0,1-.77,1.81l-1.35,2.52,1.91,1.14s.73-1.35,1.45-2.71a10.3,10.3,0,0,0,.83-1.92Z"/><path class="cls-45" d="M1372.27,351.49l-2.22.15s0,1.34,0,2.69c-.26,1.41-.54,3-.53,2.81l2.15.61c.08-.21.28-1.52.57-3C1372.31,353.13,1372.27,351.49,1372.27,351.49Z"/><path class="cls-45" d="M1369.92,342.64l-2,.88a31,31,0,0,1,1.77,5.4l2.18-.45A32.6,32.6,0,0,0,1369.92,342.64Z"/><path class="cls-45" d="M1365.43,334.79l-1.81,1.29,1.62,2.4,1.42,2.51,2-1.05-1.5-2.65Z"/><path class="cls-45" d="M1359.63,327.92l-1.59,1.57,2,2.13a22.78,22.78,0,0,1,1.87,2.21l1.74-1.39a24.84,24.84,0,0,0-2-2.31Z"/><path class="cls-45" d="M1352.89,322l-1.36,1.77,2.27,1.83a21.34,21.34,0,0,1,2.17,1.93l1.52-1.64a23,23,0,0,0-2.26-2Z"/><path class="cls-45" d="M1345.4,317.05l-1.09,1.94,2.49,1.5a25.8,25.8,0,0,1,2.42,1.62l1.27-1.83a27.61,27.61,0,0,0-2.5-1.68Z"/><path class="cls-45" d="M1337.28,313.22l-.8,2.09,2.69,1.1c1.34.56,2.62,1.26,2.62,1.26l1-2s-1.33-.73-2.72-1.31Z"/><path class="cls-45" d="M1328.61,310.76l-.41,2.18,2.82.61c1.4.36,2.78.84,2.78.84l.67-2.13s-1.43-.48-2.89-.87Z"/><path class="cls-45" d="M1319.61,310l0,2.23h2.88c1.44.1,2.88.3,2.88.3l.27-2.21s-1.51-.21-3-.31Z"/><path class="cls-45" d="M1310.63,311.26l.58,2.15,2.79-.67c1.42-.22,2.85-.35,2.85-.35l-.22-2.22s-1.53.14-3,.37Z"/><path class="cls-45" d="M1302.25,314.72l1.09,1.94,2.52-1.38,2.68-1-.76-2.1-2.85,1.11C1303.58,314,1302.25,314.72,1302.25,314.72Z"/><path class="cls-45" d="M1295,320.08l1.51,1.64.65-.61a10.73,10.73,0,0,1,1.51-1.29l2.33-1.69-1.25-1.85-2.47,1.8a11.34,11.34,0,0,0-1.58,1.35Z"/><path class="cls-45" d="M1288.89,326.76l1.79,1.33,1.86-2.22c.93-1.11,1.82-2.25,1.87-2.21l-1.62-1.53a6.93,6.93,0,0,0-.63.7l-1.33,1.61Z"/><path class="cls-45" d="M1284.18,334.4l2,1.06s.65-1.31,1.38-2.56l1.59-2.43-1.85-1.24-1.66,2.52C1284.84,333.05,1284.17,334.4,1284.18,334.4Z"/><path class="cls-45" d="M1280.41,342.51l2.07.83s2.18-5.42,2.33-5.35l-2-1C1282.65,337,1280.41,342.51,1280.41,342.51Z"/><polygon class="cls-45" points="1277.46 350.92 1279.6 351.57 1281.4 345.99 1279.31 345.23 1277.46 350.92"/><polygon class="cls-45" points="1275.2 359.52 1277.37 360.02 1278.78 354.32 1276.63 353.73 1275.2 359.52"/><polygon class="cls-45" points="1273.49 368.24 1275.69 368.61 1276.74 362.83 1274.56 362.38 1273.49 368.24"/><path class="cls-46" d="M1125.91,673.68c-1.56,21.49-.25,66.64,9.11,65.43s14.12-5.09,8.46-5.91-6-1.41-6-3.09c-.54-10.62,5.87-31.52,7.56-47.23C1147,664.66,1127.26,654.89,1125.91,673.68Z"/><path class="cls-47" d="M1130.35,735.25s8.69,2.25,13.13-2c0,0,9.37-.06,4,3.25S1131.31,743.5,1130.35,735.25Z"/><path class="cls-46" d="M1081.81,725.7c-3.59,21.24-6.58,66.31,2.85,66s14.54-3.76,9-5.1-5.8-2-5.72-3.64c.48-10.62,8.83-30.83,12-46.31C1103.67,718.68,1085,707.12,1081.81,725.7Z"/><path class="cls-47" d="M1080.39,787.39s8.43,3.06,13.27-.81c0,0,9.31.82,3.66,3.62S1080.56,795.71,1080.39,787.39Z"/><path class="cls-42" d="M1061.8,671.07c.29,5,1.82,11.4,5.27,22,2.54,7.85,7.9,19.54,8.53,26.49,2.34,25.53-1.06,28.45,2.78,50.58.52,3,12.64,2.68,13.7.43,10.77-23.28,10.19-49.86,10.05-63.52-.05-6,0-9.43-2.39-22.61-.19-1.06-.39-2.15-.62-3.35-.72-3.89-1.64-8.44-2.78-14,0,0,0-.15,0-.19a80.54,80.54,0,0,0-5.22-15.43c-.44-.95-.72-1.53-.72-1.53l-7.81,1.77-6.37,1.49-1.77.38-9.73,2.26C1062.75,661.77,1061.51,665.56,1061.8,671.07Z"/><path class="cls-47" d="M1094.81,661.35c.58,1.88,1.13,3.84,1.53,5.79,1.48,7.23,3.3,16.74,4.12,21.23-6.78,2.61-15.48,3-20-.08-9.84-6.7-9-20.08-6.48-28.35Z"/><path class="cls-42" d="M1071.38,671.73c.63,4.79,1.38,8.42,6.32,11.78,4.4,3,13.7,1.07,21.42-2.38,10.44-4.7,20.45-10.49,20.93-4.41,1.58,20.31,4.27,39.09,4.27,39.09,10.39,3.59,19.54-2.44,19.54-2.44s11.21-61.66,1.77-75.55c-7.05-10.4-24-2.44-34.35,3.88-5.08,3.17-8.62,5.9-8.62,5.9l-25.82.77a49.72,49.72,0,0,0-2.44,5.26C1072.58,658.22,1070.52,665.17,1071.38,671.73Z"/><path class="cls-47" d="M1064.67,655.89l9.73-2.26a49.72,49.72,0,0,1,2.44-5.26l25.63-.77v8.47l10.81-.77c.51,3.62-6.78,8.51-17,11.65a114.86,114.86,0,0,1-24.91,4.78c-4,.24-7.37.1-9.58-.66C1061.51,665.56,1062.75,661.77,1064.67,655.89Z"/><path class="cls-12" d="M1090.51,595.82c7.65,4.58,15.08,16.87,22.71,59,1.67,9.25-52.76,17.55-54,8.22-3.33-24.83-.21-35.56,4.47-58.79C1064.94,598,1075.37,586.75,1090.51,595.82Z"/><path class="cls-46" d="M1144.87,559.8s1.53-14,4.64-10.3,2.41,5.65-.68,12.72Z"/><path class="cls-24" d="M1092.79,602.86c-1.9,1.81-5.22,8.62.42,10.42,9,2.86,23.49,2.1,39.14-12.12,14.56-13.21,16.35-39.74,16.35-39.74s-1.8-3.56-5.4-1.95c0,0-16.18,24.8-24.1,30.37C1113.17,594.07,1099.36,596.53,1092.79,602.86Z"/><path class="cls-47" d="M1081.57,555.46c6,.15,13.78,4.17,15,15.71s1.57,11.71,5.94,15.53c11.17,9.83-12.11,17-2.59,26.2,4.37,4.24,8.87,9.24,10.72,15.18.55,1.74,1.12,4.15.61,6-.78,2.85-3.38,6.4-5.46,8.5s-5.28,3.73-8.36,3.29c-2-.28-3.78-1.34-5.73-1.86a10.86,10.86,0,0,0-6.48.28c-1.91.69-2.55,2.27-4,3.6a13.52,13.52,0,0,1-5.12,2.93,13.73,13.73,0,0,1-9.67-.67,8,8,0,0,1-4.19-3.94c-1.38-3.31.41-7-.53-10.41a21.1,21.1,0,0,0-5-9.49,14.38,14.38,0,0,1-4.3-11.86c.47-6.13-9.08-11.87,1.76-20.72,3.57-2.91-4.81-15.72,4.24-19.37S1058.52,554.94,1081.57,555.46Z"/><path class="cls-48" d="M602.33,661.11c-4.76-5.33-21.91-14-33.93,6.61-2.64,4.52-5.47,12.52-14.9,14.69-6.64,1.52-21.47,11.66-9.86,29.65s-10,20,2.67,27.09c34.08,19,45.67-.51,55-20.33C615.94,687.6,612,671.85,602.33,661.11Z"/><path class="cls-11" d="M618,757.7c-4.4-15.15-7.7-28.74-8.18-42.31-.84-23.86-14-20.83-24.56-19.77-12.69,1.28-32.19,10.22-23.22,31.94,7.88,19.11,2.18,27,0,43h0c-.07.41-.12.77-.21,1.18h0C556.82,789.62,622.47,773.12,618,757.7Z"/><path class="cls-48" d="M576.49,710.51c-4.91,3.27-12.65,5.88-16.57,9.38a30.22,30.22,0,0,0,2.11,7.67,54.31,54.31,0,0,1,3.45,11.56C573.39,730.8,580.64,723,576.49,710.51Z"/><path class="cls-49" d="M663.05,689.85a12.89,12.89,0,0,0-6.84,10.88c-.59,7.51-15.06,23.47-20.56,22.21-9.1-2.08-11.39-12.43-11.39-12.43l-15.7,11.32s14.25,18.82,25.69,18.55c2.91-.08,11.75.06,22.56-24.29C668.77,689.15,663.92,689.29,663.05,689.85Z"/><path class="cls-48" d="M629.2,719.27a20.34,20.34,0,0,1-4.94-8.76l-15.7,11.32a84.82,84.82,0,0,0,7.18,8.06C620.71,727.3,625.44,724.27,629.2,719.27Z"/><path class="cls-11" d="M595.54,698c-3.12,2.2-4.74-4.69-1.47,6.54,2.56,8.77,19.17,25.09,19.17,25.09s11.46-5,14.78-16.64C628,712.94,607.2,689.76,595.54,698Z"/><path class="cls-46" d="M585.1,680.11s2,11.3-1.46,16.25c-2.21,3.16,16,10.21,15.61,6-.47-5.47-3.6-8.84,0-15Z"/><path class="cls-49" d="M601.28,664.46c3.2,5.75,7.75,30.53-3.92,31.9-5.25.63-13.87-6.34-16.68-16.42-1.17-4.15,1.22-11.67,6.75-17C589.92,660.49,597.57,657.75,601.28,664.46Z"/><path class="cls-48" d="M605.51,673.57c-.31,2.88-5.11-8.07-8.23-2.7C594,676.49,588,673.29,584.22,684c-2.54,7.34-7.71-8.17-8.07-9.36-1.58-5-1.58-5,5.42-13S607,659.19,605.51,673.57Z"/><path class="cls-46" d="M579.44,759.17c34.56,19.34,35.34,29.69,55.77,27.68,2.18-.22,12.79-2.54,14.51-1.42s1.13,11-18.92,13.34a76.77,76.77,0,0,1-48.21-11.45C553.73,768.89,544.87,739.84,579.44,759.17Z"/><path class="cls-42" d="M628.27,782.67s4.51,14.16-6.76,20.66c0,0-89.14-3.89-81.74-41.67,2.22-11.38,12.39-18.91,46.32-2.32Z"/><path class="cls-49" d="M611.89,758.16c-33.43,21.24-33.63,31.63-54.14,30.77-2.17-.11-12.91-1.83-14.55-.61s-.53,11,19.64,12.26a76.81,76.81,0,0,0,47.49-14.15C638.1,766.44,645.32,736.92,611.89,758.16Z"/><path class="cls-42" d="M564.44,784.35s-3.69,14.4,7.92,20.26c0,0,88.79-8.89,79.27-46.2-2.86-11.24-13.43-18.17-46.37.29Z"/><path class="cls-49" d="M513.68,698.59a12.88,12.88,0,0,1,7.81,10.19c1.28,7.43,17.16,22,22.51,20.23,8.88-2.92,10.21-13.42,10.21-13.42l16.68,9.83s-12.46,20-23.88,20.82c-2.92.2-11.7,1.17-24.71-22.1C507.91,698.42,512.76,698.1,513.68,698.59Z"/><path class="cls-50" d="M575.44,703.41c3.31,1.9,5.73,4.56,1.82,15.84a38.51,38.51,0,0,1-9,14.18s-14.63-2-19-13.31C549.29,720.12,563.08,696.31,575.44,703.41Z"/><path class="cls-48" d="M596.13,800.68l25.44,3.19s8.34-4.7,7.59-13.69Z"/><path class="cls-51" d="M1277.6,780c-1.59-6.58-1-21.31,14.84-24.76s38.37-4.78,66.6,22.21c0,0-20.4,21.33-60.85,15.66C1291.62,792.14,1279.94,789.64,1277.6,780Z"/><path class="cls-52" d="M1306.64,785.12c-7.73-1.08-21.44-4-24.2-15.39a28.2,28.2,0,0,1-.57-8.8c-5.43,5.92-5.38,14.45-4.27,19,2.34,9.69,14,12.19,20.59,13.11,31,4.33,50.13-7.12,57.45-12.75C1343.9,784.84,1327.56,788.07,1306.64,785.12Z"/><path class="cls-49" d="M1387.28,626.59c-.36-2.29-3.67-8.36-10.24-8.4-8.77-.05-24.58,8.32-35,2.18s-10.35-14.34-11-19.83,1.69-8,.94-11.13-4.43-2.13-5.51,6.92c-.52,4.34-5.63,25.43,5.46,35C1346.43,644,1389.37,640.11,1387.28,626.59Z"/><path class="cls-42" d="M1387.62,622s3.32,9-10,14.34-19.81,5.77-19.81,5.77-5.87-7.3-5.92-22C1351.92,620.17,1384.78,608.66,1387.62,622Z"/><path class="cls-49" d="M1316.19,752.42c5.15,13.82,15.71,31.27,17.67,41,.32,1.56.2,2.15-4.67,4.2s.27,4.43,8.92,3.4-.58-42.22-6.93-61.31C1325.62,723,1310.19,736.38,1316.19,752.42Z"/><path class="cls-47" d="M1341.4,796.47s-7.25,4-12.21,1.17c0,0-8.42,2.07-2.85,3.83S1342.44,804.18,1341.4,796.47Z"/><path class="cls-49" d="M1376.42,767.26c10.65,8.47,27.28,17.25,33.49,24,1,1.05,1.16,1.61-1.71,5.54s2.32,3.37,8.68-1.58-20.55-33-34.67-45.13C1369.9,739.56,1364.06,757.44,1376.42,767.26Z"/><path class="cls-47" d="M1417.29,790.08s-3.82,6.62-9.09,6.73c0,0-5.66,5.64-.41,4.37S1421.79,795.66,1417.29,790.08Z"/><path class="cls-11" d="M1409.05,772.72a16.54,16.54,0,0,1-1.91,3.91,2.78,2.78,0,0,1-.55.77,21.13,21.13,0,0,1-9.42,7.23s-42.34-4.64-52.52-50.94c-1-4.36-.28-11.73,1.27-20.06-5.24,6.46-9.7,12.92-10.79,17.37-2.72,11.06,8.33,44.72,8.33,44.72a15.82,15.82,0,0,1-3.23,2.18,3.81,3.81,0,0,1-.86.46,22.74,22.74,0,0,1-13.65,1.77s-33.25-31.84-19.11-70.82c6-16.33,47.82-54.4,47.82-54.4l4.08,11.65c.51-1.55.82-2.42.82-2.42l28,30.21,2.69-.6s-12,35.94-8.78,47.58C1384,751.43,1409.05,772.72,1409.05,772.72Z"/><path class="cls-12" d="M1354.93,690.61a.55.55,0,0,1-.32.6c-7.92,2.23-15.11,8.19-19.75,16.41-3.86,6.87-6.09,15.43-6.64,25.39a74.94,74.94,0,0,0,3.73,29.11,56.75,56.75,0,0,0,8.28,15.78,3.81,3.81,0,0,1-.86.46,59.56,59.56,0,0,1-8.28-15.92,76,76,0,0,1-3.78-29.48c.55-10.14,2.82-18.83,6.78-25.79,4.73-8.41,12.1-14.55,20.24-16.83A.47.47,0,0,1,1354.93,690.61Z"/><path class="cls-47" d="M1387.09,698l-30.23-32.48s-.35.88-.88,2.54l-4.43-12.54s-4.37,4-10.56,10c-.89,3.18-.39,3-.58,5.63-1.18,14,32.53,38.66,45.9,34.79a72.2,72.2,0,0,1,3.49-9.11Z"/><path class="cls-13" d="M1407.14,776.63a2.78,2.78,0,0,1-.55.77,40.9,40.9,0,0,0-6-4.27c-.76-.46-1.58-1-2.36-1.5a55.39,55.39,0,0,1-18.56-72.29.46.46,0,0,1,.6-.17.48.48,0,0,1,.18.64,54.57,54.57,0,0,0,18.28,71.09c.78.5,1.55,1,2.36,1.46A45.62,45.62,0,0,1,1407.14,776.63Z"/><path class="cls-42" d="M1412.92,635.45v-.05c-2.82-4.69-7.83-8.33-11.65-11.15-8.41-6.23-23.79-13.6-35.84.46-4,4.64-8.69,12-12.78,20-.91,1.73-1.82,3.51-2.59,5.33-3.73,8-6.51,16-7,22.24-1.32,15.79,48.13,41.48,49,23.29.05-.41.09-.77.14-1.18,1.5-7.78,2.59-14.24,4.68-20.2a49.45,49.45,0,0,1,2.23-5.23,47.86,47.86,0,0,1,8.51-12C1416.28,648,1416.14,641,1412.92,635.45Z"/><path class="cls-46" d="M1401.47,608s-6.82,5.34-3.78,11.58-21.82,6.89-19.26,3c3.3-5,7.58-6.74,8.07-14.11Z"/><path class="cls-49" d="M1397,589.11c-6.65,2-20.89,18.15-18.26,24.65,1.18,2.83,10.68,5.08,20.17-.41,3.89-2.23,9.81-7.16,9.61-15.23C1408.45,594.47,1404.74,586.82,1397,589.11Z"/><path class="cls-48" d="M1391.31,589c-2.18,1.84-2.17,2.51,4.34,7.14s7.94,4.77,6.37,6.09c-4.59,3.87.91,5.44-4.63,10s2.17,4,7.2.51c1-.72,6.35-3.95,6.61-13C1411.53,589.24,1399.32,582.32,1391.31,589Z"/><path class="cls-47" d="M1412.92,635.45v-.05c-10.38-5.32-28.66,20.11-28.66,20.11.32.45.63.77,1,1.22a18.22,18.22,0,0,1-8.92,3.5c-7.8.62-12.45-2-15.78-5h-8c3.78,7.69,11.8,20.28,22,20.28,18,0,24.13-6.77,24.63-6.5a47.86,47.86,0,0,1,8.51-12C1416.28,648,1416.14,641,1412.92,635.45Z"/><path class="cls-47" d="M1355.05,697.13c-8.61,7.17-16.31,17.26-18.88,31,2.76-5.53,7.15-10.82,9.75-14.5a94.84,94.84,0,0,0,5.45-9.57C1352.64,701.77,1353.86,699.47,1355.05,697.13Z"/><path class="cls-51" d="M1361.12,650.61c5.69-2.84,15.91-12.13,8.81-25.61s-19.73-30.41-56.14-34.38c0,0-3,27.53,25.49,53.12C1343.91,647.9,1352.76,654.77,1361.12,650.61Z"/><path class="cls-52" d="M1339.89,632.89c5.43,4.9,15.81,13,25.64,8.07a26.26,26.26,0,0,0,6.66-4.91c-1,7.47-7.12,12.59-11.07,14.56-8.36,4.16-17.21-2.71-21.84-6.87-21.79-19.59-25.15-40.26-25.53-48.92C1317.59,606,1325.14,619.66,1339.89,632.89Z"/><path class="cls-49" d="M1415.23,637.18c-1.59-1.69-7.81-4.75-13.2-1-7.22,5-15.36,20.92-27.44,21.86s-16.7-5.81-20.38-9.92-3.22-7.5-5.62-9.67-4.86.81-.55,8.84c2.07,3.85,10,24.06,24.57,25.58C1391.74,674.85,1424.7,647,1415.23,637.18Z"/><path class="cls-42" d="M1412.86,634.33s7.9,5.5,0,17.47S1400,667.89,1400,667.89s-9-2.61-17.45-14.61C1382.54,653.28,1402.87,625,1412.86,634.33Z"/><path class="cls-51" d="M1207.89,799c-5.23-3.59-14-14.2-5.14-26.51s23.73-27.27,60.23-26.11c0,0-.88,27.59-32.58,48.89C1225.25,798.68,1215.56,804.24,1207.89,799Z"/><path class="cls-52" d="M1231.32,784.42c-6,4.08-17.43,10.6-26.44,4.4A26.09,26.09,0,0,1,1199,783c-.09,7.52,5.28,13.42,8.91,15.92,7.67,5.29,17.36-.27,22.51-3.73,24.25-16.3,30.45-36.25,32-44.74C1257.09,761,1247.72,773.41,1231.32,784.42Z"/><path class="cls-51" d="M1224.46,790.05c-.75-6.27-6.12-19.46-21.46-19.41S1167.09,774,1150.74,804c0,0,25.3,15.19,59.61,2C1215.94,803.86,1225.57,799.26,1224.46,790.05Z"/><path class="cls-52" d="M1200.18,800.52c6.56-2.52,17.87-7.91,16.57-18.73a27.9,27.9,0,0,0-2.4-8.08c6.82,4.26,9.58,12,10.11,16.34,1.11,9.21-8.52,13.81-14.11,16-26.25,10.11-47.2,3.6-55.61,0A89.56,89.56,0,0,0,1200.18,800.52Z"/><path class="cls-51" d="M1217.53,796.44c-1.1-6.24.32-19.94,15.33-22.22s36.09-2.14,60.81,24.74c0,0-20.33,18.68-57.72,10.95C1229.87,808.66,1219.12,805.62,1217.53,796.44Z"/><path class="cls-52" d="M1244.31,803c-7.15-1.46-19.77-5-21.66-15.81a26.71,26.71,0,0,1,0-8.26c-5.42,5.2-5.89,13.16-5.12,17.5,1.59,9.18,12.34,12.22,18.42,13.47,28.61,5.91,47.2-3.63,54.37-8.44C1279.1,805,1263.64,807,1244.31,803Z"/></g></g></svg>