<svg id="Layer_1" data-name="Layer 1" xmlns="http://www.w3.org/2000/svg" xmlns:xlink="http://www.w3.org/1999/xlink" viewBox="0 0 1920 1080"><defs><style>.cls-1{fill:none;}.cls-2{fill:#fcb45e;}.cls-3{fill:#ffdfa6;}.cls-4{fill:#292935;}.cls-5{fill:#119dae;}.cls-6{fill:#b6e9f2;}.cls-7{fill:#fd6f6d;}.cls-8{fill:#f2a7a7;}.cls-9{clip-path:url(#clip-path);}.cls-10{fill:#188ba0;}.cls-11{fill:#fff0d7;}.cls-12{fill:#e87777;}</style><clipPath id="clip-path"><ellipse class="cls-1" cx="971.85" cy="521.37" rx="281.49" ry="264.98"/></clipPath></defs><path class="cls-2" d="M1274.22,806.81s27.85,36.81,0,64.42S948,932.45,948,932.45l-17.85-54.87q81.4-13.33,162.76-26.66Q1172.1,838,1251.32,825C1266,822.57,1274.3,816,1274.22,806.81Z"/><path class="cls-2" d="M930.11,877.58,948,932.45s-13.26,35.79-78,34.49S671.25,885.87,660.48,840.17s7.79-67.32,7.79-67.32c-2.5,9-.33,19.44,6,28.65,5.5,8.08,13.4,14.37,19.73,19.41,47.15,37.56,99,74.21,158.77,88a120.62,120.62,0,0,0,27,3.52,64.63,64.63,0,0,0,23-3.91C916.75,903.14,927.59,890.73,930.11,877.58Z"/><path class="cls-3" d="M1274.22,806.81c.07,9.13-8.25,15.76-22.91,18.17q-79.23,13-158.44,25.95L930.11,877.58c-2.52,13.15-13.36,25.57-27.35,30.91a64.45,64.45,0,0,1-23,3.91,121.42,121.42,0,0,1-27-3.51C793,895.12,741.13,858.48,694,820.92c-6.32-5-14.23-11.35-19.73-19.42-6.3-9.21-8.49-19.66-6-28.65,3.87-13.72,18.41-23.5,38.89-26.17a122.56,122.56,0,0,1,70.65,12l193.67-34.19c31.7-5.6,67.65-12,102-5.67,22.83,4.18,44.27,13.77,65,23,10.26,4.59,20.88,9.33,31.46,13.34,9.92,3.73,20.3,7,30.35,10.12,20.78,6.54,42.27,13.29,61.42,24.73C1264.75,791.86,1274.14,797.46,1274.22,806.81Z"/><path class="cls-4" d="M940.05,882.93c-.45-2.92-4.88-1.68-4.43,1.22q3.25,21.12,6.5,42.24c.45,2.91,4.88,1.67,4.43-1.22Q943.31,904.05,940.05,882.93Z"/><path class="cls-4" d="M886.68,932.8a2.41,2.41,0,0,0-.59-1l-.47-.36a2.24,2.24,0,0,0-1.16-.31h-1.27a1.69,1.69,0,0,0-.89.2,2,2,0,0,0-1.21,1.21,1.69,1.69,0,0,0-.2.89l.08.61a2.35,2.35,0,0,0,.59,1l.47.36a2.22,2.22,0,0,0,1.16.31h1.27a1.71,1.71,0,0,0,.89-.19,1.89,1.89,0,0,0,.74-.48,1.71,1.71,0,0,0,.47-.74,1.68,1.68,0,0,0,.2-.88C886.73,933.21,886.71,933,886.68,932.8Z"/><path class="cls-4" d="M906.18,920.9c-2.95,0-3,4.59,0,4.59S909.14,920.9,906.18,920.9Z"/><path class="cls-4" d="M895.62,943a2.29,2.29,0,0,0-.59-1l-.46-.36a2.27,2.27,0,0,0-1.16-.31h-.64a1.71,1.71,0,0,0-.89.2,2,2,0,0,0-1.21,1.21,1.69,1.69,0,0,0-.2.89c0,.2,0,.4.08.61a2.35,2.35,0,0,0,.59,1l.47.36a2.24,2.24,0,0,0,1.16.31h.64a1.67,1.67,0,0,0,.88-.19,1.83,1.83,0,0,0,.74-.48,1.73,1.73,0,0,0,.48-.74,1.67,1.67,0,0,0,.19-.88C895.68,943.43,895.65,943.23,895.62,943Z"/><path class="cls-4" d="M910.65,943.89c-2.95,0-3,4.6,0,4.6S913.62,943.89,910.65,943.89Z"/><path class="cls-4" d="M919.6,936.87c-3,0-3,4.59,0,4.59S922.56,936.87,919.6,936.87Z"/><path class="cls-4" d="M1189.35,884.62a1.79,1.79,0,0,0-.48-.74,1.71,1.71,0,0,0-.74-.47,1.68,1.68,0,0,0-.88-.2l-.61.08a2.38,2.38,0,0,0-1,.59l-.36.47a2.24,2.24,0,0,0-.31,1.16v.64a1.68,1.68,0,0,0,.2.88,1.71,1.71,0,0,0,.47.74,1.89,1.89,0,0,0,.74.48,1.71,1.71,0,0,0,.89.19l.61-.08a2.25,2.25,0,0,0,1-.59l.36-.46a2.27,2.27,0,0,0,.31-1.16v-.64A1.71,1.71,0,0,0,1189.35,884.62Z"/><path class="cls-4" d="M1222.38,872.35c-3,0-3,4.6,0,4.6S1225.34,872.35,1222.38,872.35Z"/><path class="cls-4" d="M1212.17,859.47c-.22-.43-.44-.85-.65-1.28a1.81,1.81,0,0,0-.59-.64,1.72,1.72,0,0,0-.79-.41,2.62,2.62,0,0,0-1.77.23l-.46.36a2.2,2.2,0,0,0-.59,1c0,.21-.06.41-.08.61a2.24,2.24,0,0,0,.31,1.16l.65,1.27a1.68,1.68,0,0,0,.59.65,1.73,1.73,0,0,0,.78.41,1.7,1.7,0,0,0,.92,0,1.64,1.64,0,0,0,.85-.27l.47-.36a2.35,2.35,0,0,0,.59-1c0-.21,0-.41.08-.62A2.3,2.3,0,0,0,1212.17,859.47Z"/><path class="cls-4" d="M1245.67,842.1a2.2,2.2,0,0,0-.59-1l-.46-.36a2.37,2.37,0,0,0-1.16-.31h-.64a2.61,2.61,0,0,0-1.62.67,1.7,1.7,0,0,0-.48.74,1.82,1.82,0,0,0-.2.89c0,.2.06.41.08.61a2.22,2.22,0,0,0,.6,1l.46.36a2.28,2.28,0,0,0,1.16.32h.64a1.75,1.75,0,0,0,.88-.2,2.12,2.12,0,0,0,1.22-1.22,1.78,1.78,0,0,0,.2-.88Z"/><path class="cls-4" d="M1259.43,851.91c-3,0-3,4.59,0,4.59S1262.39,851.91,1259.43,851.91Z"/><path class="cls-4" d="M706.24,863.41c-3,0-3,4.59,0,4.59S709.21,863.41,706.24,863.41Z"/><path class="cls-4" d="M723.73,892a4.87,4.87,0,0,0-.24-.57l0,0a1.76,1.76,0,0,0-.59-.65,1.73,1.73,0,0,0-.78-.41,1.85,1.85,0,0,0-.74,0,2.13,2.13,0,0,0-.94,0l-.55.23a2.3,2.3,0,0,0-.82.82l0,0c0,.09-.09.22-.12.28l-.12.29v0a4.55,4.55,0,0,0-.09.63,2.44,2.44,0,0,0,.33,1.23h0l.36.47h0l0,0a3.05,3.05,0,0,0,.49.38,6.14,6.14,0,0,0,.59.25h.08l.61.08h.11A5,5,0,0,0,722,895H722l.55-.23h0l0,0,.47-.36h0l.36-.47h0a2.38,2.38,0,0,0,.24-.57v0h0c0-.1,0-.2,0-.31s0-.2,0-.3h0A2.1,2.1,0,0,0,723.73,892Z"/><path class="cls-4" d="M735.63,869.79c-3,0-3,4.6,0,4.6S738.59,869.79,735.63,869.79Z"/><path class="cls-4" d="M701.13,800.81c-3,0-3,4.59,0,4.59S704.09,800.81,701.13,800.81Z"/><path class="cls-4" d="M717.74,775.25c-3,0-3,4.6,0,4.6S720.7,775.25,717.74,775.25Z"/><path class="cls-4" d="M726.68,809.11c-2.95,0-3,4.6,0,4.6S729.65,809.11,726.68,809.11Z"/><path class="cls-4" d="M753.51,833.38c-3,0-3,4.6,0,4.6S756.48,833.38,753.51,833.38Z"/><path class="cls-4" d="M1048.81,839.91a1.71,1.71,0,0,0-.47-.74l-.47-.36a2.32,2.32,0,0,0-1.16-.32l-.61.09a2.25,2.25,0,0,0-1,.59l-.64.64a2.61,2.61,0,0,0-.67,1.62,1.71,1.71,0,0,0,.2.89,1.77,1.77,0,0,0,.47.74l.47.35a2.22,2.22,0,0,0,1.16.32l.61-.08a2.35,2.35,0,0,0,1-.59l.64-.64a1.77,1.77,0,0,0,.47-.74,1.71,1.71,0,0,0,.2-.89A1.68,1.68,0,0,0,1048.81,839.91Z"/><path class="cls-4" d="M1087.6,829.55c-3,0-3,4.6,0,4.6S1090.56,829.55,1087.6,829.55Z"/><path class="cls-4" d="M1070.65,814a2.29,2.29,0,0,0-.59-1l-.64-.64a1.79,1.79,0,0,0-.74-.48,2.16,2.16,0,0,0-1.77,0,1.73,1.73,0,0,0-.74.48l-.36.46a2.27,2.27,0,0,0-.31,1.16l.08.61a2.29,2.29,0,0,0,.59,1l.64.64a1.71,1.71,0,0,0,.74.47,1.68,1.68,0,0,0,.88.2,1.71,1.71,0,0,0,.89-.2,1.77,1.77,0,0,0,.74-.47l.36-.47a2.34,2.34,0,0,0,.31-1.16Z"/><path class="cls-4" d="M1117,805.28c-3,0-3,4.59,0,4.59S1119.94,805.28,1117,805.28Z"/><path class="cls-4" d="M1134.87,823.16c-3,0-3,4.6,0,4.6S1137.83,823.16,1134.87,823.16Z"/><path class="cls-4" d="M1171.28,812.3c-3,0-3,4.6,0,4.6S1174.24,812.3,1171.28,812.3Z"/><path class="cls-4" d="M1186.61,790c-3,0-3,4.59,0,4.59S1189.57,790,1186.61,790Z"/><path class="cls-5" d="M864.2,884.44c-19.62,8-43.35,1.08-55.12-15.56-10,12.1-24.55,19.64-41.28,14.37-18.77-5.94-24.89-24.51-23.12-42.12-19.25,5.86-41.47,7.87-54-10.48-10.93-16-1.88-32.76,11.41-43.74-15.9-7.6-31-16.85-44.1-28.82-16.17-14.74-33.26-37.3-33.61-60.16-.38-26.26,23.23-37.13,45.49-27.81,24.7,10.33,97.32,33,119.57,48,4.56-.33,77.19,30.92,93.18,39.07,14.41,7.34-4,51.61,8.42,62.37C914.47,839.94,885.42,875.84,864.2,884.44Z"/><path class="cls-5" d="M1300.82,760.55c-20.94,25.44-53.57,41.47-86.52,42.23-15.3.34-30.41-3-45-7.61,13.09,17.05,18.06,37.34,2,56.83-22.35,27.14-60,28.16-85.73,8.65-.17,4.6-.13,9.27-1.27,13.63a33.11,33.11,0,0,1-12.53,18.11c-13.32,9.81-31.13,8.54-46.7,5.32-52.33-10.85-55-81.49-45.51-114.68,2.94-10.28,93.47-59.16,120.2-40.88,40.63-4.66,92-29.59,122-53.67,23.36-18.75,60.91-36.15,85.12-8.42C1328.09,704.26,1319.47,737.93,1300.82,760.55Z"/><path class="cls-6" d="M801,755.78q-11.4-3.09-22.71-6.47c-.12-1.67-1.25-3.5-1.84-4.94l-2.7-6.55-5.4-13.1a2.39,2.39,0,0,0-2.83-1.6,2.3,2.3,0,0,0-1.6,2.83l4.88,11.85c.82,2,1.63,4,2.44,5.92l1.16,2.81.43,1.17q-15.35-4.62-30.54-9.7c.06-1.85-1.17-3.94-1.77-5.54q-1.4-3.71-2.78-7.41l-5.56-14.81c-1-2.74-5.47-1.56-4.43,1.22l4.8,12.79,2.4,6.4,1.14,3c.27.73.5,1.68.83,2.5q-16.29-5.55-32.39-11.6a12.24,12.24,0,0,0-1-3.57l-2.76-6.94-5.28-13.31a2.37,2.37,0,0,0-2.83-1.6A2.32,2.32,0,0,0,691,702q2.31,5.79,4.6,11.57,1.14,2.9,2.3,5.79l1.14,2.89.16.34c-4-1.52-7.92-3.05-11.87-4.62q-16.06-6.39-31.92-13.3c-2.68-1.18-5,2.78-2.32,4q21,9.17,42.41,17.43l-.21.07q-2.76.81-5.54,1.58-6,1.63-12.07,3c-2.88.66-1.66,5.09,1.22,4.43q6.81-1.56,13.53-3.44c2.24-.62,4.48-1.28,6.7-2a15.86,15.86,0,0,0,3.11-1.15q14.37,5.43,28.9,10.45l-4,1.3-13.3,4.24c-2.81.9-1.61,5.34,1.22,4.44l15-4.8,7.16-2.28c.41-.14.86-.26,1.3-.39,9.29,3.14,18.62,6.18,28,9.05l.94.28c-.91.39-1.83.74-2.72,1.15a94.63,94.63,0,0,0-10.59,5.7c-2.51,1.56-.21,5.54,2.31,4a95.6,95.6,0,0,1,11.44-6.08c1.89-.84,3.81-1.6,5.75-2.3l1-.31c8.37,2.49,16.76,4.91,25.18,7.19C802.59,761,803.81,756.56,801,755.78Z"/><path class="cls-6" d="M810.06,781.7c-4,2.36-8,4.61-12.09,6.79a4.66,4.66,0,0,0-2.78-1c-4.27-.23-8.49-.38-12.72-1a103.84,103.84,0,0,1-13.07-2.84c-2.85-.81-4.07,3.62-1.23,4.43A102.76,102.76,0,0,0,782,791q3.5.5,7,.77c.73.06,1.46.09,2.18.13-8.77,4.41-17.72,8.45-26.86,12a2.69,2.69,0,0,0-1.61-.8l-32.11-3.69a2.33,2.33,0,0,0-2.3,2.3,2.35,2.35,0,0,0,2.3,2.3L756.15,807a311.05,311.05,0,0,1-38.23,11c-2.89.63-1.67,5.06,1.22,4.43a313.11,313.11,0,0,0,34.21-9.58c-2.89,3.58-5.66,7.28-8.26,11.08-1.67,2.45,2.31,4.75,4,2.32a166.74,166.74,0,0,1,13-16.53,321.18,321.18,0,0,0,29.83-12.93c-.31.76-.64,1.52-.93,2.29q-1.73,4.45-3.11,9c-.87,2.84,3.56,4,4.43,1.22,1.27-4.14,2.72-8.22,4.39-12.22.44-1,.89-2.08,1.35-3.11l.21-.43c4.79-2.51,9.54-5.13,14.2-7.9C814.92,784.16,812.61,780.18,810.06,781.7Z"/><path class="cls-4" d="M877,823.8c-3,0-3,4.6,0,4.6S879.94,823.8,877,823.8Z"/><path class="cls-4" d="M884.83,839.27a1.83,1.83,0,0,0-.48-.74,1.73,1.73,0,0,0-.74-.48,1.67,1.67,0,0,0-.88-.19l-.61.08a2.29,2.29,0,0,0-1,.59l-.36.46a2.27,2.27,0,0,0-.31,1.16v1a1.71,1.71,0,0,0,.2.89,2,2,0,0,0,1.21,1.21,1.69,1.69,0,0,0,.89.2l.61-.08a2.35,2.35,0,0,0,1-.59l.36-.47a2.24,2.24,0,0,0,.31-1.16v-1A1.67,1.67,0,0,0,884.83,839.27Z"/><path class="cls-4" d="M876.41,852.73l-.36-.47a2.38,2.38,0,0,0-1-.59l-.61-.08a2.37,2.37,0,0,0-1.16.31l-.64.32a2.55,2.55,0,0,0-1,1.38,2.62,2.62,0,0,0,.23,1.77l.36.46a2.2,2.2,0,0,0,1,.59l.61.08a2.24,2.24,0,0,0,1.16-.31l.64-.32a1.76,1.76,0,0,0,.65-.59,1.73,1.73,0,0,0,.41-.78,1.8,1.8,0,0,0,0-.92A1.85,1.85,0,0,0,876.41,852.73Z"/><path class="cls-4" d="M865.8,836.58c-3,0-3,4.59,0,4.59S868.76,836.58,865.8,836.58Z"/><path class="cls-4" d="M859.07,858.39a2.38,2.38,0,0,0-.59-1L858,857a2.37,2.37,0,0,0-1.16-.31h-.32a1.69,1.69,0,0,0-.89.2,2,2,0,0,0-1.21,1.21,1.71,1.71,0,0,0-.2.89c0,.2,0,.4.08.61a2.29,2.29,0,0,0,.59,1l.47.36a2.32,2.32,0,0,0,1.16.32h.32a1.78,1.78,0,0,0,.88-.2,1.73,1.73,0,0,0,.74-.48,1.83,1.83,0,0,0,.48-.74,1.77,1.77,0,0,0,.19-.88Z"/><path class="cls-4" d="M782.8,872l-.36-.46a2.25,2.25,0,0,0-1-.59l-1-.32a1.7,1.7,0,0,0-.92,0,1.64,1.64,0,0,0-.85.27,1.76,1.76,0,0,0-.65.59,1.73,1.73,0,0,0-.41.78l-.08.61a2.34,2.34,0,0,0,.31,1.16l.36.47a2.38,2.38,0,0,0,1,.59l1,.32a1.7,1.7,0,0,0,.92,0,1.68,1.68,0,0,0,.86-.27,2.55,2.55,0,0,0,1-1.38c0-.2.06-.4.08-.61A2.27,2.27,0,0,0,782.8,872Z"/><path class="cls-4" d="M795.85,866c-3,0-3,4.6,0,4.6S798.81,866,795.85,866Z"/><path class="cls-4" d="M784,857.34c-2.95,0-3,4.59,0,4.59S787,857.34,784,857.34Z"/><path class="cls-4" d="M876,768a2.38,2.38,0,0,0-.59-1l-.47-.35a2.25,2.25,0,0,0-1.16-.32h-.32a1.78,1.78,0,0,0-.88.2,1.71,1.71,0,0,0-.74.47,1.79,1.79,0,0,0-.48.74,1.71,1.71,0,0,0-.19.89l.08.61a2.2,2.2,0,0,0,.59,1l.46.36a2.28,2.28,0,0,0,1.16.32h.32a1.82,1.82,0,0,0,.89-.2,1.7,1.7,0,0,0,.74-.48,2.61,2.61,0,0,0,.67-1.62Z"/><path class="cls-4" d="M874.81,784.39l-.15-.19a1.47,1.47,0,0,0-.14-.45,1.73,1.73,0,0,0-.59-.64,1.86,1.86,0,0,0-.78-.42l-.62-.08a2.28,2.28,0,0,0-1.16.32l-.46.36a2.2,2.2,0,0,0-.59,1l0,.1c0,.21-.07.44-.08.66v.07c0,.1,0,.21,0,.31s0,.21,0,.32a.07.07,0,0,1,0,0s0,0,0,0a6.32,6.32,0,0,0,.25.6.41.41,0,0,0,0,.09c.12.17.25.33.38.49l0,0a3.62,3.62,0,0,0,.53.42l0,0,.29.13.3.12a1.7,1.7,0,0,0,.92,0,1.64,1.64,0,0,0,.85-.27,1.76,1.76,0,0,0,.65-.59,1.73,1.73,0,0,0,.41-.78c0-.21.05-.41.08-.61A2.34,2.34,0,0,0,874.81,784.39Z"/><path class="cls-4" d="M882.27,776a1.71,1.71,0,0,0-.47-.74l-.47-.36a2.24,2.24,0,0,0-1.16-.31l-.61.08a2.2,2.2,0,0,0-1,.59l-.32.32a1.64,1.64,0,0,0-.48.74,1.78,1.78,0,0,0-.2.88,1.82,1.82,0,0,0,.2.89,1.7,1.7,0,0,0,.48.74l.46.36a2.27,2.27,0,0,0,1.16.31l.61-.08a2.38,2.38,0,0,0,1-.59l.32-.32a1.77,1.77,0,0,0,.47-.74,2.06,2.06,0,0,0,0-1.77Z"/><path class="cls-4" d="M692.23,766.45a2.06,2.06,0,0,0-1.21-1.22,1.82,1.82,0,0,0-.89-.2l-.61.09a2.25,2.25,0,0,0-1,.59l-.36.46a2.27,2.27,0,0,0-.31,1.16v.32a1.71,1.71,0,0,0,.19.89,1.79,1.79,0,0,0,.48.74,1.71,1.71,0,0,0,.74.47,1.68,1.68,0,0,0,.88.2l.61-.08a2.38,2.38,0,0,0,1-.59l.36-.47a2.24,2.24,0,0,0,.31-1.16v-.32A1.68,1.68,0,0,0,692.23,766.45Z"/><path class="cls-4" d="M705.46,760.24c-3,0-3,4.6,0,4.6S708.43,760.24,705.46,760.24Z"/><path class="cls-4" d="M689.81,750c-2.95,0-3,4.6,0,4.6S692.78,750,689.81,750Z"/><path class="cls-4" d="M678.06,755l-.36-.46a2.2,2.2,0,0,0-1-.59l-.61-.08a2.24,2.24,0,0,0-1.16.31l-.64.32a1.65,1.65,0,0,0-.64.59,1.64,1.64,0,0,0-.41.78,1.8,1.8,0,0,0-.05.92,1.75,1.75,0,0,0,.28.85l.36.47a2.29,2.29,0,0,0,1,.59l.61.08a2.34,2.34,0,0,0,1.16-.31l.64-.32a1.73,1.73,0,0,0,.64-.59,1.83,1.83,0,0,0,.42-.79,1.76,1.76,0,0,0,0-.91A1.79,1.79,0,0,0,678.06,755Z"/><path class="cls-6" d="M1277.51,729.36q-13.3,4.17-26.84,7.57a163.63,163.63,0,0,0,11.11-23.3c1.06-2.77-3.38-4-4.43-1.22a155.52,155.52,0,0,1-13,26.08q-22.75,5.43-45.95,8.64,9.52-13.1,20.15-25.35c1.94-2.22-1.3-5.48-3.25-3.25Q1203,732.66,1192.16,748q-23.09,2.92-46.38,3.67c-6.14.19-12.29.29-18.43.2-6-.08-11.87-.6-17.45-2.92-2.73-1.13-3.92,3.31-1.22,4.43,9.67,4,20.81,3.22,31.06,3q17.31-.3,34.57-1.84,8.39-.75,16.76-1.77l14,11a138.18,138.18,0,0,0,13,9.63c2.53,1.55,4.84-2.42,2.32-4a137.24,137.24,0,0,1-12.84-9.54l-10.14-8q22-3,43.7-7.93c.58-.13,1.15-.28,1.73-.42a2.36,2.36,0,0,0,.71.73q10.11,6.29,19.85,13.12c2.43,1.71,4.72-2.27,2.32-4-5.56-3.92-11.24-7.66-17-11.3q15.13-3.72,30-8.37C1281.55,732.91,1280.35,728.48,1277.51,729.36Z"/><path class="cls-6" d="M1139,823.77l-17.9-4.33-8.62-2.08c-1.18-.29-2.68-.84-4.15-1.14q-7-8.67-13.21-18c3.81.79,7.6,2,11.25,3.08a138.77,138.77,0,0,1,15.3,5.76c2.67,1.2,5-2.76,2.32-4a143.78,143.78,0,0,0-17.14-6.45c-2.94-.9-5.92-1.69-8.93-2.39a38.22,38.22,0,0,0-6.22-1.34,232.81,232.81,0,0,1-14-25.87c-1.24-2.68-5.2-.35-4,2.32a235.33,235.33,0,0,0,13.68,25.36,14.06,14.06,0,0,0-1.43,4.3c-.77,3.21-1.55,6.43-2.32,9.65q-2.33,9.64-4.64,19.3c-.7,2.87,3.74,4.1,4.43,1.22l4.06-16.89c.65-2.68,1.29-5.36,1.94-8l1-4c0-.18.11-.38.16-.57q6.09,9.28,13,18c-.84,1.54-.58,3.83-.64,5.45l-.33,8.76q-.33,9.09-.68,18.18c-.09,2.53,4.16,3.21,4.52.61,0-.2,0-.41.07-.61h0V850a199.54,199.54,0,0,0,1.83-26.53,237.54,237.54,0,0,0,17.35,18.41c2.14,2,5.4-1.21,3.25-3.25q-8.19-7.77-15.56-16.29l1.2.29,7.63,1.85,15.58,3.76C1140.68,828.9,1141.9,824.47,1139,823.77Z"/><path class="cls-6" d="M1038.49,862q-4.47-5.28-9.41-10.12c-1.65-1.61-3.35-3.18-5.07-4.7a42,42,0,0,0-5.26-4.34c-.2-.12-.4-.23-.61-.33-.06-.24-.13-.48-.19-.72-2.52-10.18-4.36-20.49-3.8-31,.15-2.95-4.44-2.95-4.6,0-.56,10.54,1.23,21,3.71,31.17l.18.71a2.86,2.86,0,0,0-.4.28c-1.74,1.48-2.7,4.06-3.79,6l-7.43,13.24c-1.45,2.59,2.52,4.91,4,2.32l6.29-11.22,2.79-5c2.14,8.31,4.47,16.59,6.7,24.88.77,2.86,5.21,1.65,4.44-1.22-2-7.38-4-14.75-6-22.14a142.41,142.41,0,0,1,15.18,15.4C1037.15,867.5,1040.39,864.24,1038.49,862Z"/><path class="cls-4" d="M988.76,841.69c-3,0-3,4.59,0,4.59S991.73,841.69,988.76,841.69Z"/><path class="cls-4" d="M999,827.63c-3,0-3,4.6,0,4.6S1002,827.63,999,827.63Z"/><path class="cls-4" d="M985.57,816.78c-3,0-3,4.59,0,4.59S988.53,816.78,985.57,816.78Z"/><path class="cls-4" d="M1071.35,847.57a1.77,1.77,0,0,0-.47-.74l-.47-.36a2.34,2.34,0,0,0-1.16-.31l-.61.08a2.29,2.29,0,0,0-1,.59l-.64.64a1.7,1.7,0,0,0-.48.74,2.06,2.06,0,0,0,0,1.77,1.64,1.64,0,0,0,.48.74l.46.36a2.27,2.27,0,0,0,1.16.31l.61-.08a2.29,2.29,0,0,0,1-.59l.64-.64a1.71,1.71,0,0,0,.47-.74,1.78,1.78,0,0,0,.2-.88A1.82,1.82,0,0,0,1071.35,847.57Z"/><path class="cls-4" d="M1063.5,873c-3,0-3,4.59,0,4.59S1066.46,873,1063.5,873Z"/><path class="cls-4" d="M1053.28,851.91c-3,0-3,4.59,0,4.59S1056.24,851.91,1053.28,851.91Z"/><path class="cls-4" d="M1142.07,791.86c-3,0-3,4.6,0,4.6S1145,791.86,1142.07,791.86Z"/><path class="cls-4" d="M1155.13,817.82a1.82,1.82,0,0,0-.41-.79,1.74,1.74,0,0,0-.53-.48c-.06-.08-.12-.15-.17-.23a2.38,2.38,0,0,0-1-.59l-.61-.08a2.27,2.27,0,0,0-1.16.31h0l-.47.36,0,0,0,0-.36.47h0v0a2.58,2.58,0,0,0-.26.59v0l-.09.61h0v0c0,.2.12.82.09.64a.09.09,0,0,0,0,.05,5.39,5.39,0,0,0,.25.6l0,.05a6.54,6.54,0,0,0,.4.52l0,0,0,0a5.32,5.32,0,0,0,.52.39l.05,0h0l.55.23h0l.06,0c-.09,0,.43.07.63.08h0l.31,0,.31,0h.05l.56-.23h0a4.57,4.57,0,0,0,.49-.38l0,0h0l.36-.47h0l0,0a2.62,2.62,0,0,0,.23-1.77Z"/><path class="cls-4" d="M1160.6,789.31c-3,0-3,4.59,0,4.59S1163.56,789.31,1160.6,789.31Z"/><path class="cls-4" d="M1242,703.48a2.2,2.2,0,0,0-.59-1l-.46-.36a2.38,2.38,0,0,0-1.16-.32h-.64a2.54,2.54,0,0,0-1.63.68,1.71,1.71,0,0,0-.47.74,1.68,1.68,0,0,0-.2.88c0,.21.05.41.08.61a2.38,2.38,0,0,0,.59,1l.47.36a2.34,2.34,0,0,0,1.16.31h.64a1.68,1.68,0,0,0,.88-.2,1.71,1.71,0,0,0,.74-.47,1.89,1.89,0,0,0,.48-.74,1.81,1.81,0,0,0,.19-.89Z"/><path class="cls-4" d="M1259.91,685a2.38,2.38,0,0,0-.59-1l-.47-.36a2.34,2.34,0,0,0-1.16-.31h-.64a1.68,1.68,0,0,0-.88.2,2.06,2.06,0,0,0-1.22,1.21,1.82,1.82,0,0,0-.2.89l.09.61a2.2,2.2,0,0,0,.59,1l.46.36a2.38,2.38,0,0,0,1.16.32h.64a1.82,1.82,0,0,0,.89-.2,2.06,2.06,0,0,0,1.21-1.22,1.68,1.68,0,0,0,.2-.88Z"/><path class="cls-4" d="M1267.91,698.6c-3,0-3,4.6,0,4.6S1270.87,698.6,1267.91,698.6Z"/><path class="cls-4" d="M1287.71,691.57c-3,0-3,4.6,0,4.6S1290.68,691.57,1287.71,691.57Z"/><path class="cls-4" d="M1235.33,779.09c-2.95,0-3,4.59,0,4.59S1238.3,779.09,1235.33,779.09Z"/><path class="cls-4" d="M1251.94,778.45c-3,0-3,4.59,0,4.59S1254.9,778.45,1251.94,778.45Z"/><path class="cls-4" d="M1275.58,759.92c-3,0-3,4.6,0,4.6S1278.54,759.92,1275.58,759.92Z"/><path class="cls-4" d="M1244.28,759.92c-3,0-3,4.6,0,4.6S1247.24,759.92,1244.28,759.92Z"/><path class="cls-4" d="M1218.09,788c-3,0-3,4.6,0,4.6S1221.05,788,1218.09,788Z"/><path class="cls-4" d="M1091.61,755.45c-3,0-3,4.6,0,4.6S1094.57,755.45,1091.61,755.45Z"/><path class="cls-7" d="M976.87,780.69a2.73,2.73,0,0,0-2.32-1.79c-.08-.19-13.92-10.23-21.71-13.07-20.17-7.4-42.33-11.64-64.35-14.62-.84-.13-1.69-.24-2.53-.35-.51-.43-29.25-3.93-42.82-4.55-10.6-.74-21.21-1.12-31.74-1a310,310,0,0,0-39.26,3.21c-8.79,1-17.74,2.08-25.68,4.42a55.94,55.94,0,0,0-5.36,1.85c-.64.19-1.31.34-2,.5a2.31,2.31,0,0,0-1.71,1.31,14.53,14.53,0,0,0-3.53,2.7,1.81,1.81,0,0,0-1.17,1.07,49.27,49.27,0,0,0-3.17,22.71c.68,6.74,1.55,14.32,11.44,18.47s21.73,6.46,32.9,8.37c12.26,2.08,24.64,3.86,37,5.49,24.89,3.35,49.94,5.9,75,6.95,22.47.94,46.74,1.68,68.08-2.1,11.09-2,21.77-5.06,23.84-13.21C979.9,798.64,978.93,789.37,976.87,780.69Zm-9.9,2c-2.48,2.17-7.52,2.94-11.36,3.62-4.92.92-10,1.57-15.14,2a268.69,268.69,0,0,1-30.64,1c-20.81-.39-41.8-2-62.58-3.77-21.53-1.77-43.07-4.07-64.29-7.85-10.76-1.93-21.44-4.3-31.87-7.14-3.66-1-7.73-2.09-10.43-4.14-4.1-3.12,0-5.89,3.78-7.53a281.1,281.1,0,0,1,29-5.89c.83-.1,1.7-.19,2.53-.26,11.74-1.3,23.7-2.08,35.71-2.39q13.08-.35,26.28.14c8.17.5,16.35,1.22,24.55,2.08,20.15,2.12,40.44,4.64,60.05,9.13C930.27,763.51,976.15,774.66,967,782.74Z"/><path class="cls-8" d="M967,782.74c-2.48,2.17-7.52,2.94-11.36,3.62-4.92.92-10,1.57-15.14,2a268.69,268.69,0,0,1-30.64,1c-20.81-.39-41.8-2-62.58-3.77-21.53-1.77-43.07-4.07-64.29-7.85-10.76-1.93-21.44-4.3-31.87-7.14-3.66-1-7.73-2.09-10.43-4.14-4.1-3.12,0-5.89,3.78-7.53a281.1,281.1,0,0,1,29-5.89c.83-.1,1.7-.19,2.53-.26,11.74-1.3,23.7-2.08,35.71-2.39q13.08-.35,26.28.14c8.17.5,16.35,1.22,24.55,2.08,20.15,2.12,40.44,4.64,60.05,9.13C930.27,763.51,976.15,774.66,967,782.74Z"/><path class="cls-7" d="M836.76,763.59c0-1.09-.91-2.31-3-2.68a238.73,238.73,0,0,0-54.1-3.37q-6.68.35-13.24,1.1c-3.62.42-8.49.6-11.55,2-7.27,3.25,2.58,7.74,7.76,8.76,8,1.57,16.9,1.63,25,2a252.15,252.15,0,0,0,25.78.17c4.3-.22,8.55-.62,12.71-1.23,3.39-.5,7.89-.86,10.21-2.65C838.54,766,838.23,764.68,836.76,763.59Z"/><path class="cls-7" d="M884.87,774.45c-6.26-2.83-13-5.26-19.45-7.86-3-1.22-6.15-2.66-9.68-2.89a14,14,0,0,0-7.82,1.94l-1,.58-.24.06c-3.27,1.22-6.48,2.5-9.56,3.9-2.48,1.12-5.93,2.33-7.37,4.15s-.39,3.94,2,5.28c2.94,1.64,7.2,1.75,10.69,2.16,16.16,1.88,32.36,3.52,48.57,3.43,1.33,0,2.76-1,2.7-1.89C893.46,779.45,889.69,776.63,884.87,774.45Z"/><path class="cls-7" d="M954.54,774.87c-4.87-2.54-11-3.85-16.67-5.09-6.24-1.35-12.58-2.48-18.93-3.45-7.66-1.18-15.36-2.14-23.05-3.08-7.09-.87-14.15-1.65-21.17-1a3.72,3.72,0,0,0-2.22,1c-2.6.3-4.17,2.62-1.24,3.86,11,4.65,22.85,8,35,10.77,11.76,2.71,24.54,6.19,36.81,6.72,4.8.2,10.28-.09,13.86-2.2C960.8,780,958.31,776.84,954.54,774.87Z"/><path class="cls-7" d="M1209.13,748.76a2.46,2.46,0,0,0-2.35-1.19c-.11-.15-14-6.71-21.41-7.92-19.09-3.16-39.41-3.19-59.4-2.14-.77,0-1.53.07-2.3.12-.52-.3-26.54,1.44-38.65,3.17-9.51,1.12-19,2.56-28.25,4.47a280.6,280.6,0,0,0-34.2,9.43c-7.62,2.32-15.35,4.82-22,8.22-1.45.74-3,1.61-4.43,2.55-.53.27-1.09.52-1.66.77a2.08,2.08,0,0,0-1.29,1.44,13.49,13.49,0,0,0-2.67,3,1.65,1.65,0,0,0-.86,1.15,44.41,44.41,0,0,0,1,20.63c1.74,5.85,3.78,12.41,13.22,14.42s20.32,2.07,30.53,1.88c11.19-.22,22.45-.72,33.63-1.34,22.59-1.22,45.18-3.16,67.5-6.44,20-2.94,41.64-6.36,59.89-13.28,9.48-3.61,18.42-8.14,18.88-15.7C1214.82,764.14,1212.41,756.1,1209.13,748.76Zm-8.42,3.48c-1.83,2.34-6.16,3.86-9.44,5.12-4.2,1.63-8.58,3.06-13.06,4.33a244.08,244.08,0,0,1-26.94,6c-18.49,3.15-37.34,5.2-56,7.17-19.34,2-38.79,3.63-58.2,3.84-9.85.1-19.7-.2-29.4-1-3.41-.27-7.19-.56-9.93-1.92-4.15-2.06-1-5.21,2.08-7.29a252.39,252.39,0,0,1,24.69-10.09c.72-.22,1.47-.45,2.19-.65,10.17-3.12,20.63-5.82,31.21-8.11q11.52-2.51,23.28-4.29c7.31-.93,14.67-1.66,22.07-2.28,18.19-1.51,36.56-2.69,54.67-2C1165,741.39,1207.48,743.55,1200.71,752.24Z"/><path class="cls-8" d="M1200.71,752.24c-1.83,2.34-6.16,3.86-9.44,5.12-4.2,1.63-8.58,3.06-13.06,4.33a244.08,244.08,0,0,1-26.94,6c-18.49,3.15-37.34,5.2-56,7.17-19.34,2-38.79,3.63-58.2,3.84-9.85.1-19.7-.2-29.4-1-3.41-.27-7.19-.56-9.93-1.92-4.15-2.06-1-5.21,2.08-7.29a252.39,252.39,0,0,1,24.69-10.09c.72-.22,1.47-.45,2.19-.65,10.17-3.12,20.63-5.82,31.21-8.11q11.52-2.51,23.28-4.29c7.31-.93,14.67-1.66,22.07-2.28,18.19-1.51,36.56-2.69,54.67-2C1165,741.39,1207.48,743.55,1200.71,752.24Z"/><path class="cls-7" d="M1082.27,757.16c-.15-1-1.19-1.9-3.07-1.88a215.79,215.79,0,0,0-48.44,6.1q-5.85,1.44-11.53,3.2c-3.14,1-7.42,2-9.9,3.68-5.88,4.09,3.59,6.41,8.34,6.44,7.35,0,15.23-1.39,22.51-2.4a224.4,224.4,0,0,0,22.83-4.17c3.77-.92,7.46-2,11-3.23,2.92-1,6.84-2.08,8.59-4.06C1084.26,759,1083.76,757.87,1082.27,757.16Z"/><path class="cls-7" d="M1126.67,758.69c-6-1.46-12.37-2.48-18.53-3.69-2.89-.57-5.89-1.33-9.05-.94a12.55,12.55,0,0,0-6.59,3l-.79.67-.21.1c-2.69,1.63-5.31,3.3-7.8,5.06-2,1.41-4.86,3.05-5.82,4.91s.31,3.55,2.66,4.33c2.87,1,6.66.34,9.82.11,14.62-1,29.23-2.31,43.55-5.11,1.18-.23,2.29-1.34,2.08-2.12C1135.11,761.67,1131.3,759.81,1126.67,758.69Z"/><path class="cls-7" d="M1188.39,747.36c-4.73-1.43-10.36-1.56-15.6-1.7-5.76-.15-11.55-.08-17.34.12-7,.25-13.94.69-20.91,1.15-6.42.42-12.8.91-18.91,2.63a3.36,3.36,0,0,0-1.8,1.22c-2.25.71-3.25,3-.45,3.62a191.67,191.67,0,0,0,32.77,3.66c10.86.42,22.75,1.36,33.7-.23,4.28-.63,9.08-1.81,11.9-4.28C1194.8,750.88,1192.06,748.47,1188.39,747.36Z"/><path class="cls-4" d="M964.06,790.24a510.41,510.41,0,0,1-179.84-2.11c-8.15-1.57-16.29-3.3-24.35-5.31-7.77-1.94-15.39-4.32-22.37-8.31-2.57-1.47-4.89,2.5-2.32,4,12.57,7.19,27.34,9.92,41.37,12.8q22.32,4.58,45,7.17a513.35,513.35,0,0,0,92.51,2.22q25.74-1.71,51.23-6C968.19,794.18,967,789.75,964.06,790.24Z"/><path class="cls-4" d="M1200.86,760.8c-49,20.52-102.51,26.49-155.26,26.11q-11-.07-22-.5c-7.69-.28-15.43-.48-22.73-3.21-2.77-1-4,3.41-1.22,4.43,6.17,2.31,12.73,2.89,19.27,3.19,6.8.31,13.61.5,20.42.61,13.32.22,26.65.06,40-.6,26.68-1.34,53.34-4.7,79.28-11.19a304.69,304.69,0,0,0,43.55-14.41C1204.77,764.1,1203.59,759.65,1200.86,760.8Z"/><g class="cls-9"><ellipse class="cls-6" cx="971.85" cy="521.37" rx="281.49" ry="264.98"/><path class="cls-10" d="M1212.93,648.93a4.83,4.83,0,0,1-2.88-.93c-.93-.69-2.35-2.26-1.87-5.35.78-4.88,3.9-8.5,6.91-12,2.08-2.42,4-4.7,5.11-7.22a2.86,2.86,0,0,1,.12-.27,24.45,24.45,0,0,0,1.34-7,2.83,2.83,0,0,1,.53-1.4,14.76,14.76,0,0,1,4.48-4.49,3.27,3.27,0,0,1,1.74-.51,3.19,3.19,0,0,1,1.06.18,3,3,0,0,1,1.93,1.95c2.18,7.27,0,14.32-2.29,19-2.76,5.6-6.75,10.39-10.6,15C1217.54,647,1215.54,648.93,1212.93,648.93Z"/><path class="cls-10" d="M1027.74,311.52a6.59,6.59,0,0,1-1-.07,7.52,7.52,0,0,1-6.24-6.33,2.68,2.68,0,0,1,.13-1.4,11.26,11.26,0,0,1,10.28-7.2c.21,0,.42,0,.63,0,2.52.14,4.48,1.35,5.21,3.22a5.4,5.4,0,0,1-.29,4.13C1033.85,310.2,1030.28,311.52,1027.74,311.52Z"/><path class="cls-10" d="M1018.5,328.36a3.22,3.22,0,0,1-1.45-.34,3,3,0,0,1-1.51-1.73A47.07,47.07,0,0,1,1014,320a2.74,2.74,0,0,1,.19-1.6,7.88,7.88,0,0,1,3.27-3.65,5.39,5.39,0,0,1,3-.85,6.63,6.63,0,0,1,4.85,2.24,6.1,6.1,0,0,1,1.63,5c-.56,3.19-3.34,5.81-7.46,7A3.22,3.22,0,0,1,1018.5,328.36Z"/><path class="cls-10" d="M1041.36,328.05c-3.37,0-7.2-1.9-8-5.52a9,9,0,0,1,.15-3.86l.44-2.15a2.4,2.4,0,0,1,.21-.64,15.82,15.82,0,0,1,13.75-9h0c4.14,0,7.52,1.7,9,4.44a8.27,8.27,0,0,1-1.17,9,20.42,20.42,0,0,1-6,4.69,18.12,18.12,0,0,1-7.7,3Z"/><path class="cls-10" d="M1121.55,711.11l-.59,0a12.2,12.2,0,0,1-9.08-4.92c-3.41-4.41-4.59-11.43-2.94-17.48a75.51,75.51,0,0,1,2.55-7.38c1.93-5,3.75-9.71,2.93-14.33a28.9,28.9,0,0,0-1.42-4.63,24,24,0,0,1-1.91-8c-.07-5,2.54-9.22,5.06-13.25,2.2-3.52,4.28-6.85,4.19-10.28a19.49,19.49,0,0,0-1.08-4.89,27.46,27.46,0,0,1-1.27-5.52c-.58-6.52,3-11.85,6.36-17,2.25-3.39,4.36-6.59,5.29-10,1.88-7-1.31-14.39-4.68-22.22-4-9.37-8.21-19.06-3.25-28.47.46-.86,1-1.78,1.54-2.71,2.41-4.15,4.13-7.42,2.45-8.66a2.76,2.76,0,0,0-1.8-.46,21.5,21.5,0,0,0-4.23.66,26.35,26.35,0,0,1-5.53.8,8.65,8.65,0,0,1-6-2.13c-3.1-2.82-2.67-6.62-2.33-9.67a16.19,16.19,0,0,0,.16-3.73c-.5-3.63-5.11-5.8-9.29-5.8a11.73,11.73,0,0,0-1.33.08c-4.52.53-8.65,2.86-13,5.32l-2.47,1.37A108.25,108.25,0,0,1,1053.52,528a45.35,45.35,0,0,1-10.35,1.31c-7.63,0-13.35-2.48-16.54-7.16-1.94-2.83-2.56-6-3.15-9a37.33,37.33,0,0,0-1-4.25c-2-6.09-8.41-10.91-15.17-11.44l-.68-.05c-2-.14-4.71-.33-6.72-2.26a8.56,8.56,0,0,1-2.3-5.49,65.22,65.22,0,0,1,5.81-35.62c.3-.64.6-1.27.92-1.91,1.91-3.93,3.73-7.64,3.15-11.2a21.44,21.44,0,0,0-.61-2.42A15.37,15.37,0,0,1,1006,433c.26-3.28,2.23-6,3.67-7.92l19.5-26.61c3-4.12,6.14-8.36,10.5-11.64,7.27-5.48,16.53-7.21,24.7-8.74s17.94-3.1,27.35-3.1c13.53,0,23.87,3.22,31.62,9.86a64.1,64.1,0,0,1,5.33,5.36,38.41,38.41,0,0,0,7.37,6.75,12.92,12.92,0,0,0,6.68,1.93c1.47,0,4.15-.31,5.49-2.4a11.7,11.7,0,0,0,.57-1.05,9.37,9.37,0,0,1,2.81-3.65,6.93,6.93,0,0,1,4.08-1.31c3.82,0,7.12,2.94,9.77,5.3l.35.32a15,15,0,0,0,9.72,3.69,11.3,11.3,0,0,0,5.07-1.13,9.15,9.15,0,0,0,4.61-5.88,6.75,6.75,0,0,0-1-5.81c-3-4-9.5-4.22-15.83-4.46-1.06,0-2.11-.08-3.13-.14-5.51-.31-12.69-2.71-16.3-7.38a9.48,9.48,0,0,1-1.83-8.57,10.47,10.47,0,0,1,.83-2.09,11.24,11.24,0,0,1-4.85,1.1c-.33,0-.66,0-1,0a27.07,27.07,0,0,0,2.38,6.91,2.82,2.82,0,0,1-1,3.64,3.24,3.24,0,0,1-1.79.54,3.17,3.17,0,0,1-2.19-.86l-24-22.56c-2.63-2.48-6.44-4.35-8.85-4.35a1.73,1.73,0,0,0-1.84,1,1.63,1.63,0,0,0-.07,1.56c.75,1.77,3.74,3.9,7.11,5.06,9.15,3.1,13.61,8.24,11.9,13.73-1.13,3.62-5,6.06-9.66,6.06a12,12,0,0,1-3.67-.56c-4.46-1.41-7.52-4.8-10-7.53l-.43-.47q-4.54-5-9.14-10.09c-1.65-1.83-3.16-3.36-4.82-3.7a4.3,4.3,0,0,0-.78-.08c-3.23,0-6.55,4.44-8.74,7.37-7.52,10.09-19.12,16.61-29.53,16.61a23.39,23.39,0,0,1-10.42-2.38c-7.69-3.76-12.55-12.06-11.84-20.18.52-6.08,5.34-12.66,12.22-12.66a10.39,10.39,0,0,1,1.35.08,22.27,22.27,0,0,1,5.38,1.69l1.21.49c-1.81-3.76-2.94-8.21-1.8-11.89a8.67,8.67,0,0,1,5.19-5.57,15.7,15.7,0,0,1,5.26-1,8.4,8.4,0,0,0,3.39-.62c1.43-.83,1.7-3.09,1.94-6.43.28-3.92.63-8.8,5.3-11.06a8.49,8.49,0,0,1,2.52-.79,21.23,21.23,0,0,1-6.2-2.26c-6.06-3.39-10-8.93-13.43-13.82-1.62-2.31-3.84-5.47-3.79-9.21,0-4.9,3.66-8.23,6.84-11.17A31,31,0,0,0,1054,267a3.19,3.19,0,0,1,2.54-1.24,3.33,3.33,0,0,1,.93.14A288.23,288.23,0,0,1,1182,340.62a2.79,2.79,0,0,1,.71,2.71c-1.54,5.55,1.61,12.6,7.68,17.15a26.84,26.84,0,0,0,12,5,3.15,3.15,0,0,1,2,1.2,264.89,264.89,0,0,1,23.92,38,2.8,2.8,0,0,1-.63,3.37,3.25,3.25,0,0,1-2.16.83,3.3,3.3,0,0,1-1.44-.33c-1.74-.86-3.49-1.7-5.23-2.54l-1.78-.86a5.56,5.56,0,0,0-1.42-.54,1.62,1.62,0,0,0-.31,1,5.38,5.38,0,0,0,2.17,3c3.52,2.92,8.13,4.47,13,6.11l1.94.66a3,3,0,0,1,1.79,1.6,255.43,255.43,0,0,1,12.28,33.05,2.85,2.85,0,0,1,.11.76,59,59,0,0,1-6.3,26.95c-.3.6-.62,1.21-.93,1.82-1.46,2.78-2.83,5.4-3,8.05A6,6,0,0,0,1238,492a3,3,0,0,0,2.07,1h.06a10.29,10.29,0,0,0,1.38-.11,15.92,15.92,0,0,1,2.09-.17h.29c5.76.14,9.2,5.21,9.61,10.14a11.64,11.64,0,0,1-.55,4.61c-1.32,3.95-4,7-6.67,9.88-.84.92-1.67,1.85-2.45,2.8-4.8,5.92-7.49,13.31-10.09,20.45-6.17,17-12.55,34.55-12.26,52.68,0,2.1.15,4.24.26,6.39.38,7,.78,14.22-1.51,20.89a26.09,26.09,0,0,1-2.7,5.59c-3.83,5.91-9.86,9.61-15.69,13.18-4.33,2.67-8.43,5.18-11.6,8.5a51.51,51.51,0,0,0-5.62,7.63c-.83,1.27-1.65,2.53-2.52,3.77-7.76,11.16-18.71,19.64-29.3,27.84-6.69,5.17-13.37,9.82-21.62,9.86l-2.29,0c-1.65,0-2.6.17-2.85.52s.2,2,.59,3.13c.15.45.3.9.43,1.34a8.14,8.14,0,0,1-1.23,7.13A5.42,5.42,0,0,1,1121.55,711.11Zm99.25-250a16.25,16.25,0,0,1,.87,2.1,26.42,26.42,0,0,1,.9,3.86,20.61,20.61,0,0,0,.66,3c.52,1.6,1.49,2.77,2.47,3l.24,0a2.3,2.3,0,0,0,1.57-.94,4.08,4.08,0,0,0,.88-3.41c-.77-2.88-3.83-5.1-6.89-7.14Zm-26.55-40.55c0,4.16,1.06,6.87,3.17,8.56a17.35,17.35,0,0,0,2.12,1.35,25.82,25.82,0,0,1,2.59,1.64c3.94,2.95,5.54,7.15,7.08,11.21.59,1.56,1.16,3.05,1.84,4.42a26.39,26.39,0,0,1,1.43-8.48c1-3.23,1.91-6.44,1.15-9.11-.5-1.78-2.32-3.38-3.84-3.38a1.76,1.76,0,0,0-.64.11,8.84,8.84,0,0,0-1.82,1,9.82,9.82,0,0,1-5.46,2.08,6.59,6.59,0,0,1-1-.07c-4.56-.67-5.54-4.88-6.19-7.66C1194.57,421.78,1194.42,421.16,1194.25,420.58Zm-35.33-79.38a3.47,3.47,0,0,0-.73.08c-2.54.59-3.7,4.21-3.92,7.13-.06.73-.09,1.48-.13,2.23-.13,2.87-.27,6-1.63,8.92a47.71,47.71,0,0,1,4.4-2.55c2.4-1.27,4.67-2.48,6.12-4.09a7.59,7.59,0,0,0-.57-10.2A5.54,5.54,0,0,0,1158.92,341.2Zm-87.78-33.51a25,25,0,0,1,6.15,3.34,26.92,26.92,0,0,0,4.1,2.42,7.1,7.1,0,0,0,2.82.56c3.38,0,6.7-2.06,7.72-4.8a6.87,6.87,0,0,0-.68-5.78,7.62,7.62,0,0,0-4.76-3.72c-.56-.13-1.12-.21-1.67-.3a15.94,15.94,0,0,1-3.82-.9l1,1.45a2.78,2.78,0,0,1-.33,3.65A15.22,15.22,0,0,1,1071.14,307.69Zm4.3-16.92a17.48,17.48,0,0,1,0-3.69,7.23,7.23,0,0,0-2.22.6Z"/><path class="cls-10" d="M832.36,751.34a18.76,18.76,0,0,1-9.16-2.46,17.62,17.62,0,0,1-8.92-12,29.26,29.26,0,0,1-.25-5.15,28.64,28.64,0,0,0-.13-3.87c-.63-4.61-4-8.84-7.17-12.93l-.82-1a169.82,169.82,0,0,1-29.82-58c-1.21-4.2-2.28-8.54-3.33-12.74-3.63-14.62-7.39-29.74-17.32-41a97.65,97.65,0,0,0-9.38-8.93,88.9,88.9,0,0,1-11.5-11.38c-8.49-10.73-12.2-25.92-10.43-42.76,1.22-11.57,4.66-22.84,8-33.74.84-2.75,1.68-5.51,2.49-8.27,1.28-4.36,1.17-8.93-.28-11.1a3.07,3.07,0,0,0-2.19-1.43,5.27,5.27,0,0,0-.95-.07c-.7,0-1.43.08-2.15.15a26.62,26.62,0,0,1-2.72.18,8.16,8.16,0,0,1-5.61-1.86c-3-2.62-2.4-6.28-1.93-9A9,9,0,0,0,719,470c-.33-.93-1.41-1.79-2.67-2.78a13.77,13.77,0,0,1-4.3-4.69c-1.37-2.83-.81-5.64-.33-8.12a14.76,14.76,0,0,0,.43-3.67c-.21-2.92-2.84-5.45-5.62-8.13-.75-.72-1.49-1.43-2.18-2.16a19.49,19.49,0,0,1-2.3-2.91,2.78,2.78,0,0,1-.29-2.47c32.19-88.62,112.53-155.9,209.67-175.56a3.66,3.66,0,0,1,.65-.06,3.15,3.15,0,0,1,2.61,1.34c1.61,2.34,3.23,4.69,4.86,7a2.78,2.78,0,0,1,0,3.27,3.16,3.16,0,0,1-2.55,1.25,3.23,3.23,0,0,1-.69-.07,2.37,2.37,0,0,0-.52-.06c-1.79,0-3.89,2.4-6.26,7.14-2.07,4.11-6.63,8.26-11.32,8.26a7.41,7.41,0,0,1-5.06-1.95,10.56,10.56,0,0,1-2.6-4.39,7.61,7.61,0,0,0-1-2c-.19-.24-.78-.93-2.75-.93a16.6,16.6,0,0,0-4.83.91c-2.79.92-5.55,1.94-8.26,3.08A12.71,12.71,0,0,1,876,282a11.89,11.89,0,0,1,5,1.09,3,3,0,0,1,1.64,1.9,2.72,2.72,0,0,1-.47,2.4,12.92,12.92,0,0,0-1.56,2.78,18.74,18.74,0,0,0,4.95-4.56,3.15,3.15,0,0,1,2.53-1.24,3.34,3.34,0,0,1,.94.14A12.79,12.79,0,0,1,898,295.64c.64,5.43-1.69,10.3-6.1,12.72a26.29,26.29,0,0,1-2.9,1.31c-1.51.62-2.82,1.15-3.43,2-.86,1.15-.48,2.93.25,5.73s1.61,6.19.16,9.42c-1.32,2.9-4.47,4.71-8.21,4.71-4.47,0-8.2-2.54-9.07-6.16a12.89,12.89,0,0,1-.23-3.69,9.61,9.61,0,0,0-.07-2.13c-.44-2-3.12-3.14-5.46-3.14a7.73,7.73,0,0,0-.84.05,17.56,17.56,0,0,0-7,2.93,21.15,21.15,0,0,0,5.5,4.32,2.92,2.92,0,0,1,1.55,2.48,9.47,9.47,0,0,1-3.11,7,11.84,11.84,0,0,1-8.08,3.3,10.37,10.37,0,0,1-3-.46,18.72,18.72,0,0,1-3.86-1.85,12.69,12.69,0,0,0-2.66-1.3,4.35,4.35,0,0,0-1.3-.19c-2.52,0-5.66,2-8,5.17-.75,1-1.45,2.07-2.15,3.13-2.14,3.24-4.36,6.59-8,8.88a40.06,40.06,0,0,1-8,3.42c-5.59,1.94-8.24,3.13-8.33,5.63-.07,1.72,1.36,3.83,2.73,5.87,2.28,3.39,5.11,7.6,2,11.94a7.82,7.82,0,0,1-6.64,3.25c-3,0-6.2-1.28-9.26-2.53-1.29-.53-2.52-1-3.64-1.38a11,11,0,0,0-3.43-.55c-8.45,0-15.91,9.68-17.32,18.37L769.8,395c-.4,2.65-.84,5.65-2.73,8.25a9.77,9.77,0,0,1-7.6,3.81,7.23,7.23,0,0,1-5-1.87,2.79,2.79,0,0,1-.78-2.95c1-2.88,3.65-12.53-1.92-15.65a5.81,5.81,0,0,0-3-.77c-3.76,0-8.39,3.2-10.76,7.44a53.29,53.29,0,0,0-3.19,7.51c-1.52,4.11-3.09,8.37-6.09,12.05-.87,1.07-1.83,2.05-2.75,3a18.35,18.35,0,0,0-3.79,4.77,4.41,4.41,0,0,0,.11,3.79h0c2.12-1.79,5.54-4.07,9.24-4.07a7.56,7.56,0,0,1,5.46,2.22c4.81,4.82.29,10.6-3,14.82-3,3.85-4.26,5.82-3.26,6.59a6.57,6.57,0,0,0,2.73.64,13.12,13.12,0,0,1,5,1.34,7.57,7.57,0,0,1,3.74,4.78c1.26,4.76-1.7,9.85-2.64,11.29-2.2,3.41-4.25,7.15-2.68,9.09a2.5,2.5,0,0,0,2.16,1c2.44,0,6.3-1.91,9.83-4.86a21.49,21.49,0,0,1,12.67-4.91c4.15,0,7.19,2,8.34,5.38a13.27,13.27,0,0,1,.34,5.38c-.07.94-.21,2.69.12,2.89a.52.52,0,0,0,.28.05,10.86,10.86,0,0,0,2.94-.81l.52-.19a21.79,21.79,0,0,1,7.4-1.26c12,0,23.1,9,24.2,19.73,0,.38.07.77.1,1.16a6.56,6.56,0,0,0,.7,3.19c.32.42.81.85,2.6.85a29.73,29.73,0,0,0,3.82-.36,36.43,36.43,0,0,1,4.81-.42h.54c10.17.31,14.79,9.4,18.86,17.43.77,1.51,1.53,3,2.31,4.41,6.85,12.24,21,20.29,32.28,26.76,2.48,1.41,5.3,3,7.94,3H880a17.79,17.79,0,0,0,2.73-.45,20.38,20.38,0,0,1,4.33-.6,10.8,10.8,0,0,1,1.5.1c4.77.64,7.65,4.32,10,7.28l1,1.23c1.56,1.91,3.78,3.3,5.26,3.3a1.56,1.56,0,0,0,.93-.27,3.24,3.24,0,0,1,1.73-.49,3.21,3.21,0,0,1,1.72.49,9.06,9.06,0,0,1,4.15,6.13,14.09,14.09,0,0,1-2.79,10.8,38.06,38.06,0,0,1-5.74,5.75A36.2,36.2,0,0,0,900,587.4c-4,5.14-4.42,12-4.84,19.23-.08,1.28-.15,2.55-.25,3.81-.91,12.42-5.56,20.77-13.46,24.12-3.47,1.48-7.24,1.83-10.89,2.17-4.75.44-8.85.83-11.13,3.5s-1.91,7-1.49,11.55c.52,5.67,1.12,12.1-4,16.41a22.35,22.35,0,0,1-5,2.94c-2.44,1.15-3.94,1.93-4.24,3.09a7.6,7.6,0,0,0,.25,2.83c.4,2,.94,4.8-.9,7.25s-5,2.88-7.19,3.16A11.12,11.12,0,0,0,834,688c-1.89.84-2.41,3.6-2.93,7.41-.07.52-.14,1-.22,1.54-.58,3.92-3.19,8.09-6.79,9.64A145.45,145.45,0,0,1,836.26,748a2.79,2.79,0,0,1-.68,2.24,3.17,3.17,0,0,1-2.2,1.06Q832.87,751.34,832.36,751.34Zm32.85-465.16a109.06,109.06,0,0,0-15.57,9.87c2.92-.21,6.87-2.25,10-5.21A58.2,58.2,0,0,1,865.21,286.18Z"/></g><path class="cls-4" d="M720.78,603.83a2.2,2.2,0,0,0-.59-1l-1-1a1.76,1.76,0,0,0-.74-.48,1.65,1.65,0,0,0-.88-.19,1.71,1.71,0,0,0-.89.19,1.89,1.89,0,0,0-.74.48l-.36.46a2.37,2.37,0,0,0-.31,1.16l.08.62a2.41,2.41,0,0,0,.59,1l1,1a1.77,1.77,0,0,0,.74.47,1.71,1.71,0,0,0,.89.2,1.68,1.68,0,0,0,.88-.2,1.71,1.71,0,0,0,.74-.47l.36-.47a2.35,2.35,0,0,0,.32-1.16Z"/><path class="cls-4" d="M731.08,634l-.36-.46a1.18,1.18,0,0,0-.25-.19,1.36,1.36,0,0,0,0-.4,1.68,1.68,0,0,0-.27-.86,1.65,1.65,0,0,0-.59-.64,1.64,1.64,0,0,0-.78-.41l-.61-.09a2.32,2.32,0,0,0-1.16.32l-.47.36a2.29,2.29,0,0,0-.59,1,1.67,1.67,0,0,0-.08.3,4.36,4.36,0,0,0-.09.9c0,.24.06.49.1.73a.77.77,0,0,0,0,.15,5.4,5.4,0,0,0,.33.82,1.91,1.91,0,0,0,.16.27,4.22,4.22,0,0,0,.53.67,4.29,4.29,0,0,0,.68.53.57.57,0,0,0,.13.08c.22.11.46.2.69.29a2.62,2.62,0,0,0,1.77-.23,2.55,2.55,0,0,0,1-1.38c0-.2.06-.4.08-.61A2.27,2.27,0,0,0,731.08,634Z"/><path class="cls-4" d="M739.83,608.35a1.71,1.71,0,0,0-.47-.74,1.79,1.79,0,0,0-.74-.48,1.71,1.71,0,0,0-.89-.19l-.61.08a2.2,2.2,0,0,0-1,.59l-.36.46a2.28,2.28,0,0,0-.32,1.16v1a1.82,1.82,0,0,0,.2.89,1.7,1.7,0,0,0,.48.74,2.61,2.61,0,0,0,1.62.67l.61-.08a2.38,2.38,0,0,0,1-.59c.12-.16.24-.31.35-.47a2.25,2.25,0,0,0,.32-1.16v-1A1.78,1.78,0,0,0,739.83,608.35Z"/><path class="cls-4" d="M770.31,441.17c-3,0-3,4.6,0,4.6S773.27,441.17,770.31,441.17Z"/><path class="cls-4" d="M782.76,413.38c-3,0-3,4.6,0,4.6S785.73,413.38,782.76,413.38Z"/><path class="cls-4" d="M793.3,443.09c-2.95,0-3,4.59,0,4.59S796.27,443.09,793.3,443.09Z"/><path class="cls-4" d="M1094.84,684.26a1.77,1.77,0,0,0-.74-.47,1.71,1.71,0,0,0-.89-.2,2.33,2.33,0,0,0-1.62.67,2.4,2.4,0,0,0-.67,1.63v2.87a2.37,2.37,0,0,0,.67,1.63,1.71,1.71,0,0,0,.74.47,1.68,1.68,0,0,0,.88.2,2.35,2.35,0,0,0,1.63-.67,2.42,2.42,0,0,0,.67-1.63v-2.87A2.42,2.42,0,0,0,1094.84,684.26Z"/><path class="cls-4" d="M1094.17,711.38c-3,0-3,4.59,0,4.59S1097.13,711.38,1094.17,711.38Z"/><path class="cls-4" d="M1076.92,702.75c-3,0-3,4.6,0,4.6S1079.89,702.75,1076.92,702.75Z"/><path class="cls-4" d="M1099.92,660.59c-3,0-3,4.6,0,4.6S1102.88,660.59,1099.92,660.59Z"/><path class="cls-4" d="M1229.27,572.44c-3,0-3,4.6,0,4.6S1232.24,572.44,1229.27,572.44Z"/><path class="cls-4" d="M1240.77,547.53c-3,0-3,4.59,0,4.59S1243.73,547.53,1240.77,547.53Z"/><path class="cls-4" d="M1236.94,571.48c-3,0-3,4.6,0,4.6S1239.9,571.48,1236.94,571.48Z"/><path class="cls-4" d="M1145.25,704.44a1.64,1.64,0,0,0-.41-.78,1.65,1.65,0,0,0-.64-.59l-.55-.23a2.3,2.3,0,0,0-1.22,0l-.55.23a2.33,2.33,0,0,0-.83.82l-1,1.92a1.75,1.75,0,0,0-.28.85,1.8,1.8,0,0,0,0,.92,1.75,1.75,0,0,0,.42.78,1.65,1.65,0,0,0,.64.59l.55.23a2.3,2.3,0,0,0,1.22,0l.55-.23a2.22,2.22,0,0,0,.82-.82l1-1.92a1.64,1.64,0,0,0,.27-.85A1.7,1.7,0,0,0,1145.25,704.44Z"/><path class="cls-4" d="M1161.24,681.67c-3,0-3,4.6,0,4.6S1164.21,681.67,1161.24,681.67Z"/><path class="cls-4" d="M1212.67,539.63,1204.21,577c-.66,2.88,3.77,4.11,4.43,1.22q4.23-18.71,8.47-37.41C1217.76,538,1213.33,536.74,1212.67,539.63Z"/><path class="cls-4" d="M1200,546.25,1189.75,577c-.93,2.82,3.51,4,4.43,1.23l10.2-30.78C1205.31,544.66,1200.87,543.45,1200,546.25Z"/><path class="cls-4" d="M794.14,661.83A125.05,125.05,0,0,1,780.26,615c-.26-2.92-4.86-3-4.59,0a130.88,130.88,0,0,0,14.5,49.17C791.55,666.77,795.51,664.45,794.14,661.83Z"/><path class="cls-4" d="M704.55,499.32A78.91,78.91,0,0,0,703,525.85a2.37,2.37,0,0,0,2.3,2.3,2.32,2.32,0,0,0,2.3-2.3A75.05,75.05,0,0,1,709,500.54C709.64,497.66,705.21,496.43,704.55,499.32Z"/><path class="cls-4" d="M1028.38,433.33a147.25,147.25,0,0,0-11.44,22c-1.58,3.78-3,7.63-4.25,11.55s-1.92,7.92-.48,11.79c1,2.75,5.46,1.56,4.43-1.22-1.36-3.66-.2-7.3,1-10.85,1.23-3.71,2.6-7.37,4.15-11a143.18,143.18,0,0,1,10.59-20C1033.94,433.15,1030,430.84,1028.38,433.33Z"/><path class="cls-4" d="M1035.37,442.11a96.31,96.31,0,0,0-15.42,40c-.41,2.9,4,4.15,4.43,1.23a93.18,93.18,0,0,1,15-38.92C1041,442,1037,439.67,1035.37,442.11Z"/><path class="cls-4" d="M804.17,652a70.75,70.75,0,0,1-6.28-32.28c.12-3-4.48-3-4.6,0a75.86,75.86,0,0,0,6.91,34.6C801.43,657,805.39,654.71,804.17,652Z"/><path class="cls-3" d="M1278.81,297.27c-.34,8.7-6.25,17-15.46,21.73-7.73,4-16.46,5-24.15,5.93q-152.4,18.17-304.79,36.41c-2.16,9.92-9.39,19.2-19.2,24.22-8.7,4.47-18.29,5.79-27.28,5.79a123,123,0,0,1-14.49-.93c-54.79-6.35-109.58-33.09-162.79-79.47-10.38-9.06-22.22-20.09-31.52-33.38-9.88-14.09-15.6-29.18-16.56-43.67a48,48,0,0,1,.89-13.38.1.1,0,0,0,0-.05,30.29,30.29,0,0,1,6-12.69c5.86-7.16,15.55-11.22,29.54-12.45a136.52,136.52,0,0,1,64.69,10.14c39.63,5.14,78.51-4.23,119.67-14.15,32.3-7.79,65.68-15.84,99.21-16.06h1.34c61.31,0,120,26,171.8,49l95,42.1c6.61,3,25.59,11.34,27.93,26.87A21.25,21.25,0,0,1,1278.81,297.27Z"/><path class="cls-2" d="M946.73,414.31s8.91,58.63-123.61,14.37S659.84,295.87,659.84,295.87c-6.45-54.43,3.17-74.45,3.62-75.36a48.09,48.09,0,0,0-.89,13.38c1,14.5,6.68,29.6,16.55,43.68,9.31,13.28,21.16,24.32,31.54,33.38,53.21,46.39,108,73.13,162.79,79.47a124.93,124.93,0,0,0,14.48.94c9,0,18.59-1.33,27.28-5.8,9.8-5,17-14.29,19.19-24.21Z"/><path class="cls-2" d="M1278.57,293.25c5.27,18.46,18.82,75.69-12.21,84.83-37.08,10.94-319.63,36.23-319.63,36.23l-12.33-53q152.4-18.24,304.79-36.42c7.69-.93,16.42-2,24.16-5.94,9.2-4.71,15.11-13,15.44-21.71A19.83,19.83,0,0,0,1278.57,293.25Z"/><path class="cls-4" d="M946.69,364.91c-.27-2.92-4.87-3-4.6,0,1.47,15.89,3.46,31.91,2.19,47.88-.24,2.95,4.36,2.93,4.59,0C950.15,396.82,948.16,380.8,946.69,364.91Z"/><path class="cls-4" d="M899.49,427.76c-3,0-3,4.59,0,4.59S902.45,427.76,899.49,427.76Z"/><path class="cls-4" d="M919.29,423.92c-2.95,0-3,4.6,0,4.6S922.26,423.92,919.29,423.92Z"/><path class="cls-4" d="M908.43,407.32c-2.95,0-3,4.59,0,4.59S911.4,407.32,908.43,407.32Z"/><path class="cls-4" d="M697.3,330.43a2.35,2.35,0,0,0-.59-1l-.47-.36a2.24,2.24,0,0,0-1.16-.31h-.64a1.67,1.67,0,0,0-.88.19,1.73,1.73,0,0,0-.74.48,1.64,1.64,0,0,0-.48.74,1.78,1.78,0,0,0-.2.88l.09.61a2.29,2.29,0,0,0,.59,1l.46.36a2.27,2.27,0,0,0,1.16.31h.64a1.71,1.71,0,0,0,.89-.2,2,2,0,0,0,1.21-1.21,1.79,1.79,0,0,0,.2-.89Z"/><path class="cls-4" d="M716.16,330c-3,0-3,4.6,0,4.6S719.12,330,716.16,330Z"/><path class="cls-4" d="M719.65,355.35a2.29,2.29,0,0,0-.59-1l-.46-.36a2.27,2.27,0,0,0-1.16-.31h-.64a1.71,1.71,0,0,0-.89.2,2,2,0,0,0-1.21,1.21,1.79,1.79,0,0,0-.2.89l.08.61a2.35,2.35,0,0,0,.59,1l.47.36a2.24,2.24,0,0,0,1.16.31h.64a1.67,1.67,0,0,0,.88-.19,1.73,1.73,0,0,0,.74-.48,1.64,1.64,0,0,0,.48-.74,1.78,1.78,0,0,0,.2-.88Z"/><path class="cls-4" d="M771.8,320.3l-.36-.46a2.2,2.2,0,0,0-1-.59l-.61-.09a2.35,2.35,0,0,0-1.16.32l-1.28.64a1.65,1.65,0,0,0-.64.59,1.64,1.64,0,0,0-.41.78,1.8,1.8,0,0,0-.05.92,1.75,1.75,0,0,0,.28.85l.36.47a2.29,2.29,0,0,0,1,.59l.61.08a2.25,2.25,0,0,0,1.16-.32l1.28-.63a1.76,1.76,0,0,0,.64-.6,1.64,1.64,0,0,0,.41-.78,1.76,1.76,0,0,0,.05-.91A1.79,1.79,0,0,0,771.8,320.3Z"/><path class="cls-4" d="M809.42,354.94c-2.95,0-3,4.59,0,4.59S812.38,354.94,809.42,354.94Z"/><path class="cls-4" d="M833.24,343.57a2,2,0,0,0-1.21-1.21,1.71,1.71,0,0,0-.89-.2l-.61.08a2.29,2.29,0,0,0-1,.59l-.36.47a2.25,2.25,0,0,0-.32,1.16v.64a1.78,1.78,0,0,0,.2.88,1.64,1.64,0,0,0,.48.74,1.67,1.67,0,0,0,.74.48,1.65,1.65,0,0,0,.88.19l.61-.08a2.29,2.29,0,0,0,1-.59l.36-.46a2.37,2.37,0,0,0,.31-1.16v-.64A1.71,1.71,0,0,0,833.24,343.57Z"/><path class="cls-4" d="M795.37,332.58c-3,0-3,4.59,0,4.59S798.33,332.58,795.37,332.58Z"/><path class="cls-4" d="M778.76,336.41c-3,0-3,4.6,0,4.6S781.72,336.41,778.76,336.41Z"/><path class="cls-4" d="M769.48,233.34a2.38,2.38,0,0,0-.59-1l-.64-.63a1.7,1.7,0,0,0-.74-.48,2.06,2.06,0,0,0-1.77,0,1.64,1.64,0,0,0-.74.48l-.36.46a2.27,2.27,0,0,0-.31,1.16c0,.2,0,.41.08.61a2.2,2.2,0,0,0,.59,1l.64.64a1.64,1.64,0,0,0,.74.48,1.78,1.78,0,0,0,.88.2,1.82,1.82,0,0,0,.89-.2,1.7,1.7,0,0,0,.74-.48l.36-.46a2.27,2.27,0,0,0,.31-1.16Z"/><path class="cls-4" d="M797.29,222.71c-3,0-3,4.59,0,4.59S800.25,222.71,797.29,222.71Z"/><path class="cls-4" d="M794.73,250.18c-3,0-3,4.59,0,4.59S797.69,250.18,794.73,250.18Z"/><path class="cls-4" d="M826,229.1c-3,0-3,4.59,0,4.59S829,229.1,826,229.1Z"/><path class="cls-4" d="M1009.36,282.75c-3,0-3,4.6,0,4.6S1012.32,282.75,1009.36,282.75Z"/><path class="cls-4" d="M1040.09,265.37l-.36-.47a2.29,2.29,0,0,0-1-.59l-.61-.08a2.24,2.24,0,0,0-1.16.31l-1.28.64a1.73,1.73,0,0,0-.64.59,1.75,1.75,0,0,0-.42.78,2.56,2.56,0,0,0,.24,1.78l.35.46a2.29,2.29,0,0,0,1,.59l.61.08a2.27,2.27,0,0,0,1.16-.31l1.28-.64a2.57,2.57,0,0,0,1-1.37,1.7,1.7,0,0,0,0-.92A1.64,1.64,0,0,0,1040.09,265.37Z"/><path class="cls-4" d="M1049.6,280.84c-2.95,0-3,4.59,0,4.59S1052.57,280.84,1049.6,280.84Z"/><path class="cls-4" d="M1025.33,300c-3,0-3,4.6,0,4.6S1028.29,300,1025.33,300Z"/><path class="cls-4" d="M1128.18,309.58c-3,0-3,4.6,0,4.6S1131.14,309.58,1128.18,309.58Z"/><path class="cls-4" d="M1185.33,301.69a2.38,2.38,0,0,0-.59-1l-.47-.36a2.34,2.34,0,0,0-1.16-.31h-1.92a1.68,1.68,0,0,0-.88.2,1.71,1.71,0,0,0-.74.47,1.89,1.89,0,0,0-.48.74,1.71,1.71,0,0,0-.19.89l.08.61a2.2,2.2,0,0,0,.59,1l.46.36a2.28,2.28,0,0,0,1.16.32h1.92a1.82,1.82,0,0,0,.89-.2,1.7,1.7,0,0,0,.74-.48,1.65,1.65,0,0,0,.47-.74,1.75,1.75,0,0,0,.2-.88C1185.38,302.1,1185.35,301.89,1185.33,301.69Z"/><path class="cls-4" d="M1157.56,284.67c-3,0-3,4.6,0,4.6S1160.52,284.67,1157.56,284.67Z"/><path class="cls-4" d="M1202.27,274.45c-3,0-3,4.6,0,4.6S1205.24,274.45,1202.27,274.45Z"/><path class="cls-4" d="M1217,300.64c-3,0-3,4.6,0,4.6S1219.93,300.64,1217,300.64Z"/><path class="cls-4" d="M1269.29,333.58a2.37,2.37,0,0,0-2.3-2.3,2.31,2.31,0,0,0-2.3,2.3,274,274,0,0,1,1.76,30c0,3,4.6,3,4.59,0A274,274,0,0,0,1269.29,333.58Z"/><path class="cls-4" d="M1256.88,345.74a2.34,2.34,0,0,0-2.29-2.3,2.31,2.31,0,0,0-2.3,2.3,128.92,128.92,0,0,1-.34,18.54,2.32,2.32,0,0,0,2.3,2.3,2.35,2.35,0,0,0,2.3-2.3A127.49,127.49,0,0,0,1256.88,345.74Z"/><path class="cls-4" d="M967.21,393.6a111.18,111.18,0,0,1-1.94-23c.05-3-4.54-3-4.6,0a117.59,117.59,0,0,0,2.11,24.19,2.32,2.32,0,0,0,2.83,1.6A2.34,2.34,0,0,0,967.21,393.6Z"/><path class="cls-4" d="M977.64,375.13a2.3,2.3,0,1,0-4.59,0l.66,12.77a2.3,2.3,0,1,0,4.59,0Z"/><path class="cls-11" d="M1236.49,268.87c-13.44-7.42-27.74-13.57-41.84-19.61-14.73-6.3-29.62-12.2-44.6-17.88-30.28-11.48-60.78-22.39-91.2-33.51-15.47-5.66-30.87-11.63-46.48-16.89a120.05,120.05,0,0,0-23.1-5.65,93.58,93.58,0,0,0-23.88.3c-15.89,2-31.61,5.75-47.23,9.25s-31.35,7.22-47,10.69c-30.73,6.79-61.77,12.75-93.27,14.24-14.62.68-29.07,0-43.64-1-12.82-2.55-26.16-4.13-38.29,1.92a32.6,32.6,0,0,0-7,4.72c-2.62,1.65-9.4,23.28-8.43,29.11,4.33,26.24,23.1,47.67,42.18,64.92a333.18,333.18,0,0,0,67.46,47.26,338.1,338.1,0,0,0,37.46,17c13,5,26.6,9.72,40.41,12,15.16,2.54,31.61,1.83,44.29-7.8,9.45-7.18,16-18.09,15.52-29.87l193.64-19.8,50-5.12c15.24-1.56,30.71-2.5,45.79-5.26a87.16,87.16,0,0,0,20.7-6.35c6-2.74,12.46-6.58,15.27-12.81C1259.08,285.79,1246.75,274.53,1236.49,268.87Zm7.16,27.34c-3.57,4.71-10.62,7.33-16,9.14-13.43,4.52-27.87,5.28-41.86,6.71L1137.53,317,946.29,336.54,922.46,339c-3.18.33-5.37,2.8-4.63,6.08,2.22,9.9-3.69,19.63-11.47,25.36-9.79,7.19-22.52,8-34.19,6.29-12.72-1.86-25.2-6.1-37.24-10.5a317.76,317.76,0,0,1-33.6-14.51,323.83,323.83,0,0,1-61.43-40c-17.95-14.89-36.35-32-45.57-53.92-4.46-10.61-8.76-25.61.46-34.66,7.1-4.16,15.68-5.26,24-5.34,4.56,0,9.12.16,13.67.44L736,219a4.8,4.8,0,0,0,3-.29c6.5.47,13,1,19.54,1.08,30.38.45,60.65-3.85,90.4-9.71,30.22-5.95,60.07-13.58,90.22-19.9,15.28-3.2,31-6.94,46.72-5.56,15.05,1.32,29.46,7.61,43.5,12.74q44.58,16.31,89.16,32.6c28.91,10.59,57.79,21.36,85.84,34.09q10.38,4.71,20.61,9.79c5.59,2.79,11.29,5.54,15.75,10C1244.05,287.12,1246.93,291.88,1243.65,296.21Z"/><path class="cls-4" d="M929.3,200.92q1.92,13.34,3.79,26.66,3.25,23.44,6.33,46.92a3.21,3.21,0,0,0,3.11,3.1c1.5,0,3.32-1.44,3.1-3.1q-4.87-37.14-10.19-74.21C933.4,200.57,931.36,200.79,929.3,200.92Z"/><path class="cls-5" d="M1006.61,178.17c-7.09,15.31-20.84,27.36-35.53,35.18s-31.06,12-47.58,13.32c-18.45,1.49-38.51-.25-54.43-10.49-14-9-23.52-23.92-22.73-40.9a53.1,53.1,0,0,1,5.27-20.48c.11-.31.19-.66.31-1,6.68-17.83,25.4-27.46,41.86-34.58,17.56-7.61,36.89-12.49,56.15-10.52,16.65,1.69,33.07,8.14,45.18,19.89,6.44,6.23,11.73,14,14.19,22.65C1011.91,160.37,1010.56,169.65,1006.61,178.17Z"/><path class="cls-7" d="M906.89,198a26.62,26.62,0,0,1-20.33,13.45c-8.66.76-16.75-4.26-22.13-10.67-.49-.58-.93-1.2-1.38-1.8a31.78,31.78,0,0,1-6.7-9.83c-4.24-9.8-3.75-21.32.33-31.1,3.31-7.9,9.62-13.63,18.22-14.95a28.19,28.19,0,0,1,22.54,6.45C910.66,160.53,915.49,182.85,906.89,198Z"/><path class="cls-4" d="M922.35,126.85c-.44-2.8-.86-5.61-1.3-8.41-2.52-15.86-2-14.36-4.68-30.2-.65-3.93-6.63-2.26-6,1.65,3.07,18.48,3,19.62,5.89,38.12C918.3,127.6,920.32,127.22,922.35,126.85Z"/><path class="cls-4" d="M976.78,126.59c-4.43,0-4.44,6.9,0,6.9S981.23,126.59,976.78,126.59Z"/><path class="cls-4" d="M994,147.88a3.17,3.17,0,0,0-1.83-1.83,2.61,2.61,0,0,0-1.32-.29l-.92.12a3.41,3.41,0,0,0-1.52.89l-.54.69a3.44,3.44,0,0,0-.47,1.74v.64a3.55,3.55,0,0,0,3.45,3.45l.91-.12a3.45,3.45,0,0,0,1.52-.89l.54-.7a3.3,3.3,0,0,0,.47-1.74v-.64A2.61,2.61,0,0,0,994,147.88Z"/><path class="cls-4" d="M980,169.39c-4.44,0-4.45,6.9,0,6.9S984.42,169.39,980,169.39Z"/><path class="cls-4" d="M969.76,148.31c-4.44,0-4.45,6.9,0,6.9S974.2,148.31,969.76,148.31Z"/><path class="cls-4" d="M954.43,160.45c-4.44,0-4.45,6.89,0,6.89S958.87,160.45,954.43,160.45Z"/><path class="cls-4" d="M962.73,183.45c-4.44,0-4.44,6.89,0,6.89S967.17,183.45,962.73,183.45Z"/><path class="cls-4" d="M980.62,188.56c-4.44,0-4.45,6.89,0,6.89S985.06,188.56,980.62,188.56Z"/><path class="cls-4" d="M997.86,164.92c-4.43,0-4.44,6.89,0,6.89S1002.31,164.92,997.86,164.92Z"/><path class="cls-4" d="M898.07,174.9A54.47,54.47,0,0,0,891.56,160c-2.66-4.2-6.26-7.8-11.11-9.28a13,13,0,0,0-14.52,4.69,17,17,0,0,0-3.12,8.92c-2.19,7.66-.54,16.77,2.58,23.68,4,8.77,14.05,15.66,23.7,11.36C898.39,195.26,900.39,183.82,898.07,174.9Zm-10.42,17.44c-5.94,4.34-13-1.2-15.73-6.55a30.42,30.42,0,0,1-2.82-10,2.81,2.81,0,0,0,.94-2.34,41.9,41.9,0,0,1-.28-8.11,13.75,13.75,0,0,1,1.38-2.87,3,3,0,0,0,.27-3c1.16-1.81,3-2.86,6-2.38,3.53.58,6.17,3.25,8,6.14a50.68,50.68,0,0,1,5.14,10.67C892.63,179.84,893.48,188.09,887.65,192.34Z"/><path class="cls-5" d="M598.27,584.25a7.51,7.51,0,0,0-5.1-2.12H590.5a7.42,7.42,0,0,0-5.1,2.12,7.32,7.32,0,0,0-2.11,5.09,7.25,7.25,0,0,0,2.11,5.1,7.46,7.46,0,0,0,5.1,2.11h2.67a7.43,7.43,0,0,0,5.1-2.11,7.21,7.21,0,0,0,0-10.19Z"/><path class="cls-5" d="M661.31,536.71c-9.28,0-9.29,14.41,0,14.41S670.6,536.71,661.31,536.71Z"/><path class="cls-5" d="M615.88,411.11c-9.28,0-9.29,14.42,0,14.42S625.17,411.11,615.88,411.11Z"/><path class="cls-5" d="M561.1,367c-9.28,0-9.29,14.42,0,14.42S570.39,367,561.1,367Z"/><path class="cls-5" d="M574.46,702.38c-9.28,0-9.29,14.42,0,14.42S583.76,702.38,574.46,702.38Z"/><path class="cls-5" d="M1306.79,449.74a7.32,7.32,0,0,0-3.31-4.3,7.2,7.2,0,0,0-9.86,2.58l-1.34,2.67a7.64,7.64,0,0,0-.73,5.56,7.2,7.2,0,0,0,8.87,5,7.22,7.22,0,0,0,4.31-3.31c.44-.89.89-1.78,1.34-2.67A7.68,7.68,0,0,0,1306.79,449.74Z"/><path class="cls-5" d="M1299.88,569.2a6.48,6.48,0,0,0-3.81-3.81,5.44,5.44,0,0,0-2.78-.63l-1.92.26a7.14,7.14,0,0,0-3.18,1.86l-1.13,1.46a7.11,7.11,0,0,0-1,3.63v1.34a7.4,7.4,0,0,0,7.21,7.21l1.92-.26a7.21,7.21,0,0,0,3.18-1.85l1.12-1.46a7.19,7.19,0,0,0,1-3.64V572A5.4,5.4,0,0,0,1299.88,569.2Z"/><path class="cls-5" d="M1373.45,538c-9.27,0-9.29,14.42,0,14.42S1382.75,538,1373.45,538Z"/><path class="cls-5" d="M1354.75,363c-9.28,0-9.29,14.42,0,14.42S1364,363,1354.75,363Z"/><path class="cls-5" d="M1381.47,703.72c-9.28,0-9.29,14.42,0,14.42S1390.76,703.72,1381.47,703.72Z"/><path class="cls-12" d="M531.71,622.49c-12.37,0-12.39,19.22,0,19.22S544.1,622.49,531.71,622.49Z"/><path class="cls-12" d="M641.27,480.86c-12.37,0-12.39,19.22,0,19.22S653.66,480.86,641.27,480.86Z"/><path class="cls-12" d="M541.06,482.19c-12.37,0-12.39,19.23,0,19.23S553.45,482.19,541.06,482.19Z"/><path class="cls-12" d="M645.13,354.36a9.63,9.63,0,0,0-2.47-4.24,11,11,0,0,0-8.09-3.4,19.13,19.13,0,0,0-2.87.36,8.7,8.7,0,0,0-1.51.59,9.26,9.26,0,0,0-3.71,2.41,10.06,10.06,0,0,0-2.82,6.8,10.73,10.73,0,0,0,2.82,6.8,9.63,9.63,0,0,0,6.79,2.81l.88-.12a7.46,7.46,0,0,0,1.71.16,10.73,10.73,0,0,0,6.8-2.82,9.65,9.65,0,0,0,2.81-6.8C645.36,356.06,645.24,355.21,645.13,354.36Z"/><path class="cls-12" d="M1431.68,409.27a7.2,7.2,0,0,0-2-3.09l-2-1.5a9.6,9.6,0,0,0-4.85-1.32l-2.55.35a9.57,9.57,0,0,0-4.25,2.47l-1.33,1.34a10.68,10.68,0,0,0-2.82,6.79,7.28,7.28,0,0,0,.83,3.71,7.2,7.2,0,0,0,2,3.09l1.94,1.5a9.64,9.64,0,0,0,4.86,1.32l2.55-.35a9.54,9.54,0,0,0,4.24-2.47l1.34-1.34a9.33,9.33,0,0,0,2-10.5Z"/><path class="cls-12" d="M1334.71,495.56c-12.37,0-12.39,19.22,0,19.22S1347.1,495.56,1334.71,495.56Z"/><path class="cls-12" d="M1440.26,586.41c-12.37,0-12.39,19.23,0,19.23S1452.65,586.41,1440.26,586.41Z"/><path class="cls-12" d="M1352.08,631.84c-12.37,0-12.39,19.22,0,19.22S1364.47,631.84,1352.08,631.84Z"/><path class="cls-12" d="M1362.8,763l-2.66-2.68a7.2,7.2,0,0,0-3.09-2,8.68,8.68,0,0,0-7.41,0,7.2,7.2,0,0,0-3.09,2,9.66,9.66,0,0,0-2.82,6.8,10,10,0,0,0,2.82,6.79c.88.9,1.77,1.79,2.66,2.68a7.2,7.2,0,0,0,3.09,2,8.68,8.68,0,0,0,7.41,0,7.2,7.2,0,0,0,3.09-2,9.64,9.64,0,0,0,2.82-6.79A10,10,0,0,0,1362.8,763Z"/></svg>