<svg xmlns="http://www.w3.org/2000/svg" xmlns:xlink="http://www.w3.org/1999/xlink" viewBox="0 0 400 217.99"><defs><style>.cls-1{isolation:isolate;}.cls-2{fill:#2bd1ed;opacity:0.81;}.cls-3{fill:url(#linear-gradient);}.cls-11,.cls-12,.cls-28,.cls-38,.cls-4,.cls-42,.cls-5,.cls-6,.cls-7{opacity:0.75;}.cls-4{fill:url(#linear-gradient-2);}.cls-5{fill:url(#linear-gradient-3);}.cls-6{fill:url(#linear-gradient-4);}.cls-7{fill:url(#linear-gradient-5);}.cls-8,.cls-9{fill:#624c4d;}.cls-16,.cls-17,.cls-22,.cls-30,.cls-34,.cls-36,.cls-37,.cls-40,.cls-41,.cls-45,.cls-47,.cls-50,.cls-9{mix-blend-mode:multiply;}.cls-14,.cls-15,.cls-16,.cls-17,.cls-36,.cls-40,.cls-47,.cls-50,.cls-9{opacity:0.32;}.cls-10{fill:#bd9389;}.cls-11{fill:url(#linear-gradient-6);}.cls-12{fill:url(#linear-gradient-7);}.cls-13{fill:#4e728d;}.cls-14{fill:#829bab;}.cls-14,.cls-15{mix-blend-mode:screen;}.cls-15{fill:#a7b9c4;}.cls-16{fill:#224e6a;}.cls-17,.cls-19{fill:#1d4a67;}.cls-18{fill:#1d1e20;}.cls-20{fill:#d2cbb1;}.cls-21{fill:#c5bc9b;}.cls-22{fill:#bdc5b8;}.cls-22,.cls-30,.cls-34{opacity:0.55;}.cls-23{fill:#f1efe7;}.cls-24{fill:#f3a92c;}.cls-25{fill:#929083;}.cls-26{fill:url(#radial-gradient);}.cls-27{fill:url(#radial-gradient-2);}.cls-28{fill:url(#linear-gradient-8);}.cls-29,.cls-30{fill:#417a16;}.cls-31{fill:#184001;}.cls-32{fill:#8ccf58;}.cls-33{fill:#62913e;}.cls-34{fill:#637c58;}.cls-35,.cls-36,.cls-37{fill:#ca90a6;}.cls-38{fill:url(#linear-gradient-9);}.cls-39,.cls-40,.cls-41{fill:#a290a6;}.cls-42{fill:url(#linear-gradient-10);}.cls-43,.cls-45,.cls-47{fill:#8b8b8b;}.cls-44{fill:#595959;}.cls-45{opacity:0.65;}.cls-46{fill:#b8b8b8;}.cls-48{fill:url(#linear-gradient-11);}.cls-49{fill:url(#linear-gradient-12);}.cls-50{fill:#825c39;}.cls-51{fill:url(#radial-gradient-3);}.cls-52{fill:url(#radial-gradient-4);}.cls-53{fill:url(#radial-gradient-5);}.cls-54{fill:url(#radial-gradient-6);}.cls-55{fill:url(#radial-gradient-7);}.cls-56{fill:url(#radial-gradient-8);}.cls-57{fill:url(#radial-gradient-9);}.cls-58{fill:url(#radial-gradient-10);}.cls-59{fill:url(#radial-gradient-11);}.cls-60{fill:url(#radial-gradient-12);}.cls-61{fill:url(#radial-gradient-13);}.cls-62{fill:url(#radial-gradient-14);}.cls-63{fill:url(#radial-gradient-15);}.cls-64{fill:url(#radial-gradient-16);}.cls-65{fill:url(#linear-gradient-13);}.cls-66{fill:url(#linear-gradient-14);}.cls-67{fill:url(#radial-gradient-17);}.cls-68{fill:url(#radial-gradient-18);}.cls-69{fill:url(#radial-gradient-19);}.cls-70{fill:url(#radial-gradient-20);}.cls-71{fill:url(#radial-gradient-21);}.cls-72{fill:url(#radial-gradient-22);}.cls-73{fill:url(#radial-gradient-23);}.cls-74{fill:url(#radial-gradient-24);}.cls-75{fill:url(#radial-gradient-25);}.cls-76{fill:url(#radial-gradient-26);}.cls-77{fill:url(#radial-gradient-27);}.cls-78{fill:url(#radial-gradient-28);}.cls-79{fill:url(#radial-gradient-29);}.cls-80{fill:url(#radial-gradient-30);}.cls-81{fill:url(#radial-gradient-31);}.cls-82{fill:url(#radial-gradient-32);}.cls-83{fill:url(#radial-gradient-33);}</style><linearGradient id="linear-gradient" x1="42.75" y1="172.66" x2="401.57" y2="140.34" gradientUnits="userSpaceOnUse"><stop offset="0" stop-color="#9a8a62"/><stop offset="0.05" stop-color="#918563"/><stop offset="0.27" stop-color="#737569"/><stop offset="0.46" stop-color="#616b6c"/><stop offset="0.6" stop-color="#5a676d"/><stop offset="0.69" stop-color="#606a6c"/><stop offset="0.8" stop-color="#707369"/><stop offset="0.93" stop-color="#8b8264"/><stop offset="1" stop-color="#9c8b61"/></linearGradient><linearGradient id="linear-gradient-2" x1="133.13" y1="166.7" x2="239.35" y2="166.7" gradientUnits="userSpaceOnUse"><stop offset="0" stop-color="#7e9193"/><stop offset="0.52" stop-color="#9faeaf"/><stop offset="1" stop-color="#7e9193"/></linearGradient><linearGradient id="linear-gradient-3" x1="239.01" y1="176.73" x2="300.03" y2="176.73" xlink:href="#linear-gradient-2"/><linearGradient id="linear-gradient-4" x1="274.75" y1="140.14" x2="359.11" y2="140.14" xlink:href="#linear-gradient-2"/><linearGradient id="linear-gradient-5" x1="285.78" y1="137.68" x2="347.7" y2="137.68" xlink:href="#linear-gradient-2"/><linearGradient id="linear-gradient-6" x1="75.43" y1="143.24" x2="120.88" y2="143.24" xlink:href="#linear-gradient-2"/><linearGradient id="linear-gradient-7" x1="64.73" y1="146.75" x2="131.57" y2="146.75" xlink:href="#linear-gradient-2"/><radialGradient id="radial-gradient" cx="206.53" cy="155.91" r="7.38" gradientUnits="userSpaceOnUse"><stop offset="0" stop-color="#ca9089"/><stop offset="1" stop-color="#be776e"/></radialGradient><radialGradient id="radial-gradient-2" cx="205.66" cy="147.54" r="10.65" xlink:href="#radial-gradient"/><linearGradient id="linear-gradient-8" x1="150.54" y1="164.35" x2="222.83" y2="164.35" xlink:href="#linear-gradient-2"/><linearGradient id="linear-gradient-9" x1="113.54" y1="189.96" x2="170.83" y2="189.96" xlink:href="#linear-gradient-2"/><linearGradient id="linear-gradient-10" x1="216.94" y1="146.28" x2="269.35" y2="146.28" xlink:href="#linear-gradient-2"/><linearGradient id="linear-gradient-11" x1="243.76" y1="54.4" x2="258.44" y2="115.94" gradientUnits="userSpaceOnUse"><stop offset="0" stop-color="#77796d"/><stop offset="1" stop-color="#d5ab57"/></linearGradient><linearGradient id="linear-gradient-12" x1="243.76" y1="54.4" x2="258.44" y2="115.94" gradientUnits="userSpaceOnUse"><stop offset="0" stop-color="#646b52"/><stop offset="0.4" stop-color="#77796d"/><stop offset="1" stop-color="#d5ab57"/></linearGradient><radialGradient id="radial-gradient-3" cx="248.2" cy="126.32" r="46.47" gradientTransform="translate(0 -18.41) scale(1 1.07)" xlink:href="#linear-gradient-12"/><radialGradient id="radial-gradient-4" cx="285.73" cy="110.87" r="1.54" gradientTransform="translate(0 -18.41) scale(1 1.07)" gradientUnits="userSpaceOnUse"><stop offset="0.55" stop-color="#d2a957"/><stop offset="1" stop-color="#988854"/></radialGradient><radialGradient id="radial-gradient-5" cx="257.84" cy="123.23" r="1.54" xlink:href="#radial-gradient-4"/><radialGradient id="radial-gradient-6" cx="225.16" cy="112.41" r="1.54" xlink:href="#radial-gradient-4"/><radialGradient id="radial-gradient-7" cx="230.25" cy="116.26" r="1.19" xlink:href="#radial-gradient-4"/><radialGradient id="radial-gradient-8" cx="220.39" cy="119.82" r="1.19" xlink:href="#radial-gradient-4"/><radialGradient id="radial-gradient-9" cx="286.7" cy="115.08" r="1.19" xlink:href="#radial-gradient-4"/><radialGradient id="radial-gradient-10" cx="275.4" cy="119.39" r="1.42" xlink:href="#radial-gradient-4"/><radialGradient id="radial-gradient-11" cx="231.79" cy="110.3" r="2.4" xlink:href="#radial-gradient-4"/><radialGradient id="radial-gradient-12" cx="291.97" cy="115.29" r="2.4" xlink:href="#radial-gradient-4"/><radialGradient id="radial-gradient-13" cx="251.5" cy="117.53" r="2.4" xlink:href="#radial-gradient-4"/><radialGradient id="radial-gradient-14" cx="265.79" cy="116.26" r="2.4" xlink:href="#radial-gradient-4"/><radialGradient id="radial-gradient-15" cx="247.72" cy="121.69" r="1.12" xlink:href="#radial-gradient-4"/><radialGradient id="radial-gradient-16" cx="238.97" cy="116.94" r="1.56" xlink:href="#radial-gradient-4"/><linearGradient id="linear-gradient-13" x1="144.95" y1="62.81" x2="159.63" y2="124.35" xlink:href="#linear-gradient-11"/><linearGradient id="linear-gradient-14" x1="144.95" y1="62.81" x2="159.63" y2="124.35" xlink:href="#linear-gradient-12"/><radialGradient id="radial-gradient-17" cx="149.39" cy="134.14" r="46.47" gradientTransform="translate(0 -18.41) scale(1 1.07)" xlink:href="#linear-gradient-12"/><radialGradient id="radial-gradient-18" cx="123.17" cy="127.08" r="1.54" xlink:href="#radial-gradient-4"/><radialGradient id="radial-gradient-19" cx="125.9" cy="122.58" r="1.19" xlink:href="#radial-gradient-4"/><radialGradient id="radial-gradient-20" cx="198.52" cy="125.27" r="1.19" xlink:href="#radial-gradient-4"/><radialGradient id="radial-gradient-21" cx="191.44" cy="122.86" r="1.85" xlink:href="#radial-gradient-4"/><radialGradient id="radial-gradient-22" cx="134.28" cy="114.19" r="1.19" xlink:href="#radial-gradient-4"/><radialGradient id="radial-gradient-23" cx="187.49" cy="115.13" r="1.19" xlink:href="#radial-gradient-4"/><radialGradient id="radial-gradient-24" cx="159.23" cy="129.61" r="1.19" xlink:href="#radial-gradient-4"/><radialGradient id="radial-gradient-25" cx="139.17" cy="124.35" r="1.19" xlink:href="#radial-gradient-4"/><radialGradient id="radial-gradient-26" cx="167.18" cy="123.54" r="1.19" xlink:href="#radial-gradient-4"/><radialGradient id="radial-gradient-27" cx="182.27" cy="126.92" r="1.19" xlink:href="#radial-gradient-4"/><radialGradient id="radial-gradient-28" cx="180.73" cy="120.39" r="1.54" xlink:href="#radial-gradient-4"/><radialGradient id="radial-gradient-29" cx="131.88" cy="121.6" r="2.4" xlink:href="#radial-gradient-4"/><radialGradient id="radial-gradient-30" cx="192.73" cy="113.26" r="2.4" xlink:href="#radial-gradient-4"/><radialGradient id="radial-gradient-31" cx="173.97" cy="126.22" r="1.49" xlink:href="#radial-gradient-4"/><radialGradient id="radial-gradient-32" cx="152.38" cy="125.63" r="1.72" xlink:href="#radial-gradient-4"/><radialGradient id="radial-gradient-33" cx="141.63" cy="128.1" r="1.5" xlink:href="#radial-gradient-4"/></defs><g class="cls-1"><g id="Layer_1" data-name="Layer 1"><path class="cls-2" d="M289,116.16l-116.47.63c-19.94.11-39.88.22-59.82.72-21.8.55-44.09,1.67-64.27,9.94-8.85,3.63-18.1,10-19,19.51-1.06,10.61,9.08,19.34,19.39,22s21.26,1.46,31.78,3.23c7.45,1.25,31.23,11,17.87,20.44-2.42,1.73-5.31,3.13-6.63,5.79-1.65,3.33-.1,7.54,2.67,10,8.25,7.39,23.34,8.92,33.8,9.4A111,111,0,0,0,168,212.48c9.86-3.25,19.32-7.9,29.52-9.83,18.78-3.55,34.14,3.84,52.08,6.84,15.09,2.53,31,4.2,46.4,2.9,7.73-.66,15.87-2.21,21.63-7.42s8-13,12.67-19.1c4.81-6.37,13.78-13.35,21.62-15.34,9.09-2.31,18.34-3.34,27.37-6.43,9.62-3.29,20.41-9.56,20.69-19.72.16-5.94-3.65-11.43-8.55-14.8s-10.77-5-16.55-6.31a298.41,298.41,0,0,0-94.06-6.73Z"/><path class="cls-3" d="M279.19,116.06l-101.12.55c-17.31.09-34.62.19-51.93.62-18.93.48-38.28,1.45-55.8,8.63C62.66,129,54.63,134.54,53.8,142.8c-.92,9.21,7.88,16.79,16.83,19.14s18.46,1.26,27.59,2.8c6.47,1.09,27.12,9.5,15.52,17.75-2.1,1.49-4.61,2.72-5.76,5-1.43,2.88-.08,6.54,2.32,8.68,7.16,6.42,20.27,7.75,29.34,8.17a96.51,96.51,0,0,0,34.53-4.68c8.56-2.82,16.77-6.86,25.63-8.54,16.3-3.08,29.64,3.33,45.21,5.94,13.1,2.2,26.95,3.65,40.28,2.51,6.72-.57,13.79-1.91,18.78-6.44s7-11.26,11-16.57c4.18-5.54,12-11.6,18.77-13.32,7.9-2,15.92-2.91,23.77-5.59,8.35-2.85,17.72-8.3,18-17.12.14-5.15-3.17-9.93-7.42-12.85s-9.35-4.3-14.37-5.48a259,259,0,0,0-81.66-5.84Z"/><path class="cls-4" d="M199.12,172.13A83,83,0,0,0,185,175c.27-.6,2.87-1.15.79-1.78a28.58,28.58,0,0,0-21.18-1.49,7.22,7.22,0,0,1-3.46.6c-1.16-.21-2.24-1.4-1.84-2.51.48-1.34,2.75-2.05,2.21-3.37a1.83,1.83,0,0,0-1.1-.87c-4.83-1.94-11,.09-15.13-3a1.91,1.91,0,0,1-.78-1c-.3-1.2,1.33-1.86,2.56-2,2.66-.21,5.33-.25,8-.55,5.76-.66,11.49-2.57,17.23-1.74a3.91,3.91,0,0,0,.7-2.42,2.8,2.8,0,0,0-2.67-2,12.19,12.19,0,0,0-3.57.59c-6.17,1.43-12.85-.77-18.85,1.24-1.37.46-2.67,1.13-4.08,1.46-2.08.49-4.28.21-6.37.63-2.56.52-5.23,2.67-4,5.57a5.13,5.13,0,0,0,2.82,2.55,24,24,0,0,0,7,1.75,16.07,16.07,0,0,1,4.54.71c.85.34,3.5.91,4.46,1.56.65.44-.73,1.36-1.46,1.65-1.54.62-3.17,2.53-2.62,3.75.71,1.58,2.5,2.35,4.18,2.78a16.22,16.22,0,0,0,6.08.49,38.45,38.45,0,0,0,5.56-1.43,39.25,39.25,0,0,1,11.61-1.52,3.78,3.78,0,0,1,2.07.46,1.36,1.36,0,0,1,.44,1.86c-.2,0-2.69,1.08-2.88,1.12-1.84.36.55,2,2.38,2.32a12.63,12.63,0,0,0,4.5-.1c8.92-1.39,18.07-4.33,26.77-1.91a64.3,64.3,0,0,0,6.71,2c2.3.37,4.89,0,6.53-1.64l-1.67-2.3c4.27-2.9,10.35-.8,15-3,1.37-.66,2.7-2.21,2-3.55s-3.22-1.37-3.65-2.92a2.31,2.31,0,0,1,1.42-2.42,24.64,24.64,0,0,0,2.76-1.27,3.71,3.71,0,0,0,0-5.8,6.54,6.54,0,0,0-2.6-.89,44.55,44.55,0,0,0-17,.27c-.11.66.8,1,1.47,1a31.43,31.43,0,0,1,8.73,1.86c.8.29,1.75,1,1.33,1.79l-7.85,1.7c.07,1.91,2.19,3,4,3.69s3.79,2.14,3.42,4l-6.35.11a4.15,4.15,0,0,0-2.07.39,10.85,10.85,0,0,0-1.53,1.43c-2.26,2-5.75.6-8.67-.23A30.28,30.28,0,0,0,199.12,172.13Z"/><path class="cls-5" d="M296.17,172.68c.49-1.14,2.22-1.81,1.92-3-.19-.8-1.15-1.08-2-1.22L280,165.57c-1.2-.21-2.77-.25-3.27.86s.54,2.27,1.6,2.83c2.09,1.09,4.51,1.26,6.79,1.85s4.65,1.88,5.34,4.13a2.12,2.12,0,0,0-2.86,1.35,9.31,9.31,0,0,1-.24,1.4c-.27.68-1,1-1.55,1.53-1.63,1.37-2.08,3.84-3.82,5.07-2.17,1.54-5.11.49-7.72,0-4.69-.9-9.52.21-14.29,0a1.81,1.81,0,0,1-1.24-.41,2.42,2.42,0,0,1-.41-1.31c-.49-2.67-3.68-3.84-6.4-4s-5.72.06-7.85-1.63l5.13-2.06a1.21,1.21,0,0,0,.73-.53c.43-.91-1.47-1.61-1.19-2.58a36.34,36.34,0,0,1,8.53-1.63c2-.14,4.14-.14,5.84-1.22s2.57-3.73,1.11-5.11c-2.18,2-5.39,2.47-8.37,2.5s-6.05-.26-8.87.68a6,6,0,0,0-3.13,2.14,3.25,3.25,0,0,0-.15,3.62c-2.4.9-5.13,2.82-4.58,5.32.44,2,2.75,2.91,4.77,3.09s4.19-.07,6,.91,2.68,2.75,4.2,3.93c3,2.34,7.29,1.64,11.12,1.74,4,.1,7.89,1.19,11.88,1.38,3.53.18,7.57-.66,9.4-3.7.47-.77.77-1.65,1.29-2.38,1.48-2.06,4.3-2.48,6.77-3s5.27-1.93,5.55-4.45a4.83,4.83,0,0,1-2.88-.55A2.22,2.22,0,0,1,296.17,172.68Z"/><path class="cls-6" d="M359.1,136.92a1.46,1.46,0,0,0-.77-.94c-4.31-2.87-9.69-3.49-14.85-4l-11.26-1.17,8.93,3.69a14.52,14.52,0,0,0,5.28,1.43,12.38,12.38,0,0,1,2.79.08c.91.23,1.78,1,1.64,2s-1.05,1.4-1.83,1.86-1.6,1.27-1.32,2.13c-2.24-.31-4.68-.59-6.64.56-1,.57-1.74,1.46-2.72,2a10.15,10.15,0,0,1-5.22.93H321a19.23,19.23,0,0,1-3.39-.2c-1.32-.23-2.57-.71-3.88-1a13.43,13.43,0,0,0-5.95,0c-1.29.3-3.07.57-3.56-.66-.13-.34-.11-.72-.27-1.05-.36-.82-1.46-.91-2.35-.86a90.75,90.75,0,0,0-10.4,1.09,5.39,5.39,0,0,1-2.26.05,1.76,1.76,0,0,1-1.37-1.61c0-.93,1.08-1.8.67-2.63a1.63,1.63,0,0,0-.88-.68,14.83,14.83,0,0,0-4.68-1.26,3.74,3.74,0,0,1-1.55-.35,1.12,1.12,0,0,1-.55-1.35,1.43,1.43,0,0,1,.5-.51c2-1.44,4.62-1.78,7.09-2.08l5-.6c-5.72-.38-11.74-.7-16.89,1.81a2.8,2.8,0,0,0-1.38,1.15,2.05,2.05,0,0,0,.83,2.42,5.93,5.93,0,0,0,2.62.86l3.82.61c1.17.18,2.65.72,2.62,1.9a7.27,7.27,0,0,1-.49,1.52,2.56,2.56,0,0,0,1.61,2.72,7.5,7.5,0,0,0,3.37.4l8.68-.32a3.57,3.57,0,0,1,2.54.56c.33.29.54.71.86,1a4.32,4.32,0,0,0,2.21,1,25.57,25.57,0,0,0,6.19.9c2.39,0,4.76-.76,7.14-.53,2.85.27,5.51,1.88,8.37,1.72,1.83-.11,3.54-.93,5.35-1.19,2.69-.39,5.56.48,8.1-.48,1.13-.43,2.1-1.2,3.19-1.73,2.65-1.29,5.76-1.12,8.69-.79a4.82,4.82,0,0,0,2.36-.12,1.61,1.61,0,0,0,1-1.89c-.23-.59-.93-1-.94-1.61s.57-1,1.1-1.29l3.88-2.14C358.56,138,359.17,137.52,359.1,136.92Z"/><path class="cls-7" d="M333.55,133.24l7.18.3a10.76,10.76,0,0,1,5.45,1.19c1,.64,1.84,1.89,1.4,3-.54,1.38-2.42,1.47-3.91,1.48a14.85,14.85,0,0,0-6.28,1.29c-.87.4-1.68.91-2.58,1.22-1.9.65-4,.34-6,.07-5.45-.74-10.95-1.17-16.44-1.52-4.31-.28-8.64-.51-13-.5a30.17,30.17,0,0,1-5.78-.32c-.57-.11-1.29-.57-1-1.09a8.62,8.62,0,0,1-6.86-3.12A29.82,29.82,0,0,1,298,134.19L295,135.72a1,1,0,0,0-.56.47c-.24.61.67,1,1.33,1l31.1.83a26.62,26.62,0,0,0,5.05-.2,13,13,0,0,0,6.7-3.35,1.8,1.8,0,0,0-2.18-1Z"/><path class="cls-8" d="M339.14,136.25s-4.52-11-9.23-14.24-18.85-7.12-20.16-8.52c0,0-8.52,8.12-10.33,10.12a91.51,91.51,0,0,0-8.12,12.64s3.71,3,14,1.91,11.53,2.1,23,1.3S339.14,136.25,339.14,136.25Z"/><path class="cls-9" d="M339.14,136.25s-4.52-11-9.23-14.24-18.85-7.12-20.16-8.52c0,0-7.28,6.93-9.8,9.56a.13.13,0,0,0,0,.06c.73,3.33,2.2,3.66,4.94,2.51,2.92-1.22,5.79-2.81,9-2.67,2.89.12,4.61,2.5,5.22,5.07.56,2.34-1,5.25.69,7.37a19.72,19.72,0,0,0,4.5,4.2c1.18,0,2.48,0,4-.13C339.74,138.66,339.14,136.25,339.14,136.25Z"/><path class="cls-9" d="M314.94,134.19c-.16-2.91.55-8.23-4-6.51-1.65.62-3.23,1.4-4.87,2-5.29,2-7.64.22-8.95-3a97.76,97.76,0,0,0-5.78,9.49s3.71,3,14,1.91a34.17,34.17,0,0,1,11.65.64A8.1,8.1,0,0,1,314.94,134.19Z"/><path class="cls-10" d="M339.14,136.25s-4.52-11-9.23-14.24c-4.23-2.88-16-6.32-19.34-8,1.12,3.11,1.86,5.48,4.61,8a81.82,81.82,0,0,1,6.07,6c2.81,3.16,6.23,7.13,7.62,11.41C339.69,138.57,339.14,136.25,339.14,136.25Z"/><path class="cls-9" d="M313.56,117.09c1.91,1.19,4.06,3.6,6.57,3.06a7.55,7.55,0,0,1,3.69,0c1,.31,5,2.43,8.1,3.65a11.49,11.49,0,0,0-2-1.82c-4.23-2.88-16-6.32-19.34-8,.3.84.57,1.62.87,2.36A4.72,4.72,0,0,1,313.56,117.09Z"/><path class="cls-9" d="M336.05,129.89c-2.24,2.73-5.16,4.15-8.47.84a13.59,13.59,0,0,1-1.6-2.31,5.52,5.52,0,0,0-4.18-.77l-1-.14c.15.17.31.32.45.49,2.81,3.16,6.23,7.13,7.62,11.41,10.82-.84,10.27-3.16,10.27-3.16A68.25,68.25,0,0,0,336.05,129.89Z"/><path class="cls-11" d="M112.2,140.32a1.66,1.66,0,0,1,1,.66,1.16,1.16,0,0,1,.05.78c-.31,1.19-1.71,1.74-2.94,1.77a16.64,16.64,0,0,0-3.67.06,17.32,17.32,0,0,0-1.9.79c-3.4,1.35-7.19-.38-10.85-.41-2,0-4.22.47-6-.54-1.16-.67-2.07-2-3.41-2-.43,0-.86.13-1.29.11a1,1,0,0,1-1-.69,9.09,9.09,0,0,1,3.41,0,44.47,44.47,0,0,0,9.51-.08c.37,0,.83-.17.9-.54s-.49-.7-.94-.78c-2.84-.47-5.75-.13-8.62-.3-3.46-.21-7.1-1.11-10.25.32a1.46,1.46,0,0,0-.75.6c-.29.58.21,1.24.7,1.67a14.86,14.86,0,0,0,3.32,2.23,29.53,29.53,0,0,0,5.36,1.85c6.54,1.81,13.38,3.64,20,2.34,1.14-.23,2.27-.54,3.42-.66,2.34-.23,5,.27,6.79-1.25.45-.39.81-.88,1.24-1.29,1.3-1.24,3.3-1.76,4.19-3.32a1.65,1.65,0,0,0,.15-1.59,2.17,2.17,0,0,0-1.57-.82,70,70,0,0,0-10.4-1.27,3.72,3.72,0,0,0-2.38.43Z"/><path class="cls-12" d="M131.06,140a3.09,3.09,0,0,0-1.79-.69,44.77,44.77,0,0,0-9,0l-4.5.27a8.89,8.89,0,0,1-1.11,2.83c1.86.18,3.77.2,5.64.26.77,0,1.74.21,1.92,1a1.45,1.45,0,0,1-.17.95,5.78,5.78,0,0,1-3.35,2.62c-4.82,1.84-10.31,1.08-15.17,2.8-1.55.55-3,1.34-4.58,1.79a6.11,6.11,0,0,1-4.77-.3c-1.35-.8-2.12-2.28-3.23-3.38-2.08-2.07-5.21-2.69-8.15-2.71s-5.89.47-8.81.19a1.23,1.23,0,0,1-.33-.08c-.25-.13-.32-.45-.41-.71a2.69,2.69,0,0,0-2.9-1.75c-.15-.43.46-.7.91-.74l21.09-1.88c-.18-1-1.46-1.28-2.48-1.33a95.2,95.2,0,0,0-15.92.65l1.72-.28-6.72.8c-1.65.19-3.64.66-4.09,2.26s.93,3,2.3,3.84a15.4,15.4,0,0,0,8.18,2.26c2.15,0,4.28-.5,6.43-.6a8.92,8.92,0,0,1,6.11,1.55c.87.7,1.52,1.63,2.32,2.41a9.17,9.17,0,0,0,8.3,2.37c1.61-.37,3.09-1.17,4.68-1.63,4.42-1.28,9.17.16,13.74-.31a9.17,9.17,0,0,0,2.83-.69,12.29,12.29,0,0,0,2.45-1.6l7.18-5.54a6.79,6.79,0,0,0,1.92-2A2.25,2.25,0,0,0,131.06,140Z"/><path class="cls-13" d="M96.4,143.85c6.24,1.2,9.25-1.67,14.19-3.45L95.37,123.48l-12.45,11.2L90.44,143A55.09,55.09,0,0,1,96.4,143.85Z"/><path class="cls-14" d="M103.78,143.31c2.23-.79,4.27-2,6.81-2.91L95.37,123.48,90.72,128C95,133.17,103.78,143.31,103.78,143.31Z"/><path class="cls-14" d="M110,140.61l.55-.21L95.37,123.48l-.57.52C95.84,125.18,110,140.61,110,140.61Z"/><path class="cls-15" d="M93.63,124.84l-1.35,1.42c4.51,5.52,14,16,14,16l2.08-1C106.06,139.55,96.53,128.22,93.63,124.84Z"/><path class="cls-16" d="M88,130.14,84.83,133c1.48,1.65,7.44,8.72,9,10.47.84.12,1.68.25,2.55.42a14.44,14.44,0,0,0,4.22.21Z"/><path class="cls-17" d="M91.39,143.14c1.63.16,3.28.37,5,.71,6.24,1.2,9.25-1.67,14.19-3.45l-1.14-1.27a22.57,22.57,0,0,1-7.44.78,11.49,11.49,0,0,1-1.76-.26c-4.87-.64-9.17-4.25-12.82-8l-3.5,3.15Z"/><path class="cls-18" d="M95.37,123.48c.86,1-1.23,4.23-4.67,7.32s-6.92,4.83-7.78,3.88,1.24-4.23,4.68-7.33S94.51,122.53,95.37,123.48Z"/><path class="cls-19" d="M94.62,124.16c.62.69-1.32,3.46-4.34,6.18s-6,4.35-6.6,3.66S85,130.54,88,127.82,94,123.46,94.62,124.16Z"/><path class="cls-14" d="M92.13,126.17c.29.33-.86,1.83-2.57,3.37s-3.32,2.52-3.62,2.19.86-1.83,2.57-3.36S91.84,125.85,92.13,126.17Z"/><path class="cls-20" d="M203.54,168.32l.27.05c3.41-3.43,8.3-8.86,8.95-12.32l-14,1.62,11.31-20.33s-10.8-9-28.6-2.13c-13.63,5.25-19.5,20.51-21.49,27.37C174.7,162,188.9,167.12,203.54,168.32Z"/><path class="cls-21" d="M185.52,158.49c6.52.08,12.91-3.24,14.43-2.94l5.9-10.61c-8.65-5.48-19-4.44-22.42-3.26-5.41,1.86-9.93,5.64-6.38,11.69C179.3,157.21,180.92,158.44,185.52,158.49Z"/><path class="cls-22" d="M202.32,162.55a21.71,21.71,0,0,0-12.27.62,21.41,21.41,0,0,1-6.63,1.53c-4,0-7.63-1.33-10-4.68-4.64-6.45-5.4-13.17-1.77-18.25-6.78,6.76-10.19,15.92-11.61,20.81,14.71-.54,28.91,4.54,43.55,5.74l.27.05a72.62,72.62,0,0,0,5.44-6.06A14.57,14.57,0,0,1,202.32,162.55Z"/><path class="cls-22" d="M194.62,167.18c3,.49,5.93.9,8.92,1.14l.27.05a65.94,65.94,0,0,0,6.32-7.22C205.31,164.08,199.91,166.49,194.62,167.18Z"/><path class="cls-23" d="M181.05,136.91c16-6.15,26.29.45,28.23,1.86l.8-1.43s-10.8-9-28.6-2.13c-13.63,5.25-19.5,20.51-21.49,27.37h.09C162.49,155.17,168.44,141.76,181.05,136.91Z"/><circle class="cls-24" cx="185.94" cy="150.17" r="4.65"/><path class="cls-18" d="M189.11,150.17a3.17,3.17,0,1,1-3.17-3.17A3.17,3.17,0,0,1,189.11,150.17Z"/><path class="cls-25" d="M187.24,149.21a1.3,1.3,0,1,1-1.3-1.3A1.3,1.3,0,0,1,187.24,149.21Z"/><path class="cls-26" d="M196.74,159.53a28.56,28.56,0,0,1,5.63-3.87c4.7-2.52,11.41-4.92,13.44-2.09,3.34,4.66-10.79,4.57-12.68,5.22A26.44,26.44,0,0,1,196.74,159.53Z"/><path class="cls-27" d="M196.57,159.09s.42-8.19,9.06-18.91c8.21-10.19,10.68-1.06,8.25,3.5C211.82,147.55,196,162.21,196.57,159.09Z"/><path class="cls-28" d="M219.17,163.83c1.17.41,6.43,2.87,1.74,3.61-2.45.93-3.68-.09-5.68.44a57.27,57.27,0,0,1-8.7,1.84,35.85,35.85,0,0,1-12.5-1,15.73,15.73,0,0,0-3.51-.65c-1.86,0-3.64.69-5.47,1-5.1.88-10.28-1.44-15.45-1.08-2.37.16-5.42.59-6.53-1.41a5.35,5.35,0,0,0-.82-1.55,2.82,2.82,0,0,0-1.35-.56l-10.27-2.26c-.44-.83.75-1.56,1.69-1.82l3.39-.94a8.8,8.8,0,0,1,4.88-.39,17.29,17.29,0,0,1,2.64,1.35,9.88,9.88,0,0,0,5.56,1.35c3.07-.38,6,.6,8.91.47,4.66-.19,9.48-2.29,13.79-.6a25.67,25.67,0,0,1,3.23,1.72,24.89,24.89,0,0,0,9.48,3,2.32,2.32,0,0,0,1.76-.18s1.1-1.21,1.6-1.78c1.28-1.44,3.89-2,5.87-1.89A20.38,20.38,0,0,1,219.17,163.83Z"/><path class="cls-29" d="M295.76,140.08l-5.45-4.26s-8.83,13.58-10.54,13.59-7.43-2-15.09,8c-1.21,1.57-8.13,11.35-13.92,19.56a9.91,9.91,0,0,0,10.76,2.64,7.4,7.4,0,0,1,5.49.38c3.07,1.63,4.64,1,8.06.44a11.6,11.6,0,0,1,5.55.78c4-5.62,7.65-10.89,8.19-12.07,3.42-7.61.26-11.73.15-13.44C288.81,153.37,295.76,140.08,295.76,140.08Z"/><path class="cls-30" d="M295.76,140.08,294,138.3c-2.51,5.35-4.72,9-8.42,15.38,0,0-7.78,13-17.27,26.83,2.3.86,3.88.35,6.79-.13a11.57,11.57,0,0,1,5.6.8c3.54-4.87,6.64-9.23,7.14-10.11,5-8.89,1.27-13.57,1.15-15.42C288.81,153.37,295.76,140.08,295.76,140.08Z"/><path class="cls-31" d="M287.16,140.5c1.77-2.56,3.15-4.68,3.15-4.68l5.45,4.26s-1,2-2.29,4.52c-.1.21-2.32-.31-4-1.42A6.34,6.34,0,0,1,287.16,140.5Z"/><path class="cls-29" d="M302.35,137.29l-4,6.11s-5.67-.29-12.31-7.59l3.87-6.34Z"/><path class="cls-32" d="M292.79,131.3l3.3,2.06a30.66,30.66,0,0,0-4.78,7.09,28,28,0,0,1-3.08-2.43A30.27,30.27,0,0,1,292.79,131.3Z"/><path class="cls-33" d="M289.88,129.47s2.85-.15,7.34,2.16,5.34,4.29,5.13,5.66c0,0-2.68.58-7.22-2S289.88,129.47,289.88,129.47Z"/><path class="cls-31" d="M275.07,180.38a8.52,8.52,0,0,1,2.62,0c3.74-5.33,7-10,7.19-10.4,3.68-8.07.89-12.55.89-12.55-2.3,4.82-9.24,14.95-15.33,23.51A24.53,24.53,0,0,0,275.07,180.38Z"/><path class="cls-32" d="M259.88,180c6.4-9.38,16-23.22,19.13-26.88-3.8.41-7.08,2.86-9.72,5.63-1.54,1.63-9.18,11.91-15.6,20.37A9.48,9.48,0,0,0,259.88,180Z"/><path class="cls-34" d="M267,179.94c3.07,1.63,4.64,1,8.06.44a11.57,11.57,0,0,1,5.6.8c1.87-2.57,3.6-5,4.91-6.83a99.11,99.11,0,0,1-18.92,5.45C266.77,179.86,266.9,179.88,267,179.94Z"/><path class="cls-35" d="M137.69,191.9c-1.92,0-3.67-1-5.42-1.83a27.59,27.59,0,0,0-9.05-2.45,1.16,1.16,0,0,1,.11-1.56c.39-.44.93-.7,1.33-1.12a6.33,6.33,0,0,0,1.16-2.47,12,12,0,0,1,14.75-7.14c2,.71,3.92,2.17,4.32,4.25.12.67.13,1.47.66,1.91a2.61,2.61,0,0,0,2,.18,8,8,0,0,1,8.3,5c.52,1.39.47,3.25-.8,4a3.65,3.65,0,0,1-1.94.36c-3.55,0-7.15-1.06-10.61-.25C140.88,191.13,139.34,191.9,137.69,191.9Z"/><path class="cls-36" d="M140.07,190.29a46.6,46.6,0,0,1-3.4-5.68c-.77-1.37-2.13-2.86-2.47-4.43a6,6,0,0,1,.32-4.3,8.4,8.4,0,0,1,.82-1,12,12,0,0,0-9.52,7.58,6.33,6.33,0,0,1-1.16,2.47c-.4.42-.94.68-1.33,1.12a1.16,1.16,0,0,0-.11,1.56,27.59,27.59,0,0,1,9.05,2.45c1.75.82,3.5,1.84,5.42,1.83a10.69,10.69,0,0,0,3.18-.67A9.2,9.2,0,0,1,140.07,190.29Z"/><path class="cls-37" d="M139.16,179.47c2,2.72,5.15,6.25,6.61,4.05a7,7,0,0,1,1.67-1.84,2.44,2.44,0,0,1-1.89-.19c-.53-.44-.54-1.24-.66-1.91a4.73,4.73,0,0,0-1.27-2.34.48.48,0,0,1-.11-.09C143,176.66,141.1,178.07,139.16,179.47Z"/><path class="cls-37" d="M152.64,188.18a3.26,3.26,0,0,1-.94-.3,1.54,1.54,0,0,1-.29.46c-1.72,2-4.56,1.19-6.45.18q-.83-.63-1.62-1.29a3.07,3.07,0,0,1-1.79.56,5.84,5.84,0,0,1-5.48-3.33l-.35.07a4.59,4.59,0,0,1-2.21.66,6.13,6.13,0,0,1-2.89-.66,5.55,5.55,0,0,1-2.17-6.17h0a10.7,10.7,0,0,0-2.63,4.11,6.33,6.33,0,0,1-1.16,2.47c-.4.42-.94.68-1.33,1.12a1.16,1.16,0,0,0-.11,1.56,27.59,27.59,0,0,1,9.05,2.45c1.75.82,3.5,1.84,5.42,1.83,1.65,0,3.19-.77,4.8-1.14,3.46-.81,7.06.2,10.61.25a3.65,3.65,0,0,0,1.94-.36,2.89,2.89,0,0,0,1.05-3A5.41,5.41,0,0,1,152.64,188.18Z"/><path class="cls-38" d="M118.89,185.71a1.32,1.32,0,0,1,1.08-1.18,6.11,6.11,0,0,1,1.71,0,6.64,6.64,0,0,0,3.88-1.17,49.48,49.48,0,0,0-7.76,1.09,7.74,7.74,0,0,0-3.24,1.33,2.54,2.54,0,0,0-1,1.74,2.42,2.42,0,0,0,1.5,2.18,7.18,7.18,0,0,0,2.73.53l6.1.35a4.93,4.93,0,0,1,1.48.24,5.58,5.58,0,0,1,1.52,1.09,20.06,20.06,0,0,0,8.55,4.35,11.61,11.61,0,0,0,4.94.2,23.44,23.44,0,0,0,3.84-1.37A26.18,26.18,0,0,1,155,193.29c2.79.14,5.56.73,8.35.7,2.23,0,4.85-.79,5.5-2.91.43-1.41,2.68-1.64,1.71-2.74-.49-.57-6.71-1.05-7.39-1.37-3.07-1.42-3.87-.24-7.22-.67l4,2.12a1.59,1.59,0,0,1,.69.56c.41.74-.58,1.54-1.43,1.54a9,9,0,0,0-2.52-.14,5.43,5.43,0,0,0-.85.39c-2.86,1.39-6.33-.34-9.43.34a24.52,24.52,0,0,0-4.55,2,12.17,12.17,0,0,1-5.59,1,4.71,4.71,0,0,1-2.18-.56,8.35,8.35,0,0,1-1.91-2.06,10.5,10.5,0,0,0-7.43-3.84c-1.79-.11-3.78.2-5.21-.88A1.47,1.47,0,0,1,118.89,185.71Z"/><path class="cls-39" d="M249.05,129c2.31.45,4.84,1,6.23,2.93,1.54,2.12,1.11,5.11,2.22,7.48.7,1.52,2,2.69,2.82,4.15s1,3.53-.24,4.61-3.07.59-4.63.15a53.26,53.26,0,0,0-22.22-1.42,4.2,4.2,0,0,1-2.51-.13,4.85,4.85,0,0,1-1.21-1.1c-1.57-1.75-3.54-3.14-4.89-5.07s-1.91-4.72-.45-6.57a6.27,6.27,0,0,1,4.6-1.92,24.83,24.83,0,0,0,5.11-.41c2.08-.57,3.8-2.06,5.83-2.8C242.67,127.78,246,128.37,249.05,129Z"/><path class="cls-40" d="M251.94,144.89c-.46-2.3-2.69-1.61-4.49-1.35a2.64,2.64,0,0,1-3.26-2.48c-.16-2.59-2.5-8.05.78-9.79,1-.51,5.46-.74,7.47-1.4a19.69,19.69,0,0,0-3.39-.9c-3.1-.6-6.38-1.19-9.34-.1-2,.74-3.75,2.23-5.83,2.8a24.83,24.83,0,0,1-5.11.41,6.27,6.27,0,0,0-4.6,1.92c-1.46,1.85-.9,4.64.45,6.57s3.32,3.32,4.89,5.07a4.85,4.85,0,0,0,1.21,1.1,4.2,4.2,0,0,0,2.51.13,53.14,53.14,0,0,1,19.75.79A7.86,7.86,0,0,1,251.94,144.89Z"/><path class="cls-41" d="M249.17,138.14c2.18-.23,4.53-.15,5.83,1.43.2.23.35.44.51.66-.21-1.85-.36-3.74-.45-5.61a9.83,9.83,0,0,1-1.67.51,43.2,43.2,0,0,1-4.95.36C248.84,135.45,249.05,136.76,249.17,138.14Z"/><path class="cls-41" d="M248.09,139.27a10.67,10.67,0,0,1,.56-2.32,2.83,2.83,0,0,1-2.14-.42c-1.71-1.29-1.84-2.51-2.42-4.47.1.32-1.24.18-2.21.11a4.86,4.86,0,0,1-2.17-.83,4.4,4.4,0,0,1-.55-.37l-.14-.05a11.14,11.14,0,0,1,.84,2.09c.42,1.51-.45,2.34-1.25,3.24a4.94,4.94,0,0,1,1.39.44c1.1.65,1.54,1.47,3,1.64,2,.24,2.83,1.25,4.56,2.07.24.11.51.21.78.31A4.23,4.23,0,0,1,248.09,139.27Z"/><path class="cls-41" d="M260.14,145.09a2.63,2.63,0,0,1-2.9,1.18c-2.19-.41-3.64-2.37-5.78-.8a3.77,3.77,0,0,1-3.66.3,5.45,5.45,0,0,1-2.34-3.32c-.69-2.49-2.88-1.4-4.71-.68s-4.83.78-5.53-1.77c-.57-2.07.57-.56-1.83-1a3.74,3.74,0,0,1-2.66-1.44,2.56,2.56,0,0,1-.66-2.5,6.06,6.06,0,0,1,2.23-3.14c-1.17.11-2.36.07-3.53.14a6.27,6.27,0,0,0-4.6,1.92c-1.46,1.85-.9,4.64.45,6.57s3.32,3.32,4.89,5.07a4.85,4.85,0,0,0,1.21,1.1,4.2,4.2,0,0,0,2.51.13,53.26,53.26,0,0,1,22.22,1.42c1.56.44,3.4.89,4.63-.15s1.1-2.66.52-4A5.9,5.9,0,0,1,260.14,145.09Z"/><path class="cls-42" d="M269.25,143.77a1.18,1.18,0,0,0-.49-1.46,3.37,3.37,0,0,0-1.6-.45,4.39,4.39,0,0,0-1.91.07c-.43.14-5.3.23-5.69.46l.62.91c.24.33,2.87.28,3.73.57s.08.86-1.28,1.12a5.68,5.68,0,0,0-2,.83c-.55.4-1.21.74-1.32,1.4,0,.27,0,.59-.15.81a1,1,0,0,1-.76.26,20.25,20.25,0,0,1-4.67-.21c-1.66-.33-3.2-1.07-4.85-1.4-1.21-.25-4.69.79-5.92.76-1.87,0-1.5-1.13-3.36-1.17a5.49,5.49,0,0,0-2.49.34c-.53.25-1,.67-1.5.92a5.52,5.52,0,0,1-2.18.36,1.66,1.66,0,0,1-1.16-.26.47.47,0,0,1-.11-.13,2.33,2.33,0,0,0-1.46-1.17L223.6,145c.79-.31,3.75-.41,4.54-.71l-1-.95c-2.33.12-4.61.5-6.94.61a4.85,4.85,0,0,0-2.94.8.69.69,0,0,0-.31.53.81.81,0,0,0,.42.56c3.15,2.07,7.3,1.19,11,1.87a2,2,0,0,1,1.52,1.38,1.88,1.88,0,0,0,.58.84,3.9,3.9,0,0,0,1.89.69,11.35,11.35,0,0,0,4.82-.14c.91-.26,1.77-.67,2.68-.92,3.6-1,7.39.66,11.12.52a30,30,0,0,1,4.12-.23c1.46.14,2.85.75,4.32.82.57,0,1.27-.12,1.44-.67a3.38,3.38,0,0,0,0-.78,2.24,2.24,0,0,1,.6-1.16,10.61,10.61,0,0,1,6.26-3.56C268.33,144.37,269,144.26,269.25,143.77Z"/><path class="cls-43" d="M240.85,69.94,106.07,42.71c-7.46-4.66-8.43-18-6.23-26.56C101.44,9.91,108,.83,115,0L248.79,25.94Z"/><path class="cls-43" d="M240.85,69.94,106.07,42.71c-7.46-4.66-8.43-18-6.23-26.56C101.44,9.91,108,.83,115,0L248.79,25.94Z"/><path class="cls-44" d="M219.43,20.25,198.05,16.1c-5.66,3.31-10.42,10.58-11.79,15.94-2.25,8.75-1.46,22.11,5.35,28l19.31,3.9c-6-6.2-6.62-18.73-4.47-27.08C207.92,31.08,213.26,23.16,219.43,20.25Z"/><path class="cls-18" d="M196.43,61c-6-6.77-6.56-19.75-4.33-28.46A31.73,31.73,0,0,1,202.56,17l-1.08-.21a31.69,31.69,0,0,0-10.7,15.73c-2.2,8.58-1.66,21.29,4.06,28.14Z"/><path class="cls-18" d="M206.41,62.93c-6-6.78-6.56-19.75-4.32-28.46A31.71,31.71,0,0,1,212.54,19l-1.08-.21a31.67,31.67,0,0,0-10.7,15.73c-2.2,8.58-1.65,21.28,4.07,28.14Z"/><path class="cls-44" d="M136.67,4.21,127.36,2.4c-6.1,3-11.36,10.81-12.81,16.49-2.06,8-1.56,19.86,3.76,26.29L126,46.73c-4-7.11-4.18-17.82-2.25-25.35C125.24,15.56,130.49,7.61,136.67,4.21Z"/><path class="cls-45" d="M239.55,50.28c-25-6.42-133.08-28.4-140.28-31.34-1,6.31-.44,14.13,2.7,19.43a.05.05,0,0,0,0,0L236.78,65.62Z"/><path class="cls-46" d="M259.81,51.21c-2.31,12.12-11,20.45-19.36,18.61s-13.32-13.16-11-25.27,11-20.45,19.35-18.61S262.11,39.09,259.81,51.21Z"/><path class="cls-47" d="M244.2,54.56a20.93,20.93,0,0,1-15.25-6c-.66,10.52,4.05,19.64,11.5,21.28,8.39,1.84,17.05-6.49,19.36-18.61a33.78,33.78,0,0,0,.45-3.55A20.8,20.8,0,0,1,244.2,54.56Z"/><path class="cls-18" d="M256.71,50.53c-1.83,9.65-8.55,16.32-15,14.9s-10.21-10.38-8.37-20,8.55-16.32,15-14.9S258.55,40.88,256.71,50.53Z"/><path class="cls-48" d="M265.4,57.4a62.29,62.29,0,0,0-8.65-7.17c-6.59-3.47-18.27-3.06-23.69-2.63a22.6,22.6,0,0,0,1.29,10.74,4.48,4.48,0,0,0,.2.44,15,15,0,0,0,.91,1.74c.22.34.42.65.62.93A11.93,11.93,0,0,0,237.34,63a1.35,1.35,0,0,0,.12.12l.19.19c1.83,1.85,1.21,4.39,1.46,10,.94,21.1-8.42,45.91-8.42,45.91h53.07C285.26,93.43,275,69.71,265.4,57.4Z"/><path class="cls-49" d="M265.4,57.4a62.29,62.29,0,0,0-8.65-7.17c-6.59-3.47-18.27-3.06-23.69-2.63a22.6,22.6,0,0,0,1.29,10.74,4.48,4.48,0,0,0,.2.44,15,15,0,0,0,.91,1.74c.22.34.42.65.62.93A11.93,11.93,0,0,0,237.34,63a1.35,1.35,0,0,0,.12.12l.19.19c1.83,1.85,1.21,4.39,1.46,10,.94,21.1-8.42,45.91-8.42,45.91h53.07C285.26,93.43,275,69.71,265.4,57.4Z"/><path class="cls-50" d="M281.74,107.87a1,1,0,0,0-.43.52,19.76,19.76,0,0,0-.89,2c-.52-.71-1.3-1.5-2.08-1.16s-.84,1.29-.9,2.1-.31,1.8-1.05,2c-.59.13-1.12-.37-1.54-.83l-1.43-1.57c-.16-.18-.36-.38-.6-.36a.69.69,0,0,0-.46.28c-.94,1.08-1,3.22-2.36,3.44-1.06.17-2-1.12-3-.9-.5.1-.88.53-1.34.77a2.14,2.14,0,0,1-2.95-1.7L260.25,114a.76.76,0,0,1-.43.16c-.25,0-.41-.31-.5-.56-.42-1.1-.72-2.54-1.79-2.82-.92-.24-1.76.58-2.45,1.27s-1.74,1.34-2.53.79c-.27-.19-.46-.48-.72-.68a1.77,1.77,0,0,0-1.94.15c-.58.38-1.06.93-1.64,1.3a1,1,0,0,1-.78.21c-.48-.12-.64-.78-1-1.12-.54-.47-1.35-.19-2,.18s-1.26.84-1.94.67a4,4,0,0,1-1.36-1,3,3,0,0,0-3.8.21,1,1,0,0,1-.48.33c-.35.06-.62-.32-.76-.66-.33-.77-1-3.36-2.17-2.64-.84.5-1.17,3.08-1.45,4-.12.39-1.47,5.43-1.84,5.43h53.07a87.93,87.93,0,0,0,0-10.14c-.05,0-.09.07-.15.06C282.82,109.08,282.46,107.57,281.74,107.87Z"/><path class="cls-50" d="M243.75,119.19c.13-1.31.27-2.63.4-4a40,40,0,0,1,1.31-7.88c.74-2.37,1.93-4.85,1.2-7.21-.36-1.15-1.14-2.11-1.45-3.28-.82-3.09,1.84-5.89,2.67-9,1.28-4.73-1.85-9.58-1.72-14.5.05-1.87.57-3.69.63-5.55a11,11,0,0,0-6.7-10.47,14.4,14.4,0,0,1,3.79,12.43c-.39,2.21-1.3,4.46-.7,6.61a15.59,15.59,0,0,0,1.31,2.81,11.72,11.72,0,0,1,.67,8.28c-1.11,3.75-4.14,7.19-3.32,11,.33,1.58,1.3,2.94,1.66,4.51.77,3.36-1.33,6.59-2.8,9.66a2.91,2.91,0,0,0-.4,1.74,5.86,5.86,0,0,0,.73,1.43,4.12,4.12,0,0,1,0,3.32Z"/><path class="cls-50" d="M258.2,119.19h6.21a40,40,0,0,1-.16-7.34c.21-2.78.69-5.69-.29-8.27-.5-1.31-1.35-2.44-1.9-3.73-2.74-6.41,2.49-14.79-1.09-20.7-1-1.57-2.42-2.71-3.45-4.22-2.16-3.15-2.16-7.36-3-11.15s-3.55-7.88-7.16-7.42a14.6,14.6,0,0,1,6.27,11.82c0,2.2-.42,4.48.25,6.57.93,3,3.83,4.72,5,7.56,1.86,4.4-.9,9.41-1,14.24-.08,5.94,3.93,11.77,2.26,17.43C259.66,115.71,258.66,117.48,258.2,119.19Z"/><path class="cls-50" d="M276.43,115.6c-.05-2.62-.71-6-3.14-6.33.78-5.4,1.39-11.53-1.82-15.78a14.28,14.28,0,0,1-1.5-2c-.9-1.78-.49-4-.13-6a20.92,20.92,0,0,0,.27-7.8c-.93-4.62-4.37-8.14-6.25-12.42-.92-2.13-1.47-4.44-2.56-6.47a11.67,11.67,0,0,0-11-6.16c4.51.35,8.56,4.3,9.32,9.08.31,2,.13,4,.78,5.84.71,2.05,2.32,3.55,3.56,5.28a16.53,16.53,0,0,1,2.89,11.24c-.26,2.37-1,4.75-.59,7.09.68,3.59,4,6.06,4.77,9.64.58,2.84-.6,5.81-.21,8.69.28,2.18,1.44,4.1,2.07,6.2a12.72,12.72,0,0,1,.49,3.48h3.1C276.46,118,276.44,116.8,276.43,115.6Z"/><path class="cls-50" d="M254.37,104.67c-.4-1.28-1.11-2.44-1.44-3.75-1.28-5.12,3.55-10.12,2.77-15.35-.35-2.35-1.78-4.33-2.68-6.51-1.57-3.85-1.42-8.22-2.06-12.37s-2.54-8.62-6.26-9.94c3.44,2.51,4.71,7.3,5.11,11.74s.25,9.06,1.86,13.18a32.74,32.74,0,0,1,1.75,4.46c1.44,6.23-4.45,12.33-3.24,18.62.24,1.24.75,2.41.92,3.67.36,2.67-.87,5.26-2,7.67a17.35,17.35,0,0,0-1.18,3.1h4.17C253,114.32,255.84,109.38,254.37,104.67Z"/><path class="cls-50" d="M280.1,105.57c-.54-1-1.33-1.8-1.8-2.82-1.58-3.44.92-7.68-.12-11.35A27,27,0,0,0,276,87.15c-1.19-2.43-1.4-5.25-2-7.93a27.39,27.39,0,0,0-4.77-10.56,36.84,36.84,0,0,1,2.65,13.88,15.08,15.08,0,0,0,.36,4.51,18.5,18.5,0,0,0,1.9,3.6,16.67,16.67,0,0,1,1.88,10.75,8,8,0,0,0-.2,2.61,8,8,0,0,0,1,2.26c2,3.86,2.16,8.46,2.12,12.92h1.94C280,114.69,282.29,109.54,280.1,105.57Z"/><path class="cls-51" d="M292.78,111.25c-2.12-1.52-4.8-3-7.07-1.78-.76.41-1.12.62-1.87,1a17,17,0,0,0-1.67,3.48,3.3,3.3,0,0,1-.51,1.05c-.78.92-2.17.55-3.32.37s-2.74.39-2.59,1.63c-2.08.61-4.23-.86-6.39-.75s-4.26,2-6.56,2.12c-3.69.2-7.08-4.13-10.55-2.73-1.29.52-2.24,1.77-3.53,2.3-3.14,1.3-6.44-2.1-9.79-1.72-2.32.27-4.24,2.33-6.57,2.48-.66,0-.9.4-1.37-.1,0,0,2.67-8.62,2.73-8.78l-4.36.06c-1.21,0-2.7.25-3.1,1.47-.19.58-.07,1.26-.35,1.8-.45.88-1.61.83-2.54.81a6.47,6.47,0,0,0-5.68,2.79c-1.19,1.95-.82,5,1.09,6.11,1,.57,2.3.71,2.76,1.79a6.77,6.77,0,0,1,.24,1.7c.3,2,2.42,3.13,4.28,3s3.52-1.24,5.17-2.19,3.49-1.8,5.32-1.45c1.3.25,2.44,1.08,3.71,1.49,3.94,1.3,8.15-1.63,12.23-.92,1.69.3,3.29,1.22,5,1.2,2.61,0,4.85-2.22,7.45-2.39,1.94-.12,3.76.88,5.6,1.52s4.1.84,5.51-.59c.43-.43.73-1,1.15-1.42a5.63,5.63,0,0,1,4.79-1.29,18.93,18.93,0,0,0,5.08.36,4,4,0,0,0,3.47-3.41c0-1-.42-2.2.1-3.07.8-1.32,3-.63,3.91-1.84S294.1,112.19,292.78,111.25Z"/><path class="cls-50" d="M231,118.64s.06-.17.15-.46l.05-.17.17-.56.07-.23,0,0,.19-.62,0-.14,0-.06c.35-1.11.76-2.46,1.13-3.65h0l.06-.18a1,1,0,0,0,0-.14l.25-.79c.1-.45.2-.82.26-1-.18.52-2.68.59-3.23.85-1.08.52-2.14,1.41-1.9,2.83a1,1,0,0,1,0,.48c-.1.32-.5.36-.82.4a2.77,2.77,0,0,0-2.18,1.43,1.28,1.28,0,0,0-.16.69c.06.69.66,1,.69,1.79s-.46,1.56-.1,2.31a1.3,1.3,0,0,0,.59.59,2,2,0,0,0,1.44.23c.88-.2,1.76-1.18,2.71-.94.6.14.73.66,1.17,1,1.45,1.22,3-1.31,4.69-.61a5.73,5.73,0,0,1,.75.45,3.06,3.06,0,0,0,3.39-.21,2.43,2.43,0,0,1,.63-.43,1.36,1.36,0,0,1,.93.07c.64.24,1.2.67,1.85.89,2.18.74,4.24-2.18,6.5-1.47.61.18,1.12.63,1.73.8,1.64.48,3.45-1.11,5-.34.67.34,1.16,1.09,1.9,1.17s1.5-.74,2.27-1.13c1.2-.61,2.6-.12,3.87.29a1.62,1.62,0,0,0,1.06.08,2.68,2.68,0,0,0,.81-.66c1.66-1.49,3.3.75,5,1.08a2.21,2.21,0,0,0,.85,0,3.55,3.55,0,0,0,1.17-.77,4,4,0,0,1,3.41-.74c1.32.33,2.09.75,3-.41s1.75-.4,3.09-.47a1.68,1.68,0,0,0,1.41-.64c.3-.48.23-1.18.62-1.57.91-.94,3.19.44,2.91-1.82-.09-.78-.81-1.11-.94-1.69s.65-.89.74-1.51c.13-1-1.11-1.65-1.7-2.12-.43-.34-.61-.85-1.19-.86-.05,0-.12,0-.19,0l-1.39.78a1.66,1.66,0,0,0-.3.43c-.16.28-.34.65-.53,1h0c-.26.56-.52,1.16-.69,1.6a3.86,3.86,0,0,0-.14.39,3.3,3.3,0,0,1-.51,1.05c-.78.92-2.17.55-3.32.37s-2.74.39-2.59,1.63c-2.08.61-4.23-.86-6.39-.75s-4.26,2-6.56,2.12a5.49,5.49,0,0,1-.81,0h0c-3.39-.38-6.53-4-9.74-2.7-1.29.52-2.24,1.77-3.53,2.3-3.14,1.3-6.44-2.1-9.79-1.72-2.32.27-4.24,2.33-6.57,2.48C231.7,118.78,231.46,119.14,231,118.64Z"/><path class="cls-18" d="M130.53,3A31.18,31.18,0,0,0,119,17.5c-2.83,8.27-3.26,20.81,1.76,28.18l1.45.29c-5.15-7.35-4.74-20-1.89-28.35A31.19,31.19,0,0,1,131.7,3.25Z"/><path class="cls-52" d="M287.27,100.68A1.54,1.54,0,1,1,285.73,99,1.6,1.6,0,0,1,287.27,100.68Z"/><path class="cls-53" d="M259.38,114a1.54,1.54,0,1,1-1.54-1.65A1.6,1.6,0,0,1,259.38,114Z"/><path class="cls-54" d="M226.7,102.33a1.54,1.54,0,1,1-1.54-1.65A1.6,1.6,0,0,1,226.7,102.33Z"/><path class="cls-55" d="M231.44,106.48a1.19,1.19,0,1,1-1.19-1.28A1.24,1.24,0,0,1,231.44,106.48Z"/><path class="cls-56" d="M221.57,110.3a1.19,1.19,0,1,1-1.18-1.28A1.23,1.23,0,0,1,221.57,110.3Z"/><path class="cls-57" d="M287.89,105.2a1.19,1.19,0,1,1-1.19-1.28A1.24,1.24,0,0,1,287.89,105.2Z"/><path class="cls-58" d="M276.81,109.83a1.42,1.42,0,1,1-1.41-1.52A1.47,1.47,0,0,1,276.81,109.83Z"/><path class="cls-59" d="M234.18,100.07a2.4,2.4,0,1,1-2.39-2.57A2.48,2.48,0,0,1,234.18,100.07Z"/><path class="cls-60" d="M294.36,105.43a2.4,2.4,0,1,1-2.39-2.57A2.49,2.49,0,0,1,294.36,105.43Z"/><ellipse class="cls-61" cx="251.5" cy="107.83" rx="2.4" ry="2.57"/><path class="cls-62" d="M268.18,106.48a2.4,2.4,0,1,1-2.39-2.58A2.48,2.48,0,0,1,268.18,106.48Z"/><path class="cls-63" d="M248.84,112.31a1.12,1.12,0,1,1-1.12-1.2A1.16,1.16,0,0,1,248.84,112.31Z"/><path class="cls-64" d="M240.54,107.2a1.57,1.57,0,1,1-1.57-1.68A1.62,1.62,0,0,1,240.54,107.2Z"/><path class="cls-43" d="M142,78.34,7.27,51.11C-.19,46.46-1.16,33.1,1,24.55c1.6-6.23,8.2-15.32,15.12-16.14L150,34.34Z"/><path class="cls-43" d="M142,78.34,7.27,51.11C-.19,46.46-1.16,33.1,1,24.55c1.6-6.23,8.2-15.32,15.12-16.14L150,34.34Z"/><path class="cls-44" d="M120.62,28.65,99.24,24.51c-5.65,3.3-10.41,10.58-11.79,15.93C85.2,49.2,86,62.56,92.81,68.4l19.3,3.9c-6-6.21-6.61-18.74-4.47-27.09C109.11,39.48,114.45,31.56,120.62,28.65Z"/><path class="cls-18" d="M97.62,69.37c-6-6.78-6.56-19.76-4.32-28.46a31.73,31.73,0,0,1,10.45-15.53l-1.08-.21A31.73,31.73,0,0,0,92,40.91c-2.2,8.57-1.65,21.28,4.07,28.14Z"/><path class="cls-18" d="M107.6,71.34c-6-6.78-6.55-19.76-4.32-28.47a31.73,31.73,0,0,1,10.46-15.52l-1.08-.21A31.78,31.78,0,0,0,102,42.87C99.75,51.45,100.3,64.16,106,71Z"/><path class="cls-44" d="M37.86,12.61l-9.31-1.8c-6.09,3-11.35,10.81-12.81,16.48-2.05,8-1.55,19.86,3.76,26.29l7.68,1.56C23.21,48,23,37.31,24.94,29.78,26.43,24,31.68,16,37.86,12.61Z"/><path class="cls-45" d="M140.75,58.68C115.73,52.27,7.66,30.28.46,27.35c-1,6.3-.44,14.13,2.71,19.42l0,0L138,74Z"/><path class="cls-46" d="M161,59.62c-2.3,12.11-11,20.44-19.36,18.6s-13.31-13.15-11-25.27S141.6,32.5,150,34.34,163.31,47.5,161,59.62Z"/><path class="cls-47" d="M145.39,63a20.92,20.92,0,0,1-15.25-6c-.66,10.52,4.05,19.64,11.5,21.27C150,80.06,158.7,71.73,161,59.62a31.67,31.67,0,0,0,.46-3.55A20.86,20.86,0,0,1,145.39,63Z"/><path class="cls-18" d="M157.91,58.94c-1.84,9.64-8.56,16.32-15,14.9s-10.21-10.39-8.37-20,8.56-16.33,15-14.91S159.74,49.29,157.91,58.94Z"/><path class="cls-65" d="M166.59,65.81a61.76,61.76,0,0,0-8.65-7.18c-6.59-3.47-18.26-3.05-23.69-2.63a22.76,22.76,0,0,0,1.29,10.75c.07.15.14.29.2.44a15.78,15.78,0,0,0,.92,1.73c.21.35.42.66.62.94a11.79,11.79,0,0,0,1.26,1.53l.12.12.19.18c1.83,1.85,1.21,4.4,1.45,10,.94,21.11-8.42,45.92-8.42,45.92H185C186.45,101.84,176.2,78.12,166.59,65.81Z"/><path class="cls-66" d="M166.59,65.81a61.76,61.76,0,0,0-8.65-7.18c-6.59-3.47-18.26-3.05-23.69-2.63a22.76,22.76,0,0,0,1.29,10.75c.07.15.14.29.2.44a15.78,15.78,0,0,0,.92,1.73c.21.35.42.66.62.94a11.79,11.79,0,0,0,1.26,1.53l.12.12.19.18c1.83,1.85,1.21,4.4,1.45,10,.94,21.11-8.42,45.92-8.42,45.92H185C186.45,101.84,176.2,78.12,166.59,65.81Z"/><path class="cls-50" d="M182.94,116.28a.93.93,0,0,0-.44.51,20.82,20.82,0,0,0-.89,2c-.52-.7-1.3-1.49-2.08-1.15s-.83,1.28-.9,2.09-.31,1.8-1,2-1.12-.38-1.54-.84l-1.42-1.56c-.17-.18-.37-.38-.6-.37a.73.73,0,0,0-.47.28c-.94,1.09-1,3.22-2.35,3.44-1.06.18-2-1.12-3-.9a5.79,5.79,0,0,0-1.33.78,2.15,2.15,0,0,1-3-1.7l-2.42,1.57a.68.68,0,0,1-.44.16c-.25,0-.41-.3-.5-.56-.41-1.1-.71-2.53-1.79-2.81-.92-.24-1.75.57-2.45,1.26s-1.73,1.35-2.53.79c-.27-.18-.45-.48-.72-.67a1.73,1.73,0,0,0-1.93.15c-.59.37-1.07.92-1.65,1.3a1,1,0,0,1-.77.21c-.49-.13-.64-.79-1-1.12s-1.35-.19-2,.18-1.26.84-1.94.67-.91-.62-1.36-1a2.94,2.94,0,0,0-3.8.21,1,1,0,0,1-.48.33c-.35.06-.61-.32-.76-.67-.33-.77-1-3.36-2.17-2.64-.84.5-1.17,3.08-1.45,4-.12.39-1.47,5.43-1.84,5.43H185a92.67,92.67,0,0,0,0-10.14c-.06,0-.1.06-.16.06C184,117.49,183.66,116,182.94,116.28Z"/><path class="cls-50" d="M145,127.6l.39-3.95a39.42,39.42,0,0,1,1.32-7.89c.73-2.36,1.92-4.84,1.19-7.21-.35-1.15-1.13-2.11-1.44-3.27-.83-3.09,1.83-5.89,2.66-9,1.28-4.73-1.85-9.58-1.72-14.5.05-1.86.57-3.68.64-5.55a11,11,0,0,0-6.7-10.46,14.38,14.38,0,0,1,3.78,12.42c-.39,2.21-1.29,4.47-.7,6.62a17.09,17.09,0,0,0,1.31,2.81,11.69,11.69,0,0,1,.67,8.27c-1.11,3.76-4.14,7.19-3.32,11,.34,1.58,1.31,2.94,1.67,4.51.77,3.36-1.34,6.58-2.81,9.66a2.83,2.83,0,0,0-.39,1.74,5.49,5.49,0,0,0,.72,1.43,4.08,4.08,0,0,1,0,3.32Z"/><path class="cls-50" d="M159.39,127.6h6.22a39.24,39.24,0,0,1-.17-7.35c.21-2.78.7-5.69-.29-8.27-.5-1.31-1.34-2.43-1.89-3.72-2.75-6.41,2.48-14.79-1.1-20.71-.95-1.57-2.42-2.71-3.45-4.22-2.16-3.14-2.15-7.35-3-11.15s-3.56-7.87-7.17-7.42a14.6,14.6,0,0,1,6.27,11.82c0,2.21-.41,4.49.25,6.57.94,2.95,3.83,4.73,5,7.57,1.86,4.4-.9,9.4-1,14.24-.08,5.94,3.94,11.77,2.26,17.43C160.86,124.11,159.85,125.89,159.39,127.6Z"/><path class="cls-50" d="M177.62,124c0-2.63-.71-6.05-3.14-6.34.78-5.4,1.39-11.53-1.82-15.77a14.37,14.37,0,0,1-1.5-2.05c-.9-1.78-.48-4-.12-5.95a20.87,20.87,0,0,0,.26-7.79c-.92-4.63-4.37-8.15-6.24-12.43-.93-2.12-1.47-4.44-2.57-6.47a11.68,11.68,0,0,0-11-6.16c4.51.36,8.55,4.3,9.31,9.09.31,1.94.14,4,.78,5.84.72,2,2.33,3.55,3.57,5.28A16.51,16.51,0,0,1,168,92.49c-.26,2.37-1,4.75-.59,7.09.68,3.6,4,6.06,4.77,9.65.59,2.84-.59,5.8-.21,8.68.29,2.18,1.44,4.11,2.07,6.2a13.26,13.26,0,0,1,.5,3.49h3.09C177.65,126.4,177.64,125.21,177.62,124Z"/><path class="cls-50" d="M155.56,113.08c-.4-1.28-1.1-2.45-1.43-3.75-1.28-5.12,3.54-10.12,2.76-15.36-.35-2.35-1.78-4.32-2.67-6.5-1.58-3.85-1.43-8.23-2.07-12.38s-2.53-8.62-6.25-9.93c3.44,2.51,4.7,7.29,5.11,11.74s.24,9.06,1.85,13.18a32.74,32.74,0,0,1,1.75,4.46c1.45,6.23-4.45,12.33-3.24,18.61.24,1.25.75,2.42.92,3.67.36,2.68-.87,5.27-2,7.68a16.11,16.11,0,0,0-1.18,3.1h4.16C154.16,122.73,157,117.79,155.56,113.08Z"/><path class="cls-50" d="M181.29,114c-.54-1-1.33-1.8-1.8-2.83-1.57-3.44.93-7.67-.12-11.34a26.58,26.58,0,0,0-2.17-4.25c-1.19-2.43-1.4-5.26-2-7.93a27.5,27.5,0,0,0-4.76-10.57A37.33,37.33,0,0,1,173.11,91a14.79,14.79,0,0,0,.35,4.51,19,19,0,0,0,1.9,3.59,16.69,16.69,0,0,1,1.89,10.75,8,8,0,0,0-.2,2.62,7.86,7.86,0,0,0,1,2.25c2,3.86,2.17,8.47,2.12,12.93h1.94C181.17,123.09,183.48,117.94,181.29,114Z"/><path class="cls-67" d="M194,119.65c-2.11-1.51-4.8-3-7.07-1.77-.75.41-1.12.61-1.86,1a16.3,16.3,0,0,0-1.68,3.47,3.07,3.07,0,0,1-.51,1.06c-.78.92-2.16.55-3.31.37s-2.75.39-2.6,1.63c-2.08.6-4.22-.87-6.38-.75s-4.27,2-6.56,2.11c-3.7.21-7.09-4.13-10.55-2.73-1.3.53-2.24,1.77-3.53,2.31-3.15,1.3-6.45-2.11-9.8-1.72-2.32.27-4.24,2.32-6.57,2.47-.65,0-.9.41-1.36-.09,0,0,2.66-8.63,2.73-8.78l-4.36.06c-1.21,0-2.71.24-3.11,1.47-.19.58-.06,1.26-.34,1.8-.46.87-1.61.83-2.55.81a6.42,6.42,0,0,0-5.67,2.79c-1.2,1.94-.83,5,1.08,6.11,1,.56,2.31.71,2.76,1.78a6.48,6.48,0,0,1,.24,1.71c.3,2,2.43,3.12,4.29,3s3.52-1.25,5.16-2.2,3.49-1.8,5.33-1.45a30.82,30.82,0,0,1,3.7,1.5c4,1.29,8.16-1.63,12.23-.92,1.69.3,3.29,1.21,5,1.19,2.61,0,4.85-2.21,7.46-2.38,1.93-.13,3.75.87,5.6,1.51s4.09.84,5.5-.59c.43-.43.74-1,1.15-1.41,1.21-1.29,3.1-1.47,4.79-1.3a19.41,19.41,0,0,0,5.08.37,4,4,0,0,0,3.47-3.42c.05-1-.42-2.19.11-3.07.79-1.31,3-.62,3.9-1.84S195.3,120.6,194,119.65Z"/><path class="cls-50" d="M132.19,127.05l.14-.46,0-.18.18-.56.07-.22v0c.06-.19.13-.41.19-.62l0-.14v-.06c.35-1.12.77-2.47,1.13-3.65h0l.05-.19,0-.14c.08-.28.17-.54.24-.79.11-.45.2-.82.26-1-.17.51-2.67.58-3.23.85-1.07.52-2.13,1.41-1.9,2.82a1,1,0,0,1,0,.48c-.1.33-.51.37-.83.4a2.77,2.77,0,0,0-2.17,1.44,1.25,1.25,0,0,0-.17.68c.06.69.67,1,.7,1.8s-.47,1.55-.11,2.3a1.48,1.48,0,0,0,.59.6,2,2,0,0,0,1.44.22c.89-.19,1.76-1.17,2.71-.94.6.15.74.67,1.17,1,1.46,1.21,3-1.31,4.7-.61a6.26,6.26,0,0,1,.74.44,3,3,0,0,0,3.39-.21,2.77,2.77,0,0,1,.63-.42,1.31,1.31,0,0,1,.93.07c.64.23,1.21.67,1.85.89,2.18.73,4.24-2.18,6.51-1.48.6.19,1.11.63,1.72.81,1.64.47,3.45-1.12,5-.34.66.34,1.16,1.09,1.89,1.17s1.5-.75,2.27-1.14c1.2-.61,2.6-.12,3.87.29a1.65,1.65,0,0,0,1.07.09,3.13,3.13,0,0,0,.81-.66c1.65-1.5,3.29.74,5,1.07a1.88,1.88,0,0,0,.85,0,3.54,3.54,0,0,0,1.18-.77,4,4,0,0,1,3.4-.73c1.33.33,2.09.74,3-.42s1.75-.4,3.09-.46a1.71,1.71,0,0,0,1.41-.65c.3-.48.23-1.17.62-1.57.92-.94,3.19.44,2.92-1.82-.1-.77-.82-1.11-1-1.69s.65-.88.74-1.51c.13-1-1.11-1.64-1.7-2.11-.42-.34-.6-.86-1.18-.86a.67.67,0,0,0-.19,0c-.47.25-.82.45-1.39.78a1.28,1.28,0,0,0-.31.43c-.15.27-.34.64-.53,1.05h0c-.26.55-.52,1.15-.7,1.6-.06.14-.1.28-.14.38a3.07,3.07,0,0,1-.51,1.06c-.78.92-2.16.55-3.31.37s-2.75.39-2.6,1.63c-2.08.6-4.22-.87-6.38-.75s-4.27,2-6.56,2.11a4.47,4.47,0,0,1-.82,0h0c-3.38-.38-6.52-4-9.73-2.7-1.3.53-2.24,1.77-3.53,2.31-3.15,1.3-6.45-2.11-9.8-1.72-2.32.27-4.24,2.32-6.57,2.47C132.9,127.19,132.65,127.55,132.19,127.05Z"/><path class="cls-18" d="M31.72,11.42A31.32,31.32,0,0,0,20.2,25.91C17.38,34.18,17,46.71,22,54.08l1.44.29C18.26,47,18.68,34.36,21.52,26A31.32,31.32,0,0,1,32.9,11.65Z"/><path class="cls-68" d="M124.71,118.09a1.54,1.54,0,1,1-1.54-1.65A1.6,1.6,0,0,1,124.71,118.09Z"/><path class="cls-69" d="M127.09,113.26A1.19,1.19,0,1,1,125.9,112,1.24,1.24,0,0,1,127.09,113.26Z"/><path class="cls-70" d="M199.71,116.15a1.19,1.19,0,1,1-1.19-1.28A1.24,1.24,0,0,1,199.71,116.15Z"/><path class="cls-71" d="M193.29,113.56a1.85,1.85,0,1,1-1.85-2A1.92,1.92,0,0,1,193.29,113.56Z"/><ellipse class="cls-72" cx="134.28" cy="104.24" rx="1.19" ry="1.28"/><path class="cls-73" d="M188.68,105.26a1.19,1.19,0,1,1-1.19-1.28A1.23,1.23,0,0,1,188.68,105.26Z"/><path class="cls-74" d="M160.42,120.81a1.19,1.19,0,1,1-1.19-1.28A1.23,1.23,0,0,1,160.42,120.81Z"/><path class="cls-75" d="M140.36,115.16a1.19,1.19,0,1,1-1.19-1.28A1.24,1.24,0,0,1,140.36,115.16Z"/><path class="cls-76" d="M168.37,114.29a1.19,1.19,0,1,1-1.19-1.28A1.24,1.24,0,0,1,168.37,114.29Z"/><path class="cls-77" d="M183.46,117.92a1.19,1.19,0,1,1-1.19-1.28A1.23,1.23,0,0,1,183.46,117.92Z"/><path class="cls-78" d="M182.27,110.91a1.54,1.54,0,1,1-1.54-1.65A1.6,1.6,0,0,1,182.27,110.91Z"/><path class="cls-79" d="M134.28,112.21a2.4,2.4,0,1,1-2.4-2.58A2.49,2.49,0,0,1,134.28,112.21Z"/><path class="cls-80" d="M195.12,103.25a2.4,2.4,0,1,1-2.39-2.57A2.48,2.48,0,0,1,195.12,103.25Z"/><path class="cls-81" d="M175.46,117.17a1.5,1.5,0,1,1-1.49-1.6A1.55,1.55,0,0,1,175.46,117.17Z"/><path class="cls-82" d="M154.11,116.54a1.73,1.73,0,1,1-1.73-1.85A1.79,1.79,0,0,1,154.11,116.54Z"/><path class="cls-83" d="M143.13,119.19a1.51,1.51,0,1,1-1.5-1.61A1.56,1.56,0,0,1,143.13,119.19Z"/></g></g></svg>