<svg xmlns="http://www.w3.org/2000/svg" viewBox="0 0 395 261.88"><defs><style>.cls-1{isolation:isolate;}.cls-2{fill:#d3d3d3;}.cls-11,.cls-13,.cls-15,.cls-19,.cls-22,.cls-3,.cls-7,.cls-8{mix-blend-mode:multiply;}.cls-4{fill:#999893;}.cls-5{fill:#7d7d77;}.cls-11,.cls-6,.cls-7,.cls-8{fill:#b6b3ad;}.cls-7{opacity:0.6;}.cls-25,.cls-8{opacity:0.3;}.cls-9{fill:#8a8a83;}.cls-10{fill:#797975;}.cls-12{fill:#693219;}.cls-13,.cls-15,.cls-16,.cls-17,.cls-18{fill:#813d22;}.cls-13,.cls-19,.cls-26{opacity:0.5;}.cls-14{fill:#4b290b;}.cls-14,.cls-17,.cls-18,.cls-21,.cls-25,.cls-26{mix-blend-mode:screen;}.cls-15{opacity:0.8;}.cls-17,.cls-22{opacity:0.4;}.cls-19{fill:#602d15;}.cls-20{fill:#955328;}.cls-21,.cls-22{fill:#ad5f31;}.cls-23{fill:#c38e60;}.cls-24,.cls-25{fill:#fac57b;}.cls-26,.cls-36{fill:#fff;}.cls-27{fill:#2a3967;}.cls-28{fill:#ffae73;}.cls-29{fill:#003b7e;}.cls-30{fill:#233862;}.cls-31{fill:#ff9843;}.cls-32{fill:#f99352;}.cls-33{fill:#fc7600;}.cls-34{fill:#25468f;}.cls-35{fill:#f9924f;}</style></defs><g class="cls-1"><g id="Layer_1" data-name="Layer 1"><path class="cls-2" d="M82.24,164c-.29,42.55.08,81.67.08,81.67,0,8.63,45.85,15.73,102.45,15.86s102.5-6.74,102.52-15.36c.59-6.45.46-46.69.37-80.92Z"/><path class="cls-2" d="M186.42,261.88h-1.65c-57.67-.14-102.83-7.26-102.8-16.22,0-.38-.37-39.61-.08-81.67a.35.35,0,0,1,.35-.35h0l205.43,1.24a.36.36,0,0,1,.35.36v5.62c.08,32.44.18,69.21-.39,75.33C287.62,255,243.16,261.88,186.42,261.88ZM82.59,164.35c-.28,41.92.08,80.92.08,81.31,0,8.28,46.74,15.37,102.1,15.51h1.65c27,0,52.34-1.59,71.31-4.47,18.56-2.83,29.2-6.67,29.21-10.54.56-6.12.47-42.87.39-75.3l0-5.27Z"/><g class="cls-3"><path class="cls-2" d="M100.66,178.62c-3.73-.63-7.56-1.18-11-2.91-2.66-1.35-5.16-3-7.79-4.37.64.34,0,8.43,0,9.4,0,3.51-.06,7,0,10.54,0,3.74.07,7.48,0,11.22-.07,3-.69,6.82.5,9.66s5.61,3.38,8.31,4.13c6.57,1.82,15.85,4.42,21.16-1.63,3.29-3.76,4.54-8.77,6.65-13.21s5.76-8,7.13-12.83a44.55,44.55,0,0,0,1.3-7.77C118.14,180.47,109.33,180.08,100.66,178.62Z"/><path class="cls-2" d="M115.05,216.71c.12,1.92,1.46,3.43,5.09,4.11,4.39.82,11.72,3.68,15.73.75,5.44-4-.91-13.51-2.79-17.75-.79-1.79-4.44-12.91-7.83-7.4-2.37,3.87-4.56,7.83-6.81,11.77C116.76,211.14,114.91,214.26,115.05,216.71Z"/><path class="cls-2" d="M179.12,185.66c-1.49-1.31-3.62-1.94-5.55-3-9.6.18-19.23,0-28.82-.28-3.11-.09-10.26-2.27-12.89-.08-6.2,5.18,3.2,13.15,5.24,17.21a52.71,52.71,0,0,1,3.59,9.28c1.29,4.53,1.47,9.26,5.89,11.86,4.87,2.85,11.35,2.62,16.76,3.4,14.17,2,15.77-17.35,16.84-27.08.29-2.67,1.29-5.61.69-8.3A5.45,5.45,0,0,0,179.12,185.66Z"/><path class="cls-2" d="M197.23,215.38c-.07-.14-.15-.28-.23-.42-2.07-3.72-6-7.73-10.61-6.6-3.51.86-4.58,3.9-5.48,7.08-.5,1.79-3.27,7.47-1.66,8.73s7.31-.46,9.23-.65C195.23,222.85,201.38,223.21,197.23,215.38Z"/><path class="cls-2" d="M227.31,209.15a55.72,55.72,0,0,0-.35-7c-.48-4.79,2.6-19.92-2.37-22.78-2.2-1.26-7.58.65-10,.8-3.57.24-7.14.42-10.71.66-6.21.41-13,0-19.11,1.27-1.85.37-.23,12.9.21,14.47,2.18,7.91,9.87,11.88,14.8,17.79a20,20,0,0,0,17,7.48C225,221.52,227.13,215.67,227.31,209.15Z"/><path class="cls-2" d="M287.18,197.91a31.24,31.24,0,0,0-3.09-6.58c-3.23-5.42-9.64-12.69-10.45-19.08-3.82,2.47-11.85,24.56-14.5,28.75-1.95,3.07-5.46,6.95-5.52,10.77-.07,4.76,9.47,3.94,12.13,3.65,6.7-.74,13.54-2.72,18.87-7C288.19,205.53,288.33,201.67,287.18,197.91Z"/><path class="cls-2" d="M287.2,189.17c1.06-1,1.16-4.38,1.18-5.35.11-4.28-.32-8.55-.43-12.83a13.7,13.7,0,0,0-.11-2.07H281.6c-1.72.58-3.4,1.16-5,1.64a72.85,72.85,0,0,0,4.06,10.75c1.26,2.56,2.53,6,4.88,7.75C286.27,189.6,286.81,189.55,287.2,189.17Z"/><path class="cls-2" d="M264.89,176.64c0-.31,0-.61,0-.91-5.19-.84-13.06,2.38-18.46,3.15s-11.07,1.41-16.62,1.94c-2.37.75,1.52,27.74,1.6,30.63.3,12.06,14.09,5.33,18.18-.26,3.63-4.94,5.61-10.95,8.64-16.27C261.44,189.29,264.72,183.32,264.89,176.64Z"/><path class="cls-2" d="M92.58,242.3c.78-1.46.74-3.28,1.23-4.94.55-1.9,1.19-3.83,1.69-5.78.18-.8.36-1.61.53-2.42a15.07,15.07,0,0,0-.38-7.77,8.17,8.17,0,0,0-2.33-2.32c-1.62-1-3.66-1.06-5.44-1.7-2.12-.75-5.34-3-7-.45-2.21,3.45-.46,8.27.22,11.94.6,3.27-.49,6.77-.16,10.08.53,5.29,7.3,8.38,11,4.21A3.88,3.88,0,0,0,92.58,242.3Z"/><path class="cls-2" d="M192.65,228.93c-3.37-3.8-9.73-2.14-14-1.21a47.31,47.31,0,0,1-19.79,0c-7.35-1.45-6.91,6.7-6.48,11.47.55,6,.57,12.94,6.1,16.6,3.89,2.58,7.79,1.52,12.08,1.59,3.74.06,7.48,0,11.22-.05,3.06-.07,6.8.18,9.58-1.43,3.4-2,3-5.62,2.75-9.1-.36-5,2.07-12.47-.73-16.95A8.63,8.63,0,0,0,192.65,228.93Z"/><path class="cls-2" d="M218.67,226.35c-1.75-2.14-4.65-1.57-7.33-1.39-6,.41-15.47-.55-15,7.93.36,6.57,1,13.14,1.39,19.72.51,1.12,1,2.24,1.52,3.37,2.93,1.27,6.88,1.13,9.71,1,3.68-.19,7.83.46,11.13-1.64,4.14-2.65,2.92-8.24,2.1-12.3a69.23,69.23,0,0,1-1.5-7.93c-.2-2.55-.25-5.39-1.39-7.74A5.7,5.7,0,0,0,218.67,226.35Z"/><path class="cls-2" d="M256.21,221.67c-2.75-3.72-8.32-2.68-12.42-1.94-4.87.89-9.25,3.49-14.15,4.27-6.15,1-7.45,1.7-6.71,8.14.64,5.67,2.29,11.2,3.8,16.68,2.85,10.28,12.79,7.67,21.06,5.49,1.22-.32,4-.58,4.93-1.45,2.43-2.28,2.26-10.47,2.75-13.59.8-5.13,3.84-11.22,1.45-16.38A7.52,7.52,0,0,0,256.21,221.67Z"/><path class="cls-2" d="M285.26,213.55c-3.15-.41-7.83,3-10.85,3.54-4.32.81-11.18-.48-13.21,4.24-.37,1.73-.43,3.59-.72,5.36-.94,5.74-2.54,11.46-2.55,17.34,0,5,2.36,5.76,6.61,4.38,4.54-1.47,9.06-3,13.73-4.22,3.14-.84,6.68-1.89,8.84-4.52,2.65-3.21,1.61-6.89,1.55-10.73S291.09,214.31,285.26,213.55Z"/><path class="cls-2" d="M147.91,239.73c-.3-3.29-.12-7.06-.23-10.77a4.05,4.05,0,0,0-1.86-2.71,10.31,10.31,0,0,0-2.42-.9,73.13,73.13,0,0,1-10.57,0c-9.18-.86-18.17-3.2-27.31-4.3a14.38,14.38,0,0,0-4.81,3c-.47,3.12-1.23,6.21-1.76,9.36-.66,3.9-1.27,7.79-1.8,11.68a17.35,17.35,0,0,0,2.49,5.52c.11.13.21.28.33.41.83.34,1.65.68,2.49,1,9.71,3.58,18.92,2.27,29,2.41a123.31,123.31,0,0,1,14.62,1.32,4.6,4.6,0,0,0,2.14-1.71,13,13,0,0,0,1.22-2.55C148.84,247.55,148.28,243.66,147.91,239.73Z"/></g><path class="cls-2" d="M99.52,177.3c-3.79-.62-7.69-1.18-11.17-2.91-2.71-1.34-5.26-3-7.94-4.36.65.34,0,8.43,0,9.4,0,3.51,0,7,0,10.54.05,3.74.08,7.48,0,11.22-.07,3-.69,6.82.51,9.65s5.71,3.39,8.46,4.14c6.7,1.81,16.15,4.42,21.55-1.63,3.35-3.76,4.62-8.78,6.78-13.22s5.86-8,7.25-12.82a42.81,42.81,0,0,0,1.33-7.77C117.32,179.16,108.35,178.77,99.52,177.3Z"/><path class="cls-2" d="M101.3,217.48h0c-4.09,0-8.44-1.18-11.93-2.13l-.12,0c-.48-.13-1-.25-1.58-.38-2.68-.61-6-1.36-7.11-4-1-2.28-.8-5.17-.64-7.72,0-.72.08-1.42.1-2.08.08-3.72,0-7.42,0-11.21,0-3.58,0-7.28,0-10.55,0-.21,0-.75.08-1.49.11-1.91.41-7,.07-7.62a.37.37,0,0,1-.1-.44.35.35,0,0,1,.48-.15h0c1.25.64,2.48,1.35,3.68,2,1.38.79,2.81,1.61,4.26,2.33,3.18,1.58,6.79,2.17,10.27,2.74l.8.14c9,1.48,18,1.86,26.69,2.22a.36.36,0,0,1,.25.13.35.35,0,0,1,.08.26,43.35,43.35,0,0,1-1.34,7.84,28,28,0,0,1-4.18,7.82,40.25,40.25,0,0,0-3.09,5.06c-.65,1.32-1.22,2.73-1.78,4.09-1.31,3.21-2.67,6.53-5.06,9.2S105.59,217.48,101.3,217.48ZM81,170.73a52.2,52.2,0,0,1-.16,7.25c0,.71-.07,1.24-.08,1.45,0,3.26,0,6.95,0,10.53,0,3.79.08,7.51,0,11.24,0,.66-.06,1.38-.11,2.11-.15,2.47-.32,5.27.59,7.4s4.09,3,6.61,3.54c.57.13,1.12.25,1.61.39l.12,0c3.45.93,7.76,2.1,11.75,2.1h0c4.08,0,7.13-1.2,9.33-3.66s3.64-5.84,4.93-9c.56-1.37,1.14-2.78,1.79-4.13a42.62,42.62,0,0,1,3.14-5.15,27.62,27.62,0,0,0,4.09-7.62,41,41,0,0,0,1.28-7.33,217.49,217.49,0,0,1-26.39-2.23l-.81-.13c-3.53-.58-7.19-1.18-10.47-2.81-1.46-.73-2.9-1.55-4.29-2.35C83,171.82,82,171.26,81,170.73Z"/><path class="cls-2" d="M113.59,216c.12,1.93,1.49,3.44,5.19,4.12,4.46.82,11.93,3.68,16,.75,5.54-4-.93-13.51-2.84-17.76-.8-1.78-4.52-12.9-8-7.39-2.42,3.86-4.65,7.82-6.94,11.77C115.33,210.4,113.45,213.53,113.59,216Z"/><path class="cls-2" d="M130,222.48h0a36,36,0,0,1-8.16-1.34c-1.12-.28-2.18-.54-3.1-.7-3.54-.66-5.33-2.11-5.47-4.44s1.6-5.45,3.28-8.35l.21-.37c.5-.86,1-1.72,1.49-2.58,1.75-3,3.56-6.17,5.46-9.2a2.9,2.9,0,0,1,2.33-1.68c2.61,0,4.83,5.54,5.89,8.21l.37.91c.32.69.74,1.51,1.24,2.47,2.53,4.86,6.36,12.22,1.48,15.71A8.3,8.3,0,0,1,130,222.48Zm-4-27.95c-.59,0-1.17.45-1.73,1.35-1.89,3-3.7,6.15-5.44,9.17-.5.87-1,1.72-1.49,2.59l-.22.36c-1.63,2.81-3.32,5.71-3.18,7.95.11,2,1.71,3.2,4.89,3.79.94.17,2,.43,3.14.71a35.49,35.49,0,0,0,8,1.33h0a7.73,7.73,0,0,0,4.61-1.23c4.38-3.14.72-10.17-1.7-14.82-.5-1-.93-1.79-1.25-2.5l-.39-.94C130.4,200.17,128.14,194.53,126,194.53Z"/><path class="cls-2" d="M178.43,184.55c-1.51-1.32-3.68-2-5.64-3-9.78.18-19.58,0-29.35-.28-3.17-.09-10.45-2.27-13.13-.08-6.31,5.18,3.26,13.15,5.34,17.21a53,53,0,0,1,3.66,9.28c1.3,4.53,1.49,9.26,6,11.86,4.95,2.85,11.55,2.62,17.06,3.4,14.43,2,16.06-17.35,17.14-27.08.3-2.67,1.32-5.61.71-8.3A5.32,5.32,0,0,0,178.43,184.55Z"/><path class="cls-2" d="M164.41,223.41h0a15.12,15.12,0,0,1-2.09-.15c-1.4-.2-2.84-.33-4.37-.46-4.45-.4-9.06-.82-12.82-3s-4.6-5.7-5.49-9.44c-.21-.86-.42-1.76-.67-2.63a52.32,52.32,0,0,0-3.64-9.22,25.75,25.75,0,0,0-2.49-3.54c-3.29-4.21-7.78-10-2.75-14.11a6.43,6.43,0,0,1,4.09-1,39.51,39.51,0,0,1,5.82.62,29.9,29.9,0,0,0,3.44.43c6.34.18,13.85.36,21.5.36,2.71,0,5.34,0,7.84-.07a.28.28,0,0,1,.18,0c.69.38,1.42.71,2.12,1a14.58,14.58,0,0,1,3.59,2,5.7,5.7,0,0,1,1.89,3.17,14.92,14.92,0,0,1-.31,6c-.15.84-.3,1.63-.39,2.41l-.11,1C178.73,206.15,176.84,223.41,164.41,223.41Zm-30.23-42.87a5.73,5.73,0,0,0-3.64.89c-4.5,3.69-.42,8.92,2.85,13.13a25.19,25.19,0,0,1,2.57,3.65,53.7,53.7,0,0,1,3.69,9.34c.25.89.47,1.79.68,2.67.85,3.58,1.66,7,5.15,9s8.16,2.5,12.54,2.89c1.53.14,3,.27,4.4.47a13.74,13.74,0,0,0,2,.15c11.8,0,13.58-16.22,14.64-25.91l.11-1c.09-.8.25-1.65.4-2.46a14.47,14.47,0,0,0,.31-5.72,5,5,0,0,0-1.67-2.8,14,14,0,0,0-3.41-1.93c-.69-.31-1.4-.63-2.09-1-2.47,0-5.08.06-7.76.06-7.66,0-15.17-.18-21.51-.35a30.15,30.15,0,0,1-3.54-.44A39.83,39.83,0,0,0,134.18,180.54Z"/><path class="cls-2" d="M196.88,214.26c-.07-.14-.15-.28-.23-.42-2.12-3.72-6.12-7.73-10.81-6.6-3.57.87-4.67,3.91-5.57,7.08-.52,1.79-3.34,7.47-1.7,8.73s7.44-.46,9.4-.65C194.84,221.73,201.11,222.09,196.88,214.26Z"/><path class="cls-2" d="M180.51,223.83h0a3.51,3.51,0,0,1-2.15-.5c-1.48-1.13-.08-4.77.95-7.42.27-.7.5-1.3.62-1.69,1-3.35,2.12-6.43,5.82-7.32a7.13,7.13,0,0,1,1.71-.2c5.14,0,8.57,5.33,9.5,7l.23.43c1.42,2.63,1.77,4.55,1.05,5.87-1.09,2-4.41,2.3-8.26,2.62l-2,.18c-.49,0-1.26.19-2.15.36A32.64,32.64,0,0,1,180.51,223.83Zm7-16.43a6.24,6.24,0,0,0-1.54.19c-3.33.8-4.38,3.56-5.31,6.83-.13.42-.36,1-.64,1.74-.78,2-2.24,5.8-1.18,6.61a2.86,2.86,0,0,0,1.72.35h0a31.52,31.52,0,0,0,5.21-.7c.91-.17,1.69-.32,2.21-.37.68-.07,1.34-.12,2-.17,3.64-.31,6.79-.57,7.7-2.26.59-1.09.25-2.79-1.05-5.19l-.23-.42C194.52,210.82,191.24,207.4,187.46,207.4Z"/><path class="cls-2" d="M227.51,207.45a55.72,55.72,0,0,0-.35-7c-.5-4.79,2.64-19.92-2.42-22.78-2.24-1.26-7.72.65-10.21.8-3.64.23-7.28.42-10.91.66-6.33.4-13.23,0-19.46,1.27-1.89.37-.23,12.91.21,14.47,2.23,7.91,10.06,11.88,15.07,17.79a20.51,20.51,0,0,0,17.32,7.48C225.18,219.82,227.33,214,227.51,207.45Z"/><path class="cls-2" d="M215.67,220.55h0a20.76,20.76,0,0,1-16.5-7.63,55.42,55.42,0,0,0-5.6-5.44c-3.94-3.49-8-7.11-9.54-12.48-.34-1.22-1.93-12.22-.56-14.44a1,1,0,0,1,.62-.48,78.43,78.43,0,0,1,13.16-1c2.1,0,4.28-.1,6.35-.23s3.84-.24,5.76-.35l5.14-.31a26.18,26.18,0,0,0,3-.5,27.81,27.81,0,0,1,5.12-.73,4.56,4.56,0,0,1,2.32.48c3.82,2.15,3.25,10.4,2.78,17a43.09,43.09,0,0,0-.18,6,54.65,54.65,0,0,1,.35,7c-.23,8.49-3.86,12.76-11.09,13.06Zm6.92-42.92a27.64,27.64,0,0,0-5,.71,25.09,25.09,0,0,1-3.06.52l-5.15.31-5.75.34c-2.09.14-4.27.19-6.38.24a77.8,77.8,0,0,0-13,1s-.1.06-.16.15c-1.14,1.85.25,12.47.64,13.88,1.46,5.17,5.46,8.71,9.33,12.14a55.79,55.79,0,0,1,5.67,5.52,20.08,20.08,0,0,0,16,7.37h0l1.07,0c6.88-.29,10.19-4.22,10.42-12.38a53.35,53.35,0,0,0-.36-6.92,43.45,43.45,0,0,1,.19-6.14c.42-6.09,1-14.44-2.43-16.37A4.14,4.14,0,0,0,222.59,177.63Z"/><path class="cls-2" d="M288.47,196.21a31.13,31.13,0,0,0-3.14-6.58c-3.29-5.41-9.82-12.69-10.65-19.08-3.88,2.47-12.06,24.56-14.76,28.75-2,3.07-5.56,6.95-5.62,10.77-.08,4.76,9.64,4,12.35,3.65,6.82-.74,13.78-2.72,19.22-7C289.5,203.83,289.64,200,288.47,196.21Z"/><path class="cls-2" d="M262.42,214.32h0c-3.75,0-6.3-.66-7.56-1.94a3.09,3.09,0,0,1-.91-2.31c.05-3.08,2.23-6.11,4.16-8.79.55-.77,1.07-1.49,1.51-2.17a99.86,99.86,0,0,0,4.51-9.56c3.64-8.28,7.77-17.65,10.36-19.3a.35.35,0,0,1,.34,0,.33.33,0,0,1,.2.27c.59,4.55,4.17,9.62,7.33,14.1,1.21,1.72,2.36,3.35,3.27,4.85a30.22,30.22,0,0,1,3.18,6.66c1.44,4.64.53,8.3-2.72,10.87-4.85,3.84-11.38,6.22-19.4,7.09A38.16,38.16,0,0,1,262.42,214.32Zm12-43.12c-2.48,2.36-6.6,11.7-9.65,18.63a100.57,100.57,0,0,1-4.56,9.66c-.45.7-1,1.43-1.54,2.2-1.86,2.6-4,5.54-4,8.39a2.42,2.42,0,0,0,.72,1.81c1.1,1.12,3.54,1.72,7.05,1.72h0a39.31,39.31,0,0,0,4.2-.24c7.88-.86,14.29-3.19,19-6.94,3-2.41,3.85-5.71,2.48-10.11a29.73,29.73,0,0,0-3.11-6.5c-.89-1.48-2-3.1-3.24-4.81C278.71,180.66,275.26,175.75,274.43,171.2Z"/><path class="cls-2" d="M288.5,187.47c1.07-1,1.17-4.38,1.2-5.35.11-4.28-.33-8.55-.44-12.83a15.14,15.14,0,0,0-.11-2.07h-6.36c-1.75.58-3.46,1.16-5.08,1.64a71.67,71.67,0,0,0,4.14,10.75c1.28,2.56,2.57,6,5,7.75C287.54,187.9,288.09,187.85,288.5,187.47Z"/><path class="cls-2" d="M287.81,188.12h0a2,2,0,0,1-1.21-.48c-2-1.5-3.29-4.14-4.39-6.46-.23-.49-.45-1-.68-1.41a73.13,73.13,0,0,1-4.16-10.8.32.32,0,0,1,0-.27.3.3,0,0,1,.21-.17c1.27-.38,2.58-.82,4-1.28l1.1-.36.11,0h6.36c.42,0,.43.23.46,2.35,0,1.65.13,3.27.22,4.84.14,2.64.29,5.37.22,8.07-.08,3-.52,4.85-1.31,5.6A1.32,1.32,0,0,1,287.81,188.12Zm-9.66-19a72.69,72.69,0,0,0,4,10.36c.23.45.46.92.69,1.42,1.07,2.25,2.28,4.8,4.17,6.19.52.39.91.45,1.24.14s1-1.47,1.08-5.1c.07-2.67-.07-5.39-.22-8-.09-1.57-.18-3.2-.22-4.8v-.07c0-.95,0-1.42,0-1.65h-6l-1.05.34C280.53,168.34,279.33,168.74,278.15,169.1Z"/><path class="cls-2" d="M265.78,174.94c0-.3,0-.61,0-.91-5.29-.84-13.3,2.38-18.8,3.15s-11.27,1.41-16.93,1.94c-2.41.74,1.56,27.74,1.63,30.63.31,12.06,14.35,5.33,18.52-.25,3.69-4.95,5.71-11,8.79-16.28C262.26,187.59,265.6,181.62,265.78,174.94Z"/><path class="cls-2" d="M237.36,216.84h0c-2.18,0-5.88-.92-6-7.08,0-.69-.28-2.91-.61-5.71-1.86-16-2.54-24.72-.77-25.27H230c6.27-.59,11.8-1.23,16.91-1.94a62.39,62.39,0,0,0,6.44-1.42c3.61-.92,7.34-1.87,10.52-1.87a11.8,11.8,0,0,1,1.94.14.35.35,0,0,1,.3.34q0,.47,0,.93c-.18,7-3.87,13.34-6.83,18.45-1.19,2.06-2.25,4.27-3.27,6.41a58.39,58.39,0,0,1-5.55,9.9C248,213.08,242,216.84,237.36,216.84Zm-7.22-37.37c-.16.09-.86,1-.29,9,.35,5,1.06,11.1,1.57,15.52.35,2.93.59,5.05.61,5.77.11,4.18,1.95,6.39,5.33,6.39,4.39,0,10.14-3.61,12.56-6.85a58.43,58.43,0,0,0,5.47-9.77c1-2.15,2.09-4.38,3.3-6.46,2.92-5,6.56-11.31,6.73-18.12,0-.2,0-.4,0-.59a10.77,10.77,0,0,0-1.54-.1c-3.09,0-6.78.94-10.34,1.85a63.43,63.43,0,0,1-6.52,1.44C241.92,178.24,236.39,178.88,230.14,179.47Z"/><path class="cls-2" d="M91.7,241.76c.79-1.46.75-3.28,1.24-4.94.57-1.9,1.22-3.83,1.73-5.78l.54-2.42a14.87,14.87,0,0,0-.39-7.77,8,8,0,0,0-2.38-2.31c-1.64-1-3.72-1.07-5.53-1.71-2.16-.76-5.45-3-7.1-.45-2.25,3.45-.46,8.27.22,11.94.61,3.27-.5,6.77-.16,10.08.54,5.29,7.43,8.39,11.23,4.2A4,4,0,0,0,91.7,241.76Z"/><path class="cls-2" d="M86.76,244.9h0a7.4,7.4,0,0,1-7.24-6.46,23.72,23.72,0,0,1,.14-4.69,19.33,19.33,0,0,0,0-5.37c-.12-.67-.28-1.37-.45-2.1-.77-3.35-1.64-7.15.29-10.1A2.79,2.79,0,0,1,82,214.85a9.89,9.89,0,0,1,3.7,1.1c.48.21.94.41,1.34.55a17.93,17.93,0,0,0,2.07.53,10.26,10.26,0,0,1,3.54,1.21,8.38,8.38,0,0,1,2.48,2.41.2.2,0,0,1,0,.08,14.92,14.92,0,0,1,.41,8l0,.23c-.17.74-.33,1.48-.5,2.21-.34,1.3-.74,2.6-1.13,3.85l-.6,1.95a17.85,17.85,0,0,0-.4,1.93,10,10,0,0,1-.87,3.08,4.25,4.25,0,0,1-.64.91A6.09,6.09,0,0,1,86.76,244.9ZM82,215.55a2.08,2.08,0,0,0-1.87,1c-1.76,2.7-.93,6.34-.19,9.55.17.74.33,1.46.46,2.13a20,20,0,0,1,0,5.57,24,24,0,0,0-.14,4.55,6.69,6.69,0,0,0,6.54,5.83,5.42,5.42,0,0,0,4.08-1.83,3.91,3.91,0,0,0,.55-.78,9.13,9.13,0,0,0,.79-2.86,16,16,0,0,1,.43-2c.19-.65.39-1.3.59-2,.39-1.24.79-2.53,1.13-3.81.16-.72.32-1.46.49-2.2l0-.21A14.31,14.31,0,0,0,94.5,221a7.51,7.51,0,0,0-2.25-2.17,9.46,9.46,0,0,0-3.31-1.12,18.32,18.32,0,0,1-2.15-.55c-.43-.16-.9-.36-1.39-.58A9.65,9.65,0,0,0,82,215.55Z"/><path class="cls-2" d="M191.82,227.62c-3.43-3.81-9.91-2.14-14.3-1.21a49,49,0,0,1-20.15,0c-7.48-1.45-7,6.7-6.59,11.47.55,6,.57,12.94,6.2,16.6,4,2.57,7.94,1.52,12.31,1.59,3.81.06,7.61,0,11.42-.05,3.12-.07,6.93.18,9.75-1.43,3.47-2,3.06-5.63,2.8-9.1-.37-5,2.12-12.47-.74-17A6.55,6.55,0,0,0,191.82,227.62Z"/><path class="cls-2" d="M163.72,256.59a12.07,12.07,0,0,1-6.93-1.81c-5.24-3.4-5.76-9.63-6.22-15.13,0-.58-.09-1.16-.14-1.73-.37-3.93-.47-8.26,1.6-10.53,1.21-1.33,3-1.78,5.41-1.32a48.16,48.16,0,0,0,20,0l.74-.16a34.72,34.72,0,0,1,7.2-1c3,0,5.17.82,6.69,2.5a7.19,7.19,0,0,1,.74,1c2,3,1.51,7.3,1.09,11.4a33,33,0,0,0-.29,5.71l0,.39c.26,3.46.53,7-3,9-2.5,1.43-5.71,1.45-8.54,1.46l-1.39,0c-2.78.05-5.22.08-7.46.08l-4,0h-.43c-.88,0-1.77,0-2.62.08S164.55,256.59,163.72,256.59Zm-8-30a4.06,4.06,0,0,0-3.17,1.26c-1.88,2.07-1.77,6.22-1.42,10q.08.85.15,1.74c.47,5.59.95,11.38,5.9,14.59a11.39,11.39,0,0,0,6.54,1.69c.81,0,1.62,0,2.47-.08s1.76-.08,2.66-.08h.45c1.31,0,2.63,0,3.95,0,2.24,0,4.67,0,7.45-.08h1.39c2.75,0,5.86,0,8.2-1.37,3.14-1.79,2.9-5,2.65-8.38l0-.39a35.4,35.4,0,0,1,.29-5.84c.41-4,.84-8.09-1-11a8.08,8.08,0,0,0-.66-.88c-1.38-1.52-3.39-2.26-6.17-2.26a33.76,33.76,0,0,0-7,1l-.75.15a48.82,48.82,0,0,1-20.29,0A8.27,8.27,0,0,0,155.72,226.6Z"/><path class="cls-2" d="M218.71,224.65c-1.79-2.14-4.73-1.57-7.47-1.39-6.09.4-15.74-.55-15.27,7.93.37,6.58,1,13.15,1.41,19.72.53,1.12,1,2.24,1.56,3.36,3,1.28,7,1.15,9.89,1,3.74-.2,8,.45,11.33-1.65,4.21-2.64,3-8.24,2.14-12.3a65.1,65.1,0,0,1-1.53-7.92c-.21-2.56-.25-5.4-1.42-7.74A5.47,5.47,0,0,0,218.71,224.65Z"/><path class="cls-2" d="M205.8,255.71a17.88,17.88,0,0,1-7-1.11.35.35,0,0,1-.18-.18c-.52-1.12-1-2.24-1.56-3.36a.28.28,0,0,1,0-.13c-.19-3-.42-6-.65-8.91-.27-3.54-.56-7.2-.76-10.81a6.9,6.9,0,0,1,1.56-5.19c2.47-2.69,7.27-2.86,11.5-3,.88,0,1.74-.06,2.54-.11l1-.08c.75-.06,1.53-.13,2.28-.13a5,5,0,0,1,5.15,2.8,18.39,18.39,0,0,1,1.38,6.87c0,.33,0,.67.07,1a36.21,36.21,0,0,0,1,5.49c.18.8.37,1.6.53,2.39l0,.26c.83,4.09,2,9.69-2.35,12.41-2.65,1.65-5.87,1.66-8.47,1.66h-.71c-.75,0-1.55,0-2.33,0C207.9,255.67,206.87,255.71,205.8,255.71ZM199.2,254a17.45,17.45,0,0,0,6.6,1c1.06,0,2.07,0,3-.1.79,0,1.6,0,2.36,0h.71c2.5,0,5.62,0,8.09-1.55,3.91-2.46,2.88-7.56,2-11.66l-.06-.27c-.16-.78-.34-1.57-.52-2.37a38.27,38.27,0,0,1-1-5.6c0-.33,0-.67-.07-1a17.46,17.46,0,0,0-1.31-6.6,4.44,4.44,0,0,0-.6-.94c-.84-1-2.05-1.47-3.91-1.47-.72,0-1.48.06-2.22.12l-1,.08c-.81.06-1.67.09-2.57.12-4.09.14-8.73.29-11,2.77a6.05,6.05,0,0,0-1.38,4.67c.2,3.6.48,7.26.76,10.8.22,2.9.46,5.9.64,8.85Q198.48,252.41,199.2,254Z"/><path class="cls-2" d="M256.94,220c-2.8-3.72-8.47-2.69-12.65-1.94-5,.89-9.42,3.49-14.41,4.27-6.26,1-7.58,1.71-6.83,8.14.65,5.67,2.33,11.2,3.87,16.68,2.9,10.28,13,7.67,21.44,5.49,1.24-.32,4.07-.57,5-1.45,2.47-2.28,2.3-10.47,2.8-13.59.82-5.12,3.91-11.22,1.48-16.38A7.26,7.26,0,0,0,256.94,220Z"/><path class="cls-2" d="M237.06,255h0c-5.58,0-9-2.53-10.48-7.74l-.46-1.63a96.17,96.17,0,0,1-3.42-15.11c-.77-6.61.66-7.52,7.13-8.53a40.61,40.61,0,0,0,7.36-2.15,41.49,41.49,0,0,1,7-2.11,35.06,35.06,0,0,1,6.15-.74c3.18,0,5.42.92,6.84,2.81A7.09,7.09,0,0,1,258,221c1.82,3.85.68,8.1-.43,12.2a44.62,44.62,0,0,0-1,4.38c-.13.78-.21,1.88-.3,3.15-.3,3.95-.66,8.86-2.61,10.65-.78.71-2.52,1-3.92,1.28-.48.09-.93.17-1.25.25C244.82,253.89,240.71,255,237.06,255Zm13.32-37.3a34,34,0,0,0-6,.72,42.51,42.51,0,0,0-7,2.08,40.11,40.11,0,0,1-7.49,2.19c-6.21,1-7.25,1.63-6.54,7.75a96.94,96.94,0,0,0,3.4,15l.46,1.62c1.39,4.93,4.5,7.23,9.8,7.23,3.56,0,7.62-1.05,11.21-2,.35-.09.81-.18,1.31-.27,1.24-.22,2.94-.53,3.56-1.1,1.74-1.6,2.11-6.56,2.38-10.18.1-1.29.18-2.4.31-3.21a45,45,0,0,1,1-4.46c1.07-4,2.18-8.09.47-11.71a6.26,6.26,0,0,0-.69-1.15C255.38,218.49,253.33,217.66,250.38,217.66Z"/><path class="cls-2" d="M286.52,211.85c-3.21-.41-8,3-11,3.54-4.4.81-11.39-.48-13.45,4.24-.38,1.73-.45,3.59-.74,5.36-1,5.74-2.58,11.47-2.6,17.34,0,5,2.41,5.76,6.73,4.38,4.63-1.47,9.23-3,14-4.22,3.19-.84,6.8-1.89,9-4.52,2.7-3.21,1.65-6.89,1.58-10.73S292.45,212.61,286.52,211.85Z"/><path class="cls-2" d="M262.22,247.67h0a3.5,3.5,0,0,1-2.62-.95c-.86-.86-1.27-2.29-1.27-4.39a64.13,64.13,0,0,1,1.66-12.4c.33-1.64.67-3.33.94-5,.13-.74.21-1.51.29-2.25.12-1,.23-2.11.45-3.13,1.63-3.74,6-4,9.9-4.16a30.19,30.19,0,0,0,3.83-.35,20.79,20.79,0,0,0,4.21-1.58c2.41-1.09,4.94-2.21,6.95-2,5.06.65,4.4,7.91,4,12.71-.11,1.22-.2,2.27-.19,3s.07,1.62.12,2.4c.22,3,.43,5.92-1.79,8.56s-5.74,3.73-9.18,4.64c-4.33,1.14-8.6,2.5-12.73,3.82l-1.24.39A11.09,11.09,0,0,1,262.22,247.67ZM286,212.17c-1.76,0-3.94,1-6.05,1.94a22,22,0,0,1-4.37,1.63,34.29,34.29,0,0,1-3.92.36c-3.85.19-7.83.4-9.27,3.67-.19.92-.3,2-.42,3-.08.76-.16,1.54-.29,2.3-.28,1.67-.62,3.37-.95,5A63.77,63.77,0,0,0,259,242.33c0,1.9.34,3.18,1.06,3.89.94.95,2.57,1,5.21.15l1.23-.39c4.14-1.32,8.43-2.68,12.77-3.83,3.47-.91,6.75-1.94,8.82-4.4s1.84-5.16,1.63-8.06c-.06-.8-.12-1.62-.13-2.44s.08-1.86.19-3.11c.41-4.53,1-11.38-3.35-11.94A4.41,4.41,0,0,0,286,212.17Z"/><path class="cls-2" d="M147.05,238.8c-.34-3.62.91-8-.61-11.37-2.15-4.85-10.73-2.66-14.74-3-5.53-.5-11-1.53-16.45-2.51-4.26-.76-10-2.88-14-.46-3.37,2-3.42,7.52-4,11-.81,4.71-3,10.33-.48,14.89,3.4,6.12,13.22,6,19.21,6.19,4.79.12,9.58-.13,14.37-.07a127.86,127.86,0,0,1,14.89,1.32,4.67,4.67,0,0,0,2.17-1.7,13.38,13.38,0,0,0,1.25-2.55C148,246.63,147.43,242.73,147.05,238.8Z"/><path class="cls-2" d="M145.18,255.13h0a125.63,125.63,0,0,0-14.85-1.33c-2.19,0-4.39,0-6.58,0-2.6,0-5.2.09-7.8,0l-.92,0c-6.08-.14-15.26-.35-18.59-6.35-2.07-3.73-1.07-8.17-.19-12.09.24-1.06.47-2.06.63-3,.11-.61.2-1.29.29-2,.44-3.34,1-7.49,3.91-9.27a9,9,0,0,1,4.78-1.17,32,32,0,0,1,6.85,1c.93.21,1.81.41,2.64.55l1.38.25c4.91.89,10,1.8,15,2.26a28.77,28.77,0,0,0,3.75-.06c1.1-.06,2.23-.13,3.37-.13,3,0,6.57.39,7.91,3.42,1,2.26.85,4.87.69,7.39a25.67,25.67,0,0,0,0,4.1c.38,4,1,8,1.54,11.69a.37.37,0,0,1,0,.18,13.89,13.89,0,0,1-1.28,2.62,5,5,0,0,1-2.32,1.84A.4.4,0,0,1,145.18,255.13Zm-16.58-2h1.7a127,127,0,0,1,14.83,1.31,4.39,4.39,0,0,0,1.93-1.53,13.41,13.41,0,0,0,1.18-2.4c-.58-3.68-1.16-7.63-1.54-11.65a26.87,26.87,0,0,1,.05-4.2c.14-2.44.3-5-.63-7.06s-3.16-3-7.27-3c-1.12,0-2.24.07-3.33.12a28.53,28.53,0,0,1-3.85.06c-5.08-.46-10.18-1.37-15.1-2.26l-1.38-.25c-.85-.15-1.74-.35-2.68-.56a30.64,30.64,0,0,0-6.69-1,8.31,8.31,0,0,0-4.41,1.07c-2.63,1.6-3.16,5.57-3.58,8.75-.09.72-.18,1.4-.29,2-.17,1-.4,2-.64,3.06-.89,4-1.82,8.11.12,11.6,3.13,5.64,12.07,5.85,18,6l.92,0c2.59.07,5.18,0,7.77,0C125.33,253.12,127,253.09,128.6,253.09Z"/><path class="cls-4" d="M82.24,158.09c-.29,42.55.08,81.67.08,81.67,0,8.62,45.85,15.73,102.45,15.86s102.5-6.74,102.52-15.36c.59-6.46.46-46.69.37-80.93Z"/><path class="cls-5" d="M186.42,256h-1.65c-57.67-.14-102.83-7.27-102.8-16.22,0-.39-.37-39.61-.08-81.67a.35.35,0,0,1,.35-.35h0L287.67,159a.35.35,0,0,1,.35.35V165c.08,32.44.18,69.21-.39,75.33C287.62,249.07,243.16,256,186.42,256ZM82.59,158.45c-.28,41.92.08,80.92.08,81.31,0,8.27,46.74,15.37,102.1,15.51h1.65c27,0,52.34-1.59,71.31-4.48,18.56-2.82,29.2-6.66,29.21-10.53.56-6.12.47-42.88.39-75.3l0-5.27Z"/><g class="cls-3"><path class="cls-6" d="M100.66,172.72c-3.73-.63-7.56-1.18-11-2.92-2.66-1.34-5.16-3-7.79-4.36.64.34,0,8.43,0,9.4,0,3.51-.06,7,0,10.54,0,3.74.07,7.48,0,11.22-.07,3-.69,6.82.5,9.65s5.61,3.39,8.31,4.14c6.57,1.81,15.85,4.42,21.16-1.63,3.29-3.76,4.54-8.77,6.65-13.22s5.76-8,7.13-12.82a44.55,44.55,0,0,0,1.3-7.77C118.14,174.57,109.33,174.18,100.66,172.72Z"/><path class="cls-6" d="M115.05,210.81c.12,1.92,1.46,3.42,5.09,4.11,4.39.82,11.72,3.68,15.73.75,5.44-4-.91-13.51-2.79-17.75-.79-1.79-4.44-12.91-7.83-7.4-2.37,3.87-4.56,7.82-6.81,11.77C116.76,205.24,114.91,208.36,115.05,210.81Z"/><path class="cls-6" d="M179.12,179.76c-1.49-1.31-3.62-1.94-5.55-3-9.6.17-19.23,0-28.82-.28-3.11-.09-10.26-2.28-12.89-.08-6.2,5.18,3.2,13.14,5.24,17.21a52.71,52.71,0,0,1,3.59,9.28c1.29,4.53,1.47,9.26,5.89,11.86,4.87,2.85,11.35,2.62,16.76,3.4,14.17,2,15.77-17.35,16.84-27.08.29-2.67,1.29-5.61.69-8.3A5.45,5.45,0,0,0,179.12,179.76Z"/><path class="cls-6" d="M197.23,209.48c-.07-.14-.15-.28-.23-.42-2.07-3.73-6-7.73-10.61-6.6-3.51.86-4.58,3.9-5.48,7.07-.5,1.8-3.27,7.48-1.66,8.74s7.31-.46,9.23-.65C195.23,217,201.38,217.31,197.23,209.48Z"/><path class="cls-6" d="M227.31,203.25a55.72,55.72,0,0,0-.35-7c-.48-4.79,2.6-19.93-2.37-22.78-2.2-1.26-7.58.65-10,.8-3.57.23-7.14.42-10.71.65-6.21.41-13,.05-19.11,1.28-1.85.37-.23,12.9.21,14.47,2.18,7.91,9.87,11.88,14.8,17.79a20,20,0,0,0,17,7.48C225,215.62,227.13,209.77,227.31,203.25Z"/><path class="cls-6" d="M287.18,192a31,31,0,0,0-3.09-6.58c-3.23-5.42-9.64-12.7-10.45-19.09-3.82,2.48-11.85,24.57-14.5,28.76-1.95,3.07-5.46,7-5.52,10.77-.07,4.76,9.47,3.94,12.13,3.65,6.7-.74,13.54-2.72,18.87-7C288.19,199.63,288.33,195.77,287.18,192Z"/><path class="cls-6" d="M287.2,183.27c1.06-1,1.16-4.38,1.18-5.36.11-4.27-.32-8.55-.43-12.82a13.7,13.7,0,0,0-.11-2.07H281.6c-1.72.58-3.4,1.16-5,1.64a73.28,73.28,0,0,0,4.06,10.75c1.26,2.55,2.53,6,4.88,7.75C286.27,183.7,286.81,183.65,287.2,183.27Z"/><path class="cls-6" d="M264.89,170.74c0-.31,0-.61,0-.91-5.19-.84-13.06,2.38-18.46,3.15s-11.07,1.4-16.62,1.94c-2.37.74,1.52,27.74,1.6,30.63.3,12.06,14.09,5.33,18.18-.26,3.63-4.94,5.61-11,8.64-16.27C261.44,183.39,264.72,177.42,264.89,170.74Z"/><path class="cls-6" d="M92.58,236.4c.78-1.46.74-3.29,1.23-4.94.55-1.9,1.19-3.84,1.69-5.78.18-.8.36-1.61.53-2.43a15.08,15.08,0,0,0-.38-7.77,8.27,8.27,0,0,0-2.33-2.31c-1.62-1-3.66-1.07-5.44-1.7-2.12-.76-5.34-3-7-.46-2.21,3.46-.46,8.28.22,11.94.6,3.28-.49,6.78-.16,10.09.53,5.29,7.3,8.38,11,4.2A3.61,3.61,0,0,0,92.58,236.4Z"/><path class="cls-6" d="M192.65,223c-3.37-3.8-9.73-2.15-14-1.21a47.31,47.31,0,0,1-19.79,0c-7.35-1.45-6.91,6.7-6.48,11.47.55,6,.57,12.94,6.1,16.6,3.89,2.58,7.79,1.52,12.08,1.59,3.74.06,7.48,0,11.22-.05,3.06-.07,6.8.18,9.58-1.43,3.4-2,3-5.62,2.75-9.1-.36-5,2.07-12.47-.73-17A9.59,9.59,0,0,0,192.65,223Z"/><path class="cls-6" d="M218.67,220.45c-1.75-2.14-4.65-1.57-7.33-1.39-6,.4-15.47-.55-15,7.93.36,6.57,1,13.14,1.39,19.72.51,1.12,1,2.24,1.52,3.36,2.93,1.28,6.88,1.14,9.71,1,3.68-.19,7.83.46,11.13-1.65,4.14-2.64,2.92-8.23,2.1-12.3a69.06,69.06,0,0,1-1.5-7.92c-.2-2.56-.25-5.39-1.39-7.74A5.35,5.35,0,0,0,218.67,220.45Z"/><path class="cls-6" d="M256.21,215.77c-2.75-3.72-8.32-2.69-12.42-1.94-4.87.89-9.25,3.49-14.15,4.27-6.15,1-7.45,1.7-6.71,8.14.64,5.67,2.29,11.2,3.8,16.68,2.85,10.28,12.79,7.67,21.06,5.49,1.22-.33,4-.58,4.93-1.46,2.43-2.27,2.26-10.46,2.75-13.58.8-5.13,3.84-11.22,1.45-16.38A7.52,7.52,0,0,0,256.21,215.77Z"/><path class="cls-6" d="M285.26,207.65c-3.15-.41-7.83,3-10.85,3.54-4.32.81-11.18-.48-13.21,4.24-.37,1.73-.43,3.59-.72,5.35-.94,5.75-2.54,11.47-2.55,17.35,0,5,2.36,5.76,6.61,4.38,4.54-1.48,9.06-3,13.73-4.22,3.14-.84,6.68-1.89,8.84-4.52,2.65-3.21,1.61-6.89,1.55-10.73S291.09,208.41,285.26,207.65Z"/><path class="cls-6" d="M147.91,233.82c-.3-3.28-.12-7-.23-10.77a4,4,0,0,0-1.86-2.7,9.88,9.88,0,0,0-2.42-.9,73.13,73.13,0,0,1-10.57,0c-9.18-.86-18.17-3.2-27.31-4.3a14.38,14.38,0,0,0-4.81,3c-.47,3.12-1.23,6.21-1.76,9.35-.66,3.9-1.27,7.79-1.8,11.69a17.45,17.45,0,0,0,2.49,5.52l.33.41c.83.34,1.65.68,2.49,1,9.71,3.58,18.92,2.27,29,2.41a121.24,121.24,0,0,1,14.62,1.32,4.67,4.67,0,0,0,2.14-1.71,13.25,13.25,0,0,0,1.22-2.55C148.84,241.65,148.28,237.76,147.91,233.82Z"/></g><path class="cls-6" d="M99.52,171.4c-3.79-.63-7.69-1.18-11.17-2.91-2.71-1.34-5.26-3-7.94-4.36.65.34,0,8.43,0,9.39,0,3.52,0,7,0,10.55.05,3.74.08,7.48,0,11.22-.07,3-.69,6.82.51,9.65s5.71,3.39,8.46,4.14c6.7,1.81,16.15,4.42,21.55-1.63,3.35-3.76,4.62-8.78,6.78-13.22s5.86-8,7.25-12.83a42.7,42.7,0,0,0,1.33-7.76C117.32,173.26,108.35,172.87,99.52,171.4Z"/><path class="cls-5" d="M101.3,211.58h0c-4.09,0-8.44-1.18-11.93-2.13l-.12,0c-.48-.14-1-.26-1.58-.38-2.68-.61-6-1.36-7.11-4-1-2.28-.8-5.17-.64-7.72,0-.72.08-1.42.1-2.08.08-3.72,0-7.43,0-11.21,0-3.59,0-7.29,0-10.55,0-.21,0-.76.08-1.49.11-1.91.41-7,.07-7.63a.36.36,0,0,1-.1-.44.36.36,0,0,1,.48-.15h0c1.25.65,2.48,1.35,3.68,2,1.38.79,2.81,1.61,4.26,2.33,3.18,1.58,6.79,2.17,10.27,2.74l.8.13c9,1.49,18,1.87,26.69,2.23a.36.36,0,0,1,.25.13.34.34,0,0,1,.08.26,43.09,43.09,0,0,1-1.34,7.83,28.08,28.08,0,0,1-4.18,7.83,40.25,40.25,0,0,0-3.09,5.06c-.65,1.32-1.22,2.73-1.78,4.09-1.31,3.21-2.67,6.53-5.06,9.2S105.59,211.58,101.3,211.58ZM81,164.83a52.06,52.06,0,0,1-.16,7.24c0,.72-.07,1.25-.08,1.46,0,3.26,0,6.95,0,10.53,0,3.79.08,7.5,0,11.24,0,.66-.06,1.37-.11,2.1-.15,2.48-.32,5.28.59,7.4s4.09,3,6.61,3.55c.57.13,1.12.25,1.61.38l.12,0c3.45.93,7.76,2.1,11.75,2.1h0c4.08,0,7.13-1.2,9.33-3.66s3.64-5.84,4.93-9c.56-1.37,1.14-2.79,1.79-4.13a41.86,41.86,0,0,1,3.14-5.15,27.62,27.62,0,0,0,4.09-7.62,41,41,0,0,0,1.28-7.34,215.46,215.46,0,0,1-26.39-2.22l-.81-.13c-3.53-.58-7.19-1.18-10.47-2.81-1.46-.73-2.9-1.55-4.29-2.35C83,165.92,82,165.36,81,164.83Z"/><path class="cls-6" d="M113.59,210.07c.12,1.92,1.49,3.43,5.19,4.11,4.46.83,11.93,3.69,16,.75,5.54-4-.93-13.5-2.84-17.75-.8-1.78-4.52-12.9-8-7.39-2.42,3.86-4.65,7.82-6.94,11.76C115.33,204.5,113.45,207.62,113.59,210.07Z"/><path class="cls-5" d="M130,216.58h0a35.5,35.5,0,0,1-8.16-1.35c-1.12-.27-2.18-.53-3.1-.7-3.54-.65-5.33-2.1-5.47-4.44s1.6-5.45,3.28-8.34l.21-.37c.5-.86,1-1.72,1.49-2.58,1.75-3,3.56-6.17,5.46-9.2a2.9,2.9,0,0,1,2.33-1.68c2.61,0,4.83,5.54,5.89,8.21l.37.91c.32.69.74,1.51,1.24,2.47,2.53,4.86,6.36,12.21,1.48,15.71A8.3,8.3,0,0,1,130,216.58Zm-4-28c-.59,0-1.17.46-1.73,1.35-1.89,3-3.7,6.15-5.44,9.18-.5.86-1,1.72-1.49,2.58l-.22.37c-1.63,2.81-3.32,5.71-3.18,8,.11,2,1.71,3.2,4.89,3.79.94.17,2,.43,3.14.71a35.48,35.48,0,0,0,8,1.32h0a7.73,7.73,0,0,0,4.61-1.22c4.38-3.14.72-10.17-1.7-14.82-.5-1-.93-1.79-1.25-2.5l-.39-.94C130.4,194.26,128.14,188.62,126,188.62Z"/><path class="cls-6" d="M178.43,178.64c-1.51-1.31-3.68-1.94-5.64-3-9.78.17-19.58,0-29.35-.29-3.17-.08-10.45-2.26-13.13-.07-6.31,5.18,3.26,13.14,5.34,17.21a53,53,0,0,1,3.66,9.28c1.3,4.53,1.49,9.26,6,11.86,4.95,2.85,11.55,2.62,17.06,3.4,14.43,2,16.06-17.35,17.14-27.08.3-2.67,1.32-5.61.71-8.3A5.38,5.38,0,0,0,178.43,178.64Z"/><path class="cls-5" d="M164.41,217.51h0a15.12,15.12,0,0,1-2.09-.15c-1.4-.2-2.84-.33-4.37-.46-4.45-.41-9.06-.82-12.82-3s-4.6-5.69-5.49-9.43c-.21-.86-.42-1.76-.67-2.63a52.32,52.32,0,0,0-3.64-9.22,25.75,25.75,0,0,0-2.49-3.54c-3.29-4.21-7.78-10-2.75-14.11a6.37,6.37,0,0,1,4.09-1,39.51,39.51,0,0,1,5.82.62,29.9,29.9,0,0,0,3.44.43c6.34.17,13.85.35,21.5.35,2.71,0,5.34,0,7.84-.06a.28.28,0,0,1,.18,0c.69.38,1.42.71,2.12,1a14.58,14.58,0,0,1,3.59,2,5.67,5.67,0,0,1,1.89,3.17,14.92,14.92,0,0,1-.31,6c-.15.83-.3,1.63-.39,2.41l-.11,1C178.73,200.25,176.84,217.51,164.41,217.51Zm-30.23-42.87a5.73,5.73,0,0,0-3.64.89c-4.5,3.69-.42,8.92,2.85,13.13A25.73,25.73,0,0,1,136,192.3a54.12,54.12,0,0,1,3.69,9.35c.25.89.47,1.79.68,2.67.85,3.58,1.66,7,5.15,9s8.16,2.5,12.54,2.89c1.53.14,3,.27,4.4.47a13.74,13.74,0,0,0,2,.15c11.8,0,13.58-16.22,14.64-25.92l.11-1c.09-.8.25-1.65.4-2.47a14.41,14.41,0,0,0,.31-5.71,5,5,0,0,0-1.67-2.8,14,14,0,0,0-3.41-1.93c-.69-.31-1.4-.63-2.09-1-2.47.05-5.08.07-7.76.07-7.66,0-15.17-.18-21.51-.35a32.46,32.46,0,0,1-3.54-.44A38.45,38.45,0,0,0,134.18,174.64Z"/><path class="cls-6" d="M196.88,208.36c-.07-.14-.15-.28-.23-.42-2.12-3.73-6.12-7.73-10.81-6.6-3.57.86-4.67,3.9-5.57,7.08-.52,1.79-3.34,7.47-1.7,8.73s7.44-.46,9.4-.65C194.84,215.83,201.11,216.19,196.88,208.36Z"/><path class="cls-5" d="M180.51,217.93h0a3.51,3.51,0,0,1-2.15-.5c-1.48-1.14-.08-4.77.95-7.42.27-.7.5-1.3.62-1.69,1-3.35,2.12-6.43,5.82-7.32a7.15,7.15,0,0,1,1.71-.21c5.14,0,8.57,5.34,9.5,7l.23.43c1.42,2.63,1.77,4.55,1.05,5.86-1.09,2-4.41,2.31-8.26,2.63l-2,.17c-.49.05-1.26.2-2.15.37A32.64,32.64,0,0,1,180.51,217.93Zm7-16.43a6.24,6.24,0,0,0-1.54.19c-3.33.8-4.38,3.56-5.31,6.82-.13.42-.36,1-.64,1.75-.78,2-2.24,5.8-1.18,6.61a2.86,2.86,0,0,0,1.72.35h0a31.52,31.52,0,0,0,5.21-.7c.91-.17,1.69-.32,2.21-.37l2-.18c3.64-.3,6.79-.56,7.7-2.25.59-1.09.25-2.79-1.05-5.19l-.23-.42C194.52,204.92,191.24,201.5,187.46,201.5Z"/><path class="cls-6" d="M227.51,201.55a55.72,55.72,0,0,0-.35-7c-.5-4.79,2.64-19.93-2.42-22.78-2.24-1.26-7.72.65-10.21.8-3.64.23-7.28.42-10.91.66-6.33.4-13.23,0-19.46,1.27-1.89.37-.23,12.9.21,14.47,2.23,7.91,10.06,11.88,15.07,17.79a20.54,20.54,0,0,0,17.32,7.48C225.18,213.92,227.33,208.07,227.51,201.55Z"/><path class="cls-5" d="M215.67,214.64h0a20.75,20.75,0,0,1-16.5-7.62,55.42,55.42,0,0,0-5.6-5.44c-3.94-3.5-8-7.11-9.54-12.48-.34-1.22-1.93-12.22-.56-14.44a1,1,0,0,1,.62-.48,78.43,78.43,0,0,1,13.16-1c2.1,0,4.28-.1,6.35-.24l5.76-.34,5.14-.31a26.18,26.18,0,0,0,3-.5,27.81,27.81,0,0,1,5.12-.73,4.67,4.67,0,0,1,2.32.47c3.82,2.15,3.25,10.41,2.78,17a43,43,0,0,0-.18,6,54.92,54.92,0,0,1,.35,7c-.23,8.49-3.86,12.76-11.09,13.06C216.4,214.64,216,214.64,215.67,214.64Zm6.92-42.91a27.64,27.64,0,0,0-5,.71,25.09,25.09,0,0,1-3.06.52l-5.15.3-5.75.35c-2.09.13-4.27.19-6.38.24a78.87,78.87,0,0,0-13,1s-.1.07-.16.16c-1.14,1.85.25,12.47.64,13.88,1.46,5.17,5.46,8.71,9.33,12.14a55.79,55.79,0,0,1,5.67,5.52,20.08,20.08,0,0,0,16,7.37h0l1.07,0c6.88-.28,10.19-4.21,10.42-12.37a53.25,53.25,0,0,0-.36-6.92,43.38,43.38,0,0,1,.19-6.14c.42-6.1,1-14.44-2.43-16.37A4.14,4.14,0,0,0,222.59,171.73Z"/><path class="cls-6" d="M288.47,190.31a30.9,30.9,0,0,0-3.14-6.58c-3.29-5.41-9.82-12.7-10.65-19.08-3.88,2.47-12.06,24.56-14.76,28.75-2,3.07-5.56,6.95-5.62,10.77-.08,4.76,9.64,3.94,12.35,3.65,6.82-.74,13.78-2.72,19.22-7C289.5,197.93,289.64,194.07,288.47,190.31Z"/><path class="cls-5" d="M262.42,208.42h0c-3.75,0-6.3-.66-7.56-1.94a3.09,3.09,0,0,1-.91-2.31c.05-3.08,2.23-6.11,4.16-8.79.55-.77,1.07-1.49,1.51-2.17a99.16,99.16,0,0,0,4.51-9.57c3.64-8.27,7.77-17.65,10.36-19.29a.32.32,0,0,1,.34,0,.33.33,0,0,1,.2.27c.59,4.55,4.17,9.62,7.33,14.1,1.21,1.72,2.36,3.35,3.27,4.85a30.39,30.39,0,0,1,3.18,6.65c1.44,4.65.53,8.31-2.72,10.88-4.85,3.83-11.38,6.22-19.4,7.09A40.7,40.7,0,0,1,262.42,208.42Zm12-43.12c-2.48,2.35-6.6,11.7-9.65,18.63a100.57,100.57,0,0,1-4.56,9.66c-.45.7-1,1.43-1.54,2.2-1.86,2.59-4,5.54-4,8.39a2.42,2.42,0,0,0,.72,1.81c1.1,1.12,3.54,1.72,7.05,1.72h0a39.31,39.31,0,0,0,4.2-.24c7.88-.86,14.29-3.19,19-6.94,3-2.41,3.85-5.72,2.48-10.12a29.68,29.68,0,0,0-3.11-6.49c-.89-1.48-2-3.1-3.24-4.81C278.71,174.76,275.26,169.85,274.43,165.3Z"/><path class="cls-6" d="M288.5,181.57c1.07-1,1.17-4.38,1.2-5.35.11-4.28-.33-8.56-.44-12.83a15.14,15.14,0,0,0-.11-2.07h-6.36c-1.75.58-3.46,1.16-5.08,1.64a72.09,72.09,0,0,0,4.14,10.75c1.28,2.55,2.57,6,5,7.75C287.54,182,288.09,182,288.5,181.57Z"/><path class="cls-5" d="M287.81,182.21h0a2,2,0,0,1-1.21-.47c-2-1.5-3.29-4.14-4.39-6.46-.23-.49-.45-1-.68-1.41a73.56,73.56,0,0,1-4.16-10.8.32.32,0,0,1,0-.27.34.34,0,0,1,.21-.18c1.27-.38,2.58-.81,4-1.27l1.1-.36a.23.23,0,0,1,.11,0h6.36c.42,0,.43.23.46,2.35,0,1.65.13,3.27.22,4.83.14,2.65.29,5.38.22,8.08-.08,3-.52,4.85-1.31,5.6A1.35,1.35,0,0,1,287.81,182.21Zm-9.66-19a72.13,72.13,0,0,0,4,10.35c.23.45.46.93.69,1.42,1.07,2.25,2.28,4.8,4.17,6.2.52.39.91.45,1.24.14s1-1.47,1.08-5.1c.07-2.67-.07-5.39-.22-8-.09-1.57-.18-3.19-.22-4.79v-.08c0-.94,0-1.41,0-1.65h-6l-1.05.35C280.53,162.44,279.33,162.84,278.15,163.2Z"/><path class="cls-6" d="M265.78,169c0-.31,0-.61,0-.91-5.29-.84-13.3,2.38-18.8,3.15s-11.27,1.41-16.93,1.94c-2.41.74,1.56,27.74,1.63,30.63.31,12.06,14.35,5.33,18.52-.26,3.69-4.94,5.71-11,8.79-16.27C262.26,181.69,265.6,175.72,265.78,169Z"/><path class="cls-5" d="M237.36,210.94h0c-2.18,0-5.88-.93-6-7.08,0-.69-.28-2.91-.61-5.71-1.86-16-2.54-24.72-.77-25.27H230c6.27-.59,11.8-1.23,16.91-1.94a65.13,65.13,0,0,0,6.44-1.42c3.61-.92,7.34-1.87,10.52-1.87a11.8,11.8,0,0,1,1.94.14.34.34,0,0,1,.3.34q0,.47,0,.93c-.18,7-3.87,13.34-6.83,18.45-1.19,2.06-2.25,4.27-3.27,6.41a58.78,58.78,0,0,1-5.55,9.9C248,207.18,242,210.94,237.36,210.94Zm-7.22-37.37c-.16.09-.86,1-.29,9,.35,5,1.06,11.1,1.57,15.53.35,2.93.59,5,.61,5.77.11,4.18,1.95,6.39,5.33,6.39,4.39,0,10.14-3.61,12.56-6.85a58.43,58.43,0,0,0,5.47-9.77c1-2.16,2.09-4.38,3.3-6.46,2.92-5,6.56-11.32,6.73-18.12,0-.2,0-.4,0-.6a12.51,12.51,0,0,0-1.54-.09c-3.09,0-6.78.94-10.34,1.85a63.43,63.43,0,0,1-6.52,1.44C241.92,172.34,236.39,173,230.14,173.57Z"/><path class="cls-6" d="M91.7,235.86c.79-1.47.75-3.28,1.24-4.94.57-1.9,1.22-3.83,1.73-5.78l.54-2.42a14.9,14.9,0,0,0-.39-7.78,8.05,8.05,0,0,0-2.38-2.3c-1.64-1-3.72-1.07-5.53-1.71-2.16-.76-5.45-3-7.1-.45-2.25,3.45-.46,8.27.22,11.94.61,3.27-.5,6.77-.16,10.08.54,5.29,7.43,8.38,11.23,4.2A4,4,0,0,0,91.7,235.86Z"/><path class="cls-5" d="M86.76,239h0a7.4,7.4,0,0,1-7.24-6.46,23.72,23.72,0,0,1,.14-4.69,19.33,19.33,0,0,0,0-5.37c-.12-.67-.28-1.37-.45-2.1-.77-3.35-1.64-7.15.29-10.1A2.79,2.79,0,0,1,82,209a10.05,10.05,0,0,1,3.7,1.09c.48.22.94.42,1.34.56a16.07,16.07,0,0,0,2.07.52,10.49,10.49,0,0,1,3.54,1.22,8.38,8.38,0,0,1,2.48,2.41.2.2,0,0,1,0,.08,14.92,14.92,0,0,1,.41,7.95l0,.22c-.17.75-.33,1.48-.5,2.22-.34,1.3-.74,2.6-1.13,3.85l-.6,2a17.85,17.85,0,0,0-.4,1.93A10,10,0,0,1,92,236a4.51,4.51,0,0,1-.64.91A6.09,6.09,0,0,1,86.76,239ZM82,209.65a2.08,2.08,0,0,0-1.87,1c-1.76,2.7-.93,6.34-.19,9.55.17.74.33,1.45.46,2.13a20,20,0,0,1,0,5.57,23.91,23.91,0,0,0-.14,4.55,6.68,6.68,0,0,0,6.54,5.82,5.39,5.39,0,0,0,4.08-1.83,3.58,3.58,0,0,0,.55-.77,9.13,9.13,0,0,0,.79-2.86,16.56,16.56,0,0,1,.43-2c.19-.64.39-1.29.59-1.95.39-1.25.79-2.53,1.13-3.81.16-.72.32-1.46.49-2.2l0-.21a14.31,14.31,0,0,0-.36-7.53,7.66,7.66,0,0,0-2.25-2.18,9.66,9.66,0,0,0-3.31-1.11,18.32,18.32,0,0,1-2.15-.55c-.43-.16-.9-.36-1.39-.58A9.65,9.65,0,0,0,82,209.65Z"/><path class="cls-6" d="M191.82,221.72c-3.43-3.81-9.91-2.14-14.3-1.21a49,49,0,0,1-20.15,0c-7.48-1.45-7,6.7-6.59,11.47.55,6,.57,12.94,6.2,16.59,4,2.58,7.94,1.53,12.31,1.6,3.81.06,7.61,0,11.42-.06,3.12-.06,6.93.19,9.75-1.42,3.47-2,3.06-5.63,2.8-9.11-.37-5,2.12-12.46-.74-17A6,6,0,0,0,191.82,221.72Z"/><path class="cls-5" d="M163.72,250.69a12.07,12.07,0,0,1-6.93-1.81c-5.24-3.4-5.76-9.63-6.22-15.13,0-.58-.09-1.16-.14-1.73-.37-3.93-.47-8.26,1.6-10.53,1.21-1.33,3-1.78,5.41-1.32a48.16,48.16,0,0,0,20,0l.74-.16a34.72,34.72,0,0,1,7.2-1c3,0,5.17.82,6.69,2.5a7.76,7.76,0,0,1,.74,1c2,3.06,1.51,7.3,1.09,11.41a33,33,0,0,0-.29,5.71l0,.38c.26,3.46.53,7-3,9.05-2.5,1.43-5.71,1.44-8.54,1.46l-1.39,0c-2.78.05-5.22.08-7.46.08l-4,0h-.43c-.88,0-1.77,0-2.62.08S164.55,250.69,163.72,250.69Zm-8-30a4.06,4.06,0,0,0-3.17,1.26c-1.88,2.07-1.77,6.21-1.42,10l.15,1.73c.47,5.6.95,11.38,5.9,14.6a11.39,11.39,0,0,0,6.54,1.69c.81,0,1.62,0,2.47-.08s1.76-.08,2.66-.08h.45c1.31,0,2.63,0,3.95,0,2.24,0,4.67,0,7.45-.08h1.39c2.75,0,5.86,0,8.2-1.37,3.14-1.79,2.9-5,2.65-8.38l0-.39a35.4,35.4,0,0,1,.29-5.84c.41-4,.84-8.1-1-10.95a7.21,7.21,0,0,0-.66-.88c-1.38-1.52-3.39-2.27-6.17-2.27a34.44,34.44,0,0,0-7,1l-.75.16a48.82,48.82,0,0,1-20.29,0A9.1,9.1,0,0,0,155.72,220.7Z"/><path class="cls-6" d="M218.71,218.75c-1.79-2.14-4.73-1.57-7.47-1.39-6.09.4-15.74-.55-15.27,7.93.37,6.57,1,13.15,1.41,19.72.53,1.12,1,2.24,1.56,3.36,3,1.28,7,1.14,9.89,1,3.74-.19,8,.46,11.33-1.65,4.21-2.64,3-8.23,2.14-12.29a65.63,65.63,0,0,1-1.53-7.93c-.21-2.56-.25-5.39-1.42-7.74A5.72,5.72,0,0,0,218.71,218.75Z"/><path class="cls-5" d="M205.8,249.81a17.88,17.88,0,0,1-7-1.11.39.39,0,0,1-.18-.18c-.52-1.12-1-2.24-1.56-3.36a.31.31,0,0,1,0-.13c-.19-3-.42-6-.65-8.91-.27-3.54-.56-7.2-.76-10.81a6.88,6.88,0,0,1,1.56-5.19c2.47-2.69,7.27-2.86,11.5-3,.88,0,1.74-.06,2.54-.11l1-.08c.75-.06,1.53-.13,2.28-.13a5.44,5.44,0,0,1,4.46,1.72,5.86,5.86,0,0,1,.69,1.08,18.34,18.34,0,0,1,1.38,6.86c0,.34,0,.68.07,1a36.33,36.33,0,0,0,1,5.5c.18.8.37,1.6.53,2.39l0,.26c.83,4.09,2,9.69-2.35,12.4-2.65,1.66-5.87,1.67-8.47,1.67h-.71c-.75,0-1.55,0-2.33.05C207.9,249.77,206.87,249.81,205.8,249.81Zm-6.6-1.71a17.45,17.45,0,0,0,6.6,1c1.06,0,2.07-.05,3-.1.79,0,1.6,0,2.36,0h.71c2.5,0,5.62,0,8.09-1.56,3.91-2.45,2.88-7.55,2-11.66l-.06-.26c-.16-.79-.34-1.57-.52-2.37a38.27,38.27,0,0,1-1-5.6c0-.33,0-.67-.07-1a17.5,17.5,0,0,0-1.31-6.6,4.37,4.37,0,0,0-.6-.93c-.84-1-2.05-1.47-3.91-1.47-.72,0-1.48.06-2.22.12l-1,.08c-.81.06-1.67.08-2.57.12-4.09.14-8.73.29-11,2.77a6.05,6.05,0,0,0-1.38,4.67c.2,3.6.48,7.26.76,10.8.22,2.9.46,5.9.64,8.85Q198.48,246.51,199.2,248.1Z"/><path class="cls-6" d="M256.94,214.07c-2.8-3.72-8.47-2.69-12.65-1.94-5,.89-9.42,3.49-14.41,4.27-6.26,1-7.58,1.7-6.83,8.14.65,5.66,2.33,11.2,3.87,16.68,2.9,10.28,13,7.67,21.44,5.49,1.24-.32,4.07-.58,5-1.45,2.47-2.28,2.3-10.47,2.8-13.59.82-5.13,3.91-11.22,1.48-16.38A6.54,6.54,0,0,0,256.94,214.07Z"/><path class="cls-5" d="M237.06,249.06h0c-5.58,0-9-2.54-10.48-7.75l-.46-1.62a96.17,96.17,0,0,1-3.42-15.11c-.77-6.61.66-7.52,7.13-8.53a40.61,40.61,0,0,0,7.36-2.15,41.49,41.49,0,0,1,7-2.11,35.06,35.06,0,0,1,6.15-.74c3.18,0,5.42.92,6.84,2.81a7.09,7.09,0,0,1,.76,1.28c1.82,3.85.68,8.1-.43,12.2a44,44,0,0,0-1,4.38c-.13.78-.21,1.88-.3,3.15-.3,3.94-.66,8.85-2.61,10.65-.78.71-2.52,1-3.92,1.28-.48.08-.93.17-1.25.25C244.82,248,240.71,249.06,237.06,249.06Zm13.32-37.3a34.94,34.94,0,0,0-6,.71,43.53,43.53,0,0,0-7,2.09,40.88,40.88,0,0,1-7.49,2.19c-6.21,1-7.25,1.63-6.54,7.75a96.94,96.94,0,0,0,3.4,15l.46,1.62c1.39,4.93,4.5,7.23,9.8,7.23,3.56,0,7.62-1,11.21-2,.35-.1.81-.18,1.31-.27,1.24-.22,2.94-.53,3.56-1.1,1.74-1.61,2.11-6.56,2.38-10.18.1-1.29.18-2.4.31-3.21a45,45,0,0,1,1-4.46c1.07-4,2.18-8.09.47-11.71a6.35,6.35,0,0,0-.69-1.16C255.38,212.59,253.33,211.76,250.38,211.76Z"/><path class="cls-6" d="M286.52,206c-3.21-.41-8,3-11,3.54-4.4.81-11.39-.48-13.45,4.24-.38,1.73-.45,3.59-.74,5.36-1,5.74-2.58,11.46-2.6,17.34,0,5,2.41,5.76,6.73,4.38,4.63-1.47,9.23-3,14-4.22,3.19-.84,6.8-1.89,9-4.52,2.7-3.21,1.65-6.89,1.58-10.73S292.45,206.71,286.52,206Z"/><path class="cls-5" d="M262.22,241.77h0a3.5,3.5,0,0,1-2.62-1c-.86-.86-1.27-2.3-1.27-4.39A64.33,64.33,0,0,1,260,224c.33-1.63.67-3.33.94-5,.13-.74.21-1.51.29-2.26.12-1,.23-2.1.45-3.12,1.63-3.74,6-4,9.9-4.16a30.19,30.19,0,0,0,3.83-.35,20.79,20.79,0,0,0,4.21-1.58c2.41-1.09,4.94-2.22,6.95-2,5.06.64,4.4,7.9,4,12.71-.11,1.22-.2,2.27-.19,3s.07,1.61.12,2.4c.22,3,.43,5.92-1.79,8.56s-5.74,3.73-9.18,4.63c-4.33,1.14-8.6,2.51-12.73,3.82l-1.24.4A11.09,11.09,0,0,1,262.22,241.77ZM286,206.27c-1.76,0-3.94,1-6.05,1.93a20.83,20.83,0,0,1-4.37,1.63,30.29,30.29,0,0,1-3.92.36c-3.85.2-7.83.41-9.27,3.68-.19.91-.3,2-.42,3-.08.76-.16,1.54-.29,2.3-.28,1.67-.62,3.37-.95,5A63.77,63.77,0,0,0,259,236.43c0,1.9.34,3.17,1.06,3.89.94,1,2.57,1,5.21.15l1.23-.39c4.14-1.32,8.43-2.69,12.77-3.83,3.47-.92,6.75-1.94,8.82-4.41s1.84-5.16,1.63-8.05c-.06-.8-.12-1.62-.13-2.44s.08-1.87.19-3.11c.41-4.53,1-11.38-3.35-11.94A4.41,4.41,0,0,0,286,206.27Z"/><path class="cls-6" d="M147.05,232.9c-.34-3.62.91-8-.61-11.38-2.15-4.84-10.73-2.65-14.74-3-5.53-.5-11-1.53-16.45-2.51-4.26-.76-10-2.88-14-.46-3.37,2-3.42,7.52-4,11-.81,4.71-3,10.33-.48,14.89,3.4,6.12,13.22,6,19.21,6.18,4.79.13,9.58-.13,14.37-.06a127.86,127.86,0,0,1,14.89,1.32,4.67,4.67,0,0,0,2.17-1.7,13.68,13.68,0,0,0,1.25-2.55C148,240.72,147.43,236.83,147.05,232.9Z"/><path class="cls-5" d="M145.18,249.23h0a127.76,127.76,0,0,0-14.85-1.32c-2.19,0-4.39,0-6.58,0-2.6,0-5.2.08-7.8,0l-.92,0c-6.08-.14-15.26-.35-18.59-6.35-2.07-3.73-1.07-8.17-.19-12.09.24-1.06.47-2.06.63-3,.11-.61.2-1.29.29-2,.44-3.34,1-7.5,3.91-9.27a9,9,0,0,1,4.78-1.17,32.67,32.67,0,0,1,6.85,1c.93.21,1.81.41,2.64.56l1.38.25c4.91.88,10,1.8,15,2.26a30.66,30.66,0,0,0,3.75-.06c1.1-.06,2.23-.13,3.37-.13,3,0,6.57.39,7.91,3.42,1,2.26.85,4.87.69,7.39a25.67,25.67,0,0,0,0,4.1c.38,4,1,8,1.54,11.69a.37.37,0,0,1,0,.18,13.49,13.49,0,0,1-1.28,2.61,5,5,0,0,1-2.32,1.85A.4.4,0,0,1,145.18,249.23Zm-16.58-2,1.7,0a122.83,122.83,0,0,1,14.83,1.31,4.39,4.39,0,0,0,1.93-1.53,13.41,13.41,0,0,0,1.18-2.4c-.58-3.68-1.16-7.63-1.54-11.65a27,27,0,0,1,.05-4.21c.14-2.43.3-4.95-.63-7.06s-3.16-3-7.27-3c-1.12,0-2.24.06-3.33.12a30.29,30.29,0,0,1-3.85.06c-5.08-.46-10.18-1.38-15.1-2.26l-1.38-.25c-.85-.15-1.74-.35-2.68-.57a31.23,31.23,0,0,0-6.69-1,8.31,8.31,0,0,0-4.41,1.07c-2.63,1.59-3.16,5.56-3.58,8.75-.09.72-.18,1.4-.29,2-.17,1-.4,2-.64,3.06-.89,4-1.82,8.1.12,11.59,3.13,5.65,12.07,5.85,18,6l.92,0c2.59.07,5.18,0,7.77,0C125.33,247.21,127,247.18,128.6,247.18Z"/><path class="cls-7" d="M287.74,206.3v-7.48c1.75-2.55,1.65-5.56.73-8.51-.21-.67-.46-1.33-.74-2,0-1.94,0-3.91,0-5.88.07-.19.14-.38.2-.59a1,1,0,0,0,.58-.28c1.07-1,1.17-4.38,1.2-5.35.11-4.28-.33-8.56-.44-12.83a15.14,15.14,0,0,0-.11-2.07h-1.48c0-.66,0-1.33,0-2L82.24,158.09c0,2.35,0,4.69,0,7-.59-.33-1.19-.66-1.79-1,.65.34,0,8.43,0,9.39,0,1.29,0,2.58,0,3.86a5.84,5.84,0,0,1,2.74-1.76c2.83-.81,5.53.33,8.22,1.17,3.64,1.15,7.28,2.31,11,3.29,12.94,3.44,26.05,4.1,39.36,4.59,13.61.51,27.2,1.42,40.8,2.05a341.71,341.71,0,0,0,40.1-.42c11-.79,21.94-2.81,32.95-3.58,1-.19,2-.36,3.05-.51a31,31,0,0,1,7.3-.65c3.83.37,4.93,3.08,5.68,6.51a62.89,62.89,0,0,1,1.46,8.82c.14,2.06.35,4.48-.85,6.3-1.68,2.59-4.59,3.66-7.49,4.46,3.47-.09,7.32-.44,9.94,1.69a.42.42,0,0,1,0,.58c-.25.3-.48.62-.7.94,2.18-.05,4.81,0,5.86,2.13,1.23,2.52.5,6.08.22,8.74-.38,3.47-.12,7.14-1.28,10.48-1.11,3.17-3.51,4.36-5.76,6.39,2.26-.21,5.3-.59,5.95,2a17.52,17.52,0,0,1,.14,5.78c5.31-1.87,8.26-3.94,8.26-6.12.12-1.23.2-3.68.27-7.09a6.16,6.16,0,0,0,.33-.55,6.64,6.64,0,0,0,.51-.55c2.7-3.21,1.65-6.89,1.58-10.73C289.93,217.86,292.07,208.35,287.74,206.3Z"/><path class="cls-6" d="M294.43,138.34,291,139.43,98.85,138.34c-1.1-.31-22-3.74-23.24-.93s-.16,28.07-.16,28.07c0,9,49,16.38,109.49,16.38s109.49-7.34,109.49-16.38C295.2,156.9,294.43,138.34,294.43,138.34Z"/><path class="cls-5" d="M184.94,182.21c-61.59,0-109.84-7.35-109.84-16.73,0-1-1.08-25.37.18-28.22.25-.56,1.08-1.31,5.31-1.31a120.65,120.65,0,0,1,18.3,2l192.05,1.09,3.38-1.07a.34.34,0,0,1,.31,0,.37.37,0,0,1,.15.28c0,.18.77,18.68,0,27.18C294.78,174.86,246.53,182.21,184.94,182.21ZM80.59,136.66c-3.85,0-4.54.62-4.66.89-1,2.16-.5,19.2-.12,27.91,0,8.7,50,16,109.13,16s109.13-7.34,109.13-16c.7-7.73.13-23.73,0-26.66l-3,1-.11,0L98.84,138.7l-.09,0A123.05,123.05,0,0,0,80.59,136.66Z"/><path class="cls-6" d="M294.43,138.34,291,139.43,98.85,138.34c-1.1-.31-22-3.74-23.24-.93s-.16,28.07-.16,28.07c0,9,49,16.38,109.49,16.38s109.49-7.34,109.49-16.38C295.2,156.9,294.43,138.34,294.43,138.34Z"/><path class="cls-5" d="M184.94,182.21c-61.59,0-109.84-7.35-109.84-16.73,0-1-1.08-25.37.18-28.22.25-.56,1.08-1.31,5.31-1.31a120.65,120.65,0,0,1,18.3,2l192.05,1.09,3.38-1.07a.34.34,0,0,1,.31,0,.37.37,0,0,1,.15.28c0,.18.77,18.68,0,27.18C294.78,174.86,246.53,182.21,184.94,182.21ZM80.59,136.66c-3.85,0-4.54.62-4.66.89-1,2.16-.5,19.2-.12,27.91,0,8.7,50,16,109.13,16s109.13-7.34,109.13-16c.7-7.73.13-23.73,0-26.66l-3,1-.11,0L98.84,138.7l-.09,0A123.05,123.05,0,0,0,80.59,136.66Z"/><path class="cls-8" d="M294.43,138.34,291,139.43,98.85,138.34c-1.1-.31-22-3.74-23.24-.93s-.16,28.07-.16,28.07c0,9,49,16.38,109.49,16.38s109.49-7.34,109.49-16.38C295.2,156.9,294.43,138.34,294.43,138.34ZM232.3,164.13c-1.08,5.78-9.59,14.91-56.75,14s-84.37-7.29-90.16-9.68-6-8.56-6-8.56-.62-8,0-10.45,5.14-1.23,5.14-1.23,15.07,5,59.89,9.09S233.39,158.34,232.3,164.13Z"/><path class="cls-8" d="M294.43,138.34,291,139.43,98.85,138.34c-1.1-.31-22-3.74-23.24-.93s-.16,28.07-.16,28.07c0,9,49,16.38,109.49,16.38s109.49-7.34,109.49-16.38C295.2,156.9,294.43,138.34,294.43,138.34ZM232.3,164.13c-1.08,5.78-9.59,14.91-56.75,14s-84.37-7.29-90.16-9.68-6-8.56-6-8.56-.62-8,0-10.45,5.14-1.23,5.14-1.23,15.07,5,59.89,9.09S233.39,158.34,232.3,164.13Z"/><path class="cls-8" d="M294.43,138.34,291,139.43l-99.16-.56c3.43,3.62,8,6.36,12.33,8.55,9.06,4.57,19.22,6.39,29.21,7.54,4.24.49,8.51.58,12.75,1.06,3.05.35,7.32.78,9.36,3.42s2.37,6.31,2.78,9.52c.37,2.86.48,5.73.59,8.6,21.86-3,35.57-7.3,35.57-12.08C295.2,156.9,294.43,138.34,294.43,138.34Z"/><path class="cls-6" d="M294.43,138.34c0,9-49,16.38-109.49,16.38S75.45,147.39,75.45,138.34,124.47,122,184.94,122,294.43,129.3,294.43,138.34Z"/><path class="cls-9" d="M184.94,155.07c-61.59,0-109.84-7.35-109.84-16.73s48.25-16.73,109.84-16.73S294.78,129,294.78,138.34,246.53,155.07,184.94,155.07Zm0-32.75c-59.16,0-109.13,7.34-109.13,16s50,16,109.13,16,109.13-7.33,109.13-16S244.09,122.32,184.94,122.32Z"/><path class="cls-10" d="M266.79,137.33c0,6.76-36.64,12.24-81.85,12.24s-81.86-5.48-81.86-12.24,36.65-12.24,81.86-12.24S266.79,130.57,266.79,137.33Z"/><path class="cls-5" d="M184.94,149.93c-40.41,0-82.21-4.72-82.21-12.6,0-4.44,13.2-7.35,24.28-9,15.47-2.31,36.05-3.59,57.93-3.59,40.41,0,82.21,4.71,82.21,12.6,0,4.44-13.2,7.35-24.28,9C227.39,148.65,206.82,149.93,184.94,149.93Zm0-24.49c-21.85,0-42.38,1.27-57.83,3.58-21.37,3.2-23.67,6.88-23.67,8.31s2.3,5.11,23.67,8.31c15.44,2.31,36,3.58,57.83,3.58s42.38-1.27,57.83-3.58c21.36-3.2,23.67-6.88,23.67-8.31s-2.31-5.11-23.67-8.31C227.32,126.71,206.79,125.44,184.94,125.44Z"/><path class="cls-11" d="M184.94,125.09c-45.21,0-81.86,5.48-81.86,12.24s36.65,12.24,81.86,12.24,81.85-5.48,81.85-12.24S230.15,125.09,184.94,125.09Zm58.29,4.79c2.23-.09,5,.78,4.44,3.41a10.64,10.64,0,0,1-3,5c-.65.66-2.17,2.32-3.28,1.49a6.12,6.12,0,0,1-1.71-3.18,13.72,13.72,0,0,1-1-4.5C238.75,129.14,241.07,129.43,243.23,129.88Zm-119.58,7.6c-.14,3-1.55,5.31-4.88,5.27-2.91,0-7.77-.59-9.94-3a2.61,2.61,0,0,1-2.14-2.62c.1-2.32,3.57-3.59,5.33-4.2,2.65-.9,6.09-2,9-1.78C124,131.38,123.76,135.12,123.65,137.48Zm5.6,5.77a3.54,3.54,0,0,1-3.44.32c-1.35-.79-1.32-2.82-1.14-4.52-.16-1.79.12-4.49,1.6-4.29a3.89,3.89,0,0,1,2.5,2,8.94,8.94,0,0,1,1.57,2.95C130.58,141,130.54,142.55,129.25,143.25ZM132.3,138c-1.43-.93-5.71-3.76-4.24-6,.87-1.34,2.57-1.86,4.26-2.11a36.66,36.66,0,0,1,4.21-.53,40.08,40.08,0,0,1,7.17-.56c3.85.18,3.74,3.12,3.28,6.19s-1.46,5.83-4.83,6.3S134.91,139.71,132.3,138Zm21.89,1.68c-2-1.22-5.05-3.09-5.24-5.72s2.92-3.9,5.13-4.41a44.14,44.14,0,0,1,12.06-1.2,4.47,4.47,0,0,1,3.3,1.56c4.21,2.74,6.48,10.25,2.77,13.67C168.22,147.26,157.74,141.87,154.19,139.68Zm23.69-1.14c-2.62-1.6-4.34-6-5.11-8.86a1.59,1.59,0,0,1,.75-2c1.17-1.41,4.27-1.51,5.95-1.46,4.43.15,19.6-.44,21.64,1.71,1.76,1.84-.85,5.08-2,6.41a14,14,0,0,1-4.48,3.63c-2,.92-4.59.74-6.68,1.1C184.56,139.64,181,140.43,177.88,138.54Zm28.28,3.17c-1.88-2.24-3.65-5-3.78-8-.09-2.17.67-4.77,2.55-6,2.17-1.41,5-.94,7.37-.39,1.24.29,2.5.62,3.72,1,5.82,1.79,1.62,6.34-.42,9.63C213.45,141.43,210,146.28,206.16,141.71Zm17.61,2.23c-2.25-1.37-2.52-3.5-2.94-5.94s-1.12-5.92.52-8.15c.79-1.06,2.64-1.06,4.22-1,4.13-.59,9,.89,10.79,4.68s.66,8.89-3.78,9.88C230.28,144,225.93,145.24,223.77,143.94Zm35.72-3.37a46.83,46.83,0,0,1-8.81,2.08c-.9.11-2.7.43-3.28-.61-1-1.76.13-4.37.66-6.11.39-1.28.63-3.76,2-4.53s4.76,0,6.21.47a29.26,29.26,0,0,1,7.32,3.74.58.58,0,0,1,.26.35C266.22,138.05,262.05,139.7,259.49,140.57Z"/><path class="cls-11" d="M100.08,136.07c-2.35-1.51-5.31-1.46-8-1.53a36.11,36.11,0,0,0-4.41-.15,6.57,6.57,0,0,0-3,.69,23.05,23.05,0,0,0-4.12,2.21C79.41,138,79,139,80,140.12a5.4,5.4,0,0,0,2.53,1.34c1.54.49,3,1,4.55,1.55,2.62,1,5.59,0,8.22-.47,1.94-.36,5.12-.35,6.66-1.86S101.36,136.9,100.08,136.07Z"/><path class="cls-11" d="M290.27,136.07c-2.35-1.51-5.32-1.46-8-1.53a36.27,36.27,0,0,0-4.42-.15,6.55,6.55,0,0,0-2.94.69,23.05,23.05,0,0,0-4.12,2.21c-1.21.74-1.58,1.72-.68,2.83a5.49,5.49,0,0,0,2.54,1.34c1.54.49,3,1,4.55,1.55,2.61,1,5.59,0,8.22-.47,1.94-.36,5.12-.35,6.66-1.86S291.55,136.9,290.27,136.07Z"/><path class="cls-12" d="M305.19,60.91a4,4,0,0,1-3.94,4H73.31a4,4,0,0,1-3.94-4h0a4,4,0,0,1,3.94-4H301.25a4,4,0,0,1,3.94,4Z"/><path class="cls-13" d="M69.39,61.07a3.94,3.94,0,0,0,3.92,3.81H301.25a3.94,3.94,0,0,0,3.92-3.81Z"/><path class="cls-14" d="M70.77,60.44a3.67,3.67,0,0,1,3-2.58H298.17L95.1,59l37.9.71Z"/><path class="cls-13" d="M73.35,62.08H300s-57.55.7-89.37,1.87S95.34,62.31,73.35,62.08Z"/><rect class="cls-15" x="79.99" y="56.93" width="19.71" height="7.95"/><rect class="cls-15" x="104.22" y="56.93" width="163.26" height="7.95"/><rect class="cls-15" x="270.95" y="56.93" width="20.49" height="7.95"/><path class="cls-15" d="M301.25,56.93h-4.52v7.95h4.52a2.75,2.75,0,0,0,.4,0,1.35,1.35,0,0,0,.18,0l.2,0,.25-.06.12,0,.3-.11.05,0a4,4,0,0,0-1.5-7.65Z"/><path class="cls-16" d="M306.3,105.88v-51a6.61,6.61,0,0,0-4.36-.78s-1.41.22-1.67,1v50.58c.26.78,1.67,1,1.67,1A6.61,6.61,0,0,0,306.3,105.88Z"/><path class="cls-17" d="M305.66,55.09v50.4a1.51,1.51,0,0,1-.84.6V98.57l-.38,7.34a4.5,4.5,0,0,1-2,.29l-.06-28L303.22,92l1.09-37.39A2.42,2.42,0,0,1,305.66,55.09Z"/><path class="cls-17" d="M303.41,54.52a3.75,3.75,0,0,0-1.73.11l-.13,8.4-.44-8.23s-.52,0-.58.72l.51,50.22.77.28-.13-34.48,1.16,5.63Z"/><path class="cls-13" d="M302.93,54a8.85,8.85,0,0,0-1,.07s-1.41.22-1.67,1v50.58c.26.78,1.67,1,1.67,1a7,7,0,0,0,1,.07Z"/><path class="cls-18" d="M303.69,54.38s1.87,0,2.31.77v50.34l-.34-50.08-.52,16.67-.38-16.6-.38,3.7Z"/><path class="cls-18" d="M305.27,72.19V97.11S304.57,75.39,305.27,72.19Z"/><path class="cls-18" d="M304.25,79.45,304,103.71S303.54,82.66,304.25,79.45Z"/><path class="cls-18" d="M302.2,59.68s-.26,8.66.06,11.19C302.26,70.87,302.77,63.49,302.2,59.68Z"/><path class="cls-18" d="M301.06,68s-.19,10.53.05,13.61C301.11,81.59,301.5,72.62,301.06,68Z"/><path class="cls-18" d="M301.19,89.92s-.19,10.53.05,13.61C301.24,103.53,301.62,94.56,301.19,89.92Z"/><path class="cls-19" d="M306.67,99.39c0,2.39-.68,4.33-1.52,4.33s-1.52-1.94-1.52-4.33.68-4.33,1.52-4.33S306.67,97,306.67,99.39Z"/><path class="cls-16" d="M339.22,95.65H305.38a12.93,12.93,0,0,0-.52,5.12s.14,1.65.66,2h33.55c.52-.31.67-2,.67-2A12.93,12.93,0,0,0,339.22,95.65Z"/><path class="cls-17" d="M305.52,96.4H339a1.92,1.92,0,0,1,.41,1h-5l4.87.45a8.83,8.83,0,0,1,.19,2.34l-18.57.07,9.16-1L305.22,98A4.58,4.58,0,0,1,305.52,96.4Z"/><path class="cls-17" d="M305.15,99a7.83,7.83,0,0,0,.07,2l5.57.15-5.46.53s0,.6.48.67l33.31-.6.19-.9-22.87.15,3.73-1.36Z"/><path class="cls-13" d="M304.82,99.61c0,.36,0,.75,0,1.16,0,0,.14,1.65.66,2h33.55c.52-.31.67-2,.67-2,0-.41,0-.8,0-1.16Z"/><path class="cls-18" d="M305.05,98.72s0-2.21.51-2.71H339l-33.21.39,11.05.6-11,.45,2.46.46Z"/><path class="cls-18" d="M316.86,96.85H333.4S319,97.68,316.86,96.85Z"/><path class="cls-18" d="M321.69,98.06l16.08.3S323.81,98.88,321.69,98.06Z"/><path class="cls-18" d="M308.57,100.47s5.74.3,7.42-.08C316,100.39,311.1,99.79,308.57,100.47Z"/><path class="cls-18" d="M314.08,101.8s7,.22,9-.06A51.89,51.89,0,0,0,314.08,101.8Z"/><path class="cls-18" d="M328.63,101.65s7,.22,9-.06A52,52,0,0,0,328.63,101.65Z"/><path class="cls-20" d="M263.1,42.15l-.07,0v0h-153v0s0,0-.08,0c-1.88,0-3.4,8.83-3.4,19.72s1.52,19.72,3.4,19.72l.08,0v0H263v0l.07,0c1.88,0,3.41-8.83,3.41-19.72S265,42.15,263.1,42.15Z"/><path class="cls-21" d="M115.69,43.54h-5.15s-2.65,3.41-3,14.28h31.19l-31,1.92a41,41,0,0,0,.47,11.08l40.55-.64-40.09,2.56s.78,5.54,1.72,7.25H262.76s2-5.54,2-9.17L233,70.61l31.5-1.49a83.46,83.46,0,0,0-.31-14.92L248,54.63,264,52.92l-1.56-9Z"/><path class="cls-22" d="M221.11,43.85l-63.57-.19c-1.27,6.81-1,13.91-.88,20.79A102.13,102.13,0,0,0,157.94,80h63C221.84,67.91,223.31,55.8,221.11,43.85Z"/><path class="cls-22" d="M233,70.61l31.5-1.49a83.46,83.46,0,0,0-.31-14.92L248,54.63,264,52.92l-1.56-9-17.51-.05c.36.16.72.31,1.07.48,2.81,1.34,5.49,4.15,1.86,6.6-5.09,3.43-11.79,1.12-17.42,2.55,1.5.81,3.64,1,5.17,1.39a34.24,34.24,0,0,1,6.43,1.85c1.54.7,2.81,2,1.24,3.45-2.11,2-6.4,2-9.1,2.21-11.37,1-22.73,2.41-34.13,2.83-13.51.5-27,.18-40.53-.29-5.41-.19-10.82,0-16.23-.2-4.31-.12-9-.46-12.72-2.79a.41.41,0,0,1,0-.71c10.48-5,22.31-5.33,33.57-7.48-7.69-1.44-15.57-1.25-23.37-1.65a143.78,143.78,0,0,1-24.94-3.52c-.43-.1-.35-.65,0-.79,6.12-2.38,12.58-3.37,19-4.24l-19.2-.06h-5.15s-2.65,3.41-3,14.28h31.19l-31,1.92a41,41,0,0,0,.47,11.08l40.55-.64-40.09,2.56s.78,5.54,1.72,7.25H262.76s2-5.54,2-9.17Z"/><path class="cls-22" d="M264.56,67.84c-2,.58-4,1.09-6,1.56l5.88-.28S264.52,68.65,264.56,67.84Z"/><path class="cls-22" d="M117.47,70.4a78.66,78.66,0,0,1-9.65-2c.1.8.22,1.62.39,2.42l10.91-.17Z"/><path class="cls-22" d="M247.86,71.44c-25.08,3.87-50.79,4.65-76.14,4.1a310.72,310.72,0,0,1-37.58-2.65c-2.81-.4-5.61-.82-8.42-1.24l-17,1.09s.78,5.54,1.72,7.25H262.76s2-5.54,2-9.17l-12.72-.08C250.67,71,249.27,71.23,247.86,71.44Z"/><path class="cls-23" d="M161,149.17l3,0V42a2.42,2.42,0,0,0-2.8-2.42c-1.4.14-2.24.32-2.81,2.12v107.2C159.23,149,160.1,149.1,161,149.17Z"/><path class="cls-24" d="M161,149.18l2,0V41.53a2.33,2.33,0,0,0-3.76-.36V149Z"/><polygon class="cls-23" points="158.51 45.66 159.15 45.37 163.84 47.24 163.2 47.52 158.51 45.66"/><polygon class="cls-23" points="158.51 53.3 159.15 53.01 163.84 54.88 163.2 55.16 158.51 53.3"/><polygon class="cls-23" points="158.51 76.22 159.15 75.93 163.84 77.8 163.2 78.08 158.51 76.22"/><polygon class="cls-23" points="158.51 83.86 159.15 83.58 163.84 85.44 163.2 85.72 158.51 83.86"/><polygon class="cls-23" points="158.51 106.78 159.15 106.5 163.84 108.36 163.2 108.65 158.51 106.78"/><polygon class="cls-23" points="158.51 114.42 159.15 114.14 163.84 116.01 163.2 116.28 158.51 114.42"/><polygon class="cls-23" points="158.51 137.34 159.15 137.06 163.84 138.93 163.2 139.21 158.51 137.34"/><polygon class="cls-23" points="158.51 144.98 159.15 144.7 163.84 146.57 163.2 146.85 158.51 144.98"/><polygon class="cls-23" points="158.51 60.94 159.15 60.66 163.84 62.52 163.2 62.8 158.51 60.94"/><polygon class="cls-23" points="158.51 68.58 159.15 68.3 163.84 70.16 163.2 70.44 158.51 68.58"/><polygon class="cls-23" points="158.51 91.5 159.15 91.22 163.84 93.08 163.2 93.36 158.51 91.5"/><polygon class="cls-23" points="158.51 99.14 159.15 98.86 163.84 100.72 163.2 101.01 158.51 99.14"/><polygon class="cls-23" points="158.51 122.06 159.15 121.78 163.84 123.64 163.2 123.93 158.51 122.06"/><polygon class="cls-23" points="158.51 129.7 159.15 129.42 163.84 131.29 163.2 131.57 158.51 129.7"/><polygon class="cls-23" points="158.51 41.84 159.15 41.55 163.84 43.42 163.2 43.7 158.51 41.84"/><polygon class="cls-23" points="158.51 49.48 159.15 49.19 163.84 51.06 163.2 51.34 158.51 49.48"/><polygon class="cls-23" points="158.51 72.4 159.15 72.11 163.84 73.98 163.2 74.26 158.51 72.4"/><polygon class="cls-23" points="158.51 80.04 159.15 79.76 163.84 81.62 163.2 81.91 158.51 80.04"/><polygon class="cls-23" points="158.51 102.96 159.15 102.68 163.84 104.54 163.2 104.83 158.51 102.96"/><polygon class="cls-23" points="158.51 110.6 159.15 110.32 163.84 112.18 163.2 112.47 158.51 110.6"/><polygon class="cls-23" points="158.51 133.52 159.15 133.24 163.84 135.1 163.2 135.39 158.51 133.52"/><polygon class="cls-23" points="158.51 141.16 159.15 140.88 163.84 142.75 163.2 143.03 158.51 141.16"/><polygon class="cls-23" points="158.51 57.12 159.15 56.84 163.84 58.7 163.2 58.98 158.51 57.12"/><polygon class="cls-23" points="158.51 64.75 159.15 64.47 163.84 66.34 163.2 66.62 158.51 64.75"/><polygon class="cls-23" points="158.51 87.68 159.15 87.4 163.84 89.26 163.2 89.55 158.51 87.68"/><polygon class="cls-23" points="158.51 95.32 159.15 95.04 163.84 96.9 163.2 97.19 158.51 95.32"/><polygon class="cls-23" points="158.51 118.24 159.15 117.96 163.84 119.83 163.2 120.11 158.51 118.24"/><polygon class="cls-23" points="158.51 125.88 159.15 125.6 163.84 127.47 163.2 127.75 158.51 125.88"/><path class="cls-23" d="M160.74,149.15l-1.59-.63-.64.28.48.19Z"/><path class="cls-23" d="M167.91,83.71c1.34,0,2.46-.13,2.68-2.39L169.54,42a2.43,2.43,0,0,0-2.88-2.34c-1.4.18-2.23.38-2.75,2.2l1.54,40.33C165.68,83.54,166.8,83.75,167.91,83.71Z"/><path class="cls-24" d="M167.84,83.14a3.42,3.42,0,0,0,2-.68L168.6,41.54a2.33,2.33,0,0,0-3.78-.24l1.27,41.44A3.45,3.45,0,0,0,167.84,83.14Z"/><polygon class="cls-23" points="164.18 45.8 164.81 45.5 169.55 47.23 168.92 47.52 164.18 45.8"/><polygon class="cls-23" points="164.41 53.44 165.04 53.14 169.78 54.86 169.16 55.16 164.41 53.44"/><path class="cls-23" d="M170.22,77.68l-4.48-1.63-.18.08c0,.13,0,.26,0,.39l4.29,1.55.37-.18C170.23,77.82,170.22,77.75,170.22,77.68Z"/><polygon class="cls-23" points="164.65 61.07 165.28 60.77 170.02 62.5 169.39 62.8 164.65 61.07"/><polygon class="cls-23" points="164.88 68.71 165.51 68.41 170.25 70.13 169.62 70.43 164.88 68.71"/><polygon class="cls-23" points="164.06 41.98 164.69 41.68 169.44 43.41 168.81 43.71 164.06 41.98"/><polygon class="cls-23" points="164.3 49.62 164.93 49.32 169.67 51.04 169.04 51.34 164.3 49.62"/><path class="cls-23" d="M170.15,73.87l-4.45-1.61c0,.18,0,.36,0,.53l4,1.46.41-.19Z"/><path class="cls-23" d="M170.26,81.46l-4.4-1.59-.23.11c0,.11,0,.22,0,.34L170,81.89l.28-.13C170.26,81.66,170.26,81.56,170.26,81.46Z"/><polygon class="cls-23" points="164.53 57.26 165.16 56.96 169.9 58.68 169.27 58.98 164.53 57.26"/><polygon class="cls-23" points="164.76 64.89 165.39 64.59 170.13 66.32 169.5 66.62 164.76 64.89"/><path class="cls-25" d="M167.11,74.33a1.74,1.74,0,0,0,1.21-.53L167.57,42c-.58-1-1.68-1.18-2.28-.18L166.05,74A1.67,1.67,0,0,0,167.11,74.33Z"/><path class="cls-23" d="M174.16,83.71c1.34,0,2.46-.13,2.68-2.39L175.79,42a2.43,2.43,0,0,0-2.88-2.34c-1.4.18-2.23.38-2.75,2.2l1.53,40.33C171.93,83.54,173.05,83.75,174.16,83.71Z"/><path class="cls-24" d="M174.09,83.14a3.36,3.36,0,0,0,2-.68l-1.25-40.92a2.32,2.32,0,0,0-3.77-.24l1.27,41.44A3.45,3.45,0,0,0,174.09,83.14Z"/><polygon class="cls-23" points="170.43 45.8 171.06 45.5 175.8 47.23 175.17 47.52 170.43 45.8"/><polygon class="cls-23" points="170.66 53.44 171.29 53.14 176.03 54.86 175.4 55.16 170.66 53.44"/><path class="cls-23" d="M176.47,77.68,172,76.05l-.18.08c0,.13,0,.26,0,.39l4.28,1.55.38-.18C176.48,77.82,176.47,77.75,176.47,77.68Z"/><polygon class="cls-23" points="170.89 61.07 171.52 60.77 176.27 62.5 175.64 62.8 170.89 61.07"/><polygon class="cls-23" points="171.13 68.71 171.76 68.41 176.5 70.13 175.87 70.43 171.13 68.71"/><polygon class="cls-23" points="170.31 41.98 170.94 41.68 175.69 43.41 175.05 43.71 170.31 41.98"/><polygon class="cls-23" points="170.54 49.62 171.17 49.32 175.92 51.04 175.29 51.34 170.54 49.62"/><path class="cls-23" d="M176.4,73.87,172,72.26c0,.18,0,.36,0,.53l4,1.46.41-.19Z"/><path class="cls-23" d="M176.51,81.46l-4.4-1.59-.23.11c0,.11,0,.22,0,.34l4.33,1.57.28-.13C176.51,81.66,176.5,81.56,176.51,81.46Z"/><polygon class="cls-23" points="170.78 57.26 171.41 56.96 176.15 58.68 175.52 58.98 170.78 57.26"/><polygon class="cls-23" points="171.01 64.89 171.64 64.59 176.38 66.32 175.75 66.62 171.01 64.89"/><path class="cls-25" d="M173.36,74.33a1.74,1.74,0,0,0,1.21-.53L173.82,42c-.58-1-1.68-1.18-2.29-.18L172.3,74A1.67,1.67,0,0,0,173.36,74.33Z"/><path class="cls-23" d="M180.41,83.71c1.33,0,2.46-.13,2.68-2.39L182,42a2.44,2.44,0,0,0-2.89-2.34c-1.39.18-2.22.38-2.74,2.2l1.53,40.33C178.18,83.54,179.29,83.75,180.41,83.71Z"/><path class="cls-24" d="M180.34,83.14a3.36,3.36,0,0,0,2-.68l-1.25-40.92a2.32,2.32,0,0,0-3.77-.24l1.27,41.44A3.42,3.42,0,0,0,180.34,83.14Z"/><polygon class="cls-23" points="176.68 45.8 177.31 45.5 182.05 47.23 181.42 47.52 176.68 45.8"/><polygon class="cls-23" points="176.91 53.44 177.54 53.14 182.28 54.86 181.65 55.16 176.91 53.44"/><path class="cls-23" d="M182.72,77.68l-4.48-1.63-.18.08c0,.13,0,.26,0,.39l4.28,1.55.38-.18A1.48,1.48,0,0,1,182.72,77.68Z"/><polygon class="cls-23" points="177.14 61.07 177.77 60.77 182.51 62.5 181.88 62.8 177.14 61.07"/><polygon class="cls-23" points="177.38 68.71 178.01 68.41 182.75 70.13 182.12 70.43 177.38 68.71"/><polygon class="cls-23" points="176.56 41.98 177.19 41.68 181.93 43.41 181.3 43.71 176.56 41.98"/><polygon class="cls-23" points="176.79 49.62 177.42 49.32 182.16 51.04 181.53 51.34 176.79 49.62"/><path class="cls-23" d="M182.65,73.87l-4.45-1.61c0,.18,0,.36,0,.53l4,1.46.4-.19C182.64,74,182.65,73.93,182.65,73.87Z"/><path class="cls-23" d="M182.75,81.46l-4.39-1.59-.23.11c0,.11,0,.22,0,.34l4.33,1.57.28-.13Z"/><polygon class="cls-23" points="177.03 57.26 177.66 56.96 182.4 58.68 181.77 58.98 177.03 57.26"/><polygon class="cls-23" points="177.26 64.89 177.89 64.59 182.63 66.32 182 66.62 177.26 64.89"/><path class="cls-25" d="M179.61,74.33a1.77,1.77,0,0,0,1.21-.53L180.06,42c-.57-1-1.67-1.18-2.28-.18L178.55,74A1.67,1.67,0,0,0,179.61,74.33Z"/><path class="cls-23" d="M186.66,83.71c1.33,0,2.45-.13,2.68-2.39L188.28,42a2.42,2.42,0,0,0-2.88-2.34c-1.39.18-2.22.38-2.74,2.2l1.53,40.33C184.42,83.54,185.54,83.75,186.66,83.71Z"/><path class="cls-24" d="M186.59,83.14a3.39,3.39,0,0,0,2-.68l-1.25-40.92a2.32,2.32,0,0,0-3.77-.24l1.27,41.44A3.42,3.42,0,0,0,186.59,83.14Z"/><polygon class="cls-23" points="182.92 45.8 183.55 45.5 188.3 47.23 187.67 47.52 182.92 45.8"/><polygon class="cls-23" points="183.16 53.44 183.79 53.14 188.53 54.86 187.9 55.16 183.16 53.44"/><path class="cls-23" d="M189,77.68l-4.48-1.63-.19.08c0,.13,0,.26,0,.39l4.28,1.55.37-.18Z"/><polygon class="cls-23" points="183.39 61.07 184.02 60.77 188.76 62.5 188.13 62.8 183.39 61.07"/><polygon class="cls-23" points="183.62 68.71 184.25 68.41 189 70.13 188.37 70.43 183.62 68.71"/><polygon class="cls-23" points="182.81 41.98 183.44 41.68 188.18 43.41 187.55 43.71 182.81 41.98"/><polygon class="cls-23" points="183.04 49.62 183.67 49.32 188.41 51.04 187.78 51.34 183.04 49.62"/><path class="cls-23" d="M188.89,73.87l-4.44-1.61c0,.18,0,.36,0,.53l4,1.46.41-.19Z"/><path class="cls-23" d="M189,81.46l-4.4-1.59-.23.11c0,.11,0,.22,0,.34l4.33,1.57.28-.13Z"/><polygon class="cls-23" points="183.27 57.26 183.9 56.96 188.65 58.68 188.02 58.98 183.27 57.26"/><polygon class="cls-23" points="183.51 64.89 184.14 64.59 188.88 66.32 188.25 66.62 183.51 64.89"/><path class="cls-25" d="M185.85,74.33a1.78,1.78,0,0,0,1.22-.53L186.31,42c-.57-1-1.67-1.18-2.28-.18L184.8,74A1.66,1.66,0,0,0,185.85,74.33Z"/><path class="cls-23" d="M193.33,83.71c1.34,0,2.46-.13,2.68-2.39L195,42a2.43,2.43,0,0,0-2.88-2.34c-1.4.18-2.23.38-2.74,2.2l1.53,40.33C191.1,83.54,192.22,83.75,193.33,83.71Z"/><path class="cls-24" d="M193.26,83.14a3.42,3.42,0,0,0,2-.68L194,41.54a2.32,2.32,0,0,0-3.77-.24l1.26,41.44A3.45,3.45,0,0,0,193.26,83.14Z"/><polygon class="cls-23" points="189.6 45.8 190.23 45.5 194.97 47.23 194.34 47.52 189.6 45.8"/><polygon class="cls-23" points="189.83 53.44 190.46 53.14 195.21 54.86 194.58 55.16 189.83 53.44"/><path class="cls-23" d="M195.64,77.68l-4.48-1.63-.18.08c0,.13,0,.26,0,.39l4.29,1.55.37-.18A1.48,1.48,0,0,0,195.64,77.68Z"/><polygon class="cls-23" points="190.07 61.07 190.7 60.77 195.44 62.5 194.81 62.8 190.07 61.07"/><polygon class="cls-23" points="190.3 68.71 190.93 68.41 195.67 70.13 195.04 70.43 190.3 68.71"/><polygon class="cls-23" points="189.48 41.98 190.11 41.68 194.86 43.41 194.23 43.71 189.48 41.98"/><polygon class="cls-23" points="189.72 49.62 190.35 49.32 195.09 51.04 194.46 51.34 189.72 49.62"/><path class="cls-23" d="M195.57,73.87l-4.45-1.61c0,.18,0,.36,0,.53l4,1.46.41-.19Z"/><path class="cls-23" d="M195.68,81.46l-4.4-1.59-.23.11c0,.11,0,.22,0,.34l4.33,1.57.28-.13C195.68,81.66,195.68,81.56,195.68,81.46Z"/><polygon class="cls-23" points="189.95 57.26 190.58 56.96 195.32 58.68 194.69 58.98 189.95 57.26"/><polygon class="cls-23" points="190.18 64.89 190.81 64.59 195.56 66.32 194.93 66.62 190.18 64.89"/><path class="cls-25" d="M192.53,74.33a1.74,1.74,0,0,0,1.21-.53L193,42c-.58-1-1.68-1.18-2.29-.18L191.47,74A1.67,1.67,0,0,0,192.53,74.33Z"/><path class="cls-23" d="M199.58,83.71c1.34,0,2.46-.13,2.68-2.39l-1-39.3a2.43,2.43,0,0,0-2.88-2.34c-1.4.18-2.23.38-2.75,2.2l1.53,40.33C197.35,83.54,198.47,83.75,199.58,83.71Z"/><path class="cls-24" d="M199.51,83.14a3.36,3.36,0,0,0,2-.68l-1.24-40.92a2.33,2.33,0,0,0-3.78-.24l1.27,41.44A3.45,3.45,0,0,0,199.51,83.14Z"/><polygon class="cls-23" points="195.85 45.8 196.48 45.5 201.22 47.23 200.59 47.52 195.85 45.8"/><polygon class="cls-23" points="196.08 53.44 196.71 53.14 201.45 54.86 200.82 55.16 196.08 53.44"/><path class="cls-23" d="M201.89,77.68l-4.48-1.63-.18.08c0,.13,0,.26,0,.39l4.29,1.55.37-.18C201.9,77.82,201.89,77.75,201.89,77.68Z"/><polygon class="cls-23" points="196.31 61.07 196.95 60.77 201.69 62.5 201.06 62.8 196.31 61.07"/><polygon class="cls-23" points="196.55 68.71 197.18 68.41 201.92 70.13 201.29 70.43 196.55 68.71"/><polygon class="cls-23" points="195.73 41.98 196.36 41.68 201.1 43.41 200.47 43.71 195.73 41.98"/><polygon class="cls-23" points="195.97 49.62 196.6 49.32 201.34 51.04 200.71 51.34 195.97 49.62"/><path class="cls-23" d="M201.82,73.87l-4.45-1.61c0,.18,0,.36,0,.53l4,1.46.41-.19Z"/><path class="cls-23" d="M201.93,81.46l-4.4-1.59-.23.11c0,.11,0,.22,0,.34l4.33,1.57.28-.13C201.93,81.66,201.93,81.56,201.93,81.46Z"/><polygon class="cls-23" points="196.2 57.26 196.83 56.96 201.57 58.68 200.94 58.98 196.2 57.26"/><polygon class="cls-23" points="196.43 64.89 197.06 64.59 201.81 66.32 201.18 66.62 196.43 64.89"/><path class="cls-25" d="M198.78,74.33A1.74,1.74,0,0,0,200,73.8L199.24,42c-.58-1-1.68-1.18-2.28-.18L197.72,74A1.67,1.67,0,0,0,198.78,74.33Z"/><path class="cls-23" d="M205.83,83.71c1.33,0,2.46-.13,2.68-2.39L207.45,42a2.42,2.42,0,0,0-2.88-2.34c-1.39.18-2.22.38-2.74,2.2l1.53,40.33C203.6,83.54,204.72,83.75,205.83,83.71Z"/><path class="cls-24" d="M205.76,83.14a3.36,3.36,0,0,0,2-.68l-1.25-40.92a2.32,2.32,0,0,0-3.77-.24L204,82.74A3.42,3.42,0,0,0,205.76,83.14Z"/><polygon class="cls-23" points="202.1 45.8 202.73 45.5 207.47 47.23 206.84 47.52 202.1 45.8"/><polygon class="cls-23" points="202.33 53.44 202.96 53.14 207.7 54.86 207.07 55.16 202.33 53.44"/><path class="cls-23" d="M208.14,77.68l-4.48-1.63-.18.08c0,.13,0,.26,0,.39l4.28,1.55.38-.18A1.48,1.48,0,0,1,208.14,77.68Z"/><polygon class="cls-23" points="202.56 61.07 203.19 60.77 207.94 62.5 207.31 62.8 202.56 61.07"/><polygon class="cls-23" points="202.8 68.71 203.43 68.41 208.17 70.13 207.54 70.43 202.8 68.71"/><polygon class="cls-23" points="201.98 41.98 202.61 41.68 207.35 43.41 206.72 43.71 201.98 41.98"/><polygon class="cls-23" points="202.21 49.62 202.84 49.32 207.59 51.04 206.95 51.34 202.21 49.62"/><path class="cls-23" d="M208.07,73.87l-4.45-1.61c0,.18,0,.36,0,.53l4,1.46.42-.19Z"/><path class="cls-23" d="M208.18,81.46l-4.4-1.59-.23.11c0,.11,0,.22,0,.34l4.33,1.57.28-.13C208.17,81.66,208.17,81.56,208.18,81.46Z"/><polygon class="cls-23" points="202.45 57.26 203.08 56.96 207.82 58.68 207.19 58.98 202.45 57.26"/><polygon class="cls-23" points="202.68 64.89 203.31 64.59 208.05 66.32 207.42 66.62 202.68 64.89"/><path class="cls-25" d="M205,74.33a1.74,1.74,0,0,0,1.21-.53L205.48,42c-.57-1-1.67-1.18-2.28-.18L204,74A1.67,1.67,0,0,0,205,74.33Z"/><path class="cls-23" d="M212.07,83.71c1.34,0,2.46-.13,2.69-2.39L213.7,42a2.42,2.42,0,0,0-2.88-2.34c-1.39.18-2.22.38-2.74,2.2l1.53,40.33C209.84,83.54,211,83.75,212.07,83.71Z"/><path class="cls-24" d="M212,83.14a3.36,3.36,0,0,0,2-.68l-1.25-40.92A2.32,2.32,0,0,0,209,41.3l1.27,41.44A3.42,3.42,0,0,0,212,83.14Z"/><polygon class="cls-23" points="208.34 45.8 208.98 45.5 213.72 47.23 213.09 47.52 208.34 45.8"/><polygon class="cls-23" points="208.58 53.44 209.21 53.14 213.95 54.86 213.32 55.16 208.58 53.44"/><path class="cls-23" d="M214.39,77.68l-4.48-1.63-.18.08c0,.13,0,.26,0,.39L214,78.07l.38-.18A1.48,1.48,0,0,1,214.39,77.68Z"/><polygon class="cls-23" points="208.81 61.07 209.44 60.77 214.19 62.5 213.56 62.8 208.81 61.07"/><polygon class="cls-23" points="209.04 68.71 209.68 68.41 214.42 70.13 213.79 70.43 209.04 68.71"/><polygon class="cls-23" points="208.23 41.98 208.86 41.68 213.6 43.41 212.97 43.71 208.23 41.98"/><polygon class="cls-23" points="208.46 49.62 209.09 49.32 213.84 51.04 213.21 51.34 208.46 49.62"/><path class="cls-23" d="M214.31,73.87l-4.44-1.61c0,.18,0,.36,0,.53l4,1.46.4-.19Z"/><path class="cls-23" d="M214.42,81.46,210,79.87l-.23.11c0,.11,0,.22,0,.34l4.33,1.57.28-.13Z"/><polygon class="cls-23" points="208.69 57.26 209.32 56.96 214.07 58.68 213.44 58.98 208.69 57.26"/><polygon class="cls-23" points="208.93 64.89 209.56 64.59 214.3 66.32 213.67 66.62 208.93 64.89"/><path class="cls-25" d="M211.28,74.33a1.77,1.77,0,0,0,1.21-.53L211.73,42c-.57-1-1.67-1.18-2.28-.18L210.22,74A1.67,1.67,0,0,0,211.28,74.33Z"/><path class="cls-23" d="M218.75,83.71c1.34,0,2.46-.13,2.68-2.39L220.38,42a2.43,2.43,0,0,0-2.88-2.34c-1.4.18-2.22.38-2.74,2.2l1.53,40.33C216.52,83.54,217.64,83.75,218.75,83.71Z"/><path class="cls-24" d="M218.68,83.14a3.42,3.42,0,0,0,2-.68l-1.25-40.92a2.33,2.33,0,0,0-3.78-.24l1.27,41.44A3.47,3.47,0,0,0,218.68,83.14Z"/><polygon class="cls-23" points="215.02 45.8 215.65 45.5 220.39 47.23 219.76 47.52 215.02 45.8"/><polygon class="cls-23" points="215.25 53.44 215.88 53.14 220.63 54.86 220 55.16 215.25 53.44"/><path class="cls-23" d="M221.06,77.68l-4.48-1.63-.18.08c0,.13,0,.26,0,.39l4.29,1.55.37-.18C221.07,77.82,221.06,77.75,221.06,77.68Z"/><polygon class="cls-23" points="215.49 61.07 216.12 60.77 220.86 62.5 220.23 62.8 215.49 61.07"/><polygon class="cls-23" points="215.72 68.71 216.35 68.41 221.09 70.13 220.46 70.43 215.72 68.71"/><polygon class="cls-23" points="214.9 41.98 215.53 41.68 220.28 43.41 219.65 43.71 214.9 41.98"/><polygon class="cls-23" points="215.14 49.62 215.77 49.32 220.51 51.04 219.88 51.34 215.14 49.62"/><path class="cls-23" d="M221,73.87l-4.45-1.61c0,.18,0,.36,0,.53l4,1.46.41-.19Z"/><path class="cls-23" d="M221.1,81.46l-4.4-1.59-.23.11c0,.11,0,.22,0,.34l4.33,1.57.28-.13C221.1,81.66,221.1,81.56,221.1,81.46Z"/><polygon class="cls-23" points="215.37 57.26 216 56.96 220.74 58.68 220.11 58.98 215.37 57.26"/><polygon class="cls-23" points="215.6 64.89 216.23 64.59 220.98 66.32 220.35 66.62 215.6 64.89"/><path class="cls-25" d="M218,74.33a1.74,1.74,0,0,0,1.21-.53L218.41,42c-.57-1-1.68-1.18-2.28-.18L216.89,74A1.67,1.67,0,0,0,218,74.33Z"/><path class="cls-16" d="M96.66,138.5c0,3.79-13.72,3.79-13.72,0V10.61A6.87,6.87,0,0,1,89.8,3.74h0a6.87,6.87,0,0,1,6.86,6.87Z"/><path class="cls-17" d="M83.87,17,84,138.5a3.6,3.6,0,0,0,2.81,1.56l.47-18.72.46,18.87,3.59-.31L91.83,80,90,118.22l-.63-99.81L87,17.94s-.46,19-.46,18.56-.78-19-.78-19Z"/><polygon class="cls-17" points="93.86 17.78 92.53 139.28 95.34 138.58 94.64 17.62 93.86 17.78"/><polygon class="cls-17" points="90.42 17 92.3 17 91.83 75.8 90.42 17"/><path class="cls-18" d="M84.58,21.84l.23,115.33S88.09,65.58,84.58,21.84Z"/><path class="cls-13" d="M90.59,3.79V141.32c3.15-.13,6.07-1.07,6.07-2.82V10.61A6.86,6.86,0,0,0,90.59,3.79Z"/><path class="cls-18" d="M88.09,20.67l.46,52.87S86,31.43,88.09,20.67Z"/><path class="cls-18" d="M87.93,96l.38,40S86.22,104.14,87.93,96Z"/><path class="cls-16" d="M288,138.5c0,3.79-13.73,3.79-13.73,0V10.61a6.88,6.88,0,0,1,6.87-6.87h0A6.87,6.87,0,0,1,288,10.61Z"/><path class="cls-17" d="M275.24,17l.16,121.5a3.6,3.6,0,0,0,2.81,1.56l.46-18.72.47,18.87,3.59-.31L283.2,80l-1.88,38.21-.62-99.81-2.34-.47s-.47,19-.47,18.56-.77-19-.77-19Z"/><polygon class="cls-17" points="285.22 17.78 283.9 139.28 286.7 138.58 286 17.62 285.22 17.78"/><polygon class="cls-17" points="281.79 17 283.67 17 283.2 75.8 281.79 17"/><path class="cls-18" d="M275.94,21.84l.24,115.33S279.45,65.58,275.94,21.84Z"/><path class="cls-13" d="M282,3.79V141.32c3.15-.13,6.07-1.07,6.07-2.82V10.61A6.86,6.86,0,0,0,282,3.79Z"/><path class="cls-18" d="M279.45,20.67l.47,52.87S277.35,31.43,279.45,20.67Z"/><path class="cls-18" d="M279.3,96l.38,40S277.59,104.14,279.3,96Z"/><path class="cls-16" d="M294,0H70.62a10.94,10.94,0,0,0-3.43,10.61,5.88,5.88,0,0,0,4.36,4.05H293a5.9,5.9,0,0,0,4.37-4.05A10.94,10.94,0,0,0,294,0Z"/><path class="cls-17" d="M71.55,1.56H292.24s2.19.78,2.65,2H262l32.12.93a6.72,6.72,0,0,1,1.25,4.84l-122.59.15,60.52-2L69.52,4.84A4.45,4.45,0,0,1,71.55,1.56Z"/><path class="cls-17" d="M69.06,7s-.78,3,.46,4.21l36.81.31-36,1.09s0,1.25,3.11,1.41l219.91-1.25,1.25-1.87-151,.31,24.64-2.81Z"/><path class="cls-13" d="M66.89,8.2a10,10,0,0,0,.3,2.41,5.88,5.88,0,0,0,4.36,4.05H293a5.9,5.9,0,0,0,4.37-4.05,11.1,11.1,0,0,0,.3-2.41Z"/><path class="cls-18" d="M68.43,6.36s.24-4.56,3.4-5.62H292.24L73,1.56l73,1.25-72.68.93,16.22.94Z"/><path class="cls-18" d="M146.42,2.5H255.59S160.45,4.21,146.42,2.5Z"/><path class="cls-18" d="M178.23,5l106.22.63S192.27,6.71,178.23,5Z"/><path class="cls-18" d="M91.67,10s37.9.63,49-.15C140.65,9.83,108.36,8.58,91.67,10Z"/><path class="cls-18" d="M128,12.74s46.11.46,59.58-.12C187.59,12.62,148.31,11.68,128,12.74Z"/><path class="cls-18" d="M224.08,12.42s46.11.47,59.59-.11C283.67,12.31,244.39,11.37,224.08,12.42Z"/><path class="cls-26" d="M86,205.24c-.38-1.77-1-3.39-1.3-5.26a50.28,50.28,0,0,1,0-6.61c0-5.21,0-10.18-.93-15.3-.07-.36-.73.42-.74.62-.41,5.86-.6,11.67-.6,17.55,0,2.89-.22,8.28,2.79,9.81C85.64,206.23,86.08,205.54,86,205.24Z"/><path class="cls-26" d="M84,220.68A23.85,23.85,0,0,0,80.83,212c-.16-.28-.63.32-.61.51.41,3.33,1,6.6,1.45,9.91.52,3.58-.63,7.14,0,10.68.07.41.84-.43.87-.63a31.45,31.45,0,0,1,1-5.93A12.65,12.65,0,0,0,84,220.68Z"/><path class="cls-26" d="M103.63,217.14c-2.33,2.19-3.07,4.68-3.4,7.8-.41,3.92-3.34,9.07-.88,12.82.31.47,1-.52,1-.84-.07-4,1.26-6.92,2.1-10.67.66-2.9.18-6.3,1.54-9C104.17,216.94,103.82,217,103.63,217.14Z"/><path class="cls-26" d="M120,200c0-.08-.12,0-.18,0-1.54,1-2.41,3.79-3.26,5.33-1,1.79-1.85,4.8.29,6.12.25.16.66-.39.63-.61a13.31,13.31,0,0,1,1.28-7.42C118.93,202.91,120.32,200.51,120,200Z"/><path class="cls-26" d="M149.28,212c-1.54-2-3.45-3.56-4.69-5.84s-1.76-4.7-2.59-7.13c-.74-2.15-1.14-4.36-1.95-6.49-.68-1.8-2.28-2.93-3.82-3.94-.14-.1-.45.27-.37.4,4.84,7.39,3.77,19.48,12.93,23.6C149,212.72,149.44,212.22,149.28,212Z"/><path class="cls-26" d="M158.49,245.72c-3.44-4.25-3.89-8.4-3.92-13.75,0-2-.33-4-.47-6-.11-1.51.46-2.55.81-3.91.11-.4-.37-.11-.47,0-2.78,3.38-2.17,6-1.91,10.24.3,4.82,0,11.9,5.19,14.37C158.09,246.86,158.75,246.05,158.49,245.72Z"/><path class="cls-26" d="M184.78,203.17a7.24,7.24,0,0,0-2.69,4c-.73,2.6-2.81,5.93-1.82,8.71.21.59,1.16-.61,1.2-.88a42.43,42.43,0,0,1,3.59-11.61C185.18,203.14,185,203,184.78,203.17Z"/><path class="cls-26" d="M214.2,210.92c-2-1.1-4.27-1.76-6.29-3a28.24,28.24,0,0,1-5.56-4.85,64.87,64.87,0,0,0-5.2-5.29,34.1,34.1,0,0,0-6.47-4.22c-.22-.1-.63.38-.46.56,3.47,3.7,7.18,7.11,10.58,10.89s7.41,6.63,12.73,6.83C213.81,211.89,214.56,211.11,214.2,210.92Z"/><path class="cls-26" d="M199.63,221c.11-.58-.54-.19-.7,0a8,8,0,0,0-1.29,6.45c.62,3.21.91,6.44,1.24,9.68,0,.42.63-.26.65-.47.2-2.33.21-4.68.36-7C200.07,226.82,199.07,223.8,199.63,221Z"/><path class="cls-26" d="M227.54,228.18c-.5-2.32-2.4-6.56-1.22-8.84.21-.4-.21-.42-.43-.18a5.89,5.89,0,0,0-1.38,5.52c.47,2,1.26,4,1.87,6s.58,3.81,1.14,5.67c.12.43.88-.48.87-.74A37.64,37.64,0,0,0,227.54,228.18Z"/><path class="cls-26" d="M236.88,206.8a16.74,16.74,0,0,1-2.29-5.23c-.55-2.63-1-5.3-1.55-7.94-.06-.33-.73.38-.72.61.05,3.93-.64,11.53,3.64,13.56C236.34,208,237.08,207.16,236.88,206.8Z"/><path class="cls-26" d="M265.06,212.79a10.55,10.55,0,0,0-2.41,7.31,120,120,0,0,1-1,12.7c0,.31.5-.16.53-.32.67-3.33,1.52-6.64,2.06-10,.48-3-.27-6.81,1.23-9.53C265.77,212.47,265.34,212.44,265.06,212.79Z"/><path class="cls-26" d="M258.66,197.54c-.75,1.16-3.38,6.3-.77,6.84.47.09,1.13-.76,1.07-1.18a15.43,15.43,0,0,1-.36-2.62,12.73,12.73,0,0,1,.75-3.2C259.54,196.82,258.77,197.37,258.66,197.54Z"/><path class="cls-27" d="M360.34,25.22c0-.42.34-5,7.32-5.24,0,0-3.43.4-4,1.91,0,0,2.33-1.86,4.24-1.26s3,3.93,3,5-1.05,4.63-2.25,4.93a3.83,3.83,0,0,1-1.47,0,17.14,17.14,0,0,1,.94,1.67C370.91,38,368,43.57,365.69,43c-1.52-.4-1.94,2.18-1.94,2.18L349.06,33.24S354.45,22.08,360.34,25.22Z"/><path class="cls-28" d="M331.67,93c4.29-.43,9.39-1.18,11.42-2.43,3.1-1.89,8.45-9.82,11.76-15.61.09-.14.31-3.07.38-3.21,1.72-3.07,2.5-1.18,2.6-3.61a12.48,12.48,0,0,0-.4-3.88,10.08,10.08,0,0,0-1.75-3.49,2.06,2.06,0,0,0-.33-.4,8.09,8.09,0,0,0-2.25-1.91c-.56-.24-1.18,0-1.81.73v0a10.86,10.86,0,0,0-1.63,2.41.1.1,0,0,0-.05.07c-.12.21-.24.45-.38.71a.89.89,0,0,0-.09.16c-.26.55-.52,1.11-.78,1.7-2.9,6.33-5.09,16.79-7.66,19.65-1.11,1.23-7.1,2.76-11.13,4.55C326.66,89.77,328.81,93.33,331.67,93Z"/><path class="cls-29" d="M355.23,193.61l3.12,1.16s13.55-18.8,15.21-35.33a25.23,25.23,0,0,0-.44-8.46l.36-2.09c.11-.62.24-1.37.39-2.24.44-2.52,1.05-6,1.74-9.91,1.6-9.05,3.66-20.61,5.27-29.12l-.84-.27-9.1-2.93-1.88-6-6.77-1.79s-1.51,3-2.87,16.94c-.25,1.84-.47,3.86-.64,6.05a119.46,119.46,0,0,0,.64,24.49c.31,2.43.7,4.94,1.19,7.52a33.31,33.31,0,0,1,.26,7.42C360.19,172.6,355.23,193.61,355.23,193.61Z"/><path class="cls-30" d="M358.78,119.65l14.7,29.24c.11-.62.24-1.37.39-2.24.44-2.52,1.05-6,1.74-9.91,1.6-9.05,3.66-20.61,5.27-29.12l-.84-.27-9.1-2.93-1.88-6L359.8,96S358.78,114.08,358.78,119.65Z"/><path class="cls-29" d="M365.25,100.42l.34-2.92c5.7,1.51,20.94-4.24,20.94-4.24s5.53,4.86,4.8,16.5c-.35,5.69-1,29.83-1.68,37-.24,2.59-.45,4.43-.54,5.17h0a1,1,0,0,0,.16.63,33.48,33.48,0,0,1,2.5,5.24c6.63,17.67-1,39.43-1,39.43l-2-.8s-4.36-24.22-7.89-34.91a21.12,21.12,0,0,0-1.71-4.1c-1.54-2.48-3-6.54-4.26-11.36a278.68,278.68,0,0,1-5.73-30.15C369,115.91,365.25,100.42,365.25,100.42Z"/><path class="cls-28" d="M354.35,65a17.7,17.7,0,0,0,6.57,1.54c9.81.54,12-8.06,12.44-13.76a8.47,8.47,0,0,0-3.37-.43l-.8.06a2.89,2.89,0,0,1-2.52-1.1,20.63,20.63,0,0,1-3.3-7.54L363,44l-7.08,3.33s.75,2.3,1.31,4.5a23.71,23.71,0,0,1,.53,2.61,1.56,1.56,0,0,1-.94,1.62h0A48.66,48.66,0,0,0,354.35,65Z"/><path class="cls-31" d="M351.9,71.44c.07.19.15.39.24.58,2.49,5.35,7.08,27.51,7.08,27.51,1.41,4.28,29.94-.79,30-4.41,1.08-3.85-3.82-10-6.59-13.13a9.26,9.26,0,0,1-.92-1.24,8.69,8.69,0,0,1-1.26-3.66,128.43,128.43,0,0,1-.38-12.89h0l-1.55-1.12a13.89,13.89,0,0,1-1.88-1.57,2.82,2.82,0,0,1-.91-1.78,9.31,9.31,0,0,1,0-1.49c0-.24,0-.47.09-.71a20.21,20.21,0,0,1,1.42-4.75c-2.63-1.06-7.31-.43-7.31-.43s0,.26,0,.69c0,1.71,0,6.1-.55,6.93-.68,1-13.22,5.56-13.88,4.16s1.13-7.85,1.2-8.09h0a19.84,19.84,0,0,0-5.7,3C353.6,60.7,349.94,66.25,351.9,71.44Z"/><path class="cls-32" d="M355.87,47.3s.76,2.3,1.31,4.5c4.14-1.15,5.39-5.5,5.77-7.83Z"/><path class="cls-28" d="M355,49.73s9.9-2.29,8.38-8.43-1.27-10.57-7.65-9.36-7,3.84-7,6S352.39,50.17,355,49.73Z"/><path class="cls-27" d="M348.15,34.47c1.07-2.22,2.32-2.11,3.1-1.71a7.1,7.1,0,0,1,9.21-.79,12.09,12.09,0,0,0,5.56,6s-1.52,1.56-5.92,1.53A7.24,7.24,0,0,1,356.17,38a23.68,23.68,0,0,0,5.16,3.85c-5.52-1.06-9.22-7.45-9.6-8.12a8,8,0,0,0-1.43,3.4c-.1,1.68.48,5-.49,5.08C349.81,42.2,346.56,37.81,348.15,34.47Z"/><path class="cls-31" d="M351.07,59.06c-1.11,1-2.38,4.15-2.74,5.22,0,0,3.09-.11,4.34,2.26C352.67,66.54,352.68,57.66,351.07,59.06Z"/><path class="cls-33" d="M367.46,92.08c6-.06,11.14-6.33,14.27-11.33a8.69,8.69,0,0,1-1.26-3.66,128.43,128.43,0,0,1-.38-12.89h0l-1.55-1.12a13.89,13.89,0,0,1-1.88-1.57C371.72,69.86,359.28,92.17,367.46,92.08Z"/><path class="cls-34" d="M379.2,198.84h15.71a8.61,8.61,0,0,0-.44-4.21c-.79-1.74-2-2.53-1.72-4.64a5.68,5.68,0,0,1-4.9,1.87,17.13,17.13,0,0,1-2.73,3.53C384.1,196.13,379.52,195.87,379.2,198.84Z"/><path class="cls-34" d="M345.46,198.84h15.72a6.56,6.56,0,0,0-.45-4.21c-.91-1.51-.56-2.37.11-3.62a5.93,5.93,0,0,1-2.64.5,5.53,5.53,0,0,1-2.34-.82,54.83,54.83,0,0,1-4.48,4.7C350.36,196.13,345.78,195.87,345.46,198.84Z"/><path class="cls-28" d="M343.37,96.32l.64,2.44s7.84-1.65,9.57-2h0c2.95-.7,6.26-1.55,9-2.5a24.81,24.81,0,0,0,4.82-2.15,3.29,3.29,0,0,0,.33-.23c2.76-2,6-7.91,8.59-14.24.36-.87.69-1.75,1-2.6a65,65,0,0,0,2.69-9,26.07,26.07,0,0,0,.64-4.27c0-.43,0-.83,0-1.21-.05-6.84-3.45-7.79-3.45-7.79l-.23-.07c-.59-.09-1.21.31-1.84,1.09a21,21,0,0,0-2.53,4.46c-1.35,3-2.76,7-4.08,10.91-.74,2.15-1.44,4.29-2.15,6.28-.4,1.2-.81,2.34-1.18,3.37a32.24,32.24,0,0,1-2,4.61A11.31,11.31,0,0,1,360.4,86C357.9,87.86,343.37,96.32,343.37,96.32Z"/><path class="cls-31" d="M372,58.52c4.55-1.26,8.76,2,8.76,2-.06-6.84-3.46-7.78-3.46-7.78C375.93,52.22,373.64,54.85,372,58.52Z"/><path class="cls-28" d="M344.89,95.43a38,38,0,0,0-4.77,2.17,9.9,9.9,0,0,0-2.53,3.63.43.43,0,0,0,.42.42c.39,0,1.29-1.53,1.94-1.28a13.59,13.59,0,0,1-1.32,2.54c-.49.51-.77,3.09-.67,3.65s3.47-2.11,4.88-3.32c.75-.65.72-2.22,1-4,.2-1.56,4.49-2.45,4.49-2.45Z"/><path class="cls-28" d="M326,92.08S324,94,324.56,96s2.73,2.26,3.08,1.19S327.1,91.7,326,92.08Z"/><path class="cls-34" d="M56.08,242.42h-19c-1.35-.92.37-9.93.37-9.93s5.17-2,6.07,2,6.58,5.26,9.6,5.75C55.22,240.6,55.87,241.73,56.08,242.42Z"/><path class="cls-31" d="M52.94,142.46l-8.85,91.9s-1.85,2.85-7.73.93a168.37,168.37,0,0,1-5.9-31.79l-.06-.83c-.45-6.12-1-14.65-1.49-23.1-.92-15.35-1.74-30.47-1.74-30.47Z"/><path class="cls-33" d="M41.53,160s-3,20.47-4.08,26.69c-2.23,13.25-7,16.77-7,16.77l-.06-.83c-.45-6.12-1-14.65-1.49-23.1Z"/><path class="cls-28" d="M84.32,118s1.75-2.13,2.7-2.43,2.77-1.72,3-1.13-1.23,1.48-1.15,2.15c0,.29,1.17.3,2.42.29,1.6,0,3.54-.88,3.61-.49.26,1.42-1.83,4-4,4.24-1.75.19-4.19-.18-7.11.13C82.79,120.85,84.32,118,84.32,118Z"/><path class="cls-29" d="M85.52,121.11c-.06.17-6.36,1.23-11.81,2-3.22.45-6.13.8-7.31.82-2.57,0-7.48-.84-13.29-3.28A56.72,56.72,0,0,1,42.82,115c-3.12-2.16-3.21-3.86-5.8-7.34-8-10.8,2.52-15.36,8.33-13.29,4,1.43,6.46,3.87,8.64,7.18,2.57,3.91,4.68,8.27,11.1,12,4.83,2.84,19.24,3.61,19.24,3.61a3,3,0,0,1,1.06,1.66A8.8,8.8,0,0,1,85.52,121.11Z"/><path class="cls-34" d="M28,242.42H9c-1.35-.92.37-9.93.37-9.93s5.17-2,6.07,2,6.59,5.26,9.6,5.75C27.11,240.6,27.76,241.73,28,242.42Z"/><path class="cls-31" d="M45.83,146.9l-28.7,87.84s-6.11,1.63-9.24-1.69c0,0,.73-31,4.65-41.55,3.17-8.56,1.63-54.76,15.68-55.15S45.83,146.9,45.83,146.9Z"/><path class="cls-29" d="M52.4,147.46c-4.43,2.28-10.18,3.88-19.66,3.26-9.11-.59-14.68-3.09-14.4-5.27.14-1.08.28-2.2.4-3.36a84.76,84.76,0,0,0-.32-19.56c-.27-2.22-.61-4.58-.9-6.64h0a45.36,45.36,0,0,1-.59-5.32s2.88-13,5-15a9.28,9.28,0,0,1,3.28-1.87h0c6.51-2.34,18.48-1.81,23.78,2.77.72.63,3.27,5,3.34,9.62C52.48,112.55,55.27,146,52.4,147.46Z"/><path class="cls-28" d="M29.87,93.18c-.66-.82,1.19-2.36.36-8.39a4.22,4.22,0,0,1,1.49.24c2.69.64,8.09,2.17,8.33,2.24h0s.07,1.27.29,3.54q0,.3.06.63c0,.26.05.55.09.84C41.13,96.82,32.92,97.05,29.87,93.18Z"/><path class="cls-35" d="M40.34,90.81c-4,.92-10-5-10-5A7,7,0,0,1,31.72,85c2.69.64,8.09,2.17,8.33,2.24h0S40.12,88.54,40.34,90.81Z"/><path class="cls-28" d="M41.71,87a20.4,20.4,0,0,1-3.75.87c-3.08.42-7.12.17-8.39-3.55C27.43,78,24.7,74.26,31,71.71c3.37-1.37,5.53-1.44,7-.92A5.08,5.08,0,0,1,40.57,73C41.79,75,44.25,85.85,41.71,87Z"/><path class="cls-34" d="M40.32,67.81a3.5,3.5,0,0,1-2.09,6.1,10.44,10.44,0,0,0-3,.35c-1.56.7-1.84,3.33-1.87,4.16s-.14,1.54-2.27,1a1.07,1.07,0,0,0-.77,0c-.88.53.25,3.06.59,3.61,0,0,.49,1.82-.6,2.7-.13.11-2.26,1-7.4-6.82a7.31,7.31,0,0,1-.33-6.7c1.24-2.67,6.36-5.61,10.87-6.63A7.57,7.57,0,0,1,40.32,67.81Z"/><path class="cls-36" d="M41.75,82.91s.14.81-1.75,1.45c0,0-1.58.55-1.87-.28A5.36,5.36,0,0,1,41.75,82.91Z"/><path class="cls-30" d="M73.71,123.1c-3.22.45-6.13.8-7.31.82-2.57,0-7.48-.84-13.29-3.28-.23-.83-.47-6,0-6.36,1.53-1.06,4.59,4.92,9.72,6.47A89.52,89.52,0,0,0,73.71,123.1Z"/><path class="cls-30" d="M20.41,142.52a1.6,1.6,0,0,1-1.67-.43,84.76,84.76,0,0,0-.32-19.56c-.27-2.22-.61-4.58-.9-6.64h0s4.29-3.69,5.77-.64-2.74,11.16-.42,16S23,141.79,20.41,142.52Z"/><path class="cls-28" d="M14,139.66s2.33,1.69,2.92,1.59c1.75-.29,2.65-1.72,4.27-1.58s5.05,2,4.65,2.36c-1.44,1.51-3.66.69-4.7,1.61-.73.64-1.16,2-3.79,1.7a10,10,0,0,1-5-2.43Z"/><path class="cls-29" d="M25.26,93.65A35.64,35.64,0,0,0,7.89,106.44c-7.22,10-9.56,16.67-6.71,21.65s8.37,13.77,13.74,17.47c0,0,2.68-.57,2.47-4.68,0,0-6.59-14-6.35-15.95.44-3.54,9.82-12.52,11.88-14.37S25.26,93.65,25.26,93.65Z"/><path class="cls-28" d="M18,141.05a19,19,0,0,0,1.33-2.33c.16-.53.42.27.31.82a2.09,2.09,0,0,0,0,1Z"/></g></g></svg>