<?xml version="1.0" encoding="UTF-8" standalone="no"?>
<svg
   xmlns:dc="http://purl.org/dc/elements/1.1/"
   xmlns:cc="http://creativecommons.org/ns#"
   xmlns:rdf="http://www.w3.org/1999/02/22-rdf-syntax-ns#"
   xmlns:svg="http://www.w3.org/2000/svg"
   xmlns="http://www.w3.org/2000/svg"
   viewBox="0 0 400 400"
   height="400"
   width="400"
   xml:space="preserve"
   id="svg2"
   version="1.1"><metadata
     id="metadata8"><rdf:RDF><cc:Work
         rdf:about=""><dc:format>image/svg+xml</dc:format><dc:type
           rdf:resource="http://purl.org/dc/dcmitype/StillImage" /></cc:Work></rdf:RDF></metadata><defs
     id="defs6"><clipPath
       id="clipPath18"
       clipPathUnits="userSpaceOnUse"><path
         id="path16"
         d="M 0,300 H 300 V 0 H 0 Z" /></clipPath><clipPath
       id="clipPath30"
       clipPathUnits="userSpaceOnUse"><path
         id="path28"
         d="M 36.604,117.896 C 36.604,55.379 87.284,4.698 149.802,4.698 v 0 C 212.32,4.698 263,55.379 263,117.896 v 0 c 0,21.625 -6.064,41.833 -16.584,59.018 v 0 L 53.234,176.99 c -10.549,-17.2 -16.63,-37.437 -16.63,-59.094" /></clipPath><clipPath
       id="clipPath90"
       clipPathUnits="userSpaceOnUse"><path
         id="path88"
         d="M 0,300 H 300 V 0 H 0 Z" /></clipPath><clipPath
       id="clipPath98"
       clipPathUnits="userSpaceOnUse"><path
         id="path96"
         d="M 89.0081,73.8344 H 254.104 V 4.69807 H 89.0081 Z" /></clipPath><clipPath
       id="clipPath158"
       clipPathUnits="userSpaceOnUse"><path
         id="path156"
         d="m 92.3397,248.646 h 27.3943 v -12.12 H 92.3397 Z" /></clipPath><clipPath
       id="clipPath338"
       clipPathUnits="userSpaceOnUse"><path
         id="path336"
         d="m 141.533,216.652 h 7.107 v -9.95 h -7.107 z" /></clipPath><clipPath
       id="clipPath354"
       clipPathUnits="userSpaceOnUse"><path
         id="path352"
         d="m 177.819,228.125 h 18.856 v -4.528 h -18.856 z" /></clipPath><clipPath
       id="clipPath390"
       clipPathUnits="userSpaceOnUse"><path
         id="path388"
         d="m 172.105,251.295 h 3.93 v -3.93 h -3.93 z" /></clipPath><clipPath
       id="clipPath410"
       clipPathUnits="userSpaceOnUse"><path
         id="path408"
         d="m 163.904,253.039 h 3.93 v -3.93 h -3.93 z" /></clipPath><clipPath
       id="clipPath430"
       clipPathUnits="userSpaceOnUse"><path
         id="path428"
         d="m 163.991,260.815 h 5.194 v -6.211 h -5.194 z" /></clipPath><clipPath
       id="clipPath446"
       clipPathUnits="userSpaceOnUse"><path
         id="path444"
         d="m 172.86,258.321 h 6.317 v -5.249 h -6.317 z" /></clipPath><clipPath
       id="clipPath462"
       clipPathUnits="userSpaceOnUse"><path
         id="path460"
         d="m 151.601,263.151 h 7.448 v -6.604 h -7.448 z" /></clipPath><clipPath
       id="clipPath478"
       clipPathUnits="userSpaceOnUse"><path
         id="path476"
         d="m 173.025,274.356 h 10.798 v -10.36 h -10.798 z" /></clipPath><clipPath
       id="clipPath538"
       clipPathUnits="userSpaceOnUse"><path
         id="path536"
         d="m 93.347,251.344 h 7.027 v -1.558 h -7.027 z" /></clipPath><clipPath
       id="clipPath590"
       clipPathUnits="userSpaceOnUse"><path
         id="path588"
         d="m 213.013,231.578 h 14.322 v -8.34 h -14.322 z" /></clipPath><clipPath
       id="clipPath606"
       clipPathUnits="userSpaceOnUse"><path
         id="path604"
         d="m 192.492,247.027 h 6.095 v -2.128 h -6.095 z" /></clipPath></defs><g
     transform="matrix(1.3333333,0,0,-1.3333333,0,400)"
     id="g10"><g
       id="g12"><g
         clip-path="url(#clipPath18)"
         id="g14"><g
           transform="translate(53.2341,176.9907)"
           id="g20"><path
             id="path22"
             style="fill:#5ddbf8;fill-opacity:1;fill-rule:nonzero;stroke:none"
             d="m 0,0 c -10.549,-17.201 -16.63,-37.438 -16.63,-59.094 0,-62.518 50.68,-113.199 113.198,-113.199 62.517,0 113.198,50.681 113.198,113.199 0,21.624 -6.064,41.833 -16.584,59.017 z" /></g></g></g><g
       id="g24"><g
         clip-path="url(#clipPath30)"
         id="g26"><g
           transform="translate(129.381,70.537)"
           id="g32"><path
             id="path34"
             style="fill:#00bb7a;fill-opacity:1;fill-rule:nonzero;stroke:none"
             d="m 0,0 c -1.408,0.847 -3.04,1.226 -4.643,1.583 -1.022,0.228 -2.044,0.451 -3.067,0.675 -2.956,0.646 -5.913,1.292 -8.869,1.938 -1.175,0.257 -2.578,0.734 -2.803,1.916 -0.132,0.695 0.216,1.378 0.376,2.066 0.161,0.688 0.01,1.593 -0.664,1.806 -0.692,1.94 -2.793,3.133 -4.679,3.961 -1.886,0.829 -3.921,1.346 -5.67,2.434 -1.595,0.993 -2.9,2.447 -3.713,4.14 -1.256,2.613 -5.613,2.502 -8.497,2.214 -1.196,-0.12 -2.365,-0.43 -3.527,-0.739 -2.284,-0.607 -4.567,-1.214 -6.851,-1.821 -0.237,-0.063 -0.481,-0.122 -0.727,-0.179 -0.007,-0.002 -0.011,-0.004 -0.018,-0.006 -0.032,-0.008 -0.06,-0.01 -0.092,-0.018 -0.199,-0.043 -0.399,-0.081 -0.6,-0.114 -2.6,-0.437 -4.412,0.585 -4.816,0.734 l 0.002,0.005 c -0.704,0.303 -1.372,0.785 -1.841,1.266 -0.796,0.817 -1.165,1.974 -1.239,3.113 -0.073,1.138 -0.083,2.237 0.011,3.373 0.078,0.934 -0.854,1.675 -1.774,1.852 -0.92,0.178 -1.871,-0.015 -2.806,0.044 -0.936,0.059 -1.971,0.491 -2.248,1.386 -0.171,0.552 -0.013,1.146 0.166,1.695 0.451,1.382 0.667,3.159 1.872,3.972 0.722,0.487 1.576,1.185 1.352,2.025 -0.129,0.485 -0.617,0.814 -1.116,0.875 -0.497,0.061 -0.998,-0.102 -1.446,-0.328 -2.34,-1.181 -3.754,-4.091 -6.351,-4.449 -2.179,-0.301 -4.206,1.496 -4.935,3.572 -0.728,2.076 -0.57,4.448 -0.476,6.646 0.101,2.342 1.85,4.52 4.114,5.123 1.105,0.294 2.267,0.24 3.407,0.327 1.139,0.086 2.09,0.788 3.162,1.182 1.532,0.563 3.33,0.339 4.676,-0.583 2.105,-1.443 2.83,-4.166 4.297,-6.255 0.396,-0.564 1.017,-1.144 1.682,-0.959 0.508,0.141 0.804,0.703 0.81,1.23 0.006,0.528 0.07,1.224 0.043,1.75 -0.073,1.409 -0.145,2.829 0.061,4.225 0.205,1.396 0.712,2.782 1.664,3.823 1.532,1.673 4.226,2.186 4.765,4.389 0.431,1.766 1.864,3.107 3.365,4.134 1.501,1.026 3.156,1.865 4.428,3.163 1.068,1.09 1.669,2.497 2.365,3.855 0.943,1.84 2.81,3.177 4.856,3.477 1.451,0.214 3.197,0.045 4.096,1.204 0.7,0.9 0.498,2.237 -0.088,3.216 -0.586,0.978 -1.484,1.723 -2.228,2.588 -0.744,0.864 -1.38,1.935 -1.225,3.065 0.153,1.114 1.035,2.027 2.059,2.494 1.024,0.467 2.176,0.558 3.301,0.58 2.029,0.039 4.112,-0.118 6.04,0.518 1.927,0.636 3.694,2.348 3.599,4.375 -0.09,1.91 -1.699,3.336 -3.068,4.67 -0.575,0.559 -1.116,1.275 -1.516,2.047 -0.017,0.03 -0.035,0.051 -0.052,0.083 -0.04,0.076 -0.064,0.15 -0.101,0.226 -0.031,0.069 -0.064,0.136 -0.092,0.206 -1.018,2.261 -0.596,4.245 -0.561,4.827 0.056,0.71 0.01,1.549 -0.575,1.954 -0.707,0.489 -1.675,0.005 -2.315,-0.57 -0.639,-0.574 -1.298,-1.292 -2.158,-1.288 -1.066,0.005 -1.787,1.16 -1.882,2.222 -0.095,1.062 0.211,2.127 0.149,3.191 -0.109,1.877 -1.827,3.03 -3.27,4.235 -1.032,0.862 -2.57,1.243 -3.751,0.599 -0.845,-0.462 -1.362,-1.34 -1.838,-2.177 -0.957,-1.682 -1.937,-3.436 -2.088,-5.366 -0.109,-1.397 0.226,-2.805 0.085,-4.2 -0.072,-0.713 -0.322,-1.546 -0.733,-2.216 -0.005,-0.007 -0.004,-0.012 -0.009,-0.019 -0.624,-0.975 -1.608,-2.697 -1.662,-3.523 -0.118,-1.279 -0.373,-2.546 -0.799,-3.758 -0.187,-0.534 -0.443,-1.101 -0.949,-1.354 -0.717,-0.357 -1.618,0.115 -2.035,0.799 -0.417,0.683 -0.488,1.514 -0.603,2.306 -0.803,5.485 -4.561,10.604 -9.518,13.085 -1.95,0.977 -2.472,3.685 -1.681,5.717 0.791,2.032 2.531,3.523 4.244,4.872 3.277,2.58 6.729,4.673 10.092,7.14 1.35,0.991 2.7,1.981 4.051,2.972 1.221,0.896 2.509,1.88 2.999,3.313 0.26,0.759 0.268,1.579 0.427,2.366 0.158,0.786 0.524,1.603 1.238,1.969 1.205,0.617 2.605,-0.34 3.541,-1.318 1.382,-1.442 2.246,-3.222 3.262,-4.932 0.006,-0.009 0.008,-0.016 0.014,-0.026 1.39,-2.398 0.181,-4.171 -0.973,-4.801 v 0 c -1.635,-0.892 -3.271,-1.785 -4.907,-2.677 -0.653,-0.356 -1.413,-0.953 -1.199,-1.664 0.228,-0.755 1.257,-0.774 2.038,-0.883 1.367,-0.19 2.544,-1.115 3.35,-2.235 0.806,-1.121 1.826,-2.321 2.141,-3.665 0.26,-1.106 1.524,-1.8 2.643,-1.601 1.118,0.199 2.013,1.142 2.358,2.224 0.344,1.083 0.199,2.273 -0.189,3.341 -0.389,1.067 -0.374,2.427 -1.231,3.173 -0.507,0.442 -0.278,1.432 0.373,1.606 0.5,0.133 1.019,-0.167 1.371,-0.545 0.353,-0.379 0.61,-0.843 0.992,-1.191 0.627,-0.572 1.654,-0.685 2.519,-0.413 0.447,0.184 1.289,0.802 0.771,2.453 0,0.001 0,0.001 0,0.001 -0.617,1.874 -1.234,3.748 -1.852,5.622 -0.593,1.802 -1.186,3.603 -1.779,5.404 -0.48,1.456 -1.229,2.835 -2.536,3.637 -2.574,1.581 -4.739,3.821 -6.232,6.447 -0.651,1.145 -1.186,2.376 -2.064,3.358 -0.878,0.982 -2.646,2.56 -3.737,1.822 -2.06,-1.394 -3.637,-3.489 -4.407,-5.855 -0.298,-0.917 -0.476,-1.921 -0.184,-2.84 0.302,-0.947 1.053,-1.669 1.608,-2.493 0.554,-0.824 0.548,-1.896 0.197,-2.825 -0.285,-0.753 -0.58,-1.523 -1.111,-2.127 -0.53,-0.604 -1.355,-1.018 -2.139,-0.837 -0.989,0.227 -1.553,1.264 -1.862,2.231 -0.468,1.46 -0.484,3.009 -0.342,4.535 0.213,2.291 0.426,4.583 0.639,6.874 0.064,0.692 0.147,1.429 0.588,1.966 0.631,0.766 1.743,0.854 2.716,1.048 0.973,0.194 2.084,0.773 2.106,1.765 0.012,0.559 -0.366,1.08 -0.862,1.338 -0.496,0.257 -1.087,0.281 -1.635,0.175 -1.697,-0.329 -2.941,-1.768 -3.878,-3.22 -1.515,-2.35 -1.603,-5.331 -2.893,-7.812 -0.62,-1.192 -0.661,-2.592 -0.666,-3.937 -0.004,-1.344 0.007,-2.735 -0.528,-3.968 -0.535,-1.233 -1.783,-2.27 -3.117,-2.1 -1.241,0.159 -2.115,1.24 -3.052,2.069 -1.407,1.246 -3.416,1.276 -5.118,2.073 -0.738,0.345 -1.596,-0.051 -2.297,-0.465 -0.702,-0.413 -1.504,-0.869 -2.283,-0.634 -0.692,0.21 -1.106,0.889 -1.584,1.431 -1.286,1.458 -3.448,1.303 -5.34,1.75 -0.371,0.088 -0.755,0.182 -1.055,0.417 -0.3,0.235 -0.492,0.654 -0.346,1.007 0.142,0.343 0.535,0.502 0.897,0.583 0.363,0.08 0.756,0.128 1.038,0.369 0.282,0.242 0.398,0.915 0.177,1.214 -0.848,1.144 -1.895,2.175 -3.117,2.897 -10e-4,0.001 0,0.002 -0.002,0.003 -0.429,0.272 -1.299,0.746 -1.655,1.054 -0.006,0.007 -0.014,0.013 -0.02,0.019 -0.021,0.019 -0.047,0.039 -0.063,0.057 l -0.009,-0.008 c -0.393,0.322 -0.932,0.497 -1.444,0.601 -0.729,0.148 -1.526,0.262 -2.05,0.79 -0.521,0.526 -0.634,1.325 -1.001,1.967 -0.533,0.935 -1.585,1.479 -2.646,1.657 -1.061,0.179 -2.257,0.461 -3.288,0.154 -1.575,-0.469 -3.155,-0.939 -4.777,-1.201 -0.698,-0.112 -1.419,-0.185 -2.108,-0.026 -0.69,0.158 -1.221,0.996 -1.774,1.437 -3.801,3.022 -8.005,5.946 -10.487,10.12 -0.889,1.495 -2.351,2.641 -4.016,3.146 -1.665,0.506 -3.839,0.823 -5.239,-0.211 -1.418,-1.049 -2.836,-2.097 -4.254,-3.145 -0.635,-0.471 -1.296,-0.952 -2.069,-1.122 -0.853,-0.188 -1.829,0.005 -2.542,-0.501 -0.478,-0.339 -0.721,-0.934 -0.77,-1.518 -0.049,-0.584 -0.19,-1.265 0.018,-1.813 0.712,-1.866 1.343,-4.37 0.47,-6.166 -0.353,-0.726 -1.333,-0.916 -2.118,-0.726 -0.785,0.191 -1.477,0.654 -2.245,0.903 -1.203,0.39 -2.577,0.212 -3.641,-0.472 -1.064,-0.684 -1.296,-1.831 -1.688,-3.033 -0.276,-0.848 0.145,-1.866 0.94,-2.271 1.359,-0.693 3.238,0.562 4.705,0.141 0.403,0.159 0.847,-0.26 0.871,-0.692 0.023,-0.433 -0.236,-0.827 -0.512,-1.16 -1.459,-1.754 -3.618,-2.734 -5.672,-3.726 -2.053,-0.992 -4.363,-2.094 -5.208,-4.212 -0.546,-1.367 -0.441,-2.977 0.276,-4.262 0.25,-0.448 0.57,-0.857 0.776,-1.327 0.206,-0.469 0.521,-1.204 0.175,-1.582 -0.407,-0.443 -0.543,-1.117 -0.34,-1.684 0.203,-0.566 0.792,-0.824 1.392,-0.865 0.526,-0.036 1.064,-0.075 1.546,-0.288 0.481,-0.214 0.903,-0.641 0.959,-1.165 0.08,-0.749 -0.565,-1.356 -1.152,-1.83 -1.148,-0.926 -2.296,-1.853 -3.444,-2.78 -0.332,-0.267 -0.696,-0.609 -0.653,-1.032 0.04,-0.393 0.441,-0.668 0.834,-0.703 0.392,-0.036 0.776,0.109 1.143,0.252 1.684,0.653 3.31,1.587 5.079,1.951 1.467,0.301 2.501,1.637 3.09,3.014 0.588,1.377 0.87,2.879 1.565,4.205 0.675,1.289 1.735,2.373 3.008,3.077 0.499,0.276 1.087,0.498 1.629,0.323 0.542,-0.175 0.737,-0.809 0.481,-1.318 -0.346,-0.688 -0.993,-1.164 -1.586,-1.656 -0.593,-0.493 -1.182,-1.078 -1.33,-1.834 -0.147,-0.757 0.213,-1.292 0.983,-1.276 1.144,-0.176 2.192,0.621 3.028,1.422 0.835,0.8 1.861,1.755 3.018,1.755 3.319,0.001 6.003,-3.357 8.218,-5.829 1.69,-1.886 3.364,-3.844 4.397,-6.156 1.821,-4.08 2.612,-8.897 1.362,-13.187 -0.708,-2.429 0.071,-5.228 1.931,-6.942 0.645,-0.594 1.438,-1.113 1.728,-1.94 0.294,-0.842 -0.02,-1.762 -0.332,-2.598 -1.737,-4.649 -4.205,-8.921 -4.798,-13.848 -0.549,-4.568 -0.609,-9.781 2.32,-13.329 3.243,-3.93 4.214,-8.794 5.704,-13.666 0.698,-2.285 1.73,-4.467 3.054,-6.456 0.41,-0.616 0.951,-1.273 1.691,-1.305 0.459,-0.019 0.92,0.24 1.141,0.644 0.22,0.404 0.1,1.03 0.046,1.488 -0.131,1.118 -0.791,2.091 -1.409,3.033 -1.339,2.042 -3.31,4.38 -3.453,6.818 -0.045,0.773 -0.09,1.546 -0.135,2.318 -0.014,0.234 -0.027,0.477 0.055,0.697 0.082,0.22 0.285,0.413 0.519,0.406 0.235,-0.006 0.77,-0.352 0.651,-0.555 0.153,-2.948 2.016,-5.494 3.804,-7.844 1.04,-1.367 2.75,-2.859 3.167,-4.525 0.762,-3.039 1.878,-6.038 3.739,-8.558 1.862,-2.52 4.445,-4.627 7.5,-5.323 2.686,-0.611 5.649,-1.352 8.368,-1.798 2.743,-0.449 5.196,-2.385 6.272,-4.948 0.67,-1.597 0.88,-3.474 2.105,-4.698 1.338,-1.338 3.62,-1.229 5.502,-1.424 1.225,-0.128 2.377,-0.837 3.041,-1.874 0.665,-1.036 0.829,-2.379 0.434,-3.545 -0.389,-1.148 -1.255,-2.058 -1.924,-3.068 -1.585,-2.392 -1.128,-5.342 -1.619,-8.169 -0.77,-4.445 1.707,-8.737 4.086,-12.569 1.908,-3.075 2.974,-6.797 5.831,-9.019 3.432,-2.669 5.274,-6.978 5.856,-11.287 0.583,-4.308 1.555,-9.358 -0.093,-13.382 -1.932,-4.718 -3.896,-9.885 -2.491,-14.787 0.734,-2.559 2.338,-4.799 3.08,-7.356 0.594,-2.049 0.611,-4.216 0.917,-6.328 0.306,-2.112 0.975,-4.296 2.558,-5.728 1.69,-1.527 2.818,-3.658 4.563,-5.122 0.642,-0.538 1.366,-1.053 2.2,-1.132 0.834,-0.079 1.778,0.444 1.877,1.276 0.052,0.446 -0.136,0.882 -0.321,1.292 -1.017,2.259 -2.034,4.518 -3.051,6.777 -0.394,0.876 -0.107,1.706 0.335,2.559 0.443,0.853 1.139,1.546 1.654,2.357 0.515,0.81 0.842,1.851 0.448,2.727 -0.394,0.877 -1.418,1.387 -1.683,2.31 -0.22,0.767 0.164,1.586 0.679,2.195 0.515,0.609 1.167,1.097 1.641,1.739 1.152,1.56 0.955,3.961 -0.435,5.313 -0.348,1.329 0.476,2.854 1.443,3.829 0.968,0.975 2.224,1.597 3.433,2.251 1.208,0.654 2.426,1.388 3.227,2.503 -0.14,1.401 0.406,2.751 1.471,3.672 1.064,0.921 2.331,1.593 3.351,2.563 2.796,2.66 3.193,6.911 4.841,10.401 1.575,3.335 4.42,6.052 7.825,7.47 1.584,2.399 2.33,5.654 2.461,8.525 0.064,1.423 -0.06,2.868 0.249,4.258 0.308,1.391 1.17,2.775 2.53,3.196 1.569,0.486 2.704,3.056 2.563,4.693 C 2.578,-2.254 1.408,-0.847 0,0" /></g><g
           transform="translate(41.3435,224.8617)"
           id="g36"><path
             id="path38"
             style="fill:#00bb7a;fill-opacity:1;fill-rule:nonzero;stroke:none"
             d="m 0,0 c -0.789,-0.877 -1.155,-2.12 -0.966,-3.285 0.188,-1.165 0.926,-2.229 1.952,-2.813 0.397,-0.227 0.84,-0.389 1.176,-0.7 0.335,-0.311 0.533,-0.844 0.29,-1.232 -0.294,-0.469 -0.995,-0.429 -1.51,-0.228 -0.516,0.201 -1.043,0.513 -1.584,0.395 -0.586,-0.126 -0.963,-0.74 -1.012,-1.338 -0.05,-0.597 0.154,-1.183 0.355,-1.747 0.393,-1.104 0.917,-2.342 2.028,-2.714 1.597,-0.535 3.254,1.089 4.906,0.759 0.825,-0.165 1.472,-0.79 2.044,-1.408 0.571,-0.618 1.152,-1.282 1.942,-1.574 0.789,-0.292 1.852,-0.043 2.147,0.745 0.266,0.712 -0.184,1.504 -0.078,2.257 0.138,0.985 1.126,1.569 1.847,2.253 1.964,1.861 2.143,4.876 2.192,7.581 0.01,0.518 0.017,1.049 -0.157,1.537 -0.175,0.488 -0.574,0.93 -1.086,1.003 -0.937,0.133 -1.553,-0.894 -2.145,-1.632 -0.494,-0.615 -1.716,-1.8 -2.592,-1.507 -0.934,0.313 -2.063,2.02 -2.758,2.717 C 6.219,-0.156 5.417,0.64 4.398,1.04 2.906,1.626 1.072,1.192 0,0" /></g><g
           transform="translate(36.3705,223.2868)"
           id="g40"><path
             id="path42"
             style="fill:#00bb7a;fill-opacity:1;fill-rule:nonzero;stroke:none"
             d="M 0,0 C 0.532,-0.053 1.045,0.253 1.401,0.652 1.757,1.051 1.993,1.539 2.272,1.995 3.126,3.393 4.422,4.517 5.927,5.164 7.125,5.68 8.518,5.947 9.37,6.935 10.331,8.049 10.189,9.938 9.072,10.896 7.283,12.43 4.585,10.878 3.101,9.638 1.102,7.969 -0.402,5.704 -1.126,3.2 -1.307,2.577 -1.441,1.915 -1.292,1.284 -1.144,0.653 -0.645,0.065 0,0" /></g><g
           transform="translate(53.5296,110.4933)"
           id="g44"><path
             id="path46"
             style="fill:#00bb7a;fill-opacity:1;fill-rule:nonzero;stroke:none"
             d="m 0,0 c -0.451,0.003 -1.048,-0.152 -1.051,-0.603 -0.002,-0.333 0.342,-0.546 0.642,-0.691 1.012,-0.49 2.024,-0.98 3.036,-1.471 1.444,-0.7 2.895,-1.402 4.425,-1.886 C 7.573,-4.816 8.138,-4.955 8.659,-4.79 11.277,-3.965 6.822,-1.699 6.08,-1.36 4.178,-0.49 2.092,-0.016 0,0" /></g><g
           transform="translate(66.9571,105.0178)"
           id="g48"><path
             id="path50"
             style="fill:#00bb7a;fill-opacity:1;fill-rule:nonzero;stroke:none"
             d="m 0,0 c -0.559,0.011 -1.223,-0.033 -1.515,-0.509 -0.233,-0.378 -0.107,-0.898 0.192,-1.226 0.298,-0.329 0.731,-0.5 1.159,-0.616 0.868,-0.235 1.786,-0.284 2.674,-0.142 0.896,0.143 2.115,0.931 1.251,1.878 C 2.951,0.272 1.047,-0.02 0,0" /></g><g
           transform="translate(152.1464,198.4393)"
           id="g52"><path
             id="path54"
             style="fill:#00bb7a;fill-opacity:1;fill-rule:nonzero;stroke:none"
             d="m 0,0 c 0.951,1.4 1.362,3.263 0.691,4.818 -0.694,1.608 -2.48,3.126 -1.758,4.722 0.523,1.158 2.019,1.386 3.207,1.84 2.741,1.048 4.476,4.232 3.871,7.104 -1.374,6.52 0.872,13.592 5.392,18.488 0.58,0.628 1.209,1.238 1.573,2.011 0.363,0.774 0.399,1.774 -0.165,2.416 -0.633,0.719 -1.755,0.735 -2.68,0.487 C 9.206,41.639 8.32,41.185 7.363,41.152 6.406,41.12 5.316,41.724 5.278,42.68 c -0.038,0.971 0.942,1.612 1.687,2.236 0.744,0.624 1.312,1.883 0.537,2.469 -3.88,2.934 -9.074,4.238 -13.684,2.689 -2.882,-0.967 -5.578,-2.878 -8.615,-2.752 -1.681,0.07 -3.274,0.771 -4.944,0.967 -1.67,0.197 -3.655,-0.325 -4.306,-1.875 -3.322,-2.24 -6.737,-5.357 -10.059,-7.597 -2.178,-1.468 -4.513,-3.151 -5.189,-5.688 -0.493,-1.852 0.072,-3.948 1.43,-5.301 0.926,-0.923 2.143,-1.483 3.224,-2.219 1.081,-0.736 2.094,-1.775 2.228,-3.075 0.344,-3.353 1.872,-6.568 2.413,-9.895 0.38,-2.332 0.577,-4.713 0.292,-7.058 -0.42,-3.46 -1.913,-6.782 -4.223,-9.392 -0.867,-0.98 -1.286,-2.489 -1.614,-3.756 -0.328,-1.268 -0.316,-2.674 0.315,-3.821 0.6,-1.092 1.729,-1.915 1.983,-3.136 0.119,-0.57 0.028,-1.159 0.009,-1.742 -0.019,-0.582 0.052,-1.208 0.431,-1.65 0.378,-0.443 1.869,-0.525 2.376,-0.237 1.121,0.636 2.42,-0.46 3.195,-1.49 0.775,-1.031 1.874,-2.24 3.102,-1.846 1.18,0.379 1.412,1.899 1.663,3.113 0.838,4.06 4.062,7.236 7.594,9.406 3.532,2.169 7.481,3.584 11.048,5.697 C -2.372,-2.41 -0.951,-1.4 0,0" /></g><g
           transform="translate(141.2912,171.9172)"
           id="g56"><path
             id="path58"
             style="fill:#00bb7a;fill-opacity:1;fill-rule:nonzero;stroke:none"
             d="M 0,0 C 0.66,0.695 0.952,1.545 1.739,2.178 2.58,2.853 3.966,3.226 4.49,4.222 4.787,4.786 4.711,5.507 4.359,6.037 4.006,6.567 3.406,6.907 2.777,7.01 0.804,7.332 -1.062,5.494 -3.027,5.863 -4.097,6.065 -5.172,6.904 -6.157,6.44 -6.956,6.063 -7.17,4.958 -6.848,4.136 -6.526,3.313 -5.822,2.712 -5.144,2.145 -3.926,1.127 -1.597,-1.68 0,0" /></g><g
           transform="translate(235.4172,144.3417)"
           id="g60"><path
             id="path62"
             style="fill:#00bb7a;fill-opacity:1;fill-rule:nonzero;stroke:none"
             d="m 0,0 c -0.395,-0.683 -1.068,-1.491 -1.926,-1.538 -1.144,-0.061 -2.064,1.215 -1.847,2.295 0.055,0.272 0.174,0.526 0.293,0.777 0.144,0.306 0.289,0.613 0.433,0.919 0.108,0.23 0.217,0.459 0.325,0.689 0.251,0.531 0.547,1.108 1.091,1.331 C 0.999,5.554 0.683,1.179 0,0 m -8.735,-11.589 c -1.404,-0.927 -3.222,0.097 -3.985,1.371 -0.81,1.352 -0.808,3.122 -1.057,4.64 -0.516,3.148 -4.094,6.437 -2.576,9.696 0.575,1.233 2.017,2.043 3.348,1.759 1.331,-0.283 2.341,-1.726 2.03,-3.051 -0.234,-0.997 -1.077,-1.748 -1.396,-2.72 -0.472,-1.439 0.307,-2.996 1.295,-4.144 0.987,-1.148 2.218,-2.116 2.927,-3.455 0.708,-1.338 0.678,-3.262 -0.586,-4.096 m -15.472,7.817 c -0.376,-1.013 -1.596,-1.47 -2.674,-1.414 -1.079,0.057 -2.097,0.493 -3.154,0.718 -2.415,0.513 -5.052,-0.149 -6.938,-1.742 -0.809,-0.683 -2.072,-1.947 -3.17,-1.01 -0.774,0.66 -0.741,2.036 -0.433,2.896 0.899,2.518 2.064,4.658 4.054,6.468 0.458,0.416 0.915,0.833 1.373,1.249 0.267,0.242 0.539,0.489 0.866,0.639 1.104,0.506 2.354,-0.217 3.351,-0.91 1.511,-1.052 3.023,-2.104 4.534,-3.156 0.641,-0.446 1.294,-0.904 1.756,-1.533 0.462,-0.63 0.707,-1.473 0.435,-2.205 m 153.261,79.965 c -0.273,0.341 -0.622,0.616 -0.888,0.963 -0.601,0.784 -0.71,1.83 -0.743,2.817 -0.033,0.987 -0.021,2.013 -0.439,2.907 -0.418,0.895 -1.427,1.608 -2.372,1.321 -1.422,-0.43 -3.143,-0.529 -4.549,-0.05 -2.188,0.745 -3.471,3.137 -5.63,3.962 -1.92,0.734 -3.963,0.979 -5.971,1.419 -2.209,0.485 -4.515,0.969 -6.707,0.412 -2.192,-0.557 -4.209,-2.501 -4.045,-4.757 0.025,-0.342 -0.296,-0.662 -0.586,-0.844 -0.291,-0.182 -0.632,-0.262 -0.966,-0.34 -1.486,-0.343 -2.973,-0.687 -4.46,-1.031 -0.627,-0.145 -1.264,-0.291 -1.908,-0.266 -0.644,0.025 -1.306,0.243 -1.738,0.721 -1.087,1.208 -2.79,1.922 -4.059,2.937 -0.337,0.27 -0.723,0.555 -1.153,0.511 -0.349,-0.036 -0.634,-0.282 -0.914,-0.495 -1.289,-0.981 -2.974,-1.424 -4.579,-1.206 -3.432,0.466 -6.942,1.421 -10.259,2.413 -1.365,0.409 -2.862,0.36 -4.197,-0.136 -0.266,-0.098 -0.545,-0.233 -0.67,-0.487 -0.183,-0.372 0.043,-0.807 0.263,-1.159 0.492,-0.786 1.015,-1.858 1.402,-2.7 0.168,-0.365 0.014,-0.814 -0.265,-1.104 -0.279,-0.289 -0.659,-0.455 -1.028,-0.614 -1.744,-0.749 -3.489,-1.499 -5.234,-2.248 -0.926,-0.398 -1.921,-0.804 -2.913,-0.622 -0.819,0.15 -1.524,0.695 -2.035,1.352 -0.511,0.658 -1.059,1.369 -1.403,2.127 -0.256,0.563 -0.809,0.948 -1.397,1.141 -0.588,0.194 -1.215,0.223 -1.833,0.25 -0.95,0.041 -2.097,0.023 -2.958,0.428 -0.36,0.169 -0.79,-0.125 -0.954,-0.488 -0.163,-0.363 -0.155,-0.777 -0.232,-1.167 -0.212,-1.074 -1.101,-1.937 -2.132,-2.305 -1.031,-0.368 -2.179,-0.294 -3.232,0.005 -1.053,0.3 -2.261,0.507 -3.211,1.05 -1.265,0.723 -3.063,0.27 -3.835,-0.965 -0.428,-0.687 -0.694,-1.66 -1.491,-1.803 -0.81,-0.146 -1.449,0.808 -1.38,1.628 0.069,0.821 0.574,1.527 0.935,2.267 1.31,2.684 -0.266,5.675 -1.768,8.256 -0.52,0.894 -1.907,1.113 -2.677,0.424 -0.42,-0.376 -0.664,-0.957 -1.172,-1.199 -0.549,-0.263 -1.232,-0.018 -1.657,0.417 -0.425,0.435 -0.553,1.098 -0.87,1.617 -0.609,0.994 -1.249,2.022 -2.226,2.656 -0.978,0.635 -2.396,0.752 -3.24,-0.052 -0.674,-0.643 -0.804,-1.712 -0.522,-2.6 0.283,-0.888 0.971,-1.771 1.808,-2.181 0.718,-0.35 0.975,-1.319 0.706,-2.071 C 17.401,86.552 16.73,86.007 16.008,85.665 15.286,85.324 14.499,85.148 13.743,84.89 11.747,84.205 10.592,82.267 8.737,81.26 8.101,80.914 7.629,80.279 7.482,79.571 7.336,78.862 7.516,78.092 7.963,77.522 8.312,77.077 8.802,76.762 9.163,76.326 9.523,75.891 9.735,75.238 9.422,74.767 9.192,74.42 8.738,74.279 8.323,74.313 7.909,74.346 7.498,74.569 7.083,74.588 6.435,74.616 5.833,74.145 5.582,73.548 5.33,72.951 5.385,72.26 5.595,71.647 5.806,71.035 6.143,70.683 6.519,70.155 6.842,69.702 7.171,69.235 7.304,68.695 7.438,68.155 7.332,67.518 6.902,67.166 6.419,66.771 5.691,66.853 5.133,67.131 4.575,67.41 4.115,67.852 3.579,68.17 3.042,68.489 2.307,68.937 1.885,68.478 0.983,67.5 1.009,65.966 1.436,64.706 1.862,63.446 2.622,62.321 3.057,61.064 3.492,59.807 3.776,58.074 2.746,57.233 1.95,56.582 0.685,56.888 -0.039,57.619 c -0.724,0.732 -1.041,1.761 -1.333,2.747 -0.477,1.609 -0.954,3.217 -1.43,4.826 -0.173,0.582 -0.351,1.177 -0.706,1.669 -0.356,0.493 -0.927,0.873 -1.533,0.835 -1.074,-0.068 -1.654,-1.325 -1.704,-2.401 -0.147,-3.144 2.616,-6.085 2.04,-9.18 -0.119,-0.637 -0.849,-1.013 -1.494,-0.946 -0.644,0.066 -1.205,0.462 -1.697,0.883 -0.493,0.421 -0.963,0.89 -1.553,1.157 -0.59,0.268 -1.35,0.287 -1.828,-0.151 -0.608,-0.558 -0.234,-1.365 -0.246,-2.19 -0.011,-0.664 -0.625,-1.165 -1.247,-1.397 -0.622,-0.232 -1.306,-0.3 -1.889,-0.617 -0.572,-0.311 -1.012,-0.843 -1.616,-1.083 -0.826,-0.329 -2.198,-0.041 -2.221,0.847 -0.017,0.666 -0.607,1.267 -1.273,1.295 -0.826,0.035 -1.481,-0.678 -1.908,-1.385 -0.427,-0.708 -0.746,-1.639 -1.468,-2.041 -0.187,-0.508 -0.794,-0.738 -1.336,-0.729 -0.542,0.009 -1.066,0.192 -1.607,0.23 -0.486,0.034 -1.014,-0.069 -1.353,-0.419 -0.339,-0.351 -0.399,-1.27 -0.024,-1.582 0.13,-0.386 0.262,-0.781 0.265,-1.188 0.003,-0.408 -0.143,-0.839 -0.473,-1.079 -0.565,-0.41 -1.432,-0.238 -2.062,0.061 -0.817,0.389 -1.796,-0.257 -2.207,-1.062 -0.411,-0.806 -0.464,-1.744 -0.754,-2.601 -0.29,-0.857 -0.972,-1.713 -1.877,-1.706 -0.932,0.008 -1.583,0.893 -2.076,1.685 -0.583,0.936 -1.166,1.873 -1.749,2.81 -0.204,0.328 -0.415,0.679 -0.41,1.064 0.009,0.634 0.617,1.124 1.24,1.244 0.622,0.12 1.26,-0.031 1.885,-0.134 0.625,-0.103 1.302,-0.15 1.86,0.151 0.978,0.527 1.151,1.949 0.641,2.935 -0.51,0.986 -1.099,1.811 -2.186,2.037 -2.825,0.586 -5.879,1.307 -7.699,3.545 -0.641,0.788 -1.121,1.758 -1.995,2.276 -0.856,0.507 -1.948,0.473 -2.886,0.144 -0.939,-0.329 -1.638,-1.179 -2.573,-1.518 -4.038,-1.467 -6.82,-4.792 -9.369,-8.25 -1.349,-1.829 -1.804,-4.141 -2.573,-6.279 -0.769,-2.139 -2.191,-4.401 -4.237,-5.389 -0.372,-0.18 -0.751,-0.364 -1.049,-0.651 -0.298,-0.286 -0.508,-0.696 -0.45,-1.105 0.057,-0.411 0.363,-0.742 0.494,-1.135 0.133,-0.4 0.077,-0.835 0.02,-1.252 -0.145,-1.056 -0.137,-2.123 -0.169,-3.188 -0.016,-0.554 0.133,-1.13 0.502,-1.544 0.369,-0.414 0.978,-0.631 1.502,-0.453 0.836,0.283 1.159,1.374 1.973,1.715 0.843,0.353 1.833,-0.311 2.168,-1.161 0.335,-0.851 0.042,-1.807 0.277,-2.69 0.204,-0.767 0.408,-1.533 0.612,-2.3 0.16,-0.598 0.384,-1.275 0.956,-1.513 0.54,-0.225 1.146,0.044 1.668,0.309 0.795,0.404 1.609,0.821 2.212,1.478 0.603,0.657 1.022,1.61 0.92,2.496 -0.548,4.773 -2.067,10.495 0.92,14.257 0.622,0.783 1.295,1.526 2.013,2.222 0.497,0.481 1.024,0.946 1.647,1.247 0.622,0.301 1.357,0.425 2.012,0.202 0.655,-0.222 1.194,-0.839 1.199,-1.53 0.005,-0.651 -0.426,-1.213 -0.836,-1.718 -0.694,-0.854 -1.187,-1.784 -1.965,-2.561 -1.01,-1.009 -1.204,-2.734 -0.443,-3.942 0.761,-1.208 2.345,-1.472 3.769,-1.37 1.358,0.098 2.732,-0.023 4.052,-0.358 0.447,-0.114 0.973,-0.353 1,-0.813 0.026,-0.459 -0.474,-0.762 -0.921,-0.869 -0.97,-0.235 -2.035,-0.078 -2.94,-0.502 -1.165,-0.545 -1.849,-2.148 -1.333,-3.327 0.279,-0.638 -0.382,-1.315 -1.048,-1.52 -0.666,-0.204 -1.418,-0.183 -1.997,-0.57 -1.056,-0.707 -0.941,-2.264 -1.388,-3.454 -0.602,-1.605 -2.336,-2.559 -4.04,-2.738 -1.704,-0.18 -3.504,0.03 -5.172,0.421 -1.332,0.312 -2.422,1.48 -2.641,2.83 -0.055,0.336 -0.061,0.684 -0.178,1.004 -0.117,0.32 -0.383,0.619 -0.724,0.64 -0.422,0.027 -0.764,-0.393 -0.81,-0.813 -0.046,-0.421 0.122,-0.832 0.287,-1.221 0.28,-0.663 0.513,-1.111 0.484,-1.83 -0.03,-0.727 -0.507,-1.372 -1.088,-1.81 -0.582,-0.438 -1.268,-0.709 -1.924,-1.025 -2.551,-1.225 -5.072,-3.018 -6.108,-5.652 -0.366,-0.928 -1.404,-1.366 -2.341,-1.709 -1.02,-0.373 -2.04,-0.746 -3.059,-1.119 -0.898,-0.328 -1.926,-0.801 -2.114,-1.739 -0.17,-0.849 0.458,-1.647 1.127,-2.199 0.668,-0.551 1.454,-1.041 1.8,-1.835 0.279,-0.641 0.208,-1.422 -0.183,-2.002 -0.391,-0.58 -1.097,-0.908 -1.796,-0.914 -1.392,-0.01 -2.83,-0.031 -4.1,-0.6 -1.713,-0.768 -2.469,-2.478 -2.992,-4.281 -0.639,-2.202 0.161,-4.751 1.943,-6.193 1.782,-1.443 4.442,-1.694 6.462,-0.61 3.851,2.065 4.488,7.738 8.25,9.96 1.924,1.136 4.288,1.131 6.522,1.094 3.752,-0.063 6.128,-4.525 7.136,-8.139 0.176,-0.628 0.372,-1.359 0.969,-1.62 0.471,-0.206 1.039,-0.022 1.423,0.319 0.384,0.341 0.623,0.811 0.854,1.27 0.377,0.751 0.765,1.578 0.582,2.398 -0.261,1.174 -1.522,1.77 -2.558,2.379 -1.376,0.81 -2.574,1.918 -3.488,3.226 -0.344,0.492 -0.655,1.136 -0.374,1.666 0.244,0.462 0.861,0.616 1.368,0.491 0.507,-0.126 0.929,-0.466 1.333,-0.796 3.5,-2.861 6.572,-6.42 7.624,-10.816 0.124,-0.518 0.231,-1.054 0.513,-1.506 0.281,-0.452 0.786,-0.811 1.315,-0.749 0.707,0.083 1.141,0.875 1.125,1.587 -0.017,0.711 -0.35,1.37 -0.598,2.037 -0.248,0.667 -0.41,1.434 -0.096,2.073 0.59,0.474 1.492,0.356 2.118,-0.068 0.627,-0.424 1.043,-1.088 1.44,-1.732 0.956,-1.553 1.913,-3.106 2.87,-4.659 0.542,-0.879 1.363,-1.449 2.392,-1.543 1.029,-0.095 2.052,0.17 3.066,0.368 1.014,0.198 2.089,0.326 3.061,-0.027 1.285,-0.466 2.192,-1.816 2.139,-3.182 -0.049,-1.252 -0.678,-2.433 -1.807,-2.975 -1.128,-0.543 -2.435,-0.523 -3.687,-0.492 -2.006,0.05 -4.011,0.099 -6.017,0.149 -1.365,0.034 -2.752,0.072 -4.048,0.499 -1.273,0.42 -2.602,1.216 -3.857,0.742 -0.781,-0.295 -1.303,-1.018 -1.803,-1.686 -0.501,-0.669 -1.09,-1.361 -1.906,-1.54 -0.816,-0.179 -1.829,0.484 -1.66,1.302 -0.889,1.459 -2.947,2.552 -4.644,2.754 -0.57,0.068 -1.198,0.066 -1.638,0.435 -0.734,0.612 -0.48,1.76 -0.481,2.716 -10e-4,1.658 -1.081,3.265 -2.615,3.893 -2.176,0.89 -4.736,0.42 -6.971,-0.309 -2.235,-0.728 -4.383,-1.786 -6.707,-2.135 -0.974,-0.147 -1.972,-0.167 -2.917,-0.444 -0.945,-0.277 -1.866,-0.874 -2.209,-1.797 -1.677,-4.519 -6.084,-7.793 -8.949,-11.668 -1.902,-2.571 -3.83,-5.191 -4.907,-8.202 -0.549,-1.533 -0.476,-3.179 -0.607,-4.802 -0.085,-1.063 -0.171,-2.125 -0.257,-3.188 -0.053,-0.655 -0.106,-1.314 -0.046,-1.969 0.101,-1.13 0.545,-2.226 1.257,-3.11 2.084,-0.58 3.2,-3.214 3.873,-5.271 0.672,-2.056 1.225,-4.329 2.902,-5.695 1.445,-1.177 3.477,-1.418 5.309,-1.07 1.831,0.348 3.515,1.216 5.17,2.074 3.775,1.956 8.657,-0.08 12.346,-2.195 0.668,-0.383 1.394,-0.674 1.992,-1.16 0.87,-0.708 1.82,-1.579 1.797,-2.701 -0.019,-0.888 -0.654,-1.63 -0.953,-2.466 -0.509,-1.423 0.093,-3.161 1.372,-3.966 3.879,-2.438 5.227,-8.31 3.668,-12.618 -0.571,-1.577 -1.515,-3.015 -1.927,-4.641 -0.411,-1.626 -0.116,-3.622 1.299,-4.523 1.866,-1.189 2.253,-3.674 2.652,-5.851 0.329,-1.788 0.204,-3.63 0.421,-5.436 0.217,-1.806 0.86,-3.688 2.326,-4.766 2.143,-1.577 0.009,-5.689 1.64,-7.792 1.007,-1.299 2.822,-1.652 4.466,-1.63 3.773,0.049 7.503,1.638 10.153,4.325 1.349,1.367 2.962,2.652 3.531,4.487 0.367,1.182 0.438,2.494 1.143,3.512 0.712,1.026 1.93,1.552 2.916,2.319 0.986,0.766 1.797,2.111 1.228,3.223 -1.038,2.033 -0.406,4.784 0.934,6.633 1.084,1.495 2.74,2.457 4.076,3.733 1.336,1.276 2.396,3.188 1.766,4.925 -1.33,3.67 -1.403,7.804 -0.498,11.601 0.905,3.798 3.395,7.335 6.983,8.874 2.42,1.038 4.218,3.048 5.586,5.296 1.369,2.249 1.675,5.361 0.021,7.409 -0.9,1.114 -2.584,1.63 -3.993,1.89 -1.409,0.26 -2.883,0.373 -4.148,1.045 -1.117,0.595 -1.999,1.618 -2.423,2.811 -0.303,0.854 -1.285,1.204 -1.919,1.852 -0.693,0.709 -1.175,1.593 -1.648,2.464 -0.813,1.501 -1.627,3.001 -2.44,4.501 -1.699,3.134 -3.143,6.599 -4.827,9.74 -0.265,0.494 -0.536,1.01 -0.555,1.57 -0.018,0.56 0.299,1.174 0.844,1.301 0.647,0.15 1.225,-0.403 1.651,-0.912 3.565,-4.267 6.519,-9.044 8.745,-14.139 0.787,-1.801 1.154,-3.822 2.31,-5.412 1.156,-1.59 2.985,-2.826 4.949,-2.75 1.534,0.058 2.92,0.883 4.229,1.683 1.993,1.218 3.986,2.436 5.979,3.654 1.268,0.775 2.554,1.565 3.556,2.662 1.002,1.098 1.699,2.565 1.54,4.042 -0.159,1.478 -1.352,2.88 -2.836,2.957 -2.103,-0.023 -4.312,0.401 -6.275,1.155 -1.119,0.429 -2.3,1.107 -2.617,2.262 -0.38,1.389 -1.301,2.513 -2.499,3.312 -0.348,0.233 -0.725,0.434 -1.014,0.737 -0.29,0.303 -0.483,0.742 -0.361,1.144 0.098,0.327 0.392,0.57 0.715,0.684 0.323,0.114 0.674,0.116 1.016,0.092 0.62,-0.042 1.245,-0.169 1.787,-0.473 1.168,-0.656 1.832,-2.035 2.897,-2.846 1.065,-0.812 2.393,-1.36 3.725,-1.228 0.704,0.07 1.401,0.325 2.1,0.225 0.844,-0.121 1.52,-0.73 2.204,-1.239 0.683,-0.51 1.543,-0.961 2.356,-0.707 2.307,0.721 4.922,-0.369 7.332,-0.553 0.66,-0.051 1.344,-0.108 1.924,-0.428 0.579,-0.321 1.026,-0.984 0.88,-1.63 -0.276,-1.223 0.124,-2.562 1.163,-3.265 1.038,-0.702 2.523,-0.664 3.524,0.092 0.734,0.554 1.771,-0.201 2.125,-1.05 0.354,-0.849 0.261,-1.807 0.253,-2.727 -0.018,-1.902 0.356,-3.806 1.091,-5.56 1.065,-2.539 2.255,-5.105 3.803,-7.381 0.473,-0.695 1.063,-1.452 1.9,-1.519 0.896,-0.071 1.66,0.726 1.929,1.583 0.268,0.858 0.183,1.78 0.222,2.678 0.122,2.769 1.53,5.454 3.737,7.129 1.47,1.115 2.671,2.614 4.165,3.696 0.661,0.479 1.368,1.021 1.571,1.812 0.169,0.661 -0.031,1.438 0.378,1.983 0.282,0.375 0.789,0.522 1.257,0.487 0.467,-0.035 0.907,-0.224 1.337,-0.41 1.439,-0.623 2.921,-1.276 3.99,-2.423 0.662,-0.71 1.278,-1.486 1.489,-2.434 0.211,-0.947 0.258,-1.94 0.632,-2.835 0.373,-0.896 1.202,-1.707 2.171,-1.654 0.473,0.026 0.923,0.253 1.397,0.246 0.676,-0.009 1.269,-0.507 1.588,-1.103 0.319,-0.596 0.416,-1.282 0.508,-1.952 0.452,-3.298 -0.059,-6.847 1.335,-9.871 0.423,-0.918 0.975,-1.77 1.526,-2.619 0.837,-1.292 1.675,-2.584 2.512,-3.876 0.463,-0.713 1.149,-1.015 1.956,-1.286 0.49,-0.164 1.106,-0.23 1.458,0.148 0.248,0.266 0.277,0.681 0.167,1.027 -0.111,0.346 -0.338,0.641 -0.561,0.928 -0.772,0.992 -1.307,2.094 -1.996,3.145 -0.682,1.043 -1.37,2.081 -2.063,3.117 -0.598,0.894 -1.207,1.799 -1.541,2.821 -0.335,1.022 -0.364,2.194 0.171,3.127 0.316,0.551 0.602,1.01 1.233,1.085 0.63,0.075 1.292,-0.228 1.646,-0.755 0.044,-0.662 0.846,-1.032 1.477,-1.238 0.631,-0.206 1.352,-0.378 1.706,-0.94 0.337,-0.535 0.228,-1.271 0.596,-1.786 0.281,-0.394 0.832,-0.571 1.29,-0.414 0.458,0.156 0.786,0.633 0.768,1.116 -0.024,0.619 0.6,1.465 1.108,1.818 0.508,0.354 1.08,0.633 1.492,1.094 0.778,0.871 0.755,2.341 -0.049,3.187 -2.141,2.254 -4.232,4.738 -4.896,7.774 -0.122,0.555 -0.208,1.134 -0.082,1.688 0.127,0.554 0.509,1.08 1.056,1.232 1.371,0.382 2.823,0.442 4.239,0.58 0.891,0.087 1.791,0.176 2.644,0.452 0.852,0.276 1.665,0.758 2.179,1.492 1.077,1.54 2.855,2.394 4.416,3.441 0.73,0.49 1.482,1.194 1.427,2.072 -0.063,0.985 0.244,1.877 0.81,2.684 0.567,0.808 1.279,1.519 1.732,2.395 0.453,0.876 0.595,2.014 0.007,2.806 -0.517,0.697 -1.036,1.472 -1.238,2.316 -0.16,0.669 -0.135,1.367 -0.223,2.05 -0.184,1.437 -0.887,2.802 -1.949,3.787 -0.887,0.822 -1.029,2.469 -0.237,3.383 0.442,0.509 1.143,0.862 1.28,1.522 0.146,0.702 -0.44,1.339 -1.039,1.732 -0.599,0.392 -1.302,0.725 -1.618,1.368 -0.397,0.806 0.026,1.852 0.786,2.33 0.761,0.478 1.751,0.464 2.6,0.17 1.444,-0.501 2.525,-1.706 3.407,-2.954 1.082,-1.53 1.583,-3.392 2.313,-5.118 0.211,-0.499 0.44,-1.022 0.875,-1.344 0.766,-0.567 1.946,-0.256 2.537,0.491 0.59,0.747 0.68,1.789 0.497,2.724 -0.225,1.151 -1.212,2.268 -1.928,3.196 -0.52,0.673 -1.053,1.373 -1.258,2.198 -0.347,1.39 0.296,2.816 0.922,4.105 0.655,1.349 1.331,2.727 2.405,3.773 0.742,0.724 1.646,1.26 2.425,1.944 0.78,0.683 1.459,1.586 1.512,2.622 0.237,4.581 2.06,8.881 1.081,13.363 -0.447,2.045 -1.408,3.934 -2.522,5.706 -0.808,1.284 -1.833,2.527 -3.248,3.072 -0.244,0.094 -0.497,0.166 -0.738,0.266 -1.074,0.446 -1.878,1.485 -2.04,2.636 -0.163,1.151 0.322,2.371 1.23,3.097 1.095,0.874 1.255,2.351 1.022,3.733 -0.128,0.755 -0.427,1.518 -0.251,2.263 0.148,0.623 0.617,1.132 1.163,1.468 0.546,0.336 1.168,0.523 1.783,0.706 2.578,0.768 5.38,0.236 7.982,0.917 0.979,0.257 1.994,0.602 2.661,1.363 0.667,0.761 0.822,2.057 0.073,2.737 -0.092,1.245 -0.186,2.585 -0.278,3.83 -0.04,0.548 -0.08,1.109 0.063,1.64 0.143,0.531 0.504,1.036 1.03,1.198 1.241,0.384 2.482,-1.251 3.699,-0.797 0.461,-0.26 0.903,0.307 1.047,0.817 0.144,0.51 0.227,1.136 0.707,1.36 0.488,0.228 1.083,-0.175 1.26,-0.684 0.176,-0.509 0.058,-1.068 -0.061,-1.593 -0.261,-1.146 -0.521,-2.29 -0.781,-3.436 -0.746,-3.28 -1.493,-6.561 -2.238,-9.842 -0.416,-1.827 0.032,-3.821 1.107,-5.356 2.005,-2.861 3.46,-6.164 5.084,-9.257 0.205,-0.39 0.445,-0.813 0.859,-0.964 0.777,-0.284 1.53,0.623 1.548,1.449 0.018,0.827 -0.388,1.602 -0.512,2.42 -0.301,1.983 1.048,3.795 1.631,5.714 0.857,2.822 0,5.946 -1.622,8.409 -1,1.518 -2.542,2.651 -2.775,4.454 -0.233,1.803 0.652,3.815 2.337,4.497 0.679,0.275 1.424,0.323 2.151,0.416 0.726,0.094 1.475,0.25 2.057,0.695 0.582,0.445 0.943,1.254 0.666,1.932 -0.494,1.209 0.133,2.565 0.86,3.649 0.727,1.084 1.613,2.19 1.625,3.495 0.007,0.675 -0.198,1.451 0.252,1.954 0.222,0.247 0.557,0.359 0.816,0.569 0.716,0.579 0.524,1.92 -0.327,2.275 -1.001,0.417 -1.94,1.217 -2.245,2.258 -0.298,1.017 -0.153,2.105 -0.006,3.154 0.135,0.968 0.282,1.968 0.8,2.798 0.517,0.829 1.511,1.445 2.46,1.211 0.945,-0.233 1.94,-0.357 2.615,-1.058 0.415,-0.431 0.71,-0.961 1.074,-1.436 0.365,-0.474 0.833,-0.913 1.418,-1.038 0.585,-0.124 1.289,0.173 1.441,0.752 0.111,0.423 -0.088,0.87 -0.362,1.211" /></g><g
           transform="translate(154.7596,165.1191)"
           id="g64"><path
             id="path66"
             style="fill:#00bb7a;fill-opacity:1;fill-rule:nonzero;stroke:none"
             d="M 0,0 C 0.758,-1.022 1.466,-2.225 1.293,-3.485 1.051,-5.243 -4.233,-9.229 -0.11,-9.669 2.782,-9.977 7.522,-7.796 6.136,-4.218 5.447,-2.438 3.563,-1.435 2.861,0.348 2.431,1.441 2.527,2.666 2.271,3.813 2.016,4.959 1.167,6.16 -0.007,6.123 -1.278,6.083 -2.054,4.554 -1.838,3.3 -1.622,2.047 -0.758,1.022 0,0" /></g><g
           transform="translate(148.1158,158.5566)"
           id="g68"><path
             id="path70"
             style="fill:#00bb7a;fill-opacity:1;fill-rule:nonzero;stroke:none"
             d="m 0,0 c 0.059,-0.387 0.148,-0.778 0.352,-1.113 0.204,-0.335 0.538,-0.609 0.926,-0.658 0.67,-0.084 1.227,0.48 1.664,0.994 C 3.56,-0.05 4.189,0.695 4.532,1.585 5.284,3.54 3.955,5.604 1.778,4.527 1,4.143 0.436,3.397 0.159,2.574 -0.119,1.752 -0.13,0.858 0,0" /></g><g
           transform="translate(215.4233,203.4356)"
           id="g72"><path
             id="path74"
             style="fill:#00bb7a;fill-opacity:1;fill-rule:nonzero;stroke:none"
             d="M 0,0 C 0.52,-0.244 1.206,-0.405 1.616,-0.002 2.445,0.814 1.238,2.039 0.874,2.767 0.506,3.502 0.43,4.192 0.224,4.967 -0.178,6.475 -1.824,8.89 -3.624,7.379 -4.077,6.999 -4.303,6.395 -4.32,5.803 -4.338,5.212 -4.166,4.629 -3.935,4.084 -3.179,2.305 -1.75,0.821 0,0" /></g><g
           transform="translate(215.9806,215.494)"
           id="g76"><path
             id="path78"
             style="fill:#00bb7a;fill-opacity:1;fill-rule:nonzero;stroke:none"
             d="M 0,0 C 0.86,2.263 1.784,3.524 3.785,5.016 5.43,6.242 7.204,7.739 7.355,9.785 7.424,10.713 6.856,11.855 5.929,11.777 5.438,11.735 5.049,11.36 4.705,11.007 2.418,8.661 0.131,6.315 -2.156,3.969 -3.249,2.848 -4.432,1.428 -4.064,-0.095 -3.485,-2.484 -0.717,-1.886 0,0" /></g><g
           transform="translate(224.6588,57.3204)"
           id="g80"><path
             id="path82"
             style="fill:#00bb7a;fill-opacity:1;fill-rule:nonzero;stroke:none"
             d="m 0,0 c -0.777,-0.201 -1.243,-0.988 -1.525,-1.74 -0.281,-0.751 -0.487,-1.575 -1.062,-2.135 -0.918,-0.892 -2.492,-0.83 -3.371,-1.759 -0.868,-0.917 -0.676,-2.247 -0.897,-3.387 -0.194,-1.004 -0.628,-1.703 -1.327,-2.422 -1.353,-1.389 -1.665,-3.241 -0.05,-4.744 1.167,-1.086 3.093,-1.245 4.421,-0.363 1.446,0.959 1.999,2.805 2.232,4.525 0.233,1.719 0.27,3.526 1.086,5.057 0.478,0.897 1.196,1.64 1.776,2.475 0.579,0.835 1.033,1.84 0.867,2.843 C 1.983,-0.647 0.984,0.254 0,0" /></g></g></g><g
       id="g84"><g
         clip-path="url(#clipPath90)"
         id="g86"><g
           id="g92"><g
             id="g94" /><g
             id="g106"><g
               style="opacity:0.13999903"
               id="g104"
               clip-path="url(#clipPath98)"><g
                 id="g102"
                 transform="translate(254.1043,73.8344)"><path
                   id="path100"
                   style="fill:#223663;fill-opacity:1;fill-rule:nonzero;stroke:none"
                   d="m 0,0 c -17.184,-40.629 -57.414,-69.136 -104.302,-69.136 -22.375,0 -43.233,6.491 -60.794,17.693 0,0 58.846,-11.874 93.738,1.378 C -3.343,-24.232 0,0 0,0" /></g></g></g></g><g
           transform="translate(246.1227,177.1214)"
           id="g108"><path
             id="path110"
             style="fill:#00bb7a;fill-opacity:1;fill-rule:nonzero;stroke:none"
             d="m 0,0 c 0,-3.69 -43.131,-6.681 -96.337,-6.681 -53.205,0 -96.336,2.991 -96.336,6.681 0,3.69 43.131,6.681 96.336,6.681 C -43.131,6.681 0,3.69 0,0" /></g><g
           transform="translate(87.079,207.7315)"
           id="g112"><path
             id="path114"
             style="fill:#90979d;fill-opacity:1;fill-rule:nonzero;stroke:none"
             d="m 0,0 c 0,0 4.304,-30.329 3.252,-30.975 -1.052,-0.646 -9.069,-1.827 -9.923,-0.479 -0.854,1.349 0.443,3.67 0.443,3.67 -0.039,3.598 -6.883,27.819 -6.883,27.819 z" /></g><g
           transform="translate(116.6121,206.7063)"
           id="g116"><path
             id="path118"
             style="fill:#90979d;fill-opacity:1;fill-rule:nonzero;stroke:none"
             d="m 0,0 c 0,0 -1.673,-29.696 -2.831,-30.122 -1.159,-0.426 -9.351,-0.885 -9.922,0.606 -0.57,1.491 1.159,3.509 1.159,3.509 0.326,1.713 0.868,8.13 0.489,14.656 -0.12,2.057 -3.829,6.298 -4.323,9.879 -0.6,4.352 1.359,4.693 1.359,4.693 z" /></g><g
           transform="translate(127.0623,177.0342)"
           id="g120"><path
             id="path122"
             style="fill:#9facb5;fill-opacity:1;fill-rule:nonzero;stroke:none"
             d="m 0,0 c 1.092,6.397 -0.485,18.768 0.325,23.468 2.789,16.177 4.321,34.942 -9.978,46.257 -8.543,6.76 -20.149,5.418 -30.216,3.824 0,0 -8.428,-2.107 -18.477,-0.486 -10.049,1.621 -22.366,6.807 -28.039,-11.021 -5.672,-17.828 -7.341,-18.574 -7.131,-25.446 0.239,-7.842 4.376,-16.369 3.728,-19.773 -0.649,-3.403 2.107,-6.321 -5.997,-7.131 l 0.162,-1.297 c 0,0 -1.297,-1.296 -0.486,-1.945 0.81,-0.648 9.562,-1.458 10.211,7.132 0.648,8.59 -2.918,17.99 1.944,24.959 4.863,6.969 6.645,6.321 6.645,6.321 0,0 4.052,0.973 6.159,1.135 l 3.08,-6.97 c 0,0 1.134,-5.024 5.996,-8.103 0,0 3.242,-24.96 2.756,-28.525 0,0 -1.621,-2.107 -0.973,-3.566 0.649,-1.459 8.752,-1.459 9.887,-0.972 1.134,0.486 0.94,31.702 0.94,31.702 0,0 13.092,-4.832 30.271,-0.781 0,0 1.442,-2.701 3.589,-5.149 1.509,-1.72 3.707,-2.918 4.525,-4.681 2.029,-4.369 1.765,-15.986 1.765,-15.986 0,0 -2.269,-3.242 -1.297,-4.214 C -9.638,-2.221 -0.447,-2.615 0,0" /></g><g
           transform="translate(51.4976,236.4302)"
           id="g124"><path
             id="path126"
             style="fill:#0d1b32;fill-opacity:1;fill-rule:nonzero;stroke:none"
             d="m 0,0 c 0,-0.525 -0.425,-0.95 -0.95,-0.95 -0.525,0 -0.951,0.425 -0.951,0.95 0,0.525 0.426,0.95 0.951,0.95 C -0.425,0.95 0,0.525 0,0" /></g><g
           transform="translate(51.9776,223.8586)"
           id="g128"><path
             id="path130"
             style="fill:#f2f2f2;fill-opacity:1;fill-rule:nonzero;stroke:none"
             d="m 0,0 c 0,0 -2.84,2.716 -4.445,3.21 0,0 -4.568,-8.519 -14.199,-10.988 0,0 5.03,-1.417 10.125,0.37 C -1.622,-4.989 0,0 0,0" /></g><g
           transform="translate(61.0005,251.2784)"
           id="g132"><path
             id="path134"
             style="fill:#9facb5;fill-opacity:1;fill-rule:nonzero;stroke:none"
             d="m 0,0 c 2.97,-0.475 5.056,-1.938 7.057,-3.146 1.984,-1.198 4.024,-2.446 5.369,-4.306 2.118,-2.929 2.039,-7.198 -0.186,-10.049 -2.056,-2.634 -5.484,-3.882 -7.883,-6.223 -1.752,-1.71 -2.877,-3.926 -4.381,-5.847 -1.504,-1.922 -3.639,-3.646 -6.116,-3.651 -2.477,-0.004 -4.919,2.527 -3.969,4.761 z" /></g><g
           transform="translate(54.8542,217.7384)"
           id="g136"><path
             id="path138"
             style="fill:#f2f2f2;fill-opacity:1;fill-rule:nonzero;stroke:none"
             d="M 0,0 C -1.467,0 -3.021,0.855 -3.868,2.131 -4.536,3.137 -4.674,4.234 -4.257,5.22 -4.188,5.382 -3.998,5.456 -3.839,5.389 -3.677,5.32 -3.601,5.133 -3.669,4.971 -4.001,4.189 -3.882,3.306 -3.337,2.483 -2.603,1.379 -1.263,0.637 0,0.637 h 0.006 c 2.704,0.005 4.835,2.221 5.865,3.541 0.555,0.712 1.07,1.481 1.567,2.225 0.846,1.267 1.722,2.577 2.843,3.675 1.068,1.046 2.342,1.883 3.574,2.693 1.622,1.065 3.153,2.071 4.279,3.52 2.122,2.729 2.199,6.9 0.18,9.702 -1.328,1.844 -3.425,3.115 -5.276,4.236 l -0.706,0.434 c -1.807,1.116 -3.676,2.27 -6.236,2.681 -0.174,0.028 -0.292,0.191 -0.264,0.365 0.027,0.174 0.188,0.291 0.365,0.264 2.686,-0.431 4.696,-1.672 6.47,-2.768 l 0.702,-0.431 c 1.902,-1.153 4.058,-2.46 5.462,-4.408 2.215,-3.072 2.133,-7.474 -0.193,-10.467 C 17.446,14.367 15.799,13.284 14.205,12.238 12.999,11.445 11.751,10.625 10.727,9.622 9.653,8.571 8.796,7.289 7.968,6.049 7.465,5.295 6.944,4.516 6.374,3.786 5.273,2.374 2.981,0.005 0.007,0 Z" /></g><g
           transform="translate(94.3208,204.0711)"
           id="g140"><path
             id="path142"
             style="fill:#f2f2f2;fill-opacity:1;fill-rule:nonzero;stroke:none"
             d="m 0,0 c -11.583,0 -18.92,2.495 -19.028,2.532 -0.166,0.058 -0.253,0.24 -0.196,0.406 0.058,0.167 0.241,0.254 0.406,0.196 0.159,-0.055 16.109,-5.469 38.203,-0.183 0.17,0.041 0.343,-0.064 0.385,-0.235 C 19.811,2.544 19.705,2.372 19.534,2.331 12.25,0.588 5.624,0 0,0" /></g><g
           transform="translate(125.1373,236.2103)"
           id="g144"><path
             id="path146"
             style="fill:#9facb5;fill-opacity:1;fill-rule:nonzero;stroke:none"
             d="m 0,0 c 0,0 6.376,-7.725 7.234,-12.874 0.858,-5.15 -0.736,-13.61 1.471,-21.458 0,0 -3.419,6.854 -2.697,16.185 C 6.49,-11.912 2.084,-6.866 2.084,-6.498 2.084,-6.131 0,0 0,0" /></g><g
           transform="translate(132.6003,205.3124)"
           id="g148"><path
             id="path150"
             style="fill:#90979d;fill-opacity:1;fill-rule:nonzero;stroke:none"
             d="m 0,0 c 0,0 -1.011,-5.752 1.943,-6.297 0,0 -0.388,0.545 -0.388,1.166 0,0.622 1.01,1.711 0.388,3.032 C 1.322,-0.777 0,0 0,0" /></g><g
           id="g152"><g
             id="g154" /><g
             id="g166"><g
               style="opacity:0.10000598"
               id="g164"
               clip-path="url(#clipPath158)"><g
                 id="g162"
                 transform="translate(97.7527,248.5041)"><path
                   id="path160"
                   style="fill:#f2f2f2;fill-opacity:1;fill-rule:nonzero;stroke:none"
                   d="M 0,0 C 0,0 20.268,-0.064 21.932,-11.26 22.458,-14.794 18.904,-4.133 2.557,-4.133 -7.091,-4.133 -8.023,1.055 0,0" /></g></g></g></g><g
           transform="translate(134.2947,222.9302)"
           id="g168"><path
             id="path170"
             style="fill:#cb7b27;fill-opacity:1;fill-rule:nonzero;stroke:none"
             d="M 0,0 C 0,-0.324 2.379,-21.303 2.379,-21.303 L 1.622,-38.93 c 0,0 -2.744,-2.943 -2.545,-3.839 0.174,-0.779 3.518,-0.378 3.518,-0.378 v 2.487 c 0,0 1.406,0.541 1.406,2.379 0,1.838 1.082,17.843 1.082,17.843 L 6.38,-6.056 Z" /></g><g
           transform="translate(156.7876,219.0372)"
           id="g172"><path
             id="path174"
             style="fill:#cb7b27;fill-opacity:1;fill-rule:nonzero;stroke:none"
             d="m 0,0 c 0,0 -0.108,-5.515 3.46,-10.165 3.569,-4.65 7.246,-8.759 7.462,-11.138 0.216,-2.379 -1.298,-13.95 -1.298,-13.95 0,0 -2.664,-2.378 -2.551,-3.623 0.043,-0.476 3.741,-0.27 3.741,-0.27 l 0.108,2.054 c 0,0 0.865,1.082 1.081,2.38 0.217,1.297 2.596,13.625 2.055,16.112 -0.541,2.487 -6.38,18.708 -6.38,18.708 z" /></g><g
           transform="translate(172.9757,206.5123)"
           id="g176"><path
             id="path178"
             style="fill:#ef9d3d;fill-opacity:1;fill-rule:nonzero;stroke:none"
             d="m 0,0 c -0.905,1.963 1.563,13.967 -0.098,23.05 -1.66,9.084 -17.385,11.135 -24.613,16.799 -7.227,5.665 -30.036,42.737 -30.036,42.737 -0.701,0.764 -1.837,0.962 -2.872,0.892 -3.563,-0.242 -6.389,-2.98 -9.651,-4.433 -2.584,-1.152 -7.589,-2.281 -6.233,-5.671 0.486,-1.216 5.134,-0.121 5.134,-0.121 5.665,-1.758 10.45,-0.879 10.45,-0.879 l 17.776,-42.292 c -3.32,-12.99 5.47,-17.385 5.861,-19.241 0.39,-1.855 4.492,-14.357 4.492,-14.357 0.47,-5.323 0.494,-19.067 0.494,-19.067 0,0 -1.395,-2.239 -1.43,-3.465 -0.028,-1.001 3.378,-0.129 3.378,-0.129 l 0.347,2.901 c 0,0 0.491,0.986 0.563,1.343 0.406,2.007 -0.097,5.002 0,8.401 0.315,11.052 0.067,26.424 0.067,26.424 4.297,-1.758 14.846,-1.269 14.846,-1.269 0.879,-12.893 12.816,-19 12.816,-19 0.529,-2.33 0.941,-15.163 0.941,-15.163 0,0 -2.786,-2.679 -2.296,-3.854 0.265,-0.633 4.274,-0.12 4.274,-0.12 l -0.227,2.222 c 0,0 0.715,1.186 0.757,2.501 0.043,1.315 0.777,12.822 -0.394,15.082 C 3.426,-4.935 0.659,-1.429 0,0" /></g><g
           transform="translate(117.0181,288.7922)"
           id="g180"><path
             id="path182"
             style="fill:#ef9d3d;fill-opacity:1;fill-rule:nonzero;stroke:none"
             d="m 0,0 c 0,0 3.032,1.873 7.045,0.713 0,0 -0.535,-2.229 -4.102,-4.013 z" /></g><g
           transform="translate(115.5514,289.1147)"
           id="g184"><path
             id="path186"
             style="fill:#ef9d3d;fill-opacity:1;fill-rule:nonzero;stroke:none"
             d="m 0,0 0.437,3.677 c 0,0 -0.3,0.127 -0.401,0.509 -0.1,0.383 0,1.02 0.474,1.165 C 0.865,5.46 1.188,5.433 1.493,5.388 2.001,5.313 2.403,5.065 2.403,4.405 2.403,3.64 1.638,3.568 1.638,3.568 L 1.493,-0.146 Z" /></g><g
           transform="translate(113.5623,289.0791)"
           id="g188"><path
             id="path190"
             style="fill:#ef9d3d;fill-opacity:1;fill-rule:nonzero;stroke:none"
             d="m 0,0 -0.504,3.668 c 0,0 -0.323,0.048 -0.516,0.392 -0.194,0.345 -0.257,0.987 0.164,1.247 0.316,0.195 0.635,0.25 0.942,0.283 C 0.597,5.646 1.048,5.507 1.214,4.868 1.407,4.129 0.686,3.865 0.686,3.865 l 0.795,-3.63 z" /></g><g
           transform="translate(176.9441,212.7012)"
           id="g192"><path
             id="path194"
             style="fill:#cb7b27;fill-opacity:1;fill-rule:nonzero;stroke:none"
             d="m 0,0 c 0,0 -1.011,-5.752 1.943,-6.297 0,0 -0.388,0.545 -0.388,1.166 0,0.622 1.01,1.711 0.388,3.032 C 1.322,-0.777 0,0 0,0" /></g><g
           transform="translate(170.4274,233.9924)"
           id="g196"><path
             id="path198"
             style="fill:#ef9d3d;fill-opacity:1;fill-rule:nonzero;stroke:none"
             d="m 0,0 c 0,0 5.552,-6.231 5.815,-11.1 0.263,-4.869 1.112,-9.095 1.272,-10.951 0,0 -2.056,2.785 -2.456,9.504 C 4.435,-9.253 1.999,-5.705 1.999,-5.31 1.999,-4.915 0,0 0,0" /></g><g
           transform="translate(111.2077,284.8469)"
           id="g200"><path
             id="path202"
             style="fill:#0d1b32;fill-opacity:1;fill-rule:nonzero;stroke:none"
             d="m 0,0 c -0.4,0 -0.724,0.324 -0.724,0.724 0,0.4 0.324,0.725 0.724,0.725 0.4,0 0.724,-0.325 0.724,-0.725 C 0.724,0.324 0.4,0 0,0" /></g><g
           transform="translate(120.0048,285.3607)"
           id="g204"><path
             id="path206"
             style="fill:#cb7b27;fill-opacity:1;fill-rule:nonzero;stroke:none"
             d="m 0,0 c 0,0 24.47,-37.908 28.274,-39.613 0,0 0.139,1.374 -0.131,1.705 -1.081,1.322 -2.759,3.584 -4.541,6.049 -0.127,0.174 -0.631,0.231 -0.631,0.231 0,0 0.003,0.639 -0.121,0.812 -3.58,4.979 -7.3,10.354 -7.3,10.354 0,0 -5.967,9.092 -10.468,15.32 -0.211,0.293 -0.747,0.22 -0.747,0.22 0,0 0.219,0.453 0,0.748 C 3.08,-2.493 1.634,-0.595 0.932,0.096 0.585,0.437 0,0 0,0" /></g><g
           transform="translate(122.4985,280.8878)"
           id="g208"><path
             id="path210"
             style="fill:#cb7b27;fill-opacity:1;fill-rule:nonzero;stroke:none"
             d="M 0,0 C 0.064,-0.097 0.114,-0.176 0.146,-0.226 0.59,-0.911 0.882,-1.652 1.059,-2.447 1.073,-2.505 1.084,-2.571 1.05,-2.621 1.01,-2.679 0.928,-2.686 0.857,-2.687 0.448,-2.693 0.038,-2.699 -0.372,-2.706 c -0.395,-0.005 -0.796,-0.011 -1.176,0.096 -0.38,0.106 -0.743,0.342 -0.908,0.7 -0.145,0.313 -0.125,0.678 -0.241,1.002 -0.067,0.184 -0.175,0.352 -0.242,0.536 -0.164,0.457 -0.039,0.993 0.278,1.361 0.316,0.368 0.804,0.57 1.289,0.579 C -1.06,1.574 -0.341,0.521 0,0" /></g><g
           transform="translate(128.2844,273.4551)"
           id="g212"><path
             id="path214"
             style="fill:#cb7b27;fill-opacity:1;fill-rule:nonzero;stroke:none"
             d="M 0,0 C 0.173,-0.517 -0.249,-1.027 -0.638,-1.409 -0.73,-1.5 -0.825,-1.593 -0.945,-1.643 c -0.152,-0.063 -0.324,-0.05 -0.489,-0.035 -0.543,0.049 -1.141,0.124 -1.503,0.532 -0.341,0.385 -0.366,0.944 -0.509,1.438 -0.232,0.8 -0.813,1.526 -0.757,2.357 0.034,0.501 0.318,0.978 0.743,1.245 l 0.842,0.192 z" /></g><g
           transform="translate(121.4548,276.2028)"
           id="g216"><path
             id="path218"
             style="fill:#cb7b27;fill-opacity:1;fill-rule:nonzero;stroke:none"
             d="M 0,0 C 0.048,0.054 0.101,0.096 0.16,0.122 0.362,0.212 0.603,0.178 0.799,0.078 1.107,-0.077 1.321,-0.35 1.5,-0.635 1.884,-1.249 2.158,-1.924 2.43,-2.596 2.611,-3.043 2.794,-3.503 2.795,-3.985 2.795,-4.223 2.736,-4.483 2.546,-4.625 2.252,-4.845 1.812,-4.66 1.588,-4.369 1.364,-4.079 1.27,-3.709 1.078,-3.396 0.761,-2.88 0.201,-2.556 -0.145,-2.058 -0.408,-1.678 -0.386,-0.437 0,0" /></g><g
           transform="translate(127.9627,269.5171)"
           id="g220"><path
             id="path222"
             style="fill:#cb7b27;fill-opacity:1;fill-rule:nonzero;stroke:none"
             d="m 0,0 c -0.201,0.065 -0.406,0.115 -0.615,0.099 -1.052,-0.077 -1.263,-1.316 -1.147,-2.151 0.074,-0.533 0.256,-1.087 0.678,-1.417 0.294,-0.23 0.67,-0.323 0.994,-0.507 0.46,-0.26 0.796,-0.69 1.166,-1.068 0.371,-0.378 0.825,-0.729 1.352,-0.754 0.836,-0.039 1.513,0.81 1.558,1.653 0.045,0.842 -0.381,1.638 -0.885,2.312 -0.228,0.304 -0.474,0.596 -0.764,0.84 C 1.751,-0.496 0.919,-0.328 0.21,-0.073 0.141,-0.048 0.071,-0.023 0,0" /></g><g
           transform="translate(133.8525,262.7549)"
           id="g224"><path
             id="path226"
             style="fill:#cb7b27;fill-opacity:1;fill-rule:nonzero;stroke:none"
             d="M 0,0 C 0.513,-0.532 1.026,-1.064 1.539,-1.596 1.87,-1.939 2.219,-2.32 2.264,-2.794 2.301,-3.184 2.123,-3.558 1.95,-3.909 1.812,-4.189 1.661,-4.483 1.396,-4.648 1.033,-4.874 0.54,-4.787 0.192,-4.539 c -0.348,0.249 -0.576,0.629 -0.767,1.011 -0.191,0.382 -0.358,0.782 -0.622,1.118 -0.227,0.29 -0.52,0.522 -0.763,0.799 -0.243,0.276 -0.443,0.623 -0.422,0.99 0.019,0.349 0.237,0.662 0.511,0.878 0.274,0.215 0.603,0.349 0.926,0.48 0,0 0.71,-0.493 0.945,-0.737" /></g><g
           transform="translate(152.8058,229.8714)"
           id="g228"><path
             id="path230"
             style="fill:#cb7b27;fill-opacity:1;fill-rule:nonzero;stroke:none"
             d="m 0,0 c -0.846,0.141 -1.692,0.282 -2.538,0.423 -0.544,0.091 -1.132,0.205 -1.502,0.615 -0.304,0.337 -0.397,0.809 -0.478,1.256 -0.065,0.356 -0.128,0.734 0.005,1.071 0.182,0.461 0.701,0.721 1.197,0.73 0.495,0.009 0.971,-0.187 1.413,-0.411 C -1.461,3.46 -1.029,3.202 -0.551,3.072 -0.139,2.959 0.294,2.945 0.712,2.856 1.13,2.766 1.555,2.582 1.79,2.225 2.013,1.887 2.026,1.445 1.92,1.054 1.919,1.05 1.918,1.046 1.917,1.042 1.723,0.344 0.997,-0.07 0.273,-0.027 0.167,-0.021 0.073,-0.012 0,0" /></g><g
           transform="translate(137.3985,252.0453)"
           id="g232"><path
             id="path234"
             style="fill:#cb7b27;fill-opacity:1;fill-rule:nonzero;stroke:none"
             d="m 0,0 c 0.239,-0.325 0.614,-0.671 0.991,-0.526 0.247,0.095 0.378,0.372 0.607,0.504 0.193,0.11 0.444,0.114 0.604,0.267 C 2.353,0.391 2.374,0.624 2.485,0.801 2.568,0.935 2.702,1.035 2.767,1.178 2.892,1.455 2.72,1.77 2.555,2.025 2.122,2.691 1.69,3.357 1.258,4.023 1.072,4.309 0.875,4.606 0.579,4.777 0.111,5.048 -0.477,4.937 -1.001,4.805 -1.259,4.74 -1.626,4.759 -1.741,4.519 -2.318,3.311 -0.781,1.06 0,0" /></g><g
           transform="translate(142.3829,250.8952)"
           id="g236"><path
             id="path238"
             style="fill:#cb7b27;fill-opacity:1;fill-rule:nonzero;stroke:none"
             d="m 0,0 c -0.012,0.005 -0.025,0.009 -0.038,0.011 -0.073,0.014 -0.147,-0.013 -0.214,-0.044 -0.489,-0.221 -1.084,-0.697 -1.082,-1.286 0.001,-0.224 0.088,-0.438 0.173,-0.646 0.344,-0.834 0.699,-1.686 1.307,-2.352 0.418,-0.457 1.083,-0.826 1.637,-0.55 0.431,0.214 0.609,0.725 0.747,1.186 0.046,0.154 0.093,0.317 0.056,0.474 -0.033,0.142 -0.129,0.26 -0.223,0.371 C 1.621,-1.952 0.897,-1.054 0.175,-0.154 0.126,-0.093 0.071,-0.029 0,0" /></g><g
           transform="translate(154.2015,241.6265)"
           id="g240"><path
             id="path242"
             style="fill:#cb7b27;fill-opacity:1;fill-rule:nonzero;stroke:none"
             d="m 0,0 c -0.277,-0.313 -0.649,-0.524 -0.954,-0.809 -0.305,-0.287 -0.562,-0.661 -0.959,-0.794 -0.549,-0.183 -1.121,0.162 -1.597,0.491 -0.289,0.2 -0.579,0.4 -0.868,0.601 -0.531,0.367 -1.099,0.787 -1.26,1.412 -0.21,0.815 -0.069,2.168 0.341,3.359 0,0 1.83,-1.114 2.676,-1.621 C -2.352,2.478 -2.052,2.291 -1.762,2.17 -1.136,1.909 -0.08,1.589 0.406,1.116 0.406,1.116 0.277,0.312 0,0" /></g><g
           transform="translate(157.1268,241.7072)"
           id="g244"><path
             id="path246"
             style="fill:#cb7b27;fill-opacity:1;fill-rule:nonzero;stroke:none"
             d="m 0,0 c -0.282,0.08 -0.62,-0.365 -0.834,-0.565 -0.214,-0.2 -0.352,-0.467 -0.481,-0.73 -0.254,-0.518 -0.493,-1.135 -0.235,-1.651 0.247,-0.496 0.86,-0.699 1.181,-1.15 0.193,-0.271 0.263,-0.608 0.382,-0.919 0.119,-0.311 0.319,-0.626 0.638,-0.721 0.239,-0.072 0.495,-0.004 0.735,0.065 0.955,0.275 1.9,0.583 2.845,0.89 0.106,0.034 0.216,0.072 0.292,0.153 0.091,0.098 0.113,0.238 0.131,0.37 0.089,0.635 0.179,1.123 0.268,1.758 0.013,0.093 0.025,0.194 -0.019,0.277 C 4.852,-2.126 4.738,-2.085 4.639,-2.04 3.105,-1.348 0,0 0,0" /></g><g
           transform="translate(151.0629,237.8419)"
           id="g248"><path
             id="path250"
             style="fill:#cb7b27;fill-opacity:1;fill-rule:nonzero;stroke:none"
             d="M 0,0 C 0.143,0.476 0.735,0.691 1.223,0.594 1.711,0.498 2.12,0.178 2.521,-0.115 2.959,-0.435 3.412,-0.735 3.876,-1.014 4.592,-1.444 5.419,-1.933 5.557,-2.756 5.605,-3.04 5.547,-3.359 5.334,-3.553 5.203,-3.671 5.03,-3.73 4.858,-3.769 3.754,-4.018 2.627,-3.552 1.602,-3.073 c -0.653,0.306 -1.355,0.677 -1.623,1.347 -0.219,0.547 -0.092,1.164 0.037,1.739 z" /></g><g
           transform="translate(144.6272,241.0267)"
           id="g252"><path
             id="path254"
             style="fill:#cb7b27;fill-opacity:1;fill-rule:nonzero;stroke:none"
             d="m 0,0 c -0.758,-0.563 -0.457,-2.359 -0.474,-3.127 -0.006,-0.294 -0.012,-0.592 0.056,-0.878 0.172,-0.723 0.788,-1.257 1.438,-1.617 0.979,-0.543 2.24,-0.785 3.196,-0.205 0.819,0.496 1.228,1.506 1.208,2.463 -0.021,0.958 -0.41,1.871 -0.888,2.701 C 4.169,-0.025 3.652,0.639 2.92,0.709 2.032,0.794 1.132,0.358 0.291,0.138 0.18,0.109 0.084,0.062 0,0" /></g><g
           transform="translate(145.4074,245.2285)"
           id="g256"><path
             id="path258"
             style="fill:#cb7b27;fill-opacity:1;fill-rule:nonzero;stroke:none"
             d="m 0,0 c 0.417,0.318 0.892,0.466 1.264,0.057 0.66,-0.727 -0.096,-2.048 -0.915,-2.232 -0.461,-0.104 -0.988,0.079 -1.24,0.478 -0.061,0.096 -0.107,0.206 -0.107,0.32 -0.001,0.132 0.058,0.256 0.123,0.371 C -0.717,-0.728 -0.383,-0.292 0,0" /></g><g
           transform="translate(157.8776,232.1475)"
           id="g260"><path
             id="path262"
             style="fill:#cb7b27;fill-opacity:1;fill-rule:nonzero;stroke:none"
             d="m 0,0 c 0.265,-0.343 0.381,-0.729 0.016,-1.015 -0.647,-0.51 -1.773,0.133 -1.912,0.796 -0.078,0.373 0.095,0.79 0.448,0.982 0.085,0.046 0.181,0.08 0.28,0.077 C -1.054,0.836 -0.948,0.785 -0.85,0.73 -0.613,0.595 -0.243,0.316 0,0" /></g><g
           transform="translate(161.3056,235.1343)"
           id="g264"><path
             id="path266"
             style="fill:#cb7b27;fill-opacity:1;fill-rule:nonzero;stroke:none"
             d="m 0,0 c -0.751,-0.158 -1.484,-0.403 -2.184,-0.728 -0.192,-0.089 -0.392,-0.195 -0.492,-0.388 -0.083,-0.158 -0.082,-0.348 -0.07,-0.528 0.047,-0.671 0.233,-1.33 0.543,-1.918 0.128,-0.245 0.282,-0.482 0.495,-0.65 0.226,-0.179 0.505,-0.268 0.783,-0.321 1.025,-0.195 2.092,0.065 3.031,0.538 0.939,0.473 1.77,1.15 2.583,1.834 0.151,0.126 0.306,0.259 0.39,0.441 0.108,0.232 0.083,0.511 0.002,0.755 C 4.802,-0.12 3.924,0.376 3.074,0.44 2.224,0.504 0,0 0,0" /></g><g
           transform="translate(167.2616,236.8425)"
           id="g268"><path
             id="path270"
             style="fill:#cb7b27;fill-opacity:1;fill-rule:nonzero;stroke:none"
             d="M 0,0 C 0.015,-0.166 -0.196,-0.571 -0.343,-0.651 -0.49,-0.73 -0.661,-0.749 -0.827,-0.767 -1.319,-0.818 -1.822,-0.869 -2.302,-0.75 -2.782,-0.631 -3.241,-0.306 -3.38,0.169 -3.521,0.65 -3.581,1.325 -3.299,1.74 -3.195,1.892 0,0 0,0" /></g><g
           transform="translate(100.6647,281.9331)"
           id="g272"><path
             id="path274"
             style="fill:#0d1b32;fill-opacity:1;fill-rule:nonzero;stroke:none"
             d="M 0,0 C -0.082,0 -0.163,0.031 -0.226,0.093 -0.35,0.218 -0.35,0.42 -0.226,0.544 -0.162,0.607 0.411,1.156 1.056,0.98 1.226,0.934 1.326,0.759 1.28,0.589 1.234,0.419 1.059,0.319 0.888,0.365 0.633,0.438 0.3,0.169 0.226,0.093 0.163,0.031 0.082,0 0,0" /></g><g
           transform="translate(167.8504,232.8495)"
           id="g276"><path
             id="path278"
             style="fill:#cb7b27;fill-opacity:1;fill-rule:nonzero;stroke:none"
             d="m 0,0 c -0.928,-0.686 -1.716,-1.562 -2.3,-2.558 -0.047,-0.081 -0.094,-0.177 -0.056,-0.262 0.031,-0.07 0.108,-0.105 0.179,-0.134 0.394,-0.16 0.788,-0.321 1.182,-0.481 0.212,-0.087 0.43,-0.174 0.658,-0.179 0.256,-0.005 0.5,0.094 0.737,0.191 0.176,0.073 0.359,0.15 0.49,0.289 0.087,0.092 0.146,0.206 0.204,0.318 0.164,0.318 0.328,0.635 0.491,0.953 0.097,0.188 0.197,0.386 0.192,0.598 -0.008,0.418 -0.4,0.711 -0.752,0.936 C 0.835,-0.207 0,0 0,0" /></g><g
           transform="translate(162.1454,226.7933)"
           id="g280"><path
             id="path282"
             style="fill:#cb7b27;fill-opacity:1;fill-rule:nonzero;stroke:none"
             d="m 0,0 c -0.924,-0.196 -1.857,-0.353 -2.794,-0.469 -0.155,-0.02 -0.336,-0.028 -0.439,0.089 -0.079,0.09 -0.081,0.222 -0.078,0.341 0.02,0.78 0.086,1.626 0.606,2.207 0.603,0.677 1.636,0.774 2.528,0.613 C 0.139,2.724 0.455,2.639 0.734,2.48 1.178,2.227 1.497,1.806 1.803,1.397 1.957,1.191 2.111,0.986 2.265,0.78 2.307,0.724 2.351,0.653 2.323,0.588 2.304,0.545 2.258,0.522 2.215,0.502 1.789,0.309 0,0 0,0" /></g><g
           transform="translate(143.716,231.8117)"
           id="g284"><path
             id="path286"
             style="fill:#cb7b27;fill-opacity:1;fill-rule:nonzero;stroke:none"
             d="m 0,0 c 0.615,-0.77 1.431,-1.379 2.344,-1.75 0.1,-0.041 0.209,-0.079 0.314,-0.052 0.112,0.029 0.192,0.127 0.259,0.223 0.31,0.443 0.526,0.951 0.631,1.481 0.018,0.09 0.032,0.181 0.029,0.273 C 3.572,0.293 3.537,0.408 3.495,0.519 3.216,1.262 2.621,1.881 1.889,2.189 1.778,2.236 1.662,2.276 1.542,2.277 1.345,2.28 1.164,2.179 0.986,2.095 0.463,1.849 -0.15,1.709 -0.514,1.26 -0.514,1.26 -0.353,0.442 0,0" /></g><g
           transform="translate(149.3396,228.5229)"
           id="g288"><path
             id="path290"
             style="fill:#cb7b27;fill-opacity:1;fill-rule:nonzero;stroke:none"
             d="m 0,0 c -0.098,-0.06 -0.204,-0.139 -0.216,-0.254 -0.009,-0.092 0.045,-0.177 0.097,-0.253 0.23,-0.338 0.46,-0.675 0.69,-1.013 0.146,-0.216 0.296,-0.434 0.495,-0.602 0.597,-0.503 1.47,-0.441 2.246,-0.351 0.509,0.059 1.018,0.118 1.527,0.177 0.722,0.083 1.445,0.167 2.167,0.25 0.044,0.005 0.091,0.012 0.125,0.041 0.054,0.048 0.048,0.132 0.039,0.203 C 7.083,-1.166 6.997,-0.531 6.911,0.104 6.9,0.187 6.887,0.274 6.841,0.343 6.746,0.484 6.553,0.507 6.384,0.516 4.994,0.595 3.604,0.674 2.214,0.753 2.214,0.753 0.691,0.423 0,0" /></g><g
           transform="translate(235.6706,207.1526)"
           id="g292"><path
             id="path294"
             style="fill:#939393;fill-opacity:1;fill-rule:nonzero;stroke:none"
             d="m 0,0 c -0.309,-5.609 -4.741,-10.094 -3.023,-16.921 0.813,-3.229 -1.206,-10.574 -1.805,-12.965 -0.132,-0.528 -0.576,-0.901 -1.089,-0.911 -2.001,-0.039 -6.813,-0.051 -7.033,0.737 -0.279,0.996 2.732,3.309 2.732,3.309 0,0 0.299,4.217 -0.224,6.595 -0.523,2.378 -1.638,3.815 -2.714,4.513 -5.786,3.753 -4.662,10.081 -4.662,10.081 z" /></g><g
           transform="translate(195.6248,201.9238)"
           id="g296"><path
             id="path298"
             style="fill:#939393;fill-opacity:1;fill-rule:nonzero;stroke:none"
             d="m 0,0 3.256,-21.995 c 0.096,-0.654 -0.25,-1.29 -0.854,-1.56 -1.679,-0.747 -5.102,-1.665 -6.475,-1.446 -1.879,0.3 0.248,3.435 0.079,4.7 -0.169,1.264 -5.77,18.811 -5.77,18.811 z" /></g><g
           transform="translate(145.3011,204.4264)"
           id="g300"><path
             id="path302"
             style="fill:#b2b2b2;fill-opacity:1;fill-rule:nonzero;stroke:none"
             d="m 0,0 c 0,0 -2.916,-8.019 5.832,-9.659 8.748,-1.641 18.772,5.285 18.772,5.285 l 11.482,0.547 c 0,0 1.054,-18.939 1.054,-20.214 0,-1.276 -2.187,-3.099 -0.364,-3.645 1.26,-0.378 4.349,-0.321 6.136,-0.249 0.741,0.029 1.316,0.65 1.291,1.391 l 1.525,20.754 c 0,0 18.79,-6.786 32.277,0.869 0,0 -0.567,-6.026 5.525,-9.07 1.133,-0.566 2.369,-1.822 3.098,-4.009 0.729,-2.187 0.703,-6.236 0.703,-6.236 0,0 -2.797,-2.417 -2.432,-3.328 0.288,-0.721 5.08,-0.314 7.07,-0.112 0.511,0.052 0.92,0.438 1.006,0.944 0.387,2.291 1.853,9.415 0.761,12.377 -2.309,6.261 1.714,10.832 1.531,16.118 -0.182,5.285 -0.623,15.808 -8.064,20.097 -6.817,3.93 -31.251,2.38 -33.62,2.562 -2.37,0.182 -7.596,4.309 -23.088,-2.434 0,0 -10.579,-5.828 -12.673,-9.089 -0.54,-0.84 -2.513,-2.693 -2.513,-2.693 L 8.661,6.672 c 0,0 -4.437,2.804 -5.927,4.414 C 2.665,11.16 2.546,11.121 2.545,11.02 2.536,10.126 3.066,6.487 4.282,4.665 c 0,0 -5.603,4.353 -9.066,10.929 -0.044,0.083 -0.167,0.069 -0.179,-0.024 C -5.173,13.958 -5.881,5.881 0,0" /></g><g
           transform="translate(166.5315,215.7005)"
           id="g304"><path
             id="path306"
             style="fill:#b2b2b2;fill-opacity:1;fill-rule:nonzero;stroke:none"
             d="m 0,0 c 0,0 -1.444,4.384 3.856,7.699 0,0 2.895,-3.568 0.16,-8.634" /></g><g
           transform="translate(170.5476,214.4621)"
           id="g308"><path
             id="path310"
             style="fill:#f2f2f2;fill-opacity:1;fill-rule:nonzero;stroke:none"
             d="M 0,0 C -0.049,0 -0.098,0.012 -0.144,0.036 -0.292,0.116 -0.347,0.3 -0.267,0.448 1.964,4.582 0.303,7.692 -0.241,8.525 -4.996,5.393 -3.742,1.374 -3.728,1.333 -3.676,1.174 -3.762,1.003 -3.921,0.95 -4.082,0.899 -4.253,0.984 -4.305,1.143 -4.32,1.189 -5.76,5.793 -0.321,9.195 -0.191,9.276 -0.021,9.247 0.076,9.129 0.106,9.091 3.065,5.343 0.267,0.159 0.212,0.058 0.108,0 0,0" /></g><g
           transform="translate(236.9955,221.6506)"
           id="g312"><path
             id="path314"
             style="fill:#bfc3c5;fill-opacity:1;fill-rule:nonzero;stroke:none"
             d="m 0,0 c 0,0 5.536,-6.707 6.281,-11.178 0.745,-4.472 -0.639,-11.817 1.278,-18.631 0,0 -2.969,5.952 -2.343,14.053 C 5.635,-10.343 1.81,-5.962 1.81,-5.642 1.81,-5.323 0,0 0,0" /></g><g
           transform="translate(243.4753,194.8234)"
           id="g316"><path
             id="path318"
             style="fill:#aeaeae;fill-opacity:1;fill-rule:nonzero;stroke:none"
             d="m 0,0 c 0,0 -0.877,-4.995 1.687,-5.467 0,0 -0.337,0.472 -0.337,1.012 0,0.54 0.877,1.485 0.337,2.633 C 1.147,-0.675 0,0 0,0" /></g><g
           transform="translate(163.0427,208.073)"
           id="g320"><path
             id="path322"
             style="fill:#0d1b32;fill-opacity:1;fill-rule:nonzero;stroke:none"
             d="m 0,0 c 0,-0.522 -0.423,-0.945 -0.945,-0.945 -0.522,0 -0.946,0.423 -0.946,0.945 0,0.522 0.424,0.945 0.946,0.945 C -0.423,0.945 0,0.522 0,0" /></g><g
           transform="translate(148.0842,202.1781)"
           id="g324"><path
             id="path326"
             style="fill:#0d1b32;fill-opacity:1;fill-rule:nonzero;stroke:none"
             d="m 0,0 c -0.042,0 -1.036,0.015 -1.434,1.29 -0.05,0.161 0.039,0.331 0.199,0.381 0.161,0.05 0.33,-0.04 0.381,-0.199 C -0.593,0.636 -0.02,0.608 0.005,0.607 0.17,0.602 0.304,0.465 0.301,0.299 0.298,0.133 0.166,0 0,0" /></g><g
           transform="translate(146.4011,196.9952)"
           id="g328"><path
             id="path330"
             style="fill:#f2f2f2;fill-opacity:1;fill-rule:nonzero;stroke:none"
             d="m 0,0 c -0.136,0 -0.26,0.092 -0.294,0.23 -0.041,0.163 0.058,0.328 0.221,0.368 0.024,0.006 2.425,0.609 3.874,1.135 C 3.958,1.791 4.132,1.71 4.19,1.552 4.247,1.394 4.166,1.22 4.008,1.163 2.53,0.625 0.173,0.034 0.074,0.009 0.049,0.003 0.024,0 0,0" /></g><g
           id="g332"><g
             id="g334" /><g
             id="g346"><g
               style="opacity:0.10000598"
               id="g344"
               clip-path="url(#clipPath338)"><g
                 id="g342"
                 transform="translate(141.5326,216.6524)"><path
                   id="path340"
                   style="fill:#f2f2f2;fill-opacity:1;fill-rule:nonzero;stroke:none"
                   d="m 0,0 c 0,0 3.839,-5.026 7.107,-7.818 0,0 -1.421,-1.422 -1.421,-2.132 C 1.421,-2.132 0,0 0,0" /></g></g></g></g><g
           id="g348"><g
             id="g350" /><g
             id="g362"><g
               style="opacity:0.10000598"
               id="g360"
               clip-path="url(#clipPath354)"><g
                 id="g358"
                 transform="translate(178.6969,224.609)"><path
                   id="path356"
                   style="fill:#f2f2f2;fill-opacity:1;fill-rule:nonzero;stroke:none"
                   d="M 0,0 C 0,0 7.099,4.927 14.836,3.116 22.573,1.306 14.225,2.797 9.034,1.283 3.843,-0.231 -3.407,-2.265 0,0" /></g></g></g></g><g
           transform="translate(177.8778,259.2837)"
           id="g364"><path
             id="path366"
             style="fill:#8196cc;fill-opacity:1;fill-rule:nonzero;stroke:none"
             d="m 0,0 c -3.208,-0.614 -6.556,-5.424 -6.556,-5.424 l -0.18,-0.89 c 0,0 -0.651,-1.304 -0.435,-3.036 -0.002,0.002 -0.003,0.005 -0.004,0.007 10e-4,-0.012 0.005,-0.025 0.007,-0.037 0.024,-0.19 0.059,-0.384 0.106,-0.583 0.008,-0.034 0.021,-0.069 0.03,-0.103 0.042,-0.165 0.095,-0.332 0.156,-0.502 0.024,-0.065 0.05,-0.13 0.077,-0.195 0.06,-0.149 0.13,-0.299 0.206,-0.451 0.033,-0.064 0.064,-0.128 0.1,-0.193 0.117,-0.211 0.245,-0.422 0.399,-0.635 0,0 0,0 0,-10e-4 0.13,-0.179 0.265,-0.34 0.405,-0.483 0.139,-0.143 0.283,-0.268 0.43,-0.375 0.202,-0.149 0.412,-0.254 0.624,-0.34 0.222,-0.089 0.446,-0.15 0.671,-0.176 0.027,-0.003 0.055,-0.013 0.082,-0.015 0.468,-0.038 0.935,0.055 1.369,0.255 0.29,0.134 0.566,0.315 0.819,0.537 0.633,0.557 1.122,1.369 1.328,2.329 0.042,0.193 0.072,0.391 0.089,0.594 0.021,0.233 0.019,0.447 0.002,0.646 -0.006,0.069 -0.022,0.126 -0.031,0.191 -0.018,0.123 -0.034,0.246 -0.063,0.355 -0.018,0.068 -0.042,0.125 -0.063,0.188 -0.031,0.09 -0.06,0.182 -0.095,0.261 -0.027,0.06 -0.055,0.108 -0.084,0.161 -0.036,0.068 -0.071,0.138 -0.109,0.196 -0.006,0.009 -0.011,0.022 -0.017,0.031 0,-0.002 0,-0.005 0,-0.007 -0.244,0.368 -0.491,0.544 -0.491,0.544 v 0 c 0.995,0.056 1.841,0.309 2.233,0.919 C 2.321,-4.187 3.208,0.614 0,0" /></g><g
           transform="translate(170.1542,253.1688)"
           id="g368"><path
             id="path370"
             style="fill:#8196cc;fill-opacity:1;fill-rule:nonzero;stroke:none"
             d="m 0,0 0.179,0.89 c 0,0 -1.226,5.731 -3.947,7.538 -2.72,1.808 -3.76,-2.962 -3.338,-5.357 0.125,-0.714 0.808,-1.275 1.703,-1.711 0,0 -0.295,-0.067 -0.662,-0.312 0.001,0.002 0.001,0.004 0.002,0.006 C -6.072,1.048 -6.081,1.038 -6.09,1.032 -6.148,0.993 -6.207,0.942 -6.268,0.893 -6.314,0.855 -6.359,0.822 -6.406,0.778 -6.47,0.719 -6.531,0.645 -6.594,0.574 -6.639,0.524 -6.683,0.481 -6.726,0.425 -6.794,0.336 -6.857,0.229 -6.921,0.123 -6.955,0.066 -6.991,0.019 -7.024,-0.043 c -0.092,-0.176 -0.177,-0.373 -0.249,-0.596 -0.561,-1.747 -0.036,-3.504 1.069,-4.378 0.86,-0.68 2.071,-0.825 3.395,-0.017 0.224,0.137 0.425,0.282 0.615,0.432 0.058,0.045 0.111,0.092 0.166,0.139 0.129,0.11 0.252,0.221 0.365,0.336 0.05,0.05 0.099,0.099 0.146,0.15 0.123,0.133 0.236,0.267 0.34,0.403 0.021,0.028 0.045,0.055 0.065,0.082 0.122,0.166 0.229,0.332 0.325,0.498 0.006,0.01 0.014,0.021 0.02,0.031 C -0.769,-2.965 -0.771,-2.966 -0.773,-2.968 0.096,-1.455 0,0 0,0" /></g><g
           transform="translate(171.8064,255.2589)"
           id="g372"><path
             id="path374"
             style="fill:#ef9d3d;fill-opacity:1;fill-rule:nonzero;stroke:none"
             d="m 0,0 c 0.077,0.381 -0.17,0.752 -0.551,0.828 -0.38,0.077 -0.751,-0.17 -0.828,-0.55 -0.042,-0.209 0.019,-0.409 0.14,-0.565 -0.147,-0.404 -0.286,-0.9 -0.396,-1.448 -0.282,-1.4 -0.704,-4.739 -0.423,-4.891 v -0.002 c 0.002,-10e-4 0.004,-10e-4 0.006,-10e-4 0.002,0 0.004,-0.002 0.006,-0.002 l 10e-4,0.002 c 0.318,0.032 1.221,3.274 1.502,4.675 0.111,0.547 0.174,1.058 0.196,1.488 C -0.176,-0.369 -0.042,-0.208 0,0" /></g><g
           transform="translate(170.9496,255.842)"
           id="g376"><path
             id="path378"
             style="fill:#ef9d3d;fill-opacity:1;fill-rule:nonzero;stroke:none"
             d="m 0,0 h -0.001 c -0.055,0.001 -0.098,0.046 -0.097,0.1 l 0.027,1.627 C -0.07,1.78 -0.027,1.823 0.027,1.823 H 0.028 C 0.083,1.822 0.126,1.778 0.125,1.724 L 0.098,0.096 C 0.097,0.043 0.054,0 0,0" /></g><g
           transform="translate(171.4107,255.6521)"
           id="g380"><path
             id="path382"
             style="fill:#ef9d3d;fill-opacity:1;fill-rule:nonzero;stroke:none"
             d="m 0,0 c -0.008,0 -0.015,0.001 -0.023,0.003 -0.052,0.012 -0.085,0.065 -0.073,0.118 l 0.379,1.6 C 0.296,1.773 0.35,1.804 0.402,1.793 0.454,1.781 0.487,1.728 0.475,1.675 L 0.096,0.075 C 0.085,0.03 0.044,0 0,0" /></g><g
           id="g384"><g
             id="g386" /><g
             id="g398"><g
               style="opacity:0.30999804"
               id="g396"
               clip-path="url(#clipPath390)"><g
                 id="g394"
                 transform="translate(176.0354,249.3302)"><path
                   id="path392"
                   style="fill:#ffffff;fill-opacity:1;fill-rule:nonzero;stroke:none"
                   d="m 0,0 c 0,-1.085 -0.88,-1.965 -1.965,-1.965 -1.085,0 -1.965,0.88 -1.965,1.965 0,1.085 0.88,1.965 1.965,1.965 C -0.88,1.965 0,1.085 0,0" /></g></g></g></g><g
           transform="translate(175.0345,249.3302)"
           id="g400"><path
             id="path402"
             style="fill:#f2f2f2;fill-opacity:1;fill-rule:nonzero;stroke:none"
             d="m 0,0 c 0,-0.532 -0.432,-0.964 -0.964,-0.964 -0.533,0 -0.964,0.432 -0.964,0.964 0,0.532 0.431,0.964 0.964,0.964 C -0.432,0.964 0,0.532 0,0" /></g><g
           id="g404"><g
             id="g406" /><g
             id="g418"><g
               style="opacity:0.30999804"
               id="g416"
               clip-path="url(#clipPath410)"><g
                 id="g414"
                 transform="translate(167.8345,251.0742)"><path
                   id="path412"
                   style="fill:#ffffff;fill-opacity:1;fill-rule:nonzero;stroke:none"
                   d="m 0,0 c 0,-1.085 -0.88,-1.965 -1.965,-1.965 -1.085,0 -1.965,0.88 -1.965,1.965 0,1.085 0.88,1.965 1.965,1.965 C -0.88,1.965 0,1.085 0,0" /></g></g></g></g><g
           transform="translate(166.7478,251.0742)"
           id="g420"><path
             id="path422"
             style="fill:#f2f2f2;fill-opacity:1;fill-rule:nonzero;stroke:none"
             d="m 0,0 c 0,-0.485 -0.393,-0.878 -0.878,-0.878 -0.485,0 -0.879,0.393 -0.879,0.878 0,0.485 0.394,0.878 0.879,0.878 C -0.393,0.878 0,0.485 0,0" /></g><g
           id="g424"><g
             id="g426" /><g
             id="g438"><g
               style="opacity:0.30999804"
               id="g436"
               clip-path="url(#clipPath430)"><g
                 id="g434"
                 transform="translate(169.1848,254.6043)"><path
                   id="path432"
                   style="fill:#ffffff;fill-opacity:1;fill-rule:nonzero;stroke:none"
                   d="M 0,0 C 0,0 -4.548,0.132 -4.986,1.532 -5.474,3.096 -5.083,5.768 -4.008,6.191 -3.478,6.4 -2.26,4.868 -1.401,3.291 -0.518,1.67 0,0 0,0" /></g></g></g></g><g
           id="g440"><g
             id="g442" /><g
             id="g454"><g
               style="opacity:0.30999804"
               id="g452"
               clip-path="url(#clipPath446)"><g
                 id="g450"
                 transform="translate(172.8603,253.7975)"><path
                   id="path448"
                   style="fill:#ffffff;fill-opacity:1;fill-rule:nonzero;stroke:none"
                   d="M 0,0 C 0,0 4.318,-1.434 5.209,-0.269 6.204,1.033 6.751,3.677 5.886,4.444 5.46,4.822 3.791,3.8 2.444,2.612 1.059,1.392 0,0 0,0" /></g></g></g></g><g
           id="g456"><g
             id="g458" /><g
             id="g470"><g
               style="opacity:0.46000701"
               id="g468"
               clip-path="url(#clipPath462)"><g
                 id="g466"
                 transform="translate(157.73,263.0249)"><path
                   id="path464"
                   style="fill:#0d1b32;fill-opacity:1;fill-rule:nonzero;stroke:none"
                   d="m 0,0 c -1.172,-0.619 -1.93,-2.773 -2.025,-3.056 -0.021,0.135 -0.044,0.263 -0.072,0.373 0.059,0.062 0.094,0.146 0.085,0.238 -0.011,0.117 -0.089,0.208 -0.19,0.25 l -0.04,0.62 c -0.002,0.024 -0.022,0.041 -0.045,0.04 -0.023,-0.002 -0.042,-0.022 -0.04,-0.045 l 0.038,-0.596 c -0.019,0.002 -0.037,0.008 -0.057,0.006 -0.031,-0.003 -0.058,-0.015 -0.086,-0.027 l -0.177,0.618 c -0.007,0.023 -0.03,0.036 -0.053,0.029 -0.018,-0.01 -0.036,-0.03 -0.029,-0.053 l 0.184,-0.64 c -0.076,-0.063 -0.124,-0.156 -0.113,-0.262 0.009,-0.092 0.059,-0.167 0.129,-0.216 -0.005,-0.114 -0.003,-0.244 0.003,-0.38 -0.149,0.259 -1.312,2.223 -2.582,2.602 -1.361,0.405 -1.187,-1.71 -0.707,-2.651 0.143,-0.281 0.498,-0.428 0.925,-0.495 0,0 -0.114,-0.066 -0.235,-0.214 0,10e-4 0,0.002 0,0.003 C -5.09,-3.86 -5.093,-3.865 -5.096,-3.868 -5.115,-3.892 -5.133,-3.921 -5.152,-3.949 -5.166,-3.971 -5.181,-3.99 -5.195,-4.014 -5.214,-4.047 -5.23,-4.085 -5.247,-4.123 -5.259,-4.149 -5.272,-4.173 -5.283,-4.202 -5.3,-4.248 -5.312,-4.3 -5.325,-4.352 -5.332,-4.38 -5.342,-4.404 -5.347,-4.434 c -0.016,-0.085 -0.026,-0.178 -0.028,-0.279 -0.011,-0.798 0.431,-1.462 1.001,-1.684 0.444,-0.174 0.966,-0.08 1.413,0.424 0.076,0.085 0.141,0.172 0.201,0.258 0.018,0.026 0.034,0.052 0.051,0.079 0.04,0.062 0.077,0.124 0.109,0.186 0.015,0.027 0.029,0.054 0.042,0.08 0.034,0.071 0.064,0.142 0.09,0.211 0.005,0.015 0.012,0.029 0.017,0.043 0.029,0.084 0.052,0.167 0.071,0.248 0.002,0.005 0.004,0.01 0.005,0.016 -10e-4,-0.002 -10e-4,-0.002 -0.002,-0.003 0.036,0.157 0.051,0.307 0.058,0.447 0.096,-0.536 0.214,-1.036 0.294,-1.053 v 0 c 10e-4,0 0.002,0 0.003,0 10e-4,0 0.002,0 0.003,0 v 0.001 c 0.074,0.032 0.093,0.545 0.083,1.089 0.033,-0.136 0.078,-0.279 0.144,-0.427 -10e-4,0.001 -0.002,0.002 -0.003,0.003 0.002,-0.005 0.006,-0.01 0.008,-0.015 0.034,-0.076 0.073,-0.152 0.118,-0.229 0.008,-0.013 0.017,-0.026 0.025,-0.039 0.039,-0.063 0.082,-0.126 0.129,-0.189 0.018,-0.024 0.038,-0.047 0.057,-0.071 0.044,-0.054 0.092,-0.108 0.143,-0.161 0.022,-0.023 0.043,-0.045 0.066,-0.068 0.075,-0.072 0.156,-0.144 0.247,-0.213 0,0 0,0 0,0 0.077,-0.058 0.153,-0.108 0.229,-0.15 0.077,-0.041 0.152,-0.075 0.227,-0.101 0.103,-0.036 0.204,-0.053 0.302,-0.062 0.104,-0.009 0.205,-0.006 0.302,0.012 0.012,0.002 0.024,0.002 0.036,0.005 0.199,0.043 0.381,0.141 0.537,0.28 0.103,0.092 0.195,0.202 0.272,0.327 0.192,0.312 0.292,0.711 0.256,1.137 -0.008,0.085 -0.02,0.171 -0.039,0.258 -0.021,0.099 -0.049,0.188 -0.081,0.269 -0.012,0.028 -0.025,0.049 -0.037,0.075 -0.023,0.049 -0.046,0.098 -0.072,0.14 -0.016,0.026 -0.033,0.046 -0.05,0.07 -0.024,0.033 -0.048,0.068 -0.073,0.096 -0.018,0.022 -0.036,0.038 -0.055,0.056 -0.024,0.024 -0.047,0.049 -0.07,0.068 -0.004,0.003 -0.008,0.008 -0.011,0.011 0,-10e-4 0,-0.002 0.001,-0.003 -0.148,0.122 -0.273,0.164 -0.273,0.164 0.406,0.149 0.726,0.362 0.811,0.665 C 1.497,-1.445 1.255,0.663 0,0" /></g></g></g></g><g
           id="g472"><g
             id="g474" /><g
             id="g486"><g
               style="opacity:0.46000701"
               id="g484"
               clip-path="url(#clipPath478)"><g
                 id="g482"
                 transform="translate(182.7664,271.2968)"><path
                   id="path480"
                   style="fill:#0d1b32;fill-opacity:1;fill-rule:nonzero;stroke:none"
                   d="m 0,0 c -1.784,0.024 -4.068,-2.032 -4.363,-2.305 0.063,0.173 0.117,0.34 0.155,0.487 0.11,0.036 0.206,0.112 0.254,0.227 0.062,0.145 0.029,0.303 -0.064,0.418 l 0.354,0.758 c 0.013,0.029 0,0.063 -0.028,0.076 -0.029,0.012 -0.063,0.001 -0.077,-0.028 l -0.339,-0.728 c -0.021,0.014 -0.039,0.033 -0.063,0.043 -0.039,0.017 -0.079,0.02 -0.119,0.025 l 0.189,0.844 c 0.007,0.031 -0.013,0.062 -0.044,0.068 -0.028,0.001 -0.061,-0.012 -0.068,-0.043 l -0.196,-0.876 c -0.129,-0.025 -0.246,-0.105 -0.302,-0.236 -0.049,-0.114 -0.037,-0.236 0.014,-0.34 -0.08,-0.13 -0.162,-0.285 -0.243,-0.45 -0.009,0.402 -0.116,3.473 -1.373,4.74 -1.346,1.356 -2.504,-1.255 -2.544,-2.677 -0.012,-0.424 0.313,-0.826 0.775,-1.181 0,0 -0.178,-0.004 -0.417,-0.101 0.001,10e-4 0.002,0.002 0.002,0.003 -0.006,-0.002 -0.012,-0.007 -0.018,-0.009 -0.038,-0.016 -0.078,-0.038 -0.118,-0.059 -0.031,-0.016 -0.061,-0.03 -0.093,-0.05 -0.043,-0.026 -0.087,-0.061 -0.132,-0.094 -0.031,-0.024 -0.062,-0.043 -0.093,-0.07 -0.05,-0.043 -0.098,-0.097 -0.147,-0.15 -0.026,-0.029 -0.053,-0.051 -0.079,-0.083 -0.074,-0.09 -0.145,-0.193 -0.213,-0.312 -0.527,-0.936 -0.433,-2.004 0.097,-2.635 0.413,-0.491 1.09,-0.717 1.944,-0.41 0.144,0.052 0.277,0.112 0.403,0.175 0.038,0.019 0.074,0.04 0.111,0.06 0.087,0.048 0.171,0.097 0.249,0.15 0.034,0.022 0.069,0.045 0.101,0.068 0.086,0.062 0.167,0.126 0.243,0.192 0.015,0.013 0.032,0.025 0.047,0.039 0.089,0.08 0.17,0.163 0.244,0.247 0.005,0.005 0.011,0.01 0.016,0.015 -0.001,-0.001 -0.003,-0.001 -0.004,-0.002 0.144,0.163 0.258,0.329 0.356,0.491 -0.231,-0.695 -0.414,-1.362 -0.331,-1.433 v -0.001 c 10e-4,-10e-4 0.002,-10e-4 0.004,-10e-4 0.001,-0.001 0.002,-0.002 0.003,-0.002 v 0.001 c 0.109,-0.011 0.462,0.584 0.801,1.234 -0.048,-0.183 -0.088,-0.381 -0.105,-0.598 -10e-4,0.001 -10e-4,0.003 -0.002,0.005 0,-0.008 0,-0.015 0,-0.023 -0.008,-0.111 -0.012,-0.227 -0.008,-0.347 0.001,-0.02 0.004,-0.041 0.005,-0.062 0.005,-0.099 0.015,-0.202 0.03,-0.306 0.006,-0.04 0.014,-0.08 0.021,-0.121 0.018,-0.092 0.04,-0.187 0.066,-0.282 0.011,-0.041 0.021,-0.081 0.034,-0.123 0.042,-0.134 0.091,-0.271 0.154,-0.411 v 0 c 0.053,-0.118 0.112,-0.226 0.175,-0.325 0.063,-0.098 0.13,-0.187 0.202,-0.266 0.099,-0.109 0.206,-0.193 0.318,-0.268 0.116,-0.077 0.237,-0.139 0.363,-0.18 0.016,-0.005 0.03,-0.013 0.046,-0.018 0.264,-0.077 0.542,-0.079 0.815,-0.015 0.181,0.042 0.361,0.114 0.532,0.211 0.428,0.245 0.804,0.652 1.036,1.179 0.046,0.105 0.086,0.215 0.121,0.329 0.039,0.131 0.063,0.254 0.076,0.37 0.005,0.04 0.003,0.075 0.005,0.113 0.004,0.073 0.01,0.146 0.006,0.211 -0.002,0.041 -0.009,0.077 -0.014,0.115 -0.007,0.056 -0.013,0.112 -0.024,0.161 -0.008,0.037 -0.019,0.068 -0.029,0.102 -0.013,0.044 -0.024,0.087 -0.039,0.126 -0.003,0.005 -0.004,0.013 -0.006,0.019 -10e-4,-0.001 -10e-4,-0.002 -10e-4,-0.004 -0.097,0.24 -0.217,0.37 -0.217,0.37 0.576,-0.086 1.091,-0.04 1.388,0.263 C 0.837,-2.673 1.911,-0.026 0,0" /></g></g></g></g><g
           transform="translate(222.5606,214.08)"
           id="g488"><path
             id="path490"
             style="fill:#ef9d3d;fill-opacity:1;fill-rule:nonzero;stroke:none"
             d="M 0,0 C 0,0 5.965,-5.586 5.341,-7.768 5.032,-8.85 0.196,-10.11 -4.952,-11.615 c -4.892,-1.431 -9.624,-2.904 -9.624,-2.904 0,0 -0.228,-2.449 -0.057,-3.303 l -1.164,0.403 c 0,0 -0.43,2.729 0.31,3.355 0.74,0.627 19.586,5.922 19.586,5.922 0,0 0.212,1.248 0.553,1.76 l -5.905,6.724 z" /></g><g
           transform="translate(222.1051,218.9768)"
           id="g492"><path
             id="path494"
             style="fill:#e77b92;fill-opacity:1;fill-rule:nonzero;stroke:none"
             d="m 0,0 c 0,0 1.196,-4.498 0.342,-5.466 -0.854,-0.968 -4.954,3.075 -4.954,3.075 z" /></g><g
           transform="translate(228.3271,225.1334)"
           id="g496"><path
             id="path498"
             style="fill:#ff8a9f;fill-opacity:1;fill-rule:nonzero;stroke:none"
             d="m 0,0 c 3.045,-2.489 6.214,-5.144 7.638,-8.809 0.197,-0.508 0.331,-1.157 -0.06,-1.537 -0.346,-0.337 -0.911,-0.263 -1.375,-0.123 -1.342,0.403 -2.577,1.157 -3.549,2.166 -0.254,0.265 -0.51,0.559 -0.862,0.663 -0.463,0.138 -0.945,-0.089 -1.381,-0.296 -6.272,-2.974 -14.001,-2.647 -20,0.846 -0.718,0.418 -1.45,0.89 -2.278,0.951 -0.606,0.044 -1.201,-0.138 -1.787,-0.299 -3.083,-0.848 -7.026,-0.839 -8.743,1.859 -1.573,2.471 -0.716,6.437 1.066,8.763 1.721,2.246 3.021,3.996 4.355,6.492 1.335,2.495 2.329,4.987 0.247,6.903 -1.336,1.23 -2.867,1.992 -4.596,1.437 -1.729,-0.555 -3.146,-1.879 -4.062,-3.446 -1.241,-2.123 -4.696,0.774 -2.931,3.174 1.764,2.4 4.772,3.898 7.739,3.635 2.968,-0.262 5.744,-2.384 6.575,-5.244 1.059,-3.651 -0.995,-7.466 -3.396,-10.413 -0.912,-1.119 -1.898,-2.208 -2.505,-3.518 -0.607,-1.31 -0.779,-2.921 -0.042,-4.163 0.736,-1.242 2.563,-1.843 3.71,-0.966 0.844,0.645 1.076,1.788 1.439,2.786 1.495,4.11 5.465,7.596 12.368,7.021 C -0.73,6.907 0,0 0,0" /></g><g
           transform="translate(192.0519,239.8843)"
           id="g500"><path
             id="path502"
             style="fill:#ffb6c8;fill-opacity:1;fill-rule:nonzero;stroke:none"
             d="M 0,0 C 0.107,-0.018 0.255,1.757 -0.741,2.075 -1.619,2.355 -2.175,2.13 -2.529,1.727 -3.003,1.249 -3.453,0.668 -3.715,0.046 c -0.424,-1.002 0.139,-4.626 1.572,-4.668 0.549,-0.016 0.013,0.592 0.58,2.54 C -1.35,-1.353 0,0 0,0" /></g><g
           transform="translate(188.8041,240.9546)"
           id="g504"><path
             id="path506"
             style="fill:#0d1b32;fill-opacity:1;fill-rule:nonzero;stroke:none"
             d="m 0,0 c -0.214,-0.296 -0.401,-0.611 -0.538,-0.937 -0.444,-1.05 0.146,-4.847 1.647,-4.891 0.576,-0.017 0.013,0.62 0.608,2.661 0.101,0.346 0.445,0.825 0.792,1.246 l -1.778,0.288 z" /></g><g
           transform="translate(190.8327,242.7848)"
           id="g508"><path
             id="path510"
             style="fill:#223663;fill-opacity:1;fill-rule:nonzero;stroke:none"
             d="M 0,0 C 0,-0.193 0.157,-0.35 0.35,-0.35 0.544,-0.35 0.7,-0.193 0.7,0 0.7,0.193 0.544,0.35 0.35,0.35 0.157,0.35 0,0.193 0,0" /></g><g
           transform="translate(216.582,212.2011)"
           id="g512"><path
             id="path514"
             style="fill:#ef9d3d;fill-opacity:1;fill-rule:nonzero;stroke:none"
             d="m 0,0 0.512,-11.729 -2.22,-21.409 c 0,0 -0.089,-0.035 -0.244,-0.092 -0.637,-0.238 -2.391,-0.864 -3.628,-1.047 -1.537,-0.228 -0.399,1.367 -0.399,1.367 l 3.815,0.17 1.912,19.841 c 0,0 -0.223,1.009 0.086,2.104 l -0.53,11.137 z" /></g><g
           transform="translate(218.9505,216.6944)"
           id="g516"><path
             id="path518"
             style="fill:#ff8a9f;fill-opacity:1;fill-rule:nonzero;stroke:none"
             d="m 0,0 c 0,0 -0.292,-5.225 -2.499,-5.354 0,0 -1.914,0.973 -2.466,4.9 C -4.77,-0.422 0,0 0,0" /></g><g
           transform="translate(217.8027,214.7846)"
           id="g520"><path
             id="path522"
             style="fill:#f2f2f2;fill-opacity:1;fill-rule:nonzero;stroke:none"
             d="M 0,0 C -3.761,0 -5.315,1.406 -5.39,1.475 -5.512,1.589 -5.519,1.78 -5.405,1.903 -5.292,2.026 -5.099,2.034 -4.977,1.92 -4.957,1.903 -2.969,0.139 1.988,0.732 2.161,0.752 2.305,0.632 2.325,0.467 2.345,0.3 2.227,0.149 2.06,0.129 1.31,0.039 0.625,0 0,0" /></g><g
           transform="translate(217.579,218.1926)"
           id="g524"><path
             id="path526"
             style="fill:#f2f2f2;fill-opacity:1;fill-rule:nonzero;stroke:none"
             d="M 0,0 C -0.518,0 -1.134,0.093 -1.853,0.28 -3.491,0.706 -4.691,1.575 -5.421,2.862 -6.882,5.439 -5.936,8.754 -5.895,8.894 -5.848,9.055 -5.678,9.148 -5.518,9.1 -5.357,9.053 -5.265,8.884 -5.312,8.723 -5.321,8.691 -6.225,5.51 -4.891,3.159 -4.245,2.022 -3.172,1.251 -1.699,0.869 -0.175,0.472 0.837,0.532 1.224,1.044 1.818,1.829 0.996,3.623 0.629,4.248 0.544,4.392 0.592,4.579 0.737,4.664 0.879,4.748 1.067,4.701 1.153,4.555 1.309,4.289 2.65,1.923 1.709,0.678 1.367,0.225 0.802,0 0,0" /></g><g
           transform="translate(222.5957,218.0822)"
           id="g528"><path
             id="path530"
             style="fill:#f2f2f2;fill-opacity:1;fill-rule:nonzero;stroke:none"
             d="M 0,0 C -0.851,0 -1.918,0.25 -3.193,0.75 -3.349,0.812 -3.426,0.988 -3.365,1.144 -3.303,1.3 -3.129,1.378 -2.971,1.315 -0.352,0.288 0.781,0.564 1.27,0.975 1.933,1.534 1.726,2.585 1.724,2.595 1.69,2.759 1.796,2.92 1.96,2.954 2.13,2.986 2.286,2.881 2.318,2.717 2.331,2.66 2.598,1.299 1.661,0.51 1.257,0.17 0.702,0 0,0" /></g><g
           id="g532"><g
             id="g534" /><g
             id="g546"><g
               style="opacity:0.119995"
               id="g544"
               clip-path="url(#clipPath538)"><g
                 id="g542"
                 transform="translate(100.3734,250.4798)"><path
                   id="path540"
                   style="fill:#223663;fill-opacity:1;fill-rule:nonzero;stroke:none"
                   d="m 0,0 c 0.026,-0.636 -1.429,-0.694 -3.369,-0.694 -1.94,0 -3.684,0.117 -3.657,0.694 0.034,0.735 1.573,0.864 3.513,0.864 C -1.573,0.864 -0.025,0.618 0,0" /></g></g></g></g><g
           transform="translate(95.2119,250.934)"
           id="g548"><path
             id="path550"
             style="fill:#ef9d3d;fill-opacity:1;fill-rule:nonzero;stroke:none"
             d="M 0,0 C -0.067,0 -0.133,0.037 -0.165,0.102 -0.21,0.193 -0.173,0.303 -0.082,0.349 L 0.87,0.826 1.016,2.814 C 1.024,2.915 1.115,2.997 1.214,2.984 1.315,2.976 1.391,2.888 1.384,2.787 L 1.23,0.694 C 1.225,0.63 1.187,0.572 1.129,0.543 L 0.082,0.02 C 0.056,0.006 0.028,0 0,0" /></g><g
           transform="translate(95.8311,250.5542)"
           id="g552"><path
             id="path554"
             style="fill:#ef9d3d;fill-opacity:1;fill-rule:nonzero;stroke:none"
             d="M 0,0 C -0.026,0 -0.053,0.006 -0.079,0.018 -0.171,0.061 -0.21,0.171 -0.167,0.263 L 0.26,1.166 C 0.293,1.236 0.36,1.274 0.444,1.271 0.52,1.264 0.585,1.21 0.605,1.135 L 0.846,0.242 C 0.872,0.144 0.814,0.043 0.716,0.016 0.615,-0.01 0.516,0.048 0.49,0.146 L 0.38,0.556 0.167,0.105 C 0.135,0.039 0.069,0 0,0" /></g><g
           transform="translate(96.754,250.934)"
           id="g556"><path
             id="path558"
             style="fill:#ef9d3d;fill-opacity:1;fill-rule:nonzero;stroke:none"
             d="M 0,0 C -0.067,0 -0.132,0.037 -0.165,0.102 -0.21,0.193 -0.173,0.303 -0.082,0.349 L 0.87,0.826 1.016,2.814 C 1.024,2.915 1.114,2.997 1.214,2.984 1.315,2.976 1.391,2.888 1.384,2.787 L 1.23,0.694 C 1.225,0.63 1.187,0.572 1.129,0.543 L 0.082,0.02 C 0.056,0.006 0.028,0 0,0" /></g><g
           transform="translate(97.3732,250.5542)"
           id="g560"><path
             id="path562"
             style="fill:#ef9d3d;fill-opacity:1;fill-rule:nonzero;stroke:none"
             d="M 0,0 C -0.026,0 -0.053,0.006 -0.079,0.018 -0.171,0.061 -0.21,0.171 -0.167,0.263 L 0.26,1.166 C 0.293,1.236 0.364,1.274 0.444,1.271 0.52,1.264 0.585,1.21 0.605,1.135 L 0.846,0.242 C 0.872,0.144 0.814,0.043 0.716,0.016 0.616,-0.01 0.516,0.048 0.49,0.146 L 0.38,0.556 0.167,0.105 C 0.135,0.039 0.069,0 0,0" /></g><g
           transform="translate(92.5118,265.1035)"
           id="g564"><path
             id="path566"
             style="fill:#ffa8bf;fill-opacity:1;fill-rule:nonzero;stroke:none"
             d="m 0,0 c 1.001,0.644 2.334,0.354 2.978,-0.647 l 1.67,-2.598 3.425,-5.197 2.148,-3.259 H 4.904 c -3.255,0 -5.893,2.638 -5.893,5.893 v 3.996 c 0,0.733 0.372,1.415 0.989,1.812" /></g><g
           transform="translate(93.6293,263.9333)"
           id="g568"><path
             id="path570"
             style="fill:#223663;fill-opacity:1;fill-rule:nonzero;stroke:none"
             d="m 0,0 c 0,-0.283 -0.229,-0.513 -0.513,-0.513 -0.283,0 -0.512,0.23 -0.512,0.513 0,0.283 0.229,0.512 0.512,0.512 C -0.229,0.512 0,0.283 0,0" /></g><g
           transform="translate(99.8931,254.9396)"
           id="g572"><path
             id="path574"
             style="fill:#e77b92;fill-opacity:1;fill-rule:nonzero;stroke:none"
             d="M 0,0 1.025,-1.537 2.904,-4.356 H 4.698 L 2.84,-1.537 1.827,0 Z" /></g><g
           transform="translate(97.1598,261.8583)"
           id="g576"><path
             id="path578"
             style="fill:#ff8a9f;fill-opacity:1;fill-rule:nonzero;stroke:none"
             d="M 0,0 C 1.238,-1.879 2.477,-3.759 3.716,-5.637 L 4.56,-6.919 H 3.075 c -1.513,0 -3.281,-0.018 -4.34,1.661 -0.09,0.144 -0.504,0.104 -0.646,0.127 -0.378,0.062 -0.646,0.177 -0.925,0.439 -0.539,0.506 -0.875,1.217 -0.881,1.961 C -3.736,-0.597 -1.758,-0.009 0,0" /></g><g
           transform="translate(89.8499,263.3468)"
           id="g580"><path
             id="path582"
             style="fill:#ef9d3d;fill-opacity:1;fill-rule:nonzero;stroke:none"
             d="m 0,0 c 0,0 1.334,0.876 1.794,0.769 0.374,-0.087 0.369,-1.431 0,-1.538 C 1.369,-0.892 0,0 0,0" /></g><g
           id="g584"><g
             id="g586" /><g
             id="g598"><g
               style="opacity:0.10000598"
               id="g596"
               clip-path="url(#clipPath590)"><g
                 id="g594"
                 transform="translate(215.4496,231.5779)"><path
                   id="path592"
                   style="fill:#f2f2f2;fill-opacity:1;fill-rule:nonzero;stroke:none"
                   d="M 0,0 C 0,0 9.24,-0.711 11.372,-6.397 13.504,-12.083 8.529,-3.554 4.975,-2.843 1.421,-2.132 -6.397,0 0,0" /></g></g></g></g><g
           id="g600"><g
             id="g602" /><g
             id="g614"><g
               style="opacity:0.19999701"
               id="g612"
               clip-path="url(#clipPath606)"><g
                 id="g610"
                 transform="translate(192.4918,244.8989)"><path
                   id="path608"
                   style="fill:#f2f2f2;fill-opacity:1;fill-rule:nonzero;stroke:none"
                   d="M 0,0 C 0,0 2.598,2.395 6.096,1.764 6.096,1.764 2.765,3.319 0,0" /></g></g></g></g><g
           transform="translate(103.3554,250.4466)"
           id="g616"><path
             id="path618"
             style="fill:#223663;fill-opacity:1;fill-rule:nonzero;stroke:none"
             d="m 0,0 c -0.063,0 -0.125,0.031 -0.163,0.087 l -2.826,4.224 c -0.061,0.089 -0.037,0.211 0.053,0.272 0.09,0.06 0.212,0.036 0.273,-0.054 L 0.163,0.305 C 0.223,0.215 0.199,0.093 0.109,0.033 0.075,0.011 0.037,0 0,0" /></g><g
           transform="translate(104.1175,250.4783)"
           id="g620"><path
             id="path622"
             style="fill:#223663;fill-opacity:1;fill-rule:nonzero;stroke:none"
             d="m 0,0 c -0.063,0 -0.125,0.031 -0.163,0.087 l -2.89,4.319 c -0.06,0.09 -0.036,0.212 0.054,0.272 0.09,0.061 0.212,0.036 0.272,-0.054 L 0.163,0.305 C 0.223,0.215 0.199,0.093 0.109,0.033 0.075,0.011 0.037,0 0,0" /></g><g
           transform="translate(99.7488,185.1466)"
           id="g624"><path
             id="path626"
             style="fill:#00a166;fill-opacity:1;fill-rule:nonzero;stroke:none"
             d="m 0,0 c 0.273,0 0.541,-0.019 0.805,-0.051 1.132,1.971 3.257,3.3 5.693,3.3 0.625,0 1.229,-0.089 1.802,-0.252 1.506,2.557 4.286,4.274 7.469,4.274 3.831,0 7.079,-2.488 8.223,-5.936 0.144,0.01 0.289,0.016 0.436,0.016 3.625,0 6.563,-2.938 6.563,-6.563 0,-2.365 -1.252,-4.438 -3.129,-5.592 v -0.004 H -5.004 c -0.972,1.145 -1.559,2.626 -1.559,4.245 C -6.563,-2.938 -3.625,0 0,0" /></g><g
           transform="translate(124.6131,179.1386)"
           id="g628"><path
             id="path630"
             style="fill:#00ca83;fill-opacity:1;fill-rule:nonzero;stroke:none"
             d="m 0,0 c 0.123,0 0.244,-0.008 0.364,-0.023 0.512,0.891 1.472,1.492 2.573,1.492 0.283,0 0.555,-0.041 0.814,-0.115 0.681,1.156 1.938,1.932 3.376,1.932 1.732,0 3.2,-1.124 3.717,-2.682 0.065,0.004 0.131,0.007 0.197,0.007 1.638,0 2.967,-1.328 2.967,-2.967 0,-1.069 -0.566,-2.005 -1.415,-2.527 V -4.885 H -2.262 c -0.439,0.517 -0.704,1.187 -0.704,1.919 C -2.966,-1.328 -1.638,0 0,0" /></g><g
           transform="translate(196.5341,183.4657)"
           id="g632"><path
             id="path634"
             style="fill:#00a166;fill-opacity:1;fill-rule:nonzero;stroke:none"
             d="m 0,0 c 0.209,0 0.415,-0.014 0.618,-0.039 0.869,1.513 2.5,2.533 4.371,2.533 0.479,0 0.943,-0.068 1.383,-0.194 1.156,1.964 3.29,3.282 5.733,3.282 2.942,0 5.435,-1.91 6.313,-4.557 0.111,0.007 0.223,0.012 0.335,0.012 2.783,0 5.039,-2.255 5.039,-5.038 0,-1.816 -0.961,-3.407 -2.402,-4.294 V -8.297 H -3.841 c -0.746,0.879 -1.197,2.016 -1.197,3.259 C -5.038,-2.256 -2.783,0 0,0" /></g></g></g></g></svg>