<svg xmlns="http://www.w3.org/2000/svg" xmlns:xlink="http://www.w3.org/1999/xlink" viewBox="0 0 201 237.99"><defs><style>.cls-1{fill:none;}.cls-2{isolation:isolate;}.cls-3{fill:#e8594e;}.cls-13,.cls-29,.cls-31,.cls-4{fill:#fb6856;}.cls-5,.cls-6,.cls-9{fill:#ffb3ab;}.cls-12,.cls-19,.cls-27,.cls-29,.cls-31,.cls-6,.cls-9{mix-blend-mode:multiply;}.cls-6{opacity:0.51;}.cls-14,.cls-28,.cls-7{fill:#390d08;}.cls-8{opacity:0.34;}.cls-10{clip-path:url(#clip-path);}.cls-11,.cls-12{fill:#fea45b;}.cls-12,.cls-23{opacity:0.17;}.cls-13,.cls-24{opacity:0.49;}.cls-14{opacity:0.25;}.cls-15{fill:#78c8e1;}.cls-16,.cls-20{fill:#588584;}.cls-16,.cls-19{opacity:0.42;}.cls-17{opacity:0.69;}.cls-18,.cls-19{fill:#97554d;}.cls-21{opacity:0.22;}.cls-22{clip-path:url(#clip-path-2);}.cls-25{clip-path:url(#clip-path-3);}.cls-26{fill:#f9d8b9;}.cls-27{opacity:0.53;}.cls-28{opacity:0.47;}.cls-30{fill:#fff;opacity:0.33;}.cls-31{opacity:0.19;}.cls-32{clip-path:url(#clip-path-4);}.cls-33{opacity:0.38;}.cls-34{clip-path:url(#clip-path-5);}</style><clipPath id="clip-path"><path class="cls-1" d="M126.42,22.22h-.16C120.84-1.69,98,0,98,0,75.87-.67,70.34,18.54,69.16,24.41L43.9,39.14s23.28-3.17,37-1.06,48.66,1.06,53.95,0,19.58-1.58,19.58-1.58Z"/></clipPath><clipPath id="clip-path-2"><path class="cls-1" d="M27.55,184.61a28.75,28.75,0,0,0-1.63,9.48c0,24.24,30.9,43.9,69,43.9s69-19.66,69-43.9a28.76,28.76,0,0,0-1.64-9.48Z"/></clipPath><clipPath id="clip-path-3"><path class="cls-1" d="M201,163.24c-.05-7.33-8.24-14-21.9-19.23.69-3.21,1.36-8.89-1.6-11.81s-9.82,3.24-13.57,7.15c-17.35-4.28-39.52-6.76-63.66-6.58C44.77,133.18-.13,147.48,0,164.72s45.23,30.87,100.73,30.47A294.6,294.6,0,0,0,147,191.34c6.42,4.4,14.7,5.23,17.58,4,3.54-1.56,3.8-7,3.8-7a88.23,88.23,0,0,0,9.54,3.1c2.75.67,2.42-4.85,1.85-8.81C193.12,177.23,201.05,170.5,201,163.24Z"/></clipPath><clipPath id="clip-path-4"><path class="cls-1" d="M43.09,171.37s-6.41,4.16-2.71,8.07S63.5,207.89,68.51,207s-12.62-33.16-16-37.72S43.09,171.37,43.09,171.37Z"/></clipPath><clipPath id="clip-path-5"><path class="cls-1" d="M59.42,167.53s-7.31,2.23-4.82,7S69,208.25,74.06,208.75s-3-35.35-5-40.67S59.42,167.53,59.42,167.53Z"/></clipPath></defs><g class="cls-2"><g id="Layer_1" data-name="Layer 1"><path class="cls-3" d="M43.37,39.59s78.29,20.4,110-3.09L52.89,35.44Z"/><path class="cls-4" d="M182.37,161.76a7.07,7.07,0,0,1-2.27,3.48,6,6,0,0,1-1,.66h0a8.08,8.08,0,0,1-3.37.81,13.6,13.6,0,0,1-2.71-.14c-.53-.08-1.09-.18-1.67-.31a27.93,27.93,0,0,1-8-3.49c-.43-.24-.85-.5-1.28-.78l-.74-.48c-.58-.38-1.16-.77-1.76-1.19l-.05,0a124.62,124.62,0,0,1-13.39-11.17c-.06-.07-.13-.12-.18-.18-2.39-2.27-4.66-4.54-6.71-6.65l-.48-.5-.05.22L135,160.34l-2.22,11,1.11,5.8,1.31,6.9,1.47,7.69.31,1.65,2.86,15L143,225.08a67.83,67.83,0,0,1-7.38,3.94c-.68.32-1.37.63-2.07.94,0,0-.07,0-.09,0-.74.32-1.48.62-2.24.92-1.46.58-3,1.12-4.51,1.63l-.34.11c-2.3.76-4.67,1.42-7.11,2-.84.21-1.69.39-2.55.57s-1.72.36-2.59.51-1.74.32-2.62.45h0c-.7.12-1.4.23-2.12.32l-1,.13-1.91.23-.94.09c-.65.07-1.32.12-2,.18l-.46,0c-.74.07-1.49.11-2.24.15h-.23c-.85.05-1.7.08-2.56.1-1,0-2,.05-3,.05-18.61,0-35.5-4.69-47.92-12.3.42-2.94.89-6.17,1.37-9.54.41-2.81.81-5.7,1.21-8.6.75-5.36,1.48-10.75,2.1-15.59,0-.22,0-.43.08-.64s.06-.54.1-.81h0c.27-2.11.51-4.09.71-5.9.3-2.54.52-4.74.67-6.47.11-1.31.16-2.35.16-3.05,0-2.24-.88-8.11-2.19-15.53-.77-4.37-1.68-9.27-2.64-14.29a212.73,212.73,0,0,1-15.26,16.81c-.33.31-.66.62-1,.95l-1,.95c-.63.59-1.26,1.16-1.89,1.72l-.22.2-1.14,1-.74.62-.51.43c-4.3,3.52-8.5,6.19-12.08,7.07a14.26,14.26,0,0,1-1.44.3c-6.29,1-8.5-2.61-9.09-6.6a26.12,26.12,0,0,1,.51-8.79q1.71-3.84,3.42-7.36c.16-.32.32-.63.46-1q2.76-5.58,5.47-10.41c.14-.25.27-.5.41-.74,2.87-5.09,5.67-9.55,8.3-13.42l.37-.53c2.91-4.27,5.61-7.77,8-10.6.24-.3.48-.58.71-.85a73.4,73.4,0,0,1,8.29-8.64l.67.14-.06-.23,10.62-3.43L60,99.57l6.51-2.1,4-1.31.1,0,5.18-1.68,1-.31,3.56-.1,31-.85,2-.06,1.5,0,4,1.21,8.62,2.58,6.43,1.93,10.84,3.25s0,0,0,.05l.13,0s19.31,14,37.38,50.2C182.22,152.3,183.67,157.59,182.37,161.76Z"/><path class="cls-5" d="M113.11,92.32l1.44-1.68-1.82-.09L110.55,80.4,79.87,76.17,77,92.56A3.67,3.67,0,0,0,75.23,94l20.42,18.66,12.84-15a23.2,23.2,0,0,0,5.24-2.48Z"/><path class="cls-6" d="M111.73,85.88l-1.18-5.48L79.87,76.17,78.4,84.48C88.25,91.46,101.11,91.32,111.73,85.88Z"/><path class="cls-5" d="M123.51,46.74s.42-3.14,4.61-2.59.94,14.38-5.69,17.58C122.43,61.73,120.45,53.81,123.51,46.74Z"/><path class="cls-5" d="M124.3,36a26.45,26.45,0,1,0-52.89,0s-.15.79-.34,2.17c-1.36,9.68-5,48.48,24.67,47.55C95.74,85.69,128.54,95.21,124.3,36Z"/><path class="cls-7" d="M122.31,54.41c0-2.4-.08-5,.81-7.18a5.15,5.15,0,0,1,4.22-3.33l.67-9.52H119.9s-.81,13.75,0,18c.77,4,2.27,2.32,2.42,2.13C122.32,54.47,122.31,54.44,122.31,54.41Z"/><path class="cls-5" d="M72.07,46.74s-.41-3.14-4.6-2.59-1,14.38,5.69,17.58C73.16,61.73,75.14,53.81,72.07,46.74Z"/><path class="cls-7" d="M73.27,54.41c0-2.4.09-5-.8-7.18a5.15,5.15,0,0,0-4.23-3.33l-.66-9.52h8.1s.81,13.75,0,18c-.76,4-2.26,2.32-2.41,2.13Z"/><g class="cls-8"><path class="cls-4" d="M69.83,55.67a1.87,1.87,0,0,1-1.46-.83c-1.43-1.83-2.1-7.08-1-8.14a1.23,1.23,0,0,1,1.09-.37c1.12.19,2,2,2.22,2.37a.53.53,0,0,1-.24.71.54.54,0,0,1-.71-.25c-.39-.81-1.07-1.72-1.45-1.78,0,0-.07,0-.16.07-.53.57-.17,5.15,1.15,6.77.42.53.71.42.94.28a.53.53,0,0,1,.54.91A1.66,1.66,0,0,1,69.83,55.67Z"/></g><g class="cls-8"><path class="cls-4" d="M125.08,56.73a1.88,1.88,0,0,0,1.46-.83c1.43-1.83,2.1-7.08,1-8.14a1.23,1.23,0,0,0-1.09-.37c-1.12.19-2,2-2.22,2.37a.52.52,0,0,0,.24.7.53.53,0,0,0,.71-.24c.39-.81,1.07-1.72,1.45-1.78,0,0,.07,0,.16.07.53.57.17,5.14-1.15,6.77-.42.53-.71.42-.94.28a.53.53,0,0,0-.73.18.53.53,0,0,0,.19.73A1.75,1.75,0,0,0,125.08,56.73Z"/></g><path class="cls-9" d="M68.8,34.68l59.21-.3-.58,7.15s-53.35,1.71-59.18-2.19l-.54-5Z"/><g class="cls-10"><path class="cls-11" d="M126.42,22.22h-.16C120.84-1.69,98,0,98,0,75.87-.67,70.34,18.54,69.16,24.41L43.9,39.14s23.28-3.17,37-1.06,48.66,1.06,53.95,0,19.58-1.58,19.58-1.58Z"/><path class="cls-12" d="M89.49,37.79c-9.59-1.47-15-10.17-12-19.52C79.9,11,85.75,5.86,91.06.53c-16.38,3-20.86,18.68-21.9,23.88L43.9,39.14s23.28-3.17,37-1.06c7.26,1.12,20.4,1.35,32,1.17A151.59,151.59,0,0,1,89.49,37.79Z"/><path class="cls-13" d="M142,28.9l-.42-.68c-2.28,1.39-6.18,2.36-11.07,3-4-3.35-6.85-6.16-6.8-7.21,3.83-.61,6.76-1.45,8.27-2.57l-.48-.64c-1.38,1-4.09,1.81-7.64,2.39.2-1.81-.69-5.47-1.74-9A14.17,14.17,0,0,0,125.55,13l-.38-.69a14,14,0,0,1-3.3,1.18c-1.08-3.49-2.23-6.63-2.48-7.32l-.75.28c.61,1.62,1.56,4.37,2.44,7.22a51.32,51.32,0,0,1-5.54.78c-.67-2.63-1.43-5.31-2.07-7.51,4.51-.38,8.18-1.12,10-2.43L123,3.91c-1.74,1.24-5.34,1.94-9.77,2.29-.68-2.33-1.19-4-1.26-4.2l-.76.23c0,.06.52,1.68,1.2,4-1.26.09-2.58.14-3.94.18-.28-3.68-.84-6.73-1.89-7.78L106-.78c.9.9,1.4,3.72,1.66,7.24-2.22,0-4.53,0-6.85,0L101.43-1l-.8-.06-.57,7.52c-1.79,0-3.57-.11-5.32-.19,1.31-3.92,2.81-7.07,4.38-8l-.41-.68C97-1.4,95.34,2,93.94,6.2c-2.13-.11-4.18-.23-6.08-.36A17.58,17.58,0,0,1,92.05.48l-.48-.63A18.75,18.75,0,0,0,87,5.78c-1.85-.13-3.53-.27-5-.39A18.65,18.65,0,0,1,86.45.32L86-.32a20,20,0,0,0-4.87,5.63c-2.64-.23-4.3-.41-4.38-.42l-.08.79c.28,0,1.75.19,4,.39a64.15,64.15,0,0,0-3.88,7.73c-3.21-.24-5.23-.43-5.32-.44l-.08.79c.35,0,2.22.21,5.07.43-1.69,4-2.91,7.72-3.51,9.62-3.46-.14-5.62-.26-5.73-.26l0,.79c.41,0,2.44.13,5.54.27l-.12.38-9.14,5.51c-4.75-.34-7.71-.59-7.86-.61l-.07.79c.07,0,2.6.23,6.75.53L50,39l.41.68,13.25-8c2.93.21,6.52.44,10.54.67L69,37.81l.58.55,5.62-5.93c3.45.19,7.19.37,11.08.53L83,39.71l.71.35L87.14,33q3.09.12,6.24.2c1.58,0,3.11.08,4.61.1l-.53,6.88.79.06.53-6.92q3.52,0,6.78,0c1.36,0,2.67,0,4,0l1.7,7,.77-.19-1.66-6.78c3,0,5.88-.13,8.51-.25,1.37,3.7,2.87,7,3,7.28l.72-.32c0-.06-1.51-3.33-2.87-7q6-.31,10.58-.93l.81.66c4.32,3.49,8.83,6.68,8.87,6.71l.46-.65c-3.19-2.25-6.36-4.65-9.08-6.87Q138.73,30.85,142,28.9ZM121.31,14.46c1.13,3.77,2,7.52,1.69,8.9-1.7.25-3.58.46-5.59.63a50.53,50.53,0,0,0-1.67-8.72A49.42,49.42,0,0,0,121.31,14.46ZM99.45,24.71l.69-9,3.18,0c1.56,0,3.1,0,4.61-.06,0,3.39-.17,6.59-.3,8.84C105,24.64,102.2,24.69,99.45,24.71Zm-7.26-9.19c2.33.1,4.74.17,7.15.21l-.69,9c-2.83,0-5.64,0-8.36,0C90.7,22.43,91.35,19.09,92.19,15.52Zm-2.71,9.15c-2.93,0-5.73-.1-8.31-.18.52-2.12,1.46-5.64,2.74-9.39,2.32.14,4.84.28,7.46.39C90.53,19.09,89.89,22.43,89.48,24.67Zm19.25-9c2.17-.07,4.26-.18,6.21-.34a48.9,48.9,0,0,1,1.68,8.71c-2.57.21-5.34.36-8.2.46C108.51,23,108.68,19.56,108.73,15.69ZM112.66,7c.64,2.2,1.4,4.89,2.08,7.52-1.88.15-3.9.26-6,.32,0-2.52,0-5.19-.18-7.64C110,7.2,111.35,7.13,112.66,7Zm-8.11.26c1.09,0,2.16,0,3.21,0,.14,2.39.19,5.05.18,7.64-2.51.06-5.12.06-7.74,0l.59-7.67C102.05,7.28,103.31,7.3,104.55,7.3ZM100,7.24l-.59,7.68c-2.36,0-4.72-.12-7-.21C93,12.13,93.71,9.46,94.48,7,96.29,7.12,98.14,7.19,100,7.24ZM93.67,7c-.78,2.45-1.49,5.11-2.11,7.68-2.58-.11-5.08-.24-7.37-.38a60.61,60.61,0,0,1,3.25-7.68C89.38,6.76,91.49,6.89,93.67,7ZM81.54,6.15c1.44.13,3.15.27,5,.41a62.33,62.33,0,0,0-3.23,7.69c-2.12-.13-4-.26-5.71-.39A63.28,63.28,0,0,1,81.54,6.15Zm-4.25,8.5,5.78.4c-1.29,3.8-2.21,7.33-2.72,9.42l-6.59-.23C74.39,22.26,75.63,18.59,77.29,14.65ZM64.81,31l8.44-5.08,0-.15s.08-.28.22-.72c1.9.08,4.16.17,6.65.24-.11.48-.18.83-.22,1l-5.06,5.34C71.1,31.4,67.68,31.18,64.81,31Zm11.11.68,4.67-4.92.08-.08,0-.11s.11-.49.29-1.25c2.58.07,5.4.14,8.35.18-.17,1-.28,1.67-.32,1.9l-2.34,4.78C82.9,32,79.28,31.85,75.92,31.66Zm11.61.53,2.22-4.51,0-.11c0-.05.14-.82.36-2.08,2,0,4.06.05,6.13.05h2.32l-.54,6.95C94.5,32.42,91,32.32,87.53,32.19Zm11.32.31.53-7c2.75,0,5.51-.07,8.2-.16v0l1.74,7.13C105.88,32.57,102.36,32.55,98.85,32.5Zm11.29,0-1.76-7.19h0c2.87-.11,5.66-.26,8.26-.47a31.87,31.87,0,0,0,1.91,7.41C115.85,32.4,113,32.48,110.14,32.52Zm9.25-.29a31,31,0,0,1-2-7.44c1.93-.17,3.76-.38,5.43-.62.11.86,1.17,2.72,6.55,7.23C126.38,31.78,123,32.05,119.39,32.23Z"/></g><path class="cls-14" d="M134.27,123.13l.33-2.3s0,0,0,0l.43-2.94.82-.14a25.84,25.84,0,0,0,2.73-.64l.72-.23-.36-1-.47.16a25,25,0,0,1-2.67.65l-.62.11.21-1.5s0,0,0,0l.56-3.76,1.58-11-1.06-.14L135,110.78l-.46,3.16-.37,2.55-.07.47c-2.39.36-5.29.63-8.56.82h-.06c-.88.06-1.79.1-2.73.14-1.73.08-3.56.13-5.44.18l1-17.63h0l.23-4.16-1-.06-.27,4.81-.93,17.07c-2.78,0-5.68.07-8.66.06l.07-2.86.27-10.57-1.06,0-.29,11.37h0l-.06,2.09-2.85,0h0c-1.7,0-3.43,0-5.16-.07h-.76l-.14-2.82-.22-4.6,0-.65-.64,0-.41,0,.07,1.26h0v.49h0l.06,1h0l.25,5.2-2.31,0c-2.2,0-4.4-.12-6.59-.19h0c-.36,0-.71,0-1.07,0,0-.24-.07-.47-.11-.7-1.15-7.38-1.93-12.24-2-12.43l-1,.17c0,.17.74,4.65,1.81,11.52.08.46.15.94.22,1.42-3.43-.12-6.81-.25-10-.39-.55-2.92-1.06-5.63-1.51-8.08,0-.19-.07-.37-.11-.57-.63-3.3-1.16-6.09-1.57-8.22-.53-2.79-.85-4.43-.87-4.55l-.94.19h-.1c0,.14.29,1.48.72,3.75.71,3.69,1.88,9.86,3.3,17.41-3.14-.13-6.14-.27-8.92-.41l-.55,0c-.17-1.17-.32-2.31-.48-3.4-1.22-8.65-2-14.28-2.07-14.49l-1,.15c0,.2.73,5,1.81,12.65.23,1.56.47,3.25.72,5l-1.13,0h-.18c-4-.21-7.43-.42-10-.57l-.8,0-1.51-.09c0-.39-.11-.76-.16-1.13h0c-1-6.81-1.6-11.08-1.63-11.26l-1,.15c0,.19.72,4.85,1.76,12.18l-2.1-.13L47,116.9l2.33.15c.44,3.1.94,6.63,1.48,10.47l-3,0h-.74v1H48c.69,0,1.73,0,3,0,.34,2.44.7,5,1.06,7.66l.19,0,.9.14c-.3-2.19-.6-4.32-.88-6.38-.07-.48-.13-1-.2-1.43h.15c3.07,0,7.31.07,12.29.09h1.1c.16,1.16.32,2.33.49,3.53.23,1.62.45,3.26.68,4.94h1.06c-.23-1.68-.45-3.33-.68-4.94-.16-1.2-.32-2.37-.48-3.52,3.1,0,6.44,0,9.92,0,.2,1.09.41,2.19.61,3.31.29,1.6.58,3.22.88,4.86l1.07,0c-.3-1.65-.59-3.27-.89-4.87-.19-1.1-.4-2.2-.59-3.28,3.13,0,6.37,0,9.64,0,.16,1,.33,2.07.49,3.13.24,1.58.49,3.22.75,4.88h1.07c-.26-1.66-.51-3.3-.76-4.9q-.24-1.59-.48-3.12l8.8-.07.14,3,.24,5.05h1.06l-.24-5.07-.15-3c2.71,0,5.4-.08,8-.12l-.08,3-.13,5.2h1.06l.13-5.22.08-3,8.36-.2-.17,3-.29,5.34h1.06l.29-5.36.17-3.06c2.81-.09,5.45-.19,7.87-.31,3.07-.16,5.77-.35,8-.57L131.2,137l1.07,0,1.41-9.77.65-.07a19.11,19.11,0,0,0,3.92-.77l-.38-1a19.72,19.72,0,0,1-3.56.7l-.48.05.22-1.55Zm-69.93,4.48c-4.94,0-9.15,0-12.16-.08h-.26c-.28-2-.54-3.81-.8-5.59h0c-.23-1.7-.46-3.31-.67-4.82l1.38.08.62,0c2.69.16,6.22.37,10.36.59h0l1.25.06q.23,1.66.48,3.42c.27,2,.57,4.11.87,6.3Zm2.18,0q-.6-4.38-1.16-8.3h0c0-.46-.12-.91-.18-1.36l.39,0c2.85.15,5.91.3,9.12.43.54,2.91,1.12,6,1.71,9.24Zm11,0c-.59-3.21-1.17-6.3-1.7-9.18,3.22.13,6.59.26,10,.37.41,2.68.88,5.63,1.37,8.78Zm10.74,0c-.48-3.13-.94-6.06-1.36-8.73l2.75.08c1.43,0,2.87.09,4.31.12l2.79.06.41,8.41Zm10-.08-.4-8.37,1,0,3.31,0,4.34,0-.21,8.16Zm9.15-.14.21-8.13h1c2.62,0,5.18,0,7.64-.08l-.44,8C113.06,127.27,110.24,127.33,107.33,127.39Zm25.42-1.12c-2.2.22-4.92.42-8,.57-2.42.12-5.07.23-7.91.32l.44-8c2-.05,3.83-.11,5.63-.2.88,0,1.74-.08,2.57-.13h.2c3.14-.19,5.94-.45,8.3-.79l-.55,3.82-.46,3.17Z"/><path class="cls-15" d="M144.46,224.15c-.48.32-1,.62-1.46.93a67.83,67.83,0,0,1-7.38,3.94c-.68.32-1.37.63-2.07.94,0,0-.07,0-.09,0-.74.32-1.48.62-2.24.92-1.46.58-3,1.12-4.51,1.63l-.34.11c-2.3.76-4.67,1.42-7.11,2-.84.21-1.69.39-2.55.57s-1.72.36-2.59.51-1.74.32-2.62.45h0c-.7.12-1.4.23-2.12.32l-1,.13-1.91.23-.94.09c-.65.07-1.32.12-2,.18l-.46,0c-.74.07-1.49.11-2.24.15h-.23c-.85.05-1.7.08-2.56.1-1,0-2,.05-3,.05-18.61,0-35.5-4.69-47.92-12.3-.31-.2-.61-.39-.92-.57l.81-10.23.73-9.23.58-7.45h0l.52-6.6.14-1.77h0l0-.3.39-4.91.48-6.07,1.41-17.93,0-1.05,1-22.77.13-3L52.26,130l0-1.43,0-1.06L52,123l-.2-5.82,0-1.06-.13-3.91-.33-9.87,0-.8,8.46-3.17L60,99.57l1.72,11,.75,4.73s0,0,0,0l.22,1.43.17,1.08,0,.16.74,4.72h0l.77,4.88.16,1.07.56,3.56,1,0h1.06l10-.19,1.06,0,9.54-.17,1.06,0,8.46-.16,1.06,0,7.79-.14,1.06,0,8.27-.16,1.06,0,5.63-.1h2.11l.3-3.27.1-1.07L125,123l.39-4.19.06-.73h0l0-.34.18-1.94h0l.45-4.93,1.27-14,.06-.62,6.35,1.06,0,1.49.2,11.44,0,3.27.05,3,.08,4.72,0,1.92,0,1.35,0,1.62,0,1.05.56,32.6.09.59,2.56,17.2,1,6.54,1.1,7.37,0,.13.1.67,1.85,12.42h0l.27,1.89Z"/><polygon class="cls-16" points="70.35 141.76 120.07 141.76 119.02 160.8 96.8 172.44 71.41 160.8 70.35 141.76"/><path class="cls-3" d="M77.44,87.51l-11.06,10,14.55,7.2L73.52,109,93.1,121.13l4.23-10.58S76.07,93.56,77.44,87.51Z"/><path class="cls-3" d="M112.65,88.34l10.07,9.76-13.24,7,6.74,4.12L99.44,121.13,96,110.27S113.9,94.23,112.65,88.34Z"/><g class="cls-17"><path class="cls-7" d="M48.13,144.41h0a.52.52,0,0,1-.48-.57c1-11.42-4.17-35.57-4.22-35.81a.51.51,0,0,1,.4-.63.53.53,0,0,1,.63.4c.22,1,5.29,24.55,4.24,36.13A.53.53,0,0,1,48.13,144.41Z"/></g><g class="cls-17"><path class="cls-7" d="M139.11,142.29a.52.52,0,0,1-.51-.43c-2.12-10.56,3-37.16,3.17-38.28a.53.53,0,0,1,1,.2c-.05.27-5.25,27.52-3.18,37.88a.52.52,0,0,1-.41.62Z"/></g><path class="cls-14" d="M48.59,133a.74.74,0,0,0-.17-.18h0a.54.54,0,0,0-.55,0,3.46,3.46,0,0,0-.49.35c-1.46,1.16-3.48,3.81-5.68,7.14-1.31-2.86-2.7-6.31-4-9.74,2.88-4,5.71-7.28,8.21-9,.24-.16.48-.31.71-.44a.49.49,0,0,0,.25-.35v0h0a.46.46,0,0,0-.05-.34.52.52,0,0,0-.72-.2,3.73,3.73,0,0,0-.37.23c-2.6,1.61-5.52,4.87-8.48,8.92-1.19-3.17-2.3-6.25-3.18-8.77,3.4-3.86,6.85-6.88,10.19-8.41l.13-.07a.52.52,0,0,0,.26-.7.49.49,0,0,0-.59-.29h0l-.09,0q-4.82,2.16-10.29,8.28c-1-2.77-1.58-4.61-1.6-4.68a.43.43,0,0,0-.22-.27.48.48,0,0,0-.45-.07.53.53,0,0,0-.33.68s0,.12.07.24c.23.67.85,2.53,1.72,5A97.66,97.66,0,0,0,25.6,130c-1.09-2.22-1.78-3.69-1.81-3.75a.5.5,0,0,0-.63-.27l-.07,0a.53.53,0,0,0-.3.51,1.05,1.05,0,0,0,.05.19c.11.25.9,1.92,2.08,4.32q-3.44,5.19-7.06,11.67l-.18.33c-1.64-1.72-2.7-2.89-2.74-2.92a.49.49,0,0,0-.45-.17.48.48,0,0,0-.29.13.5.5,0,0,0-.12.61.7.7,0,0,0,.08.14c.16.17,1.29,1.42,3,3.19-1.75,3.18-3.38,6.29-4.82,9.17-1.74-.95-3.07-1.73-3.7-2.09a1.79,1.79,0,0,0-.22-.13c-.14.33-.27.65-.43,1a.86.86,0,0,0,.19.11c.68.4,2,1.16,3.68,2.09-3.53,7-5.89,12.48-6.4,13.66l-.1.24a.53.53,0,0,0,.28.69.52.52,0,0,0,.21,0,.55.55,0,0,0,.49-.33s.17-.41.46-1.08c.9-2,3-6.79,6-12.71,2.22,1.2,4.93,2.59,7.64,3.79-1.06,2.14-2,4-2.64,5.43-.86,1.8-1.39,3-1.51,3.22a.53.53,0,0,0,.26.71.6.6,0,0,0,.22,0,.52.52,0,0,0,.48-.3c0-.09.74-1.62,1.93-4.08.62-1.29,1.38-2.85,2.24-4.59A37,37,0,0,0,27.72,161a0,0,0,0,0,0,0,12,12,0,0,0,1.8.3l-.78,1.47-.69,1.3,0,0c-.57,1.08-.94,1.81-1.06,2a.16.16,0,0,1,0,.06.53.53,0,0,0,.23.71.57.57,0,0,0,.15,0,.13.13,0,0,0,.09,0,.51.51,0,0,0,.47-.29l.18-.35c.11-.2.24-.47.43-.81l.3-.61c.21-.37.43-.78.67-1.24s.4-.77.63-1.19l1.22-2.28,1.28-2.36a13.13,13.13,0,0,0,2.66,1.33.5.5,0,0,0,.17,0,.53.53,0,0,0,.5-.36.52.52,0,0,0-.34-.66,11.69,11.69,0,0,1-2.48-1.27c1-1.88,2.18-3.92,3.35-6a12.47,12.47,0,0,0,2.93,2.9.45.45,0,0,0,.27.08.57.57,0,0,0,.46-.26.53.53,0,0,0-.19-.72A12.58,12.58,0,0,1,37,150c1.5-2.59,3-5.17,4.53-7.5a20.56,20.56,0,0,0,3,4.94.53.53,0,0,0,.76,0,.54.54,0,0,0,0-.75,21.22,21.22,0,0,1-3.12-5.22,42.2,42.2,0,0,1,5.26-7,5.08,5.08,0,0,1,.92-.72.2.2,0,0,0,.08-.08A.49.49,0,0,0,48.59,133ZM33.24,121.57c.91,2.58,2,5.69,3.24,8.86-2,2.8-4,5.93-5.9,9.16-1.67-3.05-3.23-6.08-4.42-8.48A100.12,100.12,0,0,1,33.24,121.57Zm-7.76,10.56c1.23,2.46,2.79,5.5,4.47,8.52-1.85,3.14-3.62,6.35-5.23,9.39-2.32-2.18-4.53-4.41-6.26-6.21C20.63,139.94,23,135.93,25.48,132.13Zm-4.59,25.33c-2.7-1.2-5.41-2.59-7.64-3.79,1.4-2.78,3-5.78,4.67-8.86,1.75,1.82,4,4,6.27,6.2C23,153.31,21.87,155.48,20.89,157.46Zm9.21,2.81c-2,0-5.06-1-8.23-2.39.95-1.87,2-3.95,3.15-6.1a66.17,66.17,0,0,0,6.7,5.49C31.14,158.34,30.59,159.34,30.1,160.27Zm2.14-3.93a64,64,0,0,1-6.7-5.54c1.55-2.93,3.25-6,5-9.05A84.87,84.87,0,0,0,35.78,150C34.53,152.2,33.32,154.35,32.24,156.34Zm4.11-7.29a91.06,91.06,0,0,1-5.17-8.37c1.88-3.17,3.82-6.26,5.76-9.05,1.33,3.46,2.75,6.9,4.08,9.75C39.49,143.75,37.89,146.39,36.35,149.05Z"/><path class="cls-14" d="M180.25,161.09c-1.17-3.19-3.81-7.76-7.18-12.89a30,30,0,0,0,3.45-2.89.53.53,0,0,0-.75-.75,27.36,27.36,0,0,1-3.29,2.75c-2.12-3.17-4.48-6.54-6.93-9.93a43.65,43.65,0,0,0,3.68-7.07.53.53,0,1,0-1-.37,40.45,40.45,0,0,1-3.37,6.51c-2-2.73-4-5.45-6-8.08a46.18,46.18,0,0,0,1.95-5.51.53.53,0,0,0-1-.28,40.45,40.45,0,0,1-1.66,4.81c-2-2.58-3.88-5-5.66-7.32.78-2,1.47-3.94,2-5.66a.53.53,0,1,0-1-.31c-.46,1.53-1.06,3.23-1.74,5-5-6.4-8.84-11-9.32-11.61a.49.49,0,0,0-.18-.14.52.52,0,0,0-.57.07.52.52,0,0,0-.07.74l.41.5c1.17,1.43,4.75,5.83,9.28,11.6-1.07,2.67-2.3,5.49-3.54,8.18-3.81-4.75-6.6-8.17-7-8.62a.5.5,0,0,0-.38-.19.48.48,0,0,0-.36.12.51.51,0,0,0-.07.74l.28.35c2.07,2.52,4.48,5.49,7,8.66-1.52,3.29-3,6.35-4.19,8.67-2.06-2-3.49-3.39-3.71-3.6a.39.39,0,0,0-.15-.11.54.54,0,0,0-.6.12.53.53,0,0,0,0,.75l.58.56c.66.64,1.85,1.8,3.36,3.29-1,2.05-1.72,3.33-1.75,3.38a.54.54,0,0,0,.23.72.66.66,0,0,0,.25.06.53.53,0,0,0,.46-.28s.63-1.21,1.59-3.1c1.48,1.47,3.19,3.21,5,5.06-1.38,2-2.31,3.27-2.34,3.3a.55.55,0,0,0,0,.6.47.47,0,0,0,.13.15l.05,0a.52.52,0,0,0,.27.07.51.51,0,0,0,.42-.21s.93-1.23,2.24-3.16c1.74,1.81,3.5,3.71,5.17,5.6-1.16,1.45-1.9,2.35-1.94,2.39a.53.53,0,0,0,.08.74.45.45,0,0,0,.33.12.52.52,0,0,0,.41-.19c.12-.14.8-1,1.83-2.25.81.92,1.58,1.83,2.3,2.71l-.24.08a.53.53,0,0,0-.33.67.52.52,0,0,0,.5.36.52.52,0,0,0,.17,0l.61-.22c.63.78,1.21,1.54,1.73,2.26v0c.59.81,1.09,1.55,1.51,2.24a16.31,16.31,0,0,1,.77,1.45c0,.07.07.15.11.22a7,7,0,0,1,.26.77.52.52,0,0,0,.51.4l.13,0a.54.54,0,0,0,.38-.37.5.5,0,0,0,0-.27,1.39,1.39,0,0,0-.06-.19h0a7.86,7.86,0,0,0-.56-1.36,18.25,18.25,0,0,0-1-1.72q-.28-.47-.63-1c-.4-.59-.85-1.21-1.34-1.85-.25-.33-.5-.66-.77-1,1.46-.54,3.75-1.46,6.29-2.68,1.31,1.79,2.51,3.46,3.52,4.94s1.9,2.84,2.54,3.91c.32.55.58,1,.76,1.42a5.05,5.05,0,0,1,.42,1.07.53.53,0,0,0,.52.43h.1a.52.52,0,0,0,.41-.63,1.17,1.17,0,0,0-.09-.33,8.61,8.61,0,0,0-.61-1.37,46.45,46.45,0,0,0-2.49-4c-1.15-1.71-2.55-3.7-4.12-5.85a53.76,53.76,0,0,0,6-3.48,77.7,77.7,0,0,1,6.8,11.92,9.26,9.26,0,0,1,.84,3.26.53.53,0,1,0,1.06,0A9,9,0,0,0,180.25,161.09Zm-21.9-31.6c2,2.6,4,5.27,5.92,7.94-1.37,2.17-2.9,4.38-4.41,6.47-1.77-2.31-3.58-4.63-5.35-6.88A81.78,81.78,0,0,0,158.35,129.49ZM152,121.22c1.78,2.28,3.69,4.75,5.64,7.31a79.34,79.34,0,0,1-3.82,7.6c-1.88-2.4-3.71-4.69-5.36-6.76C149.67,126.71,150.9,123.91,152,121.22Zm-3.11,22.9c-1.83-1.9-3.58-3.67-5.07-5.15,1.14-2.26,2.62-5.26,4.14-8.54,1.74,2.16,3.52,4.41,5.3,6.67C151.69,139.8,150.14,142.22,148.87,144.12Zm6,6.44c-1.69-1.9-3.48-3.83-5.22-5.66,1.25-1.86,2.78-4.24,4.33-6.9,1.79,2.28,3.57,4.56,5.28,6.78C157.59,147,156.05,149,154.83,150.56Zm3.39,4c-.84-1-1.74-2.1-2.68-3.17,1.21-1.53,2.74-3.52,4.35-5.71,1.65,2.15,3.23,4.24,4.67,6.19C161.93,153.11,159.6,154,158.22,154.55Zm7.3-3.15c-1.55-2.11-3.24-4.35-5-6.62,1.49-2.06,3-4.25,4.4-6.43,2.37,3.27,4.64,6.51,6.68,9.55A55.47,55.47,0,0,1,165.52,151.4Z"/><path class="cls-18" d="M164,193.56c0,11.9-7.44,22.68-19.52,30.59-.48.32-1,.62-1.46.93a67.83,67.83,0,0,1-7.38,3.94c-.68.32-1.37.63-2.07.94,0,0-.07,0-.09,0-.74.32-1.48.62-2.24.92-1.46.58-3,1.12-4.51,1.63l-.34.11c-2.3.76-4.67,1.42-7.11,2-.84.21-1.69.39-2.55.57s-1.72.36-2.59.51-1.74.32-2.62.45h0c-.7.12-1.4.23-2.12.32l-1,.13-1.91.23-.94.09c-.65.07-1.32.12-2,.18l-.46,0c-.74.07-1.49.11-2.24.15h-.23c-.85.05-1.7.08-2.56.1-1,0-2,.05-3,.05-18.61,0-35.5-4.69-47.92-12.3-.31-.2-.61-.39-.92-.57-12.46-8-20.18-18.92-20.18-31,0-.67,0-1.33.07-2,0-.27.05-.54.07-.81s.07-.62.11-.92a1,1,0,0,1,0-.25h0c.07-.54.17-1.06.27-1.58s.27-1.21.42-1.81.41-1.42.65-2.12h134.8c.19.56.37,1.13.52,1.7a26.87,26.87,0,0,1,1,5.77C164,192.22,164,192.88,164,193.56Z"/><path class="cls-19" d="M135.62,229c-.68.32-1.37.63-2.07.94,0,0-.07,0-.09,0-.74.32-1.48.62-2.24.92-1.46.58-3,1.12-4.51,1.63l-.34.11c-2.3.75-4.68,1.41-7.11,2-.84.21-1.69.39-2.55.57s-1.72.36-2.59.51-1.74.32-2.62.45h0c-.7.12-1.4.23-2.12.32l-1,.13-1.91.23-.94.09c-.65.07-1.32.12-2,.18l-.46,0c-.74.07-1.49.11-2.24.15h-.23c-.85.05-1.7.08-2.56.1-1,0-2,.05-3,.05-18.61,0-35.5-4.69-47.92-12.3-.31-.2-.61-.39-.92-.57-12.46-8-20.18-18.92-20.18-31,0-.67,0-1.33.07-2,0-.27.05-.54.07-.81s.07-.62.11-.92a1.87,1.87,0,0,1,0-.25c.07-.54.17-1.06.27-1.58s.27-1.21.42-1.81c1,2.06,2,4.1,3.06,6.1,4.41,8.24,9.8,15.9,16.95,22.06.06.07.13.12.19.18l1.29,1.08C60.27,225.24,75.1,230,90.14,232.05A116.66,116.66,0,0,0,135.62,229Z"/><circle class="cls-20" cx="57.66" cy="117.43" r="7.93" transform="translate(-63.65 68.46) rotate(-41.87)"/><path class="cls-11" d="M57.24,112.24a5.21,5.21,0,1,1-4.78,5.6A5.2,5.2,0,0,1,57.24,112.24Z"/><circle class="cls-20" cx="130.65" cy="117.43" r="7.93" transform="translate(-6.13 227.66) rotate(-80.81)"/><path class="cls-11" d="M130.24,112.24a5.21,5.21,0,1,1-4.78,5.6A5.21,5.21,0,0,1,130.24,112.24Z"/><g class="cls-21"><path class="cls-7" d="M72,144.54,73.15,160l23.48,10.67.19.09,20.46-11.84,1.11-14.39Zm44.48,13.91L96.78,169.88l-22.87-10.4-1-14.14h44.64Z"/></g><g class="cls-22"><g class="cls-23"><path class="cls-7" d="M5,208.61H5a.54.54,0,0,1,0-.75l86.22-96.05a.54.54,0,0,1,.75,0h0a.54.54,0,0,1,0,.75L5.79,208.57A.54.54,0,0,1,5,208.61Z"/><path class="cls-7" d="M12.92,215.67h0a.51.51,0,0,1,0-.74l86.21-96.05a.54.54,0,0,1,.75,0h0a.53.53,0,0,1,0,.75l-86.22,96A.51.51,0,0,1,12.92,215.67Z"/><path class="cls-7" d="M20.79,222.74h0a.53.53,0,0,1,0-.75L107,126a.51.51,0,0,1,.74,0h0a.51.51,0,0,1,0,.74l-86.21,96A.54.54,0,0,1,20.79,222.74Z"/><path class="cls-7" d="M28.66,229.81h0a.54.54,0,0,1,0-.75L114.84,133a.53.53,0,0,1,.74,0h0a.54.54,0,0,1,0,.75L29.41,229.77A.54.54,0,0,1,28.66,229.81Z"/><path class="cls-7" d="M36.53,236.87h0a.53.53,0,0,1,0-.74l86.22-96a.53.53,0,0,1,.75,0h0a.54.54,0,0,1,0,.75l-86.22,96A.53.53,0,0,1,36.53,236.87Z"/><path class="cls-7" d="M44.41,243.94h0a.53.53,0,0,1,0-.75l86.21-96a.53.53,0,0,1,.75,0h0a.53.53,0,0,1,0,.75l-86.22,96A.51.51,0,0,1,44.41,243.94Z"/><path class="cls-7" d="M52.28,251h0a.53.53,0,0,1,0-.75l86.22-96a.51.51,0,0,1,.74,0h0a.51.51,0,0,1,0,.74L53,251A.54.54,0,0,1,52.28,251Z"/><path class="cls-7" d="M60.15,258.07h0a.52.52,0,0,1,0-.74l86.22-96a.54.54,0,0,1,.75,0h0a.54.54,0,0,1,0,.75L60.9,258A.53.53,0,0,1,60.15,258.07Z"/><path class="cls-7" d="M68,265.14h0a.54.54,0,0,1,0-.75l86.22-96a.53.53,0,0,1,.75,0h0a.54.54,0,0,1,0,.75l-86.22,96A.53.53,0,0,1,68,265.14Z"/><path class="cls-7" d="M75.9,272.21h0a.53.53,0,0,1,0-.75l86.21-96a.53.53,0,0,1,.75,0h0a.52.52,0,0,1,0,.74L76.64,272.17A.53.53,0,0,1,75.9,272.21Z"/><path class="cls-7" d="M83.77,279.28h0a.53.53,0,0,1,0-.75l86.22-96a.53.53,0,0,1,.74,0h0a.53.53,0,0,1,0,.75L84.52,279.24A.54.54,0,0,1,83.77,279.28Z"/><path class="cls-7" d="M91.64,286.34h0a.52.52,0,0,1,0-.74l86.22-96.05a.53.53,0,0,1,.75,0h0a.54.54,0,0,1,0,.75l-86.22,96A.53.53,0,0,1,91.64,286.34Z"/><path class="cls-7" d="M99.51,293.41h0a.54.54,0,0,1,0-.75l86.22-96a.53.53,0,0,1,.75,0h0a.53.53,0,0,1,0,.74l-86.22,96.05A.53.53,0,0,1,99.51,293.41Z"/><path class="cls-7" d="M186.44,208.61h0a.54.54,0,0,0,0-.75l-86.22-96.05a.54.54,0,0,0-.75,0h0a.54.54,0,0,0,0,.75l86.22,96.05A.54.54,0,0,0,186.44,208.61Z"/><path class="cls-7" d="M178.57,215.67h0a.53.53,0,0,0,0-.74L92.39,118.88a.54.54,0,0,0-.75,0h0a.53.53,0,0,0,0,.75l86.22,96A.53.53,0,0,0,178.57,215.67Z"/><path class="cls-7" d="M170.69,222.74h0a.53.53,0,0,0,0-.75L84.52,126a.53.53,0,0,0-.75,0h0a.51.51,0,0,0,0,.74l86.22,96A.52.52,0,0,0,170.69,222.74Z"/><path class="cls-7" d="M162.82,229.81h0a.54.54,0,0,0,0-.75L76.64,133a.53.53,0,0,0-.74,0h0a.53.53,0,0,0,0,.75l86.21,96.05A.54.54,0,0,0,162.82,229.81Z"/><path class="cls-7" d="M155,236.87h0a.53.53,0,0,0,0-.74l-86.22-96a.53.53,0,0,0-.75,0h0a.54.54,0,0,0,0,.75l86.22,96A.53.53,0,0,0,155,236.87Z"/><path class="cls-7" d="M147.08,243.94h0a.54.54,0,0,0,0-.75l-86.22-96a.53.53,0,0,0-.75,0h0a.53.53,0,0,0,0,.75l86.22,96A.53.53,0,0,0,147.08,243.94Z"/><path class="cls-7" d="M139.2,251h0a.53.53,0,0,0,0-.75L53,154.22a.53.53,0,0,0-.75,0h0a.51.51,0,0,0,0,.74L138.46,251A.53.53,0,0,0,139.2,251Z"/><path class="cls-7" d="M131.33,258.07h0a.52.52,0,0,0,0-.74l-86.22-96a.53.53,0,0,0-.74,0h0a.53.53,0,0,0,0,.75l86.21,96A.53.53,0,0,0,131.33,258.07Z"/><path class="cls-7" d="M123.46,265.14h0a.54.54,0,0,0,0-.75l-86.22-96a.53.53,0,0,0-.75,0h0a.54.54,0,0,0,0,.75l86.22,96A.53.53,0,0,0,123.46,265.14Z"/><path class="cls-7" d="M115.58,272.21h0a.54.54,0,0,0,0-.75l-86.22-96a.53.53,0,0,0-.75,0h0a.52.52,0,0,0,0,.74l86.22,96.05A.53.53,0,0,0,115.58,272.21Z"/><path class="cls-7" d="M107.71,279.28h0a.53.53,0,0,0,0-.75l-86.21-96a.55.55,0,0,0-.75,0h0a.53.53,0,0,0,0,.75L107,279.24A.53.53,0,0,0,107.71,279.28Z"/><path class="cls-7" d="M99.84,286.34h0a.52.52,0,0,0,0-.74L13.66,189.55a.52.52,0,0,0-.74,0h0a.53.53,0,0,0,0,.75l86.21,96A.53.53,0,0,0,99.84,286.34Z"/><path class="cls-7" d="M92,293.41h0a.54.54,0,0,0,0-.75l-86.22-96a.53.53,0,0,0-.75,0H5a.53.53,0,0,0,0,.74l86.22,96.05A.53.53,0,0,0,92,293.41Z"/></g></g><ellipse class="cls-7" cx="95.74" cy="184.61" rx="67.71" ry="8.99"/><path class="cls-5" d="M123.87,198.64c8.57-8.26,12.84-5.11,12.84-5.11l4-1.72c1.27,4.46,2.19,9,3.12,13.58l-1,.26L131.2,216.31c-4-.25-12.95-10.54-12.95-10.54Z"/><path class="cls-5" d="M136.71,193.53a14.1,14.1,0,0,0-10.05-.84c-5.25,1.71-11.44,2.5-10.1,5.71,0,0,.33.67,3.94-.15s3.93,1,3.64,2.47S136.71,193.53,136.71,193.53Z"/><path class="cls-5" d="M118.25,205.77s-12.73,8.52-10.83,10.46a1.74,1.74,0,0,0,2,.23c1.11-.58,13.1-9.45,13.1-9.45S121.36,203.8,118.25,205.77Z"/><path class="cls-5" d="M125.11,212.28s-11.1,10.56-8.9,12.14a1.74,1.74,0,0,0,2-.1c1-.76,11.3-11.54,11.3-11.54S127.84,209.81,125.11,212.28Z"/><path class="cls-5" d="M128.34,215s-7.77,7.84-5.77,9.11a1.51,1.51,0,0,0,1.6,0c.73-.55,7.82-8.58,7.82-8.58S130.27,213.12,128.34,215Z"/><path class="cls-5" d="M121.24,209.47s-13.18,11-11.11,12.79a1.75,1.75,0,0,0,2.07-.07c1.16-.78,13.55-12.08,13.55-12.08S124.47,206.89,121.24,209.47Z"/><path class="cls-5" d="M164.91,164c-12.47,11.28-27.6,30.48-27.6,30.48l5,11.91,19.35-12.71c7.7-6.87,12.54-12.77,15.51-17.7A76.53,76.53,0,0,1,164.91,164Z"/><path class="cls-3" d="M189.22,164s-25.42-8.41-29.51-8.15l-.23,4.89s-1.77-1.75-3.91.75,26.77,18.77,26.77,18.77,4.95-1,3.58-4.42S192.21,167.65,189.22,164Z"/><g class="cls-24"><path class="cls-7" d="M180.4,170.88a.51.51,0,0,1-.29-.17c-2-2.29-15.36-7.84-20.35-9.79a.53.53,0,0,1,.38-1c.75.29,18.23,7.13,20.78,10.09a.53.53,0,0,1-.52.86Z"/></g><g class="cls-24"><path class="cls-7" d="M180.28,166.52a.44.44,0,0,1-.16-.06c-3.19-1.91-18.7-7.32-18.85-7.37a.53.53,0,1,1,.34-1c.65.22,15.77,5.5,19,7.46a.53.53,0,0,1-.38,1Z"/></g><g class="cls-25"><path class="cls-26" d="M147,181.06S114.5,197.81,106,209.37a6,6,0,0,0,4,4.22s25.68-22.9,40.35-28.41C150.33,185.18,150.31,179.47,147,181.06Z"/><path class="cls-20" d="M140.05,182.64a26.44,26.44,0,0,1,4.48-22.33,3.1,3.1,0,0,1,1.7-1.32c1.5-.28,2.5,1.52,2.81,3a19.6,19.6,0,0,1-.23,8.85,52,52,0,0,1,8.56-13.78c1.09-1.26,2.71-2.58,4.24-1.92,1.35.58,1.68,2.36,1.43,3.81s-.88,2.85-.72,4.3a44.9,44.9,0,0,1,8-8.82c1.52-1.28,3.93-2.42,5.31-1,1.93,2-1.3,5-1.33,7.8a37.61,37.61,0,0,1,10.37-5,9.87,9.87,0,0,1,5.7-.42c1.85.57,3.43,2.43,3.05,4.33a5.61,5.61,0,0,1-2,2.89,31.83,31.83,0,0,1-9.93,6,13.41,13.41,0,0,1,5.21,3.09c1.35,1.52,1.9,4,.67,5.6-1.51,2-4.53,1.69-7,1.19l-8-1.64a12.64,12.64,0,0,1,4.47,3.68c1.05,1.64,1.18,4-.25,5.37-1.2,1.12-3,1.13-4.67.93A27.92,27.92,0,0,1,161.68,184c.61,1.55,2.2,2.44,3.5,3.48s2.47,2.75,1.81,4.28c-.52,1.2-1.91,1.71-3.18,2a23.36,23.36,0,0,1-21.9-7Z"/><g class="cls-27"><path class="cls-20" d="M142,184.92c-.74-5.24,1.25-11.43,5.25-16.31a3.14,3.14,0,0,1,1.34-1.1c1.11-.33,1.67.86,1.76,1.9a14.6,14.6,0,0,1-1,6.32,52.53,52.53,0,0,1,7.42-10.59c.9-1,2.19-2.08,3.24-1.75s1,1.54.68,2.59a12.67,12.67,0,0,0-.9,3.13,46,46,0,0,1,6.59-7c1.22-1,3.06-2.08,3.93-1.18,1.21,1.26-1.4,3.69-1.67,5.68a37.12,37.12,0,0,1,7.94-4.5,7.9,7.9,0,0,1,4.15-.8,2.19,2.19,0,0,1,1.82,2.8,5.73,5.73,0,0,1-1.71,2.24,32.31,32.31,0,0,1-7.71,5.21,7,7,0,0,1,3.48,1.73,3.1,3.1,0,0,1,0,3.93c-1.27,1.55-3.42,1.61-5.14,1.47l-5.65-.44a6.28,6.28,0,0,1,2.9,2.22,3.25,3.25,0,0,1-.66,3.85,4.9,4.9,0,0,1-3.46,1.08,16.87,16.87,0,0,1-7.12-1.47c.31,1.05,1.37,1.53,2.22,2.16a2.28,2.28,0,0,1,.92,2.89,4.2,4.2,0,0,1-2.48,1.71c-5.81,1.94-11.82.75-15.18-3Z"/></g><path class="cls-28" d="M192.1,158a.43.43,0,0,0-.55-.22c-1,.42-13.14,5.77-25.29,12l3.05-6.31a.42.42,0,1,0-.75-.36L165,170.42c-3.38,1.76-6.71,3.58-9.78,5.38l-.28-.15,1.25-5.54a.41.41,0,1,0-.81-.18L154,176.09l.39.21c-6.47,3.85-11.58,7.55-12.93,10.25a.42.42,0,0,0,.07.47l.12.09a.42.42,0,0,0,.56-.19c1.3-2.62,6.49-6.31,13-10.16l6,3.19a.43.43,0,0,0,.57-.18.41.41,0,0,0-.17-.56l-5.54-3c2.62-1.51,5.43-3,8.29-4.56l0,.06,9.59.9a.42.42,0,1,0,.07-.83l-8.38-.78c12.78-6.65,26-12.44,26.22-12.55A.41.41,0,0,0,192.1,158Z"/><path class="cls-26" d="M137.93,171.57S110.45,195.72,105,209a6,6,0,0,0,4.92,3.12s19.35-28.45,32.24-37.36C142.14,174.76,140.73,169.23,137.93,171.57Z"/><path class="cls-20" d="M131.54,174.79a26.44,26.44,0,0,1-1.07-22.74,3.1,3.1,0,0,1,1.32-1.7c1.39-.64,2.8.87,3.46,2.24a19.55,19.55,0,0,1,1.93,8.64,52.19,52.19,0,0,1,5-15.45c.75-1.48,2-3.16,3.65-2.89,1.44.24,2.19,1.89,2.3,3.35s-.15,3,.36,4.35a44.91,44.91,0,0,1,5.64-10.51c1.17-1.61,3.23-3.31,4.92-2.25,2.36,1.48,0,5.18.6,7.89a37.51,37.51,0,0,1,8.85-7.37,9.82,9.82,0,0,1,5.43-1.78c1.93.1,3.91,1.52,4,3.45a5.55,5.55,0,0,1-1.24,3.28,31.54,31.54,0,0,1-8.17,8.28,13.38,13.38,0,0,1,5.81,1.74c1.68,1.14,2.81,3.39,2,5.26-1,2.3-4,2.74-6.47,2.85l-8.19.36a12.63,12.63,0,0,1,5.23,2.49c1.42,1.33,2.13,3.63,1.07,5.27-.9,1.37-2.68,1.83-4.31,2a28.05,28.05,0,0,1-10.79-.77c1,1.36,2.73,1.83,4.24,2.53s3.06,2.06,2.8,3.71c-.21,1.28-1.44,2.12-2.6,2.7a23.37,23.37,0,0,1-22.94-1.43Z"/><g class="cls-27"><path class="cls-20" d="M134,176.55c-2-4.91-1.57-11.4,1.12-17.11a3.11,3.11,0,0,1,1-1.38c1-.6,1.83.42,2.17,1.41a14.68,14.68,0,0,1,.6,6.36,52.09,52.09,0,0,1,4.63-12.07c.63-1.19,1.61-2.56,2.71-2.49s1.34,1.25,1.29,2.35a12.86,12.86,0,0,0-.11,3.26,46.85,46.85,0,0,1,4.69-8.41c.92-1.31,2.46-2.76,3.52-2.1,1.48.93-.45,3.92-.23,5.92A36.27,36.27,0,0,1,162,146a7.85,7.85,0,0,1,3.83-1.79,2.19,2.19,0,0,1,2.45,2.28,5.71,5.71,0,0,1-1.11,2.58,32.5,32.5,0,0,1-6.22,6.93,7,7,0,0,1,3.8.83,3.09,3.09,0,0,1,.93,3.82c-.85,1.81-2.92,2.39-4.62,2.68l-5.59.94a6.29,6.29,0,0,1,3.35,1.45,3.27,3.27,0,0,1,.3,3.9A4.93,4.93,0,0,1,156,171.5a16.82,16.82,0,0,1-7.27.3c.55.95,1.7,1.16,2.67,1.56a2.27,2.27,0,0,1,1.6,2.58,4.22,4.22,0,0,1-2,2.26c-5.16,3.29-11.28,3.6-15.45.78Z"/></g><path class="cls-28" d="M176,138.2a.41.41,0,0,0-.58-.07c-.84.64-11.35,8.78-21.61,17.82l1.42-6.86a.4.4,0,0,0-.32-.49.41.41,0,0,0-.49.32l-1.65,8c-2.85,2.53-5.64,5.11-8.18,7.6l-.31-.08-.13-5.68a.42.42,0,1,0-.83,0l.14,6.32.44.1c-5.35,5.31-9.4,10.14-10.05,13.09a.42.42,0,0,0,.18.44l.14,0a.41.41,0,0,0,.49-.31c.63-2.86,4.76-7.7,10.19-13l6.58,1.64a.42.42,0,0,0,.51-.31.42.42,0,0,0-.31-.5l-6.08-1.51c2.17-2.11,4.52-4.29,6.93-6.44v.06l9.51-1.46a.41.41,0,1,0-.12-.82l-8.32,1.28c10.77-9.55,22.17-18.38,22.38-18.54A.42.42,0,0,0,176,138.2Z"/><path class="cls-4" d="M99.67,198.14S91.58,168,99.42,164s7.91,5.19,7.91,5.19.6-7.22,4.54-6.6,4,5.88,4,5.88,3.89-6.59,7.85-3.34.21,28.21-5,32.84c0,0-3.26,2.65-5.91-1.93,0,0-3.23,7.24-5.25,0C107.53,196.11,103.64,202,99.67,198.14Z"/><path class="cls-29" d="M116.32,188.46q-.63,0-1.29,0c-11.53-.4-16.81-14.78-14.21-25.07a11.47,11.47,0,0,0-1.4.61c-7.84,4,.25,34.11.25,34.11,4,3.9,7.86-2,7.86-2,2,7.2,5.25,0,5.25,0,2.65,4.58,5.91,1.93,5.91,1.93,1.82-1.62,3.46-5.71,4.66-10.48A10.34,10.34,0,0,1,116.32,188.46Z"/><path class="cls-20" d="M110,169.85s1.2-15.09,6.43-17.1c0,0,2,0,1.33,2.62s-6.49,8.57-7.75,15.8"/><path class="cls-30" d="M123.42,171.07c0,3.08-2.17,5.59-4.88,5.61s-4.94-2.46-5-5.54,2.16-5.59,4.87-5.61S123.39,168,123.42,171.07Z"/><path class="cls-11" d="M79.39,199s-12.56-25.42-6.27-30.37,8,3.23,8,3.23-.74-6.55,2.88-6.69,4.59,4.53,4.59,4.53,2.3-6.56,6.41-4.37,5.19,25.12,1.36,30.17c0,0-2.44,2.94-5.62-.66,0,0-1.59,7-4.67,1C86,195.75,83.62,201.73,79.39,199Z"/><path class="cls-31" d="M92.53,187.37a11.21,11.21,0,0,1-1.15.25C81,189.31,73.76,177.43,74.26,167.79a12.51,12.51,0,0,0-1.14.79C66.83,173.53,79.39,199,79.39,199c4.23,2.78,6.65-3.2,6.65-3.2,3.08,6.07,4.67-1,4.67-1,3.18,3.6,5.62.66,5.62.66,1.34-1.76,2.07-5.7,2.29-10.17A9.39,9.39,0,0,1,92.53,187.37Z"/><path class="cls-20" d="M83.55,171.91s-1.61-13.68,2.7-16.4c0,0,1.75-.36,1.65,2.1s-4.27,8.8-4.11,15.46"/><path class="cls-30" d="M95.76,170.6c.57,2.74-.93,5.37-3.35,5.87s-4.84-1.32-5.41-4.06.94-5.37,3.36-5.87S95.2,167.86,95.76,170.6Z"/><path class="cls-20" d="M42.43,172.44s-10.75-1.38-9.26-3,5.66-.64,5.66-.64-17-3.47-13.25-4.95a14.64,14.64,0,0,1,7.88-.44s-16.41-4.78-13.62-5.88,10.57,2.25,10.57,2.25-10.82-12.37-7.95-11.9,9.72,9.59,9.72,9.59-2.11-9.38.21-7.61,3.68,9.29,3.68,9.29,1.51-7.05,3.26-4,1.09,8.16,1.09,8.16,3.08-7.13,4.56-3.42-.86,7.33-.86,7.33,3.82-5.28,4.93-2.49S42.43,172.44,42.43,172.44Z"/><g class="cls-32"><path class="cls-4" d="M43.09,171.37s-6.41,4.16-2.71,8.07S63.5,207.89,68.51,207s-12.62-33.16-16-37.72S43.09,171.37,43.09,171.37Z"/><path class="cls-29" d="M68.54,207c-.79-1.05-1.61-2.08-2.36-3.11q-4-5.52-8-11.1-7.59-10.68-14.92-21.56l-.16.17s-6.41,4.16-2.71,8.07S63.5,207.89,68.51,207Z"/><g class="cls-33"><path class="cls-7" d="M69.79,196c-3.1,7.19-11.92,10.24-12.3,10.37l-.22-.67c.09,0,8.89-3.08,11.87-10Z"/></g><g class="cls-33"><path class="cls-7" d="M65.55,188c-3.11,7.19-11.93,10.24-12.3,10.37L53,197.7c.09,0,8.9-3.08,11.88-10Z"/></g><g class="cls-33"><path class="cls-7" d="M61.6,178.21c-3.49,8.08-13.8,11.33-14.23,11.47l-.21-.68c.1,0,10.43-3.29,13.79-11.07Z"/></g><g class="cls-33"><path class="cls-7" d="M56.79,171.52C53.3,179.6,43,182.85,42.56,183l-.21-.67c.1,0,10.43-3.29,13.79-11.07Z"/></g></g><path class="cls-20" d="M58.5,168.37s-10-4.28-8.07-5.47,5.62.94,5.62.94-15.36-8-11.38-8.41a14.67,14.67,0,0,1,7.7,1.75s-14.46-9.11-11.48-9.41,9.55,5.08,9.55,5.08-7-14.87-4.37-13.62,6.7,11.88,6.7,11.88.56-9.59,2.3-7.25,1,9.94,1,9.94,3.39-6.36,4.23-2.93-1.2,8.15-1.2,8.15,4.93-6,5.32-2-2.84,6.81-2.84,6.81,5.13-4,5.42-1S58.5,168.37,58.5,168.37Z"/><g class="cls-34"><path class="cls-4" d="M59.42,167.53s-7.31,2.23-4.82,7S69,208.25,74.06,208.75s-3-35.35-5-40.67S59.42,167.53,59.42,167.53Z"/><path class="cls-29" d="M74.09,208.75c-.48-1.22-1-2.43-1.42-3.64q-2.36-6.42-4.64-12.87-4.35-12.36-8.41-24.83l-.2.12s-7.31,2.23-4.82,7S69,208.25,74.06,208.75Z"/><g class="cls-33"><path class="cls-7" d="M78.32,198.54c-5,6.06-14.29,6.56-14.68,6.58l0-.7c.1,0,9.4-.51,14.17-6.33Z"/></g><g class="cls-33"><path class="cls-7" d="M76.43,189.69c-5,6.06-14.28,6.56-14.68,6.58l0-.71c.09,0,9.4-.5,14.17-6.32Z"/></g><g class="cls-33"><path class="cls-7" d="M75.33,179.19C69.75,186,59,186.29,58.49,186.3v-.71c.11,0,10.93-.29,16.31-6.84Z"/></g><g class="cls-33"><path class="cls-7" d="M72.55,171.44c-5.58,6.81-16.38,7.09-16.84,7.1v-.71c.11,0,10.94-.29,16.31-6.84Z"/></g></g></g><path class="cls-5" d="M63.82,195.72c-8.38-8.46-12.73-5.41-12.73-5.41l-4-1.82c-1.38,4.43-2.4,9-3.45,13.51l1,.28,11.38,10.93c4-.15,13.2-10.22,13.2-10.22Z"/><path class="cls-5" d="M51.09,190.31a14.14,14.14,0,0,1,10.08-.61c5.21,1.84,11.37,2.78,10,6,0,0-.35.66-3.94-.25s-4,.93-3.7,2.39S51.09,190.31,51.09,190.31Z"/><path class="cls-5" d="M69.26,203s12.52,8.82,10.58,10.71a1.73,1.73,0,0,1-2,.18c-1.11-.6-12.88-9.76-12.88-9.76S66.19,200.94,69.26,203Z"/><path class="cls-5" d="M62.25,209.33s10.84,10.82,8.6,12.35a1.72,1.72,0,0,1-2-.15c-1-.78-11-11.81-11-11.81S59.58,206.79,62.25,209.33Z"/><path class="cls-5" d="M59,211.93s7.59,8,5.55,9.23a1.52,1.52,0,0,1-1.6-.07c-.71-.57-7.61-8.77-7.61-8.77S57.07,210.05,59,211.93Z"/><path class="cls-5" d="M66.18,206.61S79.09,218,77,219.66a1.76,1.76,0,0,1-2.07-.11c-1.14-.81-13.25-12.4-13.25-12.4S63,204,66.18,206.61Z"/><path class="cls-5" d="M26,163.81a151.94,151.94,0,0,0-14.85,7.38c2.81,5.08,7.49,11.21,15.14,18.45L46,203.83l4.52-12.66s-12-16.17-23.27-27.86Z"/><path class="cls-3" d="M3.78,168.32S29.17,159.8,33.26,160l.25,4.88s1.76-1.75,3.92.74-26.7,18.88-26.7,18.88-4.95-.93-3.59-4.4S.81,172,3.78,168.32Z"/><g class="cls-24"><path class="cls-7" d="M13.06,173.8a.51.51,0,0,1-.51-.29.53.53,0,0,1,.23-.71c.7-.35,17.07-8.47,20.3-8.74a.53.53,0,0,1,.09,1.05c-2.52.22-15.23,6.31-19.91,8.63A.76.76,0,0,1,13.06,173.8Z"/></g><g class="cls-24"><path class="cls-7" d="M18.59,168.48a.54.54,0,0,1-.5-.26.52.52,0,0,1,.18-.72c.42-.26,10.43-6.21,14.39-4.92a.53.53,0,0,1,.34.67.52.52,0,0,1-.66.34c-2.92-1-10.75,3.15-13.53,4.81A.45.45,0,0,1,18.59,168.48Z"/></g></g></g></svg>