<svg id="Layer_1" data-name="Layer 1" xmlns="http://www.w3.org/2000/svg" viewBox="0 0 437.41 335.99"><defs><style>.cls-1,.cls-18{fill:#da441c;}.cls-1,.cls-22{opacity:0.14;}.cls-2{fill:#faece3;}.cls-11,.cls-20,.cls-24,.cls-26,.cls-27,.cls-29,.cls-3,.cls-32,.cls-34,.cls-39,.cls-43,.cls-6{fill:none;}.cls-3{stroke:#d3e5db;}.cls-11,.cls-20,.cls-21,.cls-24,.cls-26,.cls-27,.cls-29,.cls-3,.cls-32,.cls-43{stroke-linecap:round;}.cls-11,.cls-20,.cls-21,.cls-24,.cls-26,.cls-27,.cls-29,.cls-3,.cls-32,.cls-34,.cls-39,.cls-43,.cls-6{stroke-miterlimit:10;}.cls-3,.cls-43,.cls-6{stroke-width:2px;}.cls-4{fill:#6a3d15;}.cls-5{fill:#874e11;}.cls-6{stroke:#ff8d3a;}.cls-7{fill:#b86c1a;}.cls-8{fill:#ffa06c;}.cls-10,.cls-9{fill:#bc5235;}.cls-9{opacity:0.49;}.cls-11{stroke:#5e2129;stroke-dasharray:5;opacity:0.33;}.cls-12{fill:#5e2129;}.cls-13,.cls-21{fill:#ffa082;}.cls-14,.cls-42{fill:#fc744f;}.cls-15{fill:#3a011f;}.cls-16{fill:#fff;}.cls-17{fill:#b04545;}.cls-19{fill:#ff8d3a;}.cls-20{stroke:#fff;}.cls-21,.cls-43{stroke:#fc744f;}.cls-21{stroke-width:1.5px;}.cls-23{fill:#00aa80;}.cls-24{stroke:#00664e;}.cls-25{fill:#007256;}.cls-26{stroke:#009772;}.cls-27{stroke:#007256;}.cls-28{fill:#025e46;}.cls-29{stroke:#029971;}.cls-30{fill:#ff9d45;}.cls-31{fill:#f2834c;}.cls-32{stroke:#015b43;}.cls-33{fill:#f9532d;}.cls-34{stroke:#0d342a;}.cls-35{fill:#3f0125;}.cls-36{fill:#007055;}.cls-37{fill:#0d342a;}.cls-38{fill:#c1593d;}.cls-39{stroke:#7a3436;}.cls-40,.cls-41{fill:#7a3436;}.cls-41{opacity:0.54;}.cls-42{opacity:0.36;}</style></defs><path class="cls-1" d="M436.64,232.09c-1-23.39-2.32-46.81-5.63-70q-.94-6.65-2.13-13.27-1.83-10.19-4.3-20.24c-2.65-10.65-5.14-22.06-10.66-31.6a15.23,15.23,0,0,0-7.4-9.47c-4.33-1.61-16.4-11.57-16.4-11.57a3.21,3.21,0,0,0-5,.58,7.46,7.46,0,0,0-.25,6.27c-5.58-3-10.67-6.14-10.67-6.14-2.38-1.53-5.38-.77-6.23,1.56a9.59,9.59,0,0,0,1.31,8.6c-3.6-1.88-6.26-3.38-6.26-3.38a4.87,4.87,0,0,0-6.86,2.17,10.42,10.42,0,0,0-.67,2.24c-.13-.14-.24-.29-.37-.43a20.07,20.07,0,0,0-27-1.53A17,17,0,0,0,326.37,111c.4.43.83.83,1.27,1.22a17.31,17.31,0,0,0,1.13,1.33,19.26,19.26,0,0,0,11,5.73L341.71,137a17.88,17.88,0,0,0,9.88,14l25,12.69-.08,0-.11-.09v.13h0l-.28,2.59-.77,7.29h0l-2.14,20.34a96.25,96.25,0,0,0-37.1-29.82s.73-.2-.6-.27c-1.9-.85-3.82-1.65-5.78-2.39,0-.75,0,0,0,0q-4.57-1.71-9.35-3l.19-3.44a3.44,3.44,0,0,0-3.44-3.62h-11.8a3.44,3.44,0,0,0-3.4,3q-6.18-1.05-12.41-1.69a29.21,29.21,0,0,0-.55-3.75c-.3-1.4-3-2.52-7.09-3.34V139c6.83-3.87,11.36-10.65,11.36-18.37V96.13h1.34A11.37,11.37,0,0,0,305.9,84.76h0a11.22,11.22,0,0,0-.42-3c23.27-5.9,38.6-16,38.6-27.37,0-13.32-20.9-24.8-50.94-30v-.15c0-.12,0-.24,0-.36,0-.3,0-.61,0-.91s0-.31,0-.47,0-.59-.06-.88,0-.28,0-.42c-.05-.44-.11-.87-.2-1.31l-.13-.73L292,6.31A6.65,6.65,0,0,0,282.67.59l-7,3.13-1.38,0H240.37c-.5,0-1,0-1.49.07l-.45,0c-.37,0-.73.09-1.09.15l-.69.13c-.31.06-.62.13-.92.21l-.81.22-.38.13a18.67,18.67,0,0,0-12.21,12.85h0c-.05.18-.09.35-.13.52-.11.45-.21.9-.28,1.35l-.15.9a.88.88,0,0,0,0,.16c-.05.3-.09.59-.12.89s-.06.63-.08.94a.28.28,0,0,1,0,.09,19.83,19.83,0,0,0,0,2c-29.92,5.18-50.72,16.63-50.72,29.92,0,11.22,14.81,21.13,37.42,27.06a11.22,11.22,0,0,0-.5,3.35h0a11.37,11.37,0,0,0,11.37,11.37h.68v19.7c0,9.31,5.4,17.49,13.55,22.23v7.7c-4.29.86-7.12,2-7.42,3.45-.21,1-.36,2.08-.47,3.14h-.1l0-.37c0,.12,0,.25,0,.37-4.43.39-8.84,1-13.22,1.75a3.44,3.44,0,0,0-3.35-2.72h-11a3.43,3.43,0,0,0-3.43,3.56l.11,3.14-.75.18.18-1.39c-.13.48-.25,1-.38,1.44-7.15,1.74-15.43,3.48-23.94,5.54a82.2,82.2,0,0,0-13,4.35h0a79,79,0,0,0-25.29,17.32h0c-.43.43-.84.88-1.26,1.32l0-.38c0,.13,0,.27,0,.41a74.52,74.52,0,0,0-19.8,43.3l-.08.76h0l-2,19.5h0l-.76,7.5,48.13,26.26.62,3.92-1.52,40.22A3.44,3.44,0,0,0,158,331.9l12.48.08c0,.26,0,.53-.05.8l.11-.8,186.36,1.13a3.28,3.28,0,0,0,1.4-.29h.56v-.32a3.44,3.44,0,0,0,1.49-2.95l-1.43-43c.85-.42,2.47-1.33,4.63-2.58l-.11,1c-3.25,29.23,28.85,49.95,53.62,34.08,7.54-4.83,13.72-12.81,16.79-25.51C438.62,273.78,437.52,252.2,436.64,232.09Zm-66-96.91-1.74.21a11.41,11.41,0,0,1-9.21-3,20.81,20.81,0,0,1-5.82-9.36l-1-3.4a7.84,7.84,0,0,0-.93-1.68,19.63,19.63,0,0,0,2.88-1.94,17.26,17.26,0,0,0,6.3-16.09l4.67,2.44c9.2,4,14,11.29,14.44,19.52C380.49,127.56,376.56,134,370.62,135.18Z"/><path class="cls-2" d="M405.09,259.48l-26.35-50.86c-12.32-23.79-34.6-41.39-61.26-48.39l-1-.27a194.74,194.74,0,0,0-49.4-6.38H237.23a160.78,160.78,0,0,0-39.72,5l-3.75,1c-7.73,2-17.07,3.89-26.7,6.22-32.36,7.84-56.12,34.38-59.37,66.32l-2.82,27.75L153,286.08l7.15,45.26,196.23,3.37.06-46.31C362.28,285.45,405.09,259.48,405.09,259.48Z"/><path class="cls-3" d="M127.53,188.34c-1.72,17.27-2.86,64.11-3.43,81.44"/><path class="cls-3" d="M141.56,277.65c.61-31.35,7.44-76.59,12.51-107.57"/><path class="cls-3" d="M153,286.08c6-38.26,13.11-81.36,19.12-119.62"/><path class="cls-3" d="M191.39,158.76C176.29,214,171.54,277.64,168,334.65"/><path class="cls-3" d="M205.44,158a968,968,0,0,0-17.85,175.15"/><path class="cls-3" d="M222.91,153.87Q212.59,242.64,209.54,332"/><path class="cls-3" d="M238.48,153.26a1718.61,1718.61,0,0,1-9,179.89"/><path class="cls-3" d="M260.44,152.65q1.5,89.37-3.95,178.69"/><path class="cls-3" d="M278.11,153.87q-1,89.06-2,178.11"/><path class="cls-3" d="M297.91,155.09,301.12,335"/><path class="cls-3" d="M315,158.09q1.67,87.24,1.58,174.5"/><path class="cls-3" d="M327.23,164c3.53,57.13,6,111.4,7.72,168.6"/><path class="cls-3" d="M341.58,170.34c3.57,55.14,6.94,107.09,10.52,162.23"/><path class="cls-3" d="M359.29,184.06q2,49.53,4,99"/><path class="cls-3" d="M374.23,202.17q.64,35.72,4.38,71.3"/><path class="cls-3" d="M390.21,227.5l4.8,39.28"/><path class="cls-3" d="M156,169.52c54.15-5.14,122.31-6.5,176.64-3.51"/><path class="cls-3" d="M128.76,187.4c31,3.13,84.53-2.4,115.59-4.24,36.48-2.16,76.77-1.57,113.32-1.38"/><path class="cls-3" d="M113.85,209.52c80.73-.92,181.82-1.85,262.54-2.77"/><path class="cls-3" d="M107.61,232.82c32.2-2.41,84.73-3.65,117-3.62,57.9.06,115.78-2.46,173.62-5"/><path class="cls-3" d="M105.63,252.32c93.43.37,204.43-2.71,297.86-3.31"/><path class="cls-3" d="M132.1,271.36c42.84-3.72,85.87,3,128.89,3.43,23.93.25,47.84-1.44,71.71-3.12l57.65-4.07"/><path class="cls-4" d="M287.1,157c0,16.79-14.38,30.4-32.12,30.4s-32.13-13.61-32.13-30.4a28.76,28.76,0,0,1,.61-5.91c1.44-6.93,61.48-7.2,63-.22A28.85,28.85,0,0,1,287.1,157Z"/><path class="cls-4" d="M353.48,235.31l-36.6-29.43A3.45,3.45,0,0,1,315.6,203L318,156.89a3.44,3.44,0,0,0-3.43-3.62h-11.8a3.44,3.44,0,0,0-3.44,3.25L297,200.17a3.43,3.43,0,0,1-3.43,3.25H216.32a3.43,3.43,0,0,1-3.42-3.19l-3.18-43.77a3.43,3.43,0,0,0-3.42-3.19h-11a3.44,3.44,0,0,0-3.44,3.55l1.64,47.77a3.45,3.45,0,0,1-1.3,2.82l-35.29,27.9a3.46,3.46,0,0,0-1.31,2.57l-3.48,92.33a3.44,3.44,0,0,0,3.41,3.57L354.41,335a3.44,3.44,0,0,0,3.46-3.55l-3.11-93.57A3.41,3.41,0,0,0,353.48,235.31Z"/><path class="cls-5" d="M217.06,213.21h75.78A3.36,3.36,0,0,0,296.2,210l.47-8.56a3.44,3.44,0,0,1-3.1,1.95H216.32A3.43,3.43,0,0,1,213,201l.66,9.13A3.36,3.36,0,0,0,217.06,213.21Z"/><circle class="cls-6" cx="204.14" cy="221.68" r="3.69"/><circle class="cls-6" cx="308.01" cy="221.68" r="3.69"/><path class="cls-7" d="M228,236.1h54.38a4,4,0,0,1,4,4v26.36a8.28,8.28,0,0,1-8.28,8.28H232.83a8.78,8.78,0,0,1-8.78-8.78V240.07A4,4,0,0,1,228,236.1Z"/><path class="cls-7" d="M209.66,194.18H194.22a4.09,4.09,0,0,1-4.07-4.07h0a4.09,4.09,0,0,1,4.07-4.07h15.44a4.08,4.08,0,0,1,4.07,4.07h0A4.08,4.08,0,0,1,209.66,194.18Z"/><path class="cls-7" d="M315.73,194.18H300.3a4.09,4.09,0,0,1-4.08-4.07h0A4.09,4.09,0,0,1,300.3,186h15.43a4.08,4.08,0,0,1,4.07,4.07h0A4.08,4.08,0,0,1,315.73,194.18Z"/><path class="cls-8" d="M290.56,27.4a18.45,18.45,0,0,0-.19-5.63l-.14-.74-.67-12.84a6.66,6.66,0,0,0-9.37-5.73L273,5.67c-.4,0-.8,0-1.21,0H237.9a18.7,18.7,0,0,0-18.46,15.67l-.15.9a18.71,18.71,0,0,0,18.46,21.73H272a18.7,18.7,0,0,0,18.45-15.65l.18.22Z"/><path class="cls-9" d="M272,9.81c2.32,0,4.52-1.08,6.55-2.18a1,1,0,0,0-.25-1.81,33.56,33.56,0,0,0-6.47-.2H237.9a18.69,18.69,0,0,0-8.67,2.14,18.51,18.51,0,0,0,8.52,2.05Z"/><path class="cls-4" d="M219.29,22.19a19.07,19.07,0,0,0-.22,4.11,219.75,219.75,0,0,1,71.59,0,19.1,19.1,0,0,0-.29-4.5l-.17-.9a14.67,14.67,0,0,0-.35-1.49,220.15,220.15,0,0,0-70,0,18.8,18.8,0,0,0-.41,1.87Z"/><ellipse class="cls-10" cx="254.98" cy="56.23" rx="86.63" ry="32.87"/><ellipse class="cls-11" cx="254.98" cy="56.72" rx="77.91" ry="29.57"/><ellipse class="cls-12" cx="254.98" cy="58.69" rx="52.45" ry="19.9"/><path class="cls-13" d="M255.12,179.33h0a24.32,24.32,0,0,0,24.24-24.25V115a24.31,24.31,0,0,0-24.24-24.24h0A24.31,24.31,0,0,0,230.88,115v40.08A24.31,24.31,0,0,0,255.12,179.33Z"/><path class="cls-13" d="M216.64,98h75.41a11.37,11.37,0,0,0,11.37-11.37h0a11.37,11.37,0,0,0-11.37-11.37H216.64a11.37,11.37,0,0,0-11.37,11.37h0A11.37,11.37,0,0,0,216.64,98Z"/><circle class="cls-14" cx="254.98" cy="135.04" r="21.6" transform="translate(80.83 365.09) rotate(-80.78)"/><path class="cls-15" d="M290,47.49a7.51,7.51,0,0,0-4.43-4.07,103.3,103.3,0,0,0-61.16,0A7.5,7.5,0,0,0,220,47.49a41,41,0,0,0-3.45,16.66V75.37a7.56,7.56,0,0,0,4.83,7c9.1,3.59,20.83,5.75,33.64,5.75s24.53-2.16,33.64-5.75a7.57,7.57,0,0,0,4.82-7V64.15A41,41,0,0,0,290,47.49Z"/><path class="cls-13" d="M284.16,54.47a20.27,20.27,0,0,1-29-3.55H253.4a20.82,20.82,0,0,1-14,6.84,20.51,20.51,0,0,1-12-2.84,13.18,13.18,0,0,1-5.9,2.41,17.85,17.85,0,0,0-.78,5.21v51.23a17.76,17.76,0,0,0,17.76,17.76h32.91a17.76,17.76,0,0,0,17.76-17.76V63.92C284.93,62.13,283.93,58.24,284.16,54.47Z"/><path class="cls-15" d="M284.65,92.51c-1.27,3.95-5.35,6.66-10,6.64l-4.77,0A8,8,0,0,0,263,95.06H245.77A8,8,0,0,0,238.92,99h-.39A10.65,10.65,0,0,1,229,94.06L217.36,74.33l0,16.64h0v26.74c0,14.66,13.36,26.54,29.85,26.54h19c13.53,0,24.49-9.75,24.49-21.78V73.75Z"/><path class="cls-16" d="M258.22,104.75a63.91,63.91,0,0,1-13.94-1.38c-6.58-1.56-6.21,8.4,3.59,11.18S263.74,105.75,258.22,104.75Z"/><polygon class="cls-17" points="254.96 68.61 254.99 68.66 254.99 68.13 254.96 68.61"/><ellipse class="cls-18" cx="340.67" cy="103.64" rx="19.11" ry="17.82" transform="translate(-4.21 15.02) rotate(-2.51)"/><path class="cls-19" d="M352.65,89.27a17,17,0,0,1-1.8,25.16,20.08,20.08,0,0,1-27-1.52,17,17,0,0,1,1.8-25.16A20.07,20.07,0,0,1,352.65,89.27Z"/><path class="cls-20" d="M352.52,95.19c3.62,6.83.6,15.13-6.74,18.54s-16.21.65-19.83-6.18S325.36,92.43,332.7,89,348.91,88.37,352.52,95.19Z"/><path class="cls-16" d="M339.33,107.88a10.6,10.6,0,0,1-2.68-.18,9.39,9.39,0,0,1-2.15-.68,1,1,0,0,1-.59-.75.87.87,0,0,1,.19-.71,1,1,0,0,1,.7-.39,1.51,1.51,0,0,1,.74.1,11.58,11.58,0,0,0,2,.57,6.69,6.69,0,0,0,2.2,0q.45-.06.84-.15a5.65,5.65,0,0,0,.76-.26,3,3,0,0,0,.64-.36,2.89,2.89,0,0,0,.47-.45,1.43,1.43,0,0,0,.27-.57,1.9,1.9,0,0,0,0-.68,1.45,1.45,0,0,0-.68-1,4.37,4.37,0,0,0-1.74-.49l-2.46-.25-1.21-.15c-.32,0-.66-.11-1-.19a6.53,6.53,0,0,1-.91-.26,4.17,4.17,0,0,1-.72-.38,2,2,0,0,1-.59-.54,3.07,3.07,0,0,1-.4-.72,4.49,4.49,0,0,1-.25-1,3.43,3.43,0,0,1,0-1,2.9,2.9,0,0,1,.25-.85,3.64,3.64,0,0,1,1.17-1.36,5.24,5.24,0,0,1,.87-.51,9.41,9.41,0,0,1,1-.4,11.56,11.56,0,0,1,1.16-.29l-.4-2.75a.78.78,0,0,1,.18-.68.9.9,0,0,1,.61-.31,1,1,0,0,1,.69.15.78.78,0,0,1,.38.6l.4,2.77a10.75,10.75,0,0,1,1.5,0,10.54,10.54,0,0,1,1.23.2c.33.08.64.16.95.26a1,1,0,0,1,.82.85.62.62,0,0,1,0,.27.74.74,0,0,1-.1.26,1.12,1.12,0,0,1-.16.22.92.92,0,0,1-.25.17,1.68,1.68,0,0,1-.32.09h-.35l-.19,0-.39-.08-.54-.11-.59-.09-.72-.07c-.2,0-.44,0-.73,0a7.37,7.37,0,0,0-.82,0,6.66,6.66,0,0,0-1.46.35,2.45,2.45,0,0,0-1,.67,1.37,1.37,0,0,0,.3,2,5.68,5.68,0,0,0,1.89.39l2.41.24a7.41,7.41,0,0,1,3.48,1,3.28,3.28,0,0,1,1.36,2.34,3.5,3.5,0,0,1-.89,3.05,6.33,6.33,0,0,1-3.3,1.7l.39,2.71a.78.78,0,0,1-.2.68,1,1,0,0,1-.64.32,1,1,0,0,1-.45,0,.84.84,0,0,1-.38-.25.81.81,0,0,1-.2-.46Z"/><path class="cls-13" d="M426.4,150.69q-1.81-10.19-4.3-20.24c-2.65-10.65-5.13-22.07-10.66-31.61a15.19,15.19,0,0,0-7.39-9.46c-4.34-1.62-16.4-11.58-16.4-11.58a3.22,3.22,0,0,0-5,.58,7.56,7.56,0,0,0-.25,6.28c-5.57-3-10.67-6.15-10.67-6.15-2.37-1.52-5.38-.77-6.22,1.57a9.57,9.57,0,0,0,1.31,8.59c-3.61-1.88-6.27-3.37-6.27-3.37a4.86,4.86,0,0,0-6.85,2.17,9.82,9.82,0,0,0,4.59,12.76l5.94,3.1c9.2,4,14,11.29,14.44,19.52.3,5.65-3.64,12.1-9.58,13.27l-1.74.21a11.42,11.42,0,0,1-9.21-3,21,21,0,0,1-5.82-9.36l-1-3.4a9,9,0,0,0-10.78-5.06,4.32,4.32,0,0,0-3.34,4.53l2.05,18.78a17.91,17.91,0,0,0,9.88,14l25,12.69-.21.06-9.35,88.91L361,286.81c-3.25,29.24,28.85,50,53.62,34.09,7.54-4.83,13.72-12.81,16.79-25.51,4.78-19.73,3.68-41.31,2.81-61.42-1-23.39-2.33-46.82-5.64-70C427.9,159.52,427.2,155.1,426.4,150.69Z"/><path class="cls-21" d="M365.17,90.33l-1.5,1.39a2.82,2.82,0,0,1-3.52.25c-1.37-1-2.8-2.66-2-5"/><path class="cls-21" d="M377,83.36l-1.5,1.39A2.82,2.82,0,0,1,372,85c-1.38-1-2.8-2.65-2-5"/><path class="cls-21" d="M390,81.6l-1.2.68a1.85,1.85,0,0,1-2.3-.38,2.88,2.88,0,0,1-.4-3.58"/><path class="cls-21" d="M382.28,84.59c4.67,2.56,9.71,5.07,12.36,5.67h0a19.77,19.77,0,0,1,11.14,10.61"/><path class="cls-21" d="M366.86,88.62s11.27,6.57,17.41,7.52h0a17.1,17.1,0,0,1,11.1,10.53l3,8.7"/><path class="cls-21" d="M339.15,129.75l2.52-.65a3.18,3.18,0,0,0,2.44-3.47c-.3-2.06-1.34-4.6-4.54-5.29"/><path class="cls-14" d="M373.91,165.46a18.63,18.63,0,0,0,19.88,2s-6.93,12.86-20.94,8Z"/><g class="cls-22"><path class="cls-18" d="M270.31,188.07a7.84,7.84,0,0,0-2.23-2.18,6.22,6.22,0,0,0-4.44-.29,16.83,16.83,0,0,0-10,7.59,29.71,29.71,0,0,0-4,12.12l-2.07,8.11a136.52,136.52,0,0,0-10.12,12.38s0-.06,0-.09v0a13.18,13.18,0,0,0-.47-1.68,14.42,14.42,0,0,0-3.16-5.37c.09-.43.19-.85.26-1.28.92-5.06,1.25-10.32,2.11-15.39l7.4-11.11c1.12-1.68,2.28-3.75,1.5-5.61s-3.26-2.49-5.11-1.75A7.73,7.73,0,0,0,236,187.9a15.27,15.27,0,0,0-.4,11l.19,1.2L229.23,216l-.58-.14a6.14,6.14,0,0,0-2.84-3.23,10.12,10.12,0,0,0,.57-1.58s-7.26.79-7.74,3.88a10.62,10.62,0,0,0-.74-.88,55.68,55.68,0,0,0,6.38-8c1.8-3,2.47-8.26,2-11.72a4.56,4.56,0,0,0-1.35-2.88,4.17,4.17,0,0,0-5,.09,9.45,9.45,0,0,0-3,4.41c-1.07,2.75-2,9.75-2.57,15.45a10.25,10.25,0,0,0-1.17-.49q-1-8.88-2.83-17.64a36.87,36.87,0,0,0,1.87-6.55c.74-2.88,1.48-5.9.84-8.8s-3.11-5.65-6.09-5.52c-3.29.15-5.55,3.74-5.48,7,.07,3.58,3,10.84,6.47,13.7l.12,19.63a9.57,9.57,0,0,0-1.75.16,10.23,10.23,0,0,0-2.16-2.8,4.48,4.48,0,0,0-4.38-1,5.33,5.33,0,0,0-2.3,2.09,34.2,34.2,0,0,0-3-2.46c6-3.41,7.45-7.82,7.45-7.82a21.6,21.6,0,0,0-13.91,5.42c-.38-3.82-11.76-5.05-11.76-5.05a9.6,9.6,0,0,0,1.68,3.6l-.87-.25c-4.48-3.44-9.92-3.5-14.33-2.65l-.43-.1,7.85-2.48a13,13,0,0,0,3.83-1.69,4.34,4.34,0,0,0,1.94-3.54,2.85,2.85,0,0,0-.9-1.92l3.48-2.46a4.07,4.07,0,0,1-.24-.91c-1.27.17-2.56.29-3.84.44a20.42,20.42,0,0,0,2.65-2.61,4.73,4.73,0,0,0,1.16-2,2,2,0,0,0-.65-2.09,2.64,2.64,0,0,0-2.14-.18,10.18,10.18,0,0,0-4.7,2.58,11.21,11.21,0,0,0,2.46-5.09c.39-2,0-4.56-1.93-5.42s-4.24.58-5.56,2.31a13.54,13.54,0,0,0-2.66,8.73,4.06,4.06,0,0,0-.31-.95,2.09,2.09,0,0,0-2.05-1.23,2.52,2.52,0,0,0-1.34.84l0,.05a15.75,15.75,0,0,0,1-2.29,11.89,11.89,0,0,0-.18-8.23l-2.67,13.59.15-.26a10.8,10.8,0,0,0-.32,1.11l.17-.85q-.51.84-1,1.71a22.53,22.53,0,0,0-1.52,3.95,2.35,2.35,0,0,0-1.53.37,4,4,0,0,0-1.39,3.79,6.46,6.46,0,0,0,1.75,3.64c0,.87-.08,1.75-.1,2.62-.91-2-2.78-5.15-5.56-5.6a22.34,22.34,0,0,0-4.87-3.06l1.24-1c3.08-2.18,6.48-4.92,6.58-8.7a2.35,2.35,0,0,0-.41-1.56,2,2,0,0,0-1.53-.64,4.18,4.18,0,0,0-3.31,2,12.31,12.31,0,0,0-1.44,3.74c-.43,1.66-.87,3.32-1.3,5l-.1-10.17q1.9-4.41,3.82-8.83a19.69,19.69,0,0,0,1.68-5.19,6.48,6.48,0,0,0-1.34-5.14c-1.3-1.46-3.33-2-5.25-2.35a5.21,5.21,0,0,0-2.15-.08,4.32,4.32,0,0,0-2.42,1.9,11.66,11.66,0,0,0-1.63,8.5,20.75,20.75,0,0,0,3.54,8.08l2.68,5.11q-.06,4.49.31,9a15.42,15.42,0,0,0-5.6-1c-1.83-2.89-4-5.65-5.81-8.54q-.67-4.56-1.33-9.11c-.2-1.38-.56-3-1.82-3.58a2.76,2.76,0,0,0-3.43,1.46,5.35,5.35,0,0,0,0,4c.12.35.26.68.41,1a4.65,4.65,0,0,1-1-1.34c-.57-1.25-.3-2.7-.19-4.07a17.58,17.58,0,0,0-4.86-13.5,19.09,19.09,0,0,0-17.79-4.91c-4,.95-7.88,3.32-9.81,7s-1.67,7.72-.63,11.66a13.72,13.72,0,0,0-2.67-1.53l-.48-.2c-.19-.09-.36-.19-.55-.27-.62-.27-1.27-.49-1.89-.75a5.41,5.41,0,0,1-1.45-1.06c-1.21-1.28-1.5-3.15-1.93-4.86A22.58,22.58,0,0,0,70,150.36c-.47-.24-1-.46-1.44-.67a24.58,24.58,0,0,0-23.26,1.64c-4.5,2.84-8.2,7.32-9,12.57-1,6.45,2.42,12.77,6.58,17.78,2.72,3.28,5.82,6.27,8.57,9.51a6,6,0,0,1-2.34-.37c-1.72-.67-2.82-2.32-4-3.74a23.64,23.64,0,0,0-17.3-8.52c-8.64-.26-17.11,4.59-21.78,11.87C3,195.11,1.5,201,3.06,206.33c1.92,6.54,8,11,14.12,13.92s12.87,4.76,18.5,8.59c2.61,1.77,5.06,4,7.55,6v17.63a12.61,12.61,0,0,0-1.69.61c-8.2,3.52-29.83,18.12-29.87,18.15C3.73,276.65,1.23,287,.13,296.2-.8,304,3.4,314,9.44,319.06c9,7.53,17.09,4.43,27.08.84,2.18-.78,4.43-1.44,6.71-2.08v14.47h-.44v2.12H250.57v-2.12h-.42V307.44h.42V304.9h-.42V292.7h.42v-5.18h-.42V274.1h.42v-5.19h-.42v-12.2h.42v-2.54h-.42V233.43h.42v-2.12h-.42v0H237.64c0-.05,0-.1,0-.14q0-.3.06-.6c0-.18,0-.36,0-.54s0-.4,0-.6,0-.36,0-.54,0-.39,0-.59l0-.54c0-.2,0-.39-.07-.59a.28.28,0,0,0,0-.09l1.78-2,.46-.18,2.36.08c5.44.63,11.76,1,15.52-3a3.38,3.38,0,0,0,1.08-2.07,2.86,2.86,0,0,0-1-2.17,6,6,0,0,0-5.51-1,17.75,17.75,0,0,0-5.18,2.64l-6.22,4.09,9.75-11.06,12.68-5.82a28.07,28.07,0,0,0,6.84-4,9.44,9.44,0,0,0,3.53-6.84C273.71,192.85,272,190.31,270.31,188.07Zm-140.43-4.13,3.16,9c-.95-.26-1.92-.47-2.92-.64a15.75,15.75,0,0,0-1.32-9.15l.43.27ZM97.77,197c0,.52.11,1,.17,1.55A5.72,5.72,0,0,1,97.77,197Zm47,88.27a25.52,25.52,0,0,0,1.67,2.24H144.1A18.71,18.71,0,0,0,144.78,285.28Zm40.36,2.24a44.17,44.17,0,0,0,3.71-4c.28-.35.55-.71.82-1.06v5.09Zm-30.65-82.8c-.05-.08-.14-.22-.27-.4l.41-2.08.43,1C154.85,203.73,154.66,204.22,154.49,204.72ZM43.23,265.3V267l-1.22.15C42.42,266.53,42.83,265.92,43.23,265.3Zm114-76.12a29.14,29.14,0,0,0-.23,5.28,1.71,1.71,0,0,0-.62-1Z"/><path class="cls-18" d="M178.57,189.79a3.22,3.22,0,0,0,.73,1.14,5.61,5.61,0,0,0,3.64,1.32,14.64,14.64,0,0,0,7.37-1.23,12.27,12.27,0,0,0,6.29-14l-8.86,6.25a2.57,2.57,0,0,0-2-2,4.68,4.68,0,0,0-3.1.55,8.34,8.34,0,0,0-3.63,3.57,6,6,0,0,0-.67,3.49c.67-.09,1.33-.19,2-.32Z"/></g><path class="cls-23" d="M133.1,183.42a10.64,10.64,0,0,1-4.86-5.83,5.35,5.35,0,0,1,0-4,2.76,2.76,0,0,1,3.43-1.46c1.26.6,1.62,2.2,1.82,3.58q.66,4.56,1.33,9.12"/><path class="cls-23" d="M142.82,202.93c-3.73-.61-8-1.57-9.74-4.92a2.29,2.29,0,0,1-.32-1.58,2,2,0,0,1,1.1-1.25,4.14,4.14,0,0,1,3.85.35,12.09,12.09,0,0,1,2.94,2.73l4.54,5.25"/><path class="cls-23" d="M143.25,180.26a20.61,20.61,0,0,1-3.54-8.08,11.66,11.66,0,0,1,1.63-8.5,4.32,4.32,0,0,1,2.42-1.9,5.16,5.16,0,0,1,2.14.08c1.93.36,4,.89,5.26,2.35a6.48,6.48,0,0,1,1.34,5.14,19.69,19.69,0,0,1-1.68,5.19q-2.4,5.52-4.78,11"/><path class="cls-24" d="M131.3,176.94c1.46,6.29,6.15,11.23,9.54,16.72,7.23,11.68,8.35,24,9.57,37.64"/><path class="cls-24" d="M139.17,199.26a32.37,32.37,0,0,1,6.66,5.16"/><path class="cls-23" d="M148.51,193.72c3.08-2.18,6.48-4.92,6.58-8.7a2.35,2.35,0,0,0-.41-1.56,2,2,0,0,0-1.53-.64,4.16,4.16,0,0,0-3.31,2,12.31,12.31,0,0,0-1.44,3.74l-1.77,6.72"/><path class="cls-24" d="M150.17,188.82a32.44,32.44,0,0,0-3.71,7.57"/><path class="cls-24" d="M147.24,209.28a51.73,51.73,0,0,0,0-7.26,93.87,93.87,0,0,1-.3-29.17"/><path class="cls-25" d="M115.34,216.72a18.35,18.35,0,0,0-8.7-13.43c-2.24-1.33-5-2.45-5.79-4.93a9.13,9.13,0,0,1-.08-3.72c1-9-1.78-19.65-10.1-23.22-1.52-.65-3.23-1.08-4.37-2.28s-1.5-3.15-1.93-4.86a22.63,22.63,0,0,0-11.54-14.4c-7.38-3.73-16.68-3-23.68,1.45-4.49,2.84-8.19,7.32-9,12.57-1,6.45,2.42,12.77,6.58,17.78S56,191,59.27,196.63c4,6.75,5.86,15.62,12.83,19.23,4.92,2.55,11.34,1.71,15.64,5.2,4,3.24,5.1,9.43,9.65,11.82,3.36,1.75,7.64.74,10.64-1.57S116,222.21,115.34,216.72Z"/><path class="cls-25" d="M116.37,217.19a18.37,18.37,0,0,0-8.7-13.43c-2.23-1.33-5-2.45-5.79-4.93a9.13,9.13,0,0,1-.08-3.72c1-9-1.78-19.65-10.1-23.22-1.52-.65-3.23-1.07-4.37-2.28s-1.5-3.15-1.93-4.86a22.62,22.62,0,0,0-11.54-14.39c-7.38-3.74-16.68-3-23.68,1.44-4.49,2.84-8.19,7.32-9,12.58-1,6.44,2.42,12.76,6.58,17.77S57,191.5,60.31,197.1c4,6.75,5.85,15.62,12.82,19.23,4.92,2.55,11.34,1.72,15.64,5.2,4,3.24,5.1,9.43,9.66,11.82,3.35,1.75,7.63.74,10.63-1.56S117,222.68,116.37,217.19Z"/><path class="cls-26" d="M101.89,260.26c6.09-5.44,8.5-14.15,7.79-22.28s-4.21-15.76-8.37-22.78a119.31,119.31,0,0,0-39.66-40.41"/><path class="cls-26" d="M84.85,194.6a12.87,12.87,0,0,1-15.12-2.66"/><path class="cls-26" d="M78.48,186.59a6.75,6.75,0,0,0,2.74-7.21A10.64,10.64,0,0,0,76.31,173"/><path class="cls-26" d="M93.72,205.26a12,12,0,0,1-14.19,2"/><path class="cls-26" d="M89.87,197.58a7,7,0,0,0,1-7.42"/><path class="cls-23" d="M101.55,223a19.19,19.19,0,0,0-14.19-8.86c-2.71-.27-5.82-.1-7.67-2.1A9.43,9.43,0,0,1,78,208.55c-3.1-8.94-10.41-17.82-19.86-17.51-1.73.06-3.54.42-5.15-.22s-2.82-2.32-4-3.74a23.64,23.64,0,0,0-17.3-8.52c-8.64-.26-17.11,4.59-21.78,11.87-3,4.68-4.52,10.57-2.95,15.9,1.92,6.54,8,11,14.12,13.92s12.87,4.76,18.5,8.59C46.34,233.45,52,241,60.23,241.36c5.79.23,11.49-3.41,17.12-2,5.21,1.29,9,6.67,14.37,6.91,4,.18,7.56-2.68,9.38-6.19S104.58,227.92,101.55,223Z"/><path class="cls-27" d="M106.94,270.19c3.35-7.84,1.77-17.16-2.51-24.54s-11-13.06-18-17.86a124.63,124.63,0,0,0-55.47-20.67"/><path class="cls-27" d="M61.69,215.59a13.47,13.47,0,0,1-15.49,4.18"/><path class="cls-27" d="M52.11,210.83a7,7,0,0,0-.61-8A11.06,11.06,0,0,0,44,198.94"/><path class="cls-27" d="M74.81,221.74a12.57,12.57,0,0,1-12.57,8.14"/><path class="cls-27" d="M67.77,216.18a7.36,7.36,0,0,0-2.32-7.49"/><path class="cls-28" d="M137,219.61a14.27,14.27,0,0,0-3-12.08c-1.31-1.54-3.07-3.07-3-5.09a7.09,7.09,0,0,1,.88-2.76c3-6.39,3.65-14.92-1.57-19.64a9.59,9.59,0,0,1-2.65-2.78c-.57-1.25-.3-2.7-.19-4.07a17.58,17.58,0,0,0-4.86-13.5,19.09,19.09,0,0,0-17.79-4.91c-4,.95-7.89,3.32-9.81,7-2.35,4.49-1.44,10,.36,14.75s4.43,9.2,5.47,14.17c1.24,6,.37,13,4.58,17.38,3,3.12,7.92,4.13,10.21,7.78,2.12,3.39,1.37,8.23,4.12,11.13,2,2.14,5.43,2.48,8.22,1.53S136.1,223.81,137,219.61Z"/><path class="cls-29" d="M115.5,247.65c5.85-2.46,9.83-8.27,11.35-14.43s.88-12.66-.41-18.87a92.74,92.74,0,0,0-19-39.76"/><path class="cls-29" d="M119.52,195a10,10,0,0,1-10.45-5.77"/><path class="cls-29" d="M116.85,187.53a5.26,5.26,0,0,0,3.84-4.62,8.26,8.26,0,0,0-2-5.92"/><path class="cls-29" d="M123.36,205.11A9.35,9.35,0,0,1,112.43,203"/><path class="cls-29" d="M122.47,198.49a5.47,5.47,0,0,0,2.63-5.2"/><path class="cls-23" d="M215.68,224.26q-2.22-5.3-4.91-10.37a12.43,12.43,0,0,0-2.71-3.81,4.48,4.48,0,0,0-4.38-1,5.33,5.33,0,0,0-2.34,2.15c-1.47,2.22-2.23,5.17-1,7.54,1.32,2.61,4.45,3.63,7.27,4.41l9.06,2.51"/><path class="cls-23" d="M205.38,179.39c-.08-3.29,2.19-6.88,5.48-7,3-.13,5.46,2.61,6.09,5.52s-.1,5.92-.84,8.8c-.64,2.52-1.06,5.39-2.38,7.5C209.53,193,205.47,183.61,205.38,179.39Z"/><path class="cls-23" d="M217.48,219.69c3.15-5.22,7.52-8.46,10.67-13.68,1.81-3,2.48-8.26,2-11.72a4.56,4.56,0,0,0-1.35-2.88,4.17,4.17,0,0,0-5,.09,9.45,9.45,0,0,0-3,4.41C218.88,200.87,217.48,219.69,217.48,219.69Z"/><path class="cls-24" d="M211.79,183a189.13,189.13,0,0,1,.58,96"/><path class="cls-24" d="M224.29,201.75a30.34,30.34,0,0,1-6.33,13.9"/><path class="cls-24" d="M206.74,216.74c2.36,3.9,9.51,5.65,11.19,9.88"/><path class="cls-23" d="M239.52,198.89a15.27,15.27,0,0,1,.4-11,7.73,7.73,0,0,1,3.91-4.33c1.85-.74,4.34-.1,5.11,1.75s-.38,3.93-1.51,5.61q-3.69,5.56-7.4,11.12"/><path class="cls-23" d="M231.09,229.33c-3.44-4.27-7.09-9.43-5.74-14.74a3.46,3.46,0,0,1,1.19-2,2.89,2.89,0,0,1,2.39-.27,6,6,0,0,1,3.82,4.1,17.87,17.87,0,0,1,.52,5.79c-.07,3.36-.13,6.71-.2,10.07"/><path class="cls-23" d="M253.51,205.31a29.85,29.85,0,0,1,4-12.12,16.89,16.89,0,0,1,10-7.59,6.3,6.3,0,0,1,4.45.29,7.84,7.84,0,0,1,2.23,2.18c1.72,2.24,3.4,4.78,3.39,7.61a9.48,9.48,0,0,1-3.53,6.84,27.94,27.94,0,0,1-6.85,4l-15.85,7.28"/><path class="cls-24" d="M243.84,190.17c-4.51,8.19-4.25,18.05-5.91,27.26-3.53,19.59-14.2,33.91-26.15,49.83"/><path class="cls-24" d="M230.71,221.84a47.24,47.24,0,0,1,2.17,12"/><path class="cls-23" d="M246.13,224.92c5.44.63,11.76,1,15.52-3a3.38,3.38,0,0,0,1.08-2.07,2.86,2.86,0,0,0-1-2.17,6,6,0,0,0-5.51-1,17.75,17.75,0,0,0-5.18,2.64l-8.41,5.53"/><path class="cls-24" d="M252.67,221.25a47,47,0,0,0-11.33,4.57"/><path class="cls-24" d="M229.7,240.45a73.28,73.28,0,0,0,7-7.86,136.45,136.45,0,0,1,27.94-31.73"/><path class="cls-19" d="M201.1,226.52c-9-33.18-44.21-21-44.21-21s-24.57-28.08-48.79-3.7c-20.91,21-8.13,65.29,29.71,75.68C175.83,287.26,208.84,255.17,201.1,226.52Z"/><path class="cls-30" d="M189.13,222.19c-4.14-31.9-30.7-17.37-30.7-17.37s-15.87-25.78-35.27-.11c-16.75,22.15-10.62,64.62,16.19,72.09C166.35,283.59,192.71,249.73,189.13,222.19Z"/><path class="cls-19" d="M171.14,221.18c3-30-12.8-16.18-12.8-16.18s-6.64-20.35-18.9,7.21c-10.58,23.78-10.68,61.62-.18,64.77C149.94,279.45,168.55,247.09,171.14,221.18Z"/><path class="cls-31" d="M201.9,230.42c-.75,25.66-30.6,50.09-64.41,41.45-23.36-6.42-37.16-25.73-39.39-44.52-.16,20.43,14,43.14,39.71,50.2C174.11,286.83,205.85,258,201.9,230.42Z"/><path class="cls-25" d="M158,201a6.53,6.53,0,0,1-1.94-3.87,4,4,0,0,1,1.39-3.79c1.17-.8,3.14-.3,3.42,1.09-.09-3.61,0-7.62,2.44-10.24a2.53,2.53,0,0,1,1.33-.84,2.09,2.09,0,0,1,2.06,1.23,6.1,6.1,0,0,1,.47,2.51,13.47,13.47,0,0,1,2.5-10.29c1.31-1.73,3.59-3.22,5.56-2.31s2.32,3.39,1.93,5.42a11.21,11.21,0,0,1-2.46,5.09,10.2,10.2,0,0,1,4.69-2.58,2.66,2.66,0,0,1,2.15.18,2,2,0,0,1,.65,2.09,5,5,0,0,1-1.16,2,20.52,20.52,0,0,1-6.05,4.87,3.38,3.38,0,0,1,4.9,2.59,4.37,4.37,0,0,1-1.94,3.54,13,13,0,0,1-3.83,1.69l-14.8,4.68"/><path class="cls-32" d="M157.65,207.31a23,23,0,0,1,17.47-17.5c5.12-1.06,11-.47,15-3.77a3.37,3.37,0,0,0,1.49-2.58,2.55,2.55,0,0,0-2-2.19,4.68,4.68,0,0,0-3.1.55,8.34,8.34,0,0,0-3.63,3.57c-.92,1.75-1.1,4.13.3,5.54a5.59,5.59,0,0,0,3.64,1.32,14.61,14.61,0,0,0,7.36-1.23,12.28,12.28,0,0,0,6.3-14"/><path class="cls-32" d="M157.66,206.59c0-6,.13-12.21,2.83-17.54,1.21-2.39,2.93-4.54,3.81-7.07a11.89,11.89,0,0,0-.18-8.23"/><path class="cls-33" d="M134.1,217.43c-8.7-10.16-18.11.33-18.11.33s-12.93-5.62-16.62,7.24c-3.18,11.1,8.69,24.5,22.89,21.55C136.39,243.33,141.62,226.2,134.1,217.43Z"/><path class="cls-18" d="M135,218.67c4.22,9.2-1.31,23.06-13.88,25.93a19.78,19.78,0,0,1-20.63-8.85,19.85,19.85,0,0,0,21.73,10.8C135.75,243.47,141.13,227.72,135,218.67Z"/><path class="cls-25" d="M115.37,215.65a10.76,10.76,0,0,0-8.75-1.17,10.77,10.77,0,0,0,5.74,4.14,21.56,21.56,0,0,0-2.12,5.81,8.2,8.2,0,0,0,7.35-4.57s4.48,3.21,8.28.24c0,0-3.54-5-7.1-3.76a8.66,8.66,0,0,0,1.94-6.58S114.76,212.85,115.37,215.65Z"/><path class="cls-32" d="M117.6,217.19c.09.39-.59.86-1.51,1.06s-1.73.05-1.81-.33.59-.86,1.51-1.06S117.52,216.81,117.6,217.19Z"/><path class="cls-33" d="M240.83,224.08c-4.84-13.74-18.52-6.79-18.52-6.79s-10.91-10.8-19.72.8c-7.61,10-.82,28.3,14.75,30.89C233,251.28,245,236,240.83,224.08Z"/><path class="cls-18" d="M241.3,225.71c.66,11-10.41,22.9-24.3,20.86a21.56,21.56,0,0,1-17.47-17.1A21.59,21.59,0,0,0,217.34,249C232.26,251.17,243.91,237.29,241.3,225.71Z"/><path class="cls-25" d="M222.52,214.9a11.71,11.71,0,0,0-8.43-4.63,11.75,11.75,0,0,0,4.2,6.46,23,23,0,0,0-4.44,5.07,8.93,8.93,0,0,0,9.26-1.75s3.29,5,8.32,3.5c0,0-1.65-6.44-5.74-6.61a9.47,9.47,0,0,0,4.57-5.92S223,211.81,222.52,214.9Z"/><path class="cls-34" d="M224.17,217.35c-.06.42-.94.63-1.95.47s-1.77-.63-1.71-1,.94-.63,2-.47S224.24,216.93,224.17,217.35Z"/><circle class="cls-33" cx="132.7" cy="281.69" r="16.37"/><path class="cls-35" d="M144.36,271a23.56,23.56,0,0,1,6.21-16,32.63,32.63,0,0,1,10.36-6.88,29.75,29.75,0,0,0,9-5.86,31.11,31.11,0,0,0,8.85-18c.09-.61.15-1.23.2-1.85a17.54,17.54,0,0,1,8.47-13.14c6.33-3.51,12.33,1,16,6a29.24,29.24,0,0,1,4.65,9.73c1.77,6.53,1.56,13.48.53,20.2a87.84,87.84,0,0,1-9.93,29.15,53.44,53.44,0,0,1-10.52,13.91A30.13,30.13,0,0,1,172.75,296a25,25,0,0,1-19.22-5.34,25.55,25.55,0,0,1-9.1-17.62C144.38,272.4,144.35,271.72,144.36,271Z"/><path class="cls-36" d="M192,206.33a21.6,21.6,0,0,1,13.91-5.42s-1.44,4.41-7.45,7.82a29.23,29.23,0,0,1,6.39,6.4,17.08,17.08,0,0,1-14.43-2.48s-5.84,6.08-13.6,4c0,0,3.4-7.87,9.9-8,0,0-5.24-2.13-6.48-7.45C180.2,201.28,191.58,202.51,192,206.33Z"/><path class="cls-37" d="M189,209.29c.05.52,1.41.81,3,.65s2.89-.71,2.83-1.23-1.4-.82-3-.66S189,208.77,189,209.29Z"/><path class="cls-15" d="M149,281.21a24.88,24.88,0,0,0,19.21,5.33,30.19,30.19,0,0,0,15.49-7.76,53.49,53.49,0,0,0,10.52-13.92,87.78,87.78,0,0,0,9.93-29.14c1-6.73,1.25-13.67-.53-20.21,0-.07-.05-.14-.07-.22a29.46,29.46,0,0,1,4.64,9.72c1.77,6.53,1.56,13.48.53,20.2a87.84,87.84,0,0,1-9.93,29.15,53.44,53.44,0,0,1-10.52,13.91A30.13,30.13,0,0,1,172.75,296a25,25,0,0,1-19.22-5.34,25.45,25.45,0,0,1-8.4-13.49A24.22,24.22,0,0,0,149,281.21Z"/><rect class="cls-38" x="213.38" y="265.08" width="38.11" height="39.38"/><rect class="cls-38" x="63.92" y="265.08" width="38.11" height="39.38"/><rect class="cls-38" x="47.11" y="288.4" width="206.93" height="45.98"/><rect class="cls-38" x="47.11" y="231.27" width="206.93" height="43.02"/><rect class="cls-8" x="47.11" y="231.27" width="20.23" height="103.12"/><rect class="cls-8" x="101.18" y="231.27" width="20.23" height="103.12"/><rect class="cls-8" x="193.55" y="231.27" width="20.23" height="103.12"/><rect class="cls-8" x="233.81" y="231.27" width="20.23" height="103.12"/><path class="cls-39" d="M58.9,250.09a2.15,2.15,0,1,1-2.15-2.15A2.15,2.15,0,0,1,58.9,250.09Z"/><path class="cls-39" d="M58.9,320.18A2.15,2.15,0,1,1,56.75,318,2.14,2.14,0,0,1,58.9,320.18Z"/><path class="cls-39" d="M113.44,250.09a2.15,2.15,0,1,1-2.14-2.15A2.14,2.14,0,0,1,113.44,250.09Z"/><path class="cls-39" d="M113.44,320.18A2.15,2.15,0,1,1,111.3,318,2.14,2.14,0,0,1,113.44,320.18Z"/><path class="cls-39" d="M205.81,250.09a2.15,2.15,0,1,1-2.15-2.15A2.15,2.15,0,0,1,205.81,250.09Z"/><path class="cls-39" d="M205.81,320.18a2.15,2.15,0,1,1-2.15-2.15A2.15,2.15,0,0,1,205.81,320.18Z"/><path class="cls-39" d="M246.07,250.09a2.15,2.15,0,1,1-2.15-2.15A2.15,2.15,0,0,1,246.07,250.09Z"/><path class="cls-39" d="M246.07,320.18a2.15,2.15,0,1,1-2.15-2.15A2.14,2.14,0,0,1,246.07,320.18Z"/><rect class="cls-40" x="46.67" y="287.52" width="207.79" height="5.19"/><rect class="cls-40" x="46.67" y="304.9" width="207.79" height="2.54"/><rect class="cls-40" x="46.67" y="268.91" width="207.79" height="5.19" transform="translate(301.12 543.01) rotate(180)"/><rect class="cls-40" x="46.67" y="254.17" width="207.79" height="2.54" transform="translate(301.12 510.89) rotate(180)"/><rect class="cls-41" x="46.67" y="332.29" width="207.79" height="2.12"/><rect class="cls-41" x="46.67" y="231.31" width="207.79" height="2.12"/><path class="cls-13" d="M56.73,265.72c-3.91.55-7.49,1-10.84,1.41,2.18-3.22,4.36-6.5,5.26-10.26a4.1,4.1,0,0,0-.4-3.58,3.11,3.11,0,0,0-2.59-1,8.37,8.37,0,0,0-2.74.8c-8.2,3.52-29.83,18.12-29.87,18.15C7.61,276.65,5.11,287,4,296.2,3.08,304,7.28,314,13.32,319.06c9,7.53,17.09,4.43,27.08.84,6.45-2.32,13.63-3.62,19.9-6.2,2.69-1.1,9.89-7.3,4.25-9.63,5,.5,10.6-.73,10.58-6.87.38-3.39-1.85-4.79-4.64-5.44,4.56.35,9.06-.19,9.44-5.29,1.2-5.46-3-7.32-7.46-8,3.14-.12,6-1.21,6.3-5C78.66,262.52,65.05,265.15,56.73,265.72ZM63.14,291c.6,0,1.28.08,2,.17C64.42,291.1,63.73,291.06,63.14,291Z"/><path class="cls-42" d="M45.89,267.13,27.32,271s18.83-9.5,22.25-9.9Z"/><path class="cls-43" d="M61.33,279.58s11-1.44,12.87-1.17"/><line class="cls-43" x1="71.45" y1="291.8" x2="61.22" y2="292.95"/><line class="cls-43" x1="64.55" y1="304.07" x2="59.03" y2="304.57"/><path class="cls-21" d="M40.9,257.6l1.45.62A2.43,2.43,0,0,0,45,257.7c.8-.91,1.48-2.27.33-3.65"/></svg>