<svg id="Layer_1" data-name="Layer 1" xmlns="http://www.w3.org/2000/svg" viewBox="0 0 35 25.3"><path d="M32.58,16.56,20.52,25a1.53,1.53,0,0,1-.86.29,1.11,1.11,0,0,1-.78-.32v0l-.11-.11h0a1.07,1.07,0,0,1-.32-.78,1.53,1.53,0,0,1,.29-.85l8.45-12.06A.61.61,0,0,1,27.3,11a1.28,1.28,0,0,1,1.26-.25,4.57,4.57,0,0,1,1.43.72,10,10,0,0,1,1.24,1,9,9,0,0,1,1,1.22A4.57,4.57,0,0,1,33,15.18a1.28,1.28,0,0,1-.25,1.26h0l-.15.12Zm-12.39,8,12.06-8.45.07-.05h0l.2.2-.2-.2a.72.72,0,0,0,.1-.72,3.92,3.92,0,0,0-.63-1.24,8.46,8.46,0,0,0-1-1.15,8.55,8.55,0,0,0-1.15-1,4.07,4.07,0,0,0-1.25-.63.72.72,0,0,0-.72.1l-.06.07L19.2,23.55a.92.92,0,0,0-.19.52.52.52,0,0,0,.16.38h0l0,0h0l0,0,.1.11h0a.51.51,0,0,0,.37.15,1,1,0,0,0,.53-.18Z"/><path d="M28,14.62a.28.28,0,0,0-.4,0,.28.28,0,0,0,0,.41l2.79,2.79a.28.28,0,0,0,.4,0,.3.3,0,0,0,0-.41Z"/><path d="M24.57,15.46a.28.28,0,0,0-.4.4l1.68,1.68a.28.28,0,0,0,.4-.4Z"/><path d="M24.59,18.89a.29.29,0,1,0-.41.41L25.86,21a.29.29,0,0,0,.41-.41Z"/><path d="M20.93,20.67a.3.3,0,0,0-.41,0,.28.28,0,0,0,0,.4l1.13,1.13a.28.28,0,0,0,.4,0,.3.3,0,0,0,0-.41Z"/><path d="M28,16.58a.28.28,0,0,0-.4,0,.3.3,0,0,0,0,.41l1.65,1.65a.29.29,0,1,0,.41-.41Z"/><path d="M30.94,12.43a.27.27,0,0,0-.12.38.28.28,0,0,0,.38.13s2.07-1.09,3.31.12a.3.3,0,0,0,.41,0,.29.29,0,0,0,0-.41c-1.53-1.51-4-.23-4-.22Z"/><path d="M30.82,12.55a.29.29,0,0,0,.12.39.3.3,0,0,0,.39-.13s1.28-2.43-.23-4a.28.28,0,0,0-.4,0,.29.29,0,0,0,0,.41c1.22,1.24.13,3.3.13,3.31Z"/><path d="M34.43,9.73A.29.29,0,0,0,34,9.32l-3.15,3.16a.28.28,0,0,0,0,.4.27.27,0,0,0,.4,0Z"/><path d="M16,12.91c0-.22,0-.48,0-.79a12.08,12.08,0,0,1,.78-4A3.59,3.59,0,0,1,20,5.54h.24a4,4,0,0,1,1.18.23A4.34,4.34,0,0,1,23.81,8.5a11.27,11.27,0,0,1,.59,4.31,14.6,14.6,0,0,1-.88,4.55l-.27-.1.27.1a.26.26,0,0,1-.05.09l-1.91,2.73L21.32,20l.24.17a.28.28,0,0,1-.1.09,2.26,2.26,0,0,1-1.45.34A3,3,0,0,1,18.52,20a6.45,6.45,0,0,1-2-3.37A16.68,16.68,0,0,1,16,12.94h0v0Zm.58-.77c0,.3,0,.55,0,.76h0a15.86,15.86,0,0,0,.52,3.52,5.89,5.89,0,0,0,1.82,3.08,2.5,2.5,0,0,0,1.2.53,1.73,1.73,0,0,0,1.06-.24L23,17.13a14.24,14.24,0,0,0,.83-4.34,10.68,10.68,0,0,0-.55-4.09A3.83,3.83,0,0,0,21.2,6.31a3,3,0,0,0-1-.2H20a3.05,3.05,0,0,0-2.73,2.2,11.54,11.54,0,0,0-.74,3.83Z"/><path d="M12.57,12.92c0-.2,0-.45,0-.74a11,11,0,0,1,.73-3.78,3.39,3.39,0,0,1,3-2.4h.22a3.43,3.43,0,0,1,.8.12,3.5,3.5,0,0,1,.74.31L18,6.68l.14-.25a.28.28,0,0,1,.11.39l-.06.07A5.3,5.3,0,0,0,17,9.22a13.84,13.84,0,0,0-.44,3.7h0v0A15.67,15.67,0,0,0,16.94,16a7.1,7.1,0,0,0,1.39,3h0a.28.28,0,0,1,0,.4h0a2.43,2.43,0,0,1-1.6.76A2.57,2.57,0,0,1,15,19.54a6.08,6.08,0,0,1-1.9-3.17A15.49,15.49,0,0,1,12.57,13h0v0Zm.58-.72c0,.28,0,.52,0,.71h0a14.74,14.74,0,0,0,.49,3.29,5.44,5.44,0,0,0,1.7,2.87,2.06,2.06,0,0,0,1.34.51,1.8,1.8,0,0,0,1-.44,8,8,0,0,1-1.33-3A16.94,16.94,0,0,1,16,13v0h0a14.46,14.46,0,0,1,.45-3.87,6.35,6.35,0,0,1,1.11-2.29l-.28-.1a3.48,3.48,0,0,0-.67-.1h-.19a2.85,2.85,0,0,0-2.53,2,10.5,10.5,0,0,0-.69,3.58Z"/><path d="M10.37,13v-.6a9.56,9.56,0,0,1,.6-3.1,2.81,2.81,0,0,1,2.54-2h.4l.2,0,0,.29,0-.29a.29.29,0,0,1,.23.34.31.31,0,0,1-.06.13,6.39,6.39,0,0,0-.85,2.13,13.35,13.35,0,0,0-.29,3h0v0a17.24,17.24,0,0,0,.34,2.67,7.46,7.46,0,0,0,1.1,2.67l-.23.17.24-.17a.29.29,0,0,1-.07.4l-.06,0a1.72,1.72,0,0,1-1.05.14,2.29,2.29,0,0,1-1.06-.49,5,5,0,0,1-1.56-2.61A12.44,12.44,0,0,1,10.37,13h0v0Zm.58-.58c0,.22,0,.41,0,.56v0h0a11.69,11.69,0,0,0,.4,2.66,4.34,4.34,0,0,0,1.36,2.31,1.79,1.79,0,0,0,.8.39,1.41,1.41,0,0,0,.41,0,8.5,8.5,0,0,1-1-2.57A16.21,16.21,0,0,1,12.57,13v0h0a13.74,13.74,0,0,1,.31-3.16,7.25,7.25,0,0,1,.7-1.94h-.06a2.28,2.28,0,0,0-2,1.63,8.69,8.69,0,0,0-.55,2.9Z"/><path d="M27.13,11.22A7.7,7.7,0,0,0,26,7.68a2.51,2.51,0,0,0-2.21-1.11,3.48,3.48,0,0,0-.67.1l-.28.1a6.17,6.17,0,0,1,1.1,2.29,14.55,14.55,0,0,1,.46,3.87h0v0a19.27,19.27,0,0,1-.18,2c0,.21-.07.42-.12.64l.05-.06h0v0l3-4.26Zm-.67-3.88a8.31,8.31,0,0,1,1.25,3.91.3.3,0,0,1-.06.22h0l-3,4.32,0,0-.94,1.34a.29.29,0,0,1-.52-.24h0a12.33,12.33,0,0,0,.51-2.12,15.89,15.89,0,0,0,.18-1.89v0h0a13.43,13.43,0,0,0-.43-3.7,5.26,5.26,0,0,0-1.21-2.32.28.28,0,0,1-.06-.08.29.29,0,0,1,.11-.39l.14.25-.14-.25a4.09,4.09,0,0,1,.74-.3,3.43,3.43,0,0,1,.8-.12,3,3,0,0,1,2.69,1.34Z"/><path d="M29.27,11a5.49,5.49,0,0,0-.85-2.34,2,2,0,0,0-1.65-.86,6,6,0,0,1,.52,1.25,10.41,10.41,0,0,1,.36,1.69,1.31,1.31,0,0,1,.66-.06,3,3,0,0,1,1,.32Zm-.38-2.67a6.76,6.76,0,0,1,1,3.16.27.27,0,0,1-.05.21.28.28,0,0,1-.39.08h0a3.38,3.38,0,0,0-1.24-.54.58.58,0,0,0-.57.18.32.32,0,0,1-.22.13.3.3,0,0,1-.31-.26l.29,0-.29,0a9.93,9.93,0,0,0-.4-2.07,5.14,5.14,0,0,0-.68-1.48.29.29,0,0,1,0-.13.29.29,0,0,1,.23-.34l.05.29-.05-.29.2,0h.22a2.51,2.51,0,0,1,2.23,1.1Z"/><path d="M19.3,5.93a16,16,0,0,1-.63-2.73c-.09-1,.12-1.62.93-1.62,1.61,0,2.11.34,2.11,1.08a4.45,4.45,0,0,1-.4,1.44,15.45,15.45,0,0,0-.59,1.81l-.28-.07.28.07a.3.3,0,0,1-.33.22H19.9l-.27,0h0a.29.29,0,0,1-.33-.21Zm-.06-2.78a13.9,13.9,0,0,0,.55,2.4h.43c.18-.63.38-1.17.56-1.64a4.53,4.53,0,0,0,.36-1.24c0-.34-.37-.5-1.54-.5-.34,0-.42.4-.36,1Z"/><path d="M21.88,7.92a.29.29,0,0,0-.56.13,17.13,17.13,0,0,1,.36,3,31.51,31.51,0,0,1-.08,3.76.28.28,0,0,0,.26.31.28.28,0,0,0,.31-.26,32.65,32.65,0,0,0,.08-3.83,18.42,18.42,0,0,0-.37-3.14ZM18.66,18.31a.29.29,0,0,0,.56-.13,17.14,17.14,0,0,1-.42-2.7c-.09-.93-.12-1.84-.14-2.56a.29.29,0,0,0-.57,0c0,.73.05,1.66.14,2.61a19.35,19.35,0,0,0,.43,2.77Z"/><path d="M12.57,12.94h0v0h0v0h0a.16.16,0,0,1,0-.09h0v-.11h0v0h0a.27.27,0,0,1,.15-.22h-.15v0h0v0h0a.3.3,0,0,1,.3-.28.29.29,0,0,1,.27.3h0m0,.57h0v0h0a.28.28,0,0,1-.28.26.28.28,0,0,1-.29-.25h0m.54-.17,0,.09h0v0h0m0-.13h0m0-.08v.08m0-.1v0m0,0h0v0M13,12.4a.3.3,0,0,1,.15.21h0v0h0m0-.25H13m.15-.06v0h0v0m0-.07h0m-.35,6.24a11.39,11.39,0,0,1-4.93,0,14.08,14.08,0,0,1-4.92-2A6.57,6.57,0,0,1,.13,12.94a4.17,4.17,0,0,1,0-1.83l0-.06A4.62,4.62,0,0,1,1,9.51a4,4,0,0,1,1.33-1h0a.29.29,0,0,1,.39.14.36.36,0,0,1,0,.11,4.6,4.6,0,0,0,.14.74,4.11,4.11,0,0,0,.29.73h0a3.82,3.82,0,0,0,2.71,1.63,9,9,0,0,0,4.37-.58h0l.11,0h.18l.22,0h0a.29.29,0,0,1,.31.26v.07c0,.27,0,.51-.06.73s0,.52,0,.7h0v0a11.61,11.61,0,0,0,.4,2.64,4.42,4.42,0,0,0,1.36,2.31l.1.07.09.06h0a.29.29,0,0,1,.09.39.3.3,0,0,1-.19.13ZM8,18a11.2,11.2,0,0,0,4.1.14,5.22,5.22,0,0,1-1.29-2.37A12.12,12.12,0,0,1,10.37,13v0h0c0-.2,0-.46,0-.75l0-.43h-.07a9.48,9.48,0,0,1-4.61.59,4.34,4.34,0,0,1-3.1-1.88.05.05,0,0,1,0,0l.25-.13-.25.13a4.31,4.31,0,0,1-.33-.84,3.15,3.15,0,0,1-.11-.44,3.44,3.44,0,0,0-.78.7,4.13,4.13,0,0,0-.75,1.35,3.61,3.61,0,0,0,0,1.57,6,6,0,0,0,2.59,3.25A13.37,13.37,0,0,0,8,18Z"/><path d="M2.31,12.54a.28.28,0,0,0-.35-.2.28.28,0,0,0-.2.35s.67,2.66,6.1,4.29a.28.28,0,0,0,.35-.2A.27.27,0,0,0,8,16.43c-5.12-1.54-5.71-3.89-5.71-3.89Z"/><path d="M10.76,13.12h0v0Zm0,0h0a.3.3,0,0,1,.22.27v0h0a.29.29,0,0,1-.26.31.28.28,0,0,1-.26-.12l0,0h0a.28.28,0,0,1,0-.4.27.27,0,0,1,.31,0v0h0m0,0s0,0,0,0Zm0,0,0,.16,0,.07v.06h0l-.05.21-.11,0,0-.05.06-.13,0,0v0l.1-.22Zm2.15-.09h0a.28.28,0,0,1,.19.12h0a.44.44,0,0,1,.05.15.3.3,0,0,1-.27.31.29.29,0,0,1-.31-.27h0a.29.29,0,0,1,.27-.31Z"/><path d="M17.26,2s0,0,0,.06a4.3,4.3,0,0,1,.46,2.13,5.27,5.27,0,0,1-.65,2.27l-.25-.13.25.13a.29.29,0,0,1-.3.15h-.24a2.46,2.46,0,0,0-1.27.27,2.81,2.81,0,0,0-1,.9v0h0a.27.27,0,0,1-.28.08l-.15,0h-.17a2,2,0,0,0-1.7.81A5.79,5.79,0,0,0,11,11.37l-.28,0,.28,0a.28.28,0,0,1-.2.24,10.18,10.18,0,0,1-4.91.8A4.46,4.46,0,0,1,2.63,10.5l0-.05h0a5.31,5.31,0,0,1-.37-1A4.14,4.14,0,0,1,2.35,7,3.38,3.38,0,0,1,4,5.18a4.31,4.31,0,0,1,.83-.31A10.79,10.79,0,0,1,7.1,4.58c1.29-.06,2.13-.11,3.55-2.13A7,7,0,0,1,12.53.4,2.92,2.92,0,0,1,15.37.33a3.73,3.73,0,0,1,1.1.68,5.2,5.2,0,0,1,.79,1Zm-.08,2.17a3.63,3.63,0,0,0-.4-1.85,3.85,3.85,0,0,0-.7-.86,3.14,3.14,0,0,0-.93-.58,2.37,2.37,0,0,0-2.32,0,6.64,6.64,0,0,0-1.71,1.89C9.53,5,8.58,5.08,7.13,5.15A10.21,10.21,0,0,0,5,5.43a3,3,0,0,0-.71.26A2.85,2.85,0,0,0,2.88,7.2a3.54,3.54,0,0,0-.09,2.12,4.07,4.07,0,0,0,.32.86A3.86,3.86,0,0,0,6,11.84a9.4,9.4,0,0,0,4.49-.71,6.14,6.14,0,0,1,1-2.83,2.47,2.47,0,0,1,2.17-1h.24a3.27,3.27,0,0,1,1.1-1A3.06,3.06,0,0,1,16.58,6h.1a4.74,4.74,0,0,0,.5-1.86Z"/><path d="M5.22,9.94a.28.28,0,0,0-.39.11.29.29,0,0,0,.1.39S7,11.68,11.36,9.62a.29.29,0,1,0-.24-.52C7,11,5.22,9.94,5.22,9.94Z"/><path d="M11.55,4.4a.29.29,0,0,0,.29.5,4.14,4.14,0,0,0,2-2.78.36.36,0,0,1,.24-.34.85.85,0,0,1,.48.06,2,2,0,0,1,.64.38A2.63,2.63,0,0,1,16,5a.27.27,0,0,0,.2.35.29.29,0,0,0,.35-.2,3.19,3.19,0,0,0-1-3.33,2.35,2.35,0,0,0-.82-.49,1.39,1.39,0,0,0-.82-.07.87.87,0,0,0-.66.84A3.52,3.52,0,0,1,11.55,4.4Z"/></svg>