<svg id="Layer_1" data-name="Layer 1" xmlns="http://www.w3.org/2000/svg" viewBox="0 0 23.72 33"><path d="M11.38,32.75a.6.6,0,0,0,1,0c.06-.11,7-10.33,9.47-14.44a12.29,12.29,0,0,0,1.9-6.45A11.86,11.86,0,0,0,0,11.86a12.5,12.5,0,0,0,1.9,6.45c2.49,4.11,9.41,14.33,9.48,14.43Zm.48-31.58a10.7,10.7,0,0,1,10.7,10.69,11.14,11.14,0,0,1-1.74,5.83C18.74,21.15,13.48,29,11.88,31.36,10.26,29,5,21.15,2.93,17.69h0a11.16,11.16,0,0,1-1.76-5.83A10.69,10.69,0,0,1,11.86,1.17Z"/><path d="M11.86,17.47a5.65,5.65,0,1,0-4-1.65A5.63,5.63,0,0,0,11.86,17.47Zm0-10.11h0A4.47,4.47,0,1,1,8.7,8.67a4.46,4.46,0,0,1,3.16-1.31Z"/></svg>