<svg id="Layer_1" data-name="Layer 1" xmlns="http://www.w3.org/2000/svg" viewBox="0 0 1586.05 421.12"><defs><style>.cls-1{fill:#ffe500;}.cls-2{fill:#fff;}.cls-3,.cls-4,.cls-5{fill:none;stroke-linecap:round;stroke-width:5.12px;}.cls-3,.cls-4,.cls-5,.cls-6,.cls-7{stroke:#000;stroke-miterlimit:10;}.cls-4{stroke-dasharray:0 13;}.cls-5{stroke-dasharray:0 6.93;}.cls-6{stroke-width:2px;}</style></defs><path class="cls-1" d="M1586.05,140.87A137.36,137.36,0,0,1,1543.34,237a64.09,64.09,0,0,0-5.63,4.31,137,137,0,0,1-181.88-2.79,51.33,51.33,0,0,0-5-4c-15.33-10.82-35.68-12.46-53.12-4.66l-7.3,3.27a55.13,55.13,0,0,0-32.62,50.33,137.4,137.4,0,0,1-80.61,125.43l-.32.14c-1.86.85-3.75,1.63-5.65,2.4-.36.13-.71.29-1.06.42-1.74.67-3.48,1.3-5.24,1.9-.55.18-1.11.39-1.67.58-1.61.53-3.25,1-4.89,1.48l-2.18.62c-1.52.42-3.07.78-4.61,1.13-.88.2-1.74.42-2.62.61-1.45.3-2.9.56-4.36.82l-3,.52c-1.37.2-2.76.38-4.15.55-1.12.14-2.24.28-3.36.39-1.31.13-2.62.21-3.94.3s-2.45.18-3.69.24-2.51.07-3.76.08-2.64,0-4,0-2.4-.06-3.59-.1c-1.42-.06-2.83-.13-4.26-.22-.46,0-.92,0-1.38-.08-.87-.06-1.72-.18-2.58-.26-.7-.07-1.39-.1-2.1-.18l-.7-.11c-3.06-.37-6.06-.85-9-1.42-1.1-.2-2.18-.4-3.26-.64-2.54-.54-5.06-1.16-7.54-1.86-1.5-.4-3-.84-4.49-1.3q-2.73-.87-5.42-1.84c-2.12-.76-4.2-1.57-6.29-2.44l-.55-.24a137.9,137.9,0,0,1-79.47-91l-.24-1c-.82-3.14-1.53-6.31-2.12-9.54-.24-1.31-.46-2.64-.67-4-.17-1.17-.44-2.31-.59-3.48A142.11,142.11,0,0,1,983.34,287c-.53-24-14.25-45.62-36.14-55.42a61.33,61.33,0,0,0-65,9.75,137.45,137.45,0,0,1-20.9,14.81l0,0q-2.76,1.58-5.59,3.05a4.82,4.82,0,0,0-.5.27q-2.62,1.34-5.29,2.55l-.77.36c-1.73.77-3.48,1.53-5.25,2.23L843,265c-1.78.7-3.59,1.37-5.41,2l-.77.27c-2,.66-3.94,1.3-6,1.88l-.31.09a135.89,135.89,0,0,1-19.63,4.09l-1.69.19c-1.6.19-3.22.37-4.84.51l-2.36.16c-1.41.1-2.83.18-4.26.23l-2.73.07c-.74,0-1.48,0-2.23,0-.56,0-1.11,0-1.67,0l-3.23-.08c-1.17-.05-2.34-.09-3.5-.17-.64,0-1.29-.05-1.95-.1s-1.25-.12-1.88-.17l-2-.2c-1.55-.16-3.09-.34-4.63-.55l-1.57-.23c-1.61-.25-3.2-.51-4.8-.81l-1.5-.28c-1.55-.31-3.09-.65-4.62-1l-1.68-.4c-1.4-.35-2.79-.73-4.17-1.12l-2.11-.6c-1.16-.35-2.33-.73-3.49-1.11-.9-.3-1.79-.59-2.68-.9s-1.76-.65-2.63-1c-1.16-.42-2.31-.86-3.44-1.33-.53-.2-1.06-.45-1.59-.67-1.45-.61-2.88-1.23-4.3-1.89l-.42-.2a137.39,137.39,0,0,1-34.64-23.12c-15.69-14.34-38.71-17.35-58.12-8.67l-7.3,3.27a55.15,55.15,0,0,0-32.62,50.42v.34c0,80.87-70.31,145.63-153,136.36-62.28-7-112.63-56.66-120.38-118.83A142.11,142.11,0,0,1,327.82,287c-.53-24-14.25-45.62-36.14-55.42a60.64,60.64,0,0,0-64.49,9.24A136.66,136.66,0,0,1,127,274.1C60.12,269.2,5.76,215.23.45,148.43-6.28,64,63.93-6.25,148.36.45c66.95,5.29,121,59.85,125.77,126.85.16,2.29.26,4.58.32,6.84.53,24,14.25,45.64,36.33,55.51l1,.45a58.86,58.86,0,0,0,62.87-9.41,137,137,0,0,1,182.87,1.91c15.69,14.36,38.72,17.35,58.13,8.67l7.28-3.26a55.14,55.14,0,0,0,32.63-50.34,136.6,136.6,0,0,1,33.69-90.4l0,0q2.15-2.46,4.42-4.82l.32-.34c1.43-1.49,2.91-3,4.42-4.38l.56-.53c1.46-1.36,3-2.71,4.46-4l.78-.66c1.48-1.26,3-2.47,4.51-3.66l.94-.73c1.51-1.15,3-2.27,4.58-3.35.37-.26.74-.5,1.1-.76,1.54-1.05,3.09-2.08,4.67-3.06l1.21-.75c1.58-1,3.15-1.9,4.76-2.8l1.31-.71c1.61-.88,3.23-1.74,4.87-2.55l1.36-.64c1.66-.8,3.32-1.58,5-2.3.46-.2.92-.39,1.39-.57,1.71-.72,3.42-1.42,5.16-2.07l1.26-.44c1.81-.65,3.62-1.28,5.47-1.86l.67-.2A135.29,135.29,0,0,1,771,1.76c.54-.09,1.07-.2,1.62-.27,1.32-.2,2.68-.34,4-.5C777.8.86,778.91.7,780,.6s2.38-.16,3.58-.25,2.63-.18,4-.24c1.11,0,2.23,0,3.34,0,1.43,0,2.85,0,4.3,0l3.2.12c1.11,0,2.22.06,3.33.12.44,0,.87.09,1.31.12.27,0,.55,0,.83,0,.66,0,1.29.14,1.94.19,1.1.11,2.2.21,3.3.34s2,.26,3.08.41,2,.29,3,.46,2.18.39,3.27.6c.92.17,1.85.34,2.77.54,1.14.24,2.27.51,3.39.77l2.57.64c1.16.3,2.32.64,3.48,1,.79.23,1.6.45,2.39.71,1.18.35,2.33.75,3.49,1.14l2.3.79c1.16.41,2.3.86,3.46,1.31l2.23.88c1.12.47,2.23,1,3.34,1.45.75.32,1.5.66,2.25,1,1.05.49,2.09,1,3.15,1.53.77.38,1.56.77,2.33,1.17,1,.51,1.93,1,2.9,1.57s1.64.9,2.45,1.37,1.74,1,2.6,1.55l2.64,1.63L868.47,23c.95.64,1.91,1.27,2.85,1.93.62.44,1.22.89,1.83,1.33,1,.77,2.08,1.53,3.11,2.31l1.4,1.11c1.14.91,2.27,1.82,3.38,2.76.32.26.63.55,1,.82,1.23,1.06,2.46,2.13,3.66,3.24.17.15.34.32.5.48q2,1.84,3.93,3.79a.15.15,0,0,0,0,.06,136.62,136.62,0,0,1,39.51,85.69c.2,2.56.33,5.13.39,7.67a63.32,63.32,0,0,0,10.05,33A60.81,60.81,0,0,0,1028,182.44c.72-.57,1.44-1.14,2.15-1.75a138.7,138.7,0,0,1,16.24-12.22l.08,0q2.67-1.73,5.41-3.31l.39-.23c1.75-1,3.5-2,5.3-2.89l.56-.3q2.64-1.35,5.33-2.59c.21-.09.42-.18.62-.29,1.84-.82,3.69-1.62,5.56-2.37l.49-.2c2-.79,4-1.54,6.09-2.25l.07,0a136.43,136.43,0,0,1,19.52-5.1l.83-.13q2.8-.5,5.65-.89l1.92-.22c1.53-.18,3.08-.35,4.64-.48.82-.07,1.65-.12,2.47-.18,1.38-.09,2.77-.17,4.17-.22.94,0,1.88,0,2.83-.06.73,0,1.46,0,2.2,0,.55,0,1.1,0,1.64,0l3.25.08c1.16,0,2.32.1,3.48.17.66,0,1.3,0,1.95.09s1.27.13,1.9.18l2,.2c1.55.16,3.08.35,4.62.56.53.06,1,.15,1.58.22,1.61.24,3.21.52,4.8.8l1.48.29c1.56.32,3.11.65,4.65,1l1.65.39c1.41.36,2.81.73,4.21,1.13l2.07.59c1.18.36,2.34.73,3.51,1.13.89.28,1.78.59,2.67.89s1.77.65,2.66,1c1.13.43,2.27.85,3.4,1.31l1.63.69c1.43.61,2.87,1.22,4.28,1.88l.4.19a138.17,138.17,0,0,1,34.66,23.13c15.69,14.36,38.72,17.35,58.13,8.67l7.28-3.26a55.11,55.11,0,0,0,32.31-44.47,53.08,53.08,0,0,0,.32-5.94v-.36c0-78.63,66.47-142,146.17-137C1524.79,4.58,1580,59,1585.16,126.47c.2,2.56.33,5.13.39,7.67A60,60,0,0,0,1586.05,140.87Z"/><circle class="cls-2" cx="137.24" cy="137.24" r="101.42" transform="translate(-10.68 262.9) rotate(-85.35)"/><line class="cls-3" x1="465.03" y1="115" x2="465.03" y2="115"/><line class="cls-3" x1="465.03" y1="102.3" x2="465.03" y2="102.3"/><line class="cls-4" x1="1120.6" y1="115" x2="1120.6" y2="98.84"/><line class="cls-3" x1="137.24" y1="306.12" x2="137.24" y2="306.12"/><line class="cls-5" x1="137.24" y1="313.05" x2="137.24" y2="316.51"/><line class="cls-3" x1="137.24" y1="319.98" x2="137.24" y2="319.98"/><line class="cls-3" x1="792.81" y1="306.12" x2="792.81" y2="306.12"/><line class="cls-5" x1="792.81" y1="313.05" x2="792.81" y2="316.51"/><line class="cls-3" x1="792.81" y1="319.98" x2="792.81" y2="319.98"/><line class="cls-3" x1="1448.39" y1="306.12" x2="1448.39" y2="306.12"/><line class="cls-3" x1="1448.39" y1="318.82" x2="1448.39" y2="318.82"/><circle class="cls-2" cx="465.03" cy="283.88" r="101.42"/><circle class="cls-2" cx="792.81" cy="137.24" r="101.42" transform="translate(529.02 897.38) rotate(-80.68)"/><circle class="cls-2" cx="1448.36" cy="137.24" r="101.42" transform="translate(1078.42 1544.27) rotate(-80.68)"/><circle class="cls-2" cx="1120.6" cy="283.88" r="101.42"/><path d="M176.72,198.9l4-84.27h5.71a1.58,1.58,0,0,0,1.58-1.58V92.55A1.58,1.58,0,0,0,186.39,91H177.8l-5.73-15.85a1.59,1.59,0,0,0-1.49-1H103.9a1.59,1.59,0,0,0-1.49,1L96.68,91H88.09a1.58,1.58,0,0,0-1.58,1.58v20.5a1.57,1.57,0,0,0,1.58,1.58H93.8l4,84.27a1.59,1.59,0,0,0,1.58,1.51h75.8a1.59,1.59,0,0,0,1.58-1.51Zm-87-87.43V94.13h8.12a1.59,1.59,0,0,0,1.49-1L105,77.24h64.48l5.73,15.84a1.57,1.57,0,0,0,1.48,1h8.12v17.34Zm11.18,85.78L97,114.63h80.55l-3.89,82.62Z"/><path d="M155,85.16H119.26a5.92,5.92,0,0,0-5.91,5.91v6.57a5.92,5.92,0,0,0,5.91,5.91H155a5.92,5.92,0,0,0,5.91-5.91V91.07A5.92,5.92,0,0,0,155,85.16Zm2.75,12.48a2.75,2.75,0,0,1-2.75,2.75H119.26a2.75,2.75,0,0,1-2.75-2.75V91.07a2.75,2.75,0,0,1,2.75-2.75H155a2.75,2.75,0,0,1,2.75,2.75Z"/><path d="M154.41,153.85a1.58,1.58,0,0,0-2.74,1.58l10.54,18.19H145l2.62-2.62a1.58,1.58,0,1,0-2.23-2.23L140,174.08a1.59,1.59,0,0,0,0,2.24l5.32,5.31a1.58,1.58,0,0,0,2.23-2.23L145,176.78h20a1.57,1.57,0,0,0,1.37-.79,1.59,1.59,0,0,0,0-1.58Z"/><path d="M132.51,173.62H112.1l9.7-16.75,1,3.61a1.57,1.57,0,0,0,1.52,1.17,1.44,1.44,0,0,0,.41-.05,1.58,1.58,0,0,0,1.12-1.94l-1.95-7.26a1.56,1.56,0,0,0-1.93-1.11l-7.26,1.94a1.58,1.58,0,1,0,.82,3.05l3.54-.95L108,174.41a1.58,1.58,0,0,0,1.37,2.37h23.15a1.58,1.58,0,1,0,0-3.16Z"/><path d="M139.15,143.78a1.58,1.58,0,0,0,1.12,1.93l7.26,1.95a1.44,1.44,0,0,0,.41.05,1.57,1.57,0,0,0,1.52-1.17l1.95-7.26a1.58,1.58,0,0,0-3-.82l-.91,3.38-8.93-15.42a1.64,1.64,0,0,0-2.73,0l-10.51,18.14a1.58,1.58,0,1,0,2.74,1.58l9.13-15.78,7.71,13.32-3.78-1a1.59,1.59,0,0,0-1.93,1.12Z"/><path class="cls-6" d="M489.73,218.41c0-2-.4-3.55-2.72-3.68l-7.09-.56c-2-.08-2.7,1.3-3.12,3a27.43,27.43,0,0,1,12.93,1.24Zm-59.59,75.92c6.52-1.87,15.46-3,25.27-3.05,2.72,0,5.44.08,8.15.26l4.52-2.61.84-4c-13.18-5.8-20.12-20.55-19.41-34.47.77-15,10.4-29.91,25.76-33,.52-2.62,1.73-4.84,4.74-4.7l7.09.56c3.44.21,4.12,2.69,4.07,5.67,13.53,5.56,20.69,20.31,20.06,34.49-.67,15-10.15,29.86-25.38,33.17l-.64,4.19c-.1.65,0,1.47-.67,1.83l-2.69,2.06c2.87.94,9.29,3.53,9.09,7.29-.05,1,0,2.67-.16,3.82a6.27,6.27,0,0,1-3,4.21l-6.53,36.1c-1.31,7.27-20.64,8.87-26.34,8.92-5.26.06-23.27-1-25.46-7.67a17,17,0,0,1-.36-1.75c-.3-1.59-1-5.15-1.77-9.42-1.82-9.61-4.3-22.77-4.77-25.41-2.08-1.27-3.35-2.71-3.64-4.25a21.16,21.16,0,0,1,.07-3.9c.23-4.92,7.33-7.2,11.2-8.31Zm59.15,11.72,0-.7c-1.84,1.83-5.17,3.43-9.55,4.68-6.52,1.87-15.46,3-25.27,3.05-8.06,0-27.42-1.12-33.81-7.27-.58-.57-.51-.22-.42.47,1,7.43,29.94,8.87,34.08,8.86a94.51,94.51,0,0,0,24.87-3c5.78-1.65,9.54-3.8,10.07-6.1Zm.17-3.58,0-.73c-.22-2.06-3.14-4-7.87-5.6-8.06-2.7-17.67-3.43-26.21-3.42a95.3,95.3,0,0,0-24.87,3c-2.53.73-10.4,3.19-10.13,6.83,1.84-1.84,5.18-3.45,9.57-4.71,6.52-1.87,15.46-3,25.27-3,8.62,0,18.55.77,26.67,3.49,3.48,1.16,6.08,2.58,7.54,4.19ZM486.1,311a33.21,33.21,0,0,1-6.49,2.52,96.86,96.86,0,0,1-25.27,3c-9.11,0-21.92-.89-30.23-4.92.72,3.84,2.93,15.54,4.58,24.28.63,3.3,1.17,6.19,1.53,8.08,1.14-1.77,3.72-3.35,7.27-4.57a59.53,59.53,0,0,1,18.14-2.72c6.15-.06,13.34.58,19.06,2.78,2.68,1,4.62,2.31,5.58,3.75L486.1,311Zm-30.85-14.8c-9.66,0-18.46,1.16-24.87,3-4.67,1.33-8,3-9.41,4.78,4.47,6.4,26.38,7.65,33.53,7.64a95.3,95.3,0,0,0,24.87-3c4.67-1.34,8-3,9.41-4.79-1.08-1.55-3.66-3-7.32-4.22-8-2.66-17.76-3.43-26.21-3.42Zm24.81,48.19c-.56-1.6-2.59-3.06-5.63-4.23-5.63-2.17-12.74-2.79-18.79-2.73a58.7,58.7,0,0,0-17.91,2.68c-4,1.36-6.64,3.13-7.3,5a13.45,13.45,0,0,0,.46,2.05c2.31,5.39,19.69,6.43,24,6.39,4.79-.05,23.83-1.61,24.94-7.75Zm-14-52.67a78.62,78.62,0,0,1,14.07,2.44l2.21-1.69-13.52-2.34Zm43.7-38.36c.63-14.08-7-28.77-20.09-33.5a27,27,0,0,0-13.24-1.23C461.66,221,451.74,235.6,451,250.44c-.74,13.88,6.65,28.69,19.64,33.64a26.69,26.69,0,0,0,14,1.34c14.49-2.5,24.53-16.9,25.21-32Zm-40.21,35.43L483,291.14c.74.14.67,0,.77-.55l.57-3.69a27.47,27.47,0,0,1-14.08-1.44l-.69,3.35Zm11.67-38.16a2.27,2.27,0,0,1-.13,2.91,1.74,1.74,0,0,1-2.67-.12,2.27,2.27,0,0,1,.13-2.91A1.74,1.74,0,0,1,481.25,250.65Zm-.56.45a1,1,0,0,0-1.59-.07,1.53,1.53,0,0,0-.09,2,1,1,0,0,0,1.59.07A1.55,1.55,0,0,0,480.69,251.1Z"/><path d="M765.65,78.37a1.72,1.72,0,0,0-1.72-1.73,5.19,5.19,0,0,1-5.19-5.19,1.73,1.73,0,0,0-3.46,0,5.19,5.19,0,0,1-5.19,5.19,1.73,1.73,0,0,0,0,3.46,5.19,5.19,0,0,1,5.19,5.19,1.73,1.73,0,0,0,3.46,0,5.19,5.19,0,0,1,5.19-5.19,1.72,1.72,0,0,0,1.72-1.73ZM757,80.1a8.86,8.86,0,0,0-1.73-1.73A9.14,9.14,0,0,0,757,76.64a8.59,8.59,0,0,0,1.73,1.73A8.34,8.34,0,0,0,757,80.1Z"/><path d="M836.78,92.89H811.5V88.2a8.38,8.38,0,0,0-8.39-8.37H782.52a8.38,8.38,0,0,0-8.38,8.37v4.69H748.85A1.85,1.85,0,0,0,747,94.74V107.8a1.84,1.84,0,0,0,1.85,1.84h8.72v86.12a9,9,0,0,0,9,9H819a9,9,0,0,0,9-9V109.64h8.72a1.84,1.84,0,0,0,1.85-1.84V94.74a1.85,1.85,0,0,0-1.85-1.85Zm-54.26-9.37h20.59a4.69,4.69,0,0,1,4.69,4.68v4.69h-30V88.2a4.69,4.69,0,0,1,4.69-4.68Zm41.84,112.24a5.32,5.32,0,0,1-5.33,5.31H766.6a5.33,5.33,0,0,1-5.34-5.31V109.64h63.1ZM834.93,106H750.7V96.59h84.23Z"/><path d="M775.64,194.78a1.85,1.85,0,0,0,1.85-1.85V117.8a1.85,1.85,0,0,0-3.7,0v75.13A1.85,1.85,0,0,0,775.64,194.78Z"/><path d="M792.81,194.78a1.85,1.85,0,0,0,1.85-1.85V117.8a1.85,1.85,0,0,0-3.7,0v75.13A1.85,1.85,0,0,0,792.81,194.78Z"/><path d="M810,194.78a1.85,1.85,0,0,0,1.85-1.85V117.8a1.85,1.85,0,1,0-3.7,0v75.13A1.85,1.85,0,0,0,810,194.78Z"/><path d="M851.29,131.68a1.74,1.74,0,0,0-1.73-1.73,5.19,5.19,0,0,1-5.19-5.19,1.73,1.73,0,1,0-3.46,0,5.19,5.19,0,0,1-5.19,5.19,1.73,1.73,0,0,0,0,3.46,5.19,5.19,0,0,1,5.19,5.19,1.73,1.73,0,1,0,3.46,0,5.19,5.19,0,0,1,5.19-5.19,1.74,1.74,0,0,0,1.73-1.73Zm-8.65,1.73a8.34,8.34,0,0,0-1.73-1.73,8.59,8.59,0,0,0,1.73-1.73,9.14,9.14,0,0,0,1.73,1.73A8.86,8.86,0,0,0,842.64,133.41Z"/><path d="M754.29,178.68a1.74,1.74,0,0,0-1.73-1.73,5.19,5.19,0,0,1-5.19-5.19,1.73,1.73,0,0,0-3.46,0,5.19,5.19,0,0,1-5.19,5.19,1.73,1.73,0,0,0,0,3.46,5.19,5.19,0,0,1,5.19,5.19,1.73,1.73,0,1,0,3.46,0,5.19,5.19,0,0,1,5.19-5.19,1.74,1.74,0,0,0,1.73-1.73Zm-8.65,1.73a8.34,8.34,0,0,0-1.73-1.73,8.59,8.59,0,0,0,1.73-1.73,9.14,9.14,0,0,0,1.73,1.73A8.86,8.86,0,0,0,745.64,180.41Z"/><path d="M1092.92,259.13h1.85a13.21,13.21,0,0,1,7.74,2.57,17.47,17.47,0,0,0,7.66,2.95l23,3.13a11.91,11.91,0,0,0,1.19.09,3.48,3.48,0,0,0,2.41-.81,4.83,4.83,0,0,0,1.06-4,10.6,10.6,0,0,0-7-8.79l-4.23-1.32c-2.75-.87-3.07-1.63-3.08-1.63l2-2.74c.81-1,.87-1.09,4.23.3l20.35,8.48a6.91,6.91,0,0,0,9.33-2.89h0a6.3,6.3,0,0,0-3.14-8.33l-.18-.07-24.59-13-.19-.1a22.51,22.51,0,0,0-16.63.74c-1,.36-2,.69-2.9.92a61.9,61.9,0,0,1-14,1.21h-4.91a4.07,4.07,0,0,0-3.5-2h-18a2,2,0,1,0-.18,4.08h18.15v19.15h-18a2,2,0,1,0-.18,4.08h18.18a4.08,4.08,0,0,0,3.48-2Zm19.93-20.54c1-.27,2.07-.63,3.18-1a18.87,18.87,0,0,1,13.72-.88l24.47,12.93c1.74.92,1.94,2.17,1.53,3-.5,1.08-2,1.75-4.07.88l-20.35-8.49c-3.31-1.38-6.18-2.57-9,.91l-1.61,2a4.76,4.76,0,0,0-1.13,4.47c.57,1.88,2.46,3.3,5.76,4.35l4.23,1.34a6.57,6.57,0,0,1,4.16,5v.58h0l-23-3.14h0a13.45,13.45,0,0,1-6-2.39,17.23,17.23,0,0,0-9.86-3.13h-1.3V239.93h4.35a64.23,64.23,0,0,0,15-1.34Z"/><path d="M1115.72,291h3.83l14.08-14.08a1.82,1.82,0,0,0,0-2.56l-5.15-5.13a1.8,1.8,0,0,0-2.56,0l-1.41,1.41a9.07,9.07,0,0,0-11.4,1.16l-22,22a9.07,9.07,0,0,0-1.16,11.41l-1.41,1.41a1.82,1.82,0,0,0,0,2.56l5.15,5.13a1.81,1.81,0,0,0,2.56,0l17.71-17.7v-3.84a1.81,1.81,0,0,1,1.79-1.81Zm-20.8,19.5-2.57-2.56,1.29-1.28a1.84,1.84,0,0,0,0-2.57,5.42,5.42,0,0,1,0-7.68h0l22-22.06a5.43,5.43,0,0,1,7.68,0,1.82,1.82,0,0,0,2.57,0l1.28-1.28,2.56,2.56Z"/><path d="M1115.72,291a1.81,1.81,0,0,0-1.81,1.81v3.84l5.65-5.66Z"/><path d="M1113.91,334.32a1.81,1.81,0,0,0,3.62,0V331.4h-3.62Z"/><path d="M1168.29,334.32a1.81,1.81,0,0,0,3.62,0V331.4h-3.62Z"/><path d="M1122.24,294.61a1.81,1.81,0,0,0,1.81-1.82,5.36,5.36,0,0,1,.37-1.81h-3.81a9.18,9.18,0,0,0-.18,1.81,1.81,1.81,0,0,0,1.81,1.82Z"/><path d="M1126.6,294.61a1.81,1.81,0,0,1-1.81-1.82A9.18,9.18,0,0,1,1125,291h-5.42l-5.66,5.66v35.14h3.63V294.6Z"/><path d="M1164.66,292.79a5.66,5.66,0,0,0-.36-1.81h-35.52a4.92,4.92,0,0,0-.37,1.81,1.81,1.81,0,0,1-1.82,1.81h39.89a1.81,1.81,0,0,1-1.82-1.81Z"/><path d="M1170.1,291h-2a9.26,9.26,0,0,1,.18,1.81,1.81,1.81,0,0,1-1.81,1.82h1.81v37.17h3.63v-39a1.81,1.81,0,0,0-1.81-1.81Z"/><path d="M1142.91,301.86a1.81,1.81,0,0,0-1.81,1.81v24.48a1.81,1.81,0,1,0,3.62,0V303.67A1.81,1.81,0,0,0,1142.91,301.86Z"/><path d="M1129.39,301.86a1.82,1.82,0,0,0-1.82,1.81v24.48a1.82,1.82,0,1,0,3.63.18V303.67a1.81,1.81,0,0,0-1.81-1.81Z"/><path d="M1156.43,301.86a1.81,1.81,0,0,0-1.81,1.81v24.48a1.81,1.81,0,1,0,3.62.18.54.54,0,0,0,0-.18V303.67a1.8,1.8,0,0,0-1.81-1.81Z"/><path d="M1164.66,292.79a1.82,1.82,0,0,0,3.63,0,8.5,8.5,0,0,0-.19-1.81h-3.81a5.36,5.36,0,0,1,.37,1.81Z"/><path d="M1123.16,291h12.53v3.63h-12.53Z"/><path d="M1134.81,287.38l6,.77a2,2,0,0,0,1.65-.57l6.1-5.84,8.82-4.76,3.71,6-6.17,3.39a2,2,0,0,0-1,2.28l1.46,6h4.2l-1.3-5.42,6.68-3.67a2,2,0,0,0,.8-2.77.41.41,0,0,0,0-.09l-5.83-9.45a2,2,0,0,0-2.71-.72l-10.79,5.8a2.29,2.29,0,0,0-.43.32l-5.6,5.36-6.78-.87a2,2,0,0,0-2.24,1.53l-2.52,10H1133Z"/><path class="cls-7" d="M1503.51,95.55A.93.93,0,0,0,1503,95l-44.31-17.17a.91.91,0,0,0-1.13.4l-9.18,16.24-9.18-16.24a.9.9,0,0,0-1.13-.4L1393.74,95a.93.93,0,0,0-.53.55.92.92,0,0,0,.06.76l9.73,17.2-9.73,17.19a.92.92,0,0,0-.06.76.93.93,0,0,0,.53.55l7.27,2.81v47.1a.92.92,0,0,0,.65.88l46.44,13.88a.86.86,0,0,0,.52,0l46.44-13.88a.92.92,0,0,0,.65-.88v-47.1L1503,132a.93.93,0,0,0,.53-.55.92.92,0,0,0-.06-.76l-9.73-17.19,9.73-17.2a.92.92,0,0,0,.06-.76Zm-55.15,34.15-41.78-16.19,41.78-16.2,41.78,16.2ZM1438,79.82l9.06,16-42.58,16.51-9.07-16Zm-33.53,34.83,42.59,16.5-9.06,16-42.59-16.51Zm-1.61,20.88,35.21,13.65a.77.77,0,0,0,.33.06.91.91,0,0,0,.8-.46l8.27-14.62v60.42l-44.61-13.34Zm91,45.71-44.6,13.34V134.16l8.26,14.62a.92.92,0,0,0,.8.47,1,1,0,0,0,.33-.06l35.21-13.65Zm-35.14-34.05-9.06-16,42.59-16.5,9.06,16Zm33.53-34.82-42.59-16.51,9.07-16,42.58,16.51Z"/></svg>