<?xml version="1.0" encoding="UTF-8"?>
<svg id="Layer_2" data-name="Layer 2" xmlns="http://www.w3.org/2000/svg" viewBox="0 0 1372.1 364.31">
  <defs>
    <style>
      .cls-1 {
        stroke-width: .7px;
      }

      .cls-1, .cls-2, .cls-3, .cls-4 {
        stroke: #000;
        stroke-miterlimit: 10;
      }

      .cls-5 {
        fill: #fff;
      }

      .cls-6 {
        fill: #ffe500;
      }

      .cls-3, .cls-4 {
        fill: none;
        stroke-linecap: round;
        stroke-width: 5.12px;
      }

      .cls-4 {
        stroke-dasharray: 0 0 0 13;
      }
    </style>
  </defs>
  <g id="Layer_1-2" data-name="Layer 1">
    <g>
      <g>
        <line class="cls-3" x1="402.3" y1="99.49" x2="402.3" y2="99.49"/>
        <line class="cls-3" x1="402.3" y1="88.5" x2="402.3" y2="88.5"/>
      </g>
      <line class="cls-4" x1="969.43" y1="99.49" x2="969.43" y2="85.5"/>
      <g>
        <line class="cls-3" x1="118.73" y1="264.83" x2="118.73" y2="264.83"/>
        <line class="cls-3" x1="118.73" y1="276.81" x2="118.73" y2="276.81"/>
      </g>
      <g>
        <line class="cls-3" x1="685.86" y1="264.83" x2="685.86" y2="264.83"/>
        <line class="cls-3" x1="685.86" y1="276.81" x2="685.86" y2="276.81"/>
      </g>
      <g>
        <line class="cls-3" x1="1253" y1="264.83" x2="1253" y2="264.83"/>
        <line class="cls-3" x1="1253" y1="275.81" x2="1253" y2="275.81"/>
      </g>
      <g>
        <path class="cls-6" d="M1372.1,121.87c-.85,32.7-14.87,62.12-36.95,83.16-1.68,1.14-3.31,2.39-4.87,3.73-20.79,17.88-47.81,28.7-77.32,28.7s-58.91-11.8-80.03-31.11c-1.38-1.26-2.82-2.42-4.32-3.47-13.26-9.36-30.87-10.78-45.96-4.03l-6.31,2.83c-17.17,7.68-28.22,24.73-28.22,43.54,.14,48.18-28.53,89.78-69.74,108.51-.09,.04-.18,.08-.27,.12-1.61,.73-3.25,1.41-4.89,2.07-.31,.12-.62,.25-.92,.37-1.5,.58-3.01,1.12-4.53,1.64-.48,.16-.96,.34-1.45,.5-1.39,.46-2.81,.87-4.23,1.28-.63,.18-1.25,.37-1.88,.54-1.32,.36-2.66,.67-3.99,.98-.76,.17-1.51,.36-2.27,.52-1.25,.26-2.51,.49-3.77,.71-.87,.15-1.73,.31-2.6,.45-1.19,.18-2.39,.33-3.59,.48-.97,.12-1.94,.24-2.91,.34-1.13,.11-2.27,.18-3.41,.26-1.06,.08-2.12,.15-3.19,.2-1.08,.04-2.17,.06-3.25,.07-1.15,.02-2.29,.04-3.45,.02-1.03-.01-2.07-.05-3.1-.09-1.23-.05-2.45-.11-3.69-.19-.4-.03-.79-.03-1.19-.07-.75-.05-1.49-.15-2.23-.22-.61-.06-1.21-.09-1.82-.16-.21-.02-.41-.07-.61-.09-2.64-.32-5.24-.74-7.82-1.23-.95-.17-1.88-.35-2.82-.55-2.19-.47-4.37-1.01-6.52-1.61-1.3-.35-2.59-.73-3.88-1.13-1.58-.5-3.14-1.03-4.69-1.59-1.84-.66-3.64-1.36-5.44-2.11-.16-.07-.32-.14-.48-.21-33.45-14.1-59.26-43.19-68.75-78.74-.07-.27-.14-.55-.21-.83-.71-2.72-1.32-5.46-1.83-8.25-.21-1.14-.4-2.29-.58-3.45-.15-1.01-.38-1.99-.51-3.01-.52-4.2-.83-8.36-.92-12.48-.46-20.72-12.33-39.47-31.26-47.94-2.69-1.2-5.46-2.15-8.27-2.88-16.68-4.31-34.61-.19-47.98,11.31-5.59,4.81-11.65,9.09-18.08,12.81-.01,.01-.02,.01-.03,.02-1.59,.91-3.2,1.79-4.83,2.64-.15,.07-.3,.15-.44,.23-1.51,.77-3.03,1.51-4.57,2.21-.23,.11-.45,.21-.67,.31-1.5,.67-3.01,1.32-4.54,1.93-.24,.1-.49,.2-.74,.3-1.54,.61-3.1,1.19-4.68,1.73-.22,.08-.44,.16-.66,.24-1.7,.57-3.41,1.12-5.15,1.62-.09,.02-.18,.05-.27,.08-5.51,1.58-11.18,2.77-16.98,3.54-.48,.06-.97,.11-1.46,.16-1.39,.17-2.79,.32-4.19,.44-.68,.06-1.36,.1-2.04,.14-1.22,.09-2.45,.16-3.69,.2-.78,.03-1.57,.04-2.36,.06-.64,0-1.28,.04-1.93,.04-.48,0-.96-.03-1.44-.03-.93-.02-1.86-.04-2.8-.07-1.01-.04-2.02-.08-3.02-.15-.56-.03-1.12-.04-1.69-.08-.55-.04-1.08-.11-1.63-.15-.58-.06-1.16-.11-1.74-.17-1.34-.14-2.67-.3-4-.48-.46-.07-.91-.13-1.36-.2-1.39-.21-2.77-.44-4.15-.7-.43-.08-.87-.16-1.3-.24-1.34-.27-2.67-.56-4-.87-.48-.12-.97-.23-1.45-.35-1.21-.3-2.41-.63-3.61-.97-.61-.17-1.21-.34-1.82-.52-1.01-.3-2.02-.63-3.02-.96-.78-.26-1.55-.51-2.32-.78-.76-.27-1.52-.56-2.28-.85-1-.37-1.99-.75-2.97-1.15-.46-.18-.92-.39-1.38-.58-1.25-.53-2.49-1.07-3.72-1.64-.12-.05-.24-.11-.36-.17-11-5.14-21.11-11.89-29.97-20-13.57-12.41-33.49-15.01-50.28-7.5l-6.31,2.83c-17.19,7.69-28.25,24.77-28.22,43.61v.3c0,69.96-60.83,125.98-132.37,117.96-53.88-6.04-97.44-49.01-104.14-102.8-.52-4.2-.83-8.36-.92-12.48-.46-20.72-12.33-39.47-31.26-47.94-18.58-8.31-40.43-5.37-55.79,7.99-22.92,19.94-53.52,31.25-86.72,28.81C52.01,232.89,4.99,186.2,.39,128.41-5.43,55.36,55.31-5.4,128.35,.39c57.92,4.58,104.69,51.78,108.8,109.74,.14,1.98,.23,3.96,.28,5.92,.46,20.73,12.33,39.48,31.43,48.02l.87,.39c18.17,8.13,39.42,4.99,54.39-8.14,20.89-18.33,48.26-29.45,78.18-29.45s58.9,11.79,80.02,31.1c13.58,12.42,33.5,15.01,50.29,7.5l6.3-2.82c17.18-7.68,28.23-24.74,28.23-43.55-.09-29.9,10.91-57.26,29.14-78.2,.01-.01,.02-.02,.03-.04,1.24-1.42,2.51-2.81,3.82-4.17,.09-.09,.18-.19,.28-.29,1.24-1.29,2.52-2.55,3.82-3.79,.16-.15,.33-.31,.49-.46,1.26-1.18,2.55-2.34,3.86-3.46,.22-.19,.44-.38,.67-.57,1.28-1.09,2.58-2.14,3.9-3.17,.27-.21,.55-.42,.82-.63,1.3-.99,2.62-1.96,3.96-2.9,.32-.22,.64-.43,.95-.65,1.33-.91,2.67-1.8,4.04-2.65,.34-.22,.7-.44,1.05-.65,1.36-.83,2.72-1.64,4.11-2.42,.38-.21,.76-.41,1.14-.62,1.39-.76,2.79-1.5,4.21-2.2,.39-.19,.79-.37,1.18-.56,1.43-.69,2.87-1.36,4.33-1.99,.4-.17,.8-.33,1.2-.49,1.48-.62,2.96-1.23,4.47-1.79,.36-.13,.73-.25,1.09-.38,1.56-.56,3.13-1.11,4.73-1.61,.19-.06,.39-.11,.58-.17,5.2-1.6,10.54-2.84,16.01-3.71,.47-.08,.93-.18,1.4-.24,1.15-.17,2.32-.29,3.48-.43,.98-.11,1.94-.25,2.92-.34,1.02-.09,2.06-.14,3.09-.21,1.14-.08,2.28-.16,3.42-.21,.96-.03,1.93-.03,2.89-.04,1.24-.02,2.47-.04,3.72-.02,.92,.02,1.84,.07,2.77,.1,.96,.04,1.92,.05,2.88,.11,.38,.02,.75,.07,1.13,.1,.24,.02,.48,.02,.72,.04,.57,.04,1.12,.12,1.68,.17,.95,.09,1.9,.18,2.85,.29,.89,.11,1.78,.23,2.67,.36,.88,.12,1.75,.25,2.61,.39,.95,.16,1.89,.34,2.83,.52,.8,.15,1.6,.3,2.4,.47,.98,.21,1.96,.44,2.93,.67,.74,.18,1.48,.36,2.22,.55,1.01,.26,2.01,.55,3.01,.84,.69,.2,1.39,.39,2.07,.61,1.02,.31,2.02,.65,3.02,.99,.67,.23,1.33,.45,1.99,.68,1,.36,1.99,.75,2.99,1.14,.64,.25,1.29,.5,1.93,.76,.97,.4,1.93,.82,2.89,1.25,.65,.28,1.3,.57,1.95,.87,.91,.42,1.81,.87,2.72,1.32,.67,.33,1.35,.67,2.02,1.01,.84,.44,1.67,.9,2.51,1.36,.71,.39,1.42,.78,2.12,1.19,.76,.43,1.5,.89,2.25,1.34,.76,.47,1.52,.93,2.28,1.41,.65,.42,1.29,.85,1.94,1.28,.82,.55,1.65,1.1,2.46,1.67,.54,.38,1.06,.77,1.59,1.15,.9,.66,1.8,1.32,2.69,2,.4,.32,.81,.64,1.21,.96,.98,.78,1.96,1.57,2.92,2.38,.28,.23,.55,.48,.82,.71,1.07,.92,2.13,1.85,3.17,2.81,.15,.13,.29,.27,.43,.41,1.15,1.07,2.29,2.16,3.4,3.28,.01,.02,.03,.04,.05,.05,19.27,19.44,31.97,45.41,34.18,74.13,.17,2.22,.28,4.44,.33,6.64,.23,10.36,3.31,20.24,8.7,28.57,5.39,8.34,13.09,15.14,22.55,19.37,17.7,7.92,38.34,5.61,53.53-6.16,.63-.49,1.25-.98,1.86-1.51,4.4-3.86,9.11-7.38,14.05-10.57,.02-.01,.05-.03,.07-.04,1.54-.99,3.1-1.94,4.68-2.86,.11-.07,.23-.13,.34-.2,1.51-.87,3.03-1.7,4.58-2.5,.16-.09,.33-.17,.49-.26,1.52-.78,3.06-1.52,4.61-2.24,.18-.08,.36-.16,.54-.25,1.59-.71,3.19-1.4,4.81-2.05,.14-.06,.28-.11,.42-.17,1.74-.69,3.49-1.34,5.27-1.95,.02-.01,.04-.01,.06-.02,5.46-1.87,11.1-3.35,16.89-4.41,.24-.04,.47-.07,.71-.11,1.62-.29,3.25-.55,4.89-.77,.55-.07,1.1-.12,1.66-.19,1.33-.16,2.67-.31,4.02-.42,.71-.06,1.42-.1,2.13-.15,1.2-.08,2.4-.15,3.61-.19,.81-.03,1.63-.05,2.45-.06,.63-.01,1.26-.04,1.9-.04,.48,0,.95,.03,1.42,.03,.94,.01,1.87,.04,2.81,.07,1.01,.03,2.01,.08,3.01,.14,.57,.04,1.13,.04,1.69,.08,.55,.04,1.1,.11,1.64,.16,.58,.05,1.16,.11,1.74,.17,1.34,.14,2.67,.3,4,.48,.46,.06,.91,.13,1.37,.19,1.39,.21,2.77,.45,4.15,.7,.43,.08,.86,.16,1.28,.25,1.35,.27,2.69,.56,4.02,.87,.48,.11,.96,.23,1.43,.34,1.22,.31,2.43,.63,3.64,.98,.59,.16,1.19,.33,1.79,.51,1.02,.31,2.03,.63,3.04,.97,.77,.25,1.54,.51,2.31,.77,.77,.28,1.53,.57,2.3,.86,.98,.37,1.96,.74,2.94,1.13,.47,.2,.94,.4,1.41,.6,1.24,.53,2.48,1.06,3.7,1.63,.12,.05,.23,.11,.35,.16,11.01,5.15,21.12,11.91,29.98,20.01,13.58,12.42,33.5,15.01,50.29,7.5l6.3-2.82c15.62-6.98,26.17-21.72,27.95-38.47,.19-1.69,.28-3.41,.28-5.14v-.31c0-68.02,57.5-122.87,126.45-118.48,58.42,3.72,106.16,50.79,110.65,109.16,.17,2.22,.28,4.44,.33,6.64,.04,1.96,.19,3.9,.44,5.82Z"/>
        <circle class="cls-5" cx="118.73" cy="118.73" r="87.74" transform="translate(-9.24 227.44) rotate(-85.35)"/>
        <circle class="cls-5" cx="402.3" cy="245.59" r="87.74"/>
        <circle class="cls-5" cx="685.86" cy="118.73" r="87.74" transform="translate(457.65 776.32) rotate(-80.68)"/>
        <circle class="cls-5" cx="1252.98" cy="118.73" r="87.74" transform="translate(932.95 1335.95) rotate(-80.68)"/>
        <circle class="cls-5" cx="969.43" cy="245.59" r="87.74"/>
        <g>
          <path d="M152.88,172.07l3.42-72.9h4.95c.75,0,1.37-.61,1.37-1.37v-17.74c0-.75-.61-1.37-1.37-1.37h-7.43l-4.96-13.71c-.2-.54-.71-.9-1.28-.9h-57.69c-.58,0-1.09,.36-1.28,.9l-4.96,13.71h-7.43c-.75,0-1.37,.61-1.37,1.37v17.74c0,.75,.61,1.37,1.37,1.37h4.95l3.42,72.9c.03,.73,.63,1.3,1.36,1.3h65.57c.73,0,1.33-.57,1.36-1.3h0ZM77.57,96.44v-15.01h7.03c.58,0,1.09-.36,1.28-.9l4.96-13.71h55.78l4.96,13.71c.2,.54,.71,.9,1.28,.9h7.03v15.01H77.57Zm9.67,74.2l-3.36-71.47h69.68l-3.36,71.47h-62.97Z"/>
          <path d="M134.07,73.68h-30.9c-2.82,0-5.11,2.29-5.11,5.11v5.68c0,2.82,2.29,5.11,5.11,5.11h30.9c2.82,0,5.11-2.29,5.11-5.11v-5.68c0-2.82-2.29-5.11-5.11-5.11Zm2.38,10.79c0,1.31-1.07,2.38-2.38,2.38h-30.9c-1.31,0-2.38-1.07-2.38-2.38v-5.68c0-1.31,1.07-2.38,2.38-2.38h30.9c1.31,0,2.38,1.07,2.38,2.38v5.68Z"/>
          <path d="M133.58,133.09c-.38-.65-1.21-.88-1.87-.5-.65,.38-.88,1.21-.5,1.87l9.12,15.74h-14.92s2.27-2.27,2.27-2.27c.53-.53,.53-1.4,0-1.93s-1.4-.53-1.93,0l-4.6,4.6c-.26,.26-.4,.6-.4,.97s.14,.71,.4,.97l4.6,4.6c.27,.27,.62,.4,.97,.4s.7-.13,.97-.4c.53-.53,.53-1.4,0-1.93l-2.27-2.27h17.29c.49,0,.94-.26,1.18-.68,.24-.42,.24-.94,0-1.37l-10.3-17.79Z"/>
          <path d="M114.64,150.2h-17.66l8.39-14.49,.84,3.12c.16,.61,.71,1.01,1.32,1.01,.12,0,.24-.01,.35-.05,.73-.19,1.16-.94,.97-1.67l-1.68-6.28c-.09-.35-.32-.65-.64-.83-.31-.18-.69-.23-1.04-.14l-6.28,1.68c-.73,.19-1.16,.94-.97,1.67,.19,.73,.94,1.16,1.67,.97l3.07-.82-9.56,16.5c-.24,.42-.25,.94,0,1.37,.24,.42,.69,.68,1.18,.68h20.03c.75,0,1.37-.61,1.37-1.37,0-.75-.61-1.37-1.37-1.37h0Z"/>
          <path d="M120.38,124.38c-.2,.73,.24,1.48,.97,1.67l6.28,1.68c.12,.03,.24,.05,.35,.05,.6,0,1.15-.4,1.32-1.01l1.68-6.28c.2-.73-.24-1.48-.97-1.67-.73-.2-1.48,.24-1.67,.97l-.78,2.92-7.73-13.34c-.49-.84-1.88-.84-2.36,0l-9.09,15.69c-.38,.65-.16,1.49,.5,1.87,.65,.38,1.49,.15,1.87-.5l7.91-13.65,6.67,11.52-3.27-.88c-.73-.2-1.48,.24-1.67,.97h0Z"/>
        </g>
        <g>
          <path d="M363.95,225.36c-.6,0-1.07-.36-1.31-.95l-3.69-9.64c-1.07-2.86-3.93-4.76-6.9-4.76h-4.76c-.83,0-1.43-.6-1.43-1.43s.6-1.43,1.43-1.43h4.76c4.28,0,8.09,2.62,9.64,6.66l3.69,9.64c.24,.71-.12,1.55-.83,1.9-.24,0-.48,0-.59,0h0Z"/>
          <path d="M394.53,305.09c-4.76,0-8.69-3.93-8.69-8.69s3.93-8.69,8.69-8.69,8.69,3.93,8.69,8.69-3.93,8.69-8.69,8.69Zm0-14.52c-3.21,0-5.83,2.62-5.83,5.83s2.62,5.83,5.83,5.83,5.83-2.62,5.83-5.83c0-3.21-2.62-5.83-5.83-5.83h0Z"/>
          <path d="M430.23,305.09c-4.76,0-8.69-3.93-8.69-8.69s3.93-8.69,8.69-8.69,8.69,3.93,8.69,8.69-3.93,8.69-8.69,8.69Zm0-14.52c-3.21,0-5.83,2.62-5.83,5.83s2.62,5.83,5.83,5.83,5.83-2.62,5.83-5.83c0-3.21-2.62-5.83-5.83-5.83h0Z"/>
          <path d="M439.52,281.53h-48.32c-5.83,0-11.07-3.69-12.85-9.28l-16.42-49.74h86.52c3.33,0,6.31,1.55,8.33,4.28,1.9,2.74,2.5,6.07,1.43,9.16l-11.42,35.58h-56.17c-.83,0-1.43-.6-1.43-1.43s.6-1.43,1.43-1.43h54.03l10.83-33.56c.71-2.26,.36-4.76-1.07-6.66-1.43-1.9-3.57-3.09-5.95-3.09h-82.59l15.11,46.05c1.43,4.4,5.47,7.38,10.12,7.38h48.43c.83,0,1.43,.6,1.43,1.43,.12,.71-.6,1.31-1.43,1.31h0Z"/>
          <path d="M417.74,265.34c-.6,0-1.19-.36-1.31-.95l-10.95-33.8c-.24-.71,.12-1.55,.95-1.78,.71-.24,1.55,.12,1.78,.95l10.83,33.68c.24,.71-.12,1.55-.95,1.78-.12,0-.24,.12-.36,.12h0Z"/>
          <path d="M439.52,265.34c-.6,0-1.19-.36-1.31-.95l-10.95-33.92c-.24-.71,.12-1.55,.95-1.78,.71-.24,1.55,.12,1.78,.95l10.95,33.8c.24,.71-.12,1.55-.95,1.78-.12,0-.24,.12-.48,.12h0Z"/>
          <path d="M396.08,265.22c-.6,0-1.19-.36-1.31-.95l-10.95-33.8c-.24-.71,.12-1.55,.95-1.78,.71-.24,1.55,.12,1.78,.95l10.95,33.8c.24,.71-.12,1.55-.95,1.78h-.48Z"/>
          <path d="M446.54,247.85h-74.5c-.83,0-1.43-.6-1.43-1.43s.6-1.43,1.43-1.43h74.5c.83,0,1.43,.6,1.43,1.43s-.71,1.43-1.43,1.43Z"/>
          <path d="M423.93,225.36c-.83,0-1.43-.6-1.43-1.43v-18.8h-46.06v18.8c0,.83-.6,1.43-1.43,1.43s-1.43-.6-1.43-1.43v-21.66s51.77,0,51.77,0v21.66c0,.71-.6,1.43-1.43,1.43h0Z"/>
          <path d="M448.44,225.36c-.83,0-1.43-.6-1.43-1.43v-10.23h-23.09c-.83,0-1.43-.6-1.43-1.43s.6-1.43,1.43-1.43h25.94s0,13.09,0,13.09c0,.71-.6,1.43-1.43,1.43h0Z"/>
          <path d="M412.26,205.13c-.83,0-1.43-.6-1.43-1.43v-14.76h-15.83v14.76c0,.83-.6,1.43-1.43,1.43s-1.43-.6-1.43-1.43v-17.61s21.54,0,21.54,0v17.61c0,.71-.59,1.43-1.43,1.43h0Z"/>
        </g>
        <g>
          <path d="M731.16,140.11v-51.27c0-10.31-8.52-16.89-17.04-16.74-16.74,.3-29.15,0-45.89,.15-3.89,0-7.47,1.35-10.31,3.44-3.89,2.99-6.58,7.62-6.73,12.86-.15,6.28-.3,12.56,2.09,18.54,1.2,2.84,2.69,5.38,4.48,7.62,3.89,5.08,9.57,8.97,15.7,10.76,7.03,2.09,10.61,1.05,17.94,1.05h22.42c.6,0,1.2,.3,1.64,.75l13.6,13.6c.75,.9,2.09,.3,2.09-.75h0Zm-3.89-6.58l-9.12-9.12c-1.05-1.05-2.84-1.79-4.34-1.79h-22.42c-1.94,0-3.59,0-5.08,.15-4.19,.15-7.03,.3-11.66-1.05-5.08-1.49-10.17-4.93-13.75-9.42-1.64-2.09-2.99-4.34-3.89-6.73-2.24-5.38-2.09-11.21-1.79-17.04,.15-3.89,1.94-7.47,5.08-9.87,2.24-1.79,5.08-2.69,8.07-2.69h14.95c10.02,0,19.43,0,30.94-.15,3.29,0,6.73,1.35,9.12,3.74,1.64,1.64,3.74,4.63,3.74,9.12v44.85h.15Z"/>
          <path d="M718.15,98.7c0,2.06-1.67,3.74-3.74,3.74s-3.74-1.67-3.74-3.74,1.67-3.74,3.74-3.74,3.74,1.67,3.74,3.74"/>
          <path d="M694.83,98.7c0,2.06-1.67,3.74-3.74,3.74s-3.74-1.67-3.74-3.74,1.67-3.74,3.74-3.74,3.74,1.67,3.74,3.74"/>
          <path d="M672.41,98.7c0,2.06-1.67,3.74-3.74,3.74s-3.74-1.67-3.74-3.74,1.67-3.74,3.74-3.74,3.74,1.67,3.74,3.74"/>
          <path d="M643.56,165.37c.75,0,1.49-.3,2.09-.9l10.91-10.76h17.64c1.35,0,2.69,0,3.89,.15h2.99c1.94,0,4.48-.15,7.92-1.2,5.08-1.49,9.87-4.78,13.45-9.27,1.64-1.94,2.84-4.19,3.89-6.58,.6-1.49,1.05-2.99,1.35-4.63v-.3h-4.19v.3c-.3,1.2-.6,2.24-1.05,3.14-.75,1.94-1.94,3.89-3.29,5.53-2.99,3.74-7.03,6.58-11.36,7.92-2.99,.9-4.93,1.05-6.73,1.05-.75,0-1.64,0-2.84-.15h-.45c-1.05,0-2.24-.15-3.74-.15h-17.79c-.9,0-2.09,.45-2.69,1.2l-.3,.3c-1.35,1.2-2.99,2.99-4.78,4.63l-4.04,4.04v-37.97c0-4.04,2.09-7.62,5.53-9.72l.3-.15-.15-.3c-.6-1.05-1.05-2.09-1.49-3.14v-.15l-.3,.15c-4.93,2.84-7.77,7.62-7.77,13.3v40.81c0,1.49,1.35,2.84,2.99,2.84h0Z"/>
        </g>
        <path class="cls-1" d="M970.12,195.23c-1.39,0-2.77,.03-4.16,.12-.44,.02-.83,.27-1.05,.65l-15.34,27c-.34,.61-.12,1.38,.48,1.73l11.02,6.46c.6,.34,1.37,.15,1.74-.44l7.26-12.27,8.39,14.81-5.81,3.75c-.4,.26-.62,.71-.59,1.18,.03,.47,.32,.89,.75,1.08l22.56,10.05c.38,.17,.82,.15,1.18-.06,.36-.21,.6-.58,.64-.99l2.66-25.3c.05-.48-.17-.96-.58-1.22-.41-.26-.93-.28-1.35-.03l-6.13,3.67-17.03-29.46c-.21-.37-.59-.61-1.01-.65-1.21-.08-2.43-.08-3.63-.08h0Zm0,2.58c.93,0,1.86,.03,2.79,.08l17.35,29.99c.18,.29,.46,.51,.8,.59,.33,.08,.69,.03,.98-.15l4.96-2.99-2.18,20.9-18.77-8.31,4.84-3.19c.55-.38,.73-1.11,.4-1.7l-10.09-17.8c-.22-.41-.65-.68-1.12-.69-.47,0-.91,.24-1.14,.65l-7.71,13.12-8.8-5.17,14.37-25.26c1.1-.06,2.21-.08,3.31-.08h0Zm-19.69,36.16c-.08,.02-.16,.05-.24,.08l-23.25,10.33c-.46,.2-.77,.64-.79,1.14-.02,.5,.26,.97,.71,1.2l6.21,3.43-17.07,29.54c-.21,.37-.23,.83-.04,1.21,1.16,2.34,2.47,4.55,3.91,6.7,.24,.37,.65,.6,1.09,.61h31.03c.71,0,1.29-.58,1.29-1.29v-12.91c0-.71-.58-1.29-1.29-1.29h-14.04l8.6-14.89,6.17,3.11c.42,.21,.92,.17,1.31-.1,.39-.27,.6-.73,.55-1.19l-2.58-24.54c-.04-.37-.23-.7-.53-.92-.3-.22-.68-.29-1.04-.21h0Zm-.81,3.19l2.14,20.42-5.17-2.62c-.61-.3-1.36-.07-1.7,.52l-10.33,17.88c-.23,.4-.23,.9,0,1.3,.23,.4,.66,.64,1.13,.64h15.01v10.33h-28.98c-1.12-1.71-2.18-3.47-3.11-5.29l17.35-30.02c.17-.3,.21-.66,.11-1-.1-.33-.33-.61-.64-.78l-5.12-2.82,19.29-8.55Zm56.42,14.89c-.17,.02-.34,.08-.48,.16l-10.98,6.66c-.59,.37-.79,1.13-.44,1.74l7.26,12.11h-17.11v-6.78c0-.47-.27-.91-.7-1.13-.42-.22-.93-.19-1.32,.08l-20.66,14.49c-.35,.24-.57,.64-.57,1.07s.21,.83,.57,1.07l20.66,14.21c.39,.27,.9,.3,1.32,.08,.42-.22,.69-.65,.7-1.13v-6.46h33.86c.44,0,.85-.23,1.09-.61,1.46-2.2,2.55-4.29,3.67-6.58,.19-.38,.17-.84-.04-1.21l-15.5-27.12c-.26-.47-.8-.73-1.33-.65h0Zm-.24,3.07l14.45,25.34c-.9,1.82-1.76,3.49-2.82,5.17h-34.42c-.71,0-1.29,.58-1.29,1.29v5.29l-17.11-11.78,17.11-12.03v5.61c0,.71,.58,1.29,1.29,1.29h20.66c.47,0,.9-.26,1.13-.67,.23-.41,.21-.91-.04-1.31l-7.75-12.91,8.8-5.29Z"/>
        <g>
          <path class="cls-2" d="M1231.08,67.45l-.78-.37h-12.18l-.82,.37-.32,.78v93.07c0,4.99,4.08,9.07,9.07,9.07h53.86c4.99,0,9.07-4.08,9.07-9.07V68.23l-.32-.82-.82-.32h-12.18l-.82,.32-.32,.83v27.48c0,2.7-2.15,4.86-4.86,4.86h-33.35c-2.7,0-4.86-2.15-4.86-4.86v-27.48l-.37-.78Zm5.22,35.41h33.39c3.94,0,7.14-3.21,7.14-7.14v-26.34h9.89v91.93c0,3.71-3.07,6.78-6.78,6.78h-53.91c-3.71,0-6.78-3.07-6.78-6.78V69.38h9.89v26.34c0,3.94,3.21,7.14,7.14,7.14h0Z"/>
          <path class="cls-2" d="M1245.97,127.91l3.66-6.05c.78-1.28,2.02-1.88,3.34-1.88s2.56,.6,3.34,1.88l4.63,7.47-1.97-.5c-.6-.14-1.24,.23-1.37,.82-.14,.6,.23,1.24,.82,1.37l4.72,1.19c.14,.05,.27-.05,.41-.05l.41-.05c.14-.09,.18-.23,.23-.37l.27-.37,1.19-4.72c.14-.6-.23-1.24-.82-1.37-.6-.14-1.24,.23-1.37,.82l-.5,2.06-4.67-7.56c-1.19-1.97-3.25-2.98-5.31-2.98s-4.08,1.01-5.31,2.98l-3.66,6.05c-.32,.55-.14,1.24,.37,1.56,.55,.41,1.28,.23,1.6-.32h0Z"/>
          <path class="cls-2" d="M1239.33,152.55h8.47c.64,0,1.14-.5,1.14-1.14s-.5-1.14-1.14-1.14h-8.47c-2.29,0-3.89-1.88-3.89-3.89,0-.69,.18-1.37,.6-2.02l5.45-8.79,.41,1.97c.14,.6,.73,1.01,1.37,.87,.6-.14,1.01-.73,.87-1.37l-1.01-4.76c-.05-.14-.14-.23-.23-.32-.09-.14-.14-.27-.27-.37-.14-.09-.27-.05-.41-.05-.14-.05-.27-.14-.46-.09l-4.76,1.01c-.6,.14-1.01,.73-.87,1.37,.14,.6,.73,1.01,1.37,.87l2.11-.46-5.59,8.88c-.64,1.01-.92,2.15-.92,3.21,.05,3.25,2.61,6.23,6.23,6.23h0Z"/>
          <path class="cls-2" d="M1265.35,136.71l4.63,7.6c.41,.64,.6,1.33,.6,2.02,0,2.02-1.6,3.89-3.89,3.89h-9.02l1.47-1.47c.46-.46,.46-1.19,0-1.6-.46-.46-1.19-.46-1.6,0l-3.44,3.44-.32,.82,.32,.82,3.44,3.44c.46,.46,1.19,.46,1.6,0,.46-.46,.46-1.19,0-1.6l-1.47-1.47h9.02c3.62,0,6.18-2.98,6.18-6.18,0-1.1-.27-2.2-.92-3.21l-4.63-7.6c-.32-.55-1.05-.73-1.56-.37-.6,.23-.73,.92-.41,1.47h0Z"/>
        </g>
      </g>
    </g>
  </g>
</svg>